<?xml version="1.0" encoding="utf-8" standalone="no"?>
<!DOCTYPE svg PUBLIC "-//W3C//DTD SVG 1.1//EN"
  "http://www.w3.org/Graphics/SVG/1.1/DTD/svg11.dtd">
<!-- Created with matplotlib (http://matplotlib.org/) -->
<svg height="288pt" version="1.1" viewBox="0 0 432 288" width="432pt" xmlns="http://www.w3.org/2000/svg" xmlns:xlink="http://www.w3.org/1999/xlink">
 <defs>
  <style type="text/css">
*{stroke-linecap:butt;stroke-linejoin:round;}
  </style>
 </defs>
 <g id="figure_1">
  <g id="patch_1">
   <path d="M 0 288 
L 432 288 
L 432 0 
L 0 0 
z
" style="fill:#ffffff;"/>
  </g>
  <g id="axes_1">
   <g id="patch_2">
    <path d="M 54 252 
L 388.8 252 
L 388.8 34.56 
L 54 34.56 
z
" style="fill:#ffffff;"/>
   </g>
   <g id="matplotlib.axis_1">
    <g id="xtick_1">
     <g id="line2d_1">
      <defs>
       <path d="M 0 0 
L 0 3.5 
" id="m31c86aecf8" style="stroke:#000000;stroke-width:0.8;"/>
      </defs>
      <g>
       <use style="stroke:#000000;stroke-width:0.8;" x="69.218182" xlink:href="#m31c86aecf8" y="252"/>
      </g>
     </g>
     <g id="text_1">
      <!-- 0 -->
      <defs>
       <path d="M 31.78125 66.40625 
Q 24.171875 66.40625 20.328125 58.90625 
Q 16.5 51.421875 16.5 36.375 
Q 16.5 21.390625 20.328125 13.890625 
Q 24.171875 6.390625 31.78125 6.390625 
Q 39.453125 6.390625 43.28125 13.890625 
Q 47.125 21.390625 47.125 36.375 
Q 47.125 51.421875 43.28125 58.90625 
Q 39.453125 66.40625 31.78125 66.40625 
z
M 31.78125 74.21875 
Q 44.046875 74.21875 50.515625 64.515625 
Q 56.984375 54.828125 56.984375 36.375 
Q 56.984375 17.96875 50.515625 8.265625 
Q 44.046875 -1.421875 31.78125 -1.421875 
Q 19.53125 -1.421875 13.0625 8.265625 
Q 6.59375 17.96875 6.59375 36.375 
Q 6.59375 54.828125 13.0625 64.515625 
Q 19.53125 74.21875 31.78125 74.21875 
z
" id="DejaVuSans-30"/>
      </defs>
      <g transform="translate(66.036932 266.598437)scale(0.1 -0.1)">
       <use xlink:href="#DejaVuSans-30"/>
      </g>
     </g>
    </g>
    <g id="xtick_2">
     <g id="line2d_2">
      <g>
       <use style="stroke:#000000;stroke-width:0.8;" x="133.294737" xlink:href="#m31c86aecf8" y="252"/>
      </g>
     </g>
     <g id="text_2">
      <!-- 20 -->
      <defs>
       <path d="M 19.1875 8.296875 
L 53.609375 8.296875 
L 53.609375 0 
L 7.328125 0 
L 7.328125 8.296875 
Q 12.9375 14.109375 22.625 23.890625 
Q 32.328125 33.6875 34.8125 36.53125 
Q 39.546875 41.84375 41.421875 45.53125 
Q 43.3125 49.21875 43.3125 52.78125 
Q 43.3125 58.59375 39.234375 62.25 
Q 35.15625 65.921875 28.609375 65.921875 
Q 23.96875 65.921875 18.8125 64.3125 
Q 13.671875 62.703125 7.8125 59.421875 
L 7.8125 69.390625 
Q 13.765625 71.78125 18.9375 73 
Q 24.125 74.21875 28.421875 74.21875 
Q 39.75 74.21875 46.484375 68.546875 
Q 53.21875 62.890625 53.21875 53.421875 
Q 53.21875 48.921875 51.53125 44.890625 
Q 49.859375 40.875 45.40625 35.40625 
Q 44.1875 33.984375 37.640625 27.21875 
Q 31.109375 20.453125 19.1875 8.296875 
z
" id="DejaVuSans-32"/>
      </defs>
      <g transform="translate(126.932237 266.598437)scale(0.1 -0.1)">
       <use xlink:href="#DejaVuSans-32"/>
       <use x="63.623047" xlink:href="#DejaVuSans-30"/>
      </g>
     </g>
    </g>
    <g id="xtick_3">
     <g id="line2d_3">
      <g>
       <use style="stroke:#000000;stroke-width:0.8;" x="197.371292" xlink:href="#m31c86aecf8" y="252"/>
      </g>
     </g>
     <g id="text_3">
      <!-- 40 -->
      <defs>
       <path d="M 37.796875 64.3125 
L 12.890625 25.390625 
L 37.796875 25.390625 
z
M 35.203125 72.90625 
L 47.609375 72.90625 
L 47.609375 25.390625 
L 58.015625 25.390625 
L 58.015625 17.1875 
L 47.609375 17.1875 
L 47.609375 0 
L 37.796875 0 
L 37.796875 17.1875 
L 4.890625 17.1875 
L 4.890625 26.703125 
z
" id="DejaVuSans-34"/>
      </defs>
      <g transform="translate(191.008792 266.598437)scale(0.1 -0.1)">
       <use xlink:href="#DejaVuSans-34"/>
       <use x="63.623047" xlink:href="#DejaVuSans-30"/>
      </g>
     </g>
    </g>
    <g id="xtick_4">
     <g id="line2d_4">
      <g>
       <use style="stroke:#000000;stroke-width:0.8;" x="261.447847" xlink:href="#m31c86aecf8" y="252"/>
      </g>
     </g>
     <g id="text_4">
      <!-- 60 -->
      <defs>
       <path d="M 33.015625 40.375 
Q 26.375 40.375 22.484375 35.828125 
Q 18.609375 31.296875 18.609375 23.390625 
Q 18.609375 15.53125 22.484375 10.953125 
Q 26.375 6.390625 33.015625 6.390625 
Q 39.65625 6.390625 43.53125 10.953125 
Q 47.40625 15.53125 47.40625 23.390625 
Q 47.40625 31.296875 43.53125 35.828125 
Q 39.65625 40.375 33.015625 40.375 
z
M 52.59375 71.296875 
L 52.59375 62.3125 
Q 48.875 64.0625 45.09375 64.984375 
Q 41.3125 65.921875 37.59375 65.921875 
Q 27.828125 65.921875 22.671875 59.328125 
Q 17.53125 52.734375 16.796875 39.40625 
Q 19.671875 43.65625 24.015625 45.921875 
Q 28.375 48.1875 33.59375 48.1875 
Q 44.578125 48.1875 50.953125 41.515625 
Q 57.328125 34.859375 57.328125 23.390625 
Q 57.328125 12.15625 50.6875 5.359375 
Q 44.046875 -1.421875 33.015625 -1.421875 
Q 20.359375 -1.421875 13.671875 8.265625 
Q 6.984375 17.96875 6.984375 36.375 
Q 6.984375 53.65625 15.1875 63.9375 
Q 23.390625 74.21875 37.203125 74.21875 
Q 40.921875 74.21875 44.703125 73.484375 
Q 48.484375 72.75 52.59375 71.296875 
z
" id="DejaVuSans-36"/>
      </defs>
      <g transform="translate(255.085347 266.598437)scale(0.1 -0.1)">
       <use xlink:href="#DejaVuSans-36"/>
       <use x="63.623047" xlink:href="#DejaVuSans-30"/>
      </g>
     </g>
    </g>
    <g id="xtick_5">
     <g id="line2d_5">
      <g>
       <use style="stroke:#000000;stroke-width:0.8;" x="325.524402" xlink:href="#m31c86aecf8" y="252"/>
      </g>
     </g>
     <g id="text_5">
      <!-- 80 -->
      <defs>
       <path d="M 31.78125 34.625 
Q 24.75 34.625 20.71875 30.859375 
Q 16.703125 27.09375 16.703125 20.515625 
Q 16.703125 13.921875 20.71875 10.15625 
Q 24.75 6.390625 31.78125 6.390625 
Q 38.8125 6.390625 42.859375 10.171875 
Q 46.921875 13.96875 46.921875 20.515625 
Q 46.921875 27.09375 42.890625 30.859375 
Q 38.875 34.625 31.78125 34.625 
z
M 21.921875 38.8125 
Q 15.578125 40.375 12.03125 44.71875 
Q 8.5 49.078125 8.5 55.328125 
Q 8.5 64.0625 14.71875 69.140625 
Q 20.953125 74.21875 31.78125 74.21875 
Q 42.671875 74.21875 48.875 69.140625 
Q 55.078125 64.0625 55.078125 55.328125 
Q 55.078125 49.078125 51.53125 44.71875 
Q 48 40.375 41.703125 38.8125 
Q 48.828125 37.15625 52.796875 32.3125 
Q 56.78125 27.484375 56.78125 20.515625 
Q 56.78125 9.90625 50.3125 4.234375 
Q 43.84375 -1.421875 31.78125 -1.421875 
Q 19.734375 -1.421875 13.25 4.234375 
Q 6.78125 9.90625 6.78125 20.515625 
Q 6.78125 27.484375 10.78125 32.3125 
Q 14.796875 37.15625 21.921875 38.8125 
z
M 18.3125 54.390625 
Q 18.3125 48.734375 21.84375 45.5625 
Q 25.390625 42.390625 31.78125 42.390625 
Q 38.140625 42.390625 41.71875 45.5625 
Q 45.3125 48.734375 45.3125 54.390625 
Q 45.3125 60.0625 41.71875 63.234375 
Q 38.140625 66.40625 31.78125 66.40625 
Q 25.390625 66.40625 21.84375 63.234375 
Q 18.3125 60.0625 18.3125 54.390625 
z
" id="DejaVuSans-38"/>
      </defs>
      <g transform="translate(319.161902 266.598437)scale(0.1 -0.1)">
       <use xlink:href="#DejaVuSans-38"/>
       <use x="63.623047" xlink:href="#DejaVuSans-30"/>
      </g>
     </g>
    </g>
   </g>
   <g id="matplotlib.axis_2">
    <g id="ytick_1">
     <g id="line2d_6">
      <defs>
       <path d="M 0 0 
L -3.5 0 
" id="ma3c8c72339" style="stroke:#000000;stroke-width:0.8;"/>
      </defs>
      <g>
       <use style="stroke:#000000;stroke-width:0.8;" x="54" xlink:href="#ma3c8c72339" y="242.116364"/>
      </g>
     </g>
     <g id="text_6">
      <!-- 0.0 -->
      <defs>
       <path d="M 10.6875 12.40625 
L 21 12.40625 
L 21 0 
L 10.6875 0 
z
" id="DejaVuSans-2e"/>
      </defs>
      <g transform="translate(31.096875 245.915582)scale(0.1 -0.1)">
       <use xlink:href="#DejaVuSans-30"/>
       <use x="63.623047" xlink:href="#DejaVuSans-2e"/>
       <use x="95.410156" xlink:href="#DejaVuSans-30"/>
      </g>
     </g>
    </g>
    <g id="ytick_2">
     <g id="line2d_7">
      <g>
       <use style="stroke:#000000;stroke-width:0.8;" x="54" xlink:href="#ma3c8c72339" y="212.432712"/>
      </g>
     </g>
     <g id="text_7">
      <!-- 0.2 -->
      <g transform="translate(31.096875 216.231931)scale(0.1 -0.1)">
       <use xlink:href="#DejaVuSans-30"/>
       <use x="63.623047" xlink:href="#DejaVuSans-2e"/>
       <use x="95.410156" xlink:href="#DejaVuSans-32"/>
      </g>
     </g>
    </g>
    <g id="ytick_3">
     <g id="line2d_8">
      <g>
       <use style="stroke:#000000;stroke-width:0.8;" x="54" xlink:href="#ma3c8c72339" y="182.74906"/>
      </g>
     </g>
     <g id="text_8">
      <!-- 0.4 -->
      <g transform="translate(31.096875 186.548279)scale(0.1 -0.1)">
       <use xlink:href="#DejaVuSans-30"/>
       <use x="63.623047" xlink:href="#DejaVuSans-2e"/>
       <use x="95.410156" xlink:href="#DejaVuSans-34"/>
      </g>
     </g>
    </g>
    <g id="ytick_4">
     <g id="line2d_9">
      <g>
       <use style="stroke:#000000;stroke-width:0.8;" x="54" xlink:href="#ma3c8c72339" y="153.065408"/>
      </g>
     </g>
     <g id="text_9">
      <!-- 0.6 -->
      <g transform="translate(31.096875 156.864627)scale(0.1 -0.1)">
       <use xlink:href="#DejaVuSans-30"/>
       <use x="63.623047" xlink:href="#DejaVuSans-2e"/>
       <use x="95.410156" xlink:href="#DejaVuSans-36"/>
      </g>
     </g>
    </g>
    <g id="ytick_5">
     <g id="line2d_10">
      <g>
       <use style="stroke:#000000;stroke-width:0.8;" x="54" xlink:href="#ma3c8c72339" y="123.381757"/>
      </g>
     </g>
     <g id="text_10">
      <!-- 0.8 -->
      <g transform="translate(31.096875 127.180976)scale(0.1 -0.1)">
       <use xlink:href="#DejaVuSans-30"/>
       <use x="63.623047" xlink:href="#DejaVuSans-2e"/>
       <use x="95.410156" xlink:href="#DejaVuSans-38"/>
      </g>
     </g>
    </g>
    <g id="ytick_6">
     <g id="line2d_11">
      <g>
       <use style="stroke:#000000;stroke-width:0.8;" x="54" xlink:href="#ma3c8c72339" y="93.698105"/>
      </g>
     </g>
     <g id="text_11">
      <!-- 1.0 -->
      <defs>
       <path d="M 12.40625 8.296875 
L 28.515625 8.296875 
L 28.515625 63.921875 
L 10.984375 60.40625 
L 10.984375 69.390625 
L 28.421875 72.90625 
L 38.28125 72.90625 
L 38.28125 8.296875 
L 54.390625 8.296875 
L 54.390625 0 
L 12.40625 0 
z
" id="DejaVuSans-31"/>
      </defs>
      <g transform="translate(31.096875 97.497324)scale(0.1 -0.1)">
       <use xlink:href="#DejaVuSans-31"/>
       <use x="63.623047" xlink:href="#DejaVuSans-2e"/>
       <use x="95.410156" xlink:href="#DejaVuSans-30"/>
      </g>
     </g>
    </g>
    <g id="ytick_7">
     <g id="line2d_12">
      <g>
       <use style="stroke:#000000;stroke-width:0.8;" x="54" xlink:href="#ma3c8c72339" y="64.014453"/>
      </g>
     </g>
     <g id="text_12">
      <!-- 1.2 -->
      <g transform="translate(31.096875 67.813672)scale(0.1 -0.1)">
       <use xlink:href="#DejaVuSans-31"/>
       <use x="63.623047" xlink:href="#DejaVuSans-2e"/>
       <use x="95.410156" xlink:href="#DejaVuSans-32"/>
      </g>
     </g>
    </g>
    <g id="ytick_8">
     <g id="line2d_13">
      <g>
       <use style="stroke:#000000;stroke-width:0.8;" x="54" xlink:href="#ma3c8c72339" y="34.330802"/>
      </g>
     </g>
     <g id="text_13">
      <!-- 1.4 -->
      <g transform="translate(31.096875 38.13002)scale(0.1 -0.1)">
       <use xlink:href="#DejaVuSans-31"/>
       <use x="63.623047" xlink:href="#DejaVuSans-2e"/>
       <use x="95.410156" xlink:href="#DejaVuSans-34"/>
      </g>
     </g>
    </g>
   </g>
   <g id="line2d_14">
    <path clip-path="url(#p057e2e89d2)" d="M 69.218182 84.69057 
L 72.42201 95.880225 
L 75.625837 115.470145 
L 78.829665 61.688749 
L 82.033493 67.103264 
L 85.237321 68.308941 
L 88.441148 109.140898 
L 91.644976 61.590164 
L 94.848804 92.446278 
L 98.052632 122.813012 
L 101.256459 78.151974 
L 104.460287 68.971776 
L 107.664115 58.148283 
L 110.867943 80.224891 
L 114.07177 109.987035 
L 117.275598 75.700999 
L 120.479426 71.315701 
L 123.683254 84.092214 
L 126.887081 88.693558 
L 130.090909 73.421776 
L 133.294737 59.372037 
L 136.498565 69.889982 
L 139.702392 90.398956 
L 142.90622 70.637851 
L 146.110048 91.986917 
L 149.313876 76.092453 
L 152.517703 93.160209 
L 155.721531 74.122578 
L 158.925359 101.996071 
L 162.129187 85.418937 
L 165.333014 93.958719 
L 168.536842 72.386169 
L 171.74067 57.100904 
L 174.944498 84.411203 
L 178.148325 65.940752 
L 181.352153 88.852344 
L 184.555981 60.364372 
L 187.759809 82.872101 
L 190.963636 76.554313 
L 194.167464 90.930023 
L 197.371292 84.3855 
L 200.57512 75.393983 
L 203.778947 96.777738 
L 206.982775 61.710188 
L 210.186603 103.766209 
L 213.390431 74.960256 
L 216.594258 71.764277 
L 219.798086 81.445429 
L 223.001914 69.378706 
L 226.205742 102.063304 
L 229.409569 106.747036 
L 232.613397 71.012843 
L 235.817225 115.735983 
L 239.021053 84.387577 
L 242.22488 52.039566 
L 245.428708 105.972646 
L 248.632536 61.350882 
L 251.836364 110.282324 
L 255.040191 104.014472 
L 258.244019 116.995731 
L 261.447847 125.662718 
L 264.651675 74.887147 
L 267.855502 100.289388 
L 271.05933 72.818662 
L 274.263158 142.283844 
L 277.466986 94.135945 
L 280.670813 89.698497 
L 283.874641 93.221003 
L 287.078469 137.381416 
L 290.282297 103.328086 
L 293.486124 115.785846 
L 296.689952 124.905344 
L 299.89378 100.577809 
L 303.097608 98.150113 
L 306.301435 135.95913 
L 309.505263 102.821033 
L 312.709091 113.520489 
L 315.912919 117.897491 
L 319.116746 131.570242 
L 322.320574 122.393905 
L 325.524402 98.105834 
L 328.72823 114.690491 
L 331.932057 96.778643 
L 335.135885 164.300296 
L 338.339713 178.483824 
L 341.543541 114.286075 
L 344.747368 197.065481 
L 347.951196 138.786936 
L 351.155024 120.957197 
L 354.358852 187.400062 
L 357.562679 131.456074 
L 360.766507 183.537564 
L 363.970335 203.35884 
L 367.174163 127.078993 
L 370.37799 196.663714 
L 373.581818 203.659581 
" style="fill:none;stroke:#0000ff;stroke-linecap:square;stroke-width:1.5;"/>
   </g>
   <g id="line2d_15">
    <path clip-path="url(#p057e2e89d2)" d="M 69.218182 79.063566 
L 72.42201 79.037944 
L 75.625837 79.036142 
L 78.829665 78.968638 
L 82.033493 78.933632 
L 85.237321 78.918729 
L 88.441148 78.917094 
L 91.644976 78.824376 
L 94.848804 78.852102 
L 98.052632 78.774991 
L 101.256459 78.686964 
L 104.460287 78.67787 
L 107.664115 78.543525 
L 110.867943 78.580918 
L 114.07177 78.453536 
L 117.275598 78.48504 
L 120.479426 78.426421 
L 123.683254 78.438621 
L 126.887081 78.428409 
L 130.090909 78.381584 
L 133.294737 78.301249 
L 136.498565 78.374528 
L 139.702392 78.331623 
L 142.90622 78.056622 
L 146.110048 78.139627 
L 149.313876 77.997936 
L 152.517703 77.836279 
L 155.721531 77.856373 
L 158.925359 77.814247 
L 162.129187 77.860985 
L 165.333014 78.2727 
L 168.536842 77.185615 
L 171.74067 77.607989 
L 174.944498 77.64689 
L 178.148325 77.587406 
L 181.352153 77.792666 
L 184.555981 77.247775 
L 187.759809 78.057262 
L 190.963636 77.379067 
L 194.167464 78.079411 
L 197.371292 78.257216 
L 200.57512 77.049491 
L 203.778947 77.731863 
L 206.982775 77.252737 
L 210.186603 77.309807 
L 213.390431 77.521904 
L 216.594258 77.034966 
L 219.798086 77.366718 
L 223.001914 76.183539 
L 226.205742 77.086926 
L 229.409569 77.428026 
L 232.613397 74.80802 
L 235.817225 82.246113 
L 239.021053 73.939921 
L 242.22488 73.966483 
L 245.428708 82.708464 
L 248.632536 74.601133 
L 251.836364 84.208013 
L 255.040191 75.79191 
L 258.244019 92.834332 
L 261.447847 90.077393 
L 264.651675 71.95058 
L 267.855502 76.06443 
L 271.05933 71.127825 
L 274.263158 242.116364 
L 277.466986 76.160334 
L 280.670813 77.259787 
L 283.874641 74.61795 
L 287.078469 242.116364 
L 290.282297 74.374646 
L 293.486124 86.139271 
L 296.689952 242.116364 
L 299.89378 78.127333 
L 303.097608 78.528322 
L 306.301435 242.116364 
L 309.505263 78.32577 
L 312.709091 79.681777 
L 315.912919 78.387976 
L 319.116746 198.495631 
L 322.320574 130.150843 
L 325.524402 75.785326 
L 328.72823 80.759038 
L 331.932057 74.668416 
L 335.135885 242.116364 
L 338.339713 242.116364 
L 341.543541 75.541749 
L 344.747368 242.116364 
L 347.951196 239.527643 
L 351.155024 239.792509 
L 354.358852 242.116364 
L 357.562679 242.116364 
L 360.766507 242.116364 
L 363.970335 242.116364 
L 367.174163 93.392378 
L 370.37799 242.116364 
L 373.581818 242.116364 
" style="fill:none;stroke:#0000ff;stroke-dasharray:5.55,2.4;stroke-dashoffset:0;stroke-width:1.5;"/>
   </g>
   <g id="line2d_16">
    <path clip-path="url(#p057e2e89d2)" d="M 69.218182 77.64849 
L 72.42201 90.445931 
L 75.625837 110.780322 
L 78.829665 53.180662 
L 82.033493 55.406644 
L 85.237321 66.35019 
L 88.441148 103.720377 
L 91.644976 47.267452 
L 94.848804 84.456296 
L 98.052632 109.594827 
L 101.256459 69.936332 
L 104.460287 58.703159 
L 107.664115 44.443636 
L 110.867943 73.989563 
L 114.07177 104.520142 
L 117.275598 72.055413 
L 120.479426 71.230741 
L 123.683254 79.22374 
L 126.887081 74.278783 
L 130.090909 67.28239 
L 133.294737 47.392928 
L 136.498565 59.122967 
L 139.702392 88.007282 
L 142.90622 71.720243 
L 146.110048 88.00503 
L 149.313876 64.857887 
L 152.517703 86.276385 
L 155.721531 71.674935 
L 158.925359 89.691122 
L 162.129187 78.072896 
L 165.333014 90.151513 
L 168.536842 65.54225 
L 171.74067 56.287453 
L 174.944498 82.220204 
L 178.148325 75.096745 
L 181.352153 80.874869 
L 184.555981 60.023757 
L 187.759809 82.855019 
L 190.963636 72.895535 
L 194.167464 83.115485 
L 197.371292 79.679411 
L 200.57512 73.505039 
L 203.778947 96.169047 
L 206.982775 59.399479 
L 210.186603 102.085506 
L 213.390431 74.798964 
L 216.594258 69.918456 
L 219.798086 77.916005 
L 223.001914 78.070328 
L 226.205742 96.674256 
L 229.409569 104.175937 
L 232.613397 65.823663 
L 235.817225 111.550342 
L 239.021053 76.097588 
L 242.22488 53.171222 
L 245.428708 106.012731 
L 248.632536 61.785736 
L 251.836364 112.262096 
L 255.040191 94.94206 
L 258.244019 118.084782 
L 261.447847 125.46609 
L 264.651675 82.473579 
L 267.855502 106.956485 
L 271.05933 71.201207 
L 274.263158 141.528372 
L 277.466986 93.818688 
L 280.670813 94.067529 
L 283.874641 89.222797 
L 287.078469 135.571443 
L 290.282297 104.885494 
L 293.486124 115.744692 
L 296.689952 134.807101 
L 299.89378 94.632558 
L 303.097608 94.72535 
L 306.301435 132.391596 
L 309.505263 102.444363 
L 312.709091 115.253486 
L 315.912919 107.953225 
L 319.116746 130.384079 
L 322.320574 117.275203 
L 325.524402 96.697761 
L 328.72823 109.118939 
L 331.932057 97.344948 
L 335.135885 172.42524 
L 338.339713 169.282618 
L 341.543541 108.318149 
L 344.747368 193.112682 
L 347.951196 136.186575 
L 351.155024 119.383122 
L 354.358852 190.138122 
L 357.562679 127.943665 
L 360.766507 187.538331 
L 363.970335 198.337687 
L 367.174163 121.525963 
L 370.37799 196.40005 
L 373.581818 207.335863 
" style="fill:none;stroke:#008000;stroke-linecap:square;stroke-width:1.5;"/>
   </g>
   <g id="line2d_17">
    <path clip-path="url(#p057e2e89d2)" d="M 69.218182 69.58533 
L 72.42201 75.59008 
L 75.625837 85.384712 
L 78.829665 59.946666 
L 82.033493 64.703528 
L 85.237321 65.9957 
L 88.441148 85.899315 
L 91.644976 53.521358 
L 94.848804 56.640639 
L 98.052632 67.10495 
L 101.256459 60.387253 
L 104.460287 66.416192 
L 107.664115 59.368545 
L 110.867943 56.62209 
L 114.07177 81.083573 
L 117.275598 63.935447 
L 120.479426 64.126645 
L 123.683254 63.740524 
L 126.887081 66.375316 
L 130.090909 58.003868 
L 133.294737 47.147449 
L 136.498565 64.783201 
L 139.702392 74.133007 
L 142.90622 64.419954 
L 146.110048 70.69786 
L 149.313876 55.353594 
L 152.517703 77.331204 
L 155.721531 71.686964 
L 158.925359 61.321669 
L 162.129187 62.845964 
L 165.333014 67.663969 
L 168.536842 67.657034 
L 171.74067 60.498745 
L 174.944498 73.20232 
L 178.148325 80.286237 
L 181.352153 79.238722 
L 184.555981 61.349969 
L 187.759809 79.397239 
L 190.963636 64.876367 
L 194.167464 61.638757 
L 197.371292 75.002305 
L 200.57512 72.830878 
L 203.778947 81.215998 
L 206.982775 65.169635 
L 210.186603 80.244352 
L 213.390431 67.976961 
L 216.594258 76.74397 
L 219.798086 77.987854 
L 223.001914 84.765297 
L 226.205742 76.111842 
L 229.409569 95.043501 
L 232.613397 60.109219 
L 235.817225 85.268229 
L 239.021053 65.538582 
L 242.22488 66.801674 
L 245.428708 92.040543 
L 248.632536 65.759479 
L 251.836364 86.299227 
L 255.040191 75.56248 
L 258.244019 94.558968 
L 261.447847 86.510083 
L 264.651675 61.461683 
L 267.855502 91.662416 
L 271.05933 69.165283 
L 274.263158 242.116364 
L 277.466986 80.522195 
L 280.670813 91.469609 
L 283.874641 66.375432 
L 287.078469 242.116364 
L 290.282297 83.548546 
L 293.486124 79.581578 
L 296.689952 242.116364 
L 299.89378 77.287049 
L 303.097608 93.325408 
L 306.301435 242.116364 
L 309.505263 66.711483 
L 312.709091 93.097167 
L 315.912919 74.522018 
L 319.116746 160.441647 
L 322.320574 89.192878 
L 325.524402 70.517929 
L 328.72823 89.161996 
L 331.932057 79.510462 
L 335.135885 242.116364 
L 338.339713 242.116364 
L 341.543541 85.289541 
L 344.747368 242.116364 
L 347.951196 217.755658 
L 351.155024 217.387842 
L 354.358852 242.116364 
L 357.562679 242.116364 
L 360.766507 242.116364 
L 363.970335 242.116364 
L 367.174163 95.915424 
L 370.37799 242.116364 
L 373.581818 242.116364 
" style="fill:none;stroke:#008000;stroke-dasharray:5.55,2.4;stroke-dashoffset:0;stroke-width:1.5;"/>
   </g>
   <g id="patch_3">
    <path d="M 54 252 
L 54 34.56 
" style="fill:none;stroke:#000000;stroke-linecap:square;stroke-linejoin:miter;stroke-width:0.8;"/>
   </g>
   <g id="patch_4">
    <path d="M 388.8 252 
L 388.8 34.56 
" style="fill:none;stroke:#000000;stroke-linecap:square;stroke-linejoin:miter;stroke-width:0.8;"/>
   </g>
   <g id="patch_5">
    <path d="M 54 252 
L 388.8 252 
" style="fill:none;stroke:#000000;stroke-linecap:square;stroke-linejoin:miter;stroke-width:0.8;"/>
   </g>
   <g id="patch_6">
    <path d="M 54 34.56 
L 388.8 34.56 
" style="fill:none;stroke:#000000;stroke-linecap:square;stroke-linejoin:miter;stroke-width:0.8;"/>
   </g>
   <g id="legend_1">
    <g id="patch_7">
     <path d="M 61 247 
L 146.93125 247 
Q 148.93125 247 148.93125 245 
L 148.93125 187.2875 
Q 148.93125 185.2875 146.93125 185.2875 
L 61 185.2875 
Q 59 185.2875 59 187.2875 
L 59 245 
Q 59 247 61 247 
z
" style="fill:#ffffff;opacity:0.8;stroke:#cccccc;stroke-linejoin:miter;"/>
    </g>
    <g id="line2d_18">
     <path d="M 63 193.385938 
L 83 193.385938 
" style="fill:none;stroke:#0000ff;stroke-linecap:square;stroke-width:1.5;"/>
    </g>
    <g id="line2d_19"/>
    <g id="text_14">
     <!-- MF Mean -->
     <defs>
      <path d="M 9.8125 72.90625 
L 24.515625 72.90625 
L 43.109375 23.296875 
L 61.8125 72.90625 
L 76.515625 72.90625 
L 76.515625 0 
L 66.890625 0 
L 66.890625 64.015625 
L 48.09375 14.015625 
L 38.1875 14.015625 
L 19.390625 64.015625 
L 19.390625 0 
L 9.8125 0 
z
" id="DejaVuSans-4d"/>
      <path d="M 9.8125 72.90625 
L 51.703125 72.90625 
L 51.703125 64.59375 
L 19.671875 64.59375 
L 19.671875 43.109375 
L 48.578125 43.109375 
L 48.578125 34.8125 
L 19.671875 34.8125 
L 19.671875 0 
L 9.8125 0 
z
" id="DejaVuSans-46"/>
      <path id="DejaVuSans-20"/>
      <path d="M 56.203125 29.59375 
L 56.203125 25.203125 
L 14.890625 25.203125 
Q 15.484375 15.921875 20.484375 11.0625 
Q 25.484375 6.203125 34.421875 6.203125 
Q 39.59375 6.203125 44.453125 7.46875 
Q 49.3125 8.734375 54.109375 11.28125 
L 54.109375 2.78125 
Q 49.265625 0.734375 44.1875 -0.34375 
Q 39.109375 -1.421875 33.890625 -1.421875 
Q 20.796875 -1.421875 13.15625 6.1875 
Q 5.515625 13.8125 5.515625 26.8125 
Q 5.515625 40.234375 12.765625 48.109375 
Q 20.015625 56 32.328125 56 
Q 43.359375 56 49.78125 48.890625 
Q 56.203125 41.796875 56.203125 29.59375 
z
M 47.21875 32.234375 
Q 47.125 39.59375 43.09375 43.984375 
Q 39.0625 48.390625 32.421875 48.390625 
Q 24.90625 48.390625 20.390625 44.140625 
Q 15.875 39.890625 15.1875 32.171875 
z
" id="DejaVuSans-65"/>
      <path d="M 34.28125 27.484375 
Q 23.390625 27.484375 19.1875 25 
Q 14.984375 22.515625 14.984375 16.5 
Q 14.984375 11.71875 18.140625 8.90625 
Q 21.296875 6.109375 26.703125 6.109375 
Q 34.1875 6.109375 38.703125 11.40625 
Q 43.21875 16.703125 43.21875 25.484375 
L 43.21875 27.484375 
z
M 52.203125 31.203125 
L 52.203125 0 
L 43.21875 0 
L 43.21875 8.296875 
Q 40.140625 3.328125 35.546875 0.953125 
Q 30.953125 -1.421875 24.3125 -1.421875 
Q 15.921875 -1.421875 10.953125 3.296875 
Q 6 8.015625 6 15.921875 
Q 6 25.140625 12.171875 29.828125 
Q 18.359375 34.515625 30.609375 34.515625 
L 43.21875 34.515625 
L 43.21875 35.40625 
Q 43.21875 41.609375 39.140625 45 
Q 35.0625 48.390625 27.6875 48.390625 
Q 23 48.390625 18.546875 47.265625 
Q 14.109375 46.140625 10.015625 43.890625 
L 10.015625 52.203125 
Q 14.9375 54.109375 19.578125 55.046875 
Q 24.21875 56 28.609375 56 
Q 40.484375 56 46.34375 49.84375 
Q 52.203125 43.703125 52.203125 31.203125 
z
" id="DejaVuSans-61"/>
      <path d="M 54.890625 33.015625 
L 54.890625 0 
L 45.90625 0 
L 45.90625 32.71875 
Q 45.90625 40.484375 42.875 44.328125 
Q 39.84375 48.1875 33.796875 48.1875 
Q 26.515625 48.1875 22.3125 43.546875 
Q 18.109375 38.921875 18.109375 30.90625 
L 18.109375 0 
L 9.078125 0 
L 9.078125 54.6875 
L 18.109375 54.6875 
L 18.109375 46.1875 
Q 21.34375 51.125 25.703125 53.5625 
Q 30.078125 56 35.796875 56 
Q 45.21875 56 50.046875 50.171875 
Q 54.890625 44.34375 54.890625 33.015625 
z
" id="DejaVuSans-6e"/>
     </defs>
     <g transform="translate(91 196.885938)scale(0.1 -0.1)">
      <use xlink:href="#DejaVuSans-4d"/>
      <use x="86.279297" xlink:href="#DejaVuSans-46"/>
      <use x="143.798828" xlink:href="#DejaVuSans-20"/>
      <use x="175.585938" xlink:href="#DejaVuSans-4d"/>
      <use x="261.865234" xlink:href="#DejaVuSans-65"/>
      <use x="323.388672" xlink:href="#DejaVuSans-61"/>
      <use x="384.667969" xlink:href="#DejaVuSans-6e"/>
     </g>
    </g>
    <g id="line2d_20">
     <path d="M 63 208.064063 
L 83 208.064063 
" style="fill:none;stroke:#0000ff;stroke-dasharray:5.55,2.4;stroke-dashoffset:0;stroke-width:1.5;"/>
    </g>
    <g id="line2d_21"/>
    <g id="text_15">
     <!-- MF Median -->
     <defs>
      <path d="M 45.40625 46.390625 
L 45.40625 75.984375 
L 54.390625 75.984375 
L 54.390625 0 
L 45.40625 0 
L 45.40625 8.203125 
Q 42.578125 3.328125 38.25 0.953125 
Q 33.9375 -1.421875 27.875 -1.421875 
Q 17.96875 -1.421875 11.734375 6.484375 
Q 5.515625 14.40625 5.515625 27.296875 
Q 5.515625 40.1875 11.734375 48.09375 
Q 17.96875 56 27.875 56 
Q 33.9375 56 38.25 53.625 
Q 42.578125 51.265625 45.40625 46.390625 
z
M 14.796875 27.296875 
Q 14.796875 17.390625 18.875 11.75 
Q 22.953125 6.109375 30.078125 6.109375 
Q 37.203125 6.109375 41.296875 11.75 
Q 45.40625 17.390625 45.40625 27.296875 
Q 45.40625 37.203125 41.296875 42.84375 
Q 37.203125 48.484375 30.078125 48.484375 
Q 22.953125 48.484375 18.875 42.84375 
Q 14.796875 37.203125 14.796875 27.296875 
z
" id="DejaVuSans-64"/>
      <path d="M 9.421875 54.6875 
L 18.40625 54.6875 
L 18.40625 0 
L 9.421875 0 
z
M 9.421875 75.984375 
L 18.40625 75.984375 
L 18.40625 64.59375 
L 9.421875 64.59375 
z
" id="DejaVuSans-69"/>
     </defs>
     <g transform="translate(91 211.564063)scale(0.1 -0.1)">
      <use xlink:href="#DejaVuSans-4d"/>
      <use x="86.279297" xlink:href="#DejaVuSans-46"/>
      <use x="143.798828" xlink:href="#DejaVuSans-20"/>
      <use x="175.585938" xlink:href="#DejaVuSans-4d"/>
      <use x="261.865234" xlink:href="#DejaVuSans-65"/>
      <use x="323.388672" xlink:href="#DejaVuSans-64"/>
      <use x="386.865234" xlink:href="#DejaVuSans-69"/>
      <use x="414.648438" xlink:href="#DejaVuSans-61"/>
      <use x="475.927734" xlink:href="#DejaVuSans-6e"/>
     </g>
    </g>
    <g id="line2d_22">
     <path d="M 63 222.742188 
L 83 222.742188 
" style="fill:none;stroke:#008000;stroke-linecap:square;stroke-width:1.5;"/>
    </g>
    <g id="line2d_23"/>
    <g id="text_16">
     <!-- EC Mean -->
     <defs>
      <path d="M 9.8125 72.90625 
L 55.90625 72.90625 
L 55.90625 64.59375 
L 19.671875 64.59375 
L 19.671875 43.015625 
L 54.390625 43.015625 
L 54.390625 34.71875 
L 19.671875 34.71875 
L 19.671875 8.296875 
L 56.78125 8.296875 
L 56.78125 0 
L 9.8125 0 
z
" id="DejaVuSans-45"/>
      <path d="M 64.40625 67.28125 
L 64.40625 56.890625 
Q 59.421875 61.53125 53.78125 63.8125 
Q 48.140625 66.109375 41.796875 66.109375 
Q 29.296875 66.109375 22.65625 58.46875 
Q 16.015625 50.828125 16.015625 36.375 
Q 16.015625 21.96875 22.65625 14.328125 
Q 29.296875 6.6875 41.796875 6.6875 
Q 48.140625 6.6875 53.78125 8.984375 
Q 59.421875 11.28125 64.40625 15.921875 
L 64.40625 5.609375 
Q 59.234375 2.09375 53.4375 0.328125 
Q 47.65625 -1.421875 41.21875 -1.421875 
Q 24.65625 -1.421875 15.125 8.703125 
Q 5.609375 18.84375 5.609375 36.375 
Q 5.609375 53.953125 15.125 64.078125 
Q 24.65625 74.21875 41.21875 74.21875 
Q 47.75 74.21875 53.53125 72.484375 
Q 59.328125 70.75 64.40625 67.28125 
z
" id="DejaVuSans-43"/>
     </defs>
     <g transform="translate(91 226.242188)scale(0.1 -0.1)">
      <use xlink:href="#DejaVuSans-45"/>
      <use x="63.183594" xlink:href="#DejaVuSans-43"/>
      <use x="133.007812" xlink:href="#DejaVuSans-20"/>
      <use x="164.794922" xlink:href="#DejaVuSans-4d"/>
      <use x="251.074219" xlink:href="#DejaVuSans-65"/>
      <use x="312.597656" xlink:href="#DejaVuSans-61"/>
      <use x="373.876953" xlink:href="#DejaVuSans-6e"/>
     </g>
    </g>
    <g id="line2d_24">
     <path d="M 63 237.420312 
L 83 237.420312 
" style="fill:none;stroke:#008000;stroke-dasharray:5.55,2.4;stroke-dashoffset:0;stroke-width:1.5;"/>
    </g>
    <g id="line2d_25"/>
    <g id="text_17">
     <!-- EC Median -->
     <g transform="translate(91 240.920312)scale(0.1 -0.1)">
      <use xlink:href="#DejaVuSans-45"/>
      <use x="63.183594" xlink:href="#DejaVuSans-43"/>
      <use x="133.007812" xlink:href="#DejaVuSans-20"/>
      <use x="164.794922" xlink:href="#DejaVuSans-4d"/>
      <use x="251.074219" xlink:href="#DejaVuSans-65"/>
      <use x="312.597656" xlink:href="#DejaVuSans-64"/>
      <use x="376.074219" xlink:href="#DejaVuSans-69"/>
      <use x="403.857422" xlink:href="#DejaVuSans-61"/>
      <use x="465.136719" xlink:href="#DejaVuSans-6e"/>
     </g>
    </g>
   </g>
  </g>
 </g>
 <defs>
  <clipPath id="p057e2e89d2">
   <rect height="217.44" width="334.8" x="54" y="34.56"/>
  </clipPath>
 </defs>
</svg>
