<?xml version="1.0" encoding="utf-8" standalone="no"?>
<!DOCTYPE svg PUBLIC "-//W3C//DTD SVG 1.1//EN"
  "http://www.w3.org/Graphics/SVG/1.1/DTD/svg11.dtd">
<!-- Created with matplotlib (http://matplotlib.org/) -->
<svg height="288pt" version="1.1" viewBox="0 0 432 288" width="432pt" xmlns="http://www.w3.org/2000/svg" xmlns:xlink="http://www.w3.org/1999/xlink">
 <defs>
  <style type="text/css">
*{stroke-linecap:butt;stroke-linejoin:round;}
  </style>
 </defs>
 <g id="figure_1">
  <g id="patch_1">
   <path d="M 0 288 
L 432 288 
L 432 0 
L 0 0 
z
" style="fill:#ffffff;"/>
  </g>
  <g id="axes_1">
   <g id="patch_2">
    <path d="M 54 252 
L 388.8 252 
L 388.8 34.56 
L 54 34.56 
z
" style="fill:#ffffff;"/>
   </g>
   <g id="matplotlib.axis_1">
    <g id="xtick_1">
     <g id="line2d_1">
      <defs>
       <path d="M 0 0 
L 0 3.5 
" id="maab33e899d" style="stroke:#000000;stroke-width:0.8;"/>
      </defs>
      <g>
       <use style="stroke:#000000;stroke-width:0.8;" x="69.218182" xlink:href="#maab33e899d" y="252"/>
      </g>
     </g>
     <g id="text_1">
      <!-- 0 -->
      <defs>
       <path d="M 31.78125 66.40625 
Q 24.171875 66.40625 20.328125 58.90625 
Q 16.5 51.421875 16.5 36.375 
Q 16.5 21.390625 20.328125 13.890625 
Q 24.171875 6.390625 31.78125 6.390625 
Q 39.453125 6.390625 43.28125 13.890625 
Q 47.125 21.390625 47.125 36.375 
Q 47.125 51.421875 43.28125 58.90625 
Q 39.453125 66.40625 31.78125 66.40625 
z
M 31.78125 74.21875 
Q 44.046875 74.21875 50.515625 64.515625 
Q 56.984375 54.828125 56.984375 36.375 
Q 56.984375 17.96875 50.515625 8.265625 
Q 44.046875 -1.421875 31.78125 -1.421875 
Q 19.53125 -1.421875 13.0625 8.265625 
Q 6.59375 17.96875 6.59375 36.375 
Q 6.59375 54.828125 13.0625 64.515625 
Q 19.53125 74.21875 31.78125 74.21875 
z
" id="DejaVuSans-30"/>
      </defs>
      <g transform="translate(66.036932 266.598437)scale(0.1 -0.1)">
       <use xlink:href="#DejaVuSans-30"/>
      </g>
     </g>
    </g>
    <g id="xtick_2">
     <g id="line2d_2">
      <g>
       <use style="stroke:#000000;stroke-width:0.8;" x="109.69207" xlink:href="#maab33e899d" y="252"/>
      </g>
     </g>
     <g id="text_2">
      <!-- 25 -->
      <defs>
       <path d="M 19.1875 8.296875 
L 53.609375 8.296875 
L 53.609375 0 
L 7.328125 0 
L 7.328125 8.296875 
Q 12.9375 14.109375 22.625 23.890625 
Q 32.328125 33.6875 34.8125 36.53125 
Q 39.546875 41.84375 41.421875 45.53125 
Q 43.3125 49.21875 43.3125 52.78125 
Q 43.3125 58.59375 39.234375 62.25 
Q 35.15625 65.921875 28.609375 65.921875 
Q 23.96875 65.921875 18.8125 64.3125 
Q 13.671875 62.703125 7.8125 59.421875 
L 7.8125 69.390625 
Q 13.765625 71.78125 18.9375 73 
Q 24.125 74.21875 28.421875 74.21875 
Q 39.75 74.21875 46.484375 68.546875 
Q 53.21875 62.890625 53.21875 53.421875 
Q 53.21875 48.921875 51.53125 44.890625 
Q 49.859375 40.875 45.40625 35.40625 
Q 44.1875 33.984375 37.640625 27.21875 
Q 31.109375 20.453125 19.1875 8.296875 
z
" id="DejaVuSans-32"/>
       <path d="M 10.796875 72.90625 
L 49.515625 72.90625 
L 49.515625 64.59375 
L 19.828125 64.59375 
L 19.828125 46.734375 
Q 21.96875 47.46875 24.109375 47.828125 
Q 26.265625 48.1875 28.421875 48.1875 
Q 40.625 48.1875 47.75 41.5 
Q 54.890625 34.8125 54.890625 23.390625 
Q 54.890625 11.625 47.5625 5.09375 
Q 40.234375 -1.421875 26.90625 -1.421875 
Q 22.3125 -1.421875 17.546875 -0.640625 
Q 12.796875 0.140625 7.71875 1.703125 
L 7.71875 11.625 
Q 12.109375 9.234375 16.796875 8.0625 
Q 21.484375 6.890625 26.703125 6.890625 
Q 35.15625 6.890625 40.078125 11.328125 
Q 45.015625 15.765625 45.015625 23.390625 
Q 45.015625 31 40.078125 35.4375 
Q 35.15625 39.890625 26.703125 39.890625 
Q 22.75 39.890625 18.8125 39.015625 
Q 14.890625 38.140625 10.796875 36.28125 
z
" id="DejaVuSans-35"/>
      </defs>
      <g transform="translate(103.32957 266.598437)scale(0.1 -0.1)">
       <use xlink:href="#DejaVuSans-32"/>
       <use x="63.623047" xlink:href="#DejaVuSans-35"/>
      </g>
     </g>
    </g>
    <g id="xtick_3">
     <g id="line2d_3">
      <g>
       <use style="stroke:#000000;stroke-width:0.8;" x="150.165957" xlink:href="#maab33e899d" y="252"/>
      </g>
     </g>
     <g id="text_3">
      <!-- 50 -->
      <g transform="translate(143.803457 266.598437)scale(0.1 -0.1)">
       <use xlink:href="#DejaVuSans-35"/>
       <use x="63.623047" xlink:href="#DejaVuSans-30"/>
      </g>
     </g>
    </g>
    <g id="xtick_4">
     <g id="line2d_4">
      <g>
       <use style="stroke:#000000;stroke-width:0.8;" x="190.639845" xlink:href="#maab33e899d" y="252"/>
      </g>
     </g>
     <g id="text_4">
      <!-- 75 -->
      <defs>
       <path d="M 8.203125 72.90625 
L 55.078125 72.90625 
L 55.078125 68.703125 
L 28.609375 0 
L 18.3125 0 
L 43.21875 64.59375 
L 8.203125 64.59375 
z
" id="DejaVuSans-37"/>
      </defs>
      <g transform="translate(184.277345 266.598437)scale(0.1 -0.1)">
       <use xlink:href="#DejaVuSans-37"/>
       <use x="63.623047" xlink:href="#DejaVuSans-35"/>
      </g>
     </g>
    </g>
    <g id="xtick_5">
     <g id="line2d_5">
      <g>
       <use style="stroke:#000000;stroke-width:0.8;" x="231.113733" xlink:href="#maab33e899d" y="252"/>
      </g>
     </g>
     <g id="text_5">
      <!-- 100 -->
      <defs>
       <path d="M 12.40625 8.296875 
L 28.515625 8.296875 
L 28.515625 63.921875 
L 10.984375 60.40625 
L 10.984375 69.390625 
L 28.421875 72.90625 
L 38.28125 72.90625 
L 38.28125 8.296875 
L 54.390625 8.296875 
L 54.390625 0 
L 12.40625 0 
z
" id="DejaVuSans-31"/>
      </defs>
      <g transform="translate(221.569983 266.598437)scale(0.1 -0.1)">
       <use xlink:href="#DejaVuSans-31"/>
       <use x="63.623047" xlink:href="#DejaVuSans-30"/>
       <use x="127.246094" xlink:href="#DejaVuSans-30"/>
      </g>
     </g>
    </g>
    <g id="xtick_6">
     <g id="line2d_6">
      <g>
       <use style="stroke:#000000;stroke-width:0.8;" x="271.587621" xlink:href="#maab33e899d" y="252"/>
      </g>
     </g>
     <g id="text_6">
      <!-- 125 -->
      <g transform="translate(262.043871 266.598437)scale(0.1 -0.1)">
       <use xlink:href="#DejaVuSans-31"/>
       <use x="63.623047" xlink:href="#DejaVuSans-32"/>
       <use x="127.246094" xlink:href="#DejaVuSans-35"/>
      </g>
     </g>
    </g>
    <g id="xtick_7">
     <g id="line2d_7">
      <g>
       <use style="stroke:#000000;stroke-width:0.8;" x="312.061509" xlink:href="#maab33e899d" y="252"/>
      </g>
     </g>
     <g id="text_7">
      <!-- 150 -->
      <g transform="translate(302.517759 266.598437)scale(0.1 -0.1)">
       <use xlink:href="#DejaVuSans-31"/>
       <use x="63.623047" xlink:href="#DejaVuSans-35"/>
       <use x="127.246094" xlink:href="#DejaVuSans-30"/>
      </g>
     </g>
    </g>
    <g id="xtick_8">
     <g id="line2d_8">
      <g>
       <use style="stroke:#000000;stroke-width:0.8;" x="352.535397" xlink:href="#maab33e899d" y="252"/>
      </g>
     </g>
     <g id="text_8">
      <!-- 175 -->
      <g transform="translate(342.991647 266.598437)scale(0.1 -0.1)">
       <use xlink:href="#DejaVuSans-31"/>
       <use x="63.623047" xlink:href="#DejaVuSans-37"/>
       <use x="127.246094" xlink:href="#DejaVuSans-35"/>
      </g>
     </g>
    </g>
   </g>
   <g id="matplotlib.axis_2">
    <g id="ytick_1">
     <g id="line2d_9">
      <defs>
       <path d="M 0 0 
L -3.5 0 
" id="m604c411f63" style="stroke:#000000;stroke-width:0.8;"/>
      </defs>
      <g>
       <use style="stroke:#000000;stroke-width:0.8;" x="54" xlink:href="#m604c411f63" y="242.116364"/>
      </g>
     </g>
     <g id="text_9">
      <!-- 0.0 -->
      <defs>
       <path d="M 10.6875 12.40625 
L 21 12.40625 
L 21 0 
L 10.6875 0 
z
" id="DejaVuSans-2e"/>
      </defs>
      <g transform="translate(31.096875 245.915582)scale(0.1 -0.1)">
       <use xlink:href="#DejaVuSans-30"/>
       <use x="63.623047" xlink:href="#DejaVuSans-2e"/>
       <use x="95.410156" xlink:href="#DejaVuSans-30"/>
      </g>
     </g>
    </g>
    <g id="ytick_2">
     <g id="line2d_10">
      <g>
       <use style="stroke:#000000;stroke-width:0.8;" x="54" xlink:href="#m604c411f63" y="211.621863"/>
      </g>
     </g>
     <g id="text_10">
      <!-- 0.2 -->
      <g transform="translate(31.096875 215.421081)scale(0.1 -0.1)">
       <use xlink:href="#DejaVuSans-30"/>
       <use x="63.623047" xlink:href="#DejaVuSans-2e"/>
       <use x="95.410156" xlink:href="#DejaVuSans-32"/>
      </g>
     </g>
    </g>
    <g id="ytick_3">
     <g id="line2d_11">
      <g>
       <use style="stroke:#000000;stroke-width:0.8;" x="54" xlink:href="#m604c411f63" y="181.127361"/>
      </g>
     </g>
     <g id="text_11">
      <!-- 0.4 -->
      <defs>
       <path d="M 37.796875 64.3125 
L 12.890625 25.390625 
L 37.796875 25.390625 
z
M 35.203125 72.90625 
L 47.609375 72.90625 
L 47.609375 25.390625 
L 58.015625 25.390625 
L 58.015625 17.1875 
L 47.609375 17.1875 
L 47.609375 0 
L 37.796875 0 
L 37.796875 17.1875 
L 4.890625 17.1875 
L 4.890625 26.703125 
z
" id="DejaVuSans-34"/>
      </defs>
      <g transform="translate(31.096875 184.92658)scale(0.1 -0.1)">
       <use xlink:href="#DejaVuSans-30"/>
       <use x="63.623047" xlink:href="#DejaVuSans-2e"/>
       <use x="95.410156" xlink:href="#DejaVuSans-34"/>
      </g>
     </g>
    </g>
    <g id="ytick_4">
     <g id="line2d_12">
      <g>
       <use style="stroke:#000000;stroke-width:0.8;" x="54" xlink:href="#m604c411f63" y="150.63286"/>
      </g>
     </g>
     <g id="text_12">
      <!-- 0.6 -->
      <defs>
       <path d="M 33.015625 40.375 
Q 26.375 40.375 22.484375 35.828125 
Q 18.609375 31.296875 18.609375 23.390625 
Q 18.609375 15.53125 22.484375 10.953125 
Q 26.375 6.390625 33.015625 6.390625 
Q 39.65625 6.390625 43.53125 10.953125 
Q 47.40625 15.53125 47.40625 23.390625 
Q 47.40625 31.296875 43.53125 35.828125 
Q 39.65625 40.375 33.015625 40.375 
z
M 52.59375 71.296875 
L 52.59375 62.3125 
Q 48.875 64.0625 45.09375 64.984375 
Q 41.3125 65.921875 37.59375 65.921875 
Q 27.828125 65.921875 22.671875 59.328125 
Q 17.53125 52.734375 16.796875 39.40625 
Q 19.671875 43.65625 24.015625 45.921875 
Q 28.375 48.1875 33.59375 48.1875 
Q 44.578125 48.1875 50.953125 41.515625 
Q 57.328125 34.859375 57.328125 23.390625 
Q 57.328125 12.15625 50.6875 5.359375 
Q 44.046875 -1.421875 33.015625 -1.421875 
Q 20.359375 -1.421875 13.671875 8.265625 
Q 6.984375 17.96875 6.984375 36.375 
Q 6.984375 53.65625 15.1875 63.9375 
Q 23.390625 74.21875 37.203125 74.21875 
Q 40.921875 74.21875 44.703125 73.484375 
Q 48.484375 72.75 52.59375 71.296875 
z
" id="DejaVuSans-36"/>
      </defs>
      <g transform="translate(31.096875 154.432079)scale(0.1 -0.1)">
       <use xlink:href="#DejaVuSans-30"/>
       <use x="63.623047" xlink:href="#DejaVuSans-2e"/>
       <use x="95.410156" xlink:href="#DejaVuSans-36"/>
      </g>
     </g>
    </g>
    <g id="ytick_5">
     <g id="line2d_13">
      <g>
       <use style="stroke:#000000;stroke-width:0.8;" x="54" xlink:href="#m604c411f63" y="120.138359"/>
      </g>
     </g>
     <g id="text_13">
      <!-- 0.8 -->
      <defs>
       <path d="M 31.78125 34.625 
Q 24.75 34.625 20.71875 30.859375 
Q 16.703125 27.09375 16.703125 20.515625 
Q 16.703125 13.921875 20.71875 10.15625 
Q 24.75 6.390625 31.78125 6.390625 
Q 38.8125 6.390625 42.859375 10.171875 
Q 46.921875 13.96875 46.921875 20.515625 
Q 46.921875 27.09375 42.890625 30.859375 
Q 38.875 34.625 31.78125 34.625 
z
M 21.921875 38.8125 
Q 15.578125 40.375 12.03125 44.71875 
Q 8.5 49.078125 8.5 55.328125 
Q 8.5 64.0625 14.71875 69.140625 
Q 20.953125 74.21875 31.78125 74.21875 
Q 42.671875 74.21875 48.875 69.140625 
Q 55.078125 64.0625 55.078125 55.328125 
Q 55.078125 49.078125 51.53125 44.71875 
Q 48 40.375 41.703125 38.8125 
Q 48.828125 37.15625 52.796875 32.3125 
Q 56.78125 27.484375 56.78125 20.515625 
Q 56.78125 9.90625 50.3125 4.234375 
Q 43.84375 -1.421875 31.78125 -1.421875 
Q 19.734375 -1.421875 13.25 4.234375 
Q 6.78125 9.90625 6.78125 20.515625 
Q 6.78125 27.484375 10.78125 32.3125 
Q 14.796875 37.15625 21.921875 38.8125 
z
M 18.3125 54.390625 
Q 18.3125 48.734375 21.84375 45.5625 
Q 25.390625 42.390625 31.78125 42.390625 
Q 38.140625 42.390625 41.71875 45.5625 
Q 45.3125 48.734375 45.3125 54.390625 
Q 45.3125 60.0625 41.71875 63.234375 
Q 38.140625 66.40625 31.78125 66.40625 
Q 25.390625 66.40625 21.84375 63.234375 
Q 18.3125 60.0625 18.3125 54.390625 
z
" id="DejaVuSans-38"/>
      </defs>
      <g transform="translate(31.096875 123.937578)scale(0.1 -0.1)">
       <use xlink:href="#DejaVuSans-30"/>
       <use x="63.623047" xlink:href="#DejaVuSans-2e"/>
       <use x="95.410156" xlink:href="#DejaVuSans-38"/>
      </g>
     </g>
    </g>
    <g id="ytick_6">
     <g id="line2d_14">
      <g>
       <use style="stroke:#000000;stroke-width:0.8;" x="54" xlink:href="#m604c411f63" y="89.643858"/>
      </g>
     </g>
     <g id="text_14">
      <!-- 1.0 -->
      <g transform="translate(31.096875 93.443077)scale(0.1 -0.1)">
       <use xlink:href="#DejaVuSans-31"/>
       <use x="63.623047" xlink:href="#DejaVuSans-2e"/>
       <use x="95.410156" xlink:href="#DejaVuSans-30"/>
      </g>
     </g>
    </g>
    <g id="ytick_7">
     <g id="line2d_15">
      <g>
       <use style="stroke:#000000;stroke-width:0.8;" x="54" xlink:href="#m604c411f63" y="59.149357"/>
      </g>
     </g>
     <g id="text_15">
      <!-- 1.2 -->
      <g transform="translate(31.096875 62.948576)scale(0.1 -0.1)">
       <use xlink:href="#DejaVuSans-31"/>
       <use x="63.623047" xlink:href="#DejaVuSans-2e"/>
       <use x="95.410156" xlink:href="#DejaVuSans-32"/>
      </g>
     </g>
    </g>
   </g>
   <g id="line2d_16">
    <path clip-path="url(#p1024706366)" d="M 69.218182 63.372717 
L 70.837137 67.23396 
L 72.456093 99.557418 
L 74.075048 87.883844 
L 75.694004 107.506234 
L 77.312959 94.105839 
L 78.931915 69.173471 
L 80.55087 102.719239 
L 82.169826 120.993867 
L 83.788781 75.782826 
L 85.407737 101.88535 
L 87.026692 82.312321 
L 88.645648 106.76987 
L 90.264603 126.272558 
L 91.883559 96.237911 
L 93.502515 90.091243 
L 95.12147 84.710771 
L 96.740426 111.420082 
L 98.359381 86.302255 
L 99.978337 91.991352 
L 101.597292 95.389129 
L 103.216248 115.516786 
L 104.835203 121.048512 
L 106.454159 131.803045 
L 108.073114 114.802567 
L 109.69207 139.562124 
L 111.311025 159.423382 
L 112.929981 156.530519 
L 114.548936 154.744788 
L 116.167892 145.125393 
L 117.786847 144.946202 
L 119.405803 158.141967 
L 121.024758 169.332142 
L 122.643714 201.916431 
L 124.262669 154.48158 
L 125.881625 148.983361 
L 127.50058 155.322664 
L 129.119536 194.173437 
L 130.738491 214.136569 
L 132.357447 153.10499 
L 133.976402 214.366546 
L 135.595358 214.147581 
L 137.214313 224.261747 
L 138.833269 214.371639 
L 140.452224 164.95029 
L 142.07118 215.753445 
L 143.690135 235.471958 
L 145.309091 190.334343 
L 146.928046 206.632694 
L 148.547002 226.782533 
L 150.165957 203.738435 
L 151.784913 223.283031 
L 153.403868 220.47956 
L 155.022824 180.904359 
L 156.641779 211.480921 
L 158.260735 212.532004 
L 159.879691 194.681756 
L 161.498646 174.263821 
L 163.117602 209.291614 
L 164.736557 202.123712 
L 166.355513 203.265924 
L 167.974468 221.176534 
L 169.593424 173.791605 
L 171.212379 193.935457 
L 172.831335 242.114322 
L 174.45029 229.574171 
L 176.069246 228.377284 
L 177.688201 208.464833 
L 179.307157 210.930292 
L 180.926112 217.317559 
L 182.545068 231.524696 
L 184.164023 212.181016 
L 185.782979 224.699448 
L 187.401934 229.604693 
L 189.02089 172.764934 
L 190.639845 215.763212 
L 192.258801 189.066571 
L 193.877756 204.526975 
L 195.496712 221.385189 
L 197.115667 223.586875 
L 198.734623 230.290715 
L 200.353578 219.108922 
L 201.972534 222.866565 
L 203.591489 208.109434 
L 205.210445 196.575037 
L 206.8294 209.294432 
L 208.448356 227.687747 
L 210.067311 184.411872 
L 211.686267 217.727328 
L 213.305222 218.995679 
L 214.924178 229.674889 
L 216.543133 232.396141 
L 218.162089 221.358925 
L 219.781044 142.647192 
L 221.4 233.186654 
L 223.018956 212.315827 
L 224.637911 219.314867 
L 226.256867 199.870929 
L 227.875822 219.240966 
L 229.494778 229.083268 
L 231.113733 215.5346 
L 232.732689 233.450433 
L 234.351644 195.321601 
L 235.9706 241.444902 
L 237.589555 205.959932 
L 239.208511 200.97909 
L 240.827466 187.332861 
L 242.446422 209.331904 
L 244.065377 228.802872 
L 245.684333 227.426593 
L 247.303288 180.22902 
L 248.922244 231.329338 
L 250.541199 213.295394 
L 252.160155 224.95236 
L 253.77911 225.167695 
L 255.398066 220.449134 
L 257.017021 209.754722 
L 258.635977 232.6498 
L 260.254932 223.777341 
L 261.873888 203.559479 
L 263.492843 230.821571 
L 265.111799 161.441629 
L 268.34971 207.160323 
L 269.968665 204.137712 
L 271.587621 222.712467 
L 273.206576 183.312044 
L 274.825532 237.269769 
L 276.444487 231.727164 
L 278.063443 175.889608 
L 279.682398 212.094557 
L 281.301354 213.072781 
L 282.920309 203.62763 
L 284.539265 238.546865 
L 286.158221 216.724139 
L 287.777176 242.110432 
L 289.396132 212.729221 
L 291.015087 212.90548 
L 292.634043 227.458505 
L 294.252998 217.613453 
L 295.871954 227.220489 
L 297.490909 221.371593 
L 299.109865 218.862912 
L 300.72882 209.388165 
L 302.347776 224.089537 
L 303.966731 240.29256 
L 305.585687 208.685158 
L 307.204642 235.131241 
L 308.823598 183.399033 
L 310.442553 172.547826 
L 312.061509 223.041078 
L 313.680464 216.544926 
L 315.29942 215.154259 
L 316.918375 186.093702 
L 318.537331 206.448781 
L 320.156286 202.969207 
L 321.775242 185.940932 
L 323.394197 218.717016 
L 325.013153 208.523739 
L 326.632108 179.359534 
L 328.251064 168.698991 
L 329.870019 166.782275 
L 331.488975 200.445045 
L 333.10793 201.419363 
L 334.726886 216.931721 
L 336.345841 196.458509 
L 337.964797 206.671289 
L 339.583752 211.469982 
L 342.821663 200.463102 
L 344.440619 214.086802 
L 346.059574 207.09683 
L 347.67853 208.211446 
L 349.297485 220.279027 
L 350.916441 242.093063 
L 352.535397 205.928559 
L 354.154352 202.658183 
L 355.773308 214.902836 
L 357.392263 237.38717 
L 359.011219 227.229723 
L 360.630174 201.474912 
L 362.24913 206.052398 
L 363.868085 204.010416 
L 365.487041 229.586225 
L 367.105996 212.635355 
L 368.724952 219.661288 
L 370.343907 225.306397 
L 371.962863 221.836397 
L 373.581818 239.640871 
L 373.581818 239.640871 
" style="fill:none;stroke:#0000ff;stroke-linecap:square;stroke-width:1.5;"/>
   </g>
   <g id="line2d_17">
    <path clip-path="url(#p1024706366)" d="M 69.218182 75.469091 
L 70.837137 74.933673 
L 72.456093 76.722792 
L 74.075048 76.705972 
L 75.694004 76.415306 
L 77.312959 76.386247 
L 78.931915 71.776592 
L 80.55087 76.986165 
L 82.169826 84.063549 
L 83.788781 75.498471 
L 85.407737 82.142253 
L 87.026692 75.046738 
L 88.645648 87.923121 
L 90.264603 78.1409 
L 91.883559 77.071713 
L 93.502515 75.389289 
L 95.12147 78.181773 
L 96.740426 78.894895 
L 98.359381 77.988823 
L 99.978337 78.281481 
L 101.597292 78.704931 
L 103.216248 84.908454 
L 104.835203 78.491528 
L 106.454159 102.934343 
L 108.073114 83.960477 
L 109.69207 242.116364 
L 373.581818 242.116364 
L 373.581818 242.116364 
" style="fill:none;stroke:#0000ff;stroke-dasharray:5.55,2.4;stroke-dashoffset:0;stroke-width:1.5;"/>
   </g>
   <g id="line2d_18">
    <path clip-path="url(#p1024706366)" d="M 69.218182 44.443636 
L 70.837137 49.473045 
L 72.456093 79.769111 
L 74.075048 69.780679 
L 75.694004 100.742325 
L 77.312959 78.983043 
L 78.931915 63.258383 
L 80.55087 91.091967 
L 82.169826 112.071879 
L 83.788781 67.484174 
L 85.407737 94.743685 
L 87.026692 77.414465 
L 88.645648 102.642959 
L 90.264603 123.605887 
L 93.502515 82.650727 
L 95.12147 80.852019 
L 96.740426 101.603654 
L 98.359381 70.539792 
L 99.978337 86.124931 
L 101.597292 80.889259 
L 103.216248 107.551858 
L 104.835203 121.489085 
L 106.454159 128.341709 
L 108.073114 101.172961 
L 109.69207 143.861585 
L 111.311025 164.021894 
L 112.929981 155.494924 
L 114.548936 147.627213 
L 116.167892 147.344262 
L 117.786847 138.602236 
L 119.405803 165.941997 
L 121.024758 165.245411 
L 122.643714 202.913959 
L 124.262669 152.852757 
L 125.881625 151.283488 
L 127.50058 161.042225 
L 129.119536 196.91641 
L 130.738491 213.016015 
L 132.357447 157.083302 
L 133.976402 212.760986 
L 135.595358 209.804307 
L 137.214313 225.856546 
L 138.833269 213.005609 
L 140.452224 168.232202 
L 142.07118 214.894731 
L 143.690135 232.909724 
L 145.309091 187.931191 
L 148.547002 225.156034 
L 150.165957 196.587169 
L 151.784913 225.292612 
L 153.403868 222.740531 
L 155.022824 191.107576 
L 156.641779 216.444964 
L 158.260735 211.663738 
L 159.879691 196.035274 
L 161.498646 169.327001 
L 163.117602 212.226548 
L 164.736557 193.648983 
L 166.355513 201.891481 
L 167.974468 220.761346 
L 169.593424 188.701195 
L 171.212379 186.63203 
L 172.831335 241.605636 
L 174.45029 224.658184 
L 176.069246 225.45423 
L 177.688201 207.368468 
L 179.307157 208.777879 
L 180.926112 218.367425 
L 182.545068 233.293555 
L 184.164023 215.545377 
L 185.782979 224.393825 
L 187.401934 230.722772 
L 189.02089 187.902066 
L 190.639845 211.594201 
L 192.258801 204.742352 
L 193.877756 204.371349 
L 195.496712 218.431498 
L 197.115667 218.067714 
L 198.734623 230.729007 
L 200.353578 217.827292 
L 201.972534 218.769794 
L 203.591489 205.070438 
L 205.210445 198.371853 
L 206.8294 198.194176 
L 208.448356 226.001933 
L 210.067311 189.805533 
L 211.686267 213.365675 
L 213.305222 214.377977 
L 214.924178 226.813663 
L 216.543133 230.442362 
L 218.162089 215.955129 
L 219.781044 172.465946 
L 221.4 229.531052 
L 223.018956 208.115531 
L 224.637911 214.417218 
L 226.256867 206.440177 
L 227.875822 213.748537 
L 229.494778 228.130215 
L 231.113733 205.299499 
L 232.732689 223.457756 
L 234.351644 186.497661 
L 235.9706 239.682337 
L 237.589555 204.525246 
L 239.208511 189.229232 
L 240.827466 196.403248 
L 242.446422 202.829259 
L 244.065377 220.943092 
L 245.684333 223.816377 
L 247.303288 180.339988 
L 248.922244 227.6395 
L 250.541199 202.201302 
L 252.160155 220.590613 
L 253.77911 219.682629 
L 255.398066 212.872145 
L 257.017021 207.86238 
L 258.635977 230.111233 
L 260.254932 218.73878 
L 261.873888 194.245015 
L 263.492843 231.753209 
L 265.111799 171.95125 
L 268.34971 217.750777 
L 269.968665 203.45619 
L 271.587621 218.257111 
L 273.206576 185.557558 
L 274.825532 233.516158 
L 276.444487 231.985594 
L 278.063443 200.50001 
L 279.682398 219.703156 
L 281.301354 230.380452 
L 282.920309 215.956278 
L 284.539265 234.773549 
L 286.158221 231.530194 
L 287.777176 241.605636 
L 289.396132 224.627506 
L 291.015087 201.831024 
L 292.634043 217.065606 
L 294.252998 213.66466 
L 295.871954 227.647936 
L 297.490909 229.261385 
L 299.109865 220.170366 
L 300.72882 219.025217 
L 302.347776 222.772724 
L 303.966731 238.137488 
L 305.585687 209.022571 
L 307.204642 228.791934 
L 308.823598 198.638266 
L 310.442553 190.481045 
L 312.061509 227.688974 
L 313.680464 219.862853 
L 315.29942 202.468187 
L 316.918375 188.938593 
L 318.537331 212.131147 
L 320.156286 196.187901 
L 321.775242 199.370352 
L 323.394197 224.473025 
L 325.013153 202.858604 
L 328.251064 180.825649 
L 329.870019 176.444681 
L 331.488975 202.198225 
L 333.10793 210.709697 
L 334.726886 211.153089 
L 336.345841 200.842375 
L 337.964797 203.232955 
L 339.583752 217.928401 
L 342.821663 205.309713 
L 344.440619 216.401679 
L 346.059574 204.242339 
L 347.67853 209.54626 
L 349.297485 216.043561 
L 350.916441 241.605636 
L 352.535397 212.213565 
L 354.154352 215.92305 
L 355.773308 218.358184 
L 357.392263 236.687602 
L 359.011219 225.439588 
L 360.630174 199.722178 
L 362.24913 214.92829 
L 363.868085 210.241561 
L 365.487041 230.235755 
L 367.105996 208.2683 
L 368.724952 228.642875 
L 370.343907 220.025684 
L 371.962863 217.593069 
L 373.581818 237.768985 
L 373.581818 237.768985 
" style="fill:none;stroke:#008000;stroke-linecap:square;stroke-width:1.5;"/>
   </g>
   <g id="line2d_19">
    <path clip-path="url(#p1024706366)" d="M 69.218182 53.654976 
L 70.837137 57.382457 
L 72.456093 60.376253 
L 74.075048 62.706372 
L 75.694004 73.06494 
L 77.312959 53.59935 
L 78.931915 57.583046 
L 80.55087 72.877737 
L 82.169826 83.632411 
L 83.788781 67.607208 
L 85.407737 61.930239 
L 88.645648 90.724262 
L 90.264603 102.631853 
L 91.883559 85.888586 
L 93.502515 75.722645 
L 95.12147 72.542261 
L 96.740426 67.727862 
L 98.359381 52.872293 
L 99.978337 78.689229 
L 101.597292 57.926393 
L 103.216248 98.984233 
L 104.835203 84.525878 
L 106.454159 135.905035 
L 108.073114 78.379865 
L 109.69207 242.116364 
L 373.581818 242.116364 
L 373.581818 242.116364 
" style="fill:none;stroke:#008000;stroke-dasharray:5.55,2.4;stroke-dashoffset:0;stroke-width:1.5;"/>
   </g>
   <g id="patch_3">
    <path d="M 54 252 
L 54 34.56 
" style="fill:none;stroke:#000000;stroke-linecap:square;stroke-linejoin:miter;stroke-width:0.8;"/>
   </g>
   <g id="patch_4">
    <path d="M 388.8 252 
L 388.8 34.56 
" style="fill:none;stroke:#000000;stroke-linecap:square;stroke-linejoin:miter;stroke-width:0.8;"/>
   </g>
   <g id="patch_5">
    <path d="M 54 252 
L 388.8 252 
" style="fill:none;stroke:#000000;stroke-linecap:square;stroke-linejoin:miter;stroke-width:0.8;"/>
   </g>
   <g id="patch_6">
    <path d="M 54 34.56 
L 388.8 34.56 
" style="fill:none;stroke:#000000;stroke-linecap:square;stroke-linejoin:miter;stroke-width:0.8;"/>
   </g>
   <g id="legend_1">
    <g id="patch_7">
     <path d="M 295.86875 101.2725 
L 381.8 101.2725 
Q 383.8 101.2725 383.8 99.2725 
L 383.8 41.56 
Q 383.8 39.56 381.8 39.56 
L 295.86875 39.56 
Q 293.86875 39.56 293.86875 41.56 
L 293.86875 99.2725 
Q 293.86875 101.2725 295.86875 101.2725 
z
" style="fill:#ffffff;opacity:0.8;stroke:#cccccc;stroke-linejoin:miter;"/>
    </g>
    <g id="line2d_20">
     <path d="M 297.86875 47.658437 
L 317.86875 47.658437 
" style="fill:none;stroke:#0000ff;stroke-linecap:square;stroke-width:1.5;"/>
    </g>
    <g id="line2d_21"/>
    <g id="text_16">
     <!-- MF Mean -->
     <defs>
      <path d="M 9.8125 72.90625 
L 24.515625 72.90625 
L 43.109375 23.296875 
L 61.8125 72.90625 
L 76.515625 72.90625 
L 76.515625 0 
L 66.890625 0 
L 66.890625 64.015625 
L 48.09375 14.015625 
L 38.1875 14.015625 
L 19.390625 64.015625 
L 19.390625 0 
L 9.8125 0 
z
" id="DejaVuSans-4d"/>
      <path d="M 9.8125 72.90625 
L 51.703125 72.90625 
L 51.703125 64.59375 
L 19.671875 64.59375 
L 19.671875 43.109375 
L 48.578125 43.109375 
L 48.578125 34.8125 
L 19.671875 34.8125 
L 19.671875 0 
L 9.8125 0 
z
" id="DejaVuSans-46"/>
      <path id="DejaVuSans-20"/>
      <path d="M 56.203125 29.59375 
L 56.203125 25.203125 
L 14.890625 25.203125 
Q 15.484375 15.921875 20.484375 11.0625 
Q 25.484375 6.203125 34.421875 6.203125 
Q 39.59375 6.203125 44.453125 7.46875 
Q 49.3125 8.734375 54.109375 11.28125 
L 54.109375 2.78125 
Q 49.265625 0.734375 44.1875 -0.34375 
Q 39.109375 -1.421875 33.890625 -1.421875 
Q 20.796875 -1.421875 13.15625 6.1875 
Q 5.515625 13.8125 5.515625 26.8125 
Q 5.515625 40.234375 12.765625 48.109375 
Q 20.015625 56 32.328125 56 
Q 43.359375 56 49.78125 48.890625 
Q 56.203125 41.796875 56.203125 29.59375 
z
M 47.21875 32.234375 
Q 47.125 39.59375 43.09375 43.984375 
Q 39.0625 48.390625 32.421875 48.390625 
Q 24.90625 48.390625 20.390625 44.140625 
Q 15.875 39.890625 15.1875 32.171875 
z
" id="DejaVuSans-65"/>
      <path d="M 34.28125 27.484375 
Q 23.390625 27.484375 19.1875 25 
Q 14.984375 22.515625 14.984375 16.5 
Q 14.984375 11.71875 18.140625 8.90625 
Q 21.296875 6.109375 26.703125 6.109375 
Q 34.1875 6.109375 38.703125 11.40625 
Q 43.21875 16.703125 43.21875 25.484375 
L 43.21875 27.484375 
z
M 52.203125 31.203125 
L 52.203125 0 
L 43.21875 0 
L 43.21875 8.296875 
Q 40.140625 3.328125 35.546875 0.953125 
Q 30.953125 -1.421875 24.3125 -1.421875 
Q 15.921875 -1.421875 10.953125 3.296875 
Q 6 8.015625 6 15.921875 
Q 6 25.140625 12.171875 29.828125 
Q 18.359375 34.515625 30.609375 34.515625 
L 43.21875 34.515625 
L 43.21875 35.40625 
Q 43.21875 41.609375 39.140625 45 
Q 35.0625 48.390625 27.6875 48.390625 
Q 23 48.390625 18.546875 47.265625 
Q 14.109375 46.140625 10.015625 43.890625 
L 10.015625 52.203125 
Q 14.9375 54.109375 19.578125 55.046875 
Q 24.21875 56 28.609375 56 
Q 40.484375 56 46.34375 49.84375 
Q 52.203125 43.703125 52.203125 31.203125 
z
" id="DejaVuSans-61"/>
      <path d="M 54.890625 33.015625 
L 54.890625 0 
L 45.90625 0 
L 45.90625 32.71875 
Q 45.90625 40.484375 42.875 44.328125 
Q 39.84375 48.1875 33.796875 48.1875 
Q 26.515625 48.1875 22.3125 43.546875 
Q 18.109375 38.921875 18.109375 30.90625 
L 18.109375 0 
L 9.078125 0 
L 9.078125 54.6875 
L 18.109375 54.6875 
L 18.109375 46.1875 
Q 21.34375 51.125 25.703125 53.5625 
Q 30.078125 56 35.796875 56 
Q 45.21875 56 50.046875 50.171875 
Q 54.890625 44.34375 54.890625 33.015625 
z
" id="DejaVuSans-6e"/>
     </defs>
     <g transform="translate(325.86875 51.158437)scale(0.1 -0.1)">
      <use xlink:href="#DejaVuSans-4d"/>
      <use x="86.279297" xlink:href="#DejaVuSans-46"/>
      <use x="143.798828" xlink:href="#DejaVuSans-20"/>
      <use x="175.585938" xlink:href="#DejaVuSans-4d"/>
      <use x="261.865234" xlink:href="#DejaVuSans-65"/>
      <use x="323.388672" xlink:href="#DejaVuSans-61"/>
      <use x="384.667969" xlink:href="#DejaVuSans-6e"/>
     </g>
    </g>
    <g id="line2d_22">
     <path d="M 297.86875 62.336562 
L 317.86875 62.336562 
" style="fill:none;stroke:#0000ff;stroke-dasharray:5.55,2.4;stroke-dashoffset:0;stroke-width:1.5;"/>
    </g>
    <g id="line2d_23"/>
    <g id="text_17">
     <!-- MF Median -->
     <defs>
      <path d="M 45.40625 46.390625 
L 45.40625 75.984375 
L 54.390625 75.984375 
L 54.390625 0 
L 45.40625 0 
L 45.40625 8.203125 
Q 42.578125 3.328125 38.25 0.953125 
Q 33.9375 -1.421875 27.875 -1.421875 
Q 17.96875 -1.421875 11.734375 6.484375 
Q 5.515625 14.40625 5.515625 27.296875 
Q 5.515625 40.1875 11.734375 48.09375 
Q 17.96875 56 27.875 56 
Q 33.9375 56 38.25 53.625 
Q 42.578125 51.265625 45.40625 46.390625 
z
M 14.796875 27.296875 
Q 14.796875 17.390625 18.875 11.75 
Q 22.953125 6.109375 30.078125 6.109375 
Q 37.203125 6.109375 41.296875 11.75 
Q 45.40625 17.390625 45.40625 27.296875 
Q 45.40625 37.203125 41.296875 42.84375 
Q 37.203125 48.484375 30.078125 48.484375 
Q 22.953125 48.484375 18.875 42.84375 
Q 14.796875 37.203125 14.796875 27.296875 
z
" id="DejaVuSans-64"/>
      <path d="M 9.421875 54.6875 
L 18.40625 54.6875 
L 18.40625 0 
L 9.421875 0 
z
M 9.421875 75.984375 
L 18.40625 75.984375 
L 18.40625 64.59375 
L 9.421875 64.59375 
z
" id="DejaVuSans-69"/>
     </defs>
     <g transform="translate(325.86875 65.836562)scale(0.1 -0.1)">
      <use xlink:href="#DejaVuSans-4d"/>
      <use x="86.279297" xlink:href="#DejaVuSans-46"/>
      <use x="143.798828" xlink:href="#DejaVuSans-20"/>
      <use x="175.585938" xlink:href="#DejaVuSans-4d"/>
      <use x="261.865234" xlink:href="#DejaVuSans-65"/>
      <use x="323.388672" xlink:href="#DejaVuSans-64"/>
      <use x="386.865234" xlink:href="#DejaVuSans-69"/>
      <use x="414.648438" xlink:href="#DejaVuSans-61"/>
      <use x="475.927734" xlink:href="#DejaVuSans-6e"/>
     </g>
    </g>
    <g id="line2d_24">
     <path d="M 297.86875 77.014687 
L 317.86875 77.014687 
" style="fill:none;stroke:#008000;stroke-linecap:square;stroke-width:1.5;"/>
    </g>
    <g id="line2d_25"/>
    <g id="text_18">
     <!-- EC Mean -->
     <defs>
      <path d="M 9.8125 72.90625 
L 55.90625 72.90625 
L 55.90625 64.59375 
L 19.671875 64.59375 
L 19.671875 43.015625 
L 54.390625 43.015625 
L 54.390625 34.71875 
L 19.671875 34.71875 
L 19.671875 8.296875 
L 56.78125 8.296875 
L 56.78125 0 
L 9.8125 0 
z
" id="DejaVuSans-45"/>
      <path d="M 64.40625 67.28125 
L 64.40625 56.890625 
Q 59.421875 61.53125 53.78125 63.8125 
Q 48.140625 66.109375 41.796875 66.109375 
Q 29.296875 66.109375 22.65625 58.46875 
Q 16.015625 50.828125 16.015625 36.375 
Q 16.015625 21.96875 22.65625 14.328125 
Q 29.296875 6.6875 41.796875 6.6875 
Q 48.140625 6.6875 53.78125 8.984375 
Q 59.421875 11.28125 64.40625 15.921875 
L 64.40625 5.609375 
Q 59.234375 2.09375 53.4375 0.328125 
Q 47.65625 -1.421875 41.21875 -1.421875 
Q 24.65625 -1.421875 15.125 8.703125 
Q 5.609375 18.84375 5.609375 36.375 
Q 5.609375 53.953125 15.125 64.078125 
Q 24.65625 74.21875 41.21875 74.21875 
Q 47.75 74.21875 53.53125 72.484375 
Q 59.328125 70.75 64.40625 67.28125 
z
" id="DejaVuSans-43"/>
     </defs>
     <g transform="translate(325.86875 80.514687)scale(0.1 -0.1)">
      <use xlink:href="#DejaVuSans-45"/>
      <use x="63.183594" xlink:href="#DejaVuSans-43"/>
      <use x="133.007812" xlink:href="#DejaVuSans-20"/>
      <use x="164.794922" xlink:href="#DejaVuSans-4d"/>
      <use x="251.074219" xlink:href="#DejaVuSans-65"/>
      <use x="312.597656" xlink:href="#DejaVuSans-61"/>
      <use x="373.876953" xlink:href="#DejaVuSans-6e"/>
     </g>
    </g>
    <g id="line2d_26">
     <path d="M 297.86875 91.692813 
L 317.86875 91.692813 
" style="fill:none;stroke:#008000;stroke-dasharray:5.55,2.4;stroke-dashoffset:0;stroke-width:1.5;"/>
    </g>
    <g id="line2d_27"/>
    <g id="text_19">
     <!-- EC Median -->
     <g transform="translate(325.86875 95.192813)scale(0.1 -0.1)">
      <use xlink:href="#DejaVuSans-45"/>
      <use x="63.183594" xlink:href="#DejaVuSans-43"/>
      <use x="133.007812" xlink:href="#DejaVuSans-20"/>
      <use x="164.794922" xlink:href="#DejaVuSans-4d"/>
      <use x="251.074219" xlink:href="#DejaVuSans-65"/>
      <use x="312.597656" xlink:href="#DejaVuSans-64"/>
      <use x="376.074219" xlink:href="#DejaVuSans-69"/>
      <use x="403.857422" xlink:href="#DejaVuSans-61"/>
      <use x="465.136719" xlink:href="#DejaVuSans-6e"/>
     </g>
    </g>
   </g>
  </g>
 </g>
 <defs>
  <clipPath id="p1024706366">
   <rect height="217.44" width="334.8" x="54" y="34.56"/>
  </clipPath>
 </defs>
</svg>
