<?xml version="1.0" encoding="utf-8" standalone="no"?>
<!DOCTYPE svg PUBLIC "-//W3C//DTD SVG 1.1//EN"
  "http://www.w3.org/Graphics/SVG/1.1/DTD/svg11.dtd">
<!-- Created with matplotlib (http://matplotlib.org/) -->
<svg height="288pt" version="1.1" viewBox="0 0 432 288" width="432pt" xmlns="http://www.w3.org/2000/svg" xmlns:xlink="http://www.w3.org/1999/xlink">
 <defs>
  <style type="text/css">
*{stroke-linecap:butt;stroke-linejoin:round;}
  </style>
 </defs>
 <g id="figure_1">
  <g id="patch_1">
   <path d="M 0 288 
L 432 288 
L 432 0 
L 0 0 
z
" style="fill:#ffffff;"/>
  </g>
  <g id="axes_1">
   <g id="patch_2">
    <path d="M 54 252 
L 388.8 252 
L 388.8 34.56 
L 54 34.56 
z
" style="fill:#ffffff;"/>
   </g>
   <g id="matplotlib.axis_1">
    <g id="xtick_1">
     <g id="line2d_1">
      <defs>
       <path d="M 0 0 
L 0 3.5 
" id="m0c3c99983e" style="stroke:#000000;stroke-width:0.8;"/>
      </defs>
      <g>
       <use style="stroke:#000000;stroke-width:0.8;" x="69.218182" xlink:href="#m0c3c99983e" y="252"/>
      </g>
     </g>
     <g id="text_1">
      <!-- 0 -->
      <defs>
       <path d="M 31.78125 66.40625 
Q 24.171875 66.40625 20.328125 58.90625 
Q 16.5 51.421875 16.5 36.375 
Q 16.5 21.390625 20.328125 13.890625 
Q 24.171875 6.390625 31.78125 6.390625 
Q 39.453125 6.390625 43.28125 13.890625 
Q 47.125 21.390625 47.125 36.375 
Q 47.125 51.421875 43.28125 58.90625 
Q 39.453125 66.40625 31.78125 66.40625 
z
M 31.78125 74.21875 
Q 44.046875 74.21875 50.515625 64.515625 
Q 56.984375 54.828125 56.984375 36.375 
Q 56.984375 17.96875 50.515625 8.265625 
Q 44.046875 -1.421875 31.78125 -1.421875 
Q 19.53125 -1.421875 13.0625 8.265625 
Q 6.59375 17.96875 6.59375 36.375 
Q 6.59375 54.828125 13.0625 64.515625 
Q 19.53125 74.21875 31.78125 74.21875 
z
" id="DejaVuSans-30"/>
      </defs>
      <g transform="translate(66.036932 266.598437)scale(0.1 -0.1)">
       <use xlink:href="#DejaVuSans-30"/>
      </g>
     </g>
    </g>
    <g id="xtick_2">
     <g id="line2d_2">
      <g>
       <use style="stroke:#000000;stroke-width:0.8;" x="109.69207" xlink:href="#m0c3c99983e" y="252"/>
      </g>
     </g>
     <g id="text_2">
      <!-- 25 -->
      <defs>
       <path d="M 19.1875 8.296875 
L 53.609375 8.296875 
L 53.609375 0 
L 7.328125 0 
L 7.328125 8.296875 
Q 12.9375 14.109375 22.625 23.890625 
Q 32.328125 33.6875 34.8125 36.53125 
Q 39.546875 41.84375 41.421875 45.53125 
Q 43.3125 49.21875 43.3125 52.78125 
Q 43.3125 58.59375 39.234375 62.25 
Q 35.15625 65.921875 28.609375 65.921875 
Q 23.96875 65.921875 18.8125 64.3125 
Q 13.671875 62.703125 7.8125 59.421875 
L 7.8125 69.390625 
Q 13.765625 71.78125 18.9375 73 
Q 24.125 74.21875 28.421875 74.21875 
Q 39.75 74.21875 46.484375 68.546875 
Q 53.21875 62.890625 53.21875 53.421875 
Q 53.21875 48.921875 51.53125 44.890625 
Q 49.859375 40.875 45.40625 35.40625 
Q 44.1875 33.984375 37.640625 27.21875 
Q 31.109375 20.453125 19.1875 8.296875 
z
" id="DejaVuSans-32"/>
       <path d="M 10.796875 72.90625 
L 49.515625 72.90625 
L 49.515625 64.59375 
L 19.828125 64.59375 
L 19.828125 46.734375 
Q 21.96875 47.46875 24.109375 47.828125 
Q 26.265625 48.1875 28.421875 48.1875 
Q 40.625 48.1875 47.75 41.5 
Q 54.890625 34.8125 54.890625 23.390625 
Q 54.890625 11.625 47.5625 5.09375 
Q 40.234375 -1.421875 26.90625 -1.421875 
Q 22.3125 -1.421875 17.546875 -0.640625 
Q 12.796875 0.140625 7.71875 1.703125 
L 7.71875 11.625 
Q 12.109375 9.234375 16.796875 8.0625 
Q 21.484375 6.890625 26.703125 6.890625 
Q 35.15625 6.890625 40.078125 11.328125 
Q 45.015625 15.765625 45.015625 23.390625 
Q 45.015625 31 40.078125 35.4375 
Q 35.15625 39.890625 26.703125 39.890625 
Q 22.75 39.890625 18.8125 39.015625 
Q 14.890625 38.140625 10.796875 36.28125 
z
" id="DejaVuSans-35"/>
      </defs>
      <g transform="translate(103.32957 266.598437)scale(0.1 -0.1)">
       <use xlink:href="#DejaVuSans-32"/>
       <use x="63.623047" xlink:href="#DejaVuSans-35"/>
      </g>
     </g>
    </g>
    <g id="xtick_3">
     <g id="line2d_3">
      <g>
       <use style="stroke:#000000;stroke-width:0.8;" x="150.165957" xlink:href="#m0c3c99983e" y="252"/>
      </g>
     </g>
     <g id="text_3">
      <!-- 50 -->
      <g transform="translate(143.803457 266.598437)scale(0.1 -0.1)">
       <use xlink:href="#DejaVuSans-35"/>
       <use x="63.623047" xlink:href="#DejaVuSans-30"/>
      </g>
     </g>
    </g>
    <g id="xtick_4">
     <g id="line2d_4">
      <g>
       <use style="stroke:#000000;stroke-width:0.8;" x="190.639845" xlink:href="#m0c3c99983e" y="252"/>
      </g>
     </g>
     <g id="text_4">
      <!-- 75 -->
      <defs>
       <path d="M 8.203125 72.90625 
L 55.078125 72.90625 
L 55.078125 68.703125 
L 28.609375 0 
L 18.3125 0 
L 43.21875 64.59375 
L 8.203125 64.59375 
z
" id="DejaVuSans-37"/>
      </defs>
      <g transform="translate(184.277345 266.598437)scale(0.1 -0.1)">
       <use xlink:href="#DejaVuSans-37"/>
       <use x="63.623047" xlink:href="#DejaVuSans-35"/>
      </g>
     </g>
    </g>
    <g id="xtick_5">
     <g id="line2d_5">
      <g>
       <use style="stroke:#000000;stroke-width:0.8;" x="231.113733" xlink:href="#m0c3c99983e" y="252"/>
      </g>
     </g>
     <g id="text_5">
      <!-- 100 -->
      <defs>
       <path d="M 12.40625 8.296875 
L 28.515625 8.296875 
L 28.515625 63.921875 
L 10.984375 60.40625 
L 10.984375 69.390625 
L 28.421875 72.90625 
L 38.28125 72.90625 
L 38.28125 8.296875 
L 54.390625 8.296875 
L 54.390625 0 
L 12.40625 0 
z
" id="DejaVuSans-31"/>
      </defs>
      <g transform="translate(221.569983 266.598437)scale(0.1 -0.1)">
       <use xlink:href="#DejaVuSans-31"/>
       <use x="63.623047" xlink:href="#DejaVuSans-30"/>
       <use x="127.246094" xlink:href="#DejaVuSans-30"/>
      </g>
     </g>
    </g>
    <g id="xtick_6">
     <g id="line2d_6">
      <g>
       <use style="stroke:#000000;stroke-width:0.8;" x="271.587621" xlink:href="#m0c3c99983e" y="252"/>
      </g>
     </g>
     <g id="text_6">
      <!-- 125 -->
      <g transform="translate(262.043871 266.598437)scale(0.1 -0.1)">
       <use xlink:href="#DejaVuSans-31"/>
       <use x="63.623047" xlink:href="#DejaVuSans-32"/>
       <use x="127.246094" xlink:href="#DejaVuSans-35"/>
      </g>
     </g>
    </g>
    <g id="xtick_7">
     <g id="line2d_7">
      <g>
       <use style="stroke:#000000;stroke-width:0.8;" x="312.061509" xlink:href="#m0c3c99983e" y="252"/>
      </g>
     </g>
     <g id="text_7">
      <!-- 150 -->
      <g transform="translate(302.517759 266.598437)scale(0.1 -0.1)">
       <use xlink:href="#DejaVuSans-31"/>
       <use x="63.623047" xlink:href="#DejaVuSans-35"/>
       <use x="127.246094" xlink:href="#DejaVuSans-30"/>
      </g>
     </g>
    </g>
    <g id="xtick_8">
     <g id="line2d_8">
      <g>
       <use style="stroke:#000000;stroke-width:0.8;" x="352.535397" xlink:href="#m0c3c99983e" y="252"/>
      </g>
     </g>
     <g id="text_8">
      <!-- 175 -->
      <g transform="translate(342.991647 266.598437)scale(0.1 -0.1)">
       <use xlink:href="#DejaVuSans-31"/>
       <use x="63.623047" xlink:href="#DejaVuSans-37"/>
       <use x="127.246094" xlink:href="#DejaVuSans-35"/>
      </g>
     </g>
    </g>
   </g>
   <g id="matplotlib.axis_2">
    <g id="ytick_1">
     <g id="line2d_9">
      <defs>
       <path d="M 0 0 
L -3.5 0 
" id="md2aaa8ed56" style="stroke:#000000;stroke-width:0.8;"/>
      </defs>
      <g>
       <use style="stroke:#000000;stroke-width:0.8;" x="54" xlink:href="#md2aaa8ed56" y="223.035617"/>
      </g>
     </g>
     <g id="text_9">
      <!-- 0 -->
      <g transform="translate(40.6375 226.834836)scale(0.1 -0.1)">
       <use xlink:href="#DejaVuSans-30"/>
      </g>
     </g>
    </g>
    <g id="ytick_2">
     <g id="line2d_10">
      <g>
       <use style="stroke:#000000;stroke-width:0.8;" x="54" xlink:href="#md2aaa8ed56" y="189.270001"/>
      </g>
     </g>
     <g id="text_10">
      <!-- 2000 -->
      <g transform="translate(21.55 193.06922)scale(0.1 -0.1)">
       <use xlink:href="#DejaVuSans-32"/>
       <use x="63.623047" xlink:href="#DejaVuSans-30"/>
       <use x="127.246094" xlink:href="#DejaVuSans-30"/>
       <use x="190.869141" xlink:href="#DejaVuSans-30"/>
      </g>
     </g>
    </g>
    <g id="ytick_3">
     <g id="line2d_11">
      <g>
       <use style="stroke:#000000;stroke-width:0.8;" x="54" xlink:href="#md2aaa8ed56" y="155.504385"/>
      </g>
     </g>
     <g id="text_11">
      <!-- 4000 -->
      <defs>
       <path d="M 37.796875 64.3125 
L 12.890625 25.390625 
L 37.796875 25.390625 
z
M 35.203125 72.90625 
L 47.609375 72.90625 
L 47.609375 25.390625 
L 58.015625 25.390625 
L 58.015625 17.1875 
L 47.609375 17.1875 
L 47.609375 0 
L 37.796875 0 
L 37.796875 17.1875 
L 4.890625 17.1875 
L 4.890625 26.703125 
z
" id="DejaVuSans-34"/>
      </defs>
      <g transform="translate(21.55 159.303604)scale(0.1 -0.1)">
       <use xlink:href="#DejaVuSans-34"/>
       <use x="63.623047" xlink:href="#DejaVuSans-30"/>
       <use x="127.246094" xlink:href="#DejaVuSans-30"/>
       <use x="190.869141" xlink:href="#DejaVuSans-30"/>
      </g>
     </g>
    </g>
    <g id="ytick_4">
     <g id="line2d_12">
      <g>
       <use style="stroke:#000000;stroke-width:0.8;" x="54" xlink:href="#md2aaa8ed56" y="121.73877"/>
      </g>
     </g>
     <g id="text_12">
      <!-- 6000 -->
      <defs>
       <path d="M 33.015625 40.375 
Q 26.375 40.375 22.484375 35.828125 
Q 18.609375 31.296875 18.609375 23.390625 
Q 18.609375 15.53125 22.484375 10.953125 
Q 26.375 6.390625 33.015625 6.390625 
Q 39.65625 6.390625 43.53125 10.953125 
Q 47.40625 15.53125 47.40625 23.390625 
Q 47.40625 31.296875 43.53125 35.828125 
Q 39.65625 40.375 33.015625 40.375 
z
M 52.59375 71.296875 
L 52.59375 62.3125 
Q 48.875 64.0625 45.09375 64.984375 
Q 41.3125 65.921875 37.59375 65.921875 
Q 27.828125 65.921875 22.671875 59.328125 
Q 17.53125 52.734375 16.796875 39.40625 
Q 19.671875 43.65625 24.015625 45.921875 
Q 28.375 48.1875 33.59375 48.1875 
Q 44.578125 48.1875 50.953125 41.515625 
Q 57.328125 34.859375 57.328125 23.390625 
Q 57.328125 12.15625 50.6875 5.359375 
Q 44.046875 -1.421875 33.015625 -1.421875 
Q 20.359375 -1.421875 13.671875 8.265625 
Q 6.984375 17.96875 6.984375 36.375 
Q 6.984375 53.65625 15.1875 63.9375 
Q 23.390625 74.21875 37.203125 74.21875 
Q 40.921875 74.21875 44.703125 73.484375 
Q 48.484375 72.75 52.59375 71.296875 
z
" id="DejaVuSans-36"/>
      </defs>
      <g transform="translate(21.55 125.537988)scale(0.1 -0.1)">
       <use xlink:href="#DejaVuSans-36"/>
       <use x="63.623047" xlink:href="#DejaVuSans-30"/>
       <use x="127.246094" xlink:href="#DejaVuSans-30"/>
       <use x="190.869141" xlink:href="#DejaVuSans-30"/>
      </g>
     </g>
    </g>
    <g id="ytick_5">
     <g id="line2d_13">
      <g>
       <use style="stroke:#000000;stroke-width:0.8;" x="54" xlink:href="#md2aaa8ed56" y="87.973154"/>
      </g>
     </g>
     <g id="text_13">
      <!-- 8000 -->
      <defs>
       <path d="M 31.78125 34.625 
Q 24.75 34.625 20.71875 30.859375 
Q 16.703125 27.09375 16.703125 20.515625 
Q 16.703125 13.921875 20.71875 10.15625 
Q 24.75 6.390625 31.78125 6.390625 
Q 38.8125 6.390625 42.859375 10.171875 
Q 46.921875 13.96875 46.921875 20.515625 
Q 46.921875 27.09375 42.890625 30.859375 
Q 38.875 34.625 31.78125 34.625 
z
M 21.921875 38.8125 
Q 15.578125 40.375 12.03125 44.71875 
Q 8.5 49.078125 8.5 55.328125 
Q 8.5 64.0625 14.71875 69.140625 
Q 20.953125 74.21875 31.78125 74.21875 
Q 42.671875 74.21875 48.875 69.140625 
Q 55.078125 64.0625 55.078125 55.328125 
Q 55.078125 49.078125 51.53125 44.71875 
Q 48 40.375 41.703125 38.8125 
Q 48.828125 37.15625 52.796875 32.3125 
Q 56.78125 27.484375 56.78125 20.515625 
Q 56.78125 9.90625 50.3125 4.234375 
Q 43.84375 -1.421875 31.78125 -1.421875 
Q 19.734375 -1.421875 13.25 4.234375 
Q 6.78125 9.90625 6.78125 20.515625 
Q 6.78125 27.484375 10.78125 32.3125 
Q 14.796875 37.15625 21.921875 38.8125 
z
M 18.3125 54.390625 
Q 18.3125 48.734375 21.84375 45.5625 
Q 25.390625 42.390625 31.78125 42.390625 
Q 38.140625 42.390625 41.71875 45.5625 
Q 45.3125 48.734375 45.3125 54.390625 
Q 45.3125 60.0625 41.71875 63.234375 
Q 38.140625 66.40625 31.78125 66.40625 
Q 25.390625 66.40625 21.84375 63.234375 
Q 18.3125 60.0625 18.3125 54.390625 
z
" id="DejaVuSans-38"/>
      </defs>
      <g transform="translate(21.55 91.772372)scale(0.1 -0.1)">
       <use xlink:href="#DejaVuSans-38"/>
       <use x="63.623047" xlink:href="#DejaVuSans-30"/>
       <use x="127.246094" xlink:href="#DejaVuSans-30"/>
       <use x="190.869141" xlink:href="#DejaVuSans-30"/>
      </g>
     </g>
    </g>
    <g id="ytick_6">
     <g id="line2d_14">
      <g>
       <use style="stroke:#000000;stroke-width:0.8;" x="54" xlink:href="#md2aaa8ed56" y="54.207538"/>
      </g>
     </g>
     <g id="text_14">
      <!-- 10000 -->
      <g transform="translate(15.1875 58.006757)scale(0.1 -0.1)">
       <use xlink:href="#DejaVuSans-31"/>
       <use x="63.623047" xlink:href="#DejaVuSans-30"/>
       <use x="127.246094" xlink:href="#DejaVuSans-30"/>
       <use x="190.869141" xlink:href="#DejaVuSans-30"/>
       <use x="254.492188" xlink:href="#DejaVuSans-30"/>
      </g>
     </g>
    </g>
   </g>
   <g id="line2d_15">
    <path clip-path="url(#p8af4bdf62f)" d="M 69.218182 224.223669 
L 70.837137 224.885833 
L 72.456093 222.694371 
L 74.075048 220.141037 
L 75.694004 216.285897 
L 77.312959 224.135288 
L 80.55087 225.17847 
L 82.169826 221.981741 
L 83.788781 208.299855 
L 85.407737 210.51555 
L 87.026692 221.398784 
L 88.645648 178.544476 
L 90.264603 205.825149 
L 91.883559 202.802561 
L 93.502515 214.100423 
L 95.12147 216.863096 
L 96.740426 202.079883 
L 98.359381 224.664279 
L 99.978337 173.777131 
L 101.597292 182.753534 
L 103.216248 171.331041 
L 104.835203 146.920821 
L 106.454159 170.226878 
L 108.073114 220.3617 
L 109.69207 137.720062 
L 111.311025 163.176059 
L 112.929981 150.420954 
L 114.548936 164.763208 
L 116.167892 159.872288 
L 117.786847 177.703666 
L 119.405803 156.386681 
L 121.024758 161.104869 
L 122.643714 188.914469 
L 124.262669 182.433985 
L 125.881625 210.066365 
L 127.50058 192.139627 
L 129.119536 195.661218 
L 132.357447 205.981721 
L 133.976402 206.662359 
L 135.595358 201.773691 
L 137.214313 205.525965 
L 138.833269 205.054977 
L 140.452224 225.498999 
L 142.07118 208.289698 
L 143.690135 216.460202 
L 145.309091 190.755993 
L 146.928046 197.572882 
L 148.547002 213.156632 
L 150.165957 180.839351 
L 151.784913 219.14832 
L 153.403868 216.489318 
L 155.022824 222.712772 
L 156.641779 201.662139 
L 158.260735 210.257216 
L 159.879691 203.115169 
L 161.498646 199.922367 
L 163.117602 220.640657 
L 164.736557 216.4607 
L 166.355513 203.572046 
L 167.974468 217.77246 
L 169.593424 226.018393 
L 171.212379 211.333434 
L 172.831335 222.942296 
L 174.45029 218.866911 
L 176.069246 212.926619 
L 177.688201 215.287858 
L 179.307157 210.482949 
L 180.926112 216.127652 
L 182.545068 220.141272 
L 184.164023 215.714965 
L 185.782979 218.328437 
L 187.401934 220.334887 
L 189.02089 208.308129 
L 190.639845 214.042342 
L 192.258801 231.325209 
L 193.877756 209.589411 
L 195.496712 211.656699 
L 197.115667 214.794626 
L 198.734623 220.463246 
L 200.353578 213.488411 
L 201.972534 218.832226 
L 203.591489 213.34323 
L 205.210445 203.634169 
L 206.8294 209.104728 
L 208.448356 217.858401 
L 210.067311 228.879235 
L 211.686267 213.963936 
L 213.305222 214.402059 
L 214.924178 219.396563 
L 216.543133 220.347971 
L 218.162089 209.927094 
L 219.781044 209.211023 
L 221.4 219.210882 
L 223.018956 212.508007 
L 224.637911 207.71318 
L 226.256867 216.046628 
L 227.875822 217.001295 
L 229.494778 217.332927 
L 231.113733 210.443419 
L 232.732689 213.077953 
L 234.351644 201.764835 
L 235.9706 221.845323 
L 237.589555 208.272895 
L 239.208511 200.987956 
L 240.827466 207.903861 
L 242.446422 213.304185 
L 244.065377 217.873674 
L 245.684333 220.047932 
L 247.303288 213.620988 
L 248.922244 221.543799 
L 250.541199 212.953127 
L 252.160155 216.231316 
L 253.77911 217.521744 
L 255.398066 223.825368 
L 257.017021 202.859415 
L 258.635977 221.697151 
L 260.254932 219.157944 
L 261.873888 220.630851 
L 263.492843 221.901628 
L 266.730754 219.158354 
L 268.34971 230.475722 
L 269.968665 211.63947 
L 271.587621 220.291023 
L 273.206576 221.541596 
L 274.825532 222.220212 
L 276.444487 222.082735 
L 278.063443 211.746868 
L 279.682398 218.173697 
L 281.301354 223.937408 
L 282.920309 219.097793 
L 284.539265 220.172765 
L 286.158221 222.87146 
L 287.777176 223.087046 
L 289.396132 222.507285 
L 291.015087 208.378327 
L 292.634043 215.494415 
L 294.252998 219.724629 
L 295.871954 220.054608 
L 297.490909 222.133343 
L 299.109865 224.514409 
L 300.72882 219.432767 
L 302.347776 222.918717 
L 303.966731 222.530637 
L 305.585687 220.316827 
L 307.204642 222.89291 
L 308.823598 218.170482 
L 310.442553 218.31703 
L 312.061509 222.132021 
L 313.680464 221.237872 
L 315.29942 220.994383 
L 316.918375 222.871742 
L 318.537331 228.203784 
L 320.156286 242.116364 
L 321.775242 233.743069 
L 323.394197 229.360672 
L 325.013153 206.684577 
L 326.632108 235.679291 
L 328.251064 229.478675 
L 329.870019 230.508521 
L 331.488975 216.942161 
L 333.10793 226.87058 
L 334.726886 216.984408 
L 336.345841 214.934572 
L 337.964797 211.351266 
L 339.583752 226.815767 
L 341.202708 216.222496 
L 342.821663 217.744305 
L 344.440619 215.912326 
L 346.059574 214.645978 
L 347.67853 217.924928 
L 349.297485 215.367804 
L 350.916441 222.930428 
L 352.535397 220.303959 
L 354.154352 228.457006 
L 355.773308 221.274882 
L 357.392263 222.578021 
L 359.011219 221.587088 
L 360.630174 212.347062 
L 362.24913 216.89977 
L 363.868085 224.708858 
L 365.487041 217.13021 
L 367.105996 210.589559 
L 368.724952 222.402472 
L 370.343907 209.481319 
L 371.962863 217.798065 
L 373.581818 222.300054 
L 373.581818 222.300054 
" style="fill:none;stroke:#1f77b4;stroke-linecap:square;stroke-width:1.5;"/>
   </g>
   <g id="line2d_16">
    <path clip-path="url(#p8af4bdf62f)" d="M 69.218182 222.246015 
L 70.837137 222.899906 
L 74.075048 221.416819 
L 75.694004 219.515663 
L 77.312959 222.509043 
L 80.55087 222.836357 
L 82.169826 221.634433 
L 83.788781 215.501656 
L 85.407737 216.49228 
L 87.026692 221.985399 
L 88.645648 196.439622 
L 90.264603 210.558688 
L 91.883559 212.055497 
L 93.502515 218.477947 
L 95.12147 216.037235 
L 96.740426 210.316975 
L 98.359381 222.116711 
L 99.978337 191.189545 
L 101.597292 195.899502 
L 103.216248 181.553948 
L 104.835203 161.33212 
L 106.454159 179.816581 
L 108.073114 218.410466 
L 109.69207 136.586078 
L 111.311025 137.593927 
L 112.929981 123.960062 
L 114.548936 153.86625 
L 116.167892 139.667495 
L 117.786847 133.814651 
L 119.405803 104.705541 
L 121.024758 132.767925 
L 122.643714 82.472722 
L 124.262669 147.363039 
L 125.881625 119.935128 
L 127.50058 158.700747 
L 129.119536 110.05205 
L 130.738491 53.736682 
L 132.357447 147.183214 
L 133.976402 55.827216 
L 135.595358 44.443636 
L 137.214313 109.060704 
L 138.833269 49.418228 
L 140.452224 206.804702 
L 142.07118 51.146589 
L 143.690135 50.922694 
L 145.309091 65.297498 
L 146.928046 63.480552 
L 148.547002 57.917931 
L 150.165957 81.163612 
L 151.784913 97.623055 
L 153.403868 69.300372 
L 155.022824 177.689508 
L 156.641779 92.358958 
L 158.260735 75.817928 
L 159.879691 79.179898 
L 161.498646 124.982527 
L 163.117602 148.599688 
L 164.736557 134.887377 
L 166.355513 77.027884 
L 167.974468 88.832058 
L 169.593424 182.200465 
L 171.212379 99.636305 
L 172.831335 80.015713 
L 174.45029 83.434976 
L 176.069246 129.788852 
L 177.688201 88.606754 
L 179.307157 92.770946 
L 180.926112 88.955827 
L 182.545068 91.386712 
L 184.164023 106.449145 
L 185.782979 95.953372 
L 189.02089 166.413441 
L 190.639845 111.122369 
L 192.258801 163.496944 
L 193.877756 108.633086 
L 195.496712 108.284334 
L 197.115667 111.281008 
L 198.734623 126.367561 
L 200.353578 113.392504 
L 201.972534 126.718266 
L 203.591489 120.542646 
L 205.210445 131.5436 
L 206.8294 145.557403 
L 208.448356 124.808423 
L 210.067311 149.829173 
L 211.686267 129.96528 
L 213.305222 131.207527 
L 216.543133 135.930583 
L 218.162089 139.721351 
L 219.781044 151.233645 
L 221.4 142.123705 
L 223.018956 146.586462 
L 224.637911 143.629877 
L 226.256867 150.260386 
L 227.875822 155.461164 
L 229.494778 153.113407 
L 231.113733 153.589102 
L 232.732689 155.976552 
L 234.351644 157.743282 
L 235.9706 163.21933 
L 237.589555 160.13053 
L 239.208511 166.609098 
L 240.827466 166.471562 
L 242.446422 167.69761 
L 244.065377 170.694263 
L 245.684333 173.366792 
L 247.303288 173.341777 
L 248.922244 177.469557 
L 250.541199 175.342344 
L 252.160155 177.871109 
L 253.77911 179.705684 
L 255.398066 179.395409 
L 257.017021 174.596306 
L 258.635977 184.490159 
L 260.254932 183.219415 
L 261.873888 182.761761 
L 263.492843 186.922182 
L 265.111799 165.574597 
L 266.730754 177.679475 
L 268.34971 130.245199 
L 269.968665 177.303788 
L 271.587621 183.784127 
L 273.206576 155.910525 
L 274.825532 186.636168 
L 276.444487 186.627252 
L 278.063443 179.660126 
L 279.682398 184.357599 
L 281.301354 186.284238 
L 282.920309 185.56744 
L 284.539265 185.69524 
L 286.158221 188.752675 
L 287.777176 188.13847 
L 289.396132 188.337086 
L 291.015087 177.391421 
L 292.634043 184.535664 
L 294.252998 183.718583 
L 295.871954 183.211715 
L 297.490909 187.523904 
L 299.109865 186.697908 
L 300.72882 184.922579 
L 302.347776 181.832242 
L 303.966731 186.256206 
L 305.585687 187.004057 
L 307.204642 186.797441 
L 308.823598 188.670993 
L 310.442553 182.797707 
L 312.061509 187.595726 
L 313.680464 186.346576 
L 316.918375 177.72958 
L 318.537331 182.611378 
L 320.156286 178.363847 
L 321.775242 178.187637 
L 323.394197 187.678384 
L 325.013153 177.503179 
L 326.632108 173.090645 
L 328.251064 168.329108 
L 329.870019 174.949699 
L 331.488975 182.806272 
L 333.10793 189.018179 
L 334.726886 187.730451 
L 336.345841 180.581666 
L 337.964797 174.692171 
L 339.583752 177.984137 
L 341.202708 174.730557 
L 342.821663 187.753467 
L 344.440619 181.128205 
L 346.059574 173.545838 
L 347.67853 177.898053 
L 349.297485 171.813738 
L 350.916441 175.94818 
L 352.535397 174.01115 
L 354.154352 177.62649 
L 355.773308 187.047699 
L 357.392263 178.376975 
L 359.011219 177.997603 
L 360.630174 180.837154 
L 362.24913 182.253232 
L 363.868085 182.782865 
L 365.487041 180.837294 
L 367.105996 176.227319 
L 368.724952 184.35691 
L 370.343907 177.950004 
L 371.962863 179.910063 
L 373.581818 185.474382 
L 373.581818 185.474382 
" style="fill:none;stroke:#ff7f0e;stroke-linecap:square;stroke-width:1.5;"/>
   </g>
   <g id="patch_3">
    <path d="M 54 252 
L 54 34.56 
" style="fill:none;stroke:#000000;stroke-linecap:square;stroke-linejoin:miter;stroke-width:0.8;"/>
   </g>
   <g id="patch_4">
    <path d="M 388.8 252 
L 388.8 34.56 
" style="fill:none;stroke:#000000;stroke-linecap:square;stroke-linejoin:miter;stroke-width:0.8;"/>
   </g>
   <g id="patch_5">
    <path d="M 54 252 
L 388.8 252 
" style="fill:none;stroke:#000000;stroke-linecap:square;stroke-linejoin:miter;stroke-width:0.8;"/>
   </g>
   <g id="patch_6">
    <path d="M 54 34.56 
L 388.8 34.56 
" style="fill:none;stroke:#000000;stroke-linecap:square;stroke-linejoin:miter;stroke-width:0.8;"/>
   </g>
   <g id="legend_1">
    <g id="patch_7">
     <path d="M 324.135938 71.91625 
L 381.8 71.91625 
Q 383.8 71.91625 383.8 69.91625 
L 383.8 41.56 
Q 383.8 39.56 381.8 39.56 
L 324.135938 39.56 
Q 322.135938 39.56 322.135938 41.56 
L 322.135938 69.91625 
Q 322.135938 71.91625 324.135938 71.91625 
z
" style="fill:#ffffff;opacity:0.8;stroke:#cccccc;stroke-linejoin:miter;"/>
    </g>
    <g id="line2d_17">
     <path d="M 326.135938 47.658437 
L 346.135938 47.658437 
" style="fill:none;stroke:#1f77b4;stroke-linecap:square;stroke-width:1.5;"/>
    </g>
    <g id="line2d_18"/>
    <g id="text_15">
     <!-- ploss -->
     <defs>
      <path d="M 18.109375 8.203125 
L 18.109375 -20.796875 
L 9.078125 -20.796875 
L 9.078125 54.6875 
L 18.109375 54.6875 
L 18.109375 46.390625 
Q 20.953125 51.265625 25.265625 53.625 
Q 29.59375 56 35.59375 56 
Q 45.5625 56 51.78125 48.09375 
Q 58.015625 40.1875 58.015625 27.296875 
Q 58.015625 14.40625 51.78125 6.484375 
Q 45.5625 -1.421875 35.59375 -1.421875 
Q 29.59375 -1.421875 25.265625 0.953125 
Q 20.953125 3.328125 18.109375 8.203125 
z
M 48.6875 27.296875 
Q 48.6875 37.203125 44.609375 42.84375 
Q 40.53125 48.484375 33.40625 48.484375 
Q 26.265625 48.484375 22.1875 42.84375 
Q 18.109375 37.203125 18.109375 27.296875 
Q 18.109375 17.390625 22.1875 11.75 
Q 26.265625 6.109375 33.40625 6.109375 
Q 40.53125 6.109375 44.609375 11.75 
Q 48.6875 17.390625 48.6875 27.296875 
z
" id="DejaVuSans-70"/>
      <path d="M 9.421875 75.984375 
L 18.40625 75.984375 
L 18.40625 0 
L 9.421875 0 
z
" id="DejaVuSans-6c"/>
      <path d="M 30.609375 48.390625 
Q 23.390625 48.390625 19.1875 42.75 
Q 14.984375 37.109375 14.984375 27.296875 
Q 14.984375 17.484375 19.15625 11.84375 
Q 23.34375 6.203125 30.609375 6.203125 
Q 37.796875 6.203125 41.984375 11.859375 
Q 46.1875 17.53125 46.1875 27.296875 
Q 46.1875 37.015625 41.984375 42.703125 
Q 37.796875 48.390625 30.609375 48.390625 
z
M 30.609375 56 
Q 42.328125 56 49.015625 48.375 
Q 55.71875 40.765625 55.71875 27.296875 
Q 55.71875 13.875 49.015625 6.21875 
Q 42.328125 -1.421875 30.609375 -1.421875 
Q 18.84375 -1.421875 12.171875 6.21875 
Q 5.515625 13.875 5.515625 27.296875 
Q 5.515625 40.765625 12.171875 48.375 
Q 18.84375 56 30.609375 56 
z
" id="DejaVuSans-6f"/>
      <path d="M 44.28125 53.078125 
L 44.28125 44.578125 
Q 40.484375 46.53125 36.375 47.5 
Q 32.28125 48.484375 27.875 48.484375 
Q 21.1875 48.484375 17.84375 46.4375 
Q 14.5 44.390625 14.5 40.28125 
Q 14.5 37.15625 16.890625 35.375 
Q 19.28125 33.59375 26.515625 31.984375 
L 29.59375 31.296875 
Q 39.15625 29.25 43.1875 25.515625 
Q 47.21875 21.78125 47.21875 15.09375 
Q 47.21875 7.46875 41.1875 3.015625 
Q 35.15625 -1.421875 24.609375 -1.421875 
Q 20.21875 -1.421875 15.453125 -0.5625 
Q 10.6875 0.296875 5.421875 2 
L 5.421875 11.28125 
Q 10.40625 8.6875 15.234375 7.390625 
Q 20.0625 6.109375 24.8125 6.109375 
Q 31.15625 6.109375 34.5625 8.28125 
Q 37.984375 10.453125 37.984375 14.40625 
Q 37.984375 18.0625 35.515625 20.015625 
Q 33.0625 21.96875 24.703125 23.78125 
L 21.578125 24.515625 
Q 13.234375 26.265625 9.515625 29.90625 
Q 5.8125 33.546875 5.8125 39.890625 
Q 5.8125 47.609375 11.28125 51.796875 
Q 16.75 56 26.8125 56 
Q 31.78125 56 36.171875 55.265625 
Q 40.578125 54.546875 44.28125 53.078125 
z
" id="DejaVuSans-73"/>
     </defs>
     <g transform="translate(354.135938 51.158437)scale(0.1 -0.1)">
      <use xlink:href="#DejaVuSans-70"/>
      <use x="63.476562" xlink:href="#DejaVuSans-6c"/>
      <use x="91.259766" xlink:href="#DejaVuSans-6f"/>
      <use x="152.441406" xlink:href="#DejaVuSans-73"/>
      <use x="204.541016" xlink:href="#DejaVuSans-73"/>
     </g>
    </g>
    <g id="line2d_19">
     <path d="M 326.135938 62.336562 
L 346.135938 62.336562 
" style="fill:none;stroke:#ff7f0e;stroke-linecap:square;stroke-width:1.5;"/>
    </g>
    <g id="line2d_20"/>
    <g id="text_16">
     <!-- vloss -->
     <defs>
      <path d="M 2.984375 54.6875 
L 12.5 54.6875 
L 29.59375 8.796875 
L 46.6875 54.6875 
L 56.203125 54.6875 
L 35.6875 0 
L 23.484375 0 
z
" id="DejaVuSans-76"/>
     </defs>
     <g transform="translate(354.135938 65.836562)scale(0.1 -0.1)">
      <use xlink:href="#DejaVuSans-76"/>
      <use x="59.179688" xlink:href="#DejaVuSans-6c"/>
      <use x="86.962891" xlink:href="#DejaVuSans-6f"/>
      <use x="148.144531" xlink:href="#DejaVuSans-73"/>
      <use x="200.244141" xlink:href="#DejaVuSans-73"/>
     </g>
    </g>
   </g>
  </g>
 </g>
 <defs>
  <clipPath id="p8af4bdf62f">
   <rect height="217.44" width="334.8" x="54" y="34.56"/>
  </clipPath>
 </defs>
</svg>
