<?xml version="1.0" encoding="utf-8" standalone="no"?>
<!DOCTYPE svg PUBLIC "-//W3C//DTD SVG 1.1//EN"
  "http://www.w3.org/Graphics/SVG/1.1/DTD/svg11.dtd">
<!-- Created with matplotlib (http://matplotlib.org/) -->
<svg height="288pt" version="1.1" viewBox="0 0 432 288" width="432pt" xmlns="http://www.w3.org/2000/svg" xmlns:xlink="http://www.w3.org/1999/xlink">
 <defs>
  <style type="text/css">
*{stroke-linecap:butt;stroke-linejoin:round;stroke-miterlimit:100000;}
  </style>
 </defs>
 <g id="figure_1">
  <g id="patch_1">
   <path d="M 0 288 
L 432 288 
L 432 0 
L 0 0 
z
" style="fill:#ffffff;"/>
  </g>
  <g id="axes_1">
   <g id="patch_2">
    <path d="M 86.4 273.6 
L 345.6 273.6 
L 345.6 14.4 
L 86.4 14.4 
z
" style="fill:#ffffff;"/>
   </g>
   <g id="PolyCollection_1">
    <path clip-path="url(#p6fec062440)" d="M 86.4 14.4 
L 86.4 51.428571 
L 123.428571 51.428571 
L 123.428571 14.4 
L 86.4 14.4 
z
"/>
    <path clip-path="url(#p6fec062440)" d="M 123.428571 14.4 
L 123.428571 51.428571 
L 160.457143 51.428571 
L 160.457143 14.4 
L 123.428571 14.4 
z
"/>
    <path clip-path="url(#p6fec062440)" d="M 160.457143 14.4 
L 160.457143 51.428571 
L 197.485714 51.428571 
L 197.485714 14.4 
L 160.457143 14.4 
z
"/>
    <path clip-path="url(#p6fec062440)" d="M 197.485714 14.4 
L 197.485714 51.428571 
L 234.514286 51.428571 
L 234.514286 14.4 
L 197.485714 14.4 
z
"/>
    <path clip-path="url(#p6fec062440)" d="M 234.514286 14.4 
L 234.514286 51.428571 
L 271.542857 51.428571 
L 271.542857 14.4 
L 234.514286 14.4 
z
"/>
    <path clip-path="url(#p6fec062440)" d="M 271.542857 14.4 
L 271.542857 51.428571 
L 308.571429 51.428571 
L 308.571429 14.4 
L 271.542857 14.4 
z
"/>
    <path clip-path="url(#p6fec062440)" d="M 308.571429 14.4 
L 308.571429 51.428571 
L 345.6 51.428571 
L 345.6 14.4 
L 308.571429 14.4 
z
"/>
    <path clip-path="url(#p6fec062440)" d="M 86.4 51.428571 
L 86.4 88.457143 
L 123.428571 88.457143 
L 123.428571 51.428571 
L 86.4 51.428571 
z
"/>
    <path clip-path="url(#p6fec062440)" d="M 123.428571 51.428571 
L 123.428571 88.457143 
L 160.457143 88.457143 
L 160.457143 51.428571 
L 123.428571 51.428571 
z
"/>
    <path clip-path="url(#p6fec062440)" d="M 160.457143 51.428571 
L 160.457143 88.457143 
L 197.485714 88.457143 
L 197.485714 51.428571 
L 160.457143 51.428571 
z
"/>
    <path clip-path="url(#p6fec062440)" d="M 197.485714 51.428571 
L 197.485714 88.457143 
L 234.514286 88.457143 
L 234.514286 51.428571 
L 197.485714 51.428571 
z
"/>
    <path clip-path="url(#p6fec062440)" d="M 234.514286 51.428571 
L 234.514286 88.457143 
L 271.542857 88.457143 
L 271.542857 51.428571 
L 234.514286 51.428571 
z
"/>
    <path clip-path="url(#p6fec062440)" d="M 271.542857 51.428571 
L 271.542857 88.457143 
L 308.571429 88.457143 
L 308.571429 51.428571 
L 271.542857 51.428571 
z
"/>
    <path clip-path="url(#p6fec062440)" d="M 308.571429 51.428571 
L 308.571429 88.457143 
L 345.6 88.457143 
L 345.6 51.428571 
L 308.571429 51.428571 
z
"/>
    <path clip-path="url(#p6fec062440)" d="M 86.4 88.457143 
L 86.4 125.485714 
L 123.428571 125.485714 
L 123.428571 88.457143 
L 86.4 88.457143 
z
"/>
    <path clip-path="url(#p6fec062440)" d="M 123.428571 88.457143 
L 123.428571 125.485714 
L 160.457143 125.485714 
L 160.457143 88.457143 
L 123.428571 88.457143 
z
"/>
    <path clip-path="url(#p6fec062440)" d="M 160.457143 88.457143 
L 160.457143 125.485714 
L 197.485714 125.485714 
L 197.485714 88.457143 
L 160.457143 88.457143 
z
"/>
    <path clip-path="url(#p6fec062440)" d="M 197.485714 88.457143 
L 197.485714 125.485714 
L 234.514286 125.485714 
L 234.514286 88.457143 
L 197.485714 88.457143 
z
"/>
    <path clip-path="url(#p6fec062440)" d="M 234.514286 88.457143 
L 234.514286 125.485714 
L 271.542857 125.485714 
L 271.542857 88.457143 
L 234.514286 88.457143 
z
"/>
    <path clip-path="url(#p6fec062440)" d="M 271.542857 88.457143 
L 271.542857 125.485714 
L 308.571429 125.485714 
L 308.571429 88.457143 
L 271.542857 88.457143 
z
"/>
    <path clip-path="url(#p6fec062440)" d="M 308.571429 88.457143 
L 308.571429 125.485714 
L 345.6 125.485714 
L 345.6 88.457143 
L 308.571429 88.457143 
z
"/>
    <path clip-path="url(#p6fec062440)" d="M 86.4 125.485714 
L 86.4 162.514286 
L 123.428571 162.514286 
L 123.428571 125.485714 
L 86.4 125.485714 
z
"/>
    <path clip-path="url(#p6fec062440)" d="M 123.428571 125.485714 
L 123.428571 162.514286 
L 160.457143 162.514286 
L 160.457143 125.485714 
L 123.428571 125.485714 
z
" style="fill:#ffffff;"/>
    <path clip-path="url(#p6fec062440)" d="M 160.457143 125.485714 
L 160.457143 162.514286 
L 197.485714 162.514286 
L 197.485714 125.485714 
L 160.457143 125.485714 
z
" style="fill:#ffffff;"/>
    <path clip-path="url(#p6fec062440)" d="M 197.485714 125.485714 
L 197.485714 162.514286 
L 234.514286 162.514286 
L 234.514286 125.485714 
L 197.485714 125.485714 
z
" style="fill:#ffffff;"/>
    <path clip-path="url(#p6fec062440)" d="M 234.514286 125.485714 
L 234.514286 162.514286 
L 271.542857 162.514286 
L 271.542857 125.485714 
L 234.514286 125.485714 
z
" style="fill:#ffffff;"/>
    <path clip-path="url(#p6fec062440)" d="M 271.542857 125.485714 
L 271.542857 162.514286 
L 308.571429 162.514286 
L 308.571429 125.485714 
L 271.542857 125.485714 
z
" style="fill:#ffffff;"/>
    <path clip-path="url(#p6fec062440)" d="M 308.571429 125.485714 
L 308.571429 162.514286 
L 345.6 162.514286 
L 345.6 125.485714 
L 308.571429 125.485714 
z
"/>
    <path clip-path="url(#p6fec062440)" d="M 86.4 162.514286 
L 86.4 199.542857 
L 123.428571 199.542857 
L 123.428571 162.514286 
L 86.4 162.514286 
z
"/>
    <path clip-path="url(#p6fec062440)" d="M 123.428571 162.514286 
L 123.428571 199.542857 
L 160.457143 199.542857 
L 160.457143 162.514286 
L 123.428571 162.514286 
z
"/>
    <path clip-path="url(#p6fec062440)" d="M 160.457143 162.514286 
L 160.457143 199.542857 
L 197.485714 199.542857 
L 197.485714 162.514286 
L 160.457143 162.514286 
z
"/>
    <path clip-path="url(#p6fec062440)" d="M 197.485714 162.514286 
L 197.485714 199.542857 
L 234.514286 199.542857 
L 234.514286 162.514286 
L 197.485714 162.514286 
z
"/>
    <path clip-path="url(#p6fec062440)" d="M 234.514286 162.514286 
L 234.514286 199.542857 
L 271.542857 199.542857 
L 271.542857 162.514286 
L 234.514286 162.514286 
z
"/>
    <path clip-path="url(#p6fec062440)" d="M 271.542857 162.514286 
L 271.542857 199.542857 
L 308.571429 199.542857 
L 308.571429 162.514286 
L 271.542857 162.514286 
z
"/>
    <path clip-path="url(#p6fec062440)" d="M 308.571429 162.514286 
L 308.571429 199.542857 
L 345.6 199.542857 
L 345.6 162.514286 
L 308.571429 162.514286 
z
"/>
    <path clip-path="url(#p6fec062440)" d="M 86.4 199.542857 
L 86.4 236.571429 
L 123.428571 236.571429 
L 123.428571 199.542857 
L 86.4 199.542857 
z
"/>
    <path clip-path="url(#p6fec062440)" d="M 123.428571 199.542857 
L 123.428571 236.571429 
L 160.457143 236.571429 
L 160.457143 199.542857 
L 123.428571 199.542857 
z
"/>
    <path clip-path="url(#p6fec062440)" d="M 160.457143 199.542857 
L 160.457143 236.571429 
L 197.485714 236.571429 
L 197.485714 199.542857 
L 160.457143 199.542857 
z
"/>
    <path clip-path="url(#p6fec062440)" d="M 197.485714 199.542857 
L 197.485714 236.571429 
L 234.514286 236.571429 
L 234.514286 199.542857 
L 197.485714 199.542857 
z
"/>
    <path clip-path="url(#p6fec062440)" d="M 234.514286 199.542857 
L 234.514286 236.571429 
L 271.542857 236.571429 
L 271.542857 199.542857 
L 234.514286 199.542857 
z
"/>
    <path clip-path="url(#p6fec062440)" d="M 271.542857 199.542857 
L 271.542857 236.571429 
L 308.571429 236.571429 
L 308.571429 199.542857 
L 271.542857 199.542857 
z
"/>
    <path clip-path="url(#p6fec062440)" d="M 308.571429 199.542857 
L 308.571429 236.571429 
L 345.6 236.571429 
L 345.6 199.542857 
L 308.571429 199.542857 
z
"/>
    <path clip-path="url(#p6fec062440)" d="M 86.4 236.571429 
L 86.4 273.6 
L 123.428571 273.6 
L 123.428571 236.571429 
L 86.4 236.571429 
z
"/>
    <path clip-path="url(#p6fec062440)" d="M 123.428571 236.571429 
L 123.428571 273.6 
L 160.457143 273.6 
L 160.457143 236.571429 
L 123.428571 236.571429 
z
"/>
    <path clip-path="url(#p6fec062440)" d="M 160.457143 236.571429 
L 160.457143 273.6 
L 197.485714 273.6 
L 197.485714 236.571429 
L 160.457143 236.571429 
z
"/>
    <path clip-path="url(#p6fec062440)" d="M 197.485714 236.571429 
L 197.485714 273.6 
L 234.514286 273.6 
L 234.514286 236.571429 
L 197.485714 236.571429 
z
"/>
    <path clip-path="url(#p6fec062440)" d="M 234.514286 236.571429 
L 234.514286 273.6 
L 271.542857 273.6 
L 271.542857 236.571429 
L 234.514286 236.571429 
z
"/>
    <path clip-path="url(#p6fec062440)" d="M 271.542857 236.571429 
L 271.542857 273.6 
L 308.571429 273.6 
L 308.571429 236.571429 
L 271.542857 236.571429 
z
"/>
    <path clip-path="url(#p6fec062440)" d="M 308.571429 236.571429 
L 308.571429 273.6 
L 345.6 273.6 
L 345.6 236.571429 
L 308.571429 236.571429 
z
"/>
   </g>
   <g id="patch_3">
    <path clip-path="url(#p6fec062440)" d="M 253.028571 205.097143 
C 256.465604 205.097143 259.762327 206.46269 262.192675 208.893039 
C 264.623024 211.323388 265.988571 214.620111 265.988571 218.057143 
C 265.988571 221.494175 264.623024 224.790898 262.192675 227.221247 
C 259.762327 229.651596 256.465604 231.017143 253.028571 231.017143 
C 249.591539 231.017143 246.294816 229.651596 243.864468 227.221247 
C 241.434119 224.790898 240.068571 221.494175 240.068571 218.057143 
C 240.068571 214.620111 241.434119 211.323388 243.864468 208.893039 
C 246.294816 206.46269 249.591539 205.097143 253.028571 205.097143 
z
" style="fill:#ff0000;stroke:#000000;stroke-linejoin:miter;"/>
   </g>
   <g id="patch_4">
    <path clip-path="url(#p6fec062440)" d="M 104.914286 242.125714 
C 108.351318 242.125714 111.648041 243.491262 114.07839 245.92161 
C 116.508738 248.351959 117.874286 251.648682 117.874286 255.085714 
C 117.874286 258.522746 116.508738 261.819469 114.07839 264.249818 
C 111.648041 266.680167 108.351318 268.045714 104.914286 268.045714 
C 101.477254 268.045714 98.180531 266.680167 95.750182 264.249818 
C 93.319833 261.819469 91.954286 258.522746 91.954286 255.085714 
C 91.954286 251.648682 93.319833 248.351959 95.750182 245.92161 
C 98.180531 243.491262 101.477254 242.125714 104.914286 242.125714 
z
" style="fill:#0000ff;stroke:#000000;stroke-linejoin:miter;"/>
   </g>
   <g id="patch_5">
    <path d="M 86.4 14.4 
L 345.6 14.4 
" style="fill:none;stroke:#000000;stroke-linecap:square;stroke-linejoin:miter;"/>
   </g>
   <g id="patch_6">
    <path d="M 345.6 273.6 
L 345.6 14.4 
" style="fill:none;stroke:#000000;stroke-linecap:square;stroke-linejoin:miter;"/>
   </g>
   <g id="patch_7">
    <path d="M 86.4 273.6 
L 345.6 273.6 
" style="fill:none;stroke:#000000;stroke-linecap:square;stroke-linejoin:miter;"/>
   </g>
   <g id="patch_8">
    <path d="M 86.4 273.6 
L 86.4 14.4 
" style="fill:none;stroke:#000000;stroke-linecap:square;stroke-linejoin:miter;"/>
   </g>
   <g id="matplotlib.axis_1">
    <g id="xtick_1">
     <g id="line2d_1">
      <defs>
       <path d="M 0 0 
L 0 -4 
" id="m9b84ef354d" style="stroke:#000000;stroke-width:0.5;"/>
      </defs>
      <g>
       <use style="stroke:#000000;stroke-width:0.5;" x="86.4" xlink:href="#m9b84ef354d" y="273.6"/>
      </g>
     </g>
     <g id="line2d_2">
      <defs>
       <path d="M 0 0 
L 0 4 
" id="mdd71a7b36c" style="stroke:#000000;stroke-width:0.5;"/>
      </defs>
      <g>
       <use style="stroke:#000000;stroke-width:0.5;" x="86.4" xlink:href="#mdd71a7b36c" y="14.399999999999977"/>
      </g>
     </g>
     <g id="text_1">
      <!-- 0 -->
      <defs>
       <path d="M 31.78125 66.40625 
Q 24.171875 66.40625 20.328125 58.90625 
Q 16.5 51.421875 16.5 36.375 
Q 16.5 21.390625 20.328125 13.890625 
Q 24.171875 6.390625 31.78125 6.390625 
Q 39.453125 6.390625 43.28125 13.890625 
Q 47.125 21.390625 47.125 36.375 
Q 47.125 51.421875 43.28125 58.90625 
Q 39.453125 66.40625 31.78125 66.40625 
M 31.78125 74.21875 
Q 44.046875 74.21875 50.515625 64.515625 
Q 56.984375 54.828125 56.984375 36.375 
Q 56.984375 17.96875 50.515625 8.265625 
Q 44.046875 -1.421875 31.78125 -1.421875 
Q 19.53125 -1.421875 13.0625 8.265625 
Q 6.59375 17.96875 6.59375 36.375 
Q 6.59375 54.828125 13.0625 64.515625 
Q 19.53125 74.21875 31.78125 74.21875 
" id="DejaVuSans-30"/>
      </defs>
      <g transform="translate(83.21875 285.1984375)scale(0.1 -0.1)">
       <use xlink:href="#DejaVuSans-30"/>
      </g>
     </g>
    </g>
    <g id="xtick_2">
     <g id="line2d_3">
      <g>
       <use style="stroke:#000000;stroke-width:0.5;" x="123.42857142857144" xlink:href="#m9b84ef354d" y="273.6"/>
      </g>
     </g>
     <g id="line2d_4">
      <g>
       <use style="stroke:#000000;stroke-width:0.5;" x="123.42857142857144" xlink:href="#mdd71a7b36c" y="14.399999999999977"/>
      </g>
     </g>
     <g id="text_2">
      <!-- 1 -->
      <defs>
       <path d="M 12.40625 8.296875 
L 28.515625 8.296875 
L 28.515625 63.921875 
L 10.984375 60.40625 
L 10.984375 69.390625 
L 28.421875 72.90625 
L 38.28125 72.90625 
L 38.28125 8.296875 
L 54.390625 8.296875 
L 54.390625 0 
L 12.40625 0 
z
" id="DejaVuSans-31"/>
      </defs>
      <g transform="translate(120.24732142857144 285.1984375)scale(0.1 -0.1)">
       <use xlink:href="#DejaVuSans-31"/>
      </g>
     </g>
    </g>
    <g id="xtick_3">
     <g id="line2d_5">
      <g>
       <use style="stroke:#000000;stroke-width:0.5;" x="160.45714285714286" xlink:href="#m9b84ef354d" y="273.6"/>
      </g>
     </g>
     <g id="line2d_6">
      <g>
       <use style="stroke:#000000;stroke-width:0.5;" x="160.45714285714286" xlink:href="#mdd71a7b36c" y="14.399999999999977"/>
      </g>
     </g>
     <g id="text_3">
      <!-- 2 -->
      <defs>
       <path d="M 19.1875 8.296875 
L 53.609375 8.296875 
L 53.609375 0 
L 7.328125 0 
L 7.328125 8.296875 
Q 12.9375 14.109375 22.625 23.890625 
Q 32.328125 33.6875 34.8125 36.53125 
Q 39.546875 41.84375 41.421875 45.53125 
Q 43.3125 49.21875 43.3125 52.78125 
Q 43.3125 58.59375 39.234375 62.25 
Q 35.15625 65.921875 28.609375 65.921875 
Q 23.96875 65.921875 18.8125 64.3125 
Q 13.671875 62.703125 7.8125 59.421875 
L 7.8125 69.390625 
Q 13.765625 71.78125 18.9375 73 
Q 24.125 74.21875 28.421875 74.21875 
Q 39.75 74.21875 46.484375 68.546875 
Q 53.21875 62.890625 53.21875 53.421875 
Q 53.21875 48.921875 51.53125 44.890625 
Q 49.859375 40.875 45.40625 35.40625 
Q 44.1875 33.984375 37.640625 27.21875 
Q 31.109375 20.453125 19.1875 8.296875 
" id="DejaVuSans-32"/>
      </defs>
      <g transform="translate(157.27589285714285 285.1984375)scale(0.1 -0.1)">
       <use xlink:href="#DejaVuSans-32"/>
      </g>
     </g>
    </g>
    <g id="xtick_4">
     <g id="line2d_7">
      <g>
       <use style="stroke:#000000;stroke-width:0.5;" x="197.4857142857143" xlink:href="#m9b84ef354d" y="273.6"/>
      </g>
     </g>
     <g id="line2d_8">
      <g>
       <use style="stroke:#000000;stroke-width:0.5;" x="197.4857142857143" xlink:href="#mdd71a7b36c" y="14.399999999999977"/>
      </g>
     </g>
     <g id="text_4">
      <!-- 3 -->
      <defs>
       <path d="M 40.578125 39.3125 
Q 47.65625 37.796875 51.625 33 
Q 55.609375 28.21875 55.609375 21.1875 
Q 55.609375 10.40625 48.1875 4.484375 
Q 40.765625 -1.421875 27.09375 -1.421875 
Q 22.515625 -1.421875 17.65625 -0.515625 
Q 12.796875 0.390625 7.625 2.203125 
L 7.625 11.71875 
Q 11.71875 9.328125 16.59375 8.109375 
Q 21.484375 6.890625 26.8125 6.890625 
Q 36.078125 6.890625 40.9375 10.546875 
Q 45.796875 14.203125 45.796875 21.1875 
Q 45.796875 27.640625 41.28125 31.265625 
Q 36.765625 34.90625 28.71875 34.90625 
L 20.21875 34.90625 
L 20.21875 43.015625 
L 29.109375 43.015625 
Q 36.375 43.015625 40.234375 45.921875 
Q 44.09375 48.828125 44.09375 54.296875 
Q 44.09375 59.90625 40.109375 62.90625 
Q 36.140625 65.921875 28.71875 65.921875 
Q 24.65625 65.921875 20.015625 65.03125 
Q 15.375 64.15625 9.8125 62.3125 
L 9.8125 71.09375 
Q 15.4375 72.65625 20.34375 73.4375 
Q 25.25 74.21875 29.59375 74.21875 
Q 40.828125 74.21875 47.359375 69.109375 
Q 53.90625 64.015625 53.90625 55.328125 
Q 53.90625 49.265625 50.4375 45.09375 
Q 46.96875 40.921875 40.578125 39.3125 
" id="DejaVuSans-33"/>
      </defs>
      <g transform="translate(194.3044642857143 285.1984375)scale(0.1 -0.1)">
       <use xlink:href="#DejaVuSans-33"/>
      </g>
     </g>
    </g>
    <g id="xtick_5">
     <g id="line2d_9">
      <g>
       <use style="stroke:#000000;stroke-width:0.5;" x="234.51428571428573" xlink:href="#m9b84ef354d" y="273.6"/>
      </g>
     </g>
     <g id="line2d_10">
      <g>
       <use style="stroke:#000000;stroke-width:0.5;" x="234.51428571428573" xlink:href="#mdd71a7b36c" y="14.399999999999977"/>
      </g>
     </g>
     <g id="text_5">
      <!-- 4 -->
      <defs>
       <path d="M 37.796875 64.3125 
L 12.890625 25.390625 
L 37.796875 25.390625 
z
M 35.203125 72.90625 
L 47.609375 72.90625 
L 47.609375 25.390625 
L 58.015625 25.390625 
L 58.015625 17.1875 
L 47.609375 17.1875 
L 47.609375 0 
L 37.796875 0 
L 37.796875 17.1875 
L 4.890625 17.1875 
L 4.890625 26.703125 
z
" id="DejaVuSans-34"/>
      </defs>
      <g transform="translate(231.33303571428573 285.1984375)scale(0.1 -0.1)">
       <use xlink:href="#DejaVuSans-34"/>
      </g>
     </g>
    </g>
    <g id="xtick_6">
     <g id="line2d_11">
      <g>
       <use style="stroke:#000000;stroke-width:0.5;" x="271.5428571428572" xlink:href="#m9b84ef354d" y="273.6"/>
      </g>
     </g>
     <g id="line2d_12">
      <g>
       <use style="stroke:#000000;stroke-width:0.5;" x="271.5428571428572" xlink:href="#mdd71a7b36c" y="14.399999999999977"/>
      </g>
     </g>
     <g id="text_6">
      <!-- 5 -->
      <defs>
       <path d="M 10.796875 72.90625 
L 49.515625 72.90625 
L 49.515625 64.59375 
L 19.828125 64.59375 
L 19.828125 46.734375 
Q 21.96875 47.46875 24.109375 47.828125 
Q 26.265625 48.1875 28.421875 48.1875 
Q 40.625 48.1875 47.75 41.5 
Q 54.890625 34.8125 54.890625 23.390625 
Q 54.890625 11.625 47.5625 5.09375 
Q 40.234375 -1.421875 26.90625 -1.421875 
Q 22.3125 -1.421875 17.546875 -0.640625 
Q 12.796875 0.140625 7.71875 1.703125 
L 7.71875 11.625 
Q 12.109375 9.234375 16.796875 8.0625 
Q 21.484375 6.890625 26.703125 6.890625 
Q 35.15625 6.890625 40.078125 11.328125 
Q 45.015625 15.765625 45.015625 23.390625 
Q 45.015625 31 40.078125 35.4375 
Q 35.15625 39.890625 26.703125 39.890625 
Q 22.75 39.890625 18.8125 39.015625 
Q 14.890625 38.140625 10.796875 36.28125 
z
" id="DejaVuSans-35"/>
      </defs>
      <g transform="translate(268.3616071428572 285.1984375)scale(0.1 -0.1)">
       <use xlink:href="#DejaVuSans-35"/>
      </g>
     </g>
    </g>
    <g id="xtick_7">
     <g id="line2d_13">
      <g>
       <use style="stroke:#000000;stroke-width:0.5;" x="308.57142857142856" xlink:href="#m9b84ef354d" y="273.6"/>
      </g>
     </g>
     <g id="line2d_14">
      <g>
       <use style="stroke:#000000;stroke-width:0.5;" x="308.57142857142856" xlink:href="#mdd71a7b36c" y="14.399999999999977"/>
      </g>
     </g>
     <g id="text_7">
      <!-- 6 -->
      <defs>
       <path d="M 33.015625 40.375 
Q 26.375 40.375 22.484375 35.828125 
Q 18.609375 31.296875 18.609375 23.390625 
Q 18.609375 15.53125 22.484375 10.953125 
Q 26.375 6.390625 33.015625 6.390625 
Q 39.65625 6.390625 43.53125 10.953125 
Q 47.40625 15.53125 47.40625 23.390625 
Q 47.40625 31.296875 43.53125 35.828125 
Q 39.65625 40.375 33.015625 40.375 
M 52.59375 71.296875 
L 52.59375 62.3125 
Q 48.875 64.0625 45.09375 64.984375 
Q 41.3125 65.921875 37.59375 65.921875 
Q 27.828125 65.921875 22.671875 59.328125 
Q 17.53125 52.734375 16.796875 39.40625 
Q 19.671875 43.65625 24.015625 45.921875 
Q 28.375 48.1875 33.59375 48.1875 
Q 44.578125 48.1875 50.953125 41.515625 
Q 57.328125 34.859375 57.328125 23.390625 
Q 57.328125 12.15625 50.6875 5.359375 
Q 44.046875 -1.421875 33.015625 -1.421875 
Q 20.359375 -1.421875 13.671875 8.265625 
Q 6.984375 17.96875 6.984375 36.375 
Q 6.984375 53.65625 15.1875 63.9375 
Q 23.390625 74.21875 37.203125 74.21875 
Q 40.921875 74.21875 44.703125 73.484375 
Q 48.484375 72.75 52.59375 71.296875 
" id="DejaVuSans-36"/>
      </defs>
      <g transform="translate(305.3901785714286 285.1984375)scale(0.1 -0.1)">
       <use xlink:href="#DejaVuSans-36"/>
      </g>
     </g>
    </g>
    <g id="xtick_8">
     <g id="line2d_15">
      <g>
       <use style="stroke:#000000;stroke-width:0.5;" x="345.6" xlink:href="#m9b84ef354d" y="273.6"/>
      </g>
     </g>
     <g id="line2d_16">
      <g>
       <use style="stroke:#000000;stroke-width:0.5;" x="345.6" xlink:href="#mdd71a7b36c" y="14.399999999999977"/>
      </g>
     </g>
     <g id="text_8">
      <!-- 7 -->
      <defs>
       <path d="M 8.203125 72.90625 
L 55.078125 72.90625 
L 55.078125 68.703125 
L 28.609375 0 
L 18.3125 0 
L 43.21875 64.59375 
L 8.203125 64.59375 
z
" id="DejaVuSans-37"/>
      </defs>
      <g transform="translate(342.41875000000005 285.1984375)scale(0.1 -0.1)">
       <use xlink:href="#DejaVuSans-37"/>
      </g>
     </g>
    </g>
   </g>
   <g id="matplotlib.axis_2">
    <g id="ytick_1">
     <g id="line2d_17">
      <defs>
       <path d="M 0 0 
L 4 0 
" id="m17239d62bb" style="stroke:#000000;stroke-width:0.5;"/>
      </defs>
      <g>
       <use style="stroke:#000000;stroke-width:0.5;" x="86.4" xlink:href="#m17239d62bb" y="14.399999999999977"/>
      </g>
     </g>
     <g id="line2d_18">
      <defs>
       <path d="M 0 0 
L -4 0 
" id="mbea5621694" style="stroke:#000000;stroke-width:0.5;"/>
      </defs>
      <g>
       <use style="stroke:#000000;stroke-width:0.5;" x="345.6" xlink:href="#mbea5621694" y="14.399999999999977"/>
      </g>
     </g>
     <g id="text_9">
      <!-- 0 -->
      <g transform="translate(76.03750000000001 17.159374999999955)scale(0.1 -0.1)">
       <use xlink:href="#DejaVuSans-30"/>
      </g>
     </g>
    </g>
    <g id="ytick_2">
     <g id="line2d_19">
      <g>
       <use style="stroke:#000000;stroke-width:0.5;" x="86.4" xlink:href="#m17239d62bb" y="51.42857142857141"/>
      </g>
     </g>
     <g id="line2d_20">
      <g>
       <use style="stroke:#000000;stroke-width:0.5;" x="345.6" xlink:href="#mbea5621694" y="51.42857142857141"/>
      </g>
     </g>
     <g id="text_10">
      <!-- 1 -->
      <g transform="translate(76.03750000000001 54.18794642857142)scale(0.1 -0.1)">
       <use xlink:href="#DejaVuSans-31"/>
      </g>
     </g>
    </g>
    <g id="ytick_3">
     <g id="line2d_21">
      <g>
       <use style="stroke:#000000;stroke-width:0.5;" x="86.4" xlink:href="#m17239d62bb" y="88.45714285714284"/>
      </g>
     </g>
     <g id="line2d_22">
      <g>
       <use style="stroke:#000000;stroke-width:0.5;" x="345.6" xlink:href="#mbea5621694" y="88.45714285714284"/>
      </g>
     </g>
     <g id="text_11">
      <!-- 2 -->
      <g transform="translate(76.03750000000001 91.21651785714286)scale(0.1 -0.1)">
       <use xlink:href="#DejaVuSans-32"/>
      </g>
     </g>
    </g>
    <g id="ytick_4">
     <g id="line2d_23">
      <g>
       <use style="stroke:#000000;stroke-width:0.5;" x="86.4" xlink:href="#m17239d62bb" y="125.48571428571427"/>
      </g>
     </g>
     <g id="line2d_24">
      <g>
       <use style="stroke:#000000;stroke-width:0.5;" x="345.6" xlink:href="#mbea5621694" y="125.48571428571427"/>
      </g>
     </g>
     <g id="text_12">
      <!-- 3 -->
      <g transform="translate(76.03750000000001 128.24508928571427)scale(0.1 -0.1)">
       <use xlink:href="#DejaVuSans-33"/>
      </g>
     </g>
    </g>
    <g id="ytick_5">
     <g id="line2d_25">
      <g>
       <use style="stroke:#000000;stroke-width:0.5;" x="86.4" xlink:href="#m17239d62bb" y="162.5142857142857"/>
      </g>
     </g>
     <g id="line2d_26">
      <g>
       <use style="stroke:#000000;stroke-width:0.5;" x="345.6" xlink:href="#mbea5621694" y="162.5142857142857"/>
      </g>
     </g>
     <g id="text_13">
      <!-- 4 -->
      <g transform="translate(76.03750000000001 165.2736607142857)scale(0.1 -0.1)">
       <use xlink:href="#DejaVuSans-34"/>
      </g>
     </g>
    </g>
    <g id="ytick_6">
     <g id="line2d_27">
      <g>
       <use style="stroke:#000000;stroke-width:0.5;" x="86.4" xlink:href="#m17239d62bb" y="199.54285714285714"/>
      </g>
     </g>
     <g id="line2d_28">
      <g>
       <use style="stroke:#000000;stroke-width:0.5;" x="345.6" xlink:href="#mbea5621694" y="199.54285714285714"/>
      </g>
     </g>
     <g id="text_14">
      <!-- 5 -->
      <g transform="translate(76.03750000000001 202.30223214285715)scale(0.1 -0.1)">
       <use xlink:href="#DejaVuSans-35"/>
      </g>
     </g>
    </g>
    <g id="ytick_7">
     <g id="line2d_29">
      <g>
       <use style="stroke:#000000;stroke-width:0.5;" x="86.4" xlink:href="#m17239d62bb" y="236.57142857142856"/>
      </g>
     </g>
     <g id="line2d_30">
      <g>
       <use style="stroke:#000000;stroke-width:0.5;" x="345.6" xlink:href="#mbea5621694" y="236.57142857142856"/>
      </g>
     </g>
     <g id="text_15">
      <!-- 6 -->
      <g transform="translate(76.03750000000001 239.33080357142856)scale(0.1 -0.1)">
       <use xlink:href="#DejaVuSans-36"/>
      </g>
     </g>
    </g>
    <g id="ytick_8">
     <g id="line2d_31">
      <g>
       <use style="stroke:#000000;stroke-width:0.5;" x="86.4" xlink:href="#m17239d62bb" y="273.6"/>
      </g>
     </g>
     <g id="line2d_32">
      <g>
       <use style="stroke:#000000;stroke-width:0.5;" x="345.6" xlink:href="#mbea5621694" y="273.6"/>
      </g>
     </g>
     <g id="text_16">
      <!-- 7 -->
      <g transform="translate(76.03750000000001 276.359375)scale(0.1 -0.1)">
       <use xlink:href="#DejaVuSans-37"/>
      </g>
     </g>
    </g>
   </g>
  </g>
 </g>
 <defs>
  <clipPath id="p6fec062440">
   <rect height="259.20000000000005" width="259.20000000000005" x="86.4" y="14.399999999999977"/>
  </clipPath>
 </defs>
</svg>
