<?xml version="1.0" encoding="utf-8" standalone="no"?>
<!DOCTYPE svg PUBLIC "-//W3C//DTD SVG 1.1//EN"
  "http://www.w3.org/Graphics/SVG/1.1/DTD/svg11.dtd">
<!-- Created with matplotlib (https://matplotlib.org/) -->
<svg height="288pt" version="1.1" viewBox="0 0 432 288" width="432pt" xmlns="http://www.w3.org/2000/svg" xmlns:xlink="http://www.w3.org/1999/xlink">
 <defs>
  <style type="text/css">
*{stroke-linecap:butt;stroke-linejoin:round;}
  </style>
 </defs>
 <g id="figure_1">
  <g id="patch_1">
   <path d="M 0 288 
L 432 288 
L 432 0 
L 0 0 
z
" style="fill:#ffffff;"/>
  </g>
  <g id="axes_1">
   <g id="patch_2">
    <path d="M 54 133.396364 
L 388.8 133.396364 
L 388.8 34.56 
L 54 34.56 
z
" style="fill:#ffffff;"/>
   </g>
   <g id="patch_3">
    <path clip-path="url(#p80d0f8e15c)" d="M 221.438055 46.310215 
L 219.535307 45.273407 
L 221.438017 45.273407 
L 221.438017 39.052562 
L 221.438093 39.052562 
L 221.438093 45.273407 
L 223.340803 45.273407 
z
" style="stroke:#000000;stroke-linejoin:miter;"/>
   </g>
   <g id="matplotlib.axis_1">
    <g id="xtick_1">
     <g id="line2d_1">
      <defs>
       <path d="M 0 0 
L 0 3.5 
" id="m0d73e44d15" style="stroke:#000000;stroke-width:0.8;"/>
      </defs>
      <g>
       <use style="stroke:#000000;stroke-width:0.8;" x="69.218182" xlink:href="#m0d73e44d15" y="133.396364"/>
      </g>
     </g>
    </g>
    <g id="xtick_2">
     <g id="line2d_2">
      <g>
       <use style="stroke:#000000;stroke-width:0.8;" x="107.27315" xlink:href="#m0d73e44d15" y="133.396364"/>
      </g>
     </g>
    </g>
    <g id="xtick_3">
     <g id="line2d_3">
      <g>
       <use style="stroke:#000000;stroke-width:0.8;" x="145.328118" xlink:href="#m0d73e44d15" y="133.396364"/>
      </g>
     </g>
    </g>
    <g id="xtick_4">
     <g id="line2d_4">
      <g>
       <use style="stroke:#000000;stroke-width:0.8;" x="183.383087" xlink:href="#m0d73e44d15" y="133.396364"/>
      </g>
     </g>
    </g>
    <g id="xtick_5">
     <g id="line2d_5">
      <g>
       <use style="stroke:#000000;stroke-width:0.8;" x="221.438055" xlink:href="#m0d73e44d15" y="133.396364"/>
      </g>
     </g>
    </g>
    <g id="xtick_6">
     <g id="line2d_6">
      <g>
       <use style="stroke:#000000;stroke-width:0.8;" x="259.493023" xlink:href="#m0d73e44d15" y="133.396364"/>
      </g>
     </g>
    </g>
    <g id="xtick_7">
     <g id="line2d_7">
      <g>
       <use style="stroke:#000000;stroke-width:0.8;" x="297.547992" xlink:href="#m0d73e44d15" y="133.396364"/>
      </g>
     </g>
    </g>
    <g id="xtick_8">
     <g id="line2d_8">
      <g>
       <use style="stroke:#000000;stroke-width:0.8;" x="335.60296" xlink:href="#m0d73e44d15" y="133.396364"/>
      </g>
     </g>
    </g>
    <g id="xtick_9">
     <g id="line2d_9">
      <g>
       <use style="stroke:#000000;stroke-width:0.8;" x="373.657928" xlink:href="#m0d73e44d15" y="133.396364"/>
      </g>
     </g>
    </g>
   </g>
   <g id="matplotlib.axis_2">
    <g id="ytick_1">
     <g id="line2d_10">
      <defs>
       <path d="M 0 0 
L -3.5 0 
" id="m3a72bec4e8" style="stroke:#000000;stroke-width:0.8;"/>
      </defs>
      <g>
       <use style="stroke:#000000;stroke-width:0.8;" x="54" xlink:href="#m3a72bec4e8" y="121.55801"/>
      </g>
     </g>
     <g id="text_1">
      <!-- −5000 -->
      <defs>
       <path d="M 10.59375 35.5 
L 73.1875 35.5 
L 73.1875 27.203125 
L 10.59375 27.203125 
z
" id="DejaVuSans-8722"/>
       <path d="M 10.796875 72.90625 
L 49.515625 72.90625 
L 49.515625 64.59375 
L 19.828125 64.59375 
L 19.828125 46.734375 
Q 21.96875 47.46875 24.109375 47.828125 
Q 26.265625 48.1875 28.421875 48.1875 
Q 40.625 48.1875 47.75 41.5 
Q 54.890625 34.8125 54.890625 23.390625 
Q 54.890625 11.625 47.5625 5.09375 
Q 40.234375 -1.421875 26.90625 -1.421875 
Q 22.3125 -1.421875 17.546875 -0.640625 
Q 12.796875 0.140625 7.71875 1.703125 
L 7.71875 11.625 
Q 12.109375 9.234375 16.796875 8.0625 
Q 21.484375 6.890625 26.703125 6.890625 
Q 35.15625 6.890625 40.078125 11.328125 
Q 45.015625 15.765625 45.015625 23.390625 
Q 45.015625 31 40.078125 35.4375 
Q 35.15625 39.890625 26.703125 39.890625 
Q 22.75 39.890625 18.8125 39.015625 
Q 14.890625 38.140625 10.796875 36.28125 
z
" id="DejaVuSans-53"/>
       <path d="M 31.78125 66.40625 
Q 24.171875 66.40625 20.328125 58.90625 
Q 16.5 51.421875 16.5 36.375 
Q 16.5 21.390625 20.328125 13.890625 
Q 24.171875 6.390625 31.78125 6.390625 
Q 39.453125 6.390625 43.28125 13.890625 
Q 47.125 21.390625 47.125 36.375 
Q 47.125 51.421875 43.28125 58.90625 
Q 39.453125 66.40625 31.78125 66.40625 
z
M 31.78125 74.21875 
Q 44.046875 74.21875 50.515625 64.515625 
Q 56.984375 54.828125 56.984375 36.375 
Q 56.984375 17.96875 50.515625 8.265625 
Q 44.046875 -1.421875 31.78125 -1.421875 
Q 19.53125 -1.421875 13.0625 8.265625 
Q 6.59375 17.96875 6.59375 36.375 
Q 6.59375 54.828125 13.0625 64.515625 
Q 19.53125 74.21875 31.78125 74.21875 
z
" id="DejaVuSans-48"/>
      </defs>
      <g transform="translate(13.170313 125.357229)scale(0.1 -0.1)">
       <use xlink:href="#DejaVuSans-8722"/>
       <use x="83.789062" xlink:href="#DejaVuSans-53"/>
       <use x="147.412109" xlink:href="#DejaVuSans-48"/>
       <use x="211.035156" xlink:href="#DejaVuSans-48"/>
       <use x="274.658203" xlink:href="#DejaVuSans-48"/>
      </g>
     </g>
    </g>
    <g id="ytick_2">
     <g id="line2d_11">
      <g>
       <use style="stroke:#000000;stroke-width:0.8;" x="54" xlink:href="#m3a72bec4e8" y="95.637822"/>
      </g>
     </g>
     <g id="text_2">
      <!-- −2500 -->
      <defs>
       <path d="M 19.1875 8.296875 
L 53.609375 8.296875 
L 53.609375 0 
L 7.328125 0 
L 7.328125 8.296875 
Q 12.9375 14.109375 22.625 23.890625 
Q 32.328125 33.6875 34.8125 36.53125 
Q 39.546875 41.84375 41.421875 45.53125 
Q 43.3125 49.21875 43.3125 52.78125 
Q 43.3125 58.59375 39.234375 62.25 
Q 35.15625 65.921875 28.609375 65.921875 
Q 23.96875 65.921875 18.8125 64.3125 
Q 13.671875 62.703125 7.8125 59.421875 
L 7.8125 69.390625 
Q 13.765625 71.78125 18.9375 73 
Q 24.125 74.21875 28.421875 74.21875 
Q 39.75 74.21875 46.484375 68.546875 
Q 53.21875 62.890625 53.21875 53.421875 
Q 53.21875 48.921875 51.53125 44.890625 
Q 49.859375 40.875 45.40625 35.40625 
Q 44.1875 33.984375 37.640625 27.21875 
Q 31.109375 20.453125 19.1875 8.296875 
z
" id="DejaVuSans-50"/>
      </defs>
      <g transform="translate(13.170313 99.43704)scale(0.1 -0.1)">
       <use xlink:href="#DejaVuSans-8722"/>
       <use x="83.789062" xlink:href="#DejaVuSans-50"/>
       <use x="147.412109" xlink:href="#DejaVuSans-53"/>
       <use x="211.035156" xlink:href="#DejaVuSans-48"/>
       <use x="274.658203" xlink:href="#DejaVuSans-48"/>
      </g>
     </g>
    </g>
    <g id="ytick_3">
     <g id="line2d_12">
      <g>
       <use style="stroke:#000000;stroke-width:0.8;" x="54" xlink:href="#m3a72bec4e8" y="69.717633"/>
      </g>
     </g>
     <g id="text_3">
      <!-- 0 -->
      <g transform="translate(40.6375 73.516852)scale(0.1 -0.1)">
       <use xlink:href="#DejaVuSans-48"/>
      </g>
     </g>
    </g>
    <g id="ytick_4">
     <g id="line2d_13">
      <g>
       <use style="stroke:#000000;stroke-width:0.8;" x="54" xlink:href="#m3a72bec4e8" y="43.797445"/>
      </g>
     </g>
     <g id="text_4">
      <!-- 2500 -->
      <g transform="translate(21.55 47.596664)scale(0.1 -0.1)">
       <use xlink:href="#DejaVuSans-50"/>
       <use x="63.623047" xlink:href="#DejaVuSans-53"/>
       <use x="127.246094" xlink:href="#DejaVuSans-48"/>
       <use x="190.869141" xlink:href="#DejaVuSans-48"/>
      </g>
     </g>
    </g>
    <g id="text_5">
     <!-- Policy Loss -->
     <defs>
      <path d="M 19.671875 64.796875 
L 19.671875 37.40625 
L 32.078125 37.40625 
Q 38.96875 37.40625 42.71875 40.96875 
Q 46.484375 44.53125 46.484375 51.125 
Q 46.484375 57.671875 42.71875 61.234375 
Q 38.96875 64.796875 32.078125 64.796875 
z
M 9.8125 72.90625 
L 32.078125 72.90625 
Q 44.34375 72.90625 50.609375 67.359375 
Q 56.890625 61.8125 56.890625 51.125 
Q 56.890625 40.328125 50.609375 34.8125 
Q 44.34375 29.296875 32.078125 29.296875 
L 19.671875 29.296875 
L 19.671875 0 
L 9.8125 0 
z
" id="DejaVuSans-80"/>
      <path d="M 30.609375 48.390625 
Q 23.390625 48.390625 19.1875 42.75 
Q 14.984375 37.109375 14.984375 27.296875 
Q 14.984375 17.484375 19.15625 11.84375 
Q 23.34375 6.203125 30.609375 6.203125 
Q 37.796875 6.203125 41.984375 11.859375 
Q 46.1875 17.53125 46.1875 27.296875 
Q 46.1875 37.015625 41.984375 42.703125 
Q 37.796875 48.390625 30.609375 48.390625 
z
M 30.609375 56 
Q 42.328125 56 49.015625 48.375 
Q 55.71875 40.765625 55.71875 27.296875 
Q 55.71875 13.875 49.015625 6.21875 
Q 42.328125 -1.421875 30.609375 -1.421875 
Q 18.84375 -1.421875 12.171875 6.21875 
Q 5.515625 13.875 5.515625 27.296875 
Q 5.515625 40.765625 12.171875 48.375 
Q 18.84375 56 30.609375 56 
z
" id="DejaVuSans-111"/>
      <path d="M 9.421875 75.984375 
L 18.40625 75.984375 
L 18.40625 0 
L 9.421875 0 
z
" id="DejaVuSans-108"/>
      <path d="M 9.421875 54.6875 
L 18.40625 54.6875 
L 18.40625 0 
L 9.421875 0 
z
M 9.421875 75.984375 
L 18.40625 75.984375 
L 18.40625 64.59375 
L 9.421875 64.59375 
z
" id="DejaVuSans-105"/>
      <path d="M 48.78125 52.59375 
L 48.78125 44.1875 
Q 44.96875 46.296875 41.140625 47.34375 
Q 37.3125 48.390625 33.40625 48.390625 
Q 24.65625 48.390625 19.8125 42.84375 
Q 14.984375 37.3125 14.984375 27.296875 
Q 14.984375 17.28125 19.8125 11.734375 
Q 24.65625 6.203125 33.40625 6.203125 
Q 37.3125 6.203125 41.140625 7.25 
Q 44.96875 8.296875 48.78125 10.40625 
L 48.78125 2.09375 
Q 45.015625 0.34375 40.984375 -0.53125 
Q 36.96875 -1.421875 32.421875 -1.421875 
Q 20.0625 -1.421875 12.78125 6.34375 
Q 5.515625 14.109375 5.515625 27.296875 
Q 5.515625 40.671875 12.859375 48.328125 
Q 20.21875 56 33.015625 56 
Q 37.15625 56 41.109375 55.140625 
Q 45.0625 54.296875 48.78125 52.59375 
z
" id="DejaVuSans-99"/>
      <path d="M 32.171875 -5.078125 
Q 28.375 -14.84375 24.75 -17.8125 
Q 21.140625 -20.796875 15.09375 -20.796875 
L 7.90625 -20.796875 
L 7.90625 -13.28125 
L 13.1875 -13.28125 
Q 16.890625 -13.28125 18.9375 -11.515625 
Q 21 -9.765625 23.484375 -3.21875 
L 25.09375 0.875 
L 2.984375 54.6875 
L 12.5 54.6875 
L 29.59375 11.921875 
L 46.6875 54.6875 
L 56.203125 54.6875 
z
" id="DejaVuSans-121"/>
      <path id="DejaVuSans-32"/>
      <path d="M 9.8125 72.90625 
L 19.671875 72.90625 
L 19.671875 8.296875 
L 55.171875 8.296875 
L 55.171875 0 
L 9.8125 0 
z
" id="DejaVuSans-76"/>
      <path d="M 44.28125 53.078125 
L 44.28125 44.578125 
Q 40.484375 46.53125 36.375 47.5 
Q 32.28125 48.484375 27.875 48.484375 
Q 21.1875 48.484375 17.84375 46.4375 
Q 14.5 44.390625 14.5 40.28125 
Q 14.5 37.15625 16.890625 35.375 
Q 19.28125 33.59375 26.515625 31.984375 
L 29.59375 31.296875 
Q 39.15625 29.25 43.1875 25.515625 
Q 47.21875 21.78125 47.21875 15.09375 
Q 47.21875 7.46875 41.1875 3.015625 
Q 35.15625 -1.421875 24.609375 -1.421875 
Q 20.21875 -1.421875 15.453125 -0.5625 
Q 10.6875 0.296875 5.421875 2 
L 5.421875 11.28125 
Q 10.40625 8.6875 15.234375 7.390625 
Q 20.0625 6.109375 24.8125 6.109375 
Q 31.15625 6.109375 34.5625 8.28125 
Q 37.984375 10.453125 37.984375 14.40625 
Q 37.984375 18.0625 35.515625 20.015625 
Q 33.0625 21.96875 24.703125 23.78125 
L 21.578125 24.515625 
Q 13.234375 26.265625 9.515625 29.90625 
Q 5.8125 33.546875 5.8125 39.890625 
Q 5.8125 47.609375 11.28125 51.796875 
Q 16.75 56 26.8125 56 
Q 31.78125 56 36.171875 55.265625 
Q 40.578125 54.546875 44.28125 53.078125 
z
" id="DejaVuSans-115"/>
     </defs>
     <g transform="translate(7.090625 111.179744)rotate(-90)scale(0.1 -0.1)">
      <use xlink:href="#DejaVuSans-80"/>
      <use x="60.255859" xlink:href="#DejaVuSans-111"/>
      <use x="121.4375" xlink:href="#DejaVuSans-108"/>
      <use x="149.220703" xlink:href="#DejaVuSans-105"/>
      <use x="177.003906" xlink:href="#DejaVuSans-99"/>
      <use x="231.984375" xlink:href="#DejaVuSans-121"/>
      <use x="291.164062" xlink:href="#DejaVuSans-32"/>
      <use x="322.951172" xlink:href="#DejaVuSans-76"/>
      <use x="378.648438" xlink:href="#DejaVuSans-111"/>
      <use x="439.830078" xlink:href="#DejaVuSans-115"/>
      <use x="491.929688" xlink:href="#DejaVuSans-115"/>
     </g>
    </g>
   </g>
   <g id="line2d_14">
    <path clip-path="url(#p80d0f8e15c)" d="M 69.218182 69.841723 
L 69.294292 68.872863 
L 69.522622 70.217195 
L 69.598732 70.201525 
L 69.979281 69.462344 
L 70.055391 68.34008 
L 70.207611 69.733221 
L 70.435941 69.955198 
L 71.04482 69.605009 
L 71.34926 69.665283 
L 71.80592 69.775825 
L 71.88203 69.368593 
L 72.034249 69.832918 
L 72.338689 69.788929 
L 72.643129 69.634326 
L 72.719239 69.60482 
L 72.795349 69.300197 
L 72.947569 69.753711 
L 73.252008 69.890619 
L 74.013108 69.657399 
L 74.850317 69.730612 
L 74.926427 68.873084 
L 75.078647 69.752826 
L 75.459197 69.784027 
L 75.763636 69.653339 
L 76.220296 69.72575 
L 76.372516 69.758841 
L 76.524736 69.085096 
L 76.600846 69.992803 
L 76.676956 69.45497 
L 76.829175 70.232097 
L 77.057505 70.034209 
L 77.133615 69.532741 
L 77.209725 69.805272 
L 77.285835 69.735461 
L 77.438055 68.9825 
L 77.590275 69.673692 
L 77.894715 69.7852 
L 78.199154 69.740045 
L 79.340803 69.710116 
L 79.416913 69.145211 
L 79.569133 69.804691 
L 79.949683 69.882486 
L 80.025793 68.488715 
L 80.101903 68.561703 
L 80.254123 69.997326 
L 80.406342 70.049893 
L 80.710782 69.967877 
L 81.243552 69.580878 
L 81.319662 68.966312 
L 81.395772 69.598558 
L 81.471882 67.212412 
L 81.624101 69.753669 
L 81.928541 70.014028 
L 82.232981 69.996576 
L 82.613531 69.703457 
L 82.689641 69.00433 
L 82.84186 69.702355 
L 83.07019 69.738208 
L 83.1463 68.401985 
L 83.29852 69.832794 
L 83.45074 69.904107 
L 83.52685 69.320518 
L 83.67907 69.991577 
L 83.9074 69.931156 
L 84.211839 69.710715 
L 84.287949 66.139629 
L 84.440169 69.806258 
L 84.668499 69.875137 
L 84.820719 69.930171 
L 85.201268 69.789288 
L 85.277378 67.569853 
L 85.353488 69.752917 
L 85.429598 66.015953 
L 85.581818 69.924234 
L 85.657928 68.696701 
L 85.810148 70.12157 
L 86.038478 70.154606 
L 86.342918 69.84548 
L 86.419027 67.983429 
L 86.495137 69.757201 
L 86.571247 69.742088 
L 86.647357 69.020331 
L 86.723467 69.909624 
L 86.799577 68.511915 
L 86.951797 69.795391 
L 87.027907 69.871384 
L 87.104017 69.258276 
L 87.180127 69.966038 
L 87.256237 69.840224 
L 87.332347 69.907653 
L 87.408457 69.80395 
L 87.484567 69.932951 
L 87.560677 69.850331 
L 87.712896 69.828323 
L 87.789006 67.782129 
L 87.865116 69.76806 
L 87.941226 69.276195 
L 88.017336 69.786382 
L 88.093446 66.588862 
L 88.245666 69.94381 
L 88.473996 70.132022 
L 88.626216 69.917071 
L 88.702326 70.205107 
L 88.778436 69.360998 
L 88.854545 69.795174 
L 88.930655 69.751285 
L 89.082875 69.688973 
L 89.158985 69.921084 
L 89.311205 69.576524 
L 89.387315 64.425442 
L 89.463425 69.65877 
L 89.539535 68.664863 
L 89.615645 69.913393 
L 89.691755 69.880654 
L 89.767865 69.781248 
L 89.920085 70.379864 
L 90.072304 67.426985 
L 90.148414 63.146307 
L 90.224524 70.117217 
L 90.300634 67.574608 
L 90.452854 70.493449 
L 90.528964 70.469485 
L 90.605074 70.37336 
L 90.681184 69.419035 
L 90.757294 70.454986 
L 90.833404 66.15329 
L 90.985624 70.760642 
L 91.137844 70.278361 
L 91.213953 70.491132 
L 91.366173 69.681204 
L 91.442283 54.477761 
L 91.518393 69.468209 
L 91.594503 63.110631 
L 91.670613 70.128442 
L 91.746723 41.587744 
L 91.898943 70.865773 
L 91.975053 67.633024 
L 92.051163 71.337551 
L 92.127273 71.211508 
L 92.203383 59.171576 
L 92.279493 62.583875 
L 92.431712 71.381866 
L 92.507822 71.295967 
L 92.583932 71.483131 
L 92.660042 70.965681 
L 92.736152 53.53778 
L 92.812262 70.614141 
L 92.888372 62.115777 
L 92.964482 70.532684 
L 93.040592 70.425738 
L 93.192812 70.440968 
L 93.345032 69.834511 
L 93.497252 44.898491 
L 93.649471 70.163353 
L 93.725581 70.078321 
L 93.801691 62.200722 
L 93.877801 70.386771 
L 93.953911 70.160649 
L 94.030021 70.364307 
L 94.182241 69.976764 
L 94.258351 70.012696 
L 94.334461 70.240902 
L 94.410571 69.879047 
L 94.486681 70.003848 
L 94.86723 69.360653 
L 94.94334 69.745777 
L 95.01945 69.727419 
L 95.09556 69.304824 
L 95.17167 69.660693 
L 95.24778 69.264692 
L 95.4 69.724966 
L 95.47611 69.480435 
L 95.55222 69.578164 
L 95.62833 69.56452 
L 95.78055 69.676072 
L 95.85666 61.796619 
L 96.008879 69.764144 
L 96.084989 69.797378 
L 96.237209 61.189412 
L 96.313319 61.403912 
L 96.389429 70.212347 
L 96.465539 62.136103 
L 96.541649 63.151572 
L 96.693869 70.919414 
L 96.769979 70.748973 
L 96.846089 71.086797 
L 96.922199 61.942294 
L 96.998309 71.258141 
L 97.074419 71.218347 
L 97.302748 71.463013 
L 97.378858 71.305783 
L 97.454968 57.107619 
L 97.531078 71.459728 
L 97.759408 39.052562 
L 97.835518 71.479532 
L 97.911628 47.902469 
L 97.987738 51.857829 
L 98.139958 71.951718 
L 98.292178 49.463215 
L 98.368288 71.730971 
L 98.444397 71.725448 
L 98.520507 52.226071 
L 98.596617 55.902193 
L 98.748837 72.127271 
L 98.824947 56.19103 
L 98.901057 73.219213 
L 98.977167 67.441019 
L 99.053277 43.453838 
L 99.205497 73.654166 
L 99.281607 41.077498 
L 99.357717 41.496031 
L 99.433827 73.228561 
L 99.586047 50.456239 
L 99.662156 74.642371 
L 99.738266 74.272478 
L 99.890486 73.261271 
L 100.042706 47.287115 
L 100.118816 73.792061 
L 100.271036 43.561882 
L 100.423256 75.072483 
L 100.499366 74.663997 
L 100.575476 48.871929 
L 100.651586 64.615191 
L 100.727696 50.811211 
L 100.956025 68.315095 
L 101.032135 61.269164 
L 101.108245 77.154264 
L 101.260465 57.909851 
L 101.336575 63.153767 
L 101.412685 75.02089 
L 101.488795 69.716092 
L 101.564905 72.951895 
L 101.641015 64.817314 
L 101.717125 74.061909 
L 101.793235 71.066747 
L 101.869345 74.473446 
L 101.945455 59.295789 
L 102.021564 77.303292 
L 102.097674 74.927075 
L 102.326004 58.093992 
L 102.402114 65.615418 
L 102.478224 52.916098 
L 102.554334 61.351274 
L 102.630444 57.25727 
L 102.706554 62.578565 
L 102.782664 58.077472 
L 103.010994 77.369899 
L 103.087104 64.215652 
L 103.163214 66.10758 
L 103.239323 68.238349 
L 103.315433 66.252695 
L 103.391543 66.33393 
L 103.467653 67.773444 
L 103.543763 60.661138 
L 103.848203 80.091012 
L 103.924313 71.506967 
L 104.000423 85.116989 
L 104.076533 66.324595 
L 104.152643 67.132801 
L 104.228753 61.151828 
L 104.304863 65.346505 
L 104.380973 63.533745 
L 104.457082 57.918977 
L 104.609302 67.173695 
L 104.685412 62.700566 
L 104.913742 100.642734 
L 104.989852 65.314491 
L 105.065962 103.756091 
L 105.218182 63.420457 
L 105.294292 62.346715 
L 105.370402 101.452264 
L 105.446512 59.357039 
L 105.522622 62.887031 
L 105.598732 67.098127 
L 105.674841 64.236472 
L 105.750951 66.572123 
L 105.827061 63.11463 
L 105.903171 64.710219 
L 106.055391 59.669158 
L 106.131501 69.434728 
L 106.207611 63.225414 
L 106.283721 63.380594 
L 106.359831 69.343079 
L 106.435941 62.748315 
L 106.588161 66.704597 
L 106.664271 85.886562 
L 106.81649 64.241178 
L 106.8926 63.312609 
L 107.04482 67.621043 
L 107.27315 63.024298 
L 107.42537 64.302314 
L 107.50148 64.275118 
L 107.57759 64.134278 
L 107.6537 65.523148 
L 107.72981 79.2971 
L 107.80592 62.89477 
L 107.88203 68.915462 
L 107.95814 77.859233 
L 108.186469 63.226967 
L 108.262579 66.685278 
L 108.338689 59.615396 
L 108.490909 67.911041 
L 108.567019 65.899768 
L 108.643129 67.020755 
L 108.719239 62.702086 
L 108.947569 71.530117 
L 109.023679 90.264055 
L 109.099789 67.502233 
L 109.175899 76.849552 
L 109.252008 67.966563 
L 109.328118 69.717988 
L 109.404228 91.896098 
L 109.480338 77.073132 
L 109.556448 96.84753 
L 109.632558 63.145654 
L 109.708668 64.582465 
L 109.784778 66.453082 
L 109.860888 120.270222 
L 110.013108 64.592763 
L 110.089218 68.691911 
L 110.165328 62.185781 
L 110.241438 69.719241 
L 110.317548 62.790608 
L 110.469767 70.382115 
L 110.621987 63.443478 
L 110.698097 68.683753 
L 110.774207 68.34929 
L 110.850317 67.572683 
L 110.926427 64.47104 
L 111.002537 65.149122 
L 111.078647 75.265259 
L 111.230867 64.365255 
L 111.306977 68.109765 
L 111.383087 64.49086 
L 111.459197 65.888325 
L 111.535307 64.946607 
L 111.839746 70.425111 
L 111.915856 70.290929 
L 112.068076 66.119565 
L 112.144186 67.366987 
L 112.220296 67.784999 
L 112.296406 63.983959 
L 112.372516 67.363812 
L 112.448626 64.544184 
L 112.524736 68.937872 
L 112.600846 68.762854 
L 112.676956 68.149116 
L 112.753066 65.796523 
L 112.829175 68.918902 
L 112.905285 68.759782 
L 112.981395 64.240348 
L 113.057505 66.492128 
L 113.133615 63.113972 
L 113.209725 63.215129 
L 113.285835 62.467175 
L 113.361945 65.415486 
L 113.438055 65.395882 
L 113.514165 66.99259 
L 113.666385 64.544139 
L 113.742495 67.877124 
L 113.894715 64.071454 
L 113.970825 65.256998 
L 114.046934 68.913183 
L 114.123044 63.285419 
L 114.199154 64.859305 
L 114.351374 68.548289 
L 114.427484 63.320164 
L 114.503594 69.063106 
L 114.579704 67.378955 
L 114.655814 69.026165 
L 114.808034 64.050681 
L 114.884144 63.931315 
L 115.112474 70.532656 
L 115.188584 68.008826 
L 115.264693 69.471729 
L 115.340803 64.691591 
L 115.416913 67.567341 
L 115.493023 63.431753 
L 115.569133 68.885813 
L 115.645243 65.860404 
L 115.721353 69.49093 
L 115.797463 66.081348 
L 115.949683 68.654197 
L 116.025793 63.235864 
L 116.101903 65.515137 
L 116.178013 65.287615 
L 116.254123 65.329609 
L 116.330233 66.927049 
L 116.406342 66.058641 
L 116.558562 66.86103 
L 116.634672 65.71539 
L 116.786892 69.719839 
L 116.863002 66.061742 
L 116.939112 66.187007 
L 117.015222 66.983165 
L 117.243552 66.07037 
L 117.319662 67.124423 
L 117.395772 66.583875 
L 117.471882 71.562023 
L 117.624101 64.394154 
L 117.700211 63.998711 
L 117.776321 69.289641 
L 117.852431 67.006913 
L 117.928541 65.486233 
L 118.156871 69.021504 
L 118.461311 64.725481 
L 118.537421 64.686834 
L 118.613531 64.269029 
L 118.689641 66.103176 
L 118.765751 65.119944 
L 118.84186 69.732396 
L 118.91797 67.679166 
L 118.99408 68.248077 
L 119.07019 65.184163 
L 119.1463 66.046336 
L 119.22241 64.369584 
L 119.29852 71.84954 
L 119.37463 65.851046 
L 119.45074 66.934665 
L 119.52685 65.818922 
L 119.60296 69.94293 
L 119.67907 65.706893 
L 119.75518 67.410687 
L 119.9074 66.617754 
L 119.98351 71.04265 
L 120.059619 67.053949 
L 120.135729 68.84087 
L 120.211839 65.872948 
L 120.287949 67.42251 
L 120.364059 64.366326 
L 120.516279 67.277693 
L 120.668499 65.057144 
L 120.744609 66.968542 
L 120.820719 66.102826 
L 120.972939 68.802837 
L 121.049049 66.264281 
L 121.125159 68.683485 
L 121.201268 65.542284 
L 121.353488 68.738126 
L 121.505708 66.086151 
L 121.581818 67.027472 
L 121.657928 66.59839 
L 121.810148 65.608752 
L 121.886258 69.137883 
L 121.962368 65.44502 
L 122.114588 72.616374 
L 122.266808 65.48546 
L 122.495137 69.722633 
L 122.723467 65.203276 
L 122.875687 68.084978 
L 122.951797 67.975088 
L 123.027907 66.288799 
L 123.104017 66.632814 
L 123.180127 68.598651 
L 123.256237 65.747646 
L 123.332347 66.542933 
L 123.560677 72.722674 
L 123.712896 66.490992 
L 123.789006 67.099387 
L 123.865116 66.689268 
L 123.941226 65.564151 
L 124.017336 68.609327 
L 124.093446 67.077716 
L 124.169556 69.192551 
L 124.321776 67.03678 
L 124.473996 69.122135 
L 124.550106 68.128134 
L 124.626216 68.330178 
L 124.702326 68.375618 
L 124.778436 67.68202 
L 124.854545 69.484251 
L 124.930655 66.39441 
L 125.006765 67.566095 
L 125.082875 67.502344 
L 125.158985 67.63536 
L 125.235095 65.605527 
L 125.311205 69.014647 
L 125.387315 66.504785 
L 125.463425 67.971882 
L 125.539535 66.501089 
L 125.615645 67.510904 
L 125.691755 67.109882 
L 125.767865 67.215857 
L 125.843975 68.191493 
L 125.996195 65.016833 
L 126.148414 68.290607 
L 126.224524 66.725792 
L 126.300634 69.222346 
L 126.376744 67.794499 
L 126.452854 68.68834 
L 126.528964 67.932056 
L 126.605074 65.937902 
L 126.757294 69.002832 
L 126.985624 66.528204 
L 127.137844 69.40584 
L 127.213953 66.506222 
L 127.290063 67.62041 
L 127.366173 76.842494 
L 127.442283 65.706588 
L 127.518393 68.998667 
L 127.670613 66.783899 
L 127.898943 70.344604 
L 127.975053 71.107729 
L 128.051163 74.500778 
L 128.127273 68.581975 
L 128.203383 69.748946 
L 128.355603 64.008027 
L 128.507822 69.051598 
L 128.583932 68.50589 
L 128.660042 66.778948 
L 128.736152 69.425711 
L 128.888372 67.157025 
L 129.040592 69.448035 
L 129.116702 67.823192 
L 129.192812 68.121628 
L 129.268922 70.066853 
L 129.345032 67.057326 
L 129.421142 68.097958 
L 129.497252 68.171174 
L 129.649471 67.025789 
L 129.725581 68.07534 
L 129.801691 66.021085 
L 129.953911 67.70688 
L 130.030021 67.437595 
L 130.106131 66.14141 
L 130.182241 69.052654 
L 130.258351 69.009184 
L 130.334461 69.352592 
L 130.410571 67.794588 
L 130.562791 68.955234 
L 130.791121 66.188097 
L 130.86723 68.750417 
L 130.94334 68.484676 
L 131.09556 69.09324 
L 131.17167 68.710953 
L 131.24778 66.557914 
L 131.32389 69.735853 
L 131.4 67.523803 
L 131.47611 69.735577 
L 131.55222 66.649912 
L 131.62833 67.277608 
L 131.78055 69.608301 
L 132.008879 67.057863 
L 132.084989 67.356251 
L 132.161099 69.593762 
L 132.237209 67.407585 
L 132.313319 67.835295 
L 132.389429 66.801934 
L 132.465539 68.792579 
L 132.541649 66.464144 
L 132.617759 67.754203 
L 132.693869 73.099543 
L 132.769979 68.105177 
L 132.846089 68.560492 
L 132.998309 68.133649 
L 133.074419 67.59486 
L 133.150529 68.994484 
L 133.302748 67.407434 
L 133.454968 67.819873 
L 133.531078 67.673803 
L 133.607188 68.80124 
L 133.759408 67.28857 
L 133.835518 67.33293 
L 133.911628 69.757729 
L 134.063848 67.59329 
L 134.139958 68.324508 
L 134.216068 67.493325 
L 134.292178 69.655611 
L 134.444397 67.897037 
L 134.520507 73.030753 
L 134.672727 68.14816 
L 134.901057 70.725125 
L 134.977167 68.46665 
L 135.129387 71.01736 
L 135.205497 70.687207 
L 135.281607 72.918175 
L 135.433827 67.963363 
L 135.509937 70.382209 
L 135.586047 66.215705 
L 135.662156 68.016978 
L 135.738266 69.676106 
L 135.814376 82.398972 
L 135.966596 66.62898 
L 136.118816 69.458086 
L 136.271036 68.149044 
L 136.347146 69.115373 
L 136.423256 67.784402 
L 136.499366 68.103438 
L 136.727696 75.896376 
L 136.879915 69.062639 
L 136.956025 67.298881 
L 137.032135 67.89139 
L 137.108245 67.874256 
L 137.260465 69.117971 
L 137.488795 67.606428 
L 137.564905 67.463896 
L 137.869345 69.720621 
L 137.945455 65.801253 
L 138.097674 69.190638 
L 138.173784 69.572944 
L 138.249894 68.102692 
L 138.326004 68.68056 
L 138.402114 67.38324 
L 138.554334 68.885349 
L 138.630444 67.694133 
L 138.782664 69.719665 
L 138.858774 68.749828 
L 138.934884 69.482273 
L 139.163214 68.181445 
L 139.391543 69.71959 
L 139.695983 67.829461 
L 139.772093 67.755764 
L 139.924313 69.673504 
L 140.076533 68.285589 
L 140.152643 68.33577 
L 140.228753 67.816808 
L 140.304863 68.087411 
L 140.380973 68.85809 
L 140.457082 68.306222 
L 140.533192 68.431435 
L 140.609302 68.607596 
L 140.685412 68.014788 
L 140.761522 68.9801 
L 140.837632 68.936291 
L 140.989852 68.962464 
L 141.065962 68.600593 
L 141.142072 69.143927 
L 141.218182 69.033553 
L 141.294292 69.092794 
L 141.370402 68.881727 
L 141.446512 69.383122 
L 141.750951 67.873382 
L 141.827061 68.226974 
L 141.903171 69.174707 
L 141.979281 67.627199 
L 142.131501 69.43398 
L 142.207611 68.846536 
L 142.283721 69.332446 
L 142.359831 68.507052 
L 142.512051 69.041809 
L 142.588161 69.231183 
L 142.664271 68.401011 
L 142.740381 68.715096 
L 142.8926 68.048588 
L 143.04482 68.958755 
L 143.19704 69.43605 
L 143.34926 68.620711 
L 143.42537 68.768302 
L 143.50148 69.387103 
L 143.57759 68.557678 
L 143.80592 69.4746 
L 143.95814 68.884113 
L 144.034249 69.59605 
L 144.110359 69.136132 
L 144.186469 69.570155 
L 144.262579 69.352797 
L 144.338689 68.716609 
L 144.414799 69.168947 
L 144.490909 68.835546 
L 144.567019 69.336813 
L 144.643129 68.621287 
L 144.719239 68.880789 
L 144.795349 69.101991 
L 144.871459 69.037774 
L 145.023679 68.33607 
L 145.099789 68.69448 
L 145.175899 68.063681 
L 145.252008 69.379816 
L 145.328118 69.202689 
L 145.404228 69.647366 
L 145.556448 68.503555 
L 145.632558 68.780695 
L 145.708668 74.372762 
L 145.860888 68.954562 
L 145.936998 69.007393 
L 146.013108 68.63132 
L 146.089218 69.739747 
L 146.165328 73.71081 
L 146.241438 69.487266 
L 146.317548 69.552368 
L 146.393658 68.464905 
L 146.469767 68.588705 
L 146.621987 69.171509 
L 146.698097 68.774936 
L 146.774207 69.116152 
L 146.850317 68.358423 
L 146.926427 68.706363 
L 147.002537 75.431479 
L 147.154757 67.952317 
L 147.230867 68.808468 
L 147.306977 68.111391 
L 147.535307 69.252454 
L 147.611416 69.174547 
L 147.687526 68.829614 
L 147.763636 69.379073 
L 147.839746 68.460353 
L 147.915856 70.772721 
L 147.991966 68.475398 
L 148.068076 69.190473 
L 148.144186 72.009468 
L 148.296406 68.580981 
L 148.372516 68.473351 
L 148.600846 69.510698 
L 148.753066 68.762986 
L 148.829175 74.23754 
L 148.905285 68.508436 
L 148.981395 68.917961 
L 149.057505 68.911338 
L 149.133615 68.639966 
L 149.209725 68.799982 
L 149.285835 68.459851 
L 149.361945 68.801162 
L 149.438055 68.581373 
L 149.514165 69.529159 
L 149.590275 69.183607 
L 149.742495 68.283428 
L 149.818605 69.996758 
L 149.894715 68.974328 
L 149.970825 69.207354 
L 150.046934 69.386046 
L 150.199154 69.046786 
L 150.275264 69.511852 
L 150.351374 69.329403 
L 150.503594 67.990498 
L 150.579704 69.326125 
L 150.655814 68.179522 
L 150.808034 69.512194 
L 150.884144 69.34034 
L 150.960254 69.643179 
L 151.036364 68.83388 
L 151.264693 69.516286 
L 151.340803 69.544552 
L 151.493023 69.075809 
L 151.569133 69.279418 
L 151.645243 68.064876 
L 151.721353 69.033414 
L 151.797463 68.954227 
L 151.873573 68.832839 
L 151.949683 69.722 
L 152.025793 68.965023 
L 152.101903 69.108524 
L 152.254123 69.54297 
L 152.330233 68.869314 
L 152.406342 69.042389 
L 152.482452 69.457299 
L 152.558562 68.728268 
L 152.634672 68.962894 
L 152.710782 69.107107 
L 152.786892 68.903008 
L 152.863002 70.703703 
L 153.015222 69.120088 
L 153.091332 69.503728 
L 153.167442 72.621852 
L 153.319662 69.658186 
L 153.395772 68.836039 
L 153.471882 69.376426 
L 153.547992 69.042955 
L 153.624101 69.074143 
L 153.700211 69.666421 
L 153.776321 69.60183 
L 153.852431 69.105844 
L 153.928541 69.627883 
L 154.004651 69.152809 
L 154.080761 70.292098 
L 154.156871 68.931923 
L 154.232981 69.600109 
L 154.309091 69.502498 
L 154.385201 69.404254 
L 154.537421 68.762859 
L 154.689641 69.158102 
L 154.765751 68.883668 
L 154.91797 69.48486 
L 154.99408 69.433181 
L 155.1463 68.700149 
L 155.22241 68.843591 
L 155.29852 69.531026 
L 155.37463 69.262179 
L 155.52685 69.224489 
L 155.60296 69.174562 
L 155.67907 69.599292 
L 155.83129 68.635173 
L 155.9074 69.086942 
L 155.98351 69.07532 
L 156.059619 69.356683 
L 156.135729 69.275522 
L 156.211839 69.320053 
L 156.364059 69.119084 
L 156.440169 69.193541 
L 156.516279 69.728691 
L 156.592389 69.270151 
L 156.668499 69.570919 
L 156.744609 69.512543 
L 156.820719 68.99949 
L 156.896829 70.420485 
L 156.972939 69.131893 
L 157.049049 69.342999 
L 157.125159 69.106184 
L 157.277378 69.264721 
L 157.353488 69.971436 
L 157.505708 68.94444 
L 157.581818 70.784852 
L 157.734038 69.235931 
L 157.810148 69.509625 
L 157.886258 69.110754 
L 158.038478 69.593202 
L 158.266808 69.197122 
L 158.342918 70.242173 
L 158.571247 69.325148 
L 158.647357 69.492235 
L 158.723467 69.421255 
L 158.875687 69.638387 
L 158.951797 75.106458 
L 159.027907 69.367887 
L 159.104017 69.502034 
L 159.180127 69.497338 
L 159.256237 69.180942 
L 159.332347 69.499932 
L 159.408457 69.241912 
L 159.484567 69.549013 
L 159.560677 69.395751 
L 159.636786 69.460811 
L 159.712896 69.814642 
L 159.789006 70.770343 
L 159.941226 69.225337 
L 160.017336 72.352594 
L 160.093446 70.413311 
L 160.169556 71.488183 
L 160.245666 70.568504 
L 160.321776 73.347285 
L 160.473996 68.948173 
L 160.626216 69.827302 
L 160.702326 68.938981 
L 160.778436 71.445924 
L 160.854545 69.435822 
L 160.930655 69.738078 
L 161.006765 69.24024 
L 161.082875 70.350737 
L 161.158985 69.27147 
L 161.235095 69.306908 
L 161.463425 69.800606 
L 161.539535 72.070693 
L 161.615645 69.408466 
L 161.691755 69.692092 
L 161.767865 69.702681 
L 161.843975 69.30303 
L 161.920085 69.534419 
L 161.996195 71.809189 
L 162.148414 69.184102 
L 162.376744 69.180954 
L 162.452854 69.715813 
L 162.528964 69.331401 
L 162.605074 69.437357 
L 162.681184 69.534377 
L 162.757294 69.368025 
L 162.985624 69.578062 
L 163.366173 69.551292 
L 163.442283 69.719074 
L 163.518393 69.016017 
L 163.594503 69.126075 
L 163.746723 69.538263 
L 163.975053 69.356181 
L 164.051163 69.345897 
L 164.279493 69.5804 
L 164.355603 69.332995 
L 164.431712 69.777138 
L 164.507822 69.426593 
L 164.583932 69.598603 
L 164.736152 69.576561 
L 164.812262 69.930773 
L 164.964482 69.298481 
L 165.116702 69.371613 
L 165.192812 69.049264 
L 165.421142 69.676342 
L 165.497252 69.443932 
L 165.573362 69.662106 
L 165.649471 69.50075 
L 165.725581 69.672097 
L 165.801691 69.630864 
L 165.877801 69.572892 
L 165.953911 69.669391 
L 166.030021 71.642229 
L 166.182241 69.341578 
L 166.410571 69.720812 
L 166.715011 69.491319 
L 166.86723 69.666208 
L 166.94334 69.59022 
L 167.01945 69.720785 
L 167.17167 69.466524 
L 167.24778 70.45439 
L 167.32389 69.457618 
L 167.4 69.536619 
L 167.47611 69.657922 
L 167.55222 69.605998 
L 167.70444 69.687505 
L 167.78055 69.403772 
L 167.85666 69.654925 
L 167.93277 69.564141 
L 168.084989 69.514532 
L 168.237209 69.681256 
L 168.465539 69.531241 
L 168.617759 69.627114 
L 168.769979 69.583585 
L 168.846089 69.622964 
L 168.922199 69.819502 
L 168.998309 69.651598 
L 169.074419 69.835508 
L 169.150529 69.442201 
L 169.226638 69.676253 
L 169.302748 69.513485 
L 169.378858 69.561353 
L 169.531078 69.723849 
L 169.683298 69.588309 
L 169.759408 69.656673 
L 169.835518 71.033196 
L 169.911628 69.577188 
L 169.987738 69.716172 
L 170.063848 69.566666 
L 170.139958 69.624534 
L 170.368288 69.701265 
L 170.748837 69.70557 
L 170.824947 69.950331 
L 170.901057 69.873676 
L 171.053277 69.599776 
L 171.281607 69.697444 
L 171.357717 70.714554 
L 171.433827 70.124362 
L 171.509937 72.17979 
L 171.662156 69.641913 
L 171.738266 69.605366 
L 171.966596 69.761104 
L 172.118816 69.619162 
L 172.271036 69.623801 
L 172.347146 70.992109 
L 172.423256 69.6931 
L 172.499366 70.044025 
L 172.651586 69.640084 
L 172.727696 69.696973 
L 172.803805 70.334211 
L 172.879915 69.641333 
L 172.956025 69.67928 
L 173.032135 69.728883 
L 173.108245 69.630543 
L 173.184355 69.699301 
L 173.260465 69.709366 
L 173.336575 69.512833 
L 173.564905 69.696151 
L 173.717125 69.71119 
L 173.793235 70.134506 
L 173.869345 69.57283 
L 173.945455 69.725824 
L 174.097674 69.583996 
L 174.249894 69.724982 
L 174.326004 69.58626 
L 174.402114 71.891736 
L 174.554334 69.64543 
L 174.706554 69.70024 
L 174.782664 69.998518 
L 174.934884 69.698361 
L 175.391543 69.720377 
L 175.467653 72.795764 
L 175.543763 69.710808 
L 175.619873 71.488861 
L 175.772093 69.688341 
L 176.152643 69.656365 
L 176.228753 69.965651 
L 176.304863 69.76662 
L 176.380973 70.076524 
L 176.457082 69.644076 
L 176.533192 69.680241 
L 176.913742 69.854141 
L 176.989852 69.695789 
L 177.142072 71.344711 
L 177.294292 69.619322 
L 177.446512 69.683263 
L 177.522622 69.640116 
L 177.598732 73.875543 
L 177.674841 69.69585 
L 177.750951 69.698337 
L 178.131501 69.696602 
L 178.207611 70.097189 
L 178.359831 69.69491 
L 178.435941 69.716483 
L 178.512051 70.518019 
L 178.588161 69.709966 
L 178.664271 69.876342 
L 178.740381 69.660643 
L 178.81649 69.720015 
L 179.04482 69.705454 
L 179.12093 69.648949 
L 179.19704 69.757336 
L 179.27315 69.580999 
L 179.42537 69.718141 
L 179.57759 69.71996 
L 179.6537 70.506177 
L 179.80592 69.676193 
L 179.88203 70.699855 
L 179.95814 69.626 
L 180.034249 69.66982 
L 180.414799 69.677402 
L 180.490909 69.855644 
L 180.567019 69.657888 
L 180.643129 69.940556 
L 180.719239 69.693773 
L 180.795349 69.737568 
L 180.947569 69.760401 
L 181.023679 70.428536 
L 181.175899 69.659037 
L 181.252008 69.929776 
L 181.404228 69.664496 
L 181.708668 69.665151 
L 181.784778 70.39259 
L 181.936998 69.7197 
L 182.165328 69.664623 
L 182.393658 69.791028 
L 182.621987 69.720751 
L 182.698097 70.595062 
L 182.774207 69.635701 
L 182.850317 69.669156 
L 183.763636 69.758662 
L 183.915856 69.680219 
L 184.524736 69.927137 
L 184.676956 69.661177 
L 184.753066 69.896682 
L 184.829175 69.701367 
L 184.905285 69.791856 
L 184.981395 69.698266 
L 185.057505 70.035185 
L 185.285835 69.712724 
L 185.666385 69.686905 
L 185.742495 71.894883 
L 185.894715 69.685122 
L 186.046934 70.041108 
L 186.199154 69.696052 
L 186.427484 69.695687 
L 186.503594 69.865619 
L 186.579704 69.780252 
L 186.655814 69.914261 
L 186.884144 69.687198 
L 186.960254 69.830387 
L 187.036364 69.747694 
L 187.188584 69.711479 
L 187.264693 69.959992 
L 187.340803 69.69265 
L 187.416913 69.733312 
L 187.493023 72.280538 
L 187.569133 69.574129 
L 187.645243 69.708023 
L 187.721353 70.129051 
L 187.797463 69.705279 
L 187.873573 69.800615 
L 187.949683 69.73849 
L 188.025793 69.87059 
L 188.178013 69.714875 
L 188.254123 70.056864 
L 188.406342 69.699024 
L 188.482452 69.888826 
L 188.634672 69.70223 
L 188.710782 69.771293 
L 188.786892 70.18325 
L 188.939112 69.707593 
L 189.015222 70.440823 
L 189.167442 69.688618 
L 189.319662 69.711548 
L 189.395772 69.779296 
L 189.471882 69.641371 
L 189.547992 69.688434 
L 189.624101 70.436006 
L 189.700211 69.676453 
L 189.776321 69.693496 
L 190.004651 69.681109 
L 190.385201 69.711145 
L 190.461311 70.340652 
L 190.537421 69.719828 
L 190.613531 69.735299 
L 190.765751 69.726123 
L 191.22241 69.713326 
L 191.29852 70.065034 
L 191.45074 69.68465 
L 191.67907 69.968666 
L 191.83129 70.260521 
L 191.9074 69.679988 
L 191.98351 69.912658 
L 192.211839 69.565602 
L 192.287949 69.762765 
L 192.364059 69.704092 
L 192.516279 69.680138 
L 192.668499 69.718577 
L 192.744609 69.671458 
L 192.820719 70.738102 
L 192.972939 69.699363 
L 193.353488 69.659104 
L 193.581818 69.714093 
L 193.657928 72.267187 
L 193.810148 69.705078 
L 193.886258 73.166631 
L 194.038478 69.7196 
L 194.342918 69.667971 
L 194.419027 69.804207 
L 194.495137 69.660237 
L 194.571247 69.724505 
L 194.799577 69.718019 
L 194.875687 69.710401 
L 194.951797 69.841085 
L 195.027907 69.674431 
L 195.104017 69.710999 
L 195.332347 69.820688 
L 195.484567 69.772335 
L 195.636786 69.684142 
L 196.169556 69.747551 
L 196.473996 69.68643 
L 196.778436 69.687246 
L 196.854545 70.034724 
L 197.006765 69.765438 
L 197.082875 69.840128 
L 197.235095 69.731266 
L 197.311205 76.022338 
L 197.387315 69.711443 
L 197.463425 69.723174 
L 197.539535 69.912786 
L 197.615645 70.66568 
L 197.691755 69.695263 
L 197.767865 69.736829 
L 197.920085 69.678522 
L 197.996195 70.051179 
L 198.072304 69.869595 
L 198.148414 69.709289 
L 198.224524 70.185488 
L 198.376744 69.666875 
L 198.452854 69.709131 
L 198.528964 70.524773 
L 198.681184 69.673975 
L 198.757294 70.047487 
L 198.833404 69.673266 
L 198.909514 74.55524 
L 198.985624 69.689121 
L 199.061734 69.703557 
L 199.290063 69.675776 
L 199.366173 72.118753 
L 199.518393 69.686911 
L 199.746723 69.630023 
L 199.822833 69.931236 
L 199.975053 69.71172 
L 200.660042 69.690538 
L 200.736152 70.859083 
L 200.888372 69.619855 
L 201.116702 69.683348 
L 201.192812 69.686119 
L 201.268922 70.022477 
L 201.345032 69.64345 
L 201.421142 69.698754 
L 201.801691 69.74849 
L 201.877801 70.101927 
L 202.030021 69.701248 
L 202.258351 69.710095 
L 202.410571 70.560397 
L 202.562791 69.690573 
L 202.86723 69.694437 
L 203.09556 69.710847 
L 203.47611 69.838727 
L 203.55222 73.869779 
L 203.70444 69.68956 
L 204.084989 69.777498 
L 204.161099 69.634683 
L 204.237209 69.709967 
L 204.846089 69.703757 
L 204.922199 69.968456 
L 205.074419 69.728772 
L 205.150529 69.718564 
L 205.226638 69.841341 
L 205.378858 69.722171 
L 205.454968 70.314638 
L 205.531078 69.728105 
L 205.607188 69.920444 
L 205.759408 69.707574 
L 205.835518 69.828994 
L 205.911628 69.766804 
L 205.987738 69.855709 
L 206.139958 69.723349 
L 206.216068 69.839087 
L 206.368288 69.711253 
L 206.444397 72.636834 
L 206.520507 69.706685 
L 206.596617 69.712943 
L 206.672727 69.693323 
L 206.748837 70.085179 
L 206.901057 69.707321 
L 207.433827 69.795282 
L 207.509937 69.916658 
L 207.662156 69.71195 
L 207.814376 69.714706 
L 208.194926 69.725793 
L 208.347146 69.759014 
L 208.575476 69.688388 
L 208.727696 70.343168 
L 208.803805 69.696354 
L 208.879915 69.709404 
L 209.336575 69.707691 
L 209.412685 69.834791 
L 209.488795 69.706732 
L 209.564905 69.936111 
L 209.641015 69.722797 
L 209.717125 69.907376 
L 209.793235 70.441255 
L 210.021564 69.753878 
L 210.097674 69.882743 
L 210.249894 69.691888 
L 210.630444 69.711821 
L 210.706554 69.632915 
L 210.858774 69.713747 
L 211.087104 69.706142 
L 211.163214 69.876824 
L 211.315433 69.706586 
L 211.543763 69.718154 
L 211.619873 69.893544 
L 211.772093 69.717652 
L 212.152643 69.696652 
L 212.228753 69.704371 
L 212.304863 70.138405 
L 212.380973 69.720845 
L 212.457082 70.531113 
L 212.685412 69.710448 
L 212.989852 69.701437 
L 213.370402 69.71836 
L 213.446512 70.101852 
L 213.598732 69.713096 
L 214.664271 69.752745 
L 214.740381 69.913495 
L 214.81649 69.712586 
L 214.8926 70.066091 
L 215.04482 69.714593 
L 215.12093 69.946548 
L 215.19704 69.672767 
L 215.27315 69.701338 
L 215.57759 69.679778 
L 215.6537 70.133451 
L 215.80592 69.721051 
L 216.490909 69.726522 
L 216.567019 69.786458 
L 216.719239 69.676582 
L 216.947569 69.699208 
L 217.480338 69.735336 
L 217.784778 69.681997 
L 218.241438 69.777437 
L 218.469767 69.720909 
L 219.002537 69.71812 
L 219.078647 70.250625 
L 219.154757 69.675703 
L 219.230867 69.730538 
L 219.535307 69.701836 
L 220.220296 69.72016 
L 220.372516 69.721042 
L 220.981395 69.778522 
L 221.057505 70.03166 
L 221.209725 69.709227 
L 221.361945 69.717544 
L 221.590275 73.699962 
L 221.666385 77.777171 
L 221.742495 71.683438 
L 221.818605 72.627794 
L 221.894715 70.658386 
L 221.970825 70.884351 
L 222.046934 82.02204 
L 222.199154 69.732729 
L 222.275264 72.765189 
L 222.351374 69.728953 
L 222.427484 73.657789 
L 222.503594 69.717782 
L 222.579704 69.725155 
L 222.655814 76.925645 
L 222.731924 75.263515 
L 222.808034 70.750023 
L 222.884144 83.733099 
L 222.960254 71.876149 
L 223.112474 82.039476 
L 223.340803 71.765455 
L 223.416913 79.643805 
L 223.493023 69.722685 
L 223.569133 75.144634 
L 223.645243 69.721625 
L 223.797463 90.573352 
L 223.873573 69.718139 
L 223.949683 82.785153 
L 224.101903 75.086367 
L 224.178013 79.739224 
L 224.254123 73.564204 
L 224.330233 74.528416 
L 224.406342 74.626615 
L 224.634672 69.72001 
L 224.710782 128.903802 
L 224.863002 84.803985 
L 224.939112 94.064082 
L 225.167442 77.492348 
L 225.243552 85.985969 
L 225.319662 80.365848 
L 225.395772 80.489241 
L 225.471882 85.795031 
L 225.547992 77.623622 
L 225.624101 83.3649 
L 225.700211 73.049919 
L 225.776321 73.868916 
L 226.004651 82.137068 
L 226.156871 69.733648 
L 226.232981 77.738605 
L 226.309091 77.182534 
L 226.385201 69.736119 
L 226.461311 77.078102 
L 226.537421 69.73816 
L 226.689641 75.28145 
L 226.765751 69.739764 
L 226.91797 77.290456 
L 226.99408 76.542331 
L 227.07019 76.80042 
L 227.1463 69.739929 
L 227.22241 79.424888 
L 227.29852 78.650893 
L 227.37463 77.220055 
L 227.45074 78.431375 
L 227.52685 77.915917 
L 227.67907 78.973606 
L 227.75518 78.355067 
L 227.83129 69.739379 
L 227.9074 78.008769 
L 227.98351 77.885053 
L 228.059619 76.898773 
L 228.135729 79.358899 
L 228.211839 79.304168 
L 228.364059 69.738226 
L 228.440169 78.617245 
L 228.516279 76.900743 
L 228.592389 77.25673 
L 228.668499 76.649737 
L 228.744609 76.899424 
L 228.972939 79.353932 
L 229.125159 74.583003 
L 229.201268 81.559805 
L 229.277378 71.321771 
L 229.353488 80.611125 
L 229.429598 73.610188 
L 229.505708 76.288691 
L 229.581818 78.664999 
L 229.734038 69.729204 
L 229.886258 76.406663 
L 230.038478 70.205152 
L 230.114588 69.921926 
L 230.190698 68.492248 
L 230.266808 70.147383 
L 230.342918 69.727176 
L 230.495137 67.796876 
L 230.571247 67.93499 
L 230.647357 67.275455 
L 230.723467 74.489298 
L 230.799577 68.294581 
L 230.875687 69.274484 
L 230.951797 68.427954 
L 231.027907 69.714837 
L 231.256237 68.025097 
L 231.408457 70.077274 
L 231.484567 67.901477 
L 231.636786 74.326127 
L 231.712896 69.69989 
L 231.789006 70.72457 
L 231.865116 70.439941 
L 232.017336 67.754151 
L 232.093446 69.953504 
L 232.169556 69.866713 
L 232.245666 67.463467 
L 232.321776 70.556567 
L 232.397886 69.752181 
L 232.473996 69.76616 
L 232.550106 69.335478 
L 232.626216 72.346558 
L 232.854545 68.057315 
L 232.930655 69.671125 
L 233.006765 69.667184 
L 233.082875 70.275171 
L 233.158985 69.867571 
L 233.235095 67.86239 
L 233.311205 70.565905 
L 233.387315 70.139281 
L 233.539535 69.725389 
L 233.615645 69.771406 
L 233.767865 69.495992 
L 233.843975 69.725058 
L 233.920085 68.662861 
L 233.996195 69.152781 
L 234.072304 69.661739 
L 234.148414 69.620626 
L 234.224524 68.74391 
L 234.300634 68.820626 
L 234.452854 69.724632 
L 234.528964 69.677097 
L 234.605074 69.588596 
L 234.681184 69.730893 
L 234.757294 69.269651 
L 234.833404 70.091586 
L 234.909514 69.753641 
L 234.985624 69.152892 
L 235.213953 70.025772 
L 235.366173 69.668638 
L 235.518393 69.742175 
L 235.594503 69.262628 
L 235.746723 69.804071 
L 235.822833 69.347916 
L 236.051163 70.972485 
L 236.127273 69.712263 
L 236.203383 69.727523 
L 236.355603 69.705995 
L 236.431712 69.25698 
L 236.507822 70.015561 
L 236.583932 69.883343 
L 236.660042 69.624984 
L 236.736152 69.788831 
L 236.812262 69.718984 
L 236.888372 69.724638 
L 236.964482 69.458507 
L 237.116702 69.722309 
L 237.192812 69.369943 
L 237.268922 69.723048 
L 237.345032 69.668779 
L 237.497252 69.654939 
L 237.573362 70.331955 
L 237.725581 69.699355 
L 237.877801 69.72287 
L 238.030021 69.663422 
L 238.106131 69.324291 
L 238.182241 69.687408 
L 238.258351 69.60173 
L 238.334461 69.456243 
L 238.410571 69.892327 
L 238.486681 69.830858 
L 238.638901 69.623253 
L 238.715011 69.930046 
L 238.86723 69.721102 
L 239.01945 70.026292 
L 239.17167 69.71208 
L 239.55222 69.721599 
L 239.70444 69.53046 
L 239.78055 69.942519 
L 239.85666 69.834951 
L 240.008879 69.329823 
L 240.161099 69.78004 
L 240.313319 69.501633 
L 240.541649 69.72088 
L 240.693869 69.639914 
L 241.302748 69.796777 
L 241.378858 69.706413 
L 241.454968 69.253903 
L 241.531078 69.675798 
L 241.607188 69.453702 
L 241.911628 69.801974 
L 241.987738 69.873941 
L 242.139958 69.681974 
L 242.216068 69.811095 
L 242.292178 69.759563 
L 242.368288 69.589343 
L 242.444397 69.65507 
L 242.596617 69.7115 
L 242.672727 69.566318 
L 242.748837 69.74365 
L 242.824947 69.690698 
L 242.901057 69.419316 
L 243.053277 69.720108 
L 243.205497 69.647706 
L 243.281607 69.834447 
L 243.433827 69.66776 
L 243.586047 69.707852 
L 243.738266 69.671492 
L 243.814376 69.71483 
L 243.890486 69.553992 
L 244.042706 69.635358 
L 244.194926 69.698882 
L 244.271036 69.928512 
L 244.347146 69.714354 
L 244.423256 69.749582 
L 244.575476 69.558163 
L 244.651586 69.706729 
L 244.879915 69.710133 
L 244.956025 69.921574 
L 245.108245 69.684693 
L 245.412685 69.779315 
L 245.488795 69.623611 
L 245.564905 69.909657 
L 245.641015 69.654494 
L 245.717125 69.731545 
L 245.869345 69.701921 
L 246.021564 69.72001 
L 246.249894 69.686457 
L 246.326004 69.761878 
L 246.402114 69.636951 
L 246.478224 69.714243 
L 246.630444 69.660066 
L 246.706554 69.782664 
L 246.782664 69.702561 
L 247.087104 69.720022 
L 247.315433 69.719375 
L 247.467653 69.709951 
L 247.695983 69.68174 
L 247.772093 69.497331 
L 247.848203 69.700211 
L 247.924313 69.666282 
L 248.152643 69.728009 
L 248.457082 69.686114 
L 249.522622 69.713547 
L 249.903171 69.78485 
L 249.979281 69.967173 
L 250.131501 69.699945 
L 250.283721 69.656764 
L 250.359831 69.775508 
L 250.435941 69.45333 
L 250.588161 69.800776 
L 250.664271 69.646365 
L 250.740381 69.748247 
L 250.81649 69.666803 
L 251.04482 69.665169 
L 251.50148 69.681756 
L 252.338689 69.713583 
L 252.567019 69.678078 
L 252.643129 69.782444 
L 252.719239 69.709325 
L 253.556448 69.691466 
L 253.632558 69.878051 
L 253.708668 69.701755 
L 253.784778 69.812157 
L 253.936998 69.675714 
L 254.013108 69.798724 
L 254.165328 69.645551 
L 254.393658 69.708514 
L 255.991966 69.714861 
L 256.068076 69.768237 
L 256.144186 69.647127 
L 256.220296 69.697004 
L 257.209725 69.717034 
L 257.285835 69.790845 
L 257.438055 69.680063 
L 257.590275 69.799239 
L 257.894715 69.711136 
L 257.970825 69.801278 
L 258.123044 69.68185 
L 258.579704 69.726626 
L 258.960254 69.679038 
L 259.264693 69.723721 
L 259.493023 69.716615 
L 260.101903 69.713081 
L 260.330233 69.98273 
L 260.406342 69.621967 
L 260.482452 69.912306 
L 260.634672 69.712024 
L 260.863002 69.688937 
L 261.167442 69.685936 
L 261.243552 69.891485 
L 261.395772 69.677933 
L 261.852431 69.682554 
L 262.461311 69.678253 
L 262.613531 69.696 
L 262.99408 69.722882 
L 263.1463 69.682191 
L 263.37463 70.154374 
L 263.52685 69.691123 
L 263.75518 69.694087 
L 263.9074 69.78311 
L 264.059619 69.716169 
L 264.211839 69.697897 
L 264.287949 69.808535 
L 264.364059 69.581079 
L 264.516279 69.666521 
L 264.820719 69.715766 
L 265.201268 69.670758 
L 265.505708 69.708158 
L 267.484567 69.76544 
L 267.712896 69.820481 
L 267.865116 69.702231 
L 268.017336 69.714193 
L 268.093446 69.647128 
L 268.169556 69.765641 
L 268.245666 69.680886 
L 269.615645 69.708884 
L 269.843975 69.68916 
L 270.300634 69.700765 
L 270.757294 69.694578 
L 271.137844 69.678944 
L 271.366173 69.710332 
L 272.127273 69.696995 
L 272.888372 69.699172 
L 273.421142 69.712999 
L 273.649471 69.702363 
L 275.47611 69.754338 
L 275.78055 69.716901 
L 276.161099 69.700483 
L 276.237209 69.820273 
L 276.389429 69.70261 
L 277.835518 69.676502 
L 278.139958 69.695592 
L 278.216068 69.922591 
L 278.368288 69.701106 
L 279.662156 69.678775 
L 279.890486 69.704676 
L 280.499366 69.696588 
L 280.879915 69.713364 
L 281.488795 69.705381 
L 284.609302 69.679171 
L 284.685412 70.229286 
L 284.837632 69.685077 
L 285.218182 69.741023 
L 285.446512 69.703231 
L 286.359831 69.709183 
L 286.588161 69.710583 
L 286.8926 69.678873 
L 287.50148 69.741445 
L 287.80592 69.714188 
L 288.719239 69.697267 
L 344.507822 69.716825 
L 344.583932 69.603496 
L 344.736152 69.720187 
L 346.486681 69.721741 
L 346.562791 69.804517 
L 346.715011 69.732106 
L 347.24778 69.716819 
L 347.32389 69.79985 
L 347.55222 69.70897 
L 348.084989 69.710377 
L 351.433827 69.715386 
L 356.533192 69.706378 
L 357.370402 69.715904 
L 373.581818 69.716949 
L 373.581818 69.716949 
" style="fill:none;stroke:#1f77b4;stroke-linecap:square;stroke-width:1.5;"/>
   </g>
   <g id="line2d_15">
    <path clip-path="url(#p80d0f8e15c)" d="M 221.438055 133.396364 
L 221.438055 34.56 
" style="fill:none;stroke:#000000;stroke-dasharray:1.5,2.475;stroke-dashoffset:0;stroke-opacity:0.5;stroke-width:1.5;"/>
   </g>
   <g id="patch_4">
    <path d="M 54 133.396364 
L 54 34.56 
" style="fill:none;stroke:#000000;stroke-linecap:square;stroke-linejoin:miter;stroke-width:0.8;"/>
   </g>
   <g id="patch_5">
    <path d="M 388.8 133.396364 
L 388.8 34.56 
" style="fill:none;stroke:#000000;stroke-linecap:square;stroke-linejoin:miter;stroke-width:0.8;"/>
   </g>
   <g id="patch_6">
    <path d="M 54 133.396364 
L 388.8 133.396364 
" style="fill:none;stroke:#000000;stroke-linecap:square;stroke-linejoin:miter;stroke-width:0.8;"/>
   </g>
   <g id="patch_7">
    <path d="M 54 34.56 
L 388.8 34.56 
" style="fill:none;stroke:#000000;stroke-linecap:square;stroke-linejoin:miter;stroke-width:0.8;"/>
   </g>
  </g>
  <g id="axes_2">
   <g id="patch_8">
    <path d="M 54 252 
L 388.8 252 
L 388.8 153.163636 
L 54 153.163636 
z
" style="fill:#ffffff;"/>
   </g>
   <g id="patch_9">
    <path clip-path="url(#pfe2b8079aa)" d="M 221.438055 163.010693 
L 219.535307 162.245765 
L 221.438017 162.245765 
L 221.438017 157.656198 
L 221.438093 157.656198 
L 221.438093 162.245765 
L 223.340803 162.245765 
z
" style="stroke:#000000;stroke-linejoin:miter;"/>
   </g>
   <g id="matplotlib.axis_3">
    <g id="xtick_10">
     <g id="line2d_16">
      <g>
       <use style="stroke:#000000;stroke-width:0.8;" x="69.218182" xlink:href="#m0d73e44d15" y="252"/>
      </g>
     </g>
     <g id="text_6">
      <!-- 0 -->
      <g transform="translate(66.036932 266.598437)scale(0.1 -0.1)">
       <use xlink:href="#DejaVuSans-48"/>
      </g>
     </g>
    </g>
    <g id="xtick_11">
     <g id="line2d_17">
      <g>
       <use style="stroke:#000000;stroke-width:0.8;" x="107.27315" xlink:href="#m0d73e44d15" y="252"/>
      </g>
     </g>
     <g id="text_7">
      <!-- 500 -->
      <g transform="translate(97.7294 266.598437)scale(0.1 -0.1)">
       <use xlink:href="#DejaVuSans-53"/>
       <use x="63.623047" xlink:href="#DejaVuSans-48"/>
       <use x="127.246094" xlink:href="#DejaVuSans-48"/>
      </g>
     </g>
    </g>
    <g id="xtick_12">
     <g id="line2d_18">
      <g>
       <use style="stroke:#000000;stroke-width:0.8;" x="145.328118" xlink:href="#m0d73e44d15" y="252"/>
      </g>
     </g>
     <g id="text_8">
      <!-- 1000 -->
      <defs>
       <path d="M 12.40625 8.296875 
L 28.515625 8.296875 
L 28.515625 63.921875 
L 10.984375 60.40625 
L 10.984375 69.390625 
L 28.421875 72.90625 
L 38.28125 72.90625 
L 38.28125 8.296875 
L 54.390625 8.296875 
L 54.390625 0 
L 12.40625 0 
z
" id="DejaVuSans-49"/>
      </defs>
      <g transform="translate(132.603118 266.598437)scale(0.1 -0.1)">
       <use xlink:href="#DejaVuSans-49"/>
       <use x="63.623047" xlink:href="#DejaVuSans-48"/>
       <use x="127.246094" xlink:href="#DejaVuSans-48"/>
       <use x="190.869141" xlink:href="#DejaVuSans-48"/>
      </g>
     </g>
    </g>
    <g id="xtick_13">
     <g id="line2d_19">
      <g>
       <use style="stroke:#000000;stroke-width:0.8;" x="183.383087" xlink:href="#m0d73e44d15" y="252"/>
      </g>
     </g>
     <g id="text_9">
      <!-- 1500 -->
      <g transform="translate(170.658087 266.598437)scale(0.1 -0.1)">
       <use xlink:href="#DejaVuSans-49"/>
       <use x="63.623047" xlink:href="#DejaVuSans-53"/>
       <use x="127.246094" xlink:href="#DejaVuSans-48"/>
       <use x="190.869141" xlink:href="#DejaVuSans-48"/>
      </g>
     </g>
    </g>
    <g id="xtick_14">
     <g id="line2d_20">
      <g>
       <use style="stroke:#000000;stroke-width:0.8;" x="221.438055" xlink:href="#m0d73e44d15" y="252"/>
      </g>
     </g>
     <g id="text_10">
      <!-- 2000 -->
      <g transform="translate(208.713055 266.598437)scale(0.1 -0.1)">
       <use xlink:href="#DejaVuSans-50"/>
       <use x="63.623047" xlink:href="#DejaVuSans-48"/>
       <use x="127.246094" xlink:href="#DejaVuSans-48"/>
       <use x="190.869141" xlink:href="#DejaVuSans-48"/>
      </g>
     </g>
    </g>
    <g id="xtick_15">
     <g id="line2d_21">
      <g>
       <use style="stroke:#000000;stroke-width:0.8;" x="259.493023" xlink:href="#m0d73e44d15" y="252"/>
      </g>
     </g>
     <g id="text_11">
      <!-- 2500 -->
      <g transform="translate(246.768023 266.598437)scale(0.1 -0.1)">
       <use xlink:href="#DejaVuSans-50"/>
       <use x="63.623047" xlink:href="#DejaVuSans-53"/>
       <use x="127.246094" xlink:href="#DejaVuSans-48"/>
       <use x="190.869141" xlink:href="#DejaVuSans-48"/>
      </g>
     </g>
    </g>
    <g id="xtick_16">
     <g id="line2d_22">
      <g>
       <use style="stroke:#000000;stroke-width:0.8;" x="297.547992" xlink:href="#m0d73e44d15" y="252"/>
      </g>
     </g>
     <g id="text_12">
      <!-- 3000 -->
      <defs>
       <path d="M 40.578125 39.3125 
Q 47.65625 37.796875 51.625 33 
Q 55.609375 28.21875 55.609375 21.1875 
Q 55.609375 10.40625 48.1875 4.484375 
Q 40.765625 -1.421875 27.09375 -1.421875 
Q 22.515625 -1.421875 17.65625 -0.515625 
Q 12.796875 0.390625 7.625 2.203125 
L 7.625 11.71875 
Q 11.71875 9.328125 16.59375 8.109375 
Q 21.484375 6.890625 26.8125 6.890625 
Q 36.078125 6.890625 40.9375 10.546875 
Q 45.796875 14.203125 45.796875 21.1875 
Q 45.796875 27.640625 41.28125 31.265625 
Q 36.765625 34.90625 28.71875 34.90625 
L 20.21875 34.90625 
L 20.21875 43.015625 
L 29.109375 43.015625 
Q 36.375 43.015625 40.234375 45.921875 
Q 44.09375 48.828125 44.09375 54.296875 
Q 44.09375 59.90625 40.109375 62.90625 
Q 36.140625 65.921875 28.71875 65.921875 
Q 24.65625 65.921875 20.015625 65.03125 
Q 15.375 64.15625 9.8125 62.3125 
L 9.8125 71.09375 
Q 15.4375 72.65625 20.34375 73.4375 
Q 25.25 74.21875 29.59375 74.21875 
Q 40.828125 74.21875 47.359375 69.109375 
Q 53.90625 64.015625 53.90625 55.328125 
Q 53.90625 49.265625 50.4375 45.09375 
Q 46.96875 40.921875 40.578125 39.3125 
z
" id="DejaVuSans-51"/>
      </defs>
      <g transform="translate(284.822992 266.598437)scale(0.1 -0.1)">
       <use xlink:href="#DejaVuSans-51"/>
       <use x="63.623047" xlink:href="#DejaVuSans-48"/>
       <use x="127.246094" xlink:href="#DejaVuSans-48"/>
       <use x="190.869141" xlink:href="#DejaVuSans-48"/>
      </g>
     </g>
    </g>
    <g id="xtick_17">
     <g id="line2d_23">
      <g>
       <use style="stroke:#000000;stroke-width:0.8;" x="335.60296" xlink:href="#m0d73e44d15" y="252"/>
      </g>
     </g>
     <g id="text_13">
      <!-- 3500 -->
      <g transform="translate(322.87796 266.598437)scale(0.1 -0.1)">
       <use xlink:href="#DejaVuSans-51"/>
       <use x="63.623047" xlink:href="#DejaVuSans-53"/>
       <use x="127.246094" xlink:href="#DejaVuSans-48"/>
       <use x="190.869141" xlink:href="#DejaVuSans-48"/>
      </g>
     </g>
    </g>
    <g id="xtick_18">
     <g id="line2d_24">
      <g>
       <use style="stroke:#000000;stroke-width:0.8;" x="373.657928" xlink:href="#m0d73e44d15" y="252"/>
      </g>
     </g>
     <g id="text_14">
      <!-- 4000 -->
      <defs>
       <path d="M 37.796875 64.3125 
L 12.890625 25.390625 
L 37.796875 25.390625 
z
M 35.203125 72.90625 
L 47.609375 72.90625 
L 47.609375 25.390625 
L 58.015625 25.390625 
L 58.015625 17.1875 
L 47.609375 17.1875 
L 47.609375 0 
L 37.796875 0 
L 37.796875 17.1875 
L 4.890625 17.1875 
L 4.890625 26.703125 
z
" id="DejaVuSans-52"/>
      </defs>
      <g transform="translate(360.932928 266.598437)scale(0.1 -0.1)">
       <use xlink:href="#DejaVuSans-52"/>
       <use x="63.623047" xlink:href="#DejaVuSans-48"/>
       <use x="127.246094" xlink:href="#DejaVuSans-48"/>
       <use x="190.869141" xlink:href="#DejaVuSans-48"/>
      </g>
     </g>
    </g>
   </g>
   <g id="matplotlib.axis_4">
    <g id="ytick_5">
     <g id="line2d_25">
      <g>
       <use style="stroke:#000000;stroke-width:0.8;" x="54" xlink:href="#m3a72bec4e8" y="247.50744"/>
      </g>
     </g>
     <g id="text_15">
      <!-- 0 -->
      <g transform="translate(40.6375 251.306659)scale(0.1 -0.1)">
       <use xlink:href="#DejaVuSans-48"/>
      </g>
     </g>
    </g>
    <g id="ytick_6">
     <g id="line2d_26">
      <g>
       <use style="stroke:#000000;stroke-width:0.8;" x="54" xlink:href="#m3a72bec4e8" y="209.261048"/>
      </g>
     </g>
     <g id="text_16">
      <!-- 5000 -->
      <g transform="translate(21.55 213.060266)scale(0.1 -0.1)">
       <use xlink:href="#DejaVuSans-53"/>
       <use x="63.623047" xlink:href="#DejaVuSans-48"/>
       <use x="127.246094" xlink:href="#DejaVuSans-48"/>
       <use x="190.869141" xlink:href="#DejaVuSans-48"/>
      </g>
     </g>
    </g>
    <g id="ytick_7">
     <g id="line2d_27">
      <g>
       <use style="stroke:#000000;stroke-width:0.8;" x="54" xlink:href="#m3a72bec4e8" y="171.014655"/>
      </g>
     </g>
     <g id="text_17">
      <!-- 10000 -->
      <g transform="translate(15.1875 174.813874)scale(0.1 -0.1)">
       <use xlink:href="#DejaVuSans-49"/>
       <use x="63.623047" xlink:href="#DejaVuSans-48"/>
       <use x="127.246094" xlink:href="#DejaVuSans-48"/>
       <use x="190.869141" xlink:href="#DejaVuSans-48"/>
       <use x="254.492188" xlink:href="#DejaVuSans-48"/>
      </g>
     </g>
    </g>
    <g id="text_18">
     <!-- Value Loss -->
     <defs>
      <path d="M 28.609375 0 
L 0.78125 72.90625 
L 11.078125 72.90625 
L 34.1875 11.53125 
L 57.328125 72.90625 
L 67.578125 72.90625 
L 39.796875 0 
z
" id="DejaVuSans-86"/>
      <path d="M 34.28125 27.484375 
Q 23.390625 27.484375 19.1875 25 
Q 14.984375 22.515625 14.984375 16.5 
Q 14.984375 11.71875 18.140625 8.90625 
Q 21.296875 6.109375 26.703125 6.109375 
Q 34.1875 6.109375 38.703125 11.40625 
Q 43.21875 16.703125 43.21875 25.484375 
L 43.21875 27.484375 
z
M 52.203125 31.203125 
L 52.203125 0 
L 43.21875 0 
L 43.21875 8.296875 
Q 40.140625 3.328125 35.546875 0.953125 
Q 30.953125 -1.421875 24.3125 -1.421875 
Q 15.921875 -1.421875 10.953125 3.296875 
Q 6 8.015625 6 15.921875 
Q 6 25.140625 12.171875 29.828125 
Q 18.359375 34.515625 30.609375 34.515625 
L 43.21875 34.515625 
L 43.21875 35.40625 
Q 43.21875 41.609375 39.140625 45 
Q 35.0625 48.390625 27.6875 48.390625 
Q 23 48.390625 18.546875 47.265625 
Q 14.109375 46.140625 10.015625 43.890625 
L 10.015625 52.203125 
Q 14.9375 54.109375 19.578125 55.046875 
Q 24.21875 56 28.609375 56 
Q 40.484375 56 46.34375 49.84375 
Q 52.203125 43.703125 52.203125 31.203125 
z
" id="DejaVuSans-97"/>
      <path d="M 8.5 21.578125 
L 8.5 54.6875 
L 17.484375 54.6875 
L 17.484375 21.921875 
Q 17.484375 14.15625 20.5 10.265625 
Q 23.53125 6.390625 29.59375 6.390625 
Q 36.859375 6.390625 41.078125 11.03125 
Q 45.3125 15.671875 45.3125 23.6875 
L 45.3125 54.6875 
L 54.296875 54.6875 
L 54.296875 0 
L 45.3125 0 
L 45.3125 8.40625 
Q 42.046875 3.421875 37.71875 1 
Q 33.40625 -1.421875 27.6875 -1.421875 
Q 18.265625 -1.421875 13.375 4.4375 
Q 8.5 10.296875 8.5 21.578125 
z
M 31.109375 56 
z
" id="DejaVuSans-117"/>
      <path d="M 56.203125 29.59375 
L 56.203125 25.203125 
L 14.890625 25.203125 
Q 15.484375 15.921875 20.484375 11.0625 
Q 25.484375 6.203125 34.421875 6.203125 
Q 39.59375 6.203125 44.453125 7.46875 
Q 49.3125 8.734375 54.109375 11.28125 
L 54.109375 2.78125 
Q 49.265625 0.734375 44.1875 -0.34375 
Q 39.109375 -1.421875 33.890625 -1.421875 
Q 20.796875 -1.421875 13.15625 6.1875 
Q 5.515625 13.8125 5.515625 26.8125 
Q 5.515625 40.234375 12.765625 48.109375 
Q 20.015625 56 32.328125 56 
Q 43.359375 56 49.78125 48.890625 
Q 56.203125 41.796875 56.203125 29.59375 
z
M 47.21875 32.234375 
Q 47.125 39.59375 43.09375 43.984375 
Q 39.0625 48.390625 32.421875 48.390625 
Q 24.90625 48.390625 20.390625 44.140625 
Q 15.875 39.890625 15.1875 32.171875 
z
" id="DejaVuSans-101"/>
     </defs>
     <g transform="translate(9.107812 229.338068)rotate(-90)scale(0.1 -0.1)">
      <use xlink:href="#DejaVuSans-86"/>
      <use x="68.298828" xlink:href="#DejaVuSans-97"/>
      <use x="129.578125" xlink:href="#DejaVuSans-108"/>
      <use x="157.361328" xlink:href="#DejaVuSans-117"/>
      <use x="220.740234" xlink:href="#DejaVuSans-101"/>
      <use x="282.263672" xlink:href="#DejaVuSans-32"/>
      <use x="314.050781" xlink:href="#DejaVuSans-76"/>
      <use x="369.748047" xlink:href="#DejaVuSans-111"/>
      <use x="430.929688" xlink:href="#DejaVuSans-115"/>
      <use x="483.029297" xlink:href="#DejaVuSans-115"/>
     </g>
    </g>
   </g>
   <g id="line2d_28">
    <path clip-path="url(#pfe2b8079aa)" d="M 69.218182 247.506839 
L 69.522622 247.498118 
L 69.979281 247.504998 
L 70.055391 247.157166 
L 70.207611 247.507423 
L 74.850317 247.50743 
L 74.926427 247.258843 
L 75.078647 247.503715 
L 76.372516 247.507361 
L 76.524736 247.358745 
L 76.600846 247.504514 
L 76.676956 247.387912 
L 76.829175 247.497508 
L 77.361945 247.46573 
L 77.438055 247.370732 
L 77.590275 247.507356 
L 79.340803 247.507411 
L 79.416913 247.383338 
L 79.569133 247.507143 
L 79.949683 247.506366 
L 80.025793 247.157731 
L 80.101903 247.226452 
L 80.254123 247.504439 
L 81.395772 247.506874 
L 81.471882 246.814316 
L 81.624101 247.507367 
L 82.613531 247.507387 
L 82.689641 247.321659 
L 82.84186 247.507377 
L 83.07019 247.507396 
L 83.1463 247.157674 
L 83.29852 247.503353 
L 83.45074 247.506059 
L 83.52685 247.385593 
L 83.67907 247.504477 
L 84.211839 247.507354 
L 84.287949 246.412617 
L 84.440169 247.506986 
L 85.201268 247.507041 
L 85.277378 246.701536 
L 85.353488 247.50734 
L 85.429598 246.191071 
L 85.581818 247.502282 
L 85.657928 247.170904 
L 85.810148 247.50066 
L 86.342918 247.506662 
L 86.419027 246.936656 
L 86.571247 247.507223 
L 86.647357 247.298851 
L 86.723467 247.505492 
L 86.799577 247.057647 
L 86.951797 247.507096 
L 87.027907 247.506156 
L 87.104017 247.393476 
L 87.256237 247.506655 
L 87.712896 247.506388 
L 87.789006 246.894637 
L 87.865116 247.501537 
L 87.941226 247.390399 
L 88.017336 247.506669 
L 88.093446 246.213482 
L 88.245666 247.502098 
L 89.311205 247.505262 
L 89.387315 245.459064 
L 89.463425 247.505614 
L 89.539535 247.167837 
L 89.691755 247.505099 
L 89.843975 247.501226 
L 89.920085 247.48774 
L 90.072304 246.683206 
L 90.148414 244.665527 
L 90.224524 247.500626 
L 90.300634 246.642778 
L 90.452854 247.483115 
L 90.605074 247.490102 
L 90.681184 247.192097 
L 90.757294 247.4851 
L 90.833404 246.203628 
L 90.909514 247.486733 
L 90.985624 247.464485 
L 91.290063 247.503914 
L 91.366173 247.34528 
L 91.442283 240.532893 
L 91.518393 247.397207 
L 91.594503 244.93133 
L 91.670613 247.500043 
L 91.746723 233.262569 
L 91.822833 247.482566 
L 91.898943 247.448716 
L 91.975053 246.550402 
L 92.127273 247.392743 
L 92.203383 240.800319 
L 92.279493 242.259087 
L 92.355603 247.364927 
L 92.431712 247.25413 
L 92.660042 247.309765 
L 92.736152 207.270965 
L 92.812262 247.410837 
L 92.888372 242.117659 
L 93.040592 247.459248 
L 93.268922 247.49953 
L 93.345032 247.503924 
L 93.421142 181.611169 
L 93.497252 183.316801 
L 93.573362 247.486666 
L 93.649471 247.476401 
L 93.725581 247.475573 
L 93.801691 166.119117 
L 93.953911 247.445175 
L 94.030021 247.360775 
L 94.106131 247.025044 
L 94.182241 247.174757 
L 94.258351 247.086105 
L 94.334461 247.211977 
L 94.410571 247.100638 
L 94.562791 247.453195 
L 94.791121 247.44148 
L 95.32389 247.486554 
L 95.78055 247.494759 
L 95.85666 178.684043 
L 96.008879 247.485168 
L 96.084989 247.463299 
L 96.161099 164.709057 
L 96.389429 247.39914 
L 96.541649 179.225386 
L 96.617759 157.656198 
L 96.693869 247.08695 
L 96.769979 246.593267 
L 96.846089 247.185694 
L 96.922199 223.763258 
L 97.074419 246.637078 
L 97.378858 247.311765 
L 97.454968 180.052778 
L 97.531078 247.255685 
L 97.683298 162.763369 
L 97.835518 247.302808 
L 97.911628 222.097693 
L 98.139958 247.172004 
L 98.216068 161.452242 
L 98.292178 169.307461 
L 98.444397 247.265357 
L 98.520507 164.271024 
L 98.596617 210.009859 
L 98.672727 161.880072 
L 98.748837 247.133594 
L 98.824947 168.190502 
L 98.901057 246.723376 
L 98.977167 162.44068 
L 99.129387 247.068278 
L 99.205497 245.415106 
L 99.281607 181.49445 
L 99.357717 200.163822 
L 99.433827 246.775955 
L 99.509937 168.614813 
L 99.586047 181.444551 
L 99.662156 246.120731 
L 99.738266 245.925675 
L 99.890486 246.894248 
L 100.042706 170.725618 
L 100.118816 246.67059 
L 100.194926 180.52415 
L 100.271036 186.888779 
L 100.347146 169.889337 
L 100.499366 245.847577 
L 100.651586 170.608347 
L 100.727696 206.353295 
L 100.803805 178.801329 
L 100.956025 239.75183 
L 101.032135 208.522377 
L 101.108245 244.13569 
L 101.184355 234.652316 
L 101.336575 183.089646 
L 101.412685 240.41232 
L 101.488795 178.469639 
L 101.564905 237.31157 
L 101.641015 193.003246 
L 101.717125 239.346863 
L 101.793235 234.511843 
L 101.869345 237.784752 
L 101.945455 187.483354 
L 102.021564 241.481219 
L 102.097674 238.38092 
L 102.326004 185.109881 
L 102.402114 208.638166 
L 102.554334 186.489011 
L 102.630444 222.716564 
L 102.706554 190.223584 
L 102.782664 219.187522 
L 102.858774 204.295979 
L 102.934884 237.45765 
L 103.010994 234.437119 
L 103.087104 204.04979 
L 103.239323 228.234121 
L 103.467653 211.905767 
L 103.543763 219.473962 
L 103.619873 195.444023 
L 103.848203 228.112835 
L 103.924313 227.572072 
L 104.000423 228.883449 
L 104.076533 202.382621 
L 104.152643 220.710059 
L 104.304863 202.359598 
L 104.380973 202.768808 
L 104.457082 217.104003 
L 104.533192 205.355247 
L 104.609302 207.083913 
L 104.837632 225.133159 
L 104.989852 221.695073 
L 105.065962 224.404253 
L 105.142072 214.102865 
L 105.218182 219.486576 
L 105.294292 216.875695 
L 105.522622 222.682779 
L 105.598732 218.448804 
L 105.827061 224.464224 
L 105.903171 221.20193 
L 105.979281 221.903919 
L 106.359831 229.265166 
L 106.435941 227.425425 
L 106.512051 228.302322 
L 106.588161 228.238181 
L 106.664271 218.309358 
L 106.740381 229.034341 
L 106.81649 228.806629 
L 106.8926 225.055579 
L 106.96871 229.603787 
L 107.04482 227.976694 
L 107.19704 223.747579 
L 107.27315 228.983734 
L 107.34926 227.075894 
L 107.42537 228.944507 
L 107.50148 221.68471 
L 107.6537 226.336542 
L 107.72981 224.208356 
L 107.80592 224.760833 
L 107.88203 227.933135 
L 107.95814 220.066444 
L 108.034249 225.898667 
L 108.110359 224.780011 
L 108.186469 224.397487 
L 108.262579 226.952378 
L 108.338689 226.676122 
L 108.414799 223.767637 
L 108.490909 225.461368 
L 108.567019 225.107781 
L 108.795349 227.73115 
L 108.947569 226.304369 
L 109.023679 218.171398 
L 109.099789 228.898428 
L 109.175899 224.091475 
L 109.328118 230.519661 
L 109.556448 194.832028 
L 109.708668 228.262143 
L 109.784778 228.882119 
L 109.860888 202.749681 
L 109.936998 230.431287 
L 110.013108 228.751288 
L 110.089218 227.846826 
L 110.165328 228.221301 
L 110.241438 230.307158 
L 110.317548 227.939127 
L 110.393658 229.736799 
L 110.469767 224.743492 
L 110.698097 230.202742 
L 110.774207 227.174575 
L 110.850317 229.987089 
L 111.078647 224.468129 
L 111.154757 230.510557 
L 111.230867 228.727067 
L 111.306977 228.055133 
L 111.459197 229.943033 
L 111.535307 229.446269 
L 111.611416 229.947173 
L 111.687526 227.439368 
L 111.839746 230.808068 
L 111.991966 228.161735 
L 112.144186 230.462112 
L 112.372516 228.059581 
L 112.524736 230.973924 
L 112.676956 230.66493 
L 112.753066 230.510015 
L 112.829175 227.555145 
L 112.905285 219.055058 
L 113.057505 229.825356 
L 113.133615 228.697659 
L 113.209725 228.791228 
L 113.514165 229.962539 
L 113.590275 228.656652 
L 113.742495 230.625645 
L 113.894715 229.171199 
L 113.970825 229.35495 
L 114.046934 230.975191 
L 114.123044 229.099468 
L 114.199154 229.280948 
L 114.275264 229.619012 
L 114.351374 231.079072 
L 114.427484 224.710043 
L 114.503594 231.257923 
L 114.579704 230.805181 
L 114.655814 231.230379 
L 114.884144 224.326098 
L 115.036364 231.268752 
L 115.188584 225.954459 
L 115.264693 231.242277 
L 115.340803 229.095808 
L 115.416913 229.003259 
L 115.493023 229.325311 
L 115.569133 230.639713 
L 115.645243 229.377003 
L 115.721353 231.1209 
L 115.797463 229.294743 
L 115.949683 230.823505 
L 116.025793 229.099496 
L 116.101903 229.708169 
L 116.178013 229.819612 
L 116.254123 229.351446 
L 116.330233 230.069621 
L 116.406342 229.674772 
L 116.482452 229.987522 
L 116.558562 229.077777 
L 116.634672 229.365059 
L 116.786892 231.709835 
L 116.939112 229.869969 
L 117.015222 229.942006 
L 117.091332 229.796544 
L 117.167442 230.223929 
L 117.243552 229.665506 
L 117.319662 230.351276 
L 117.471882 227.756279 
L 117.547992 229.561712 
L 117.624101 229.295575 
L 117.700211 229.482042 
L 117.776321 231.395974 
L 117.852431 230.803256 
L 117.928541 229.491275 
L 118.156871 231.206908 
L 118.461311 229.31506 
L 118.537421 225.355356 
L 118.689641 229.653752 
L 118.765751 229.225846 
L 118.84186 231.684973 
L 118.91797 230.158776 
L 118.99408 230.739423 
L 119.07019 229.369457 
L 119.1463 229.669913 
L 119.22241 229.292275 
L 119.29852 223.750884 
L 119.45074 230.014017 
L 119.52685 229.735113 
L 119.60296 227.610274 
L 119.75518 230.354178 
L 119.9074 229.886362 
L 119.98351 230.830555 
L 120.059619 229.250209 
L 120.135729 231.040942 
L 120.211839 229.725409 
L 120.287949 230.629229 
L 120.364059 229.458966 
L 120.440169 229.687227 
L 120.516279 230.4996 
L 120.668499 229.519389 
L 120.744609 230.231134 
L 120.820719 229.726946 
L 120.896829 230.154738 
L 120.972939 229.616267 
L 121.049049 229.775137 
L 121.125159 230.775008 
L 121.201268 229.673306 
L 121.353488 231.257263 
L 121.429598 229.649621 
L 121.505708 229.953209 
L 121.581818 230.194154 
L 121.657928 229.644364 
L 121.734038 229.993063 
L 121.810148 229.837506 
L 121.886258 231.245836 
L 121.962368 229.775219 
L 122.038478 230.983467 
L 122.114588 227.792626 
L 122.190698 230.636617 
L 122.266808 229.904742 
L 122.419027 230.630021 
L 122.495137 231.685087 
L 122.723467 229.726552 
L 122.875687 230.542379 
L 122.951797 230.398845 
L 123.027907 227.901486 
L 123.180127 230.955845 
L 123.256237 229.859094 
L 123.332347 230.135921 
L 123.408457 231.227251 
L 123.484567 230.771064 
L 123.560677 229.704465 
L 123.636786 230.627457 
L 123.712896 230.261671 
L 123.789006 230.609377 
L 123.941226 229.957342 
L 124.017336 230.544702 
L 124.093446 229.978465 
L 124.169556 231.339779 
L 124.321776 230.187955 
L 124.473996 231.194024 
L 124.550106 230.601383 
L 124.626216 230.635879 
L 124.778436 230.381234 
L 124.854545 229.245363 
L 124.930655 230.392004 
L 125.006765 230.270921 
L 125.082875 230.366401 
L 125.235095 229.965062 
L 125.311205 230.980907 
L 125.387315 230.362936 
L 125.463425 230.711653 
L 125.539535 230.255441 
L 125.615645 230.471152 
L 125.767865 230.447174 
L 125.843975 230.703206 
L 125.996195 229.659623 
L 126.148414 230.984974 
L 126.300634 229.412762 
L 126.376744 229.55196 
L 126.452854 231.095318 
L 126.528964 228.50246 
L 126.681184 231.422657 
L 126.757294 231.099955 
L 126.833404 231.619175 
L 127.061734 230.379494 
L 127.137844 231.106192 
L 127.366173 228.805567 
L 127.442283 229.194935 
L 127.518393 231.331801 
L 127.594503 229.237277 
L 127.746723 230.588181 
L 127.822833 229.135141 
L 127.975053 230.229961 
L 128.051163 222.629572 
L 128.203383 231.001098 
L 128.660042 229.64275 
L 128.736152 230.233907 
L 128.812262 229.556292 
L 128.964482 230.649814 
L 129.040592 228.929278 
L 129.116702 230.78304 
L 129.192812 229.322536 
L 129.268922 230.191853 
L 129.345032 228.904804 
L 129.421142 231.335551 
L 129.497252 229.314582 
L 129.573362 231.68279 
L 129.725581 229.698465 
L 129.801691 229.891686 
L 129.877801 229.732349 
L 129.953911 230.537092 
L 130.030021 230.192719 
L 130.106131 230.096939 
L 130.182241 230.888023 
L 130.258351 230.74628 
L 130.334461 230.92996 
L 130.410571 230.252747 
L 130.486681 230.939639 
L 130.562791 230.88821 
L 130.638901 230.924548 
L 130.86723 229.402786 
L 130.94334 229.980868 
L 131.01945 231.124275 
L 131.09556 231.098423 
L 131.24778 230.584893 
L 131.32389 231.603978 
L 131.4 230.587946 
L 131.47611 231.611911 
L 131.55222 230.017703 
L 131.78055 231.544171 
L 131.93277 229.096217 
L 132.161099 231.535784 
L 132.389429 228.726308 
L 132.465539 231.105663 
L 132.541649 230.20311 
L 132.617759 230.488391 
L 132.693869 227.796738 
L 132.846089 230.730991 
L 132.998309 230.759943 
L 133.074419 230.370483 
L 133.150529 231.253723 
L 133.226638 230.623102 
L 133.302748 230.73869 
L 133.378858 230.550398 
L 133.454968 231.260954 
L 133.531078 230.550616 
L 133.607188 230.966934 
L 133.683298 229.901666 
L 133.911628 231.713402 
L 134.063848 230.653523 
L 134.139958 230.811461 
L 134.216068 230.668674 
L 134.292178 231.867646 
L 134.444397 230.904448 
L 134.596617 231.605728 
L 134.672727 231.464657 
L 134.748837 229.412332 
L 134.824947 230.964157 
L 134.901057 230.690304 
L 134.977167 231.743566 
L 135.053277 230.798617 
L 135.205497 225.686163 
L 135.281607 230.529002 
L 135.357717 228.585749 
L 135.433827 230.630084 
L 135.509937 229.6175 
L 135.586047 229.774269 
L 135.662156 230.26008 
L 135.738266 230.23379 
L 135.814376 223.225216 
L 135.890486 231.361672 
L 135.966596 229.980495 
L 136.118816 230.777613 
L 136.194926 230.607504 
L 136.271036 230.340125 
L 136.347146 230.986158 
L 136.423256 230.654416 
L 136.499366 230.842073 
L 136.575476 228.152487 
L 136.651586 231.206988 
L 136.727696 227.278707 
L 136.803805 231.256113 
L 136.879915 231.027344 
L 136.956025 230.479726 
L 137.032135 230.801072 
L 137.108245 230.777871 
L 137.260465 231.361739 
L 137.336575 231.04553 
L 137.488795 230.808505 
L 137.564905 230.763002 
L 137.641015 230.866314 
L 137.869345 231.709503 
L 138.097674 228.661149 
L 138.326004 231.070504 
L 138.402114 230.559407 
L 138.478224 230.801336 
L 138.630444 230.819671 
L 138.782664 231.631083 
L 138.858774 230.915627 
L 138.934884 231.504524 
L 139.163214 230.820885 
L 139.391543 231.700968 
L 139.543763 230.679297 
L 139.619873 230.894761 
L 139.772093 230.889932 
L 139.848203 231.632797 
L 139.924313 229.77885 
L 140.000423 230.973224 
L 140.076533 230.93714 
L 140.228753 230.665322 
L 140.380973 230.967952 
L 140.609302 230.93525 
L 140.685412 230.585813 
L 140.913742 231.864399 
L 141.065962 231.102168 
L 141.218182 231.350862 
L 141.294292 230.73869 
L 141.446512 231.393079 
L 141.522622 231.215336 
L 141.598732 230.284774 
L 141.674841 231.20823 
L 141.750951 230.860814 
L 141.827061 230.951537 
L 141.903171 231.391576 
L 141.979281 230.737107 
L 142.131501 231.52059 
L 142.207611 231.240325 
L 142.283721 231.452807 
L 142.359831 231.064121 
L 142.435941 231.367959 
L 142.512051 231.128124 
L 142.588161 231.402075 
L 142.664271 231.014083 
L 142.740381 231.100124 
L 142.8926 231.01914 
L 142.96871 231.384659 
L 143.04482 230.954917 
L 143.19704 231.480293 
L 143.42537 231.042432 
L 143.50148 231.288736 
L 143.57759 231.145824 
L 143.72981 231.485722 
L 143.80592 231.556971 
L 143.95814 231.153739 
L 144.034249 231.632416 
L 144.110359 231.148093 
L 144.186469 231.541857 
L 144.338689 230.97517 
L 144.414799 231.34089 
L 144.490909 231.291566 
L 144.567019 229.328431 
L 144.643129 231.186226 
L 144.719239 231.027821 
L 144.947569 231.472491 
L 145.099789 231.09675 
L 145.175899 231.052501 
L 145.404228 231.606004 
L 145.556448 231.189867 
L 145.632558 231.133353 
L 145.708668 230.123473 
L 145.784778 231.510097 
L 145.860888 231.139178 
L 145.936998 231.40649 
L 146.013108 230.951059 
L 146.089218 231.715583 
L 146.165328 230.005316 
L 146.317548 231.487855 
L 146.393658 231.006049 
L 146.545877 231.308946 
L 146.698097 231.035901 
L 146.774207 230.074751 
L 146.850317 231.187038 
L 146.926427 230.932393 
L 147.002537 228.026336 
L 147.078647 231.133835 
L 147.154757 230.996923 
L 147.230867 231.156273 
L 147.306977 231.019697 
L 147.535307 231.31383 
L 147.611416 231.332604 
L 147.687526 231.221503 
L 147.763636 231.39155 
L 147.839746 231.166477 
L 147.915856 227.801999 
L 148.068076 231.336544 
L 148.144186 230.439545 
L 148.220296 231.439421 
L 148.296406 231.273585 
L 148.372516 231.207302 
L 148.600846 231.57037 
L 148.829175 230.392667 
L 148.981395 231.172548 
L 149.057505 231.342655 
L 149.133615 231.198465 
L 149.209725 231.251635 
L 149.361945 231.180022 
L 149.438055 231.210385 
L 149.514165 231.585891 
L 149.818605 230.862369 
L 149.970825 231.332598 
L 150.046934 231.50986 
L 150.199154 231.221863 
L 150.275264 231.429469 
L 150.351374 231.385617 
L 150.427484 231.330776 
L 150.503594 231.066063 
L 150.579704 231.422765 
L 150.731924 231.116192 
L 150.960254 231.647556 
L 151.112474 231.227598 
L 151.188584 231.250835 
L 151.340803 231.615254 
L 151.416913 231.32939 
L 151.493023 231.421402 
L 151.645243 231.134152 
L 151.797463 231.440304 
L 151.873573 231.246538 
L 151.949683 231.715428 
L 152.025793 231.389208 
L 152.101903 231.447978 
L 152.178013 231.342705 
L 152.254123 231.437813 
L 152.406342 231.359985 
L 152.482452 231.516596 
L 152.558562 231.31045 
L 152.634672 231.356698 
L 152.786892 231.365095 
L 152.863002 230.998292 
L 152.939112 231.448647 
L 153.015222 231.422645 
L 153.091332 231.482047 
L 153.167442 229.64628 
L 153.243552 231.717352 
L 153.319662 231.467497 
L 153.395772 231.186188 
L 153.624101 231.962963 
L 153.852431 231.247491 
L 154.004651 231.905856 
L 154.080761 230.610451 
L 154.232981 231.645946 
L 154.309091 231.588849 
L 154.461311 231.401089 
L 154.537421 231.343157 
L 154.689641 231.432272 
L 154.765751 231.41905 
L 154.99408 231.699732 
L 155.1463 231.190353 
L 155.29852 231.53626 
L 155.37463 231.512201 
L 155.60296 231.283554 
L 155.67907 231.564553 
L 155.75518 231.389273 
L 155.83129 231.43194 
L 156.059619 231.453414 
L 156.211839 231.477044 
L 156.440169 231.352726 
L 156.668499 231.576686 
L 156.744609 231.75374 
L 156.896829 230.888901 
L 157.049049 231.287422 
L 157.125159 231.233626 
L 157.201268 231.342715 
L 157.277378 232.126877 
L 157.353488 231.229637 
L 157.429598 231.367741 
L 157.581818 231.270575 
L 157.657928 231.554784 
L 157.734038 231.443005 
L 158.114588 231.541579 
L 158.266808 231.502488 
L 158.342918 230.919339 
L 158.495137 231.717191 
L 158.647357 231.512805 
L 158.799577 231.538886 
L 158.875687 231.580679 
L 158.951797 230.657183 
L 159.104017 231.526456 
L 159.180127 231.446353 
L 159.256237 231.811181 
L 159.332347 231.500841 
L 159.408457 231.580272 
L 159.484567 231.524869 
L 159.560677 231.910371 
L 159.789006 230.331191 
L 159.865116 232.137653 
L 159.941226 231.496552 
L 160.017336 229.567703 
L 160.093446 230.798747 
L 160.169556 230.686057 
L 160.245666 230.486849 
L 160.321776 229.452585 
L 160.397886 230.689723 
L 160.473996 230.308469 
L 160.550106 230.833214 
L 160.626216 232.683379 
L 160.702326 230.686147 
L 160.778436 231.108218 
L 161.006765 231.256613 
L 161.082875 230.98901 
L 161.235095 231.568996 
L 161.311205 231.503708 
L 161.387315 231.28367 
L 161.463425 231.424194 
L 161.539535 230.306656 
L 161.691755 231.66901 
L 161.767865 231.673314 
L 161.920085 231.491218 
L 161.996195 230.668708 
L 162.072304 231.583491 
L 162.148414 231.553566 
L 162.224524 231.424744 
L 162.300634 231.521277 
L 162.376744 231.398958 
L 162.452854 231.478273 
L 162.985624 231.647377 
L 163.213953 231.525457 
L 163.442283 231.718328 
L 163.518393 231.44203 
L 163.594503 231.520392 
L 163.670613 231.500823 
L 163.746723 231.632011 
L 163.822833 231.519324 
L 163.975053 231.587592 
L 164.203383 231.585054 
L 164.279493 231.676517 
L 164.431712 231.618634 
L 164.812262 231.615177 
L 164.964482 231.575328 
L 165.116702 231.627064 
L 165.192812 231.499939 
L 165.268922 231.549667 
L 165.421142 231.681677 
L 165.497252 231.543979 
L 165.573362 231.678166 
L 165.649471 231.63307 
L 165.953911 231.663648 
L 166.030021 231.115432 
L 166.106131 231.663286 
L 166.182241 231.631101 
L 166.715011 231.66503 
L 166.791121 231.570432 
L 166.94334 231.69514 
L 167.17167 231.652258 
L 167.24778 231.317511 
L 167.4 231.659958 
L 167.55222 231.658475 
L 167.78055 231.681294 
L 167.93277 231.616378 
L 168.008879 232.060755 
L 168.161099 231.693054 
L 168.313319 231.671549 
L 168.465539 231.616565 
L 168.541649 232.069302 
L 168.693869 231.614923 
L 168.846089 231.703544 
L 168.922199 231.810577 
L 169.150529 231.620472 
L 169.378858 231.688081 
L 169.607188 231.639479 
L 169.759408 231.737287 
L 169.835518 231.260037 
L 169.987738 231.71735 
L 170.368288 231.691423 
L 170.520507 231.708123 
L 170.824947 231.794216 
L 170.901057 231.657612 
L 170.977167 231.717247 
L 171.205497 231.62422 
L 171.281607 231.775937 
L 171.357717 231.402915 
L 171.433827 231.648335 
L 171.509937 231.015693 
L 171.662156 231.623499 
L 171.814376 231.655818 
L 171.890486 231.731143 
L 171.966596 232.186458 
L 172.118816 231.6794 
L 172.271036 231.683727 
L 172.347146 230.516663 
L 172.423256 231.685651 
L 172.499366 231.62091 
L 172.575476 232.125386 
L 172.803805 231.418727 
L 172.879915 232.195831 
L 173.032135 231.66804 
L 173.260465 231.675245 
L 173.717125 231.693013 
L 173.793235 231.502922 
L 173.945455 231.71957 
L 174.173784 231.72324 
L 174.326004 231.698953 
L 174.402114 231.189611 
L 174.554334 231.713579 
L 174.706554 231.734034 
L 174.782664 232.303928 
L 174.934884 231.709725 
L 175.163214 231.704623 
L 175.391543 231.77643 
L 175.467653 231.095069 
L 175.543763 231.721811 
L 175.619873 231.148633 
L 175.695983 231.775136 
L 175.772093 231.736109 
L 176.228753 231.715113 
L 176.304863 231.769922 
L 176.380973 231.507185 
L 176.533192 231.713124 
L 176.989852 231.692494 
L 177.065962 231.558246 
L 177.142072 231.155216 
L 177.294292 231.712082 
L 177.522622 231.748403 
L 177.598732 228.483785 
L 177.750951 231.744948 
L 177.903171 231.680142 
L 178.131501 231.715303 
L 178.207611 231.637049 
L 178.283721 231.711944 
L 178.435941 231.73798 
L 178.512051 231.40998 
L 178.588161 231.783926 
L 178.664271 231.687625 
L 178.8926 231.782593 
L 179.04482 231.726166 
L 179.19704 231.745375 
L 179.34926 231.735269 
L 179.57759 231.713103 
L 179.6537 231.333704 
L 179.80592 231.72677 
L 179.88203 231.397645 
L 180.034249 231.743015 
L 180.338689 231.728656 
L 180.567019 231.726813 
L 180.719239 231.744401 
L 180.947569 231.731582 
L 181.023679 231.563027 
L 181.175899 231.727638 
L 181.632558 231.743174 
L 181.708668 231.749491 
L 181.784778 231.403347 
L 181.860888 231.778307 
L 181.936998 231.716134 
L 182.165328 231.728135 
L 182.621987 231.773859 
L 182.698097 231.211381 
L 182.850317 232.093833 
L 183.002537 231.671796 
L 183.763636 231.755888 
L 184.372516 231.712267 
L 185.666385 231.731965 
L 185.742495 231.11474 
L 185.894715 231.764581 
L 185.970825 231.914331 
L 186.199154 231.695022 
L 186.579704 231.731123 
L 186.960254 231.752558 
L 187.188584 231.724779 
L 187.264693 232.189136 
L 187.493023 231.140306 
L 187.569133 231.721262 
L 187.645243 231.682885 
L 188.634672 231.702589 
L 188.710782 231.758431 
L 188.786892 231.67396 
L 188.939112 231.788589 
L 189.015222 231.468976 
L 189.167442 231.764461 
L 189.471882 231.707908 
L 189.547992 231.791947 
L 189.624101 231.375678 
L 189.776321 231.752352 
L 190.080761 231.697967 
L 190.385201 231.739769 
L 190.461311 231.468722 
L 190.613531 231.729631 
L 191.67907 231.694875 
L 191.75518 231.864382 
L 191.83129 231.546928 
L 191.9074 231.752511 
L 191.98351 231.674993 
L 192.364059 231.687083 
L 192.516279 231.735386 
L 192.744609 231.747829 
L 192.820719 231.449705 
L 192.896829 231.707979 
L 192.972939 231.682857 
L 193.201268 231.667462 
L 193.277378 231.592164 
L 193.429598 231.655114 
L 193.581818 231.751053 
L 193.657928 230.521984 
L 193.734038 231.735834 
L 193.810148 231.703366 
L 193.886258 230.983762 
L 194.038478 231.712881 
L 194.875687 231.749822 
L 194.951797 231.616415 
L 195.104017 231.734742 
L 195.560677 231.778901 
L 195.941226 231.738466 
L 196.321776 231.738983 
L 196.778436 231.718196 
L 196.930655 231.725739 
L 197.235095 231.796876 
L 197.311205 230.707279 
L 197.463425 231.774002 
L 197.615645 231.448904 
L 197.767865 231.758185 
L 197.920085 231.719085 
L 198.072304 231.643599 
L 198.148414 231.747301 
L 198.224524 231.629223 
L 198.300634 231.705456 
L 198.452854 231.706164 
L 198.528964 231.543611 
L 198.681184 231.713693 
L 198.833404 231.762331 
L 198.909514 228.899142 
L 198.985624 231.720786 
L 199.061734 231.685634 
L 199.290063 231.735842 
L 199.366173 231.037244 
L 199.442283 231.705878 
L 199.518393 231.636308 
L 199.746723 231.616725 
L 199.975053 231.668812 
L 200.051163 232.117049 
L 200.203383 231.723083 
L 200.355603 231.689537 
L 200.660042 231.735151 
L 200.736152 231.515992 
L 200.888372 231.715128 
L 201.801691 231.737513 
L 201.877801 231.522618 
L 202.030021 231.740171 
L 202.334461 231.709297 
L 202.410571 232.111056 
L 202.562791 231.663601 
L 202.715011 231.586989 
L 202.86723 231.711671 
L 203.47611 231.688374 
L 203.55222 229.957756 
L 203.70444 231.736311 
L 203.93277 231.724204 
L 204.237209 231.707835 
L 204.693869 231.708569 
L 205.378858 231.76854 
L 205.454968 231.520954 
L 205.531078 231.726123 
L 205.607188 231.681425 
L 206.368288 231.762659 
L 206.444397 231.095657 
L 206.596617 231.724672 
L 206.901057 231.73514 
L 207.509937 231.712887 
L 207.738266 231.782942 
L 207.966596 231.745222 
L 208.347146 231.769182 
L 208.499366 231.733297 
L 208.651586 231.723449 
L 208.727696 231.519488 
L 208.879915 231.726269 
L 209.260465 231.768592 
L 209.488795 231.715538 
L 209.717125 231.687386 
L 209.793235 231.490507 
L 209.945455 231.743566 
L 211.239323 231.739728 
L 211.467653 231.757348 
L 211.619873 231.6897 
L 211.848203 231.75245 
L 212.076533 231.71651 
L 212.228753 231.725399 
L 212.304863 231.592821 
L 212.380973 231.754588 
L 212.457082 231.464905 
L 212.685412 231.75238 
L 216.795349 231.75216 
L 217.708668 231.751126 
L 218.013108 231.734919 
L 218.241438 231.777319 
L 218.850317 231.729855 
L 219.002537 231.738596 
L 219.078647 231.471335 
L 219.230867 231.754881 
L 220.372516 231.762641 
L 220.753066 231.738156 
L 221.285835 231.780877 
L 221.361945 231.725386 
L 221.514165 245.540896 
L 221.666385 241.862906 
L 221.818605 245.879065 
L 221.894715 245.573065 
L 221.970825 246.228677 
L 222.046934 240.630837 
L 222.199154 246.573408 
L 222.275264 245.071078 
L 222.351374 246.58983 
L 222.427484 244.435588 
L 222.503594 247.203697 
L 222.579704 246.612554 
L 222.655814 241.334796 
L 222.731924 242.215529 
L 222.808034 246.621505 
L 222.884144 238.0181 
L 222.960254 244.960126 
L 223.036364 238.517959 
L 223.112474 238.59138 
L 223.264693 245.083879 
L 223.340803 244.237911 
L 223.416913 242.005266 
L 223.493023 246.204213 
L 223.569133 242.833706 
L 223.645243 246.483444 
L 223.721353 242.469055 
L 223.797463 226.799163 
L 223.873573 247.256107 
L 223.949683 236.556967 
L 224.101903 242.584896 
L 224.178013 237.807929 
L 224.254123 244.312943 
L 224.330233 243.499001 
L 224.406342 241.660529 
L 224.482452 242.615139 
L 224.634672 247.067401 
L 224.710782 189.958459 
L 224.786892 196.610026 
L 226.080761 219.085799 
L 226.156871 247.238182 
L 226.232981 221.233889 
L 226.309091 222.198775 
L 226.385201 247.37653 
L 226.461311 224.024999 
L 226.537421 246.959536 
L 226.613531 225.954115 
L 226.689641 226.963357 
L 226.765751 247.096705 
L 226.84186 228.585566 
L 226.91797 229.005907 
L 227.07019 230.310966 
L 227.1463 247.403091 
L 227.22241 232.136055 
L 227.29852 232.706971 
L 227.75518 236.249702 
L 227.83129 247.355969 
L 227.9074 237.853658 
L 227.98351 238.525996 
L 228.059619 239.267797 
L 228.135729 239.01717 
L 228.211839 239.232999 
L 228.287949 247.379207 
L 228.364059 247.2867 
L 228.516279 240.917957 
L 228.744609 243.147027 
L 228.820719 242.047014 
L 228.896829 242.371028 
L 228.972939 242.025653 
L 229.125159 245.336272 
L 229.201268 240.456634 
L 229.277378 246.801306 
L 229.353488 241.480648 
L 229.429598 245.88062 
L 229.505708 244.354805 
L 229.581818 242.680189 
L 229.734038 247.464685 
L 229.886258 244.410495 
L 230.038478 246.555668 
L 230.114588 247.404547 
L 230.190698 247.050806 
L 230.266808 246.409876 
L 230.342918 247.438139 
L 230.419027 246.995878 
L 230.495137 246.927547 
L 230.571247 246.518964 
L 230.647357 246.971765 
L 230.723467 245.569324 
L 230.799577 246.675937 
L 230.875687 246.428492 
L 230.951797 246.56941 
L 231.027907 247.11817 
L 231.180127 246.421478 
L 231.256237 246.675077 
L 231.332347 247.468614 
L 231.408457 246.460277 
L 231.484567 246.898999 
L 231.560677 247.428546 
L 231.636786 246.006801 
L 231.712896 247.447739 
L 231.789006 245.999388 
L 231.865116 246.507822 
L 232.017336 247.157516 
L 232.093446 246.554684 
L 232.169556 247.312503 
L 232.245666 247.083151 
L 232.321776 247.010684 
L 232.397886 247.464429 
L 232.473996 247.449424 
L 232.626216 246.42918 
L 232.778436 247.386084 
L 232.854545 247.271441 
L 233.006765 247.447943 
L 233.082875 246.884681 
L 233.158985 247.093852 
L 233.235095 247.091473 
L 233.311205 246.862323 
L 233.539535 247.470396 
L 233.691755 247.305284 
L 233.843975 247.472462 
L 233.996195 247.279667 
L 234.148414 247.414362 
L 234.376744 247.055635 
L 234.528964 247.475157 
L 234.605074 247.453921 
L 234.681184 247.212286 
L 234.909514 247.482433 
L 234.985624 247.279195 
L 235.061734 247.487604 
L 235.137844 247.436791 
L 235.213953 247.242433 
L 235.290063 247.419203 
L 235.366173 247.359467 
L 235.518393 247.484803 
L 235.594503 247.356772 
L 235.670613 247.437873 
L 235.975053 247.473953 
L 236.051163 246.984609 
L 236.203383 247.468547 
L 236.583932 247.316629 
L 236.736152 247.421879 
L 236.888372 247.482061 
L 236.964482 247.386164 
L 237.116702 247.489484 
L 237.192812 247.389195 
L 237.345032 247.477364 
L 237.497252 247.4136 
L 237.573362 247.296003 
L 237.725581 247.474608 
L 240.237209 247.433256 
L 240.313319 247.349689 
L 240.465539 247.455481 
L 240.693869 247.479691 
L 241.302748 247.451099 
L 241.378858 247.478428 
L 241.454968 247.336479 
L 241.607188 247.435954 
L 241.911628 247.464396 
L 242.139958 247.457784 
L 242.824947 247.480912 
L 242.977167 247.488217 
L 249.827061 247.484815 
L 252.110359 247.490759 
L 255.991966 247.496739 
L 256.600846 247.496855 
L 258.427484 247.496636 
L 267.484567 247.492265 
L 268.550106 247.499558 
L 275.01945 247.503658 
L 279.738266 247.50001 
L 281.336575 247.50339 
L 284.609302 247.503057 
L 284.761522 247.505049 
L 291.383087 247.505404 
L 313.987738 247.506099 
L 314.977167 247.507082 
L 373.581818 247.507281 
L 373.581818 247.507281 
" style="fill:none;stroke:#1f77b4;stroke-linecap:square;stroke-width:1.5;"/>
   </g>
   <g id="line2d_29">
    <path clip-path="url(#pfe2b8079aa)" d="M 221.438055 252 
L 221.438055 153.163636 
" style="fill:none;stroke:#000000;stroke-dasharray:1.5,2.475;stroke-dashoffset:0;stroke-opacity:0.5;stroke-width:1.5;"/>
   </g>
   <g id="patch_10">
    <path d="M 54 252 
L 54 153.163636 
" style="fill:none;stroke:#000000;stroke-linecap:square;stroke-linejoin:miter;stroke-width:0.8;"/>
   </g>
   <g id="patch_11">
    <path d="M 388.8 252 
L 388.8 153.163636 
" style="fill:none;stroke:#000000;stroke-linecap:square;stroke-linejoin:miter;stroke-width:0.8;"/>
   </g>
   <g id="patch_12">
    <path d="M 54 252 
L 388.8 252 
" style="fill:none;stroke:#000000;stroke-linecap:square;stroke-linejoin:miter;stroke-width:0.8;"/>
   </g>
   <g id="patch_13">
    <path d="M 54 153.163636 
L 388.8 153.163636 
" style="fill:none;stroke:#000000;stroke-linecap:square;stroke-linejoin:miter;stroke-width:0.8;"/>
   </g>
  </g>
 </g>
 <defs>
  <clipPath id="p80d0f8e15c">
   <rect height="98.836364" width="334.8" x="54" y="34.56"/>
  </clipPath>
  <clipPath id="pfe2b8079aa">
   <rect height="98.836364" width="334.8" x="54" y="153.163636"/>
  </clipPath>
 </defs>
</svg>
