<?xml version="1.0" encoding="utf-8" standalone="no"?>
<!DOCTYPE svg PUBLIC "-//W3C//DTD SVG 1.1//EN"
  "http://www.w3.org/Graphics/SVG/1.1/DTD/svg11.dtd">
<!-- Created with matplotlib (https://matplotlib.org/) -->
<svg height="288pt" version="1.1" viewBox="0 0 432 288" width="432pt" xmlns="http://www.w3.org/2000/svg" xmlns:xlink="http://www.w3.org/1999/xlink">
 <defs>
  <style type="text/css">
*{stroke-linecap:butt;stroke-linejoin:round;}
  </style>
 </defs>
 <g id="figure_1">
  <g id="patch_1">
   <path d="M 0 288 
L 432 288 
L 432 0 
L 0 0 
z
" style="fill:#ffffff;"/>
  </g>
  <g id="axes_1">
   <g id="patch_2">
    <path d="M 54 252 
L 388.8 252 
L 388.8 34.56 
L 54 34.56 
z
" style="fill:#ffffff;"/>
   </g>
   <g id="matplotlib.axis_1">
    <g id="xtick_1">
     <g id="line2d_1">
      <defs>
       <path d="M 0 0 
L 0 3.5 
" id="m168ef77b0f" style="stroke:#000000;stroke-width:0.8;"/>
      </defs>
      <g>
       <use style="stroke:#000000;stroke-width:0.8;" x="69.218182" xlink:href="#m168ef77b0f" y="252"/>
      </g>
     </g>
     <g id="text_1">
      <!-- 0 -->
      <defs>
       <path d="M 31.78125 66.40625 
Q 24.171875 66.40625 20.328125 58.90625 
Q 16.5 51.421875 16.5 36.375 
Q 16.5 21.390625 20.328125 13.890625 
Q 24.171875 6.390625 31.78125 6.390625 
Q 39.453125 6.390625 43.28125 13.890625 
Q 47.125 21.390625 47.125 36.375 
Q 47.125 51.421875 43.28125 58.90625 
Q 39.453125 66.40625 31.78125 66.40625 
z
M 31.78125 74.21875 
Q 44.046875 74.21875 50.515625 64.515625 
Q 56.984375 54.828125 56.984375 36.375 
Q 56.984375 17.96875 50.515625 8.265625 
Q 44.046875 -1.421875 31.78125 -1.421875 
Q 19.53125 -1.421875 13.0625 8.265625 
Q 6.59375 17.96875 6.59375 36.375 
Q 6.59375 54.828125 13.0625 64.515625 
Q 19.53125 74.21875 31.78125 74.21875 
z
" id="DejaVuSans-48"/>
      </defs>
      <g transform="translate(66.036932 266.598437)scale(0.1 -0.1)">
       <use xlink:href="#DejaVuSans-48"/>
      </g>
     </g>
    </g>
    <g id="xtick_2">
     <g id="line2d_2">
      <g>
       <use style="stroke:#000000;stroke-width:0.8;" x="107.282669" xlink:href="#m168ef77b0f" y="252"/>
      </g>
     </g>
     <g id="text_2">
      <!-- 250 -->
      <defs>
       <path d="M 19.1875 8.296875 
L 53.609375 8.296875 
L 53.609375 0 
L 7.328125 0 
L 7.328125 8.296875 
Q 12.9375 14.109375 22.625 23.890625 
Q 32.328125 33.6875 34.8125 36.53125 
Q 39.546875 41.84375 41.421875 45.53125 
Q 43.3125 49.21875 43.3125 52.78125 
Q 43.3125 58.59375 39.234375 62.25 
Q 35.15625 65.921875 28.609375 65.921875 
Q 23.96875 65.921875 18.8125 64.3125 
Q 13.671875 62.703125 7.8125 59.421875 
L 7.8125 69.390625 
Q 13.765625 71.78125 18.9375 73 
Q 24.125 74.21875 28.421875 74.21875 
Q 39.75 74.21875 46.484375 68.546875 
Q 53.21875 62.890625 53.21875 53.421875 
Q 53.21875 48.921875 51.53125 44.890625 
Q 49.859375 40.875 45.40625 35.40625 
Q 44.1875 33.984375 37.640625 27.21875 
Q 31.109375 20.453125 19.1875 8.296875 
z
" id="DejaVuSans-50"/>
       <path d="M 10.796875 72.90625 
L 49.515625 72.90625 
L 49.515625 64.59375 
L 19.828125 64.59375 
L 19.828125 46.734375 
Q 21.96875 47.46875 24.109375 47.828125 
Q 26.265625 48.1875 28.421875 48.1875 
Q 40.625 48.1875 47.75 41.5 
Q 54.890625 34.8125 54.890625 23.390625 
Q 54.890625 11.625 47.5625 5.09375 
Q 40.234375 -1.421875 26.90625 -1.421875 
Q 22.3125 -1.421875 17.546875 -0.640625 
Q 12.796875 0.140625 7.71875 1.703125 
L 7.71875 11.625 
Q 12.109375 9.234375 16.796875 8.0625 
Q 21.484375 6.890625 26.703125 6.890625 
Q 35.15625 6.890625 40.078125 11.328125 
Q 45.015625 15.765625 45.015625 23.390625 
Q 45.015625 31 40.078125 35.4375 
Q 35.15625 39.890625 26.703125 39.890625 
Q 22.75 39.890625 18.8125 39.015625 
Q 14.890625 38.140625 10.796875 36.28125 
z
" id="DejaVuSans-53"/>
      </defs>
      <g transform="translate(97.738919 266.598437)scale(0.1 -0.1)">
       <use xlink:href="#DejaVuSans-50"/>
       <use x="63.623047" xlink:href="#DejaVuSans-53"/>
       <use x="127.246094" xlink:href="#DejaVuSans-48"/>
      </g>
     </g>
    </g>
    <g id="xtick_3">
     <g id="line2d_3">
      <g>
       <use style="stroke:#000000;stroke-width:0.8;" x="145.347155" xlink:href="#m168ef77b0f" y="252"/>
      </g>
     </g>
     <g id="text_3">
      <!-- 500 -->
      <g transform="translate(135.803405 266.598437)scale(0.1 -0.1)">
       <use xlink:href="#DejaVuSans-53"/>
       <use x="63.623047" xlink:href="#DejaVuSans-48"/>
       <use x="127.246094" xlink:href="#DejaVuSans-48"/>
      </g>
     </g>
    </g>
    <g id="xtick_4">
     <g id="line2d_4">
      <g>
       <use style="stroke:#000000;stroke-width:0.8;" x="183.411642" xlink:href="#m168ef77b0f" y="252"/>
      </g>
     </g>
     <g id="text_4">
      <!-- 750 -->
      <defs>
       <path d="M 8.203125 72.90625 
L 55.078125 72.90625 
L 55.078125 68.703125 
L 28.609375 0 
L 18.3125 0 
L 43.21875 64.59375 
L 8.203125 64.59375 
z
" id="DejaVuSans-55"/>
      </defs>
      <g transform="translate(173.867892 266.598437)scale(0.1 -0.1)">
       <use xlink:href="#DejaVuSans-55"/>
       <use x="63.623047" xlink:href="#DejaVuSans-53"/>
       <use x="127.246094" xlink:href="#DejaVuSans-48"/>
      </g>
     </g>
    </g>
    <g id="xtick_5">
     <g id="line2d_5">
      <g>
       <use style="stroke:#000000;stroke-width:0.8;" x="221.476129" xlink:href="#m168ef77b0f" y="252"/>
      </g>
     </g>
     <g id="text_5">
      <!-- 1000 -->
      <defs>
       <path d="M 12.40625 8.296875 
L 28.515625 8.296875 
L 28.515625 63.921875 
L 10.984375 60.40625 
L 10.984375 69.390625 
L 28.421875 72.90625 
L 38.28125 72.90625 
L 38.28125 8.296875 
L 54.390625 8.296875 
L 54.390625 0 
L 12.40625 0 
z
" id="DejaVuSans-49"/>
      </defs>
      <g transform="translate(208.751129 266.598437)scale(0.1 -0.1)">
       <use xlink:href="#DejaVuSans-49"/>
       <use x="63.623047" xlink:href="#DejaVuSans-48"/>
       <use x="127.246094" xlink:href="#DejaVuSans-48"/>
       <use x="190.869141" xlink:href="#DejaVuSans-48"/>
      </g>
     </g>
    </g>
    <g id="xtick_6">
     <g id="line2d_6">
      <g>
       <use style="stroke:#000000;stroke-width:0.8;" x="259.540616" xlink:href="#m168ef77b0f" y="252"/>
      </g>
     </g>
     <g id="text_6">
      <!-- 1250 -->
      <g transform="translate(246.815616 266.598437)scale(0.1 -0.1)">
       <use xlink:href="#DejaVuSans-49"/>
       <use x="63.623047" xlink:href="#DejaVuSans-50"/>
       <use x="127.246094" xlink:href="#DejaVuSans-53"/>
       <use x="190.869141" xlink:href="#DejaVuSans-48"/>
      </g>
     </g>
    </g>
    <g id="xtick_7">
     <g id="line2d_7">
      <g>
       <use style="stroke:#000000;stroke-width:0.8;" x="297.605103" xlink:href="#m168ef77b0f" y="252"/>
      </g>
     </g>
     <g id="text_7">
      <!-- 1500 -->
      <g transform="translate(284.880103 266.598437)scale(0.1 -0.1)">
       <use xlink:href="#DejaVuSans-49"/>
       <use x="63.623047" xlink:href="#DejaVuSans-53"/>
       <use x="127.246094" xlink:href="#DejaVuSans-48"/>
       <use x="190.869141" xlink:href="#DejaVuSans-48"/>
      </g>
     </g>
    </g>
    <g id="xtick_8">
     <g id="line2d_8">
      <g>
       <use style="stroke:#000000;stroke-width:0.8;" x="335.669589" xlink:href="#m168ef77b0f" y="252"/>
      </g>
     </g>
     <g id="text_8">
      <!-- 1750 -->
      <g transform="translate(322.944589 266.598437)scale(0.1 -0.1)">
       <use xlink:href="#DejaVuSans-49"/>
       <use x="63.623047" xlink:href="#DejaVuSans-55"/>
       <use x="127.246094" xlink:href="#DejaVuSans-53"/>
       <use x="190.869141" xlink:href="#DejaVuSans-48"/>
      </g>
     </g>
    </g>
    <g id="xtick_9">
     <g id="line2d_9">
      <g>
       <use style="stroke:#000000;stroke-width:0.8;" x="373.734076" xlink:href="#m168ef77b0f" y="252"/>
      </g>
     </g>
     <g id="text_9">
      <!-- 2000 -->
      <g transform="translate(361.009076 266.598437)scale(0.1 -0.1)">
       <use xlink:href="#DejaVuSans-50"/>
       <use x="63.623047" xlink:href="#DejaVuSans-48"/>
       <use x="127.246094" xlink:href="#DejaVuSans-48"/>
       <use x="190.869141" xlink:href="#DejaVuSans-48"/>
      </g>
     </g>
    </g>
   </g>
   <g id="matplotlib.axis_2">
    <g id="ytick_1">
     <g id="line2d_10">
      <defs>
       <path d="M 0 0 
L -3.5 0 
" id="m090106fcb6" style="stroke:#000000;stroke-width:0.8;"/>
      </defs>
      <g>
       <use style="stroke:#000000;stroke-width:0.8;" x="54" xlink:href="#m090106fcb6" y="247.930267"/>
      </g>
     </g>
     <g id="text_10">
      <!-- 0.825 -->
      <defs>
       <path d="M 10.6875 12.40625 
L 21 12.40625 
L 21 0 
L 10.6875 0 
z
" id="DejaVuSans-46"/>
       <path d="M 31.78125 34.625 
Q 24.75 34.625 20.71875 30.859375 
Q 16.703125 27.09375 16.703125 20.515625 
Q 16.703125 13.921875 20.71875 10.15625 
Q 24.75 6.390625 31.78125 6.390625 
Q 38.8125 6.390625 42.859375 10.171875 
Q 46.921875 13.96875 46.921875 20.515625 
Q 46.921875 27.09375 42.890625 30.859375 
Q 38.875 34.625 31.78125 34.625 
z
M 21.921875 38.8125 
Q 15.578125 40.375 12.03125 44.71875 
Q 8.5 49.078125 8.5 55.328125 
Q 8.5 64.0625 14.71875 69.140625 
Q 20.953125 74.21875 31.78125 74.21875 
Q 42.671875 74.21875 48.875 69.140625 
Q 55.078125 64.0625 55.078125 55.328125 
Q 55.078125 49.078125 51.53125 44.71875 
Q 48 40.375 41.703125 38.8125 
Q 48.828125 37.15625 52.796875 32.3125 
Q 56.78125 27.484375 56.78125 20.515625 
Q 56.78125 9.90625 50.3125 4.234375 
Q 43.84375 -1.421875 31.78125 -1.421875 
Q 19.734375 -1.421875 13.25 4.234375 
Q 6.78125 9.90625 6.78125 20.515625 
Q 6.78125 27.484375 10.78125 32.3125 
Q 14.796875 37.15625 21.921875 38.8125 
z
M 18.3125 54.390625 
Q 18.3125 48.734375 21.84375 45.5625 
Q 25.390625 42.390625 31.78125 42.390625 
Q 38.140625 42.390625 41.71875 45.5625 
Q 45.3125 48.734375 45.3125 54.390625 
Q 45.3125 60.0625 41.71875 63.234375 
Q 38.140625 66.40625 31.78125 66.40625 
Q 25.390625 66.40625 21.84375 63.234375 
Q 18.3125 60.0625 18.3125 54.390625 
z
" id="DejaVuSans-56"/>
      </defs>
      <g transform="translate(18.371875 251.729486)scale(0.1 -0.1)">
       <use xlink:href="#DejaVuSans-48"/>
       <use x="63.623047" xlink:href="#DejaVuSans-46"/>
       <use x="95.410156" xlink:href="#DejaVuSans-56"/>
       <use x="159.033203" xlink:href="#DejaVuSans-50"/>
       <use x="222.65625" xlink:href="#DejaVuSans-53"/>
      </g>
     </g>
    </g>
    <g id="ytick_2">
     <g id="line2d_11">
      <g>
       <use style="stroke:#000000;stroke-width:0.8;" x="54" xlink:href="#m090106fcb6" y="218.860749"/>
      </g>
     </g>
     <g id="text_11">
      <!-- 0.850 -->
      <g transform="translate(18.371875 222.659967)scale(0.1 -0.1)">
       <use xlink:href="#DejaVuSans-48"/>
       <use x="63.623047" xlink:href="#DejaVuSans-46"/>
       <use x="95.410156" xlink:href="#DejaVuSans-56"/>
       <use x="159.033203" xlink:href="#DejaVuSans-53"/>
       <use x="222.65625" xlink:href="#DejaVuSans-48"/>
      </g>
     </g>
    </g>
    <g id="ytick_3">
     <g id="line2d_12">
      <g>
       <use style="stroke:#000000;stroke-width:0.8;" x="54" xlink:href="#m090106fcb6" y="189.79123"/>
      </g>
     </g>
     <g id="text_12">
      <!-- 0.875 -->
      <g transform="translate(18.371875 193.590449)scale(0.1 -0.1)">
       <use xlink:href="#DejaVuSans-48"/>
       <use x="63.623047" xlink:href="#DejaVuSans-46"/>
       <use x="95.410156" xlink:href="#DejaVuSans-56"/>
       <use x="159.033203" xlink:href="#DejaVuSans-55"/>
       <use x="222.65625" xlink:href="#DejaVuSans-53"/>
      </g>
     </g>
    </g>
    <g id="ytick_4">
     <g id="line2d_13">
      <g>
       <use style="stroke:#000000;stroke-width:0.8;" x="54" xlink:href="#m090106fcb6" y="160.721711"/>
      </g>
     </g>
     <g id="text_13">
      <!-- 0.900 -->
      <defs>
       <path d="M 10.984375 1.515625 
L 10.984375 10.5 
Q 14.703125 8.734375 18.5 7.8125 
Q 22.3125 6.890625 25.984375 6.890625 
Q 35.75 6.890625 40.890625 13.453125 
Q 46.046875 20.015625 46.78125 33.40625 
Q 43.953125 29.203125 39.59375 26.953125 
Q 35.25 24.703125 29.984375 24.703125 
Q 19.046875 24.703125 12.671875 31.3125 
Q 6.296875 37.9375 6.296875 49.421875 
Q 6.296875 60.640625 12.9375 67.421875 
Q 19.578125 74.21875 30.609375 74.21875 
Q 43.265625 74.21875 49.921875 64.515625 
Q 56.59375 54.828125 56.59375 36.375 
Q 56.59375 19.140625 48.40625 8.859375 
Q 40.234375 -1.421875 26.421875 -1.421875 
Q 22.703125 -1.421875 18.890625 -0.6875 
Q 15.09375 0.046875 10.984375 1.515625 
z
M 30.609375 32.421875 
Q 37.25 32.421875 41.125 36.953125 
Q 45.015625 41.5 45.015625 49.421875 
Q 45.015625 57.28125 41.125 61.84375 
Q 37.25 66.40625 30.609375 66.40625 
Q 23.96875 66.40625 20.09375 61.84375 
Q 16.21875 57.28125 16.21875 49.421875 
Q 16.21875 41.5 20.09375 36.953125 
Q 23.96875 32.421875 30.609375 32.421875 
z
" id="DejaVuSans-57"/>
      </defs>
      <g transform="translate(18.371875 164.52093)scale(0.1 -0.1)">
       <use xlink:href="#DejaVuSans-48"/>
       <use x="63.623047" xlink:href="#DejaVuSans-46"/>
       <use x="95.410156" xlink:href="#DejaVuSans-57"/>
       <use x="159.033203" xlink:href="#DejaVuSans-48"/>
       <use x="222.65625" xlink:href="#DejaVuSans-48"/>
      </g>
     </g>
    </g>
    <g id="ytick_5">
     <g id="line2d_14">
      <g>
       <use style="stroke:#000000;stroke-width:0.8;" x="54" xlink:href="#m090106fcb6" y="131.652193"/>
      </g>
     </g>
     <g id="text_14">
      <!-- 0.925 -->
      <g transform="translate(18.371875 135.451411)scale(0.1 -0.1)">
       <use xlink:href="#DejaVuSans-48"/>
       <use x="63.623047" xlink:href="#DejaVuSans-46"/>
       <use x="95.410156" xlink:href="#DejaVuSans-57"/>
       <use x="159.033203" xlink:href="#DejaVuSans-50"/>
       <use x="222.65625" xlink:href="#DejaVuSans-53"/>
      </g>
     </g>
    </g>
    <g id="ytick_6">
     <g id="line2d_15">
      <g>
       <use style="stroke:#000000;stroke-width:0.8;" x="54" xlink:href="#m090106fcb6" y="102.582674"/>
      </g>
     </g>
     <g id="text_15">
      <!-- 0.950 -->
      <g transform="translate(18.371875 106.381893)scale(0.1 -0.1)">
       <use xlink:href="#DejaVuSans-48"/>
       <use x="63.623047" xlink:href="#DejaVuSans-46"/>
       <use x="95.410156" xlink:href="#DejaVuSans-57"/>
       <use x="159.033203" xlink:href="#DejaVuSans-53"/>
       <use x="222.65625" xlink:href="#DejaVuSans-48"/>
      </g>
     </g>
    </g>
    <g id="ytick_7">
     <g id="line2d_16">
      <g>
       <use style="stroke:#000000;stroke-width:0.8;" x="54" xlink:href="#m090106fcb6" y="73.513155"/>
      </g>
     </g>
     <g id="text_16">
      <!-- 0.975 -->
      <g transform="translate(18.371875 77.312374)scale(0.1 -0.1)">
       <use xlink:href="#DejaVuSans-48"/>
       <use x="63.623047" xlink:href="#DejaVuSans-46"/>
       <use x="95.410156" xlink:href="#DejaVuSans-57"/>
       <use x="159.033203" xlink:href="#DejaVuSans-55"/>
       <use x="222.65625" xlink:href="#DejaVuSans-53"/>
      </g>
     </g>
    </g>
    <g id="ytick_8">
     <g id="line2d_17">
      <g>
       <use style="stroke:#000000;stroke-width:0.8;" x="54" xlink:href="#m090106fcb6" y="44.443636"/>
      </g>
     </g>
     <g id="text_17">
      <!-- 1.000 -->
      <g transform="translate(18.371875 48.242855)scale(0.1 -0.1)">
       <use xlink:href="#DejaVuSans-49"/>
       <use x="63.623047" xlink:href="#DejaVuSans-46"/>
       <use x="95.410156" xlink:href="#DejaVuSans-48"/>
       <use x="159.033203" xlink:href="#DejaVuSans-48"/>
       <use x="222.65625" xlink:href="#DejaVuSans-48"/>
      </g>
     </g>
    </g>
   </g>
   <g id="line2d_18">
    <path clip-path="url(#p021d07f70c)" d="M 69.218182 120.024385 
L 69.37044 118.861604 
L 69.522698 120.799572 
L 69.674956 121.187166 
L 69.827214 121.187166 
L 69.979472 120.799572 
L 70.13173 121.187166 
L 70.436245 120.024385 
L 70.740761 116.923636 
L 70.893019 116.923636 
L 71.349793 113.435294 
L 71.502051 114.598075 
L 71.654309 112.272513 
L 71.806567 114.210481 
L 71.958825 110.334545 
L 72.111083 110.722139 
L 72.415599 112.660107 
L 72.567857 111.109733 
L 72.720115 113.435294 
L 73.02463 110.722139 
L 73.176888 111.109733 
L 73.329146 111.88492 
L 73.633662 111.109733 
L 73.78592 110.334545 
L 73.938178 111.109733 
L 74.090436 110.722139 
L 74.242694 113.047701 
L 74.394952 113.435294 
L 74.54721 116.923636 
L 74.699468 114.598075 
L 74.851726 115.760856 
L 75.003984 114.985668 
L 75.156242 115.760856 
L 75.3085 114.210481 
L 75.460758 115.760856 
L 75.613016 115.760856 
L 75.765274 118.086417 
L 75.917531 117.698824 
L 76.069789 115.373262 
L 76.222047 115.760856 
L 76.374305 115.373262 
L 76.526563 114.210481 
L 76.678821 116.536043 
L 76.983337 113.047701 
L 77.135595 113.435294 
L 77.287853 111.88492 
L 77.440111 113.047701 
L 77.744627 118.086417 
L 78.049143 116.536043 
L 78.201401 115.760856 
L 78.353659 116.148449 
L 78.505917 115.760856 
L 78.658175 116.536043 
L 78.810432 116.536043 
L 78.96269 118.086417 
L 79.114948 115.373262 
L 79.267206 115.760856 
L 79.419464 118.086417 
L 79.571722 118.086417 
L 79.72398 117.31123 
L 80.028496 118.086417 
L 80.180754 118.086417 
L 80.333012 115.760856 
L 80.48527 116.536043 
L 80.637528 116.536043 
L 80.942044 114.210481 
L 81.094302 114.985668 
L 81.24656 112.272513 
L 81.551076 116.148449 
L 81.703333 115.373262 
L 81.855591 115.760856 
L 82.007849 115.760856 
L 82.160107 115.373262 
L 82.616881 111.88492 
L 82.769139 114.598075 
L 82.921397 113.822888 
L 83.682687 106.45861 
L 83.834945 108.396578 
L 83.987203 106.846203 
L 84.139461 108.008984 
L 84.291719 108.008984 
L 84.596234 109.171765 
L 84.748492 111.497326 
L 84.90075 111.109733 
L 85.053008 109.559358 
L 85.357524 114.210481 
L 85.66204 115.760856 
L 85.966556 116.536043 
L 86.118814 116.148449 
L 86.271072 118.086417 
L 86.575588 117.31123 
L 86.727846 116.536043 
L 86.880104 117.698824 
L 87.032362 117.31123 
L 87.18462 118.474011 
L 87.336878 114.210481 
L 87.489135 114.598075 
L 87.793651 121.574759 
L 87.945909 120.799572 
L 88.250425 123.900321 
L 88.402683 124.287914 
L 88.554941 124.287914 
L 88.707199 127.00107 
L 89.011715 127.00107 
L 89.316231 124.675508 
L 89.468489 127.00107 
L 89.620747 127.00107 
L 89.773005 125.063102 
L 89.925263 127.00107 
L 90.077521 123.900321 
L 90.229779 123.900321 
L 90.382036 124.675508 
L 90.534294 122.73754 
L 90.83881 121.962353 
L 90.991068 121.962353 
L 91.143326 124.287914 
L 91.447842 121.574759 
L 91.752358 123.125134 
L 92.056874 128.551444 
L 92.209132 127.776257 
L 92.36139 123.512727 
L 92.513648 125.063102 
L 92.665906 123.512727 
L 92.818164 123.900321 
L 92.970422 123.512727 
L 93.12268 125.063102 
L 93.274937 122.349947 
L 93.427195 121.962353 
L 93.579453 123.125134 
L 93.883969 121.187166 
L 94.036227 119.249198 
L 94.188485 121.574759 
L 94.340743 120.799572 
L 94.493001 117.31123 
L 94.645259 120.799572 
L 94.949775 118.474011 
L 95.254291 121.574759 
L 95.406549 121.574759 
L 95.558807 123.512727 
L 95.863323 121.187166 
L 96.167838 120.024385 
L 96.320096 120.024385 
L 96.77687 115.760856 
L 96.929128 118.086417 
L 97.081386 116.923636 
L 97.385902 117.698824 
L 97.53816 117.31123 
L 97.690418 114.210481 
L 97.994934 115.760856 
L 98.147192 114.985668 
L 98.29945 115.373262 
L 98.451708 114.598075 
L 99.060739 122.349947 
L 99.212997 119.636791 
L 99.365255 119.636791 
L 99.517513 119.249198 
L 99.822029 117.31123 
L 99.974287 116.923636 
L 100.126545 114.598075 
L 100.583319 119.249198 
L 100.735577 118.086417 
L 100.887835 118.086417 
L 101.192351 115.760856 
L 101.344609 116.536043 
L 101.801383 112.272513 
L 101.95364 113.435294 
L 102.105898 112.272513 
L 102.258156 113.822888 
L 102.410414 111.109733 
L 102.562672 114.598075 
L 102.71493 115.373262 
L 102.867188 113.822888 
L 103.171704 113.822888 
L 103.323962 109.559358 
L 103.47622 109.946952 
L 103.780736 108.784171 
L 104.085252 111.88492 
L 104.23751 111.88492 
L 104.389768 110.334545 
L 104.542026 111.497326 
L 104.998799 106.846203 
L 105.151057 108.008984 
L 105.303315 110.722139 
L 105.455573 108.784171 
L 105.760089 110.334545 
L 105.912347 112.660107 
L 106.064605 112.660107 
L 106.369121 120.024385 
L 106.521379 119.636791 
L 106.673637 117.698824 
L 106.825895 118.474011 
L 106.978153 120.024385 
L 107.282669 114.210481 
L 107.434927 114.985668 
L 107.587185 116.923636 
L 107.739442 116.148449 
L 107.8917 116.536043 
L 108.043958 116.536043 
L 108.348474 120.799572 
L 108.65299 120.799572 
L 108.805248 121.187166 
L 108.957506 120.799572 
L 109.109764 119.636791 
L 109.262022 120.024385 
L 109.718796 122.73754 
L 109.871054 121.187166 
L 110.17557 123.900321 
L 110.327828 124.675508 
L 110.480085 124.675508 
L 110.632343 125.063102 
L 110.784601 122.349947 
L 110.936859 122.73754 
L 111.089117 121.574759 
L 111.241375 125.063102 
L 111.393633 123.900321 
L 111.545891 124.287914 
L 111.698149 124.287914 
L 112.002665 128.551444 
L 112.611697 124.675508 
L 112.763955 125.063102 
L 112.916213 123.900321 
L 113.220729 124.675508 
L 113.372986 127.776257 
L 113.82976 126.613476 
L 113.982018 127.388663 
L 115.047824 120.024385 
L 115.35234 118.861604 
L 115.504598 115.373262 
L 115.656856 117.698824 
L 115.809114 116.923636 
L 115.961372 118.086417 
L 116.11363 118.086417 
L 116.418145 114.985668 
L 116.570403 115.373262 
L 116.874919 114.210481 
L 117.179435 116.536043 
L 117.331693 114.210481 
L 117.483951 114.598075 
L 117.636209 113.822888 
L 117.788467 112.272513 
L 118.245241 113.435294 
L 118.397499 115.760856 
L 118.549757 114.210481 
L 118.702015 113.822888 
L 118.854273 113.822888 
L 119.006531 113.047701 
L 119.158788 113.047701 
L 119.311046 114.598075 
L 119.463304 114.598075 
L 119.615562 112.660107 
L 120.072336 116.148449 
L 120.376852 113.047701 
L 120.52911 115.373262 
L 120.681368 113.047701 
L 120.833626 113.047701 
L 121.2904 110.722139 
L 121.594916 112.272513 
L 122.203947 107.62139 
L 122.356205 107.62139 
L 122.508463 102.970267 
L 122.812979 105.683422 
L 122.965237 103.745455 
L 123.269753 110.722139 
L 123.574269 109.946952 
L 123.726527 111.109733 
L 124.031043 108.008984 
L 124.335559 108.784171 
L 124.487817 108.008984 
L 124.792333 109.559358 
L 124.94459 109.559358 
L 125.096848 104.520642 
L 125.553622 113.047701 
L 125.70588 113.047701 
L 126.010396 118.861604 
L 126.162654 116.148449 
L 126.314912 115.760856 
L 126.771686 119.636791 
L 126.923944 119.249198 
L 127.076202 119.249198 
L 127.380718 115.760856 
L 127.532976 117.698824 
L 127.837491 108.784171 
L 127.989749 108.784171 
L 128.142007 108.396578 
L 128.294265 106.45861 
L 128.446523 107.62139 
L 128.751039 106.846203 
L 129.055555 108.784171 
L 129.207813 107.62139 
L 129.360071 107.62139 
L 129.512329 107.233797 
L 129.664587 108.396578 
L 129.969103 107.62139 
L 130.121361 104.133048 
L 130.273619 106.071016 
L 130.578135 99.869519 
L 130.730392 99.869519 
L 130.88265 100.257112 
L 131.187166 96.76877 
L 131.491682 98.319144 
L 131.796198 99.094332 
L 131.948456 98.706738 
L 132.100714 97.156364 
L 132.252972 100.644706 
L 132.40523 101.032299 
L 132.862004 103.745455 
L 133.014262 101.807487 
L 133.318778 108.396578 
L 133.471036 108.784171 
L 133.623293 107.62139 
L 133.775551 109.946952 
L 133.927809 108.008984 
L 134.080067 108.784171 
L 134.232325 111.109733 
L 134.384583 108.008984 
L 134.536841 107.62139 
L 134.689099 107.62139 
L 134.841357 108.008984 
L 134.993615 110.334545 
L 135.145873 109.171765 
L 135.450389 112.660107 
L 135.602647 112.660107 
L 135.754905 114.985668 
L 136.059421 115.760856 
L 136.211679 117.698824 
L 136.363937 117.698824 
L 136.668452 120.799572 
L 136.82071 120.411979 
L 136.972968 120.411979 
L 137.277484 117.698824 
L 137.582 121.574759 
L 137.734258 118.086417 
L 137.886516 118.474011 
L 138.038774 117.31123 
L 138.191032 117.31123 
L 138.34329 114.985668 
L 138.495548 115.760856 
L 138.647806 115.373262 
L 138.800064 113.047701 
L 138.952322 115.760856 
L 139.10458 115.760856 
L 139.256838 115.373262 
L 139.561353 111.497326 
L 139.713611 112.272513 
L 139.865869 111.88492 
L 140.170385 108.008984 
L 140.474901 106.45861 
L 140.627159 106.45861 
L 140.779417 108.784171 
L 140.931675 108.784171 
L 141.236191 105.683422 
L 141.388449 102.19508 
L 141.692965 105.295829 
L 141.845223 106.45861 
L 141.997481 105.295829 
L 142.149739 106.071016 
L 142.301996 105.683422 
L 142.454254 104.520642 
L 142.606512 104.520642 
L 142.75877 103.745455 
L 143.215544 104.908235 
L 143.367802 104.908235 
L 143.52006 104.520642 
L 143.824576 107.233797 
L 143.976834 108.008984 
L 144.28135 111.497326 
L 144.433608 111.497326 
L 144.738124 114.210481 
L 145.04264 113.435294 
L 145.194897 113.822888 
L 145.347155 112.272513 
L 145.499413 112.272513 
L 145.956187 114.985668 
L 146.108445 113.435294 
L 146.412961 116.536043 
L 146.717477 114.598075 
L 146.869735 116.148449 
L 147.021993 116.148449 
L 147.174251 117.698824 
L 147.326509 117.698824 
L 147.478767 118.861604 
L 147.631025 118.861604 
L 147.783283 117.698824 
L 147.93554 118.086417 
L 148.087798 118.861604 
L 148.392314 116.923636 
L 148.544572 116.536043 
L 148.849088 113.435294 
L 149.001346 113.435294 
L 149.153604 112.272513 
L 149.305862 114.210481 
L 149.45812 114.210481 
L 149.610378 113.435294 
L 149.762636 114.985668 
L 149.914894 114.210481 
L 150.067152 114.598075 
L 150.21941 117.698824 
L 150.371668 116.536043 
L 150.523926 116.923636 
L 150.676184 118.861604 
L 150.980699 116.148449 
L 151.132957 115.373262 
L 151.285215 115.760856 
L 151.437473 115.373262 
L 151.589731 115.373262 
L 151.741989 113.047701 
L 151.894247 114.210481 
L 152.046505 113.822888 
L 152.198763 112.272513 
L 152.351021 112.272513 
L 152.503279 111.88492 
L 152.655537 110.334545 
L 152.807795 110.334545 
L 153.569085 113.822888 
L 153.721342 113.047701 
L 153.8736 114.598075 
L 154.63489 111.109733 
L 154.787148 108.396578 
L 154.939406 110.722139 
L 155.091664 109.946952 
L 155.243922 108.396578 
L 155.39618 109.171765 
L 155.548438 106.846203 
L 155.700696 108.396578 
L 156.005212 106.071016 
L 156.15747 107.233797 
L 156.461986 106.071016 
L 156.614243 104.133048 
L 156.918759 106.846203 
L 157.071017 107.233797 
L 157.375533 109.946952 
L 157.680049 107.233797 
L 157.832307 104.133048 
L 157.984565 105.295829 
L 158.136823 104.133048 
L 158.289081 107.62139 
L 158.441339 105.295829 
L 158.745855 108.008984 
L 158.898113 108.008984 
L 159.050371 108.396578 
L 159.202629 109.946952 
L 159.354887 108.784171 
L 159.507144 108.784171 
L 159.81166 112.272513 
L 159.963918 111.109733 
L 160.116176 112.272513 
L 160.268434 110.334545 
L 160.420692 112.660107 
L 160.57295 111.88492 
L 160.725208 112.272513 
L 160.877466 115.373262 
L 161.181982 116.923636 
L 161.33424 116.536043 
L 161.638756 116.536043 
L 161.791014 114.985668 
L 162.247788 121.187166 
L 162.552303 123.125134 
L 162.704561 122.349947 
L 162.856819 118.861604 
L 163.009077 120.024385 
L 163.161335 119.249198 
L 163.313593 120.411979 
L 163.465851 118.474011 
L 163.618109 119.636791 
L 163.922625 116.148449 
L 164.074883 115.373262 
L 164.227141 113.435294 
L 164.379399 113.047701 
L 164.683915 113.047701 
L 164.836173 114.985668 
L 164.988431 114.598075 
L 165.140689 115.760856 
L 165.292946 114.598075 
L 165.445204 110.722139 
L 165.74972 115.373262 
L 165.901978 114.210481 
L 166.358752 116.536043 
L 166.663268 110.722139 
L 166.815526 111.109733 
L 166.967784 111.109733 
L 167.120042 110.722139 
L 167.424558 113.435294 
L 167.576816 112.272513 
L 167.881332 108.396578 
L 168.185847 109.171765 
L 168.794879 113.435294 
L 168.947137 111.109733 
L 169.099395 111.88492 
L 169.860685 108.396578 
L 170.012943 109.946952 
L 170.317459 104.908235 
L 170.621975 105.683422 
L 170.774233 105.683422 
L 170.926491 106.071016 
L 171.078748 108.008984 
L 171.231006 108.396578 
L 171.383264 108.008984 
L 171.535522 108.008984 
L 171.68778 107.233797 
L 171.840038 107.233797 
L 171.992296 107.62139 
L 172.144554 106.45861 
L 172.296812 108.396578 
L 172.44907 108.784171 
L 172.601328 108.396578 
L 172.753586 106.846203 
L 172.905844 107.62139 
L 173.058102 107.62139 
L 173.21036 106.071016 
L 173.362618 107.233797 
L 173.514876 106.846203 
L 173.667134 104.908235 
L 173.819392 105.683422 
L 173.971649 105.683422 
L 174.276165 110.334545 
L 174.428423 110.722139 
L 174.732939 110.722139 
L 174.885197 108.784171 
L 175.037455 109.171765 
L 175.189713 108.396578 
L 175.341971 109.171765 
L 175.494229 108.784171 
L 175.646487 107.62139 
L 175.798745 109.171765 
L 175.951003 109.559358 
L 176.103261 110.334545 
L 176.255519 109.559358 
L 176.407777 108.008984 
L 176.86455 109.171765 
L 177.016808 108.784171 
L 177.62584 114.598075 
L 177.778098 114.598075 
L 177.930356 112.660107 
L 178.234872 115.373262 
L 178.38713 116.536043 
L 178.539388 115.373262 
L 178.691646 111.497326 
L 178.843904 112.660107 
L 178.996162 112.272513 
L 179.14842 110.334545 
L 179.300678 110.722139 
L 179.605194 113.435294 
L 179.757451 113.047701 
L 179.909709 111.109733 
L 180.061967 111.109733 
L 180.214225 111.497326 
L 180.366483 109.559358 
L 180.518741 110.722139 
L 180.823257 109.171765 
L 180.975515 110.722139 
L 181.127773 109.171765 
L 181.432289 110.722139 
L 181.584547 111.109733 
L 181.736805 110.334545 
L 181.889063 110.722139 
L 182.041321 110.722139 
L 182.345837 108.008984 
L 182.498095 109.946952 
L 182.80261 109.946952 
L 183.107126 107.62139 
L 183.259384 108.008984 
L 183.411642 107.62139 
L 183.5639 108.008984 
L 183.868416 109.946952 
L 184.020674 109.559358 
L 184.477448 107.233797 
L 184.629706 107.62139 
L 184.781964 106.846203 
L 184.934222 108.396578 
L 185.08648 106.846203 
L 185.238738 106.45861 
L 185.390995 107.233797 
L 185.543253 106.846203 
L 185.695511 106.071016 
L 186.000027 107.62139 
L 186.152285 106.846203 
L 186.304543 108.396578 
L 186.456801 106.071016 
L 186.609059 106.071016 
L 186.761317 107.62139 
L 186.913575 110.334545 
L 187.065833 108.396578 
L 187.370349 109.171765 
L 187.522607 108.784171 
L 187.674865 110.722139 
L 187.827123 109.946952 
L 188.131639 107.233797 
L 188.283896 109.171765 
L 188.436154 108.008984 
L 188.588412 108.396578 
L 188.74067 108.396578 
L 189.50196 113.435294 
L 189.654218 114.210481 
L 189.806476 113.822888 
L 189.958734 112.660107 
L 190.110992 113.435294 
L 190.26325 113.435294 
L 190.415508 111.497326 
L 190.567766 111.109733 
L 190.720024 112.660107 
L 190.872282 109.946952 
L 191.02454 110.334545 
L 191.329055 107.233797 
L 191.481313 106.45861 
L 191.938087 108.396578 
L 192.090345 108.784171 
L 192.242603 107.62139 
L 192.547119 110.722139 
L 192.699377 111.109733 
L 192.851635 110.722139 
L 193.003893 112.272513 
L 193.156151 112.272513 
L 193.612925 109.559358 
L 193.765183 108.784171 
L 193.917441 109.171765 
L 194.221956 107.233797 
L 194.526472 111.109733 
L 194.67873 110.334545 
L 194.830988 111.109733 
L 194.983246 113.047701 
L 195.135504 112.660107 
L 195.287762 112.660107 
L 195.44002 115.373262 
L 195.592278 114.598075 
L 195.744536 118.474011 
L 196.20131 115.373262 
L 196.353568 112.272513 
L 196.505826 112.660107 
L 196.658084 111.109733 
L 196.810342 111.497326 
L 197.114857 113.047701 
L 197.267115 116.536043 
L 197.571631 113.047701 
L 197.723889 113.047701 
L 198.028405 115.760856 
L 198.332921 113.047701 
L 198.485179 111.88492 
L 198.637437 111.88492 
L 198.789695 112.660107 
L 199.094211 111.88492 
L 199.398727 113.047701 
L 199.703243 109.559358 
L 199.8555 110.334545 
L 200.007758 107.62139 
L 200.160016 108.396578 
L 200.312274 106.071016 
L 200.464532 106.846203 
L 200.61679 106.071016 
L 200.769048 106.846203 
L 200.921306 108.784171 
L 201.073564 108.008984 
L 201.37808 111.109733 
L 201.530338 109.171765 
L 201.682596 108.784171 
L 201.834854 106.45861 
L 201.987112 106.846203 
L 202.13937 109.171765 
L 202.291628 109.559358 
L 202.443886 109.171765 
L 202.596144 109.171765 
L 202.748401 111.497326 
L 202.900659 111.497326 
L 203.052917 110.722139 
L 203.205175 111.109733 
L 203.509691 111.109733 
L 203.661949 111.497326 
L 203.814207 112.660107 
L 203.966465 111.497326 
L 204.118723 113.435294 
L 204.575497 114.598075 
L 204.727755 114.598075 
L 205.032271 112.660107 
L 205.184529 113.047701 
L 205.489045 114.598075 
L 205.641302 113.822888 
L 205.79356 116.923636 
L 205.945818 117.31123 
L 206.098076 120.411979 
L 206.402592 117.698824 
L 206.55485 116.923636 
L 206.859366 113.822888 
L 207.011624 113.435294 
L 207.31614 109.946952 
L 207.468398 109.171765 
L 207.620656 110.334545 
L 207.772914 110.334545 
L 208.07743 108.784171 
L 208.229688 108.008984 
L 208.381946 106.071016 
L 208.534203 106.45861 
L 208.686461 104.133048 
L 208.838719 105.295829 
L 209.143235 104.133048 
L 209.295493 104.908235 
L 209.752267 109.559358 
L 209.904525 108.784171 
L 210.056783 108.784171 
L 210.209041 109.946952 
L 210.361299 107.233797 
L 210.513557 106.846203 
L 210.665815 103.745455 
L 210.818073 104.133048 
L 210.970331 104.133048 
L 211.122589 106.071016 
L 211.274847 104.520642 
L 211.427104 106.45861 
L 211.579362 106.45861 
L 211.73162 106.846203 
L 212.49291 110.334545 
L 212.797426 110.334545 
L 213.2542 118.474011 
L 213.406458 117.31123 
L 213.558716 114.985668 
L 213.710974 114.985668 
L 213.863232 113.435294 
L 214.01549 109.946952 
L 214.167748 110.334545 
L 214.320005 108.784171 
L 214.472263 110.722139 
L 214.624521 110.722139 
L 214.776779 109.559358 
L 214.929037 110.334545 
L 215.081295 108.396578 
L 215.385811 109.946952 
L 215.538069 113.435294 
L 215.690327 112.660107 
L 215.842585 114.985668 
L 216.147101 113.435294 
L 216.451617 117.31123 
L 216.603875 118.086417 
L 216.908391 114.210481 
L 217.365164 118.474011 
L 217.517422 114.985668 
L 217.66968 115.760856 
L 217.821938 112.660107 
L 217.974196 113.047701 
L 218.43097 119.249198 
L 218.583228 119.636791 
L 218.735486 118.861604 
L 218.887744 120.024385 
L 219.040002 118.474011 
L 219.19226 119.249198 
L 219.344518 121.187166 
L 219.496776 120.024385 
L 219.649034 120.411979 
L 219.801292 119.249198 
L 219.95355 119.249198 
L 220.105807 115.760856 
L 220.258065 116.536043 
L 220.410323 116.536043 
L 220.562581 116.923636 
L 220.714839 117.698824 
L 221.019355 114.598075 
L 221.323871 113.047701 
L 221.476129 113.047701 
L 221.628387 112.272513 
L 221.932903 109.559358 
L 222.085161 110.722139 
L 222.237419 108.396578 
L 222.389677 110.334545 
L 222.541935 109.946952 
L 222.84645 106.846203 
L 222.998708 107.233797 
L 223.150966 109.171765 
L 223.303224 108.784171 
L 223.455482 109.559358 
L 223.60774 109.559358 
L 223.759998 107.62139 
L 223.912256 107.233797 
L 224.064514 106.071016 
L 224.216772 106.45861 
L 224.36903 108.396578 
L 224.521288 108.396578 
L 224.673546 108.784171 
L 224.825804 109.559358 
L 224.978062 109.559358 
L 225.13032 111.109733 
L 225.282578 109.946952 
L 225.434836 110.334545 
L 225.587094 109.559358 
L 225.739351 111.109733 
L 225.891609 111.109733 
L 226.043867 112.272513 
L 226.348383 110.722139 
L 226.500641 111.109733 
L 226.652899 110.722139 
L 226.957415 108.396578 
L 227.109673 108.784171 
L 227.261931 111.497326 
L 227.566447 108.396578 
L 227.718705 108.784171 
L 227.870963 109.946952 
L 228.023221 109.946952 
L 228.175479 111.109733 
L 228.479995 109.946952 
L 228.632252 110.722139 
L 228.78451 113.047701 
L 228.936768 111.88492 
L 229.089026 113.822888 
L 229.241284 113.435294 
L 229.393542 112.660107 
L 229.698058 108.396578 
L 229.850316 108.396578 
L 230.002574 109.171765 
L 230.154832 108.396578 
L 230.30709 105.683422 
L 230.459348 105.295829 
L 230.611606 104.520642 
L 230.916122 107.233797 
L 231.220638 106.45861 
L 231.525153 109.559358 
L 231.677411 109.171765 
L 231.829669 107.233797 
L 231.981927 109.946952 
L 232.134185 110.334545 
L 232.286443 109.559358 
L 232.438701 107.62139 
L 232.590959 108.008984 
L 232.743217 106.846203 
L 232.895475 108.784171 
L 233.352249 106.846203 
L 233.504507 107.233797 
L 233.656765 106.45861 
L 233.809023 106.846203 
L 234.265797 103.357861 
L 234.570312 104.133048 
L 235.027086 109.946952 
L 235.179344 110.334545 
L 235.331602 111.109733 
L 235.48386 111.109733 
L 235.636118 109.946952 
L 235.788376 111.497326 
L 235.940634 108.784171 
L 236.092892 108.784171 
L 236.24515 107.62139 
L 236.397408 108.008984 
L 236.549666 107.233797 
L 236.701924 108.396578 
L 236.854182 107.233797 
L 237.00644 108.008984 
L 237.158698 107.62139 
L 237.310955 108.008984 
L 237.463213 106.45861 
L 237.615471 107.233797 
L 237.767729 106.846203 
L 238.072245 104.908235 
L 238.376761 104.133048 
L 238.833535 111.88492 
L 239.290309 108.784171 
L 239.594825 108.784171 
L 239.747083 109.946952 
L 239.899341 108.396578 
L 240.051599 108.784171 
L 240.203856 110.722139 
L 240.356114 109.559358 
L 240.508372 109.946952 
L 240.66063 109.946952 
L 241.117404 111.109733 
L 241.269662 109.559358 
L 241.42192 109.946952 
L 241.574178 109.559358 
L 241.726436 108.784171 
L 241.878694 107.233797 
L 242.030952 107.62139 
L 242.18321 108.396578 
L 242.335468 110.722139 
L 242.639984 109.946952 
L 242.792242 109.171765 
L 242.9445 109.946952 
L 243.096757 109.171765 
L 243.401273 106.45861 
L 243.705789 108.784171 
L 243.858047 108.396578 
L 244.010305 107.233797 
L 244.162563 107.233797 
L 244.314821 106.45861 
L 244.619337 110.334545 
L 244.771595 109.559358 
L 244.923853 111.109733 
L 245.076111 114.210481 
L 245.228369 113.822888 
L 245.380627 114.598075 
L 245.532885 113.047701 
L 245.685143 112.660107 
L 245.837401 111.88492 
L 245.989658 113.435294 
L 246.141916 113.047701 
L 246.294174 113.047701 
L 246.59869 116.148449 
L 247.055464 114.210481 
L 247.207722 117.31123 
L 247.35998 116.536043 
L 247.512238 114.598075 
L 247.664496 114.985668 
L 248.12127 117.698824 
L 248.273528 116.536043 
L 248.578044 119.636791 
L 248.882559 116.536043 
L 249.034817 116.148449 
L 249.643849 112.272513 
L 249.796107 113.822888 
L 249.948365 113.822888 
L 250.100623 115.373262 
L 250.252881 114.985668 
L 250.405139 115.760856 
L 250.557397 114.985668 
L 250.861913 118.086417 
L 251.014171 118.474011 
L 251.166429 119.249198 
L 251.318687 119.249198 
L 251.470945 118.474011 
L 251.623203 121.187166 
L 251.927718 116.923636 
L 252.079976 117.698824 
L 252.232234 115.760856 
L 252.384492 115.373262 
L 252.53675 114.210481 
L 252.689008 114.210481 
L 252.841266 114.985668 
L 252.993524 112.660107 
L 253.145782 112.660107 
L 253.450298 114.598075 
L 253.754814 112.272513 
L 253.907072 112.660107 
L 254.363846 109.559358 
L 254.516104 109.559358 
L 254.668361 109.171765 
L 254.972877 112.272513 
L 255.125135 112.272513 
L 255.429651 110.334545 
L 255.581909 106.846203 
L 255.734167 106.846203 
L 255.886425 106.071016 
L 256.190941 102.970267 
L 256.799973 108.396578 
L 256.952231 109.559358 
L 257.104489 109.559358 
L 257.256747 109.946952 
L 257.409005 109.559358 
L 257.71352 110.334545 
L 258.170294 110.334545 
L 258.47481 109.559358 
L 258.627068 109.559358 
L 258.779326 108.008984 
L 258.931584 108.396578 
L 259.083842 108.396578 
L 259.2361 108.008984 
L 259.540616 105.683422 
L 259.692874 106.071016 
L 259.845132 106.071016 
L 260.149648 109.946952 
L 260.301905 109.559358 
L 260.454163 108.784171 
L 260.758679 111.88492 
L 260.910937 109.946952 
L 261.063195 109.559358 
L 261.215453 108.784171 
L 261.519969 104.908235 
L 261.672227 104.133048 
L 261.824485 104.133048 
L 262.129001 102.19508 
L 262.738033 98.319144 
L 262.890291 98.706738 
L 263.042549 100.644706 
L 263.194806 101.032299 
L 263.499322 104.133048 
L 263.803838 102.970267 
L 264.108354 104.520642 
L 264.260612 104.133048 
L 264.869644 97.543957 
L 265.021902 99.094332 
L 265.17416 99.094332 
L 265.326418 96.381176 
L 265.478676 97.156364 
L 265.783192 99.481925 
L 265.93545 100.644706 
L 266.087707 100.644706 
L 266.239965 101.032299 
L 266.392223 99.094332 
L 266.544481 99.481925 
L 266.696739 101.807487 
L 266.848997 101.807487 
L 267.001255 102.970267 
L 267.153513 102.970267 
L 267.305771 103.745455 
L 267.458029 102.970267 
L 267.610287 101.032299 
L 267.762545 102.582674 
L 267.914803 102.19508 
L 268.067061 100.644706 
L 268.219319 102.19508 
L 268.371577 102.582674 
L 268.523835 101.032299 
L 268.828351 97.156364 
L 268.980608 100.644706 
L 269.285124 100.644706 
L 269.437382 105.295829 
L 269.58964 106.45861 
L 270.046414 115.760856 
L 270.198672 114.598075 
L 270.35093 114.598075 
L 270.959962 118.086417 
L 271.11222 119.249198 
L 271.264478 118.861604 
L 271.416736 118.861604 
L 272.025767 124.287914 
L 272.178025 125.838289 
L 272.330283 124.287914 
L 272.482541 125.063102 
L 272.787057 125.063102 
L 273.243831 127.776257 
L 273.396089 128.939037 
L 273.548347 127.776257 
L 273.700605 128.16385 
L 273.852863 130.877005 
L 274.309637 123.512727 
L 274.461895 123.125134 
L 274.614153 119.249198 
L 274.76641 121.962353 
L 274.918668 120.411979 
L 275.223184 119.636791 
L 275.375442 119.636791 
L 275.5277 120.024385 
L 275.679958 119.636791 
L 275.832216 118.086417 
L 276.136732 119.249198 
L 276.28899 117.698824 
L 276.593506 116.923636 
L 276.745764 116.148449 
L 276.898022 117.31123 
L 277.05028 116.923636 
L 277.202538 116.148449 
L 277.507054 112.272513 
L 277.811569 115.760856 
L 277.963827 115.373262 
L 278.116085 113.822888 
L 278.268343 114.985668 
L 278.420601 111.497326 
L 278.572859 110.722139 
L 278.725117 111.497326 
L 278.877375 111.497326 
L 279.029633 109.946952 
L 279.181891 109.946952 
L 279.334149 107.62139 
L 279.486407 107.62139 
L 279.638665 108.008984 
L 279.790923 108.784171 
L 279.943181 108.784171 
L 280.095439 107.233797 
L 280.247697 107.233797 
L 280.552212 108.008984 
L 280.70447 105.683422 
L 280.856728 106.846203 
L 281.008986 106.846203 
L 281.161244 106.45861 
L 281.46576 108.008984 
L 281.618018 107.62139 
L 281.770276 107.62139 
L 281.922534 108.396578 
L 282.074792 108.396578 
L 282.22705 108.008984 
L 282.531566 104.133048 
L 282.683824 104.520642 
L 282.836082 103.745455 
L 282.98834 106.45861 
L 283.140598 106.071016 
L 283.749629 111.109733 
L 283.901887 110.334545 
L 284.054145 110.722139 
L 284.206403 109.171765 
L 284.358661 109.946952 
L 284.510919 108.784171 
L 284.663177 109.171765 
L 284.815435 109.171765 
L 284.967693 109.559358 
L 285.119951 109.559358 
L 285.424467 110.722139 
L 286.185757 105.683422 
L 286.490272 106.45861 
L 286.64253 105.295829 
L 286.794788 105.295829 
L 286.947046 105.683422 
L 287.099304 105.683422 
L 287.251562 104.520642 
L 287.40382 105.683422 
L 287.556078 105.683422 
L 287.708336 106.45861 
L 287.860594 104.520642 
L 288.012852 105.683422 
L 288.16511 103.745455 
L 288.317368 103.745455 
L 288.621884 104.908235 
L 288.774142 107.233797 
L 288.9264 105.295829 
L 289.078658 106.846203 
L 289.230915 106.45861 
L 289.535431 105.295829 
L 289.839947 108.784171 
L 289.992205 107.233797 
L 290.144463 107.233797 
L 290.448979 108.784171 
L 290.601237 106.846203 
L 290.905753 108.396578 
L 291.058011 108.396578 
L 291.210269 109.171765 
L 291.362527 108.396578 
L 291.514785 109.171765 
L 291.819301 114.598075 
L 291.971559 113.822888 
L 292.276074 109.946952 
L 292.428332 111.109733 
L 292.58059 110.722139 
L 292.885106 112.660107 
L 293.037364 111.88492 
L 293.189622 111.88492 
L 293.34188 110.722139 
L 293.646396 112.272513 
L 293.798654 112.660107 
L 293.950912 112.272513 
L 294.10317 113.435294 
L 294.407686 108.784171 
L 294.712202 109.559358 
L 295.016717 108.008984 
L 295.625749 109.559358 
L 295.930265 111.88492 
L 296.082523 110.722139 
L 296.234781 111.88492 
L 296.387039 109.559358 
L 296.843813 113.435294 
L 297.452845 108.784171 
L 297.605103 109.171765 
L 297.75736 108.396578 
L 297.909618 108.784171 
L 298.214134 106.846203 
L 298.366392 107.62139 
L 299.127682 103.357861 
L 299.27994 103.745455 
L 299.432198 102.19508 
L 299.584456 102.19508 
L 299.736714 103.357861 
L 299.888972 103.357861 
L 300.193488 105.295829 
L 300.345746 104.908235 
L 300.650261 106.846203 
L 300.802519 104.908235 
L 300.954777 105.683422 
L 301.107035 103.745455 
L 301.259293 104.133048 
L 301.411551 103.357861 
L 301.563809 103.357861 
L 301.716067 104.908235 
L 301.868325 104.520642 
L 302.020583 104.908235 
L 302.172841 104.908235 
L 302.477357 105.683422 
L 302.629615 108.396578 
L 302.781873 106.846203 
L 302.934131 107.233797 
L 303.238647 109.946952 
L 303.390905 110.334545 
L 303.69542 112.660107 
L 303.847678 110.722139 
L 303.999936 111.88492 
L 304.152194 110.722139 
L 304.304452 111.109733 
L 304.45671 111.109733 
L 304.608968 109.171765 
L 304.913484 109.171765 
L 305.522516 104.133048 
L 305.674774 106.071016 
L 305.827032 104.133048 
L 305.97929 104.133048 
L 306.131548 106.071016 
L 306.283806 104.133048 
L 306.436063 104.133048 
L 306.740579 105.683422 
L 307.045095 104.133048 
L 307.349611 101.032299 
L 307.501869 103.745455 
L 307.806385 100.257112 
L 307.958643 101.807487 
L 308.263159 101.807487 
L 308.567675 105.295829 
L 308.719933 107.233797 
L 308.872191 106.071016 
L 309.176707 107.62139 
L 309.481222 106.45861 
L 309.785738 108.784171 
L 309.937996 108.008984 
L 310.090254 111.109733 
L 310.242512 108.008984 
L 310.39477 109.559358 
L 310.547028 109.171765 
L 310.699286 108.008984 
L 310.851544 109.559358 
L 311.003802 113.047701 
L 311.15606 113.047701 
L 311.308318 111.88492 
L 311.765092 114.985668 
L 311.91735 118.861604 
L 312.069608 114.985668 
L 312.221865 115.760856 
L 312.526381 114.985668 
L 312.830897 113.047701 
L 312.983155 111.88492 
L 313.135413 111.88492 
L 313.287671 111.109733 
L 313.592187 108.784171 
L 313.896703 107.233797 
L 314.201219 107.233797 
L 314.353477 105.295829 
L 314.505735 106.071016 
L 314.657993 104.133048 
L 314.810251 106.45861 
L 315.114766 107.233797 
L 315.267024 107.233797 
L 315.723798 101.419893 
L 316.028314 102.19508 
L 316.180572 101.807487 
L 316.33283 100.257112 
L 316.637346 96.381176 
L 316.789604 95.993583 
L 316.941862 96.381176 
L 317.398636 98.706738 
L 317.703152 97.931551 
L 317.85541 98.319144 
L 318.007667 99.094332 
L 318.159925 96.76877 
L 318.312183 97.156364 
L 318.464441 98.706738 
L 318.616699 97.931551 
L 318.768957 96.381176 
L 318.921215 97.931551 
L 319.073473 98.319144 
L 319.225731 97.931551 
L 319.530247 96.381176 
L 319.682505 97.156364 
L 319.834763 97.156364 
L 319.987021 98.706738 
L 320.139279 98.706738 
L 320.596053 103.357861 
L 320.748311 102.582674 
L 320.900568 103.745455 
L 321.052826 103.357861 
L 321.205084 106.45861 
L 321.357342 105.683422 
L 321.5096 106.45861 
L 321.661858 106.071016 
L 321.814116 105.295829 
L 322.118632 106.846203 
L 322.27089 107.233797 
L 322.423148 107.233797 
L 322.575406 106.846203 
L 322.727664 108.396578 
L 322.879922 107.62139 
L 323.03218 105.683422 
L 323.184438 106.846203 
L 323.336696 106.45861 
L 323.488954 106.846203 
L 323.641212 108.396578 
L 323.793469 108.784171 
L 323.945727 109.559358 
L 324.097985 109.559358 
L 324.250243 108.396578 
L 324.402501 108.784171 
L 324.554759 108.396578 
L 324.707017 107.233797 
L 325.316049 99.094332 
L 325.468307 98.319144 
L 325.620565 99.481925 
L 325.772823 99.481925 
L 325.925081 102.582674 
L 326.077339 103.357861 
L 326.229597 102.970267 
L 326.68637 100.257112 
L 326.838628 100.257112 
L 326.990886 99.869519 
L 327.143144 99.869519 
L 327.295402 99.481925 
L 327.44766 98.706738 
L 327.599918 99.094332 
L 327.904434 100.644706 
L 328.056692 100.257112 
L 328.20895 97.543957 
L 328.361208 97.931551 
L 328.513466 96.76877 
L 328.665724 96.76877 
L 328.817982 96.381176 
L 328.97024 95.218396 
L 329.274756 97.931551 
L 329.427014 97.931551 
L 330.036045 104.520642 
L 330.188303 105.295829 
L 330.492819 102.970267 
L 330.645077 102.970267 
L 330.797335 102.582674 
L 330.949593 104.908235 
L 331.101851 102.970267 
L 331.254109 104.908235 
L 331.558625 103.357861 
L 331.710883 105.683422 
L 331.863141 105.683422 
L 332.167657 107.62139 
L 332.319915 106.846203 
L 332.472172 106.846203 
L 332.62443 107.233797 
L 332.776688 109.559358 
L 333.081204 110.334545 
L 333.233462 109.946952 
L 333.38572 111.88492 
L 333.537978 111.109733 
L 333.690236 109.559358 
L 333.842494 110.334545 
L 333.994752 110.334545 
L 334.14701 109.946952 
L 334.451526 108.008984 
L 334.603784 107.62139 
L 335.060558 104.908235 
L 335.212815 104.908235 
L 335.365073 104.520642 
L 335.517331 104.908235 
L 335.669589 108.008984 
L 335.821847 108.784171 
L 335.974105 108.396578 
L 336.126363 110.334545 
L 336.278621 108.396578 
L 336.735395 110.722139 
L 336.887653 109.171765 
L 337.192169 109.171765 
L 337.344427 108.396578 
L 337.496685 106.846203 
L 337.648943 107.233797 
L 337.801201 108.784171 
L 337.953459 108.784171 
L 338.105716 110.722139 
L 338.56249 108.008984 
L 338.714748 108.396578 
L 339.019264 110.722139 
L 339.476038 113.435294 
L 339.628296 113.047701 
L 339.780554 111.497326 
L 339.932812 111.109733 
L 340.08507 109.171765 
L 340.237328 109.559358 
L 340.389586 107.62139 
L 340.541844 107.62139 
L 340.694102 107.233797 
L 340.998617 108.396578 
L 341.303133 107.62139 
L 341.455391 106.45861 
L 341.759907 106.45861 
L 341.912165 105.683422 
L 342.064423 108.396578 
L 342.368939 106.45861 
L 342.825713 103.745455 
L 342.977971 104.908235 
L 343.130229 107.62139 
L 343.282487 107.233797 
L 343.587003 102.970267 
L 343.739261 102.970267 
L 343.891518 101.032299 
L 344.043776 101.032299 
L 344.196034 101.807487 
L 344.50055 104.520642 
L 344.652808 104.520642 
L 344.805066 103.745455 
L 344.957324 103.745455 
L 345.109582 104.908235 
L 345.26184 104.133048 
L 345.414098 104.133048 
L 345.718614 101.807487 
L 345.870872 101.807487 
L 346.02313 103.745455 
L 346.175388 103.745455 
L 346.327646 102.582674 
L 346.479904 102.970267 
L 346.632162 100.257112 
L 346.784419 101.032299 
L 346.936677 100.257112 
L 347.088935 101.419893 
L 347.241193 100.257112 
L 347.393451 101.032299 
L 347.697967 97.931551 
L 347.850225 97.543957 
L 348.002483 98.319144 
L 348.154741 98.319144 
L 348.306999 97.931551 
L 348.763773 100.257112 
L 348.916031 100.257112 
L 349.068289 97.931551 
L 349.220547 97.931551 
L 349.372805 95.993583 
L 349.525063 97.156364 
L 349.67732 95.993583 
L 349.829578 98.319144 
L 349.981836 97.543957 
L 350.134094 99.869519 
L 350.286352 100.257112 
L 350.43861 99.869519 
L 350.590868 99.094332 
L 350.743126 97.543957 
L 351.047642 98.319144 
L 351.504416 103.745455 
L 351.656674 102.582674 
L 351.808932 104.520642 
L 351.96119 104.133048 
L 352.265706 104.908235 
L 352.417964 104.908235 
L 352.722479 105.683422 
L 352.874737 106.45861 
L 353.026995 105.295829 
L 353.179253 105.683422 
L 353.331511 106.45861 
L 353.483769 105.683422 
L 353.940543 110.334545 
L 354.092801 108.784171 
L 354.245059 108.396578 
L 354.397317 107.62139 
L 354.549575 108.008984 
L 354.701833 106.846203 
L 354.854091 106.846203 
L 355.61538 112.272513 
L 355.767638 111.109733 
L 356.072154 106.846203 
L 356.224412 106.846203 
L 356.37667 106.071016 
L 356.528928 106.846203 
L 356.681186 106.846203 
L 356.833444 107.62139 
L 357.13796 106.45861 
L 357.290218 107.233797 
L 357.442476 104.520642 
L 358.051508 108.784171 
L 358.203766 108.784171 
L 358.356023 109.171765 
L 358.508281 109.946952 
L 358.812797 116.148449 
L 358.965055 115.760856 
L 359.269571 113.047701 
L 359.421829 114.598075 
L 359.574087 113.435294 
L 359.726345 114.210481 
L 359.878603 112.272513 
L 360.030861 113.435294 
L 360.183119 113.435294 
L 360.335377 112.660107 
L 360.639893 116.148449 
L 360.944409 116.148449 
L 361.096667 115.760856 
L 361.248924 116.148449 
L 361.401182 114.598075 
L 361.55344 114.985668 
L 361.705698 114.985668 
L 361.857956 113.822888 
L 362.010214 116.148449 
L 362.162472 116.536043 
L 362.771504 109.946952 
L 362.923762 110.334545 
L 363.07602 108.784171 
L 363.228278 104.908235 
L 363.532794 103.357861 
L 363.83731 104.908235 
L 363.989568 103.745455 
L 364.141825 104.908235 
L 364.446341 104.908235 
L 364.750857 99.869519 
L 365.055373 103.745455 
L 365.207631 101.032299 
L 365.359889 101.419893 
L 365.512147 100.644706 
L 365.664405 100.644706 
L 365.816663 101.419893 
L 365.968921 103.357861 
L 366.121179 103.357861 
L 366.273437 103.745455 
L 366.425695 104.520642 
L 366.577953 102.970267 
L 366.730211 102.582674 
L 367.034726 100.644706 
L 367.186984 102.19508 
L 367.339242 105.295829 
L 367.4915 103.357861 
L 368.100532 107.233797 
L 368.25279 107.62139 
L 368.557306 110.334545 
L 368.709564 108.784171 
L 369.01408 110.722139 
L 369.166338 112.272513 
L 369.166338 112.272513 
" style="fill:none;stroke:#1f77b4;stroke-linecap:square;stroke-width:1.5;"/>
   </g>
   <g id="line2d_19">
    <path clip-path="url(#p021d07f70c)" d="M 69.218182 125.838289 
L 69.522698 44.443636 
L 69.674956 114.210481 
L 69.827214 90.954866 
L 69.979472 137.466096 
L 70.13173 79.327059 
L 70.436245 149.093904 
L 70.588503 160.721711 
L 70.740761 90.954866 
L 70.893019 137.466096 
L 71.045277 114.210481 
L 71.197535 160.721711 
L 71.349793 114.210481 
L 71.502051 160.721711 
L 71.654309 125.838289 
L 71.806567 230.488556 
L 71.958825 102.582674 
L 72.111083 90.954866 
L 72.263341 102.582674 
L 72.415599 125.838289 
L 72.567857 102.582674 
L 72.720115 125.838289 
L 73.02463 79.327059 
L 73.176888 137.466096 
L 73.329146 149.093904 
L 73.481404 125.838289 
L 73.633662 125.838289 
L 73.78592 90.954866 
L 73.938178 125.838289 
L 74.090436 56.071444 
L 74.242694 114.210481 
L 74.394952 79.327059 
L 74.54721 149.093904 
L 74.699468 56.071444 
L 74.851726 114.210481 
L 75.003984 90.954866 
L 75.156242 125.838289 
L 75.3085 90.954866 
L 75.460758 102.582674 
L 75.613016 90.954866 
L 75.917531 149.093904 
L 76.069789 90.954866 
L 76.222047 183.977326 
L 76.374305 114.210481 
L 76.678821 114.210481 
L 76.831079 137.466096 
L 76.983337 79.327059 
L 77.135595 172.349519 
L 77.287853 67.699251 
L 77.592369 90.954866 
L 77.744627 160.721711 
L 78.201401 102.582674 
L 78.353659 114.210481 
L 78.505917 114.210481 
L 78.658175 125.838289 
L 78.810432 125.838289 
L 78.96269 183.977326 
L 79.114948 79.327059 
L 79.267206 90.954866 
L 79.419464 90.954866 
L 79.571722 114.210481 
L 79.72398 79.327059 
L 79.876238 137.466096 
L 80.028496 102.582674 
L 80.180754 160.721711 
L 80.48527 79.327059 
L 80.637528 102.582674 
L 80.789786 172.349519 
L 80.942044 79.327059 
L 81.094302 183.977326 
L 81.24656 44.443636 
L 81.398818 102.582674 
L 81.551076 90.954866 
L 81.703333 125.838289 
L 81.855591 102.582674 
L 82.007849 172.349519 
L 82.312365 125.838289 
L 82.464623 125.838289 
L 82.616881 90.954866 
L 82.769139 114.210481 
L 82.921397 102.582674 
L 83.073655 137.466096 
L 83.225913 125.838289 
L 83.378171 172.349519 
L 83.530429 102.582674 
L 83.682687 90.954866 
L 83.834945 160.721711 
L 83.987203 90.954866 
L 84.291719 90.954866 
L 84.443977 149.093904 
L 84.596234 102.582674 
L 84.748492 90.954866 
L 84.90075 125.838289 
L 85.053008 79.327059 
L 85.205266 67.699251 
L 85.357524 137.466096 
L 85.509782 102.582674 
L 85.814298 102.582674 
L 85.966556 160.721711 
L 86.118814 67.699251 
L 86.271072 137.466096 
L 86.42333 102.582674 
L 86.575588 160.721711 
L 86.727846 114.210481 
L 86.880104 102.582674 
L 87.032362 79.327059 
L 87.18462 172.349519 
L 87.489135 56.071444 
L 87.793651 102.582674 
L 87.945909 102.582674 
L 88.098167 79.327059 
L 88.250425 149.093904 
L 88.402683 114.210481 
L 88.554941 125.838289 
L 88.707199 90.954866 
L 88.859457 114.210481 
L 89.011715 160.721711 
L 89.163973 172.349519 
L 89.316231 79.327059 
L 89.468489 79.327059 
L 89.620747 172.349519 
L 89.773005 114.210481 
L 89.925263 172.349519 
L 90.077521 114.210481 
L 90.382036 114.210481 
L 90.534294 149.093904 
L 90.686552 125.838289 
L 90.83881 125.838289 
L 90.991068 90.954866 
L 91.143326 137.466096 
L 91.295584 149.093904 
L 91.447842 90.954866 
L 91.6001 114.210481 
L 91.752358 44.443636 
L 92.209132 195.605134 
L 92.36139 79.327059 
L 92.513648 172.349519 
L 92.665906 102.582674 
L 92.818164 160.721711 
L 92.970422 114.210481 
L 93.12268 207.232941 
L 93.274937 90.954866 
L 93.427195 114.210481 
L 93.579453 114.210481 
L 93.731711 149.093904 
L 93.883969 149.093904 
L 94.036227 79.327059 
L 94.340743 172.349519 
L 94.493001 79.327059 
L 94.797517 137.466096 
L 94.949775 56.071444 
L 95.102033 137.466096 
L 95.254291 114.210481 
L 95.406549 125.838289 
L 95.558807 160.721711 
L 95.711065 90.954866 
L 96.015581 125.838289 
L 96.167838 125.838289 
L 96.320096 160.721711 
L 96.472354 149.093904 
L 96.624612 125.838289 
L 96.77687 67.699251 
L 96.929128 125.838289 
L 97.081386 125.838289 
L 97.233644 114.210481 
L 97.53816 160.721711 
L 97.842676 79.327059 
L 97.994934 149.093904 
L 98.147192 90.954866 
L 98.29945 114.210481 
L 98.451708 90.954866 
L 98.603966 149.093904 
L 98.908482 67.699251 
L 99.060739 183.977326 
L 99.212997 79.327059 
L 99.517513 114.210481 
L 99.669771 172.349519 
L 99.822029 114.210481 
L 99.974287 183.977326 
L 100.278803 67.699251 
L 100.735577 125.838289 
L 101.040093 125.838289 
L 101.192351 56.071444 
L 101.344609 137.466096 
L 101.496867 90.954866 
L 101.649125 137.466096 
L 101.801383 125.838289 
L 101.95364 137.466096 
L 102.105898 67.699251 
L 102.258156 149.093904 
L 102.410414 102.582674 
L 102.562672 125.838289 
L 102.867188 90.954866 
L 103.171704 242.116364 
L 103.323962 125.838289 
L 103.628478 102.582674 
L 103.780736 79.327059 
L 103.932994 90.954866 
L 104.085252 79.327059 
L 104.23751 149.093904 
L 104.389768 102.582674 
L 104.542026 114.210481 
L 104.694284 160.721711 
L 104.846541 125.838289 
L 104.998799 125.838289 
L 105.151057 79.327059 
L 105.303315 125.838289 
L 105.455573 90.954866 
L 105.607831 90.954866 
L 105.760089 79.327059 
L 105.912347 102.582674 
L 106.064605 67.699251 
L 106.216863 67.699251 
L 106.369121 160.721711 
L 106.521379 102.582674 
L 106.673637 114.210481 
L 106.825895 67.699251 
L 106.978153 207.232941 
L 107.282669 56.071444 
L 107.587185 149.093904 
L 107.739442 114.210481 
L 107.8917 137.466096 
L 108.043958 90.954866 
L 108.196216 90.954866 
L 108.348474 137.466096 
L 108.500732 125.838289 
L 108.65299 79.327059 
L 108.957506 137.466096 
L 109.109764 67.699251 
L 109.41428 102.582674 
L 109.566538 160.721711 
L 109.718796 160.721711 
L 109.871054 67.699251 
L 110.023312 114.210481 
L 110.17557 114.210481 
L 110.327828 149.093904 
L 110.480085 102.582674 
L 110.632343 183.977326 
L 110.784601 172.349519 
L 110.936859 149.093904 
L 111.089117 44.443636 
L 111.241375 137.466096 
L 111.393633 114.210481 
L 111.545891 125.838289 
L 111.698149 56.071444 
L 111.850407 79.327059 
L 112.002665 149.093904 
L 112.154923 125.838289 
L 112.307181 125.838289 
L 112.459439 137.466096 
L 112.611697 160.721711 
L 113.068471 125.838289 
L 113.220729 90.954866 
L 113.372986 90.954866 
L 113.525244 102.582674 
L 113.677502 79.327059 
L 114.134276 183.977326 
L 114.286534 114.210481 
L 114.59105 137.466096 
L 114.743308 137.466096 
L 114.895566 149.093904 
L 115.200082 102.582674 
L 115.35234 183.977326 
L 115.504598 114.210481 
L 115.656856 149.093904 
L 115.809114 102.582674 
L 115.961372 125.838289 
L 116.11363 125.838289 
L 116.265887 137.466096 
L 116.570403 114.210481 
L 116.722661 79.327059 
L 117.027177 125.838289 
L 117.179435 172.349519 
L 117.331693 114.210481 
L 117.483951 149.093904 
L 117.636209 137.466096 
L 117.788467 183.977326 
L 117.940725 79.327059 
L 118.092983 90.954866 
L 118.245241 67.699251 
L 118.397499 137.466096 
L 118.549757 102.582674 
L 118.702015 125.838289 
L 118.854273 114.210481 
L 119.006531 90.954866 
L 119.158788 90.954866 
L 119.311046 125.838289 
L 119.463304 114.210481 
L 119.615562 90.954866 
L 119.76782 90.954866 
L 119.920078 79.327059 
L 120.072336 183.977326 
L 120.224594 125.838289 
L 120.376852 137.466096 
L 120.52911 125.838289 
L 120.681368 79.327059 
L 120.833626 90.954866 
L 120.985884 137.466096 
L 121.2904 67.699251 
L 121.594916 160.721711 
L 121.747174 102.582674 
L 121.899432 125.838289 
L 122.051689 125.838289 
L 122.203947 90.954866 
L 122.356205 195.605134 
L 122.508463 90.954866 
L 122.660721 102.582674 
L 122.812979 137.466096 
L 122.965237 90.954866 
L 123.117495 90.954866 
L 123.269753 125.838289 
L 123.422011 90.954866 
L 123.574269 90.954866 
L 123.726527 137.466096 
L 123.878785 125.838289 
L 124.031043 56.071444 
L 124.335559 149.093904 
L 124.487817 90.954866 
L 124.640075 114.210481 
L 124.792333 102.582674 
L 124.94459 207.232941 
L 125.096848 56.071444 
L 125.249106 79.327059 
L 125.401364 67.699251 
L 125.553622 102.582674 
L 125.70588 79.327059 
L 125.858138 102.582674 
L 126.010396 149.093904 
L 126.314912 90.954866 
L 126.46717 56.071444 
L 126.619428 102.582674 
L 126.771686 90.954866 
L 126.923944 56.071444 
L 127.076202 137.466096 
L 127.22846 137.466096 
L 127.380718 79.327059 
L 127.532976 195.605134 
L 127.685234 195.605134 
L 127.989749 79.327059 
L 128.142007 125.838289 
L 128.446523 79.327059 
L 128.598781 67.699251 
L 128.751039 137.466096 
L 129.055555 114.210481 
L 129.207813 137.466096 
L 129.512329 56.071444 
L 129.664587 149.093904 
L 129.816845 114.210481 
L 129.969103 195.605134 
L 130.121361 102.582674 
L 130.273619 183.977326 
L 130.425877 172.349519 
L 130.578135 67.699251 
L 130.88265 137.466096 
L 131.034908 125.838289 
L 131.491682 56.071444 
L 131.948456 137.466096 
L 132.100714 67.699251 
L 132.252972 56.071444 
L 132.40523 114.210481 
L 132.557488 67.699251 
L 132.709746 67.699251 
L 132.862004 125.838289 
L 133.014262 67.699251 
L 133.16652 56.071444 
L 133.318778 160.721711 
L 133.471036 160.721711 
L 133.623293 79.327059 
L 133.775551 137.466096 
L 133.927809 90.954866 
L 134.080067 90.954866 
L 134.232325 137.466096 
L 134.536841 90.954866 
L 134.689099 160.721711 
L 134.841357 67.699251 
L 134.993615 102.582674 
L 135.145873 67.699251 
L 135.298131 125.838289 
L 135.450389 79.327059 
L 135.602647 79.327059 
L 135.754905 137.466096 
L 136.059421 67.699251 
L 136.211679 90.954866 
L 136.363937 79.327059 
L 136.516194 90.954866 
L 136.668452 172.349519 
L 136.82071 67.699251 
L 136.972968 137.466096 
L 137.277484 90.954866 
L 137.429742 67.699251 
L 137.582 195.605134 
L 137.734258 125.838289 
L 137.886516 172.349519 
L 138.038774 125.838289 
L 138.191032 149.093904 
L 138.34329 79.327059 
L 138.647806 160.721711 
L 138.800064 44.443636 
L 138.952322 90.954866 
L 139.10458 90.954866 
L 139.256838 172.349519 
L 139.409095 137.466096 
L 139.561353 67.699251 
L 139.865869 160.721711 
L 140.018127 79.327059 
L 140.170385 149.093904 
L 140.322643 149.093904 
L 140.474901 102.582674 
L 140.627159 125.838289 
L 140.779417 90.954866 
L 141.236191 160.721711 
L 141.388449 67.699251 
L 141.540707 90.954866 
L 141.692965 67.699251 
L 141.845223 160.721711 
L 142.149739 90.954866 
L 142.301996 137.466096 
L 142.454254 137.466096 
L 142.606512 125.838289 
L 142.75877 79.327059 
L 142.911028 102.582674 
L 143.063286 102.582674 
L 143.215544 90.954866 
L 143.367802 125.838289 
L 143.672318 79.327059 
L 143.976834 102.582674 
L 144.129092 90.954866 
L 144.28135 125.838289 
L 144.585866 44.443636 
L 144.738124 125.838289 
L 144.890382 125.838289 
L 145.04264 102.582674 
L 145.194897 195.605134 
L 145.347155 90.954866 
L 145.499413 79.327059 
L 145.651671 90.954866 
L 145.803929 56.071444 
L 145.956187 125.838289 
L 146.108445 125.838289 
L 146.260703 102.582674 
L 146.565219 137.466096 
L 146.717477 79.327059 
L 147.021993 137.466096 
L 147.326509 90.954866 
L 147.478767 114.210481 
L 147.631025 114.210481 
L 147.783283 90.954866 
L 148.087798 137.466096 
L 148.240056 114.210481 
L 148.392314 114.210481 
L 148.544572 183.977326 
L 148.69683 114.210481 
L 149.001346 137.466096 
L 149.153604 67.699251 
L 149.305862 114.210481 
L 149.610378 114.210481 
L 149.762636 149.093904 
L 149.914894 90.954866 
L 150.067152 114.210481 
L 150.523926 79.327059 
L 150.676184 160.721711 
L 150.828441 160.721711 
L 150.980699 102.582674 
L 151.132957 102.582674 
L 151.285215 125.838289 
L 151.437473 102.582674 
L 151.589731 183.977326 
L 151.741989 102.582674 
L 151.894247 125.838289 
L 152.046505 114.210481 
L 152.198763 79.327059 
L 152.503279 137.466096 
L 152.807795 90.954866 
L 152.960053 102.582674 
L 153.112311 125.838289 
L 153.264569 79.327059 
L 153.416827 125.838289 
L 153.569085 102.582674 
L 153.721342 125.838289 
L 153.8736 114.210481 
L 154.025858 90.954866 
L 154.178116 160.721711 
L 154.482632 102.582674 
L 154.63489 207.232941 
L 154.787148 67.699251 
L 155.091664 137.466096 
L 155.243922 102.582674 
L 155.39618 137.466096 
L 155.548438 79.327059 
L 155.700696 114.210481 
L 155.852954 114.210481 
L 156.005212 102.582674 
L 156.15747 114.210481 
L 156.309728 137.466096 
L 156.461986 114.210481 
L 156.614243 67.699251 
L 156.918759 90.954866 
L 157.071017 90.954866 
L 157.375533 114.210481 
L 157.527791 114.210481 
L 157.680049 172.349519 
L 157.832307 90.954866 
L 157.984565 137.466096 
L 158.136823 79.327059 
L 158.289081 172.349519 
L 158.441339 90.954866 
L 158.593597 79.327059 
L 158.745855 137.466096 
L 158.898113 79.327059 
L 159.354887 137.466096 
L 159.507144 79.327059 
L 159.659402 90.954866 
L 159.81166 125.838289 
L 159.963918 67.699251 
L 160.116176 125.838289 
L 160.268434 67.699251 
L 160.420692 90.954866 
L 160.57295 137.466096 
L 160.725208 90.954866 
L 160.877466 125.838289 
L 161.029724 56.071444 
L 161.181982 125.838289 
L 161.33424 102.582674 
L 161.486498 102.582674 
L 161.638756 149.093904 
L 161.791014 125.838289 
L 161.943272 79.327059 
L 162.09553 67.699251 
L 162.247788 79.327059 
L 162.400045 125.838289 
L 162.552303 102.582674 
L 162.704561 183.977326 
L 162.856819 102.582674 
L 163.009077 149.093904 
L 163.161335 102.582674 
L 163.313593 137.466096 
L 163.465851 90.954866 
L 163.618109 149.093904 
L 163.770367 90.954866 
L 163.922625 137.466096 
L 164.227141 137.466096 
L 164.379399 90.954866 
L 164.531657 102.582674 
L 164.683915 67.699251 
L 164.836173 137.466096 
L 164.988431 67.699251 
L 165.292946 183.977326 
L 165.445204 149.093904 
L 165.597462 79.327059 
L 165.74972 114.210481 
L 165.901978 102.582674 
L 166.206494 102.582674 
L 166.358752 207.232941 
L 166.663268 90.954866 
L 166.967784 149.093904 
L 167.120042 79.327059 
L 167.2723 79.327059 
L 167.424558 137.466096 
L 167.576816 125.838289 
L 167.729074 137.466096 
L 167.881332 79.327059 
L 168.03359 125.838289 
L 168.185847 67.699251 
L 168.338105 67.699251 
L 168.490363 114.210481 
L 168.642621 79.327059 
L 168.794879 125.838289 
L 168.947137 90.954866 
L 169.099395 102.582674 
L 169.251653 125.838289 
L 169.403911 125.838289 
L 169.556169 102.582674 
L 169.708427 114.210481 
L 169.860685 67.699251 
L 170.012943 207.232941 
L 170.165201 160.721711 
L 170.317459 79.327059 
L 170.469717 125.838289 
L 170.621975 137.466096 
L 170.926491 102.582674 
L 171.078748 90.954866 
L 171.383264 114.210481 
L 171.535522 137.466096 
L 171.68778 114.210481 
L 171.840038 125.838289 
L 171.992296 102.582674 
L 172.144554 56.071444 
L 172.296812 90.954866 
L 172.44907 90.954866 
L 172.601328 137.466096 
L 172.753586 102.582674 
L 172.905844 125.838289 
L 173.058102 125.838289 
L 173.21036 102.582674 
L 173.362618 56.071444 
L 173.514876 114.210481 
L 173.667134 79.327059 
L 173.819392 114.210481 
L 174.123907 79.327059 
L 174.428423 114.210481 
L 174.580681 90.954866 
L 174.732939 125.838289 
L 174.885197 90.954866 
L 175.037455 137.466096 
L 175.189713 137.466096 
L 175.341971 125.838289 
L 175.494229 160.721711 
L 175.646487 102.582674 
L 175.798745 90.954866 
L 175.951003 114.210481 
L 176.255519 114.210481 
L 176.407777 137.466096 
L 176.560035 67.699251 
L 176.712293 114.210481 
L 176.86455 102.582674 
L 177.016808 79.327059 
L 177.169066 90.954866 
L 177.321324 125.838289 
L 177.473582 125.838289 
L 177.62584 79.327059 
L 177.778098 137.466096 
L 177.930356 44.443636 
L 178.082614 56.071444 
L 178.234872 102.582674 
L 178.38713 114.210481 
L 178.539388 183.977326 
L 178.691646 125.838289 
L 178.843904 114.210481 
L 178.996162 114.210481 
L 179.300678 67.699251 
L 179.757451 160.721711 
L 179.909709 114.210481 
L 180.061967 125.838289 
L 180.214225 149.093904 
L 180.366483 102.582674 
L 180.518741 137.466096 
L 180.823257 67.699251 
L 180.975515 149.093904 
L 181.127773 79.327059 
L 181.280031 125.838289 
L 181.432289 90.954866 
L 181.736805 149.093904 
L 181.889063 149.093904 
L 182.041321 172.349519 
L 182.193579 79.327059 
L 182.345837 79.327059 
L 182.498095 102.582674 
L 182.650352 79.327059 
L 182.80261 137.466096 
L 182.954868 79.327059 
L 183.107126 67.699251 
L 183.259384 160.721711 
L 183.5639 56.071444 
L 183.716158 102.582674 
L 183.868416 114.210481 
L 184.020674 137.466096 
L 184.172932 102.582674 
L 184.32519 102.582674 
L 184.477448 114.210481 
L 184.629706 137.466096 
L 184.781964 90.954866 
L 184.934222 137.466096 
L 185.238738 79.327059 
L 185.390995 114.210481 
L 185.543253 102.582674 
L 185.695511 114.210481 
L 185.847769 137.466096 
L 186.000027 102.582674 
L 186.152285 102.582674 
L 186.304543 160.721711 
L 186.456801 149.093904 
L 186.761317 56.071444 
L 186.913575 137.466096 
L 187.218091 79.327059 
L 187.370349 102.582674 
L 187.522607 44.443636 
L 187.674865 79.327059 
L 187.827123 149.093904 
L 188.131639 79.327059 
L 188.283896 137.466096 
L 188.436154 102.582674 
L 188.588412 114.210481 
L 188.74067 79.327059 
L 188.892928 79.327059 
L 189.045186 125.838289 
L 189.197444 114.210481 
L 189.349702 137.466096 
L 189.50196 90.954866 
L 189.654218 90.954866 
L 189.806476 102.582674 
L 189.958734 102.582674 
L 190.110992 79.327059 
L 190.26325 149.093904 
L 190.415508 149.093904 
L 190.567766 79.327059 
L 190.720024 149.093904 
L 190.872282 90.954866 
L 191.02454 149.093904 
L 191.176797 160.721711 
L 191.329055 137.466096 
L 191.481313 79.327059 
L 191.633571 114.210481 
L 191.785829 90.954866 
L 191.938087 90.954866 
L 192.090345 102.582674 
L 192.242603 56.071444 
L 192.394861 102.582674 
L 192.547119 79.327059 
L 192.699377 137.466096 
L 192.851635 102.582674 
L 193.003893 114.210481 
L 193.308409 114.210481 
L 193.612925 160.721711 
L 193.765183 125.838289 
L 193.917441 149.093904 
L 194.374214 67.699251 
L 194.526472 125.838289 
L 194.67873 79.327059 
L 194.830988 90.954866 
L 194.983246 137.466096 
L 195.135504 125.838289 
L 195.287762 67.699251 
L 195.44002 102.582674 
L 195.592278 90.954866 
L 195.744536 125.838289 
L 196.049052 102.582674 
L 196.20131 137.466096 
L 196.353568 102.582674 
L 196.505826 102.582674 
L 196.658084 67.699251 
L 196.962599 137.466096 
L 197.114857 90.954866 
L 197.419373 149.093904 
L 197.723889 79.327059 
L 197.876147 79.327059 
L 198.028405 125.838289 
L 198.180663 137.466096 
L 198.332921 137.466096 
L 198.637437 90.954866 
L 198.789695 137.466096 
L 198.941953 125.838289 
L 199.094211 102.582674 
L 199.246469 102.582674 
L 199.398727 149.093904 
L 199.550985 125.838289 
L 199.703243 125.838289 
L 199.8555 149.093904 
L 200.007758 79.327059 
L 200.160016 207.232941 
L 200.312274 90.954866 
L 200.464532 90.954866 
L 200.769048 44.443636 
L 200.921306 114.210481 
L 201.073564 56.071444 
L 201.225822 79.327059 
L 201.37808 149.093904 
L 201.530338 149.093904 
L 201.682596 195.605134 
L 201.834854 67.699251 
L 202.13937 114.210481 
L 202.291628 125.838289 
L 202.443886 114.210481 
L 202.596144 67.699251 
L 202.748401 114.210481 
L 202.900659 102.582674 
L 203.052917 114.210481 
L 203.205175 114.210481 
L 203.357433 125.838289 
L 203.509691 114.210481 
L 203.661949 125.838289 
L 203.814207 114.210481 
L 203.966465 67.699251 
L 204.270981 149.093904 
L 204.423239 67.699251 
L 204.727755 137.466096 
L 204.880013 114.210481 
L 205.032271 67.699251 
L 205.336787 102.582674 
L 205.489045 90.954866 
L 205.641302 102.582674 
L 205.79356 125.838289 
L 205.945818 90.954866 
L 206.098076 137.466096 
L 206.250334 125.838289 
L 206.402592 79.327059 
L 206.55485 172.349519 
L 206.707108 125.838289 
L 206.859366 114.210481 
L 207.011624 114.210481 
L 207.163882 137.466096 
L 207.468398 79.327059 
L 207.620656 125.838289 
L 207.772914 114.210481 
L 207.925172 125.838289 
L 208.07743 125.838289 
L 208.229688 160.721711 
L 208.381946 79.327059 
L 208.534203 125.838289 
L 208.686461 114.210481 
L 208.838719 160.721711 
L 208.990977 79.327059 
L 209.295493 114.210481 
L 209.447751 79.327059 
L 209.600009 79.327059 
L 209.904525 125.838289 
L 210.056783 67.699251 
L 210.209041 195.605134 
L 210.361299 137.466096 
L 210.513557 183.977326 
L 210.665815 79.327059 
L 210.818073 102.582674 
L 210.970331 56.071444 
L 211.122589 125.838289 
L 211.274847 79.327059 
L 211.427104 102.582674 
L 211.579362 56.071444 
L 211.73162 90.954866 
L 211.883878 90.954866 
L 212.188394 125.838289 
L 212.340652 79.327059 
L 212.49291 114.210481 
L 212.645168 102.582674 
L 212.797426 102.582674 
L 212.949684 90.954866 
L 213.101942 56.071444 
L 213.2542 149.093904 
L 213.406458 137.466096 
L 213.558716 67.699251 
L 213.863232 172.349519 
L 214.01549 125.838289 
L 214.167748 114.210481 
L 214.320005 90.954866 
L 214.472263 125.838289 
L 214.624521 102.582674 
L 214.929037 125.838289 
L 215.081295 90.954866 
L 215.233553 90.954866 
L 215.538069 114.210481 
L 215.690327 79.327059 
L 215.842585 137.466096 
L 216.147101 67.699251 
L 216.299359 114.210481 
L 216.451617 102.582674 
L 216.603875 160.721711 
L 216.756133 149.093904 
L 216.908391 79.327059 
L 217.060649 114.210481 
L 217.212906 102.582674 
L 217.365164 183.977326 
L 217.517422 149.093904 
L 217.66968 160.721711 
L 217.974196 67.699251 
L 218.126454 67.699251 
L 218.278712 79.327059 
L 218.43097 67.699251 
L 218.583228 137.466096 
L 218.735486 67.699251 
L 218.887744 149.093904 
L 219.040002 125.838289 
L 219.19226 67.699251 
L 219.344518 137.466096 
L 219.496776 67.699251 
L 219.649034 114.210481 
L 219.801292 114.210481 
L 219.95355 207.232941 
L 220.105807 90.954866 
L 220.258065 149.093904 
L 220.410323 102.582674 
L 220.562581 90.954866 
L 220.867097 160.721711 
L 221.171613 102.582674 
L 221.323871 90.954866 
L 221.628387 160.721711 
L 221.780645 137.466096 
L 221.932903 79.327059 
L 222.085161 172.349519 
L 222.237419 67.699251 
L 222.541935 149.093904 
L 222.694193 125.838289 
L 222.84645 125.838289 
L 222.998708 79.327059 
L 223.150966 114.210481 
L 223.303224 102.582674 
L 223.455482 102.582674 
L 223.60774 149.093904 
L 224.064514 79.327059 
L 224.216772 79.327059 
L 224.36903 114.210481 
L 224.521288 102.582674 
L 224.673546 114.210481 
L 224.825804 149.093904 
L 224.978062 114.210481 
L 225.13032 114.210481 
L 225.282578 79.327059 
L 225.434836 125.838289 
L 225.739351 79.327059 
L 226.043867 102.582674 
L 226.196125 102.582674 
L 226.348383 114.210481 
L 226.500641 114.210481 
L 226.652899 102.582674 
L 226.805157 125.838289 
L 226.957415 114.210481 
L 227.109673 90.954866 
L 227.261931 90.954866 
L 227.414189 137.466096 
L 227.566447 137.466096 
L 227.718705 102.582674 
L 227.870963 125.838289 
L 228.175479 90.954866 
L 228.327737 114.210481 
L 228.479995 67.699251 
L 228.632252 90.954866 
L 228.78451 137.466096 
L 228.936768 114.210481 
L 229.089026 114.210481 
L 229.393542 149.093904 
L 229.5458 160.721711 
L 229.698058 79.327059 
L 230.002574 102.582674 
L 230.154832 149.093904 
L 230.30709 79.327059 
L 230.459348 125.838289 
L 230.611606 67.699251 
L 230.916122 125.838289 
L 231.220638 67.699251 
L 231.525153 125.838289 
L 231.677411 172.349519 
L 231.829669 44.443636 
L 232.134185 149.093904 
L 232.438701 125.838289 
L 232.590959 137.466096 
L 232.743217 67.699251 
L 232.895475 102.582674 
L 233.047733 90.954866 
L 233.199991 160.721711 
L 233.352249 102.582674 
L 233.504507 172.349519 
L 233.656765 102.582674 
L 233.809023 114.210481 
L 233.961281 79.327059 
L 234.113539 102.582674 
L 234.265797 79.327059 
L 234.418054 114.210481 
L 234.72257 67.699251 
L 234.874828 67.699251 
L 235.179344 125.838289 
L 235.331602 114.210481 
L 235.48386 114.210481 
L 235.636118 90.954866 
L 235.788376 137.466096 
L 235.940634 114.210481 
L 236.24515 114.210481 
L 236.397408 125.838289 
L 236.549666 102.582674 
L 236.701924 125.838289 
L 236.854182 79.327059 
L 237.00644 137.466096 
L 237.158698 102.582674 
L 237.310955 125.838289 
L 237.463213 79.327059 
L 237.615471 79.327059 
L 237.767729 137.466096 
L 237.919987 114.210481 
L 238.072245 149.093904 
L 238.529019 44.443636 
L 239.138051 149.093904 
L 239.290309 114.210481 
L 239.442567 125.838289 
L 239.594825 114.210481 
L 239.747083 149.093904 
L 240.051599 79.327059 
L 240.203856 137.466096 
L 240.356114 56.071444 
L 240.508372 114.210481 
L 240.66063 79.327059 
L 240.812888 125.838289 
L 240.965146 102.582674 
L 241.117404 137.466096 
L 241.269662 90.954866 
L 241.42192 102.582674 
L 241.574178 125.838289 
L 241.726436 114.210481 
L 241.878694 79.327059 
L 242.030952 102.582674 
L 242.18321 67.699251 
L 242.335468 102.582674 
L 242.487726 90.954866 
L 242.639984 137.466096 
L 242.792242 102.582674 
L 242.9445 160.721711 
L 243.249015 125.838289 
L 243.401273 56.071444 
L 243.553531 102.582674 
L 243.705789 114.210481 
L 243.858047 114.210481 
L 244.010305 125.838289 
L 244.162563 149.093904 
L 244.314821 102.582674 
L 244.619337 137.466096 
L 244.923853 67.699251 
L 245.076111 114.210481 
L 245.228369 90.954866 
L 245.380627 137.466096 
L 245.685143 90.954866 
L 245.837401 102.582674 
L 245.989658 90.954866 
L 246.141916 102.582674 
L 246.294174 67.699251 
L 246.750948 137.466096 
L 246.903206 90.954866 
L 247.055464 79.327059 
L 247.35998 125.838289 
L 247.512238 137.466096 
L 247.664496 79.327059 
L 247.816754 102.582674 
L 247.969012 102.582674 
L 248.12127 125.838289 
L 248.425786 79.327059 
L 248.578044 125.838289 
L 248.730302 125.838289 
L 248.882559 172.349519 
L 249.034817 172.349519 
L 249.187075 114.210481 
L 249.491591 160.721711 
L 249.643849 102.582674 
L 249.796107 114.210481 
L 249.948365 90.954866 
L 250.100623 102.582674 
L 250.252881 67.699251 
L 250.405139 149.093904 
L 250.557397 79.327059 
L 250.861913 137.466096 
L 251.166429 102.582674 
L 251.318687 125.838289 
L 251.470945 67.699251 
L 251.623203 172.349519 
L 251.927718 67.699251 
L 252.079976 149.093904 
L 252.232234 114.210481 
L 252.384492 137.466096 
L 252.689008 90.954866 
L 252.841266 160.721711 
L 253.145782 67.699251 
L 253.29804 90.954866 
L 253.450298 160.721711 
L 253.602556 137.466096 
L 253.754814 90.954866 
L 254.211588 149.093904 
L 254.363846 114.210481 
L 254.516104 137.466096 
L 254.668361 90.954866 
L 254.820619 90.954866 
L 255.125135 137.466096 
L 255.277393 137.466096 
L 255.429651 149.093904 
L 255.581909 137.466096 
L 255.734167 102.582674 
L 255.886425 102.582674 
L 256.038683 149.093904 
L 256.343199 56.071444 
L 256.495457 90.954866 
L 256.647715 90.954866 
L 256.799973 102.582674 
L 256.952231 102.582674 
L 257.104489 114.210481 
L 257.256747 114.210481 
L 257.409005 90.954866 
L 257.561262 114.210481 
L 257.71352 102.582674 
L 257.865778 114.210481 
L 258.170294 114.210481 
L 258.322552 102.582674 
L 258.47481 79.327059 
L 258.627068 114.210481 
L 258.931584 114.210481 
L 259.083842 125.838289 
L 259.2361 149.093904 
L 259.388358 125.838289 
L 259.540616 125.838289 
L 259.845132 102.582674 
L 259.99739 44.443636 
L 260.149648 137.466096 
L 260.454163 56.071444 
L 260.758679 125.838289 
L 260.910937 102.582674 
L 261.063195 125.838289 
L 261.215453 125.838289 
L 261.367711 137.466096 
L 261.519969 102.582674 
L 261.672227 125.838289 
L 261.824485 102.582674 
L 261.976743 102.582674 
L 262.129001 125.838289 
L 262.281259 102.582674 
L 262.433517 114.210481 
L 262.585775 114.210481 
L 263.194806 67.699251 
L 263.347064 125.838289 
L 263.499322 114.210481 
L 263.65158 114.210481 
L 263.803838 102.582674 
L 263.956096 102.582674 
L 264.108354 137.466096 
L 264.260612 114.210481 
L 264.41287 149.093904 
L 264.565128 114.210481 
L 264.717386 125.838289 
L 264.869644 56.071444 
L 265.17416 149.093904 
L 265.326418 67.699251 
L 265.630934 102.582674 
L 265.783192 56.071444 
L 265.93545 90.954866 
L 266.087707 79.327059 
L 266.239965 125.838289 
L 266.392223 79.327059 
L 266.544481 67.699251 
L 266.696739 90.954866 
L 266.848997 67.699251 
L 267.001255 90.954866 
L 267.153513 90.954866 
L 267.458029 149.093904 
L 267.610287 90.954866 
L 267.914803 160.721711 
L 268.067061 90.954866 
L 268.219319 102.582674 
L 268.371577 125.838289 
L 268.676093 125.838289 
L 268.828351 67.699251 
L 268.980608 79.327059 
L 269.285124 79.327059 
L 269.437382 102.582674 
L 269.58964 102.582674 
L 269.741898 67.699251 
L 269.894156 90.954866 
L 270.046414 137.466096 
L 270.198672 125.838289 
L 270.35093 90.954866 
L 270.655446 90.954866 
L 270.807704 67.699251 
L 270.959962 90.954866 
L 271.11222 137.466096 
L 271.264478 90.954866 
L 271.416736 102.582674 
L 271.568994 90.954866 
L 271.721252 114.210481 
L 271.873509 90.954866 
L 272.025767 90.954866 
L 272.178025 137.466096 
L 272.330283 114.210481 
L 272.482541 114.210481 
L 272.634799 137.466096 
L 272.939315 79.327059 
L 273.091573 44.443636 
L 273.243831 90.954866 
L 273.396089 172.349519 
L 273.548347 79.327059 
L 273.700605 79.327059 
L 273.852863 218.860749 
L 274.005121 137.466096 
L 274.157379 183.977326 
L 274.309637 149.093904 
L 274.461895 207.232941 
L 274.614153 102.582674 
L 274.76641 125.838289 
L 275.070926 102.582674 
L 275.223184 114.210481 
L 275.375442 114.210481 
L 275.5277 125.838289 
L 275.679958 125.838289 
L 275.832216 90.954866 
L 275.984474 137.466096 
L 276.28899 137.466096 
L 276.441248 149.093904 
L 276.593506 137.466096 
L 276.745764 90.954866 
L 276.898022 137.466096 
L 277.05028 114.210481 
L 277.202538 137.466096 
L 277.354796 137.466096 
L 277.507054 90.954866 
L 277.659311 90.954866 
L 277.963827 137.466096 
L 278.116085 90.954866 
L 278.268343 160.721711 
L 278.420601 137.466096 
L 278.572859 90.954866 
L 278.725117 90.954866 
L 278.877375 137.466096 
L 279.029633 90.954866 
L 279.181891 183.977326 
L 279.334149 79.327059 
L 279.486407 102.582674 
L 279.638665 90.954866 
L 279.943181 125.838289 
L 280.095439 114.210481 
L 280.247697 79.327059 
L 280.552212 149.093904 
L 280.70447 90.954866 
L 281.008986 137.466096 
L 281.161244 114.210481 
L 281.313502 125.838289 
L 281.46576 125.838289 
L 281.770276 56.071444 
L 282.074792 137.466096 
L 282.22705 149.093904 
L 282.531566 90.954866 
L 282.683824 125.838289 
L 282.836082 56.071444 
L 282.98834 114.210481 
L 283.140598 114.210481 
L 283.292856 90.954866 
L 283.597371 90.954866 
L 283.749629 114.210481 
L 283.901887 79.327059 
L 284.054145 114.210481 
L 284.358661 114.210481 
L 284.510919 79.327059 
L 284.663177 114.210481 
L 284.815435 90.954866 
L 284.967693 125.838289 
L 285.119951 79.327059 
L 285.272209 125.838289 
L 285.576725 125.838289 
L 285.728983 149.093904 
L 285.881241 137.466096 
L 286.338014 79.327059 
L 286.64253 125.838289 
L 286.794788 67.699251 
L 286.947046 79.327059 
L 287.099304 102.582674 
L 287.251562 102.582674 
L 287.40382 137.466096 
L 287.556078 102.582674 
L 287.708336 149.093904 
L 287.860594 102.582674 
L 288.012852 160.721711 
L 288.317368 90.954866 
L 288.469626 90.954866 
L 288.621884 67.699251 
L 288.774142 137.466096 
L 288.9264 79.327059 
L 289.078658 90.954866 
L 289.230915 114.210481 
L 289.383173 102.582674 
L 289.535431 125.838289 
L 289.687689 102.582674 
L 289.839947 137.466096 
L 289.992205 90.954866 
L 290.144463 114.210481 
L 290.296721 67.699251 
L 290.448979 149.093904 
L 290.601237 79.327059 
L 290.753495 102.582674 
L 290.905753 90.954866 
L 291.058011 67.699251 
L 291.210269 125.838289 
L 291.362527 79.327059 
L 291.514785 79.327059 
L 291.667043 67.699251 
L 291.819301 137.466096 
L 291.971559 137.466096 
L 292.123816 125.838289 
L 292.276074 90.954866 
L 292.428332 137.466096 
L 292.58059 102.582674 
L 292.732848 125.838289 
L 293.037364 102.582674 
L 293.189622 137.466096 
L 293.34188 79.327059 
L 293.494138 125.838289 
L 293.646396 79.327059 
L 293.798654 90.954866 
L 293.950912 90.954866 
L 294.10317 172.349519 
L 294.255428 160.721711 
L 294.407686 90.954866 
L 294.559944 90.954866 
L 294.712202 137.466096 
L 294.86446 90.954866 
L 295.016717 90.954866 
L 295.168975 102.582674 
L 295.321233 125.838289 
L 295.473491 90.954866 
L 295.625749 90.954866 
L 295.778007 102.582674 
L 295.930265 102.582674 
L 296.082523 160.721711 
L 296.234781 149.093904 
L 296.539297 56.071444 
L 296.843813 125.838289 
L 297.148329 125.838289 
L 297.300587 160.721711 
L 297.452845 90.954866 
L 297.605103 102.582674 
L 297.75736 102.582674 
L 297.909618 114.210481 
L 298.061876 137.466096 
L 298.214134 90.954866 
L 298.366392 79.327059 
L 298.51865 125.838289 
L 298.823166 90.954866 
L 298.975424 102.582674 
L 299.27994 102.582674 
L 299.432198 79.327059 
L 299.888972 137.466096 
L 300.04123 102.582674 
L 300.193488 137.466096 
L 300.345746 125.838289 
L 300.498004 67.699251 
L 300.650261 195.605134 
L 300.802519 79.327059 
L 300.954777 149.093904 
L 301.107035 114.210481 
L 301.259293 114.210481 
L 301.411551 90.954866 
L 301.563809 102.582674 
L 302.020583 102.582674 
L 302.172841 79.327059 
L 302.325099 114.210481 
L 302.477357 79.327059 
L 302.629615 114.210481 
L 302.781873 114.210481 
L 302.934131 56.071444 
L 303.086389 102.582674 
L 303.390905 56.071444 
L 303.69542 114.210481 
L 303.847678 56.071444 
L 303.999936 79.327059 
L 304.152194 137.466096 
L 304.304452 114.210481 
L 304.45671 172.349519 
L 304.608968 125.838289 
L 304.761226 125.838289 
L 304.913484 149.093904 
L 305.065742 102.582674 
L 305.218 137.466096 
L 305.522516 90.954866 
L 305.674774 125.838289 
L 305.827032 90.954866 
L 305.97929 90.954866 
L 306.131548 149.093904 
L 306.283806 90.954866 
L 306.436063 114.210481 
L 306.740579 90.954866 
L 307.045095 160.721711 
L 307.197353 67.699251 
L 307.349611 125.838289 
L 307.501869 114.210481 
L 307.654127 125.838289 
L 307.806385 90.954866 
L 307.958643 102.582674 
L 308.110901 102.582674 
L 308.263159 56.071444 
L 308.415417 90.954866 
L 308.567675 44.443636 
L 308.719933 149.093904 
L 308.872191 114.210481 
L 309.024449 114.210481 
L 309.176707 125.838289 
L 309.328964 125.838289 
L 309.481222 114.210481 
L 309.63348 79.327059 
L 309.785738 90.954866 
L 309.937996 56.071444 
L 310.090254 149.093904 
L 310.242512 67.699251 
L 310.39477 90.954866 
L 310.547028 149.093904 
L 310.699286 90.954866 
L 310.851544 90.954866 
L 311.003802 137.466096 
L 311.15606 125.838289 
L 311.308318 67.699251 
L 311.460576 102.582674 
L 311.612834 90.954866 
L 311.765092 44.443636 
L 311.91735 207.232941 
L 312.069608 56.071444 
L 312.221865 79.327059 
L 312.374123 137.466096 
L 312.526381 102.582674 
L 312.678639 102.582674 
L 312.830897 137.466096 
L 313.135413 102.582674 
L 313.287671 114.210481 
L 313.439929 149.093904 
L 313.744445 102.582674 
L 313.896703 114.210481 
L 314.048961 149.093904 
L 314.353477 67.699251 
L 314.505735 149.093904 
L 314.657993 56.071444 
L 314.810251 114.210481 
L 314.962509 79.327059 
L 315.419282 195.605134 
L 315.723798 90.954866 
L 315.876056 102.582674 
L 316.028314 125.838289 
L 316.180572 125.838289 
L 316.33283 160.721711 
L 316.485088 90.954866 
L 316.789604 67.699251 
L 316.941862 125.838289 
L 317.09412 79.327059 
L 317.246378 67.699251 
L 317.550894 114.210481 
L 317.85541 67.699251 
L 318.007667 125.838289 
L 318.312183 79.327059 
L 318.616699 149.093904 
L 318.768957 56.071444 
L 318.921215 90.954866 
L 319.073473 90.954866 
L 319.225731 125.838289 
L 319.377989 125.838289 
L 319.530247 90.954866 
L 319.682505 114.210481 
L 319.834763 79.327059 
L 319.987021 125.838289 
L 320.139279 90.954866 
L 320.443795 114.210481 
L 320.596053 114.210481 
L 320.748311 79.327059 
L 320.900568 79.327059 
L 321.052826 56.071444 
L 321.357342 79.327059 
L 321.5096 149.093904 
L 321.814116 79.327059 
L 322.118632 102.582674 
L 322.27089 90.954866 
L 322.423148 90.954866 
L 322.575406 56.071444 
L 322.727664 114.210481 
L 322.879922 125.838289 
L 323.03218 90.954866 
L 323.184438 102.582674 
L 323.488954 102.582674 
L 323.641212 79.327059 
L 323.793469 90.954866 
L 323.945727 114.210481 
L 324.250243 114.210481 
L 324.402501 125.838289 
L 324.554759 125.838289 
L 324.707017 137.466096 
L 324.859275 160.721711 
L 325.011533 149.093904 
L 325.163791 90.954866 
L 325.316049 114.210481 
L 325.468307 67.699251 
L 325.620565 149.093904 
L 325.772823 44.443636 
L 326.077339 137.466096 
L 326.229597 90.954866 
L 326.381855 114.210481 
L 326.534113 102.582674 
L 326.68637 114.210481 
L 326.990886 79.327059 
L 327.143144 102.582674 
L 327.295402 90.954866 
L 327.44766 67.699251 
L 327.599918 125.838289 
L 327.752176 90.954866 
L 328.056692 149.093904 
L 328.20895 90.954866 
L 328.361208 114.210481 
L 328.513466 114.210481 
L 328.665724 79.327059 
L 328.817982 125.838289 
L 328.97024 114.210481 
L 329.274756 67.699251 
L 329.427014 67.699251 
L 329.579271 79.327059 
L 329.731529 79.327059 
L 330.036045 102.582674 
L 330.188303 149.093904 
L 330.492819 125.838289 
L 330.645077 125.838289 
L 330.797335 56.071444 
L 330.949593 102.582674 
L 331.101851 67.699251 
L 331.254109 114.210481 
L 331.406367 79.327059 
L 331.558625 79.327059 
L 331.710883 90.954866 
L 331.863141 67.699251 
L 332.015399 79.327059 
L 332.167657 149.093904 
L 332.62443 67.699251 
L 332.776688 102.582674 
L 332.928946 79.327059 
L 333.081204 114.210481 
L 333.233462 67.699251 
L 333.38572 90.954866 
L 333.537978 172.349519 
L 333.842494 67.699251 
L 334.14701 149.093904 
L 334.299268 137.466096 
L 334.451526 102.582674 
L 334.603784 125.838289 
L 334.9083 102.582674 
L 335.060558 125.838289 
L 335.212815 114.210481 
L 335.365073 125.838289 
L 335.517331 44.443636 
L 335.669589 125.838289 
L 335.974105 56.071444 
L 336.126363 149.093904 
L 336.278621 90.954866 
L 336.430879 90.954866 
L 336.735395 125.838289 
L 336.887653 114.210481 
L 337.039911 114.210481 
L 337.192169 137.466096 
L 337.496685 90.954866 
L 337.648943 102.582674 
L 337.801201 125.838289 
L 337.953459 67.699251 
L 338.105716 125.838289 
L 338.257974 137.466096 
L 338.410232 67.699251 
L 338.56249 114.210481 
L 338.867006 114.210481 
L 339.019264 90.954866 
L 339.32378 90.954866 
L 339.476038 79.327059 
L 339.628296 125.838289 
L 339.780554 102.582674 
L 339.932812 137.466096 
L 340.08507 137.466096 
L 340.237328 149.093904 
L 340.389586 79.327059 
L 340.541844 114.210481 
L 340.694102 90.954866 
L 340.84636 114.210481 
L 340.998617 114.210481 
L 341.150875 137.466096 
L 341.303133 79.327059 
L 341.455391 114.210481 
L 341.759907 114.210481 
L 341.912165 67.699251 
L 342.216681 149.093904 
L 342.368939 125.838289 
L 342.521197 125.838289 
L 342.673455 102.582674 
L 342.825713 102.582674 
L 342.977971 44.443636 
L 343.282487 160.721711 
L 343.587003 125.838289 
L 343.739261 137.466096 
L 344.043776 67.699251 
L 344.348292 90.954866 
L 344.50055 79.327059 
L 344.652808 149.093904 
L 344.805066 90.954866 
L 344.957324 79.327059 
L 345.26184 114.210481 
L 345.414098 125.838289 
L 345.566356 102.582674 
L 345.718614 125.838289 
L 345.870872 44.443636 
L 346.02313 114.210481 
L 346.175388 114.210481 
L 346.327646 90.954866 
L 346.479904 149.093904 
L 346.632162 79.327059 
L 346.784419 114.210481 
L 346.936677 90.954866 
L 347.088935 102.582674 
L 347.241193 79.327059 
L 347.393451 137.466096 
L 347.697967 114.210481 
L 347.850225 79.327059 
L 348.002483 90.954866 
L 348.154741 125.838289 
L 348.306999 79.327059 
L 348.459257 90.954866 
L 348.611515 90.954866 
L 348.763773 125.838289 
L 348.916031 125.838289 
L 349.068289 79.327059 
L 349.220547 125.838289 
L 349.372805 90.954866 
L 349.525063 114.210481 
L 349.67732 79.327059 
L 349.829578 114.210481 
L 349.981836 79.327059 
L 350.134094 79.327059 
L 350.286352 125.838289 
L 350.43861 102.582674 
L 350.590868 114.210481 
L 350.743126 79.327059 
L 350.895384 102.582674 
L 351.047642 67.699251 
L 351.1999 102.582674 
L 351.352158 90.954866 
L 351.504416 125.838289 
L 351.656674 67.699251 
L 351.808932 102.582674 
L 351.96119 79.327059 
L 352.265706 102.582674 
L 352.417964 102.582674 
L 352.570221 90.954866 
L 352.722479 114.210481 
L 352.874737 102.582674 
L 353.026995 125.838289 
L 353.179253 102.582674 
L 353.331511 125.838289 
L 353.483769 56.071444 
L 353.636027 79.327059 
L 353.788285 67.699251 
L 353.940543 125.838289 
L 354.092801 79.327059 
L 354.245059 149.093904 
L 354.397317 90.954866 
L 354.549575 149.093904 
L 354.701833 90.954866 
L 354.854091 114.210481 
L 355.158607 67.699251 
L 355.61538 137.466096 
L 355.767638 125.838289 
L 355.919896 160.721711 
L 356.072154 90.954866 
L 356.224412 125.838289 
L 356.37667 90.954866 
L 356.528928 90.954866 
L 356.681186 102.582674 
L 356.833444 102.582674 
L 356.985702 114.210481 
L 357.13796 102.582674 
L 357.290218 137.466096 
L 357.442476 67.699251 
L 357.594734 137.466096 
L 357.746992 125.838289 
L 357.89925 102.582674 
L 358.051508 114.210481 
L 358.356023 114.210481 
L 358.660539 67.699251 
L 358.812797 125.838289 
L 358.965055 102.582674 
L 359.117313 114.210481 
L 359.269571 90.954866 
L 359.421829 149.093904 
L 359.574087 90.954866 
L 359.726345 137.466096 
L 359.878603 114.210481 
L 360.030861 137.466096 
L 360.335377 56.071444 
L 360.487635 102.582674 
L 360.639893 90.954866 
L 360.944409 114.210481 
L 361.096667 90.954866 
L 361.248924 125.838289 
L 361.401182 79.327059 
L 361.705698 125.838289 
L 361.857956 56.071444 
L 362.31473 183.977326 
L 362.466988 125.838289 
L 362.619246 114.210481 
L 362.923762 137.466096 
L 363.07602 207.232941 
L 363.228278 125.838289 
L 363.380536 114.210481 
L 363.532794 56.071444 
L 363.685052 79.327059 
L 363.83731 137.466096 
L 363.989568 114.210481 
L 364.141825 114.210481 
L 364.294083 79.327059 
L 364.446341 149.093904 
L 364.598599 137.466096 
L 364.750857 79.327059 
L 365.055373 149.093904 
L 365.207631 90.954866 
L 365.359889 102.582674 
L 365.664405 102.582674 
L 365.816663 79.327059 
L 366.121179 102.582674 
L 366.273437 90.954866 
L 366.425695 125.838289 
L 366.577953 114.210481 
L 366.730211 90.954866 
L 366.882469 125.838289 
L 367.034726 79.327059 
L 367.186984 79.327059 
L 367.339242 137.466096 
L 367.4915 90.954866 
L 367.643758 90.954866 
L 367.796016 102.582674 
L 367.948274 90.954866 
L 368.25279 90.954866 
L 368.405048 102.582674 
L 368.557306 149.093904 
L 368.861822 79.327059 
L 369.01408 79.327059 
L 369.166338 56.071444 
L 369.318596 149.093904 
L 369.470854 160.721711 
L 369.623112 67.699251 
L 369.77537 102.582674 
L 369.927627 79.327059 
L 370.384401 137.466096 
L 370.536659 90.954866 
L 370.688917 114.210481 
L 370.841175 114.210481 
L 370.993433 79.327059 
L 371.145691 102.582674 
L 371.297949 67.699251 
L 371.602465 125.838289 
L 371.754723 172.349519 
L 371.906981 79.327059 
L 372.059239 125.838289 
L 372.363755 125.838289 
L 372.66827 102.582674 
L 372.820528 149.093904 
L 373.125044 102.582674 
L 373.277302 137.466096 
L 373.42956 114.210481 
L 373.581818 125.838289 
L 373.581818 125.838289 
" style="fill:none;stroke:#0000ff;stroke-linecap:square;stroke-opacity:0.2;stroke-width:1.5;"/>
   </g>
   <g id="line2d_20">
    <path clip-path="url(#p021d07f70c)" d="M 54 160.721711 
L 388.8 160.721711 
" style="fill:none;stroke:#1f77b4;stroke-linecap:square;stroke-width:1.5;"/>
   </g>
   <g id="patch_3">
    <path d="M 54 252 
L 54 34.56 
" style="fill:none;stroke:#000000;stroke-linecap:square;stroke-linejoin:miter;stroke-width:0.8;"/>
   </g>
   <g id="patch_4">
    <path d="M 388.8 252 
L 388.8 34.56 
" style="fill:none;stroke:#000000;stroke-linecap:square;stroke-linejoin:miter;stroke-width:0.8;"/>
   </g>
   <g id="patch_5">
    <path d="M 54 252 
L 388.8 252 
" style="fill:none;stroke:#000000;stroke-linecap:square;stroke-linejoin:miter;stroke-width:0.8;"/>
   </g>
   <g id="patch_6">
    <path d="M 54 34.56 
L 388.8 34.56 
" style="fill:none;stroke:#000000;stroke-linecap:square;stroke-linejoin:miter;stroke-width:0.8;"/>
   </g>
  </g>
 </g>
 <defs>
  <clipPath id="p021d07f70c">
   <rect height="217.44" width="334.8" x="54" y="34.56"/>
  </clipPath>
 </defs>
</svg>
