<?xml version="1.0" encoding="utf-8" standalone="no"?>
<!DOCTYPE svg PUBLIC "-//W3C//DTD SVG 1.1//EN"
  "http://www.w3.org/Graphics/SVG/1.1/DTD/svg11.dtd">
<!-- Created with matplotlib (https://matplotlib.org/) -->
<svg height="288pt" version="1.1" viewBox="0 0 432 288" width="432pt" xmlns="http://www.w3.org/2000/svg" xmlns:xlink="http://www.w3.org/1999/xlink">
 <defs>
  <style type="text/css">
*{stroke-linecap:butt;stroke-linejoin:round;}
  </style>
 </defs>
 <g id="figure_1">
  <g id="patch_1">
   <path d="M 0 288 
L 432 288 
L 432 0 
L 0 0 
z
" style="fill:#ffffff;"/>
  </g>
  <g id="axes_1">
   <g id="patch_2">
    <path d="M 54 252 
L 388.8 252 
L 388.8 34.56 
L 54 34.56 
z
" style="fill:#ffffff;"/>
   </g>
   <g id="matplotlib.axis_1">
    <g id="xtick_1">
     <g id="line2d_1">
      <defs>
       <path d="M 0 0 
L 0 3.5 
" id="m1413166c6c" style="stroke:#000000;stroke-width:0.8;"/>
      </defs>
      <g>
       <use style="stroke:#000000;stroke-width:0.8;" x="69.218182" xlink:href="#m1413166c6c" y="252"/>
      </g>
     </g>
     <g id="text_1">
      <!-- 0 -->
      <defs>
       <path d="M 31.78125 66.40625 
Q 24.171875 66.40625 20.328125 58.90625 
Q 16.5 51.421875 16.5 36.375 
Q 16.5 21.390625 20.328125 13.890625 
Q 24.171875 6.390625 31.78125 6.390625 
Q 39.453125 6.390625 43.28125 13.890625 
Q 47.125 21.390625 47.125 36.375 
Q 47.125 51.421875 43.28125 58.90625 
Q 39.453125 66.40625 31.78125 66.40625 
z
M 31.78125 74.21875 
Q 44.046875 74.21875 50.515625 64.515625 
Q 56.984375 54.828125 56.984375 36.375 
Q 56.984375 17.96875 50.515625 8.265625 
Q 44.046875 -1.421875 31.78125 -1.421875 
Q 19.53125 -1.421875 13.0625 8.265625 
Q 6.59375 17.96875 6.59375 36.375 
Q 6.59375 54.828125 13.0625 64.515625 
Q 19.53125 74.21875 31.78125 74.21875 
z
" id="DejaVuSans-48"/>
      </defs>
      <g transform="translate(66.036932 266.598437)scale(0.1 -0.1)">
       <use xlink:href="#DejaVuSans-48"/>
      </g>
     </g>
    </g>
    <g id="xtick_2">
     <g id="line2d_2">
      <g>
       <use style="stroke:#000000;stroke-width:0.8;" x="107.282669" xlink:href="#m1413166c6c" y="252"/>
      </g>
     </g>
     <g id="text_2">
      <!-- 250 -->
      <defs>
       <path d="M 19.1875 8.296875 
L 53.609375 8.296875 
L 53.609375 0 
L 7.328125 0 
L 7.328125 8.296875 
Q 12.9375 14.109375 22.625 23.890625 
Q 32.328125 33.6875 34.8125 36.53125 
Q 39.546875 41.84375 41.421875 45.53125 
Q 43.3125 49.21875 43.3125 52.78125 
Q 43.3125 58.59375 39.234375 62.25 
Q 35.15625 65.921875 28.609375 65.921875 
Q 23.96875 65.921875 18.8125 64.3125 
Q 13.671875 62.703125 7.8125 59.421875 
L 7.8125 69.390625 
Q 13.765625 71.78125 18.9375 73 
Q 24.125 74.21875 28.421875 74.21875 
Q 39.75 74.21875 46.484375 68.546875 
Q 53.21875 62.890625 53.21875 53.421875 
Q 53.21875 48.921875 51.53125 44.890625 
Q 49.859375 40.875 45.40625 35.40625 
Q 44.1875 33.984375 37.640625 27.21875 
Q 31.109375 20.453125 19.1875 8.296875 
z
" id="DejaVuSans-50"/>
       <path d="M 10.796875 72.90625 
L 49.515625 72.90625 
L 49.515625 64.59375 
L 19.828125 64.59375 
L 19.828125 46.734375 
Q 21.96875 47.46875 24.109375 47.828125 
Q 26.265625 48.1875 28.421875 48.1875 
Q 40.625 48.1875 47.75 41.5 
Q 54.890625 34.8125 54.890625 23.390625 
Q 54.890625 11.625 47.5625 5.09375 
Q 40.234375 -1.421875 26.90625 -1.421875 
Q 22.3125 -1.421875 17.546875 -0.640625 
Q 12.796875 0.140625 7.71875 1.703125 
L 7.71875 11.625 
Q 12.109375 9.234375 16.796875 8.0625 
Q 21.484375 6.890625 26.703125 6.890625 
Q 35.15625 6.890625 40.078125 11.328125 
Q 45.015625 15.765625 45.015625 23.390625 
Q 45.015625 31 40.078125 35.4375 
Q 35.15625 39.890625 26.703125 39.890625 
Q 22.75 39.890625 18.8125 39.015625 
Q 14.890625 38.140625 10.796875 36.28125 
z
" id="DejaVuSans-53"/>
      </defs>
      <g transform="translate(97.738919 266.598437)scale(0.1 -0.1)">
       <use xlink:href="#DejaVuSans-50"/>
       <use x="63.623047" xlink:href="#DejaVuSans-53"/>
       <use x="127.246094" xlink:href="#DejaVuSans-48"/>
      </g>
     </g>
    </g>
    <g id="xtick_3">
     <g id="line2d_3">
      <g>
       <use style="stroke:#000000;stroke-width:0.8;" x="145.347155" xlink:href="#m1413166c6c" y="252"/>
      </g>
     </g>
     <g id="text_3">
      <!-- 500 -->
      <g transform="translate(135.803405 266.598437)scale(0.1 -0.1)">
       <use xlink:href="#DejaVuSans-53"/>
       <use x="63.623047" xlink:href="#DejaVuSans-48"/>
       <use x="127.246094" xlink:href="#DejaVuSans-48"/>
      </g>
     </g>
    </g>
    <g id="xtick_4">
     <g id="line2d_4">
      <g>
       <use style="stroke:#000000;stroke-width:0.8;" x="183.411642" xlink:href="#m1413166c6c" y="252"/>
      </g>
     </g>
     <g id="text_4">
      <!-- 750 -->
      <defs>
       <path d="M 8.203125 72.90625 
L 55.078125 72.90625 
L 55.078125 68.703125 
L 28.609375 0 
L 18.3125 0 
L 43.21875 64.59375 
L 8.203125 64.59375 
z
" id="DejaVuSans-55"/>
      </defs>
      <g transform="translate(173.867892 266.598437)scale(0.1 -0.1)">
       <use xlink:href="#DejaVuSans-55"/>
       <use x="63.623047" xlink:href="#DejaVuSans-53"/>
       <use x="127.246094" xlink:href="#DejaVuSans-48"/>
      </g>
     </g>
    </g>
    <g id="xtick_5">
     <g id="line2d_5">
      <g>
       <use style="stroke:#000000;stroke-width:0.8;" x="221.476129" xlink:href="#m1413166c6c" y="252"/>
      </g>
     </g>
     <g id="text_5">
      <!-- 1000 -->
      <defs>
       <path d="M 12.40625 8.296875 
L 28.515625 8.296875 
L 28.515625 63.921875 
L 10.984375 60.40625 
L 10.984375 69.390625 
L 28.421875 72.90625 
L 38.28125 72.90625 
L 38.28125 8.296875 
L 54.390625 8.296875 
L 54.390625 0 
L 12.40625 0 
z
" id="DejaVuSans-49"/>
      </defs>
      <g transform="translate(208.751129 266.598437)scale(0.1 -0.1)">
       <use xlink:href="#DejaVuSans-49"/>
       <use x="63.623047" xlink:href="#DejaVuSans-48"/>
       <use x="127.246094" xlink:href="#DejaVuSans-48"/>
       <use x="190.869141" xlink:href="#DejaVuSans-48"/>
      </g>
     </g>
    </g>
    <g id="xtick_6">
     <g id="line2d_6">
      <g>
       <use style="stroke:#000000;stroke-width:0.8;" x="259.540616" xlink:href="#m1413166c6c" y="252"/>
      </g>
     </g>
     <g id="text_6">
      <!-- 1250 -->
      <g transform="translate(246.815616 266.598437)scale(0.1 -0.1)">
       <use xlink:href="#DejaVuSans-49"/>
       <use x="63.623047" xlink:href="#DejaVuSans-50"/>
       <use x="127.246094" xlink:href="#DejaVuSans-53"/>
       <use x="190.869141" xlink:href="#DejaVuSans-48"/>
      </g>
     </g>
    </g>
    <g id="xtick_7">
     <g id="line2d_7">
      <g>
       <use style="stroke:#000000;stroke-width:0.8;" x="297.605103" xlink:href="#m1413166c6c" y="252"/>
      </g>
     </g>
     <g id="text_7">
      <!-- 1500 -->
      <g transform="translate(284.880103 266.598437)scale(0.1 -0.1)">
       <use xlink:href="#DejaVuSans-49"/>
       <use x="63.623047" xlink:href="#DejaVuSans-53"/>
       <use x="127.246094" xlink:href="#DejaVuSans-48"/>
       <use x="190.869141" xlink:href="#DejaVuSans-48"/>
      </g>
     </g>
    </g>
    <g id="xtick_8">
     <g id="line2d_8">
      <g>
       <use style="stroke:#000000;stroke-width:0.8;" x="335.669589" xlink:href="#m1413166c6c" y="252"/>
      </g>
     </g>
     <g id="text_8">
      <!-- 1750 -->
      <g transform="translate(322.944589 266.598437)scale(0.1 -0.1)">
       <use xlink:href="#DejaVuSans-49"/>
       <use x="63.623047" xlink:href="#DejaVuSans-55"/>
       <use x="127.246094" xlink:href="#DejaVuSans-53"/>
       <use x="190.869141" xlink:href="#DejaVuSans-48"/>
      </g>
     </g>
    </g>
    <g id="xtick_9">
     <g id="line2d_9">
      <g>
       <use style="stroke:#000000;stroke-width:0.8;" x="373.734076" xlink:href="#m1413166c6c" y="252"/>
      </g>
     </g>
     <g id="text_9">
      <!-- 2000 -->
      <g transform="translate(361.009076 266.598437)scale(0.1 -0.1)">
       <use xlink:href="#DejaVuSans-50"/>
       <use x="63.623047" xlink:href="#DejaVuSans-48"/>
       <use x="127.246094" xlink:href="#DejaVuSans-48"/>
       <use x="190.869141" xlink:href="#DejaVuSans-48"/>
      </g>
     </g>
    </g>
   </g>
   <g id="matplotlib.axis_2">
    <g id="ytick_1">
     <g id="line2d_10">
      <defs>
       <path d="M 0 0 
L -3.5 0 
" id="m91c699dc9a" style="stroke:#000000;stroke-width:0.8;"/>
      </defs>
      <g>
       <use style="stroke:#000000;stroke-width:0.8;" x="54" xlink:href="#m91c699dc9a" y="242.116364"/>
      </g>
     </g>
     <g id="text_10">
      <!-- −3.0 -->
      <defs>
       <path d="M 10.59375 35.5 
L 73.1875 35.5 
L 73.1875 27.203125 
L 10.59375 27.203125 
z
" id="DejaVuSans-8722"/>
       <path d="M 40.578125 39.3125 
Q 47.65625 37.796875 51.625 33 
Q 55.609375 28.21875 55.609375 21.1875 
Q 55.609375 10.40625 48.1875 4.484375 
Q 40.765625 -1.421875 27.09375 -1.421875 
Q 22.515625 -1.421875 17.65625 -0.515625 
Q 12.796875 0.390625 7.625 2.203125 
L 7.625 11.71875 
Q 11.71875 9.328125 16.59375 8.109375 
Q 21.484375 6.890625 26.8125 6.890625 
Q 36.078125 6.890625 40.9375 10.546875 
Q 45.796875 14.203125 45.796875 21.1875 
Q 45.796875 27.640625 41.28125 31.265625 
Q 36.765625 34.90625 28.71875 34.90625 
L 20.21875 34.90625 
L 20.21875 43.015625 
L 29.109375 43.015625 
Q 36.375 43.015625 40.234375 45.921875 
Q 44.09375 48.828125 44.09375 54.296875 
Q 44.09375 59.90625 40.109375 62.90625 
Q 36.140625 65.921875 28.71875 65.921875 
Q 24.65625 65.921875 20.015625 65.03125 
Q 15.375 64.15625 9.8125 62.3125 
L 9.8125 71.09375 
Q 15.4375 72.65625 20.34375 73.4375 
Q 25.25 74.21875 29.59375 74.21875 
Q 40.828125 74.21875 47.359375 69.109375 
Q 53.90625 64.015625 53.90625 55.328125 
Q 53.90625 49.265625 50.4375 45.09375 
Q 46.96875 40.921875 40.578125 39.3125 
z
" id="DejaVuSans-51"/>
       <path d="M 10.6875 12.40625 
L 21 12.40625 
L 21 0 
L 10.6875 0 
z
" id="DejaVuSans-46"/>
      </defs>
      <g transform="translate(22.717187 245.915582)scale(0.1 -0.1)">
       <use xlink:href="#DejaVuSans-8722"/>
       <use x="83.789062" xlink:href="#DejaVuSans-51"/>
       <use x="147.412109" xlink:href="#DejaVuSans-46"/>
       <use x="179.199219" xlink:href="#DejaVuSans-48"/>
      </g>
     </g>
    </g>
    <g id="ytick_2">
     <g id="line2d_11">
      <g>
       <use style="stroke:#000000;stroke-width:0.8;" x="54" xlink:href="#m91c699dc9a" y="217.407273"/>
      </g>
     </g>
     <g id="text_11">
      <!-- −2.5 -->
      <g transform="translate(22.717187 221.206491)scale(0.1 -0.1)">
       <use xlink:href="#DejaVuSans-8722"/>
       <use x="83.789062" xlink:href="#DejaVuSans-50"/>
       <use x="147.412109" xlink:href="#DejaVuSans-46"/>
       <use x="179.199219" xlink:href="#DejaVuSans-53"/>
      </g>
     </g>
    </g>
    <g id="ytick_3">
     <g id="line2d_12">
      <g>
       <use style="stroke:#000000;stroke-width:0.8;" x="54" xlink:href="#m91c699dc9a" y="192.698182"/>
      </g>
     </g>
     <g id="text_12">
      <!-- −2.0 -->
      <g transform="translate(22.717187 196.497401)scale(0.1 -0.1)">
       <use xlink:href="#DejaVuSans-8722"/>
       <use x="83.789062" xlink:href="#DejaVuSans-50"/>
       <use x="147.412109" xlink:href="#DejaVuSans-46"/>
       <use x="179.199219" xlink:href="#DejaVuSans-48"/>
      </g>
     </g>
    </g>
    <g id="ytick_4">
     <g id="line2d_13">
      <g>
       <use style="stroke:#000000;stroke-width:0.8;" x="54" xlink:href="#m91c699dc9a" y="167.989091"/>
      </g>
     </g>
     <g id="text_13">
      <!-- −1.5 -->
      <g transform="translate(22.717187 171.78831)scale(0.1 -0.1)">
       <use xlink:href="#DejaVuSans-8722"/>
       <use x="83.789062" xlink:href="#DejaVuSans-49"/>
       <use x="147.412109" xlink:href="#DejaVuSans-46"/>
       <use x="179.199219" xlink:href="#DejaVuSans-53"/>
      </g>
     </g>
    </g>
    <g id="ytick_5">
     <g id="line2d_14">
      <g>
       <use style="stroke:#000000;stroke-width:0.8;" x="54" xlink:href="#m91c699dc9a" y="143.28"/>
      </g>
     </g>
     <g id="text_14">
      <!-- −1.0 -->
      <g transform="translate(22.717187 147.079219)scale(0.1 -0.1)">
       <use xlink:href="#DejaVuSans-8722"/>
       <use x="83.789062" xlink:href="#DejaVuSans-49"/>
       <use x="147.412109" xlink:href="#DejaVuSans-46"/>
       <use x="179.199219" xlink:href="#DejaVuSans-48"/>
      </g>
     </g>
    </g>
    <g id="ytick_6">
     <g id="line2d_15">
      <g>
       <use style="stroke:#000000;stroke-width:0.8;" x="54" xlink:href="#m91c699dc9a" y="118.570909"/>
      </g>
     </g>
     <g id="text_15">
      <!-- −0.5 -->
      <g transform="translate(22.717187 122.370128)scale(0.1 -0.1)">
       <use xlink:href="#DejaVuSans-8722"/>
       <use x="83.789062" xlink:href="#DejaVuSans-48"/>
       <use x="147.412109" xlink:href="#DejaVuSans-46"/>
       <use x="179.199219" xlink:href="#DejaVuSans-53"/>
      </g>
     </g>
    </g>
    <g id="ytick_7">
     <g id="line2d_16">
      <g>
       <use style="stroke:#000000;stroke-width:0.8;" x="54" xlink:href="#m91c699dc9a" y="93.861818"/>
      </g>
     </g>
     <g id="text_16">
      <!-- 0.0 -->
      <g transform="translate(31.096875 97.661037)scale(0.1 -0.1)">
       <use xlink:href="#DejaVuSans-48"/>
       <use x="63.623047" xlink:href="#DejaVuSans-46"/>
       <use x="95.410156" xlink:href="#DejaVuSans-48"/>
      </g>
     </g>
    </g>
    <g id="ytick_8">
     <g id="line2d_17">
      <g>
       <use style="stroke:#000000;stroke-width:0.8;" x="54" xlink:href="#m91c699dc9a" y="69.152727"/>
      </g>
     </g>
     <g id="text_17">
      <!-- 0.5 -->
      <g transform="translate(31.096875 72.951946)scale(0.1 -0.1)">
       <use xlink:href="#DejaVuSans-48"/>
       <use x="63.623047" xlink:href="#DejaVuSans-46"/>
       <use x="95.410156" xlink:href="#DejaVuSans-53"/>
      </g>
     </g>
    </g>
    <g id="ytick_9">
     <g id="line2d_18">
      <g>
       <use style="stroke:#000000;stroke-width:0.8;" x="54" xlink:href="#m91c699dc9a" y="44.443636"/>
      </g>
     </g>
     <g id="text_18">
      <!-- 1.0 -->
      <g transform="translate(31.096875 48.242855)scale(0.1 -0.1)">
       <use xlink:href="#DejaVuSans-49"/>
       <use x="63.623047" xlink:href="#DejaVuSans-46"/>
       <use x="95.410156" xlink:href="#DejaVuSans-48"/>
      </g>
     </g>
    </g>
   </g>
   <g id="line2d_19">
    <path clip-path="url(#p23d2ef240e)" d="M 69.218182 206.732945 
L 69.37044 200.786291 
L 69.522698 200.786291 
L 69.827214 205.662218 
L 69.979472 205.662218 
L 70.13173 201.247527 
L 70.283987 201.247527 
L 70.436245 206.683527 
L 70.588503 206.683527 
L 70.740761 204.130255 
L 71.045277 208.989709 
L 71.197535 208.989709 
L 71.349793 204.953891 
L 71.502051 207.935455 
L 71.654309 202.548873 
L 71.806567 202.548873 
L 71.958825 200.819236 
L 72.111083 200.819236 
L 72.415599 194.460764 
L 72.567857 194.460764 
L 72.720115 201.049855 
L 72.872373 196.898727 
L 73.02463 200.835709 
L 73.176888 198.430691 
L 73.633662 205.135091 
L 73.78592 202.285309 
L 73.938178 202.548873 
L 74.394952 202.548873 
L 74.54721 199.8144 
L 74.699468 204.229091 
L 74.851726 204.229091 
L 75.003984 202.202945 
L 75.156242 202.202945 
L 75.3085 204.756218 
L 75.613016 194.164255 
L 75.765274 194.164255 
L 75.917531 198.200073 
L 76.069789 198.200073 
L 76.222047 203.586655 
L 76.374305 203.586655 
L 76.526563 205.316291 
L 76.678821 205.316291 
L 76.831079 205.497491 
L 76.983337 207.589527 
L 77.135595 207.589527 
L 77.440111 201.478145 
L 77.592369 201.478145 
L 77.744627 203.883164 
L 78.201401 203.883164 
L 78.353659 206.732945 
L 78.505917 212.416036 
L 78.658175 212.416036 
L 78.810432 208.643782 
L 78.96269 208.643782 
L 79.267206 203.965527 
L 79.419464 203.965527 
L 79.571722 205.991673 
L 79.876238 196.223345 
L 80.028496 197.557636 
L 80.180754 196.9152 
L 80.333012 196.9152 
L 80.48527 192.401673 
L 80.637528 192.401673 
L 80.789786 188.892982 
L 81.24656 188.892982 
L 81.398818 192.978218 
L 81.551076 186.883309 
L 81.703333 186.883309 
L 81.855591 187.624582 
L 82.007849 194.032473 
L 82.160107 194.032473 
L 82.769139 183.012218 
L 83.225913 183.012218 
L 83.378171 184.4124 
L 83.530429 179.635309 
L 83.987203 176.6208 
L 84.139461 176.6208 
L 84.291719 182.798073 
L 84.443977 182.452145 
L 84.748492 192.352255 
L 84.90075 187.772836 
L 85.053008 189.205964 
L 85.205266 189.205964 
L 85.357524 186.4056 
L 85.966556 186.4056 
L 86.118814 192.500509 
L 86.271072 192.500509 
L 86.42333 192.797018 
L 86.575588 192.797018 
L 86.880104 185.993782 
L 87.032362 191.396836 
L 87.18462 191.396836 
L 87.641393 187.706945 
L 87.793651 187.706945 
L 87.945909 190.079018 
L 88.098167 190.359055 
L 88.250425 192.039273 
L 88.554941 187.229236 
L 88.707199 182.979273 
L 88.859457 182.979273 
L 89.011715 186.916255 
L 89.316231 176.917309 
L 89.468489 177.757418 
L 89.620747 180.837818 
L 89.773005 180.837818 
L 89.925263 187.146873 
L 90.382036 172.156691 
L 90.686552 160.625782 
L 90.83881 160.625782 
L 90.991068 163.442618 
L 91.143326 163.442618 
L 91.295584 162.931964 
L 91.447842 169.0104 
L 91.6001 169.0104 
L 91.752358 166.457127 
L 91.904616 170.229382 
L 92.056874 168.269127 
L 92.209132 163.113164 
L 92.513648 163.113164 
L 92.818164 165.172255 
L 92.970422 166.539491 
L 93.12268 166.852473 
L 93.274937 171.102436 
L 93.579453 163.590873 
L 93.731711 168.730364 
L 93.883969 167.9232 
L 94.036227 171.662509 
L 94.188485 171.662509 
L 94.493001 165.435818 
L 94.797517 174.561709 
L 94.949775 171.711927 
L 95.254291 183.242836 
L 95.406549 183.242836 
L 95.558807 177.016145 
L 95.711065 177.016145 
L 95.863323 181.595564 
L 96.624612 164.150945 
L 96.77687 162.8496 
L 96.929128 159.653891 
L 97.081386 159.653891 
L 97.233644 159.835091 
L 97.385902 159.0444 
L 97.690418 163.5744 
L 97.842676 163.5744 
L 98.147192 171.085964 
L 98.29945 171.085964 
L 98.451708 176.752582 
L 98.603966 170.328218 
L 98.756224 170.328218 
L 98.908482 172.617927 
L 99.212997 164.282727 
L 99.517513 170.344691 
L 99.669771 170.344691 
L 99.974287 160.938764 
L 100.126545 167.165455 
L 100.431061 167.165455 
L 100.583319 167.363127 
L 100.735577 170.147018 
L 100.887835 170.723564 
L 101.040093 174.182836 
L 101.192351 174.2652 
L 101.496867 183.918218 
L 101.649125 178.317491 
L 101.801383 181.809709 
L 101.95364 182.567455 
L 102.105898 185.483127 
L 102.410414 176.719636 
L 102.71493 176.719636 
L 103.019446 165.007527 
L 103.171704 168.433855 
L 103.323962 168.433855 
L 103.47622 165.7488 
L 103.628478 170.608255 
L 103.780736 169.702255 
L 103.932994 163.590873 
L 104.085252 166.242982 
L 104.23751 159.900982 
L 104.389768 165.172255 
L 104.542026 163.327309 
L 104.998799 163.327309 
L 105.151057 163.887382 
L 105.303315 160.3128 
L 105.455573 159.884509 
L 105.607831 162.684873 
L 105.760089 168.779782 
L 106.064605 168.779782 
L 106.216863 169.076291 
L 106.521379 161.465891 
L 106.673637 156.029891 
L 106.978153 158.682 
L 107.130411 155.288618 
L 107.282669 149.160764 
L 107.587185 157.644218 
L 107.739442 157.495964 
L 107.8917 153.806073 
L 108.043958 153.394255 
L 108.196216 153.394255 
L 108.500732 161.251745 
L 108.65299 161.251745 
L 108.805248 161.070545 
L 108.957506 161.070545 
L 109.109764 162.767236 
L 109.566538 149.918509 
L 109.871054 148.403018 
L 110.023312 153.493091 
L 110.327828 141.237382 
L 110.480085 141.237382 
L 110.632343 135.126 
L 110.784601 134.895382 
L 110.936859 140.759673 
L 111.545891 146.261564 
L 111.698149 146.096836 
L 111.850407 147.694691 
L 112.002665 146.904 
L 112.307181 138.519382 
L 112.611697 147.529964 
L 112.763955 145.026109 
L 112.916213 139.639527 
L 113.068471 141.056182 
L 113.220729 136.7568 
L 113.372986 140.314909 
L 113.525244 140.314909 
L 113.677502 140.726727 
L 113.82976 139.590109 
L 113.982018 145.339091 
L 114.134276 142.604618 
L 114.286534 142.308109 
L 114.438792 143.658873 
L 114.59105 143.658873 
L 114.743308 147.299345 
L 114.895566 147.859418 
L 115.047824 143.955382 
L 115.200082 150.066764 
L 115.35234 149.243127 
L 115.504598 144.284836 
L 115.809114 151.236327 
L 115.961372 148.831309 
L 116.11363 142.950545 
L 116.265887 143.082327 
L 116.570403 140.627891 
L 116.874919 152.1588 
L 117.027177 152.1588 
L 117.179435 146.887527 
L 117.483951 144.400145 
L 117.636209 144.449564 
L 117.788467 146.969891 
L 117.940725 145.882691 
L 118.092983 141.056182 
L 118.245241 144.927273 
L 118.397499 144.021273 
L 118.549757 144.021273 
L 118.854273 153.476618 
L 119.006531 156.540545 
L 119.158788 156.540545 
L 119.311046 156.721745 
L 119.463304 161.9436 
L 119.615562 162.470727 
L 119.76782 159.538582 
L 119.920078 160.642255 
L 120.072336 160.922291 
L 120.224594 155.667491 
L 120.376852 155.667491 
L 120.52911 158.385491 
L 120.681368 164.266255 
L 120.833626 161.811818 
L 121.138142 172.8156 
L 121.2904 170.987127 
L 121.594916 158.797309 
L 121.747174 158.8632 
L 121.899432 156.276982 
L 122.051689 162.800182 
L 122.356205 158.813782 
L 122.508463 157.133564 
L 122.660721 161.960073 
L 122.812979 156.392291 
L 122.965237 156.968836 
L 123.117495 156.968836 
L 123.726527 136.905055 
L 123.878785 139.557164 
L 124.031043 137.086255 
L 124.183301 140.463164 
L 124.335559 136.921527 
L 124.487817 136.246145 
L 124.792333 133.890545 
L 124.94459 129.162873 
L 125.096848 132.918655 
L 125.249106 126.461345 
L 125.401364 126.626073 
L 125.70588 118.307345 
L 125.858138 115.424618 
L 126.010396 118.126145 
L 126.162654 124.451673 
L 126.314912 124.039855 
L 126.46717 124.286945 
L 126.619428 118.505018 
L 126.771686 119.312182 
L 126.923944 116.8248 
L 127.076202 122.557309 
L 127.22846 117.121309 
L 127.532976 120.234655 
L 127.685234 118.323818 
L 127.837491 118.982727 
L 127.989749 117.384873 
L 128.142007 121.601891 
L 128.294265 121.008873 
L 128.446523 118.422655 
L 128.598781 120.893564 
L 128.751039 118.4556 
L 128.903297 121.914873 
L 129.055555 121.750145 
L 129.360071 123.809236 
L 129.512329 126.214255 
L 129.664587 120.349964 
L 129.816845 123.809236 
L 129.969103 123.216218 
L 130.121361 124.122218 
L 130.425877 119.3616 
L 130.578135 117.648436 
L 130.730392 113.694982 
L 130.88265 114.337418 
L 131.187166 119.526327 
L 131.339424 120.498218 
L 131.491682 122.524364 
L 131.64394 119.246291 
L 131.796198 124.682291 
L 131.948456 123.265636 
L 132.100714 123.348 
L 132.252972 118.867418 
L 132.40523 119.872255 
L 132.557488 123.924545 
L 132.709746 118.9992 
L 132.862004 118.768582 
L 133.471036 105.985745 
L 133.623293 108.802582 
L 133.775551 114.353891 
L 133.927809 115.062218 
L 134.080067 110.911091 
L 134.232325 112.311273 
L 134.384583 109.758 
L 134.536841 110.976982 
L 134.689099 109.115564 
L 134.841357 108.786109 
L 134.993615 110.038036 
L 135.450389 107.616545 
L 136.059421 96.909273 
L 136.211679 94.504255 
L 136.363937 88.162255 
L 136.516194 90.501382 
L 136.668452 89.826 
L 136.82071 89.908364 
L 137.125226 86.086691 
L 137.277484 87.206836 
L 137.429742 89.710691 
L 137.734258 90.649636 
L 137.886516 90.567273 
L 138.038774 91.588582 
L 138.191032 88.425818 
L 138.495548 79.612909 
L 138.647806 80.667164 
L 139.10458 78.4104 
L 139.409095 79.4976 
L 139.561353 79.234036 
L 139.713611 80.766 
L 139.865869 79.958836 
L 140.170385 79.728218 
L 140.627159 82.116764 
L 140.779417 81.655527 
L 140.931675 81.787309 
L 141.083933 77.965636 
L 141.388449 81.704945 
L 141.540707 81.1284 
L 141.845223 77.883273 
L 141.997481 77.982109 
L 142.149739 78.328036 
L 142.301996 76.730182 
L 142.454254 76.565455 
L 142.606512 73.534473 
L 142.75877 74.9676 
L 143.063286 75.280582 
L 143.52006 73.139127 
L 143.672318 73.567418 
L 143.824576 72.595527 
L 143.976834 73.929818 
L 144.129092 73.715673 
L 144.433608 70.816473 
L 144.890382 69.103309 
L 145.194897 67.176 
L 145.499413 68.526764 
L 145.651671 68.114945 
L 145.956187 64.458 
L 146.260703 65.298109 
L 146.412961 66.467673 
L 146.717477 63.206073 
L 147.021993 62.975455 
L 147.174251 62.382436 
L 147.326509 61.212873 
L 147.783283 60.899891 
L 148.087798 61.443491 
L 148.240056 61.146982 
L 148.392314 61.3776 
L 148.69683 60.224509 
L 148.849088 61.542327 
L 149.001346 61.5588 
L 149.153604 62.365964 
L 149.305862 63.881455 
L 149.45812 64.145018 
L 149.762636 66.302945 
L 149.914894 65.924073 
L 150.21941 66.615927 
L 150.523926 66.401782 
L 150.828441 67.406618 
L 150.980699 65.9076 
L 151.132957 65.7264 
L 151.437473 68.757382 
L 151.589731 68.543236 
L 151.894247 69.432764 
L 152.046505 71.689527 
L 152.198763 71.854255 
L 152.351021 72.282545 
L 152.503279 72.233127 
L 152.960053 71.310655 
L 153.112311 71.129455 
L 153.264569 71.738945 
L 153.416827 70.849418 
L 153.721342 71.294182 
L 153.8736 69.795164 
L 154.025858 69.679855 
L 154.178116 70.157564 
L 154.63489 68.378509 
L 154.787148 68.922109 
L 154.939406 68.872691 
L 155.243922 67.571345 
L 155.39618 67.867855 
L 155.548438 66.879491 
L 155.700696 67.011273 
L 156.005212 63.7332 
L 156.15747 64.046182 
L 156.461986 63.123709 
L 156.614243 60.636327 
L 156.766501 61.245818 
L 157.071017 60.619855 
L 157.223275 61.114036 
L 157.375533 62.991927 
L 157.527791 63.074291 
L 157.832307 61.855309 
L 157.984565 62.118873 
L 158.136823 61.855309 
L 158.289081 61.114036 
L 158.593597 61.212873 
L 158.745855 60.932836 
L 158.898113 59.944473 
L 159.050371 60.175091 
L 159.202629 61.772945 
L 159.354887 61.311709 
L 159.659402 62.003564 
L 159.81166 61.871782 
L 159.963918 61.114036 
L 160.57295 60.932836 
L 160.725208 60.998727 
L 160.877466 61.3776 
L 161.029724 61.311709 
L 161.181982 61.789418 
L 161.33424 61.212873 
L 161.638756 61.904727 
L 161.791014 61.509382 
L 161.943272 59.631491 
L 162.247788 59.796218 
L 162.400045 61.114036 
L 162.704561 60.438655 
L 162.856819 60.175091 
L 163.009077 60.323345 
L 163.161335 60.175091 
L 163.313593 59.170255 
L 163.465851 59.269091 
L 163.618109 58.560764 
L 163.770367 56.913491 
L 163.922625 56.8476 
L 164.074883 56.386364 
L 164.227141 56.946436 
L 164.531657 56.073382 
L 164.836173 56.304 
L 164.988431 56.304 
L 165.140689 56.551091 
L 165.445204 55.7604 
L 165.74972 56.287527 
L 165.901978 56.271055 
L 166.206494 55.381527 
L 166.358752 55.612145 
L 166.51101 55.612145 
L 166.663268 55.167382 
L 166.815526 55.348582 
L 166.967784 54.113127 
L 167.2723 55.233273 
L 167.424558 55.282691 
L 167.729074 55.859236 
L 167.881332 55.908655 
L 168.03359 56.139273 
L 168.338105 57.259418 
L 168.490363 57.177055 
L 168.642621 57.984218 
L 168.794879 57.5724 
L 169.099395 57.803018 
L 169.251653 57.605345 
L 169.403911 57.720655 
L 169.708427 58.181891 
L 169.860685 58.280727 
L 170.012943 58.544291 
L 170.165201 58.280727 
L 170.317459 57.621818 
L 170.469717 57.638291 
L 170.774233 58.445455 
L 171.078748 58.4784 
L 171.231006 59.153782 
L 171.383264 58.873745 
L 171.535522 58.939636 
L 171.68778 58.231309 
L 171.992296 58.280727 
L 172.144554 57.621818 
L 172.296812 57.490036 
L 172.44907 57.5724 
L 172.601328 57.308836 
L 172.905844 55.908655 
L 173.058102 55.892182 
L 173.362618 54.722618 
L 173.514876 54.788509 
L 173.667134 54.656727 
L 173.971649 54.656727 
L 174.276165 54.228436 
L 174.428423 54.1296 
L 174.732939 54.920291 
L 174.885197 55.002655 
L 175.037455 55.447418 
L 175.341971 54.739091 
L 175.646487 54.426109 
L 175.798745 54.475527 
L 176.103261 54.146073 
L 176.407777 54.755564 
L 176.560035 54.623782 
L 176.86455 54.640255 
L 177.016808 54.524945 
L 177.321324 55.101491 
L 177.62584 55.2168 
L 177.778098 55.447418 
L 178.082614 55.101491 
L 178.234872 56.139273 
L 178.38713 56.172218 
L 178.539388 56.336945 
L 178.691646 56.320473 
L 178.843904 56.089855 
L 178.996162 56.155745 
L 179.14842 55.430945 
L 179.452936 55.200327 
L 179.605194 54.607309 
L 179.757451 54.689673 
L 179.909709 54.442582 
L 180.214225 54.623782 
L 180.366483 53.898982 
L 180.670999 54.195491 
L 181.127773 53.240073 
L 181.280031 53.157709 
L 181.432289 53.2236 
L 181.584547 53.437745 
L 181.736805 53.025927 
L 181.889063 53.157709 
L 182.498095 52.482327 
L 182.650352 52.992982 
L 182.80261 51.922255 
L 182.954868 52.3176 
L 183.259384 52.004618 
L 183.411642 52.169345 
L 183.716158 52.696473 
L 184.020674 52.202291 
L 184.172932 52.235236 
L 184.781964 51.675164 
L 185.238738 51.559855 
L 185.390995 51.724582 
L 185.543253 51.345709 
L 185.695511 51.625745 
L 185.847769 51.510436 
L 186.000027 51.642218 
L 186.152285 51.559855 
L 186.609059 51.806945 
L 186.913575 52.367018 
L 187.065833 52.235236 
L 187.370349 51.988145 
L 187.522607 52.004618 
L 187.674865 51.757527 
L 187.827123 51.905782 
L 187.979381 51.823418 
L 188.283896 51.115091 
L 188.436154 51.065673 
L 188.588412 51.164509 
L 188.74067 51.098618 
L 189.197444 51.741055 
L 189.349702 51.658691 
L 189.50196 51.988145 
L 189.654218 52.004618 
L 189.806476 51.724582 
L 189.958734 51.9552 
L 190.26325 51.691636 
L 190.415508 51.971673 
L 190.872282 51.774 
L 191.02454 51.576327 
L 191.176797 51.757527 
L 191.481313 51.180982 
L 191.633571 51.329236 
L 191.938087 51.213927 
L 192.090345 50.703273 
L 192.547119 50.555018 
L 192.851635 50.950364 
L 193.156151 51.098618 
L 193.308409 51.461018 
L 193.612925 51.065673 
L 193.765183 51.164509 
L 193.917441 51.4116 
L 194.069698 51.246873 
L 194.221956 51.362182 
L 194.374214 51.988145 
L 194.526472 51.691636 
L 194.67873 51.757527 
L 194.830988 51.9552 
L 194.983246 51.691636 
L 195.287762 51.691636 
L 195.44002 52.1364 
L 195.592278 52.202291 
L 195.744536 52.086982 
L 195.896794 52.218764 
L 196.049052 52.564691 
L 196.505826 52.350545 
L 196.658084 52.712945 
L 197.114857 52.350545 
L 197.267115 51.9552 
L 197.419373 52.3176 
L 197.876147 52.367018 
L 198.028405 52.449382 
L 198.485179 51.823418 
L 198.637437 51.823418 
L 198.789695 51.642218 
L 198.941953 50.950364 
L 199.398727 50.703273 
L 199.550985 51.082145 
L 199.8555 50.818582 
L 200.007758 51.510436 
L 200.160016 51.312764 
L 200.464532 51.675164 
L 200.61679 51.395127 
L 200.769048 51.428073 
L 200.921306 51.708109 
L 201.073564 51.724582 
L 201.225822 51.461018 
L 201.530338 52.021091 
L 201.682596 51.9552 
L 201.834854 52.021091 
L 201.987112 51.757527 
L 202.13937 51.9552 
L 202.443886 51.526909 
L 202.596144 51.988145 
L 202.900659 52.070509 
L 203.052917 52.399964 
L 203.205175 52.399964 
L 203.357433 52.647055 
L 203.509691 53.157709 
L 203.661949 53.025927 
L 203.814207 53.0424 
L 203.966465 52.943564 
L 204.118723 52.614109 
L 204.270981 52.630582 
L 204.423239 52.910618 
L 204.575497 52.086982 
L 204.727755 52.729418 
L 205.032271 52.202291 
L 205.184529 52.218764 
L 205.336787 52.465855 
L 205.489045 52.1364 
L 206.250334 51.905782 
L 206.402592 52.054036 
L 206.55485 52.004618 
L 206.707108 51.823418 
L 207.011624 52.301127 
L 207.163882 51.741055 
L 207.620656 52.086982 
L 207.772914 52.119927 
L 208.229688 51.856364 
L 208.686461 52.119927 
L 208.838719 52.1364 
L 209.143235 51.856364 
L 209.295493 51.246873 
L 209.600009 51.922255 
L 209.752267 51.872836 
L 210.056783 51.5928 
L 210.209041 51.938727 
L 210.361299 51.988145 
L 210.818073 51.741055 
L 210.970331 51.938727 
L 211.427104 51.4116 
L 211.579362 51.0492 
L 211.73162 51.279818 
L 212.188394 50.653855 
L 212.340652 50.587964 
L 212.49291 51.115091 
L 212.797426 50.950364 
L 213.101942 50.950364 
L 213.406458 50.736218 
L 213.863232 50.357345 
L 214.01549 49.698436 
L 214.624521 49.467818 
L 214.929037 49.2372 
L 215.233553 49.352509 
L 215.385811 49.698436 
L 215.538069 49.336036 
L 215.842585 49.962 
L 215.994843 49.962 
L 216.147101 50.093782 
L 216.299359 49.879636 
L 216.603875 50.258509 
L 216.756133 50.110255 
L 216.908391 50.176145 
L 217.212906 49.319564 
L 217.365164 49.352509 
L 217.517422 49.187782 
L 217.821938 49.401927 
L 218.126454 49.550182 
L 218.278712 49.747855 
L 218.735486 49.731382 
L 219.040002 49.994945 
L 219.496776 50.274982 
L 219.649034 50.373818 
L 220.105807 50.192618 
L 220.410323 49.665491 
L 220.562581 49.863164 
L 221.171613 49.649018 
L 221.323871 49.714909 
L 221.476129 49.632545 
L 221.628387 49.681964 
L 221.780645 49.879636 
L 222.237419 49.813745 
L 222.389677 50.044364 
L 222.541935 49.962 
L 222.694193 50.406764 
L 222.84645 50.258509 
L 223.303224 50.357345 
L 223.60774 50.060836 
L 223.759998 50.093782 
L 223.912256 49.797273 
L 224.673546 49.566655 
L 224.825804 49.863164 
L 224.978062 49.813745 
L 225.13032 49.616073 
L 225.282578 49.632545 
L 225.434836 49.863164 
L 225.891609 49.945527 
L 226.043867 50.027891 
L 226.500641 49.747855 
L 226.652899 49.879636 
L 226.957415 49.5996 
L 227.109673 49.632545 
L 227.261931 49.385455 
L 227.414189 49.385455 
L 227.718705 49.945527 
L 227.870963 49.863164 
L 228.175479 50.225564 
L 228.327737 50.044364 
L 228.632252 50.373818 
L 228.78451 50.258509 
L 229.089026 50.340873 
L 229.241284 50.3244 
L 229.393542 50.011418 
L 229.5458 50.027891 
L 229.850316 50.176145 
L 230.002574 49.929055 
L 230.154832 49.945527 
L 230.30709 49.764327 
L 230.459348 49.945527 
L 230.611606 49.813745 
L 230.916122 50.307927 
L 231.06838 50.340873 
L 231.220638 50.176145 
L 231.372896 50.307927 
L 231.829669 50.110255 
L 232.134185 50.291455 
L 232.438701 49.962 
L 232.743217 49.929055 
L 233.047733 49.863164 
L 233.199991 49.665491 
L 233.961281 49.830218 
L 234.113539 50.110255 
L 235.48386 49.286618 
L 235.636118 49.154836 
L 236.549666 49.253673 
L 236.854182 48.6936 
L 237.158698 48.726545 
L 237.310955 48.528873 
L 237.615471 48.726545 
L 237.919987 49.105418 
L 238.529019 48.841855 
L 238.833535 48.5124 
L 239.290309 49.2372 
L 239.442567 49.253673 
L 239.594825 49.039527 
L 239.899341 49.121891 
L 240.051599 49.023055 
L 240.203856 49.171309 
L 241.117404 48.792436 
L 241.42192 49.253673 
L 241.726436 49.121891 
L 241.878694 49.253673 
L 242.18321 48.990109 
L 242.335468 48.808909 
L 242.487726 48.891273 
L 242.639984 49.154836 
L 243.401273 49.303091 
L 243.705789 48.891273 
L 244.162563 48.973636 
L 244.314821 48.825382 
L 244.619337 48.990109 
L 244.923853 49.006582 
L 245.076111 48.957164 
L 245.380627 49.072473 
L 245.685143 49.056 
L 245.837401 48.726545 
L 245.989658 48.677127 
L 246.294174 48.825382 
L 246.750948 48.808909 
L 246.903206 48.841855 
L 247.055464 48.6936 
L 247.35998 48.15 
L 247.512238 48.215891 
L 247.664496 48.15 
L 247.969012 48.364145 
L 248.730302 48.594764 
L 248.882559 48.957164 
L 249.034817 48.792436 
L 249.187075 48.808909 
L 249.491591 48.726545 
L 249.643849 48.808909 
L 249.796107 48.710073 
L 249.948365 48.973636 
L 250.405139 48.940691 
L 250.557397 49.088945 
L 251.014171 48.990109 
L 251.318687 48.940691 
L 251.623203 48.808909 
L 251.927718 48.841855 
L 252.232234 48.825382 
L 252.384492 48.775964 
L 252.53675 48.8748 
L 253.145782 48.6936 
L 253.29804 48.858327 
L 253.450298 48.594764 
L 254.05933 48.561818 
L 254.211588 48.397091 
L 254.363846 48.446509 
L 254.516104 48.298255 
L 254.972877 48.545345 
L 255.277393 48.397091 
L 256.495457 48.677127 
L 257.71352 48.430036 
L 258.322552 47.902909 
L 258.779326 47.919382 
L 259.083842 48.232364 
L 259.692874 48.298255 
L 260.301905 48.051164 
L 260.758679 48.232364 
L 261.824485 48.117055 
L 262.129001 48.413564 
L 262.433517 48.347673 
L 262.890291 48.5124 
L 263.194806 48.726545 
L 263.347064 48.808909 
L 263.803838 48.364145 
L 263.956096 48.281782 
L 264.717386 48.430036 
L 264.869644 48.413564 
L 265.021902 48.561818 
L 265.326418 48.281782 
L 266.087707 48.825382 
L 266.392223 48.825382 
L 266.544481 48.660655 
L 266.848997 48.759491 
L 267.001255 48.627709 
L 267.153513 48.6936 
L 267.305771 48.990109 
L 267.762545 48.6936 
L 267.914803 48.825382 
L 268.828351 48.660655 
L 269.132866 48.561818 
L 269.285124 48.660655 
L 269.741898 48.314727 
L 271.11222 48.100582 
L 271.264478 47.869964 
L 271.568994 48.001745 
L 271.721252 47.9688 
L 271.873509 47.738182 
L 272.482541 47.771127 
L 272.939315 47.6064 
L 273.091573 47.556982 
L 273.396089 47.804073 
L 274.157379 47.837018 
L 274.461895 47.935855 
L 274.614153 47.985273 
L 275.070926 47.655818 
L 275.223184 47.804073 
L 275.984474 47.474618 
L 276.28899 47.672291 
L 276.441248 47.589927 
L 276.745764 47.688764 
L 277.202538 47.639345 
L 277.354796 47.754655 
L 277.507054 47.721709 
L 277.659311 47.9688 
L 277.811569 47.837018 
L 278.116085 48.117055 
L 279.029633 48.232364 
L 279.181891 48.182945 
L 279.486407 48.347673 
L 279.790923 48.364145 
L 280.70447 48.644182 
L 282.074792 48.710073 
L 282.531566 48.430036 
L 282.98834 48.364145 
L 283.292856 48.710073 
L 283.597371 48.644182 
L 283.749629 48.710073 
L 284.054145 48.446509 
L 284.358661 48.248836 
L 284.510919 48.380618 
L 285.272209 48.314727 
L 285.576725 48.232364 
L 286.033499 47.9688 
L 286.794788 47.837018 
L 286.947046 48.117055 
L 287.251562 48.051164 
L 287.556078 48.133527 
L 287.708336 47.7876 
L 287.860594 47.738182 
L 288.16511 47.886436 
L 288.317368 47.886436 
L 288.469626 48.051164 
L 288.774142 48.067636 
L 288.9264 48.117055 
L 289.078658 47.935855 
L 289.383173 47.985273 
L 289.687689 48.248836 
L 289.992205 48.084109 
L 290.448979 48.594764 
L 291.210269 48.578291 
L 291.362527 48.545345 
L 291.667043 48.100582 
L 291.819301 48.133527 
L 292.123816 48.067636 
L 292.276074 48.232364 
L 292.428332 48.117055 
L 292.732848 48.199418 
L 292.885106 48.051164 
L 293.189622 48.166473 
L 294.559944 48.281782 
L 295.016717 47.9688 
L 296.234781 48.199418 
L 296.843813 47.952327 
L 296.996071 48.018218 
L 297.300587 47.869964 
L 297.452845 47.952327 
L 297.605103 47.672291 
L 298.366392 47.573455 
L 298.823166 47.145164 
L 299.584456 47.309891 
L 299.888972 47.145164 
L 300.193488 46.996909 
L 300.498004 47.227527 
L 300.650261 47.178109 
L 301.259293 47.589927 
L 301.716067 47.738182 
L 301.868325 47.869964 
L 302.020583 47.820545 
L 302.629615 48.166473 
L 302.781873 48.100582 
L 303.238647 48.314727 
L 303.999936 48.199418 
L 304.304452 48.430036 
L 305.065742 48.265309 
L 305.370258 48.380618 
L 305.522516 48.199418 
L 306.131548 48.232364 
L 306.436063 48.067636 
L 306.588321 48.314727 
L 306.740579 48.265309 
L 306.892837 48.397091 
L 307.197353 48.067636 
L 307.349611 48.15 
L 307.654127 48.018218 
L 307.806385 48.232364 
L 307.958643 48.215891 
L 308.263159 48.380618 
L 308.415417 48.380618 
L 308.872191 48.051164 
L 310.242512 48.281782 
L 310.547028 48.199418 
L 310.699286 48.347673 
L 311.15606 47.9688 
L 311.308318 48.018218 
L 311.612834 47.853491 
L 311.765092 48.034691 
L 312.069608 47.9688 
L 312.221865 48.018218 
L 312.526381 47.721709 
L 312.983155 47.688764 
L 313.287671 47.820545 
L 313.439929 47.837018 
L 313.592187 48.051164 
L 314.353477 47.820545 
L 314.505735 47.886436 
L 314.657993 47.820545 
L 314.962509 48.281782 
L 315.419282 48.15 
L 318.007667 48.446509 
L 318.159925 48.199418 
L 318.464441 48.15 
L 318.616699 48.067636 
L 318.921215 48.100582 
L 319.225731 48.018218 
L 319.530247 47.507564 
L 320.139279 47.556982 
L 320.443795 47.655818 
L 321.052826 47.540509 
L 321.661858 47.738182 
L 322.423148 47.655818 
L 323.336696 48.018218 
L 323.641212 47.919382 
L 324.554759 48.018218 
L 325.772823 47.738182 
L 326.68637 47.820545 
L 326.838628 47.639345 
L 326.990886 47.688764 
L 327.295402 47.589927 
L 327.599918 47.622873 
L 327.752176 47.458145 
L 328.361208 47.655818 
L 329.427014 47.754655 
L 329.731529 47.853491 
L 330.188303 48.018218 
L 330.797335 48.084109 
L 331.101851 48.067636 
L 331.558625 48.051164 
L 331.863141 48.067636 
L 333.690236 47.721709 
L 333.994752 47.853491 
L 334.299268 47.639345 
L 334.9083 47.622873 
L 335.060558 47.491091 
L 335.365073 47.655818 
L 336.278621 47.853491 
L 337.344427 48.034691 
L 337.648943 47.869964 
L 337.953459 48.051164 
L 338.410232 48.215891 
L 338.56249 48.117055 
L 339.019264 48.199418 
L 339.171522 48.232364 
L 339.476038 48.051164 
L 340.08507 48.15 
L 340.389586 48.265309 
L 340.694102 47.985273 
L 340.998617 47.919382 
L 341.303133 48.034691 
L 341.607649 47.9688 
L 342.368939 47.985273 
L 342.521197 48.051164 
L 342.825713 47.688764 
L 343.130229 47.837018 
L 343.434745 47.738182 
L 343.891518 47.705236 
L 344.196034 47.754655 
L 344.50055 47.573455 
L 344.805066 47.573455 
L 345.109582 47.573455 
L 345.870872 47.474618 
L 346.175388 47.309891 
L 346.632162 47.524036 
L 347.088935 47.227527 
L 347.393451 47.474618 
L 348.154741 47.458145 
L 348.459257 47.375782 
L 349.372805 47.145164 
L 349.525063 47.029855 
L 350.134094 47.293418 
L 350.286352 47.128691 
L 350.43861 47.194582 
L 350.590868 47.128691 
L 350.743126 47.244 
L 351.047642 47.260473 
L 351.808932 47.244 
L 352.265706 47.244 
L 352.570221 47.260473 
L 353.940543 47.441673 
L 354.245059 47.589927 
L 354.549575 47.524036 
L 354.701833 47.540509 
L 355.158607 47.837018 
L 356.072154 48.001745 
L 356.224412 48.182945 
L 357.13796 47.902909 
L 357.442476 48.001745 
L 357.746992 48.034691 
L 358.051508 48.232364 
L 358.356023 48.281782 
L 358.660539 48.182945 
L 358.812797 48.067636 
L 359.269571 48.182945 
L 360.944409 47.524036 
L 361.401182 47.705236 
L 362.010214 47.6064 
L 362.31473 47.622873 
L 362.466988 47.375782 
L 362.619246 47.458145 
L 363.228278 47.342836 
L 363.532794 47.359309 
L 364.294083 47.293418 
L 364.903115 47.556982 
L 365.359889 47.688764 
L 365.512147 47.6064 
L 365.968921 47.639345 
L 366.425695 47.688764 
L 366.730211 47.705236 
L 367.186984 47.771127 
L 368.100532 47.589927 
L 368.405048 47.556982 
L 368.861822 47.622873 
L 369.166338 47.507564 
L 369.166338 47.507564 
" style="fill:none;stroke:#1f77b4;stroke-linecap:square;stroke-width:1.5;"/>
   </g>
   <g id="line2d_20">
    <path clip-path="url(#p23d2ef240e)" d="M 69.218182 242.116364 
L 69.37044 242.116364 
L 69.522698 168.977455 
L 69.674956 168.977455 
L 69.827214 242.116364 
L 70.13173 242.116364 
L 70.283987 79.036364 
L 70.436245 242.116364 
L 70.588503 242.116364 
L 70.740761 171.942545 
L 70.893019 166.506545 
L 71.045277 242.116364 
L 71.197535 242.116364 
L 71.349793 152.669455 
L 71.502051 242.116364 
L 72.415599 242.116364 
L 72.567857 44.443636 
L 72.720115 242.116364 
L 72.872373 124.006909 
L 73.02463 242.116364 
L 73.329146 123.512727 
L 73.481404 242.116364 
L 73.633662 242.116364 
L 73.78592 63.716727 
L 73.938178 242.116364 
L 74.394952 242.116364 
L 74.54721 109.675636 
L 74.699468 242.116364 
L 75.003984 242.116364 
L 75.156242 165.518182 
L 75.3085 242.116364 
L 75.613016 242.116364 
L 75.765274 121.041818 
L 75.917531 242.116364 
L 76.069789 80.518909 
L 76.222047 242.116364 
L 76.374305 190.227273 
L 76.526563 242.116364 
L 76.678821 114.123273 
L 76.983337 242.116364 
L 77.135595 242.116364 
L 77.287853 117.582545 
L 77.440111 242.116364 
L 77.592369 169.965818 
L 77.744627 242.116364 
L 78.049143 242.116364 
L 78.353659 71.623636 
L 78.505917 242.116364 
L 78.810432 242.116364 
L 78.96269 160.082182 
L 79.114948 242.116364 
L 79.267206 242.116364 
L 79.419464 181.332 
L 79.571722 242.116364 
L 79.72398 242.116364 
L 79.876238 92.873455 
L 80.028496 73.600364 
L 80.180754 242.116364 
L 81.094302 242.116364 
L 81.24656 119.559273 
L 81.398818 242.116364 
L 81.551076 242.116364 
L 81.855591 49.879636 
L 82.007849 242.116364 
L 83.073655 242.116364 
L 83.225913 128.948727 
L 83.378171 242.116364 
L 83.530429 97.321091 
L 83.834945 242.116364 
L 83.987203 242.116364 
L 84.139461 56.798182 
L 84.291719 134.384727 
L 84.443977 132.902182 
L 84.596234 54.327273 
L 84.748492 242.116364 
L 84.90075 106.710545 
L 85.053008 242.116364 
L 85.205266 136.855636 
L 85.357524 242.116364 
L 85.814298 242.116364 
L 85.966556 59.269091 
L 86.118814 242.116364 
L 86.271072 148.716 
L 86.42333 242.116364 
L 86.575588 242.116364 
L 86.880104 80.024727 
L 87.032362 242.116364 
L 87.18462 173.919273 
L 87.336878 242.116364 
L 87.641393 242.116364 
L 88.098167 58.774909 
L 88.250425 112.640727 
L 88.402683 242.116364 
L 88.707199 242.116364 
L 88.859457 124.006909 
L 89.011715 242.116364 
L 89.163973 242.116364 
L 89.316231 104.733818 
L 89.468489 149.704364 
L 89.620747 242.116364 
L 89.773005 52.844727 
L 89.925263 242.116364 
L 90.686552 242.116364 
L 90.83881 157.611273 
L 90.991068 242.116364 
L 91.295584 59.763273 
L 91.447842 242.116364 
L 91.6001 242.116364 
L 91.752358 128.948727 
L 92.209132 242.116364 
L 92.36139 242.116364 
L 92.513648 107.204727 
L 92.665906 109.181455 
L 92.818164 49.385455 
L 92.970422 161.070545 
L 93.12268 114.617455 
L 93.274937 242.116364 
L 93.427195 242.116364 
L 93.579453 87.931636 
L 93.731711 96.332727 
L 93.883969 129.937091 
L 94.036227 242.116364 
L 94.340743 242.116364 
L 94.493001 49.879636 
L 94.645259 50.373818 
L 94.797517 176.390182 
L 95.102033 50.868 
L 95.254291 242.116364 
L 95.558807 242.116364 
L 95.711065 104.733818 
L 95.863323 242.116364 
L 96.015581 242.116364 
L 96.167838 165.518182 
L 96.320096 242.116364 
L 96.472354 117.582545 
L 96.624612 87.437455 
L 96.77687 242.116364 
L 96.929128 242.116364 
L 97.081386 131.913818 
L 97.233644 146.245091 
L 97.385902 90.402545 
L 97.690418 242.116364 
L 97.842676 89.908364 
L 98.147192 242.116364 
L 98.29945 72.117818 
L 98.451708 242.116364 
L 98.603966 242.116364 
L 98.756224 106.710545 
L 99.060739 242.116364 
L 99.365255 90.896727 
L 99.517513 242.116364 
L 99.822029 242.116364 
L 99.974287 55.315636 
L 100.126545 242.116364 
L 100.278803 242.116364 
L 100.431061 131.419636 
L 100.583319 158.599636 
L 100.887835 54.327273 
L 101.040093 56.798182 
L 101.192351 48.397091 
L 101.496867 242.116364 
L 101.649125 137.349818 
L 101.801383 122.524364 
L 101.95364 154.646182 
L 102.105898 242.116364 
L 102.867188 242.116364 
L 103.019446 49.385455 
L 103.171704 242.116364 
L 103.628478 86.449091 
L 103.780736 242.116364 
L 103.932994 162.553091 
L 104.085252 242.116364 
L 104.23751 83.978182 
L 104.389768 118.076727 
L 104.542026 242.116364 
L 104.846541 242.116364 
L 104.998799 137.349818 
L 105.151057 242.116364 
L 105.303315 102.262909 
L 105.455573 158.105455 
L 105.607831 59.269091 
L 105.760089 242.116364 
L 105.912347 242.116364 
L 106.064605 74.094545 
L 106.216863 242.116364 
L 106.369121 145.256727 
L 106.521379 242.116364 
L 106.673637 63.716727 
L 106.978153 242.116364 
L 107.130411 242.116364 
L 107.282669 51.856364 
L 107.434927 81.013091 
L 107.739442 242.116364 
L 107.8917 94.850182 
L 108.043958 242.116364 
L 108.196216 59.269091 
L 108.348474 58.774909 
L 108.500732 242.116364 
L 108.65299 51.856364 
L 108.805248 242.116364 
L 108.957506 62.728364 
L 109.109764 242.116364 
L 109.41428 242.116364 
L 109.566538 154.152 
L 109.718796 134.878909 
L 109.871054 89.414182 
L 110.023312 242.116364 
L 110.480085 242.116364 
L 110.632343 82.989818 
L 110.784601 66.187636 
L 110.936859 92.873455 
L 111.089117 79.036364 
L 111.393633 181.332 
L 111.545891 140.314909 
L 111.698149 58.280727 
L 112.002665 242.116364 
L 112.154923 147.727636 
L 112.307181 131.419636 
L 112.459439 82.495636 
L 112.611697 242.116364 
L 112.763955 242.116364 
L 112.916213 111.652364 
L 113.068471 242.116364 
L 113.220729 46.420364 
L 113.372986 242.116364 
L 113.525244 113.629091 
L 113.677502 113.629091 
L 113.82976 69.646909 
L 113.982018 157.611273 
L 114.286534 109.675636 
L 114.438792 242.116364 
L 114.59105 47.902909 
L 114.743308 68.658545 
L 114.895566 242.116364 
L 115.047824 58.774909 
L 115.200082 76.071273 
L 115.35234 242.116364 
L 115.504598 134.384727 
L 115.656856 141.303273 
L 115.809114 120.053455 
L 115.961372 242.116364 
L 116.265887 106.216364 
L 116.418145 121.536 
L 116.570403 62.728364 
L 116.722661 75.577091 
L 116.874919 242.116364 
L 117.027177 242.116364 
L 117.331693 80.518909 
L 117.483951 154.152 
L 117.636209 113.134909 
L 117.788467 153.163636 
L 117.940725 242.116364 
L 118.245241 79.530545 
L 118.397499 242.116364 
L 118.549757 75.577091 
L 119.006531 242.116364 
L 119.311046 85.460727 
L 119.463304 124.995273 
L 119.615562 242.116364 
L 119.76782 51.362182 
L 119.920078 93.367636 
L 120.072336 242.116364 
L 120.224594 242.116364 
L 120.376852 47.902909 
L 120.52911 65.693455 
L 120.681368 139.326545 
L 120.833626 61.245818 
L 120.985884 92.873455 
L 121.138142 242.116364 
L 121.442658 242.116364 
L 121.594916 83.978182 
L 121.747174 126.477818 
L 121.899432 46.420364 
L 122.203947 188.744727 
L 122.508463 97.321091 
L 122.660721 242.116364 
L 122.812979 52.350545 
L 122.965237 242.116364 
L 123.574269 242.116364 
L 123.726527 162.553091 
L 123.878785 242.116364 
L 124.031043 140.809091 
L 124.183301 154.152 
L 124.335559 84.472364 
L 124.487817 101.768727 
L 124.640075 84.472364 
L 124.792333 242.116364 
L 124.94459 129.442909 
L 125.096848 242.116364 
L 125.249106 65.693455 
L 125.401364 242.116364 
L 125.553622 242.116364 
L 125.70588 187.262182 
L 125.858138 66.187636 
L 126.010396 52.350545 
L 126.162654 85.954909 
L 126.314912 48.891273 
L 126.46717 242.116364 
L 126.619428 67.670182 
L 126.771686 157.117091 
L 126.923944 70.141091 
L 127.076202 242.116364 
L 127.22846 75.082909 
L 127.380718 69.646909 
L 127.532976 242.116364 
L 127.685234 78.542182 
L 127.989749 115.605818 
L 128.142007 75.082909 
L 128.294265 242.116364 
L 128.446523 167.989091 
L 128.598781 242.116364 
L 128.751039 47.902909 
L 128.903297 64.210909 
L 129.055555 50.373818 
L 129.207813 65.199273 
L 129.360071 100.286182 
L 129.512329 242.116364 
L 129.664587 48.397091 
L 129.969103 89.908364 
L 130.121361 144.762545 
L 130.273619 100.780364 
L 130.425877 147.233455 
L 130.578135 242.116364 
L 130.730392 73.600364 
L 130.88265 56.304 
L 131.034908 68.658545 
L 131.187166 91.885091 
L 131.339424 82.495636 
L 131.491682 242.116364 
L 131.64394 79.036364 
L 131.796198 146.245091 
L 131.948456 91.885091 
L 132.100714 184.791273 
L 132.40523 49.385455 
L 132.557488 242.116364 
L 132.709746 57.292364 
L 133.014262 242.116364 
L 133.16652 168.977455 
L 133.318778 151.681091 
L 133.471036 59.269091 
L 133.775551 101.768727 
L 133.927809 172.436727 
L 134.080067 66.187636 
L 134.232325 152.175273 
L 134.384583 52.844727 
L 134.536841 117.088364 
L 134.689099 54.327273 
L 134.841357 48.397091 
L 135.145873 123.512727 
L 135.298131 92.873455 
L 135.450389 153.657818 
L 135.602647 126.972 
L 135.754905 121.041818 
L 135.907163 143.28 
L 136.059421 143.774182 
L 136.211679 242.116364 
L 136.363937 103.745455 
L 136.516194 94.356 
L 136.668452 50.373818 
L 136.972968 170.954182 
L 137.277484 50.373818 
L 137.429742 49.879636 
L 137.582 102.262909 
L 137.734258 66.681818 
L 138.191032 242.116364 
L 138.495548 47.902909 
L 138.647806 108.193091 
L 138.800064 75.577091 
L 138.952322 89.414182 
L 139.256838 44.443636 
L 139.409095 85.954909 
L 139.561353 70.141091 
L 139.713611 97.321091 
L 140.018127 61.245818 
L 140.322643 48.397091 
L 140.627159 71.623636 
L 140.779417 51.856364 
L 140.931675 173.919273 
L 141.083933 74.094545 
L 141.236191 52.844727 
L 141.388449 73.106182 
L 141.692965 127.960364 
L 141.845223 125.489455 
L 141.997481 67.670182 
L 142.149739 112.640727 
L 142.301996 64.210909 
L 142.454254 155.634545 
L 142.606512 48.891273 
L 142.75877 56.304 
L 142.911028 44.443636 
L 143.063286 79.530545 
L 143.215544 87.437455 
L 143.367802 59.763273 
L 143.52006 58.280727 
L 143.672318 84.472364 
L 143.824576 53.833091 
L 144.129092 116.1 
L 144.28135 73.106182 
L 144.585866 58.774909 
L 144.738124 75.577091 
L 144.890382 75.082909 
L 145.04264 83.484 
L 145.194897 57.786545 
L 145.347155 55.809818 
L 145.499413 59.269091 
L 145.651671 127.960364 
L 145.803929 111.158182 
L 145.956187 55.809818 
L 146.108445 53.833091 
L 146.412961 128.454545 
L 146.565219 78.048 
L 146.869735 59.269091 
L 147.021993 64.705091 
L 147.174251 91.885091 
L 147.478767 48.891273 
L 147.783283 57.786545 
L 147.93554 52.350545 
L 148.087798 71.129455 
L 148.240056 55.315636 
L 148.392314 93.861818 
L 148.69683 47.902909 
L 148.849088 54.327273 
L 149.001346 53.833091 
L 149.305862 46.420364 
L 149.45812 46.420364 
L 149.610378 54.327273 
L 149.762636 89.414182 
L 150.067152 46.914545 
L 150.21941 55.315636 
L 150.371668 74.094545 
L 150.676184 65.693455 
L 150.828441 123.512727 
L 150.980699 55.315636 
L 151.132957 53.338909 
L 151.285215 60.751636 
L 151.437473 56.304 
L 151.589731 46.914545 
L 151.741989 56.798182 
L 151.894247 57.292364 
L 152.046505 46.914545 
L 152.198763 48.891273 
L 152.351021 68.658545 
L 152.503279 57.786545 
L 152.655537 62.234182 
L 152.807795 62.234182 
L 152.960053 76.565455 
L 153.112311 54.327273 
L 153.264569 87.437455 
L 153.416827 54.821455 
L 153.721342 95.838545 
L 153.8736 54.327273 
L 154.178116 91.885091 
L 154.330374 78.048 
L 154.482632 78.542182 
L 154.63489 53.833091 
L 154.787148 51.362182 
L 155.091664 90.402545 
L 155.243922 74.588727 
L 155.39618 78.542182 
L 155.548438 49.879636 
L 155.700696 108.687273 
L 155.852954 96.332727 
L 156.005212 49.879636 
L 156.15747 64.210909 
L 156.309728 66.187636 
L 156.461986 124.995273 
L 156.614243 51.856364 
L 156.918759 67.176 
L 157.071017 45.432 
L 157.223275 56.304 
L 157.375533 52.844727 
L 157.527791 71.129455 
L 157.680049 72.612 
L 157.832307 60.751636 
L 157.984565 60.751636 
L 158.136823 85.460727 
L 158.289081 50.868 
L 158.441339 50.868 
L 158.593597 87.931636 
L 159.050371 55.809818 
L 159.202629 70.141091 
L 159.354887 49.879636 
L 159.507144 51.856364 
L 159.81166 83.484 
L 159.963918 48.891273 
L 160.268434 55.315636 
L 160.420692 51.362182 
L 160.57295 59.269091 
L 160.725208 48.397091 
L 160.877466 54.327273 
L 161.029724 50.373818 
L 161.181982 70.141091 
L 161.33424 53.833091 
L 161.638756 60.257455 
L 161.791014 112.640727 
L 161.943272 55.315636 
L 162.09553 54.821455 
L 162.247788 52.350545 
L 162.400045 68.658545 
L 162.552303 52.844727 
L 162.704561 63.222545 
L 162.856819 53.338909 
L 163.009077 51.362182 
L 163.161335 79.530545 
L 163.313593 44.443636 
L 163.618109 103.745455 
L 163.770367 56.304 
L 163.922625 62.728364 
L 164.074883 59.763273 
L 164.227141 67.176 
L 164.379399 60.751636 
L 164.531657 46.914545 
L 164.683915 53.833091 
L 164.836173 53.833091 
L 164.988431 49.385455 
L 165.140689 61.245818 
L 165.292946 59.763273 
L 165.445204 52.350545 
L 165.597462 64.705091 
L 165.74972 52.844727 
L 166.054236 68.164364 
L 166.206494 48.397091 
L 166.51101 58.774909 
L 166.663268 56.304 
L 166.815526 91.885091 
L 166.967784 53.338909 
L 167.120042 47.902909 
L 167.424558 57.786545 
L 167.576816 46.914545 
L 167.729074 49.385455 
L 167.881332 47.408727 
L 168.185847 54.327273 
L 168.338105 54.327273 
L 168.490363 48.891273 
L 168.642621 76.565455 
L 168.794879 47.902909 
L 168.947137 53.833091 
L 169.099395 52.350545 
L 169.251653 55.315636 
L 169.403911 53.833091 
L 169.556169 56.798182 
L 169.860685 47.408727 
L 170.165201 71.623636 
L 170.317459 52.350545 
L 170.469717 51.856364 
L 170.621975 52.350545 
L 170.926491 56.304 
L 171.078748 45.432 
L 171.231006 61.74 
L 171.383264 54.821455 
L 171.535522 71.129455 
L 171.840038 56.798182 
L 171.992296 69.646909 
L 172.144554 52.350545 
L 172.296812 50.868 
L 172.44907 54.327273 
L 172.753586 72.612 
L 172.905844 51.856364 
L 173.058102 73.106182 
L 173.362618 51.362182 
L 173.514876 57.292364 
L 173.667134 46.420364 
L 173.971649 65.199273 
L 174.276165 52.844727 
L 174.428423 55.315636 
L 174.732939 51.856364 
L 174.885197 52.844727 
L 175.037455 68.658545 
L 175.341971 55.809818 
L 175.494229 56.798182 
L 175.646487 65.693455 
L 175.798745 53.338909 
L 175.951003 56.798182 
L 176.103261 49.879636 
L 176.255519 63.716727 
L 176.712293 48.397091 
L 176.86455 53.338909 
L 177.016808 46.420364 
L 177.169066 46.914545 
L 177.473582 51.362182 
L 177.62584 46.420364 
L 177.778098 55.809818 
L 177.930356 53.338909 
L 178.082614 53.338909 
L 178.234872 47.902909 
L 178.38713 57.292364 
L 178.539388 55.809818 
L 178.691646 55.809818 
L 178.843904 49.879636 
L 178.996162 70.635273 
L 179.300678 54.327273 
L 179.452936 66.187636 
L 179.605194 52.844727 
L 179.757451 54.327273 
L 179.909709 50.868 
L 180.061967 52.350545 
L 180.214225 67.176 
L 180.366483 48.397091 
L 180.518741 51.856364 
L 180.823257 72.117818 
L 180.975515 54.327273 
L 181.280031 47.408727 
L 181.432289 49.879636 
L 181.584547 58.280727 
L 181.736805 52.350545 
L 181.889063 51.362182 
L 182.041321 53.338909 
L 182.193579 53.338909 
L 182.498095 48.397091 
L 182.650352 84.472364 
L 182.80261 48.891273 
L 182.954868 62.234182 
L 183.259384 48.891273 
L 183.411642 51.856364 
L 183.5639 48.891273 
L 183.716158 59.269091 
L 183.868416 49.879636 
L 184.020674 48.397091 
L 184.172932 55.315636 
L 184.32519 46.914545 
L 184.477448 53.833091 
L 184.629706 54.821455 
L 184.781964 45.432 
L 185.08648 56.798182 
L 185.238738 49.385455 
L 185.390995 60.751636 
L 185.543253 47.408727 
L 185.847769 49.385455 
L 186.000027 56.304 
L 186.152285 45.926182 
L 186.304543 56.304 
L 186.456801 44.937818 
L 186.609059 49.385455 
L 186.761317 44.443636 
L 186.913575 49.385455 
L 187.065833 63.716727 
L 187.218091 52.350545 
L 187.370349 60.751636 
L 187.522607 58.774909 
L 187.674865 49.385455 
L 187.827123 53.833091 
L 187.979381 63.222545 
L 188.283896 47.902909 
L 188.436154 46.420364 
L 188.588412 49.385455 
L 188.74067 49.879636 
L 188.892928 46.420364 
L 189.045186 45.926182 
L 189.197444 51.856364 
L 189.349702 44.443636 
L 189.50196 48.891273 
L 189.654218 57.786545 
L 189.958734 49.385455 
L 190.110992 55.809818 
L 190.26325 45.432 
L 190.415508 53.338909 
L 190.567766 53.833091 
L 190.720024 47.408727 
L 190.872282 56.304 
L 191.02454 50.868 
L 191.176797 55.315636 
L 191.329055 55.315636 
L 191.481313 45.432 
L 191.633571 58.280727 
L 191.785829 50.373818 
L 191.938087 61.245818 
L 192.090345 51.362182 
L 192.242603 53.833091 
L 192.699377 46.914545 
L 192.851635 46.420364 
L 193.003893 49.385455 
L 193.156151 47.408727 
L 193.308409 56.304 
L 193.460667 56.798182 
L 193.612925 48.397091 
L 193.765183 49.385455 
L 193.917441 54.327273 
L 194.069698 49.385455 
L 194.221956 49.385455 
L 194.374214 61.245818 
L 194.526472 46.914545 
L 194.830988 53.833091 
L 194.983246 51.362182 
L 195.135504 51.856364 
L 195.287762 45.432 
L 195.592278 56.304 
L 195.744536 45.926182 
L 196.049052 49.879636 
L 196.20131 56.798182 
L 196.505826 45.926182 
L 196.810342 52.844727 
L 196.962599 50.373818 
L 197.114857 56.798182 
L 197.267115 50.373818 
L 197.419373 49.879636 
L 197.571631 50.373818 
L 197.723889 58.280727 
L 197.876147 47.408727 
L 198.028405 53.833091 
L 198.180663 51.362182 
L 198.332921 56.798182 
L 198.485179 49.385455 
L 198.637437 52.844727 
L 198.789695 68.164364 
L 198.941953 52.350545 
L 199.094211 48.891273 
L 199.246469 56.304 
L 199.398727 45.926182 
L 199.550985 52.350545 
L 199.703243 50.868 
L 199.8555 58.774909 
L 200.007758 52.350545 
L 200.160016 52.844727 
L 200.312274 49.879636 
L 200.464532 57.786545 
L 200.61679 47.902909 
L 200.769048 53.338909 
L 200.921306 47.408727 
L 201.073564 56.798182 
L 201.225822 44.937818 
L 201.37808 45.432 
L 201.530338 50.868 
L 201.682596 44.937818 
L 201.834854 61.245818 
L 201.987112 49.385455 
L 202.13937 49.385455 
L 202.291628 61.245818 
L 202.443886 49.879636 
L 202.596144 47.408727 
L 202.748401 48.397091 
L 202.900659 47.408727 
L 203.052917 49.385455 
L 203.205175 47.408727 
L 203.357433 47.408727 
L 203.509691 49.879636 
L 203.661949 48.397091 
L 203.966465 57.292364 
L 204.118723 48.397091 
L 204.270981 46.914545 
L 204.423239 79.530545 
L 204.575497 46.420364 
L 204.727755 61.74 
L 204.880013 51.856364 
L 205.032271 49.385455 
L 205.184529 48.891273 
L 205.336787 61.74 
L 205.489045 47.902909 
L 205.641302 48.891273 
L 205.79356 57.786545 
L 205.945818 49.385455 
L 206.098076 48.891273 
L 206.250334 46.914545 
L 206.55485 55.315636 
L 206.707108 44.937818 
L 207.011624 63.716727 
L 207.163882 48.891273 
L 207.31614 49.385455 
L 207.468398 57.292364 
L 207.620656 49.385455 
L 207.925172 62.728364 
L 208.07743 45.926182 
L 208.229688 48.891273 
L 208.381946 48.891273 
L 208.534203 47.408727 
L 208.686461 48.891273 
L 208.838719 55.315636 
L 208.990977 54.821455 
L 209.143235 65.693455 
L 209.447751 44.443636 
L 209.752267 56.304 
L 210.056783 46.420364 
L 210.209041 48.397091 
L 210.361299 51.856364 
L 210.513557 49.385455 
L 210.665815 49.879636 
L 210.970331 51.856364 
L 211.122589 49.879636 
L 211.427104 56.798182 
L 211.579362 46.914545 
L 211.73162 53.338909 
L 211.883878 53.833091 
L 212.036136 58.774909 
L 212.188394 50.373818 
L 212.340652 52.350545 
L 212.49291 56.798182 
L 212.645168 46.420364 
L 212.797426 52.350545 
L 212.949684 48.891273 
L 213.101942 51.856364 
L 213.2542 49.385455 
L 213.406458 49.385455 
L 213.558716 52.350545 
L 213.710974 47.408727 
L 213.863232 66.187636 
L 214.01549 51.856364 
L 214.167748 48.397091 
L 214.472263 50.373818 
L 214.624521 56.798182 
L 214.776779 49.879636 
L 214.929037 48.397091 
L 215.081295 49.385455 
L 215.233553 45.926182 
L 215.385811 57.292364 
L 215.538069 47.902909 
L 215.842585 46.420364 
L 215.994843 45.926182 
L 216.147101 53.833091 
L 216.299359 45.432 
L 216.603875 51.856364 
L 216.756133 48.397091 
L 216.908391 68.164364 
L 217.212906 45.432 
L 217.365164 52.844727 
L 217.66968 45.926182 
L 217.821938 48.891273 
L 217.974196 44.443636 
L 218.126454 45.432 
L 218.278712 47.902909 
L 218.43097 46.420364 
L 218.583228 50.868 
L 218.735486 46.914545 
L 218.887744 46.420364 
L 219.19226 51.362182 
L 219.344518 48.397091 
L 219.496776 48.891273 
L 219.801292 56.304 
L 219.95355 46.420364 
L 220.105807 60.751636 
L 220.410323 46.420364 
L 220.562581 49.879636 
L 220.714839 47.408727 
L 221.019355 54.327273 
L 221.171613 47.408727 
L 221.323871 50.373818 
L 221.628387 46.914545 
L 221.780645 46.420364 
L 221.932903 47.902909 
L 222.085161 53.833091 
L 222.237419 46.914545 
L 222.389677 50.373818 
L 222.541935 47.408727 
L 222.694193 51.362182 
L 222.84645 47.408727 
L 223.150966 48.891273 
L 223.303224 49.385455 
L 223.60774 52.844727 
L 223.759998 54.821455 
L 223.912256 49.385455 
L 224.064514 51.856364 
L 224.216772 50.373818 
L 224.36903 51.856364 
L 224.521288 47.408727 
L 224.673546 48.891273 
L 224.825804 48.891273 
L 224.978062 52.350545 
L 225.13032 47.902909 
L 225.282578 46.914545 
L 225.434836 51.362182 
L 225.587094 51.362182 
L 225.891609 47.902909 
L 226.196125 52.844727 
L 226.348383 45.926182 
L 226.805157 53.833091 
L 226.957415 47.902909 
L 227.109673 60.751636 
L 227.261931 46.914545 
L 227.414189 48.891273 
L 227.566447 48.397091 
L 227.718705 50.373818 
L 227.870963 44.937818 
L 228.023221 47.408727 
L 228.175479 53.833091 
L 228.327737 45.926182 
L 228.632252 48.891273 
L 228.78451 50.373818 
L 229.089026 47.902909 
L 229.241284 57.786545 
L 229.393542 47.408727 
L 229.5458 46.420364 
L 229.698058 48.397091 
L 229.850316 53.833091 
L 230.002574 51.362182 
L 230.154832 50.868 
L 230.30709 52.350545 
L 230.459348 50.373818 
L 230.611606 46.420364 
L 230.763864 45.926182 
L 230.916122 47.902909 
L 231.06838 52.844727 
L 231.220638 45.926182 
L 231.372896 50.868 
L 231.525153 48.891273 
L 231.677411 53.338909 
L 231.829669 46.914545 
L 232.134185 58.280727 
L 232.286443 47.902909 
L 232.438701 51.362182 
L 232.590959 51.856364 
L 232.743217 48.397091 
L 232.895475 52.844727 
L 233.047733 50.868 
L 233.199991 45.432 
L 233.352249 52.350545 
L 233.656765 47.408727 
L 233.809023 48.397091 
L 233.961281 47.902909 
L 234.113539 50.868 
L 234.418054 46.420364 
L 234.570312 51.856364 
L 234.72257 45.432 
L 234.874828 57.786545 
L 235.027086 46.420364 
L 235.179344 54.327273 
L 235.331602 52.844727 
L 235.48386 48.891273 
L 235.636118 47.902909 
L 235.788376 49.879636 
L 235.940634 48.891273 
L 236.092892 49.385455 
L 236.24515 48.891273 
L 236.397408 50.373818 
L 236.549666 57.786545 
L 236.854182 45.926182 
L 237.158698 52.844727 
L 237.310955 47.408727 
L 237.463213 51.856364 
L 237.615471 44.937818 
L 237.767729 46.914545 
L 237.919987 51.362182 
L 238.072245 49.879636 
L 238.224503 51.856364 
L 238.376761 47.902909 
L 238.529019 56.304 
L 238.681277 48.397091 
L 238.833535 46.420364 
L 238.985793 45.926182 
L 239.138051 44.443636 
L 239.290309 46.914545 
L 239.442567 51.856364 
L 239.747083 46.914545 
L 239.899341 49.879636 
L 240.051599 44.937818 
L 240.203856 48.891273 
L 240.356114 49.385455 
L 240.66063 49.385455 
L 240.812888 49.879636 
L 240.965146 51.362182 
L 241.117404 45.432 
L 241.269662 45.926182 
L 241.42192 47.902909 
L 241.574178 48.397091 
L 241.726436 46.914545 
L 242.030952 54.821455 
L 242.487726 49.385455 
L 242.639984 50.868 
L 242.9445 44.937818 
L 243.096757 48.891273 
L 243.249015 45.926182 
L 243.401273 54.821455 
L 243.553531 55.809818 
L 243.705789 47.902909 
L 243.858047 47.408727 
L 244.010305 45.432 
L 244.162563 50.373818 
L 244.467079 46.914545 
L 244.619337 49.385455 
L 244.771595 46.914545 
L 244.923853 50.868 
L 245.228369 44.937818 
L 245.380627 50.373818 
L 245.532885 46.914545 
L 245.685143 56.798182 
L 245.989658 45.432 
L 246.141916 46.914545 
L 246.294174 50.868 
L 246.446432 47.902909 
L 246.59869 49.385455 
L 246.750948 47.408727 
L 247.055464 57.292364 
L 247.35998 46.420364 
L 247.512238 50.868 
L 247.664496 46.420364 
L 248.12127 49.385455 
L 248.273528 49.385455 
L 248.425786 46.914545 
L 248.578044 46.914545 
L 248.730302 45.926182 
L 248.882559 51.856364 
L 249.034817 47.902909 
L 249.187075 50.373818 
L 249.339333 46.420364 
L 249.643849 50.373818 
L 249.796107 44.937818 
L 249.948365 49.385455 
L 250.100623 47.408727 
L 250.252881 46.914545 
L 250.405139 46.914545 
L 250.557397 49.385455 
L 250.709655 47.408727 
L 250.861913 49.879636 
L 251.014171 48.891273 
L 251.166429 48.891273 
L 251.318687 48.397091 
L 251.470945 48.397091 
L 251.77546 45.926182 
L 251.927718 48.397091 
L 252.079976 48.891273 
L 252.232234 51.362182 
L 252.384492 48.891273 
L 252.53675 49.879636 
L 252.689008 48.397091 
L 252.993524 51.856364 
L 253.145782 47.902909 
L 253.29804 56.798182 
L 253.450298 46.914545 
L 253.602556 48.397091 
L 253.907072 46.914545 
L 254.05933 51.856364 
L 254.211588 47.408727 
L 254.363846 52.844727 
L 254.668361 44.937818 
L 254.972877 51.362182 
L 255.125135 48.891273 
L 255.277393 48.397091 
L 255.429651 46.420364 
L 255.581909 46.420364 
L 255.734167 49.879636 
L 255.886425 46.420364 
L 256.038683 46.420364 
L 256.190941 48.891273 
L 256.343199 44.937818 
L 256.495457 48.891273 
L 256.647715 47.902909 
L 256.952231 51.856364 
L 257.104489 48.397091 
L 257.256747 49.385455 
L 257.409005 48.397091 
L 257.561262 48.891273 
L 257.71352 52.844727 
L 258.018036 47.408727 
L 258.170294 49.879636 
L 258.322552 45.926182 
L 258.47481 45.432 
L 258.779326 48.891273 
L 258.931584 48.397091 
L 259.083842 51.362182 
L 259.2361 47.408727 
L 259.388358 51.362182 
L 259.540616 46.914545 
L 259.845132 49.879636 
L 259.99739 48.891273 
L 260.149648 48.891273 
L 260.301905 45.926182 
L 260.454163 49.879636 
L 260.910937 46.420364 
L 261.367711 49.879636 
L 261.519969 46.420364 
L 261.672227 50.373818 
L 261.976743 46.914545 
L 262.129001 48.397091 
L 262.281259 47.902909 
L 262.433517 44.937818 
L 262.585775 45.432 
L 262.738033 44.937818 
L 262.890291 45.926182 
L 263.042549 47.902909 
L 263.194806 44.937818 
L 263.347064 55.809818 
L 263.499322 50.868 
L 263.65158 52.350545 
L 263.956096 47.902909 
L 264.108354 48.891273 
L 264.260612 46.420364 
L 264.41287 45.926182 
L 264.565128 46.914545 
L 264.717386 49.879636 
L 264.869644 48.891273 
L 265.021902 50.868 
L 265.17416 49.879636 
L 265.326418 47.408727 
L 265.478676 48.397091 
L 265.783192 46.420364 
L 265.93545 46.420364 
L 266.392223 52.844727 
L 266.544481 50.868 
L 266.696739 45.432 
L 266.848997 48.891273 
L 267.001255 45.926182 
L 267.153513 45.432 
L 267.458029 51.856364 
L 267.762545 47.408727 
L 267.914803 50.373818 
L 268.067061 45.926182 
L 268.219319 49.385455 
L 268.371577 47.408727 
L 268.523835 49.385455 
L 268.676093 49.385455 
L 268.828351 49.879636 
L 269.132866 44.937818 
L 269.437382 53.338909 
L 269.58964 45.432 
L 269.741898 46.914545 
L 269.894156 50.868 
L 270.046414 50.868 
L 270.198672 51.856364 
L 270.35093 51.856364 
L 270.503188 46.914545 
L 270.655446 47.902909 
L 270.807704 49.879636 
L 270.959962 47.902909 
L 271.11222 52.844727 
L 271.264478 46.420364 
L 271.416736 44.937818 
L 271.568994 47.902909 
L 271.721252 54.327273 
L 271.873509 46.420364 
L 272.025767 45.926182 
L 272.178025 47.902909 
L 272.330283 51.362182 
L 272.787057 47.902909 
L 272.939315 48.397091 
L 273.091573 47.408727 
L 273.243831 45.432 
L 273.700605 47.902909 
L 273.852863 44.937818 
L 274.157379 46.914545 
L 274.309637 45.926182 
L 274.614153 49.879636 
L 274.918668 53.338909 
L 275.070926 44.443636 
L 275.375442 48.891273 
L 275.5277 49.385455 
L 275.679958 45.926182 
L 275.832216 49.385455 
L 275.984474 45.926182 
L 276.28899 47.408727 
L 276.441248 47.408727 
L 276.593506 48.397091 
L 276.745764 47.408727 
L 276.898022 49.385455 
L 277.202538 45.926182 
L 277.354796 47.902909 
L 277.507054 46.914545 
L 277.659311 51.362182 
L 277.963827 46.420364 
L 278.116085 48.397091 
L 278.268343 45.926182 
L 278.420601 46.914545 
L 278.572859 45.926182 
L 278.725117 49.879636 
L 278.877375 45.926182 
L 279.029633 48.891273 
L 279.181891 47.408727 
L 279.334149 48.891273 
L 279.638665 48.891273 
L 279.790923 45.926182 
L 279.943181 46.420364 
L 280.095439 46.420364 
L 280.247697 47.902909 
L 280.399955 44.443636 
L 280.552212 50.868 
L 280.856728 44.937818 
L 281.008986 49.879636 
L 281.161244 48.891273 
L 281.313502 46.420364 
L 281.46576 48.397091 
L 281.618018 47.408727 
L 281.770276 49.385455 
L 281.922534 46.914545 
L 282.074792 54.327273 
L 282.22705 47.408727 
L 282.379308 55.809818 
L 282.531566 47.902909 
L 282.683824 49.385455 
L 282.836082 48.891273 
L 282.98834 46.420364 
L 283.140598 48.397091 
L 283.292856 46.420364 
L 283.597371 47.408727 
L 283.749629 50.868 
L 283.901887 50.373818 
L 284.054145 47.902909 
L 284.206403 50.373818 
L 284.358661 47.902909 
L 284.510919 49.879636 
L 284.663177 46.420364 
L 284.815435 48.891273 
L 284.967693 46.914545 
L 285.119951 50.373818 
L 285.424467 47.408727 
L 285.576725 48.891273 
L 285.728983 47.902909 
L 285.881241 49.385455 
L 286.185757 46.914545 
L 286.338014 47.902909 
L 286.490272 47.408727 
L 286.64253 50.868 
L 286.794788 47.902909 
L 286.947046 50.373818 
L 287.099304 46.914545 
L 287.251562 46.914545 
L 287.556078 54.821455 
L 287.860594 44.937818 
L 288.012852 46.420364 
L 288.16511 49.385455 
L 288.317368 45.926182 
L 288.469626 47.408727 
L 288.621884 45.926182 
L 288.774142 46.420364 
L 288.9264 51.856364 
L 289.230915 47.902909 
L 289.383173 45.432 
L 289.535431 45.926182 
L 289.687689 52.350545 
L 289.992205 45.432 
L 290.296721 45.432 
L 290.448979 47.408727 
L 290.601237 47.408727 
L 290.753495 47.902909 
L 290.905753 46.914545 
L 291.058011 47.902909 
L 291.210269 46.914545 
L 291.362527 56.304 
L 291.514785 48.397091 
L 291.667043 46.914545 
L 291.819301 49.879636 
L 291.971559 49.879636 
L 292.123816 44.443636 
L 292.276074 48.891273 
L 292.428332 48.397091 
L 292.58059 47.408727 
L 292.885106 50.868 
L 293.037364 46.914545 
L 293.189622 46.914545 
L 293.34188 47.902909 
L 293.494138 46.420364 
L 293.646396 48.891273 
L 293.798654 49.385455 
L 293.950912 51.362182 
L 294.10317 47.902909 
L 294.255428 49.879636 
L 294.407686 45.432 
L 294.559944 51.362182 
L 294.712202 50.868 
L 295.168975 46.420364 
L 295.321233 48.397091 
L 295.473491 47.902909 
L 295.778007 45.926182 
L 295.930265 45.926182 
L 296.082523 45.432 
L 296.234781 47.902909 
L 296.387039 47.408727 
L 296.539297 50.373818 
L 296.691555 49.385455 
L 296.843813 45.432 
L 296.996071 49.879636 
L 297.148329 48.397091 
L 297.300587 44.937818 
L 297.452845 53.833091 
L 297.605103 47.408727 
L 297.75736 47.408727 
L 297.909618 49.385455 
L 298.214134 47.902909 
L 298.366392 51.362182 
L 298.51865 47.408727 
L 298.670908 53.338909 
L 298.823166 46.420364 
L 298.975424 45.926182 
L 299.127682 47.902909 
L 299.27994 47.902909 
L 299.432198 46.420364 
L 299.584456 48.891273 
L 299.736714 46.914545 
L 299.888972 52.844727 
L 300.04123 47.408727 
L 300.345746 46.420364 
L 300.498004 47.408727 
L 300.650261 44.443636 
L 300.954777 47.902909 
L 301.107035 46.420364 
L 301.259293 47.408727 
L 301.411551 47.408727 
L 301.563809 46.914545 
L 301.716067 46.914545 
L 301.868325 47.408727 
L 302.020583 45.432 
L 302.172841 47.408727 
L 302.325099 45.926182 
L 302.477357 49.879636 
L 302.629615 48.891273 
L 302.781873 45.432 
L 303.086389 45.432 
L 303.238647 48.397091 
L 303.390905 47.408727 
L 303.543162 47.902909 
L 303.69542 46.420364 
L 303.847678 50.868 
L 304.152194 44.443636 
L 304.304452 46.420364 
L 304.45671 49.879636 
L 304.608968 45.926182 
L 304.761226 52.350545 
L 305.065742 45.926182 
L 305.218 47.902909 
L 305.370258 52.844727 
L 305.674774 47.408727 
L 305.827032 47.902909 
L 305.97929 46.914545 
L 306.131548 51.362182 
L 306.283806 50.868 
L 306.436063 45.926182 
L 306.588321 48.397091 
L 306.740579 47.408727 
L 306.892837 51.856364 
L 307.045095 51.362182 
L 307.197353 46.914545 
L 307.349611 47.902909 
L 307.501869 47.902909 
L 307.654127 46.914545 
L 307.806385 47.408727 
L 307.958643 45.432 
L 308.110901 47.408727 
L 308.263159 47.408727 
L 308.567675 52.350545 
L 308.719933 45.926182 
L 308.872191 45.432 
L 309.024449 48.891273 
L 309.176707 47.902909 
L 309.328964 48.397091 
L 309.481222 46.914545 
L 309.63348 49.385455 
L 309.937996 47.408727 
L 310.090254 49.385455 
L 310.242512 48.397091 
L 310.39477 49.879636 
L 310.547028 44.443636 
L 310.699286 48.891273 
L 310.851544 48.397091 
L 311.003802 53.338909 
L 311.15606 46.914545 
L 311.308318 51.362182 
L 311.612834 45.432 
L 311.765092 49.385455 
L 311.91735 45.432 
L 312.069608 46.420364 
L 312.221865 53.338909 
L 312.374123 46.914545 
L 312.526381 49.385455 
L 313.135413 45.432 
L 313.287671 46.914545 
L 313.439929 46.420364 
L 313.592187 48.397091 
L 313.744445 52.350545 
L 313.896703 48.397091 
L 314.048961 47.408727 
L 314.201219 49.879636 
L 314.353477 48.397091 
L 314.505735 48.891273 
L 314.657993 48.397091 
L 314.810251 46.914545 
L 314.962509 48.891273 
L 315.114766 48.891273 
L 315.267024 44.937818 
L 315.419282 47.902909 
L 315.57154 46.420364 
L 315.723798 48.397091 
L 316.028314 46.914545 
L 316.180572 50.868 
L 316.33283 46.420364 
L 316.485088 46.420364 
L 316.637346 47.902909 
L 316.789604 46.914545 
L 316.941862 44.443636 
L 317.09412 47.902909 
L 317.246378 47.902909 
L 317.550894 48.891273 
L 317.703152 46.420364 
L 317.85541 47.408727 
L 318.007667 52.844727 
L 318.159925 46.914545 
L 318.464441 48.397091 
L 318.616699 47.408727 
L 318.921215 50.373818 
L 319.073473 46.914545 
L 319.225731 59.269091 
L 319.530247 46.420364 
L 319.682505 45.926182 
L 319.834763 46.420364 
L 319.987021 48.397091 
L 320.139279 47.408727 
L 320.443795 49.879636 
L 320.596053 48.397091 
L 320.748311 49.879636 
L 320.900568 46.914545 
L 321.052826 46.914545 
L 321.205084 45.432 
L 321.357342 48.891273 
L 321.5096 45.926182 
L 321.661858 47.408727 
L 321.814116 47.408727 
L 321.966374 49.879636 
L 322.118632 50.373818 
L 322.27089 46.914545 
L 322.423148 47.408727 
L 322.575406 45.432 
L 322.727664 47.408727 
L 322.879922 45.926182 
L 323.03218 45.926182 
L 323.184438 49.385455 
L 323.336696 47.902909 
L 323.488954 48.397091 
L 323.641212 46.420364 
L 323.793469 46.914545 
L 323.945727 46.914545 
L 324.097985 46.420364 
L 324.402501 47.902909 
L 324.554759 46.914545 
L 324.707017 50.373818 
L 324.859275 48.397091 
L 325.011533 48.397091 
L 325.163791 47.902909 
L 325.316049 48.397091 
L 325.468307 46.914545 
L 325.620565 48.891273 
L 325.772823 46.914545 
L 326.077339 49.385455 
L 326.229597 46.420364 
L 326.381855 47.408727 
L 326.534113 46.914545 
L 326.68637 51.856364 
L 326.838628 46.914545 
L 326.990886 49.385455 
L 327.295402 46.420364 
L 327.44766 47.902909 
L 327.599918 53.833091 
L 327.752176 47.408727 
L 327.904434 45.926182 
L 328.056692 47.408727 
L 328.361208 47.408727 
L 328.513466 50.373818 
L 328.665724 46.914545 
L 328.817982 47.408727 
L 328.97024 45.432 
L 329.122498 45.432 
L 329.274756 46.420364 
L 329.427014 49.385455 
L 329.731529 46.420364 
L 329.883787 48.397091 
L 330.036045 45.926182 
L 330.188303 47.902909 
L 330.340561 47.408727 
L 330.492819 47.408727 
L 330.645077 48.891273 
L 330.797335 48.397091 
L 330.949593 48.891273 
L 331.101851 46.420364 
L 331.254109 46.420364 
L 331.406367 48.397091 
L 331.558625 46.420364 
L 331.863141 48.397091 
L 332.015399 46.914545 
L 332.167657 48.891273 
L 332.319915 49.385455 
L 332.472172 48.891273 
L 332.62443 47.408727 
L 332.776688 48.397091 
L 332.928946 47.408727 
L 333.081204 48.891273 
L 333.233462 46.420364 
L 333.537978 48.891273 
L 333.690236 44.937818 
L 333.994752 49.879636 
L 334.14701 50.373818 
L 334.451526 47.902909 
L 334.603784 48.891273 
L 334.756042 48.891273 
L 334.9083 50.868 
L 335.212815 45.926182 
L 335.365073 46.420364 
L 335.517331 50.373818 
L 335.669589 45.432 
L 335.821847 47.902909 
L 335.974105 47.408727 
L 336.126363 47.408727 
L 336.278621 46.914545 
L 336.430879 47.408727 
L 336.583137 46.420364 
L 336.735395 48.397091 
L 337.039911 45.926182 
L 337.344427 47.902909 
L 337.496685 48.891273 
L 337.648943 45.926182 
L 337.801201 46.420364 
L 337.953459 48.397091 
L 338.105716 46.914545 
L 338.257974 47.408727 
L 338.410232 49.385455 
L 338.56249 45.926182 
L 338.867006 48.891273 
L 339.019264 46.914545 
L 339.171522 49.879636 
L 339.476038 46.914545 
L 339.628296 51.856364 
L 339.780554 46.914545 
L 339.932812 46.914545 
L 340.08507 48.397091 
L 340.237328 47.902909 
L 340.389586 51.856364 
L 340.541844 47.902909 
L 340.84636 47.902909 
L 341.150875 46.914545 
L 341.455391 51.362182 
L 341.607649 45.432 
L 341.759907 47.408727 
L 342.064423 45.432 
L 342.216681 50.373818 
L 342.368939 47.408727 
L 342.521197 51.362182 
L 342.673455 51.362182 
L 342.825713 44.937818 
L 343.130229 47.902909 
L 343.282487 46.914545 
L 343.434745 50.373818 
L 343.739261 46.914545 
L 343.891518 45.926182 
L 344.196034 49.879636 
L 344.348292 49.879636 
L 344.50055 47.408727 
L 344.805066 50.868 
L 344.957324 45.926182 
L 345.26184 44.937818 
L 345.566356 50.868 
L 345.718614 46.914545 
L 345.870872 49.385455 
L 346.02313 48.891273 
L 346.175388 44.937818 
L 346.327646 44.937818 
L 346.479904 47.902909 
L 346.632162 47.408727 
L 346.784419 50.373818 
L 346.936677 49.385455 
L 347.088935 44.937818 
L 347.241193 46.914545 
L 347.393451 46.914545 
L 347.545709 48.891273 
L 347.697967 45.432 
L 347.850225 46.420364 
L 348.002483 49.879636 
L 348.154741 48.891273 
L 348.306999 45.432 
L 348.459257 48.397091 
L 348.763773 46.914545 
L 348.916031 47.408727 
L 349.068289 48.397091 
L 349.220547 47.902909 
L 349.372805 49.385455 
L 349.67732 45.432 
L 349.829578 45.926182 
L 350.134094 49.879636 
L 350.286352 45.432 
L 350.43861 47.408727 
L 350.590868 45.926182 
L 350.743126 47.902909 
L 350.895384 47.408727 
L 351.047642 48.891273 
L 351.1999 45.432 
L 351.352158 45.926182 
L 351.504416 46.914545 
L 351.656674 50.373818 
L 351.96119 46.914545 
L 352.113448 47.902909 
L 352.265706 46.420364 
L 352.417964 48.397091 
L 352.874737 45.926182 
L 353.026995 47.408727 
L 353.331511 45.432 
L 353.636027 47.408727 
L 353.940543 45.926182 
L 354.092801 50.373818 
L 354.701833 44.937818 
L 354.854091 47.408727 
L 355.006349 45.432 
L 355.158607 49.385455 
L 355.310865 46.914545 
L 355.463122 48.891273 
L 355.61538 49.385455 
L 356.072154 45.926182 
L 356.37667 47.902909 
L 356.528928 48.397091 
L 356.681186 47.408727 
L 356.833444 48.397091 
L 356.985702 46.914545 
L 357.13796 47.902909 
L 357.290218 46.420364 
L 357.442476 47.902909 
L 357.594734 45.432 
L 357.746992 49.879636 
L 357.89925 44.937818 
L 358.356023 48.397091 
L 358.508281 50.373818 
L 358.660539 50.373818 
L 358.812797 46.914545 
L 358.965055 47.902909 
L 359.117313 47.408727 
L 359.269571 48.891273 
L 359.574087 48.891273 
L 359.726345 49.879636 
L 359.878603 46.420364 
L 360.335377 52.350545 
L 360.487635 46.420364 
L 360.639893 51.362182 
L 360.792151 45.432 
L 360.944409 44.443636 
L 361.096667 46.420364 
L 361.248924 45.926182 
L 361.55344 48.397091 
L 361.705698 47.902909 
L 361.857956 49.385455 
L 362.010214 48.397091 
L 362.162472 45.926182 
L 362.31473 54.327273 
L 362.466988 46.420364 
L 362.619246 48.397091 
L 362.771504 46.420364 
L 362.923762 48.397091 
L 363.228278 46.914545 
L 363.380536 48.891273 
L 363.532794 49.385455 
L 363.685052 47.408727 
L 363.83731 46.914545 
L 363.989568 47.902909 
L 364.141825 46.914545 
L 364.294083 47.902909 
L 364.598599 45.926182 
L 364.750857 46.914545 
L 364.903115 45.926182 
L 365.055373 47.902909 
L 365.207631 46.914545 
L 365.359889 47.902909 
L 365.512147 47.408727 
L 365.664405 45.926182 
L 365.816663 48.891273 
L 366.121179 46.420364 
L 366.273437 46.914545 
L 366.425695 49.385455 
L 366.730211 46.914545 
L 366.882469 46.914545 
L 367.034726 48.891273 
L 367.186984 46.914545 
L 367.339242 48.397091 
L 367.4915 45.432 
L 367.643758 46.420364 
L 367.796016 48.397091 
L 367.948274 47.902909 
L 368.100532 48.891273 
L 368.25279 46.420364 
L 368.405048 47.408727 
L 368.557306 46.420364 
L 368.709564 47.408727 
L 368.861822 50.868 
L 369.166338 46.420364 
L 369.318596 48.891273 
L 369.470854 47.408727 
L 369.623112 50.373818 
L 369.927627 45.432 
L 370.079885 48.891273 
L 370.232143 45.432 
L 370.384401 48.891273 
L 370.688917 46.420364 
L 370.993433 51.362182 
L 371.145691 46.420364 
L 371.450207 49.385455 
L 371.602465 46.914545 
L 371.906981 45.926182 
L 372.059239 47.408727 
L 372.211497 45.432 
L 372.363755 46.914545 
L 372.516013 45.926182 
L 372.820528 47.408727 
L 372.972786 47.902909 
L 373.125044 45.926182 
L 373.277302 49.385455 
L 373.42956 47.408727 
L 373.581818 48.891273 
L 373.581818 48.891273 
" style="fill:none;stroke:#0000ff;stroke-linecap:square;stroke-opacity:0.2;stroke-width:1.5;"/>
   </g>
   <g id="line2d_21">
    <path clip-path="url(#p23d2ef240e)" d="M 54 49.385455 
L 388.8 49.385455 
" style="fill:none;stroke:#1f77b4;stroke-linecap:square;stroke-width:1.5;"/>
   </g>
   <g id="patch_3">
    <path d="M 54 252 
L 54 34.56 
" style="fill:none;stroke:#000000;stroke-linecap:square;stroke-linejoin:miter;stroke-width:0.8;"/>
   </g>
   <g id="patch_4">
    <path d="M 388.8 252 
L 388.8 34.56 
" style="fill:none;stroke:#000000;stroke-linecap:square;stroke-linejoin:miter;stroke-width:0.8;"/>
   </g>
   <g id="patch_5">
    <path d="M 54 252 
L 388.8 252 
" style="fill:none;stroke:#000000;stroke-linecap:square;stroke-linejoin:miter;stroke-width:0.8;"/>
   </g>
   <g id="patch_6">
    <path d="M 54 34.56 
L 388.8 34.56 
" style="fill:none;stroke:#000000;stroke-linecap:square;stroke-linejoin:miter;stroke-width:0.8;"/>
   </g>
  </g>
 </g>
 <defs>
  <clipPath id="p23d2ef240e">
   <rect height="217.44" width="334.8" x="54" y="34.56"/>
  </clipPath>
 </defs>
</svg>
