<?xml version="1.0" encoding="utf-8" standalone="no"?>
<!DOCTYPE svg PUBLIC "-//W3C//DTD SVG 1.1//EN"
  "http://www.w3.org/Graphics/SVG/1.1/DTD/svg11.dtd">
<!-- Created with matplotlib (https://matplotlib.org/) -->
<svg height="288pt" version="1.1" viewBox="0 0 432 288" width="432pt" xmlns="http://www.w3.org/2000/svg" xmlns:xlink="http://www.w3.org/1999/xlink">
 <defs>
  <style type="text/css">
*{stroke-linecap:butt;stroke-linejoin:round;}
  </style>
 </defs>
 <g id="figure_1">
  <g id="patch_1">
   <path d="M 0 288 
L 432 288 
L 432 0 
L 0 0 
z
" style="fill:#ffffff;"/>
  </g>
  <g id="axes_1">
   <g id="patch_2">
    <path d="M 54 252 
L 388.8 252 
L 388.8 34.56 
L 54 34.56 
z
" style="fill:#ffffff;"/>
   </g>
   <g id="matplotlib.axis_1">
    <g id="xtick_1">
     <g id="line2d_1">
      <defs>
       <path d="M 0 0 
L 0 3.5 
" id="m7ff92ff9b0" style="stroke:#000000;stroke-width:0.8;"/>
      </defs>
      <g>
       <use style="stroke:#000000;stroke-width:0.8;" x="69.218182" xlink:href="#m7ff92ff9b0" y="252"/>
      </g>
     </g>
     <g id="text_1">
      <!-- 0 -->
      <defs>
       <path d="M 31.78125 66.40625 
Q 24.171875 66.40625 20.328125 58.90625 
Q 16.5 51.421875 16.5 36.375 
Q 16.5 21.390625 20.328125 13.890625 
Q 24.171875 6.390625 31.78125 6.390625 
Q 39.453125 6.390625 43.28125 13.890625 
Q 47.125 21.390625 47.125 36.375 
Q 47.125 51.421875 43.28125 58.90625 
Q 39.453125 66.40625 31.78125 66.40625 
z
M 31.78125 74.21875 
Q 44.046875 74.21875 50.515625 64.515625 
Q 56.984375 54.828125 56.984375 36.375 
Q 56.984375 17.96875 50.515625 8.265625 
Q 44.046875 -1.421875 31.78125 -1.421875 
Q 19.53125 -1.421875 13.0625 8.265625 
Q 6.59375 17.96875 6.59375 36.375 
Q 6.59375 54.828125 13.0625 64.515625 
Q 19.53125 74.21875 31.78125 74.21875 
z
" id="DejaVuSans-48"/>
      </defs>
      <g transform="translate(66.036932 266.598437)scale(0.1 -0.1)">
       <use xlink:href="#DejaVuSans-48"/>
      </g>
     </g>
    </g>
    <g id="xtick_2">
     <g id="line2d_2">
      <g>
       <use style="stroke:#000000;stroke-width:0.8;" x="107.282669" xlink:href="#m7ff92ff9b0" y="252"/>
      </g>
     </g>
     <g id="text_2">
      <!-- 250 -->
      <defs>
       <path d="M 19.1875 8.296875 
L 53.609375 8.296875 
L 53.609375 0 
L 7.328125 0 
L 7.328125 8.296875 
Q 12.9375 14.109375 22.625 23.890625 
Q 32.328125 33.6875 34.8125 36.53125 
Q 39.546875 41.84375 41.421875 45.53125 
Q 43.3125 49.21875 43.3125 52.78125 
Q 43.3125 58.59375 39.234375 62.25 
Q 35.15625 65.921875 28.609375 65.921875 
Q 23.96875 65.921875 18.8125 64.3125 
Q 13.671875 62.703125 7.8125 59.421875 
L 7.8125 69.390625 
Q 13.765625 71.78125 18.9375 73 
Q 24.125 74.21875 28.421875 74.21875 
Q 39.75 74.21875 46.484375 68.546875 
Q 53.21875 62.890625 53.21875 53.421875 
Q 53.21875 48.921875 51.53125 44.890625 
Q 49.859375 40.875 45.40625 35.40625 
Q 44.1875 33.984375 37.640625 27.21875 
Q 31.109375 20.453125 19.1875 8.296875 
z
" id="DejaVuSans-50"/>
       <path d="M 10.796875 72.90625 
L 49.515625 72.90625 
L 49.515625 64.59375 
L 19.828125 64.59375 
L 19.828125 46.734375 
Q 21.96875 47.46875 24.109375 47.828125 
Q 26.265625 48.1875 28.421875 48.1875 
Q 40.625 48.1875 47.75 41.5 
Q 54.890625 34.8125 54.890625 23.390625 
Q 54.890625 11.625 47.5625 5.09375 
Q 40.234375 -1.421875 26.90625 -1.421875 
Q 22.3125 -1.421875 17.546875 -0.640625 
Q 12.796875 0.140625 7.71875 1.703125 
L 7.71875 11.625 
Q 12.109375 9.234375 16.796875 8.0625 
Q 21.484375 6.890625 26.703125 6.890625 
Q 35.15625 6.890625 40.078125 11.328125 
Q 45.015625 15.765625 45.015625 23.390625 
Q 45.015625 31 40.078125 35.4375 
Q 35.15625 39.890625 26.703125 39.890625 
Q 22.75 39.890625 18.8125 39.015625 
Q 14.890625 38.140625 10.796875 36.28125 
z
" id="DejaVuSans-53"/>
      </defs>
      <g transform="translate(97.738919 266.598437)scale(0.1 -0.1)">
       <use xlink:href="#DejaVuSans-50"/>
       <use x="63.623047" xlink:href="#DejaVuSans-53"/>
       <use x="127.246094" xlink:href="#DejaVuSans-48"/>
      </g>
     </g>
    </g>
    <g id="xtick_3">
     <g id="line2d_3">
      <g>
       <use style="stroke:#000000;stroke-width:0.8;" x="145.347155" xlink:href="#m7ff92ff9b0" y="252"/>
      </g>
     </g>
     <g id="text_3">
      <!-- 500 -->
      <g transform="translate(135.803405 266.598437)scale(0.1 -0.1)">
       <use xlink:href="#DejaVuSans-53"/>
       <use x="63.623047" xlink:href="#DejaVuSans-48"/>
       <use x="127.246094" xlink:href="#DejaVuSans-48"/>
      </g>
     </g>
    </g>
    <g id="xtick_4">
     <g id="line2d_4">
      <g>
       <use style="stroke:#000000;stroke-width:0.8;" x="183.411642" xlink:href="#m7ff92ff9b0" y="252"/>
      </g>
     </g>
     <g id="text_4">
      <!-- 750 -->
      <defs>
       <path d="M 8.203125 72.90625 
L 55.078125 72.90625 
L 55.078125 68.703125 
L 28.609375 0 
L 18.3125 0 
L 43.21875 64.59375 
L 8.203125 64.59375 
z
" id="DejaVuSans-55"/>
      </defs>
      <g transform="translate(173.867892 266.598437)scale(0.1 -0.1)">
       <use xlink:href="#DejaVuSans-55"/>
       <use x="63.623047" xlink:href="#DejaVuSans-53"/>
       <use x="127.246094" xlink:href="#DejaVuSans-48"/>
      </g>
     </g>
    </g>
    <g id="xtick_5">
     <g id="line2d_5">
      <g>
       <use style="stroke:#000000;stroke-width:0.8;" x="221.476129" xlink:href="#m7ff92ff9b0" y="252"/>
      </g>
     </g>
     <g id="text_5">
      <!-- 1000 -->
      <defs>
       <path d="M 12.40625 8.296875 
L 28.515625 8.296875 
L 28.515625 63.921875 
L 10.984375 60.40625 
L 10.984375 69.390625 
L 28.421875 72.90625 
L 38.28125 72.90625 
L 38.28125 8.296875 
L 54.390625 8.296875 
L 54.390625 0 
L 12.40625 0 
z
" id="DejaVuSans-49"/>
      </defs>
      <g transform="translate(208.751129 266.598437)scale(0.1 -0.1)">
       <use xlink:href="#DejaVuSans-49"/>
       <use x="63.623047" xlink:href="#DejaVuSans-48"/>
       <use x="127.246094" xlink:href="#DejaVuSans-48"/>
       <use x="190.869141" xlink:href="#DejaVuSans-48"/>
      </g>
     </g>
    </g>
    <g id="xtick_6">
     <g id="line2d_6">
      <g>
       <use style="stroke:#000000;stroke-width:0.8;" x="259.540616" xlink:href="#m7ff92ff9b0" y="252"/>
      </g>
     </g>
     <g id="text_6">
      <!-- 1250 -->
      <g transform="translate(246.815616 266.598437)scale(0.1 -0.1)">
       <use xlink:href="#DejaVuSans-49"/>
       <use x="63.623047" xlink:href="#DejaVuSans-50"/>
       <use x="127.246094" xlink:href="#DejaVuSans-53"/>
       <use x="190.869141" xlink:href="#DejaVuSans-48"/>
      </g>
     </g>
    </g>
    <g id="xtick_7">
     <g id="line2d_7">
      <g>
       <use style="stroke:#000000;stroke-width:0.8;" x="297.605103" xlink:href="#m7ff92ff9b0" y="252"/>
      </g>
     </g>
     <g id="text_7">
      <!-- 1500 -->
      <g transform="translate(284.880103 266.598437)scale(0.1 -0.1)">
       <use xlink:href="#DejaVuSans-49"/>
       <use x="63.623047" xlink:href="#DejaVuSans-53"/>
       <use x="127.246094" xlink:href="#DejaVuSans-48"/>
       <use x="190.869141" xlink:href="#DejaVuSans-48"/>
      </g>
     </g>
    </g>
    <g id="xtick_8">
     <g id="line2d_8">
      <g>
       <use style="stroke:#000000;stroke-width:0.8;" x="335.669589" xlink:href="#m7ff92ff9b0" y="252"/>
      </g>
     </g>
     <g id="text_8">
      <!-- 1750 -->
      <g transform="translate(322.944589 266.598437)scale(0.1 -0.1)">
       <use xlink:href="#DejaVuSans-49"/>
       <use x="63.623047" xlink:href="#DejaVuSans-55"/>
       <use x="127.246094" xlink:href="#DejaVuSans-53"/>
       <use x="190.869141" xlink:href="#DejaVuSans-48"/>
      </g>
     </g>
    </g>
    <g id="xtick_9">
     <g id="line2d_9">
      <g>
       <use style="stroke:#000000;stroke-width:0.8;" x="373.734076" xlink:href="#m7ff92ff9b0" y="252"/>
      </g>
     </g>
     <g id="text_9">
      <!-- 2000 -->
      <g transform="translate(361.009076 266.598437)scale(0.1 -0.1)">
       <use xlink:href="#DejaVuSans-50"/>
       <use x="63.623047" xlink:href="#DejaVuSans-48"/>
       <use x="127.246094" xlink:href="#DejaVuSans-48"/>
       <use x="190.869141" xlink:href="#DejaVuSans-48"/>
      </g>
     </g>
    </g>
   </g>
   <g id="matplotlib.axis_2">
    <g id="ytick_1">
     <g id="line2d_10">
      <defs>
       <path d="M 0 0 
L -3.5 0 
" id="m6e50213a4d" style="stroke:#000000;stroke-width:0.8;"/>
      </defs>
      <g>
       <use style="stroke:#000000;stroke-width:0.8;" x="54" xlink:href="#m6e50213a4d" y="242.116364"/>
      </g>
     </g>
     <g id="text_10">
      <!-- −3.0 -->
      <defs>
       <path d="M 10.59375 35.5 
L 73.1875 35.5 
L 73.1875 27.203125 
L 10.59375 27.203125 
z
" id="DejaVuSans-8722"/>
       <path d="M 40.578125 39.3125 
Q 47.65625 37.796875 51.625 33 
Q 55.609375 28.21875 55.609375 21.1875 
Q 55.609375 10.40625 48.1875 4.484375 
Q 40.765625 -1.421875 27.09375 -1.421875 
Q 22.515625 -1.421875 17.65625 -0.515625 
Q 12.796875 0.390625 7.625 2.203125 
L 7.625 11.71875 
Q 11.71875 9.328125 16.59375 8.109375 
Q 21.484375 6.890625 26.8125 6.890625 
Q 36.078125 6.890625 40.9375 10.546875 
Q 45.796875 14.203125 45.796875 21.1875 
Q 45.796875 27.640625 41.28125 31.265625 
Q 36.765625 34.90625 28.71875 34.90625 
L 20.21875 34.90625 
L 20.21875 43.015625 
L 29.109375 43.015625 
Q 36.375 43.015625 40.234375 45.921875 
Q 44.09375 48.828125 44.09375 54.296875 
Q 44.09375 59.90625 40.109375 62.90625 
Q 36.140625 65.921875 28.71875 65.921875 
Q 24.65625 65.921875 20.015625 65.03125 
Q 15.375 64.15625 9.8125 62.3125 
L 9.8125 71.09375 
Q 15.4375 72.65625 20.34375 73.4375 
Q 25.25 74.21875 29.59375 74.21875 
Q 40.828125 74.21875 47.359375 69.109375 
Q 53.90625 64.015625 53.90625 55.328125 
Q 53.90625 49.265625 50.4375 45.09375 
Q 46.96875 40.921875 40.578125 39.3125 
z
" id="DejaVuSans-51"/>
       <path d="M 10.6875 12.40625 
L 21 12.40625 
L 21 0 
L 10.6875 0 
z
" id="DejaVuSans-46"/>
      </defs>
      <g transform="translate(22.717187 245.915582)scale(0.1 -0.1)">
       <use xlink:href="#DejaVuSans-8722"/>
       <use x="83.789062" xlink:href="#DejaVuSans-51"/>
       <use x="147.412109" xlink:href="#DejaVuSans-46"/>
       <use x="179.199219" xlink:href="#DejaVuSans-48"/>
      </g>
     </g>
    </g>
    <g id="ytick_2">
     <g id="line2d_11">
      <g>
       <use style="stroke:#000000;stroke-width:0.8;" x="54" xlink:href="#m6e50213a4d" y="217.407273"/>
      </g>
     </g>
     <g id="text_11">
      <!-- −2.5 -->
      <g transform="translate(22.717187 221.206491)scale(0.1 -0.1)">
       <use xlink:href="#DejaVuSans-8722"/>
       <use x="83.789062" xlink:href="#DejaVuSans-50"/>
       <use x="147.412109" xlink:href="#DejaVuSans-46"/>
       <use x="179.199219" xlink:href="#DejaVuSans-53"/>
      </g>
     </g>
    </g>
    <g id="ytick_3">
     <g id="line2d_12">
      <g>
       <use style="stroke:#000000;stroke-width:0.8;" x="54" xlink:href="#m6e50213a4d" y="192.698182"/>
      </g>
     </g>
     <g id="text_12">
      <!-- −2.0 -->
      <g transform="translate(22.717187 196.497401)scale(0.1 -0.1)">
       <use xlink:href="#DejaVuSans-8722"/>
       <use x="83.789062" xlink:href="#DejaVuSans-50"/>
       <use x="147.412109" xlink:href="#DejaVuSans-46"/>
       <use x="179.199219" xlink:href="#DejaVuSans-48"/>
      </g>
     </g>
    </g>
    <g id="ytick_4">
     <g id="line2d_13">
      <g>
       <use style="stroke:#000000;stroke-width:0.8;" x="54" xlink:href="#m6e50213a4d" y="167.989091"/>
      </g>
     </g>
     <g id="text_13">
      <!-- −1.5 -->
      <g transform="translate(22.717187 171.78831)scale(0.1 -0.1)">
       <use xlink:href="#DejaVuSans-8722"/>
       <use x="83.789062" xlink:href="#DejaVuSans-49"/>
       <use x="147.412109" xlink:href="#DejaVuSans-46"/>
       <use x="179.199219" xlink:href="#DejaVuSans-53"/>
      </g>
     </g>
    </g>
    <g id="ytick_5">
     <g id="line2d_14">
      <g>
       <use style="stroke:#000000;stroke-width:0.8;" x="54" xlink:href="#m6e50213a4d" y="143.28"/>
      </g>
     </g>
     <g id="text_14">
      <!-- −1.0 -->
      <g transform="translate(22.717187 147.079219)scale(0.1 -0.1)">
       <use xlink:href="#DejaVuSans-8722"/>
       <use x="83.789062" xlink:href="#DejaVuSans-49"/>
       <use x="147.412109" xlink:href="#DejaVuSans-46"/>
       <use x="179.199219" xlink:href="#DejaVuSans-48"/>
      </g>
     </g>
    </g>
    <g id="ytick_6">
     <g id="line2d_15">
      <g>
       <use style="stroke:#000000;stroke-width:0.8;" x="54" xlink:href="#m6e50213a4d" y="118.570909"/>
      </g>
     </g>
     <g id="text_15">
      <!-- −0.5 -->
      <g transform="translate(22.717187 122.370128)scale(0.1 -0.1)">
       <use xlink:href="#DejaVuSans-8722"/>
       <use x="83.789062" xlink:href="#DejaVuSans-48"/>
       <use x="147.412109" xlink:href="#DejaVuSans-46"/>
       <use x="179.199219" xlink:href="#DejaVuSans-53"/>
      </g>
     </g>
    </g>
    <g id="ytick_7">
     <g id="line2d_16">
      <g>
       <use style="stroke:#000000;stroke-width:0.8;" x="54" xlink:href="#m6e50213a4d" y="93.861818"/>
      </g>
     </g>
     <g id="text_16">
      <!-- 0.0 -->
      <g transform="translate(31.096875 97.661037)scale(0.1 -0.1)">
       <use xlink:href="#DejaVuSans-48"/>
       <use x="63.623047" xlink:href="#DejaVuSans-46"/>
       <use x="95.410156" xlink:href="#DejaVuSans-48"/>
      </g>
     </g>
    </g>
    <g id="ytick_8">
     <g id="line2d_17">
      <g>
       <use style="stroke:#000000;stroke-width:0.8;" x="54" xlink:href="#m6e50213a4d" y="69.152727"/>
      </g>
     </g>
     <g id="text_17">
      <!-- 0.5 -->
      <g transform="translate(31.096875 72.951946)scale(0.1 -0.1)">
       <use xlink:href="#DejaVuSans-48"/>
       <use x="63.623047" xlink:href="#DejaVuSans-46"/>
       <use x="95.410156" xlink:href="#DejaVuSans-53"/>
      </g>
     </g>
    </g>
    <g id="ytick_9">
     <g id="line2d_18">
      <g>
       <use style="stroke:#000000;stroke-width:0.8;" x="54" xlink:href="#m6e50213a4d" y="44.443636"/>
      </g>
     </g>
     <g id="text_18">
      <!-- 1.0 -->
      <g transform="translate(31.096875 48.242855)scale(0.1 -0.1)">
       <use xlink:href="#DejaVuSans-49"/>
       <use x="63.623047" xlink:href="#DejaVuSans-46"/>
       <use x="95.410156" xlink:href="#DejaVuSans-48"/>
      </g>
     </g>
    </g>
   </g>
   <g id="line2d_19">
    <path clip-path="url(#p74a11290d5)" d="M 69.218182 207.128291 
L 69.522698 207.128291 
L 69.674956 212.366618 
L 69.827214 212.366618 
L 69.979472 208.841455 
L 70.13173 212.399564 
L 70.436245 212.399564 
L 70.893019 199.781455 
L 71.045277 206.057564 
L 71.197535 200.226218 
L 71.502051 200.226218 
L 71.654309 193.8348 
L 72.263341 193.8348 
L 72.567857 185.845527 
L 72.720115 192.368727 
L 73.02463 192.368727 
L 73.176888 197.969455 
L 73.481404 197.969455 
L 73.633662 200.967491 
L 73.78592 200.967491 
L 73.938178 197.211709 
L 74.394952 197.211709 
L 74.54721 202.664182 
L 75.003984 202.664182 
L 75.460758 215.282291 
L 75.613016 215.282291 
L 75.765274 221.113636 
L 76.069789 221.113636 
L 76.222047 227.505055 
L 76.374305 227.505055 
L 76.526563 225.808364 
L 76.831079 225.808364 
L 76.983337 231.787964 
L 77.135595 229.366473 
L 77.440111 229.366473 
L 77.592369 227.3568 
L 77.744627 227.3568 
L 78.049143 216.863673 
L 78.201401 219.729927 
L 78.353659 213.387927 
L 78.505917 217.143709 
L 78.658175 212.778436 
L 78.810432 212.778436 
L 78.96269 210.208691 
L 79.114948 210.208691 
L 79.267206 206.008145 
L 80.028496 206.008145 
L 80.180754 202.977164 
L 80.637528 202.977164 
L 80.789786 200.242691 
L 80.942044 200.242691 
L 81.094302 201.939382 
L 81.398818 192.253418 
L 81.551076 192.253418 
L 81.703333 196.684582 
L 82.007849 196.684582 
L 82.160107 198.694255 
L 82.312365 198.694255 
L 82.616881 209.187382 
L 82.769139 209.187382 
L 82.921397 210.011018 
L 83.073655 210.011018 
L 83.225913 211.757127 
L 83.378171 211.757127 
L 83.530429 214.326873 
L 83.682687 214.326873 
L 83.834945 214.722218 
L 83.987203 214.722218 
L 84.139461 210.768764 
L 84.596234 210.768764 
L 84.90075 205.085673 
L 85.053008 205.085673 
L 85.205266 199.666145 
L 85.357524 202.400618 
L 85.66204 202.400618 
L 85.966556 212.086582 
L 86.880104 212.086582 
L 87.032362 206.551745 
L 87.18462 206.551745 
L 87.336878 200.473309 
L 87.489135 205.991673 
L 87.641393 203.6196 
L 87.793651 206.238764 
L 88.250425 198.7272 
L 88.402683 202.5324 
L 88.554941 202.5324 
L 88.707199 206.485855 
L 88.859457 203.570182 
L 89.163973 203.570182 
L 89.468489 212.284255 
L 89.620747 212.284255 
L 89.773005 217.703782 
L 90.077521 217.703782 
L 90.229779 211.608873 
L 91.447842 211.608873 
L 91.6001 217.143709 
L 91.752358 214.244509 
L 91.904616 217.670836 
L 92.209132 208.264909 
L 92.36139 208.264909 
L 92.513648 205.398655 
L 92.665906 210.076909 
L 93.274937 210.076909 
L 93.427195 212.992582 
L 94.645259 212.992582 
L 94.797517 219.087491 
L 95.558807 219.087491 
L 95.711065 216.995455 
L 96.167838 216.995455 
L 96.320096 214.508073 
L 96.472354 217.160182 
L 96.77687 228.938182 
L 96.929128 228.938182 
L 97.081386 234.637745 
L 97.233644 229.119382 
L 98.603966 229.119382 
L 98.756224 224.243455 
L 100.126545 224.243455 
L 100.278803 219.993491 
L 100.735577 219.993491 
L 100.887835 223.3704 
L 101.496867 223.3704 
L 101.649125 219.153382 
L 101.801383 224.671745 
L 101.95364 218.2968 
L 102.258156 218.2968 
L 102.71493 206.139927 
L 103.171704 206.139927 
L 103.323962 211.015855 
L 103.47622 211.015855 
L 103.628478 206.914145 
L 104.23751 206.914145 
L 104.389768 204.607964 
L 104.694284 204.607964 
L 104.846541 208.462582 
L 105.151057 208.462582 
L 105.303315 205.481018 
L 105.455573 207.490691 
L 106.064605 207.490691 
L 106.216863 211.707709 
L 106.369121 211.707709 
L 106.521379 218.082655 
L 106.825895 218.082655 
L 107.282669 230.239527 
L 108.043958 230.239527 
L 108.196216 234.341236 
L 108.348474 234.341236 
L 108.805248 219.614618 
L 108.957506 221.9208 
L 109.109764 221.9208 
L 109.262022 217.687309 
L 109.41428 218.247382 
L 109.718796 218.247382 
L 109.871054 221.228945 
L 110.327828 221.228945 
L 110.480085 216.254182 
L 110.936859 216.254182 
L 111.089117 211.279418 
L 111.698149 211.279418 
L 112.002665 202.038218 
L 112.611697 202.038218 
L 112.763955 197.211709 
L 112.916213 197.211709 
L 113.068471 202.5324 
L 113.220729 202.927745 
L 113.372986 206.963564 
L 113.677502 206.963564 
L 113.982018 213.124364 
L 114.895566 213.124364 
L 115.047824 214.244509 
L 115.504598 214.244509 
L 115.656856 216.715418 
L 115.809114 211.888909 
L 116.265887 211.888909 
L 116.570403 221.130109 
L 116.874919 221.130109 
L 117.027177 217.291964 
L 117.179435 217.291964 
L 117.331693 218.197964 
L 117.483951 218.197964 
L 117.636209 215.858836 
L 117.788467 220.8336 
L 118.397499 220.8336 
L 118.854273 213.486764 
L 119.463304 213.486764 
L 119.615562 211.971273 
L 120.072336 211.971273 
L 120.224594 214.475127 
L 120.376852 219.301636 
L 121.138142 219.301636 
L 121.2904 213.009055 
L 121.442658 213.009055 
L 121.594916 216.8472 
L 121.747174 216.8472 
L 121.899432 220.767709 
L 122.051689 220.767709 
L 122.203947 223.106836 
L 122.965237 223.106836 
L 123.422011 230.453673 
L 123.574269 230.453673 
L 123.726527 224.836473 
L 123.878785 224.836473 
L 124.031043 218.642727 
L 124.183301 220.635927 
L 124.487817 220.635927 
L 124.640075 218.692145 
L 124.792333 218.692145 
L 124.94459 213.371455 
L 125.70588 213.371455 
L 125.858138 219.664036 
L 126.46717 219.664036 
L 126.619428 216.567164 
L 126.771686 216.567164 
L 127.22846 205.398655 
L 128.142007 205.398655 
L 128.294265 211.015855 
L 128.446523 211.015855 
L 128.751039 220.586509 
L 128.903297 220.586509 
L 129.055555 216.221236 
L 129.207813 218.165018 
L 129.360071 215.924727 
L 129.512329 221.245418 
L 131.034908 221.245418 
L 131.187166 219.614618 
L 131.339424 219.614618 
L 131.491682 218.099127 
L 131.64394 224.358764 
L 131.796198 224.358764 
L 131.948456 217.835564 
L 132.40523 217.835564 
L 132.557488 211.872436 
L 133.014262 211.872436 
L 133.471036 202.598291 
L 133.623293 202.960691 
L 133.775551 202.960691 
L 133.927809 205.200982 
L 134.232325 205.200982 
L 134.384583 200.9016 
L 134.536841 200.9016 
L 134.689099 198.875455 
L 135.298131 198.875455 
L 135.450389 196.503382 
L 135.602647 190.309636 
L 135.754905 195.037309 
L 135.907163 195.037309 
L 136.059421 201.461673 
L 136.211679 196.3716 
L 136.363937 196.3716 
L 136.516194 202.8948 
L 136.972968 202.8948 
L 137.125226 208.857927 
L 137.582 208.857927 
L 138.191032 222.134945 
L 138.800064 222.134945 
L 138.952322 221.344255 
L 139.10458 221.344255 
L 139.256838 223.3704 
L 139.409095 218.033236 
L 139.561353 218.033236 
L 139.713611 216.1224 
L 139.865869 210.785236 
L 140.018127 213.157309 
L 140.170385 219.351055 
L 140.322643 219.351055 
L 140.474901 213.173782 
L 140.627159 213.173782 
L 140.779417 218.263855 
L 140.931675 215.545855 
L 141.083933 210.768764 
L 143.063286 210.768764 
L 143.367802 204.5256 
L 143.52006 209.615673 
L 143.824576 209.615673 
L 143.976834 214.952836 
L 144.129092 210.422836 
L 144.28135 212.333673 
L 144.433608 217.670836 
L 144.585866 217.670836 
L 144.890382 206.732945 
L 145.04264 212.910218 
L 145.347155 212.910218 
L 145.499413 209.434473 
L 145.651671 214.211564 
L 147.326509 214.211564 
L 147.478767 208.577891 
L 147.631025 208.577891 
L 147.93554 214.821055 
L 148.544572 214.821055 
L 148.69683 219.351055 
L 148.849088 219.351055 
L 149.001346 213.058473 
L 149.153604 213.058473 
L 149.45812 223.996364 
L 149.914894 223.996364 
L 150.067152 223.749273 
L 150.371668 223.749273 
L 150.523926 219.680509 
L 150.676184 219.680509 
L 150.828441 216.369491 
L 151.894247 216.369491 
L 152.046505 222.003164 
L 152.198763 215.545855 
L 152.351021 215.545855 
L 152.503279 210.356945 
L 153.416827 210.356945 
L 153.569085 216.649527 
L 154.025858 209.006182 
L 154.330374 209.006182 
L 154.482632 207.325964 
L 154.63489 213.7668 
L 154.787148 213.7668 
L 154.939406 211.114691 
L 155.091664 215.183455 
L 155.243922 215.183455 
L 155.39618 213.948 
L 156.614243 213.948 
L 156.766501 220.405309 
L 156.918759 220.405309 
L 157.071017 225.594218 
L 158.136823 225.594218 
L 158.593597 233.237564 
L 158.898113 233.237564 
L 159.050371 234.917782 
L 159.354887 234.917782 
L 159.507144 237.569891 
L 159.81166 237.569891 
L 159.963918 242.116364 
L 164.074883 242.116364 
L 164.227141 236.993345 
L 165.292946 236.993345 
L 165.445204 231.277309 
L 166.206494 231.277309 
L 166.358752 226.862618 
L 166.663268 226.862618 
L 166.815526 221.723127 
L 168.03359 221.723127 
L 168.185847 217.094291 
L 168.642621 217.094291 
L 168.794879 222.217309 
L 169.251653 222.217309 
L 169.403911 219.384 
L 169.708427 219.384 
L 169.860685 214.326873 
L 170.012943 216.270655 
L 170.469717 216.270655 
L 170.621975 214.195091 
L 170.774233 214.195091 
L 170.926491 218.609782 
L 171.231006 218.609782 
L 171.383264 219.186327 
L 172.296812 219.186327 
L 172.44907 213.898582 
L 172.601328 213.898582 
L 172.753586 215.611745 
L 173.21036 215.611745 
L 173.362618 209.862764 
L 173.667134 209.862764 
L 173.819392 203.833745 
L 173.971649 202.614764 
L 174.123907 202.614764 
L 174.276165 196.931673 
L 174.580681 205.761055 
L 174.885197 205.761055 
L 175.189713 196.503382 
L 175.494229 196.503382 
L 175.646487 193.604182 
L 175.798745 193.604182 
L 175.951003 198.167127 
L 176.103261 198.167127 
L 176.255519 194.180727 
L 176.712293 194.180727 
L 176.86455 189.947236 
L 177.016808 189.436582 
L 177.169066 183.901745 
L 177.321324 186.817418 
L 177.778098 186.817418 
L 177.930356 192.5664 
L 178.082614 188.151709 
L 178.234872 188.151709 
L 178.539388 198.233018 
L 178.691646 198.233018 
L 178.843904 203.916109 
L 179.14842 203.916109 
L 179.300678 201.198109 
L 179.452936 201.198109 
L 179.605194 207.2436 
L 179.757451 207.869564 
L 180.061967 207.869564 
L 180.214225 210.768764 
L 180.366483 205.135091 
L 180.518741 205.135091 
L 180.670999 200.061491 
L 180.823257 204.047891 
L 180.975515 204.047891 
L 181.127773 201.593455 
L 181.280031 201.593455 
L 181.889063 217.160182 
L 182.498095 217.160182 
L 182.650352 221.574873 
L 182.80261 221.574873 
L 182.954868 215.0352 
L 183.716158 215.0352 
L 183.868416 217.7532 
L 184.172932 217.7532 
L 184.32519 222.414982 
L 184.781964 222.414982 
L 184.934222 222.975055 
L 185.08648 222.975055 
L 185.238738 228.048655 
L 185.390995 226.368436 
L 185.695511 219.054545 
L 186.913575 219.054545 
L 187.065833 214.392764 
L 187.218091 214.392764 
L 187.370349 209.319164 
L 187.522607 215.858836 
L 187.827123 215.858836 
L 188.283896 201.016909 
L 189.349702 201.016909 
L 189.50196 202.515927 
L 189.654218 196.717527 
L 189.806476 196.717527 
L 189.958734 198.397745 
L 190.26325 204.410291 
L 191.481313 204.410291 
L 191.633571 209.072073 
L 191.785829 209.072073 
L 191.938087 214.145673 
L 192.394861 214.145673 
L 192.699377 225.165927 
L 192.851635 222.612655 
L 193.156151 222.612655 
L 193.308409 216.583636 
L 193.612925 216.583636 
L 193.765183 211.23 
L 193.917441 211.23 
L 194.374214 220.602982 
L 194.67873 220.602982 
L 194.830988 224.358764 
L 195.896794 224.358764 
L 196.049052 220.421782 
L 196.658084 220.421782 
L 197.114857 210.620509 
L 197.267115 210.620509 
L 197.419373 216.995455 
L 197.723889 216.995455 
L 197.876147 223.024473 
L 198.028405 223.024473 
L 198.180663 220.734764 
L 198.332921 226.0884 
L 198.485179 220.174691 
L 198.789695 220.174691 
L 199.246469 204.575018 
L 200.464532 204.575018 
L 200.61679 208.512 
L 200.921306 200.555673 
L 201.073564 200.555673 
L 201.225822 196.355127 
L 201.682596 206.1564 
L 201.987112 206.1564 
L 202.13937 200.802764 
L 202.443886 200.802764 
L 202.596144 194.856109 
L 202.748401 197.145818 
L 202.900659 197.145818 
L 203.052917 203.059527 
L 203.357433 203.059527 
L 203.509691 208.775564 
L 203.661949 206.551745 
L 203.814207 212.399564 
L 203.966465 206.980036 
L 204.880013 206.980036 
L 205.032271 202.7136 
L 205.184529 202.7136 
L 205.489045 210.669927 
L 205.641302 210.669927 
L 205.79356 214.870473 
L 205.945818 210.043964 
L 206.55485 210.043964 
L 206.707108 215.3976 
L 206.859366 215.3976 
L 207.011624 209.912182 
L 207.163882 215.858836 
L 208.07743 215.858836 
L 208.229688 222.118473 
L 208.381946 222.118473 
L 208.534203 227.538 
L 209.143235 227.538 
L 209.295493 225.676582 
L 209.447751 225.676582 
L 209.600009 229.943018 
L 210.056783 229.943018 
L 210.209041 224.0952 
L 210.361299 224.0952 
L 210.513557 224.836473 
L 210.665815 219.136909 
L 211.274847 219.136909 
L 211.427104 213.635018 
L 211.579362 219.120436 
L 212.036136 219.120436 
L 212.49291 204.229091 
L 212.797426 204.229091 
L 212.949684 198.776618 
L 213.710974 198.776618 
L 213.863232 200.638036 
L 214.320005 200.638036 
L 214.472263 194.971418 
L 214.624521 194.971418 
L 214.776779 200.819236 
L 214.929037 200.819236 
L 215.233553 207.507164 
L 215.385811 203.718436 
L 215.690327 203.718436 
L 215.842585 197.294073 
L 215.994843 198.809564 
L 216.603875 198.809564 
L 217.060649 213.700909 
L 217.212906 213.700909 
L 217.365164 209.796873 
L 217.517422 215.249345 
L 218.126454 215.249345 
L 218.43097 208.116655 
L 218.887744 208.116655 
L 219.040002 210.472255 
L 219.19226 205.464545 
L 219.649034 205.464545 
L 219.95355 212.350145 
L 220.105807 205.794 
L 220.258065 205.794 
L 220.410323 205.629273 
L 220.867097 199.452 
L 221.019355 199.452 
L 221.171613 195.498545 
L 221.628387 195.498545 
L 221.780645 188.991818 
L 221.932903 192.895855 
L 222.694193 192.895855 
L 222.998708 200.028545 
L 223.455482 200.028545 
L 223.912256 208.347273 
L 224.521288 208.347273 
L 224.673546 214.903418 
L 224.825804 214.903418 
L 225.13032 227.834509 
L 225.587094 221.5584 
L 225.739351 220.405309 
L 225.891609 213.816218 
L 226.196125 213.816218 
L 226.348383 216.913091 
L 226.957415 216.913091 
L 227.109673 213.569127 
L 227.261931 207.161236 
L 227.718705 207.161236 
L 227.870963 205.233927 
L 228.175479 205.233927 
L 228.327737 201.758182 
L 228.479995 201.758182 
L 228.632252 197.985927 
L 229.241284 197.985927 
L 229.393542 194.5596 
L 229.698058 194.5596 
L 230.002574 204.657382 
L 230.154832 204.657382 
L 230.611606 216.353018 
L 230.763864 216.353018 
L 230.916122 215.858836 
L 231.525153 215.858836 
L 231.677411 219.2028 
L 231.829669 225.610691 
L 232.134185 225.610691 
L 232.590959 210.093382 
L 232.743217 210.093382 
L 232.895475 213.569127 
L 233.047733 213.569127 
L 233.199991 217.341382 
L 233.352249 217.341382 
L 233.504507 211.823018 
L 233.656765 211.823018 
L 233.809023 206.947091 
L 233.961281 210.373418 
L 234.570312 210.373418 
L 234.72257 207.573055 
L 235.331602 207.573055 
L 235.48386 211.477091 
L 235.788376 211.477091 
L 236.092892 203.6196 
L 236.549666 203.6196 
L 236.701924 198.793091 
L 236.854182 202.581818 
L 237.00644 201.395782 
L 237.158698 204.624436 
L 237.310955 200.143855 
L 237.919987 200.143855 
L 238.072245 205.662218 
L 238.224503 205.662218 
L 238.376761 204.871527 
L 238.529019 202.746545 
L 238.681277 198.661309 
L 239.138051 198.661309 
L 239.290309 201.461673 
L 240.051599 201.461673 
L 240.203856 196.140982 
L 240.356114 196.140982 
L 240.66063 203.998473 
L 241.117404 203.998473 
L 241.878694 224.918836 
L 242.335468 224.918836 
L 242.487726 222.859745 
L 242.639984 217.011927 
L 242.792242 217.011927 
L 242.9445 216.731891 
L 243.096757 218.856873 
L 243.249015 222.942109 
L 244.619337 222.942109 
L 244.771595 228.2628 
L 245.228369 228.2628 
L 245.685143 217.473164 
L 246.446432 217.473164 
L 246.750948 210.011018 
L 246.903206 210.011018 
L 247.055464 212.070109 
L 247.207722 217.917927 
L 247.35998 217.917927 
L 247.512238 218.889818 
L 247.816754 218.889818 
L 247.969012 213.536182 
L 248.273528 213.536182 
L 248.425786 209.846291 
L 249.796107 209.846291 
L 250.100623 217.291964 
L 251.014171 217.291964 
L 251.318687 224.754109 
L 251.623203 224.754109 
L 251.927718 214.590436 
L 252.079976 219.5652 
L 252.232234 219.5652 
L 252.384492 216.731891 
L 252.53675 222.085527 
L 252.841266 222.085527 
L 252.993524 225.775418 
L 253.145782 225.775418 
L 253.29804 221.723127 
L 254.516104 221.723127 
L 254.668361 225.067091 
L 256.190941 225.067091 
L 256.495457 235.230764 
L 256.647715 235.230764 
L 256.799973 230.750182 
L 256.952231 233.583491 
L 257.71352 233.583491 
L 257.865778 232.018582 
L 258.170294 232.018582 
L 258.322552 227.686255 
L 258.47481 227.686255 
L 258.627068 224.918836 
L 259.540616 224.918836 
L 259.692874 222.629127 
L 259.99739 213.602073 
L 260.149648 213.602073 
L 260.301905 207.671891 
L 260.910937 207.671891 
L 261.063195 201.659345 
L 261.215453 201.659345 
L 261.367711 206.139927 
L 261.672227 206.139927 
L 261.824485 202.795964 
L 262.281259 202.795964 
L 262.433517 208.413164 
L 262.738033 208.413164 
L 262.890291 212.745491 
L 263.042549 212.745491 
L 263.194806 215.512909 
L 264.108354 215.512909 
L 264.260612 217.802618 
L 264.41287 216.633055 
L 264.565128 220.257055 
L 264.717386 213.997418 
L 264.869644 219.9276 
L 265.021902 216.929564 
L 265.17416 216.929564 
L 265.326418 210.5052 
L 265.478676 210.5052 
L 265.630934 216.517745 
L 266.239965 216.517745 
L 266.392223 219.861709 
L 267.610287 219.861709 
L 268.067061 208.709673 
L 268.676093 208.709673 
L 268.828351 205.200982 
L 268.980608 211.7736 
L 269.132866 211.7736 
L 269.285124 218.033236 
L 269.437382 218.033236 
L 269.58964 214.804582 
L 269.741898 214.804582 
L 269.894156 221.228945 
L 270.046414 214.969309 
L 270.35093 214.969309 
L 270.503188 211.542982 
L 270.807704 211.542982 
L 270.959962 207.457745 
L 271.568994 207.457745 
L 271.721252 202.598291 
L 272.178025 202.598291 
L 272.482541 207.754255 
L 272.634799 210.472255 
L 272.787057 210.472255 
L 272.939315 203.932582 
L 273.091573 203.932582 
L 273.243831 198.611891 
L 273.396089 202.120582 
L 274.005121 202.120582 
L 274.157379 208.347273 
L 274.461895 208.347273 
L 274.614153 214.606909 
L 274.76641 209.615673 
L 274.918668 209.615673 
L 275.070926 213.042 
L 275.375442 213.042 
L 275.5277 217.127236 
L 275.679958 217.127236 
L 275.832216 213.5856 
L 276.136732 213.5856 
L 276.28899 218.445055 
L 276.898022 218.445055 
L 277.05028 215.743527 
L 277.202538 210.884073 
L 277.354796 210.884073 
L 277.507054 214.442182 
L 277.659311 214.442182 
L 277.811569 219.762873 
L 278.725117 219.762873 
L 278.877375 218.099127 
L 279.181891 218.099127 
L 279.334149 223.090364 
L 279.486407 223.090364 
L 279.638665 216.880145 
L 280.247697 216.880145 
L 280.399955 220.421782 
L 281.46576 220.421782 
L 281.770276 231.260836 
L 281.922534 231.260836 
L 282.074792 234.2424 
L 282.22705 229.5312 
L 282.683824 229.5312 
L 282.836082 224.358764 
L 283.292856 224.358764 
L 283.445113 226.022509 
L 284.054145 226.022509 
L 284.206403 232.232727 
L 284.815435 232.232727 
L 284.967693 228.163964 
L 285.424467 228.163964 
L 285.576725 222.727964 
L 286.185757 222.727964 
L 286.338014 217.357855 
L 286.64253 217.357855 
L 286.794788 222.069055 
L 286.947046 220.257055 
L 287.251562 220.257055 
L 287.40382 225.429491 
L 287.556078 220.322945 
L 288.16511 220.322945 
L 288.469626 213.371455 
L 288.621884 210.949964 
L 289.078658 210.949964 
L 289.383173 201.0828 
L 289.535431 205.151564 
L 289.992205 205.151564 
L 290.144463 204.459709 
L 290.296721 204.459709 
L 290.448979 201.132218 
L 290.753495 201.132218 
L 290.905753 206.502327 
L 291.058011 200.242691 
L 291.362527 200.242691 
L 291.514785 197.804727 
L 291.971559 197.804727 
L 292.123816 202.911273 
L 292.732848 202.911273 
L 293.037364 209.862764 
L 293.189622 212.284255 
L 293.494138 212.284255 
L 293.646396 208.577891 
L 293.950912 218.445055 
L 294.10317 212.004218 
L 294.255428 212.004218 
L 294.407686 207.638945 
L 294.559944 207.638945 
L 294.712202 213.7668 
L 294.86446 213.7668 
L 295.016717 217.094291 
L 295.473491 217.094291 
L 295.625749 223.353927 
L 295.930265 223.353927 
L 296.082523 227.603891 
L 296.387039 227.603891 
L 296.539297 222.777382 
L 296.996071 222.777382 
L 297.300587 212.432509 
L 297.452845 212.432509 
L 297.605103 209.516836 
L 297.909618 209.516836 
L 298.061876 204.558545 
L 298.214134 208.264909 
L 298.51865 208.264909 
L 298.670908 214.705745 
L 298.823166 214.705745 
L 298.975424 219.071018 
L 299.127682 215.776473 
L 299.888972 215.776473 
L 300.04123 209.286218 
L 300.193488 209.286218 
L 300.345746 205.925782 
L 300.498004 205.925782 
L 300.650261 200.358 
L 300.954777 200.358 
L 301.107035 205.184509 
L 301.259293 205.184509 
L 301.411551 199.666145 
L 301.563809 199.666145 
L 301.716067 205.711636 
L 301.868325 204.871527 
L 302.020583 204.871527 
L 302.172841 207.7872 
L 302.477357 207.7872 
L 302.629615 212.745491 
L 302.781873 212.745491 
L 302.934131 206.634109 
L 303.543162 206.634109 
L 303.69542 209.928655 
L 303.847678 209.928655 
L 303.999936 203.833745 
L 304.45671 203.833745 
L 304.608968 210.324 
L 304.761226 205.448073 
L 304.913484 208.808509 
L 305.065742 208.808509 
L 305.218 214.376291 
L 305.522516 214.376291 
L 305.674774 210.834655 
L 305.827032 210.834655 
L 305.97929 216.353018 
L 306.131548 216.353018 
L 306.283806 214.656327 
L 306.436063 219.795818 
L 306.588321 219.795818 
L 306.740579 213.750327 
L 306.892837 213.750327 
L 307.045095 208.479055 
L 307.349611 208.479055 
L 307.501869 214.590436 
L 307.806385 205.464545 
L 308.415417 205.464545 
L 308.567675 207.622473 
L 309.024449 207.622473 
L 309.176707 204.970364 
L 309.328964 209.846291 
L 309.481222 204.690327 
L 309.63348 204.690327 
L 309.785738 201.247527 
L 310.090254 201.247527 
L 310.242512 204.789164 
L 310.547028 204.789164 
L 310.699286 200.555673 
L 310.851544 202.252364 
L 311.15606 202.252364 
L 311.308318 208.297855 
L 311.460576 208.297855 
L 311.612834 213.569127 
L 311.765092 213.569127 
L 311.91735 208.495527 
L 312.069608 208.495527 
L 312.221865 208.989709 
L 312.374123 212.399564 
L 312.526381 212.399564 
L 312.678639 206.650582 
L 312.983155 206.650582 
L 313.135413 207.078873 
L 313.592187 207.078873 
L 313.744445 209.730982 
L 313.896703 209.730982 
L 314.048961 209.615673 
L 314.201219 206.930618 
L 314.353477 210.373418 
L 315.114766 210.373418 
L 315.267024 214.606909 
L 315.419282 214.606909 
L 315.57154 209.516836 
L 315.723798 209.516836 
L 315.876056 203.323091 
L 316.33283 203.323091 
L 316.485088 202.779491 
L 316.637346 196.272764 
L 316.789604 195.482073 
L 317.09412 195.482073 
L 317.246378 201.231055 
L 317.550894 201.231055 
L 317.703152 204.739745 
L 318.007667 204.739745 
L 318.159925 198.150655 
L 318.312183 198.150655 
L 318.464441 191.759236 
L 318.616699 190.836764 
L 318.768957 193.521818 
L 319.225731 193.521818 
L 319.377989 189.156545 
L 319.682505 189.156545 
L 319.834763 183.934691 
L 319.987021 183.934691 
L 320.139279 189.024764 
L 320.291537 189.024764 
L 320.443795 195.218509 
L 320.900568 195.218509 
L 321.357342 213.354982 
L 322.575406 213.354982 
L 322.727664 219.944073 
L 322.879922 216.105927 
L 323.184438 228.691091 
L 323.336696 222.414982 
L 323.793469 222.414982 
L 323.945727 226.780255 
L 324.250243 226.780255 
L 324.402501 232.002109 
L 324.554759 229.1688 
L 324.859275 229.1688 
L 325.011533 226.187236 
L 325.316049 226.187236 
L 325.468307 223.337455 
L 326.534113 223.337455 
L 326.68637 218.873345 
L 326.990886 218.873345 
L 327.143144 215.661164 
L 327.295402 215.661164 
L 327.44766 219.499309 
L 327.752176 219.499309 
L 327.904434 219.235745 
L 328.056692 219.235745 
L 328.513466 203.669018 
L 328.665724 203.669018 
L 328.817982 201.428727 
L 328.97024 196.569273 
L 329.122498 199.402582 
L 329.427014 189.831927 
L 329.579271 192.813491 
L 329.883787 192.813491 
L 330.036045 195.663273 
L 330.949593 195.663273 
L 331.101851 193.571236 
L 331.254109 198.035345 
L 331.558625 198.035345 
L 331.710883 201.247527 
L 332.319915 201.247527 
L 332.472172 207.7872 
L 332.62443 207.7872 
L 333.081204 223.353927 
L 333.233462 218.576836 
L 333.38572 220.817127 
L 333.537978 219.103964 
L 333.690236 219.103964 
L 333.994752 226.944982 
L 334.14701 226.944982 
L 334.299268 223.106836 
L 335.365073 223.106836 
L 335.517331 217.555527 
L 335.669589 219.647564 
L 336.430879 219.647564 
L 336.887653 206.436436 
L 337.192169 206.436436 
L 337.344427 200.605091 
L 337.648943 200.605091 
L 337.801201 205.382182 
L 337.953459 205.382182 
L 338.105716 206.5188 
L 338.410232 206.5188 
L 338.56249 208.248436 
L 338.714748 208.248436 
L 338.867006 212.086582 
L 339.780554 212.086582 
L 339.932812 209.418 
L 340.08507 214.969309 
L 340.541844 214.969309 
L 340.84636 202.235891 
L 340.998617 202.235891 
L 341.303133 209.072073 
L 341.455391 212.300727 
L 341.759907 212.300727 
L 341.912165 218.132073 
L 342.064423 218.132073 
L 342.216681 215.891782 
L 342.368939 210.307527 
L 342.521197 210.307527 
L 342.673455 215.743527 
L 342.825713 213.750327 
L 343.282487 213.750327 
L 343.434745 209.796873 
L 344.348292 209.796873 
L 344.50055 210.669927 
L 345.109582 210.669927 
L 345.414098 219.038073 
L 345.718614 219.038073 
L 345.870872 222.184364 
L 346.479904 222.184364 
L 346.784419 215.677636 
L 346.936677 221.261891 
L 347.241193 221.261891 
L 347.393451 223.255091 
L 347.545709 223.255091 
L 347.697967 219.680509 
L 348.002483 219.581673 
L 348.154741 213.124364 
L 348.916031 213.124364 
L 349.068289 214.919891 
L 349.220547 208.413164 
L 349.372805 208.413164 
L 349.525063 206.123455 
L 349.829578 206.123455 
L 349.981836 210.488727 
L 350.43861 210.488727 
L 350.590868 204.262036 
L 351.047642 204.262036 
L 351.1999 206.798836 
L 351.352158 213.009055 
L 352.113448 213.009055 
L 352.265706 216.583636 
L 352.417964 216.583636 
L 352.874737 227.093236 
L 353.636027 227.093236 
L 353.788285 233.599964 
L 353.940543 233.599964 
L 354.092801 235.889673 
L 354.245059 231.853855 
L 354.397317 231.853855 
L 354.549575 227.060291 
L 354.701833 227.060291 
L 354.854091 223.403345 
L 355.006349 223.403345 
L 355.158607 229.630036 
L 355.767638 229.630036 
L 355.919896 225.149455 
L 356.681186 225.149455 
L 356.833444 222.942109 
L 357.13796 222.942109 
L 357.290218 219.2028 
L 357.442476 219.2028 
L 357.594734 217.489636 
L 358.051508 217.489636 
L 358.356023 211.823018 
L 358.660539 211.823018 
L 358.812797 215.858836 
L 358.965055 215.858836 
L 359.117313 220.6524 
L 359.269571 220.6524 
L 359.421829 224.309345 
L 360.030861 224.309345 
L 360.183119 218.510945 
L 360.335377 218.510945 
L 360.487635 222.991527 
L 360.639893 222.991527 
L 360.944409 215.924727 
L 361.096667 215.924727 
L 361.248924 212.646655 
L 361.401182 214.854 
L 361.705698 214.854 
L 361.857956 218.593309 
L 362.162472 210.8676 
L 362.619246 210.8676 
L 362.923762 216.534218 
L 363.07602 210.851127 
L 363.532794 210.851127 
L 363.685052 206.090509 
L 363.83731 206.090509 
L 363.989568 200.983964 
L 364.446341 200.983964 
L 364.598599 196.981091 
L 364.750857 202.779491 
L 365.055373 196.882255 
L 365.207631 190.672036 
L 365.512147 197.738836 
L 365.664405 192.698182 
L 365.816663 195.976255 
L 366.425695 195.976255 
L 366.577953 201.428727 
L 366.730211 202.301782 
L 366.882469 202.301782 
L 367.034726 199.880291 
L 367.4915 199.880291 
L 367.643758 200.160327 
L 367.948274 200.160327 
L 368.100532 194.427818 
L 368.25279 196.091564 
L 368.405048 191.067382 
L 368.557306 196.173927 
L 368.709564 189.601309 
L 368.861822 189.601309 
L 369.01408 183.456982 
L 369.166338 187.459855 
L 369.166338 187.459855 
" style="fill:none;stroke:#1f77b4;stroke-linecap:square;stroke-width:1.5;"/>
   </g>
   <g id="line2d_20">
    <path clip-path="url(#p74a11290d5)" d="M 69.218182 242.116364 
L 69.37044 242.116364 
L 69.522698 84.966545 
L 69.674956 242.116364 
L 69.979472 135.373091 
L 70.13173 242.116364 
L 70.740761 242.116364 
L 70.893019 53.833091 
L 71.045277 242.116364 
L 72.415599 242.116364 
L 72.567857 46.420364 
L 72.720115 242.116364 
L 72.872373 242.116364 
L 73.02463 74.094545 
L 73.176888 242.116364 
L 73.329146 242.116364 
L 73.481404 66.187636 
L 73.633662 242.116364 
L 74.242694 242.116364 
L 74.394952 78.542182 
L 74.54721 242.116364 
L 74.851726 242.116364 
L 75.003984 99.297818 
L 75.156242 178.366909 
L 75.3085 70.141091 
L 75.460758 242.116364 
L 75.613016 67.176 
L 75.765274 242.116364 
L 75.917531 242.116364 
L 76.069789 50.373818 
L 76.222047 242.116364 
L 76.678821 242.116364 
L 76.831079 62.728364 
L 77.135595 242.116364 
L 77.896885 242.116364 
L 78.049143 156.128727 
L 78.201401 242.116364 
L 78.353659 129.442909 
L 78.505917 242.116364 
L 80.789786 242.116364 
L 80.942044 191.215636 
L 81.094302 242.116364 
L 81.398818 242.116364 
L 81.551076 109.181455 
L 81.703333 242.116364 
L 81.855591 242.116364 
L 82.007849 181.826182 
L 82.160107 242.116364 
L 82.312365 45.432 
L 82.616881 242.116364 
L 82.769139 51.856364 
L 82.921397 242.116364 
L 83.073655 111.158182 
L 83.225913 242.116364 
L 83.378171 165.024 
L 83.530429 242.116364 
L 83.682687 116.1 
L 83.834945 242.116364 
L 84.443977 242.116364 
L 84.596234 151.186909 
L 84.748492 242.116364 
L 85.053008 242.116364 
L 85.205266 160.082182 
L 85.357524 242.116364 
L 85.509782 242.116364 
L 85.66204 97.815273 
L 85.814298 95.838545 
L 85.966556 242.116364 
L 87.18462 242.116364 
L 87.336878 76.565455 
L 87.489135 242.116364 
L 87.641393 163.541455 
L 87.793651 242.116364 
L 88.098167 242.116364 
L 88.250425 127.960364 
L 88.402683 242.116364 
L 88.554941 123.512727 
L 88.707199 242.116364 
L 89.011715 242.116364 
L 89.163973 48.891273 
L 89.468489 242.116364 
L 89.620747 79.530545 
L 89.773005 242.116364 
L 91.295584 242.116364 
L 91.447842 76.071273 
L 91.6001 242.116364 
L 91.752358 59.763273 
L 91.904616 242.116364 
L 92.056874 170.954182 
L 92.209132 242.116364 
L 92.513648 101.768727 
L 92.665906 242.116364 
L 93.12268 242.116364 
L 93.274937 154.646182 
L 93.427195 242.116364 
L 94.493001 242.116364 
L 94.645259 59.269091 
L 94.797517 242.116364 
L 96.015581 242.116364 
L 96.167838 155.140364 
L 96.320096 162.553091 
L 96.472354 57.292364 
L 96.624612 73.600364 
L 96.77687 242.116364 
L 96.929128 71.129455 
L 97.081386 242.116364 
L 99.974287 242.116364 
L 100.126545 179.355273 
L 100.278803 242.116364 
L 100.583319 242.116364 
L 100.735577 80.518909 
L 100.887835 242.116364 
L 101.496867 242.116364 
L 101.649125 76.565455 
L 101.801383 242.116364 
L 103.019446 242.116364 
L 103.171704 95.838545 
L 103.323962 242.116364 
L 104.542026 242.116364 
L 104.694284 51.856364 
L 104.846541 242.116364 
L 105.151057 242.116364 
L 105.303315 181.826182 
L 105.455573 242.116364 
L 105.912347 242.116364 
L 106.064605 115.605818 
L 106.216863 242.116364 
L 106.369121 50.868 
L 106.521379 242.116364 
L 106.673637 242.116364 
L 106.825895 122.030182 
L 106.978153 126.477818 
L 107.130411 113.134909 
L 107.282669 242.116364 
L 107.8917 242.116364 
L 108.043958 119.065091 
L 108.196216 242.116364 
L 108.65299 242.116364 
L 108.805248 172.930909 
L 108.957506 242.116364 
L 109.109764 242.116364 
L 109.262022 167.494909 
L 109.41428 242.116364 
L 109.566538 242.116364 
L 109.718796 152.669455 
L 109.871054 242.116364 
L 112.763955 242.116364 
L 112.916213 82.495636 
L 113.068471 81.013091 
L 113.220729 121.041818 
L 113.372986 242.116364 
L 113.525244 242.116364 
L 113.677502 115.111636 
L 113.982018 242.116364 
L 114.743308 242.116364 
L 114.895566 92.873455 
L 115.047824 242.116364 
L 115.35234 242.116364 
L 115.504598 92.873455 
L 115.656856 242.116364 
L 116.11363 242.116364 
L 116.265887 45.432 
L 116.570403 242.116364 
L 117.027177 242.116364 
L 117.179435 97.321091 
L 117.331693 242.116364 
L 117.483951 242.116364 
L 117.636209 92.873455 
L 117.788467 242.116364 
L 119.311046 242.116364 
L 119.463304 126.477818 
L 119.615562 242.116364 
L 119.920078 242.116364 
L 120.224594 97.321091 
L 120.376852 242.116364 
L 121.2904 242.116364 
L 121.442658 126.972 
L 121.594916 242.116364 
L 121.747174 124.501091 
L 121.899432 242.116364 
L 122.051689 171.942545 
L 122.203947 242.116364 
L 122.812979 242.116364 
L 122.965237 155.634545 
L 123.269753 181.332 
L 123.422011 242.116364 
L 123.878785 242.116364 
L 124.031043 81.013091 
L 124.183301 242.116364 
L 125.553622 242.116364 
L 125.70588 53.338909 
L 125.858138 242.116364 
L 127.989749 242.116364 
L 128.142007 73.600364 
L 128.294265 242.116364 
L 128.446523 56.304 
L 128.751039 242.116364 
L 128.903297 242.116364 
L 129.055555 183.802909 
L 129.207813 242.116364 
L 129.360071 82.495636 
L 129.512329 242.116364 
L 130.88265 242.116364 
L 131.034908 149.210182 
L 131.187166 242.116364 
L 131.491682 54.327273 
L 131.64394 242.116364 
L 133.318778 242.116364 
L 133.471036 111.158182 
L 133.623293 242.116364 
L 133.775551 174.907636 
L 133.927809 242.116364 
L 135.450389 242.116364 
L 135.602647 100.286182 
L 135.754905 242.116364 
L 135.907163 49.385455 
L 136.059421 242.116364 
L 136.211679 242.116364 
L 136.363937 46.420364 
L 136.516194 242.116364 
L 136.82071 242.116364 
L 136.972968 63.222545 
L 137.125226 242.116364 
L 137.429742 242.116364 
L 137.734258 77.553818 
L 137.886516 242.116364 
L 138.038774 122.030182 
L 138.191032 242.116364 
L 138.647806 242.116364 
L 138.800064 113.134909 
L 138.952322 242.116364 
L 139.10458 181.332 
L 139.256838 242.116364 
L 139.713611 242.116364 
L 140.018127 56.304 
L 140.170385 242.116364 
L 140.474901 242.116364 
L 140.627159 89.414182 
L 140.779417 242.116364 
L 143.215544 242.116364 
L 143.367802 89.414182 
L 143.52006 242.116364 
L 143.672318 242.116364 
L 143.824576 82.001455 
L 143.976834 242.116364 
L 144.129092 184.791273 
L 144.28135 82.001455 
L 144.433608 242.116364 
L 144.738124 242.116364 
L 144.890382 56.798182 
L 145.04264 242.116364 
L 145.194897 242.116364 
L 145.499413 98.803636 
L 145.651671 242.116364 
L 147.478767 242.116364 
L 147.631025 148.716 
L 147.783283 148.221818 
L 147.93554 242.116364 
L 148.392314 242.116364 
L 148.544572 106.216364 
L 148.69683 242.116364 
L 149.001346 242.116364 
L 149.153604 91.390909 
L 149.305862 64.705091 
L 149.45812 242.116364 
L 149.762636 242.116364 
L 149.914894 56.304 
L 150.067152 242.116364 
L 151.741989 242.116364 
L 151.894247 73.106182 
L 152.046505 242.116364 
L 153.264569 242.116364 
L 153.416827 53.338909 
L 153.569085 242.116364 
L 154.330374 242.116364 
L 154.482632 48.891273 
L 154.63489 242.116364 
L 154.787148 242.116364 
L 154.939406 120.053455 
L 155.091664 242.116364 
L 155.243922 142.785818 
L 155.39618 242.116364 
L 156.461986 242.116364 
L 156.614243 48.397091 
L 156.766501 242.116364 
L 156.918759 86.449091 
L 157.071017 242.116364 
L 157.984565 242.116364 
L 158.289081 111.652364 
L 158.441339 242.116364 
L 158.745855 242.116364 
L 158.898113 191.709818 
L 159.050371 242.116364 
L 159.202629 242.116364 
L 159.354887 162.553091 
L 159.507144 242.116364 
L 159.659402 242.116364 
L 159.81166 105.722182 
L 159.963918 242.116364 
L 168.490363 242.116364 
L 168.642621 88.425818 
L 168.794879 242.116364 
L 169.708427 242.116364 
L 169.860685 70.635273 
L 170.012943 242.116364 
L 170.621975 242.116364 
L 170.774233 109.675636 
L 170.926491 242.116364 
L 171.078748 242.116364 
L 171.231006 87.931636 
L 171.383264 242.116364 
L 172.44907 242.116364 
L 172.601328 103.251273 
L 172.753586 242.116364 
L 173.667134 242.116364 
L 173.819392 157.117091 
L 173.971649 242.116364 
L 174.123907 242.116364 
L 174.276165 90.402545 
L 174.428423 128.948727 
L 174.580681 242.116364 
L 174.885197 242.116364 
L 175.037455 179.849455 
L 175.189713 242.116364 
L 175.646487 242.116364 
L 175.798745 105.228 
L 175.951003 242.116364 
L 176.712293 242.116364 
L 176.86455 83.484 
L 177.016808 242.116364 
L 177.169066 154.646182 
L 177.321324 242.116364 
L 177.62584 242.116364 
L 177.778098 69.646909 
L 177.930356 242.116364 
L 178.082614 242.116364 
L 178.234872 61.245818 
L 178.38713 120.547636 
L 178.539388 242.116364 
L 178.691646 71.623636 
L 178.843904 242.116364 
L 179.300678 242.116364 
L 179.452936 60.751636 
L 179.605194 83.484 
L 179.757451 242.116364 
L 179.909709 242.116364 
L 180.061967 155.140364 
L 180.214225 242.116364 
L 180.518741 242.116364 
L 180.670999 122.524364 
L 180.823257 242.116364 
L 181.127773 242.116364 
L 181.432289 68.164364 
L 181.584547 76.071273 
L 181.736805 242.116364 
L 182.345837 242.116364 
L 182.498095 109.675636 
L 182.650352 242.116364 
L 183.5639 242.116364 
L 183.716158 160.576364 
L 183.868416 242.116364 
L 184.020674 242.116364 
L 184.172932 102.262909 
L 184.32519 242.116364 
L 184.629706 242.116364 
L 184.781964 73.106182 
L 184.934222 242.116364 
L 185.08648 89.908364 
L 185.238738 242.116364 
L 185.390995 242.116364 
L 185.543253 168.483273 
L 185.695511 242.116364 
L 187.218091 242.116364 
L 187.370349 45.926182 
L 187.522607 242.116364 
L 189.197444 242.116364 
L 189.349702 89.908364 
L 189.50196 242.116364 
L 189.654218 242.116364 
L 190.110992 62.728364 
L 190.26325 242.116364 
L 191.329055 242.116364 
L 191.481313 102.262909 
L 191.633571 242.116364 
L 191.785829 89.908364 
L 191.938087 242.116364 
L 192.242603 242.116364 
L 192.547119 50.373818 
L 193.003893 242.116364 
L 193.765183 242.116364 
L 194.069698 68.164364 
L 194.221956 242.116364 
L 194.526472 242.116364 
L 194.67873 129.442909 
L 194.830988 242.116364 
L 197.114857 242.116364 
L 197.267115 50.868 
L 197.419373 242.116364 
L 197.571631 242.116364 
L 197.723889 61.245818 
L 197.876147 242.116364 
L 198.028405 242.116364 
L 198.180663 81.507273 
L 198.332921 242.116364 
L 200.312274 242.116364 
L 200.464532 124.006909 
L 200.61679 242.116364 
L 201.073564 242.116364 
L 201.225822 137.349818 
L 201.37808 121.536 
L 201.834854 242.116364 
L 202.443886 242.116364 
L 202.596144 173.425091 
L 202.748401 242.116364 
L 202.900659 64.705091 
L 203.052917 242.116364 
L 203.205175 242.116364 
L 203.357433 70.635273 
L 203.509691 121.041818 
L 203.661949 66.681818 
L 203.814207 242.116364 
L 205.032271 242.116364 
L 205.184529 87.931636 
L 205.489045 242.116364 
L 205.641302 116.1 
L 205.79356 242.116364 
L 206.402592 242.116364 
L 206.55485 81.507273 
L 206.707108 242.116364 
L 206.859366 242.116364 
L 207.011624 63.716727 
L 207.163882 242.116364 
L 207.925172 242.116364 
L 208.07743 54.327273 
L 208.229688 242.116364 
L 208.381946 79.530545 
L 208.534203 242.116364 
L 209.295493 242.116364 
L 209.447751 114.123273 
L 209.600009 242.116364 
L 210.209041 242.116364 
L 210.361299 97.321091 
L 210.513557 242.116364 
L 211.274847 242.116364 
L 211.427104 77.553818 
L 211.579362 242.116364 
L 213.558716 242.116364 
L 213.710974 186.273818 
L 213.863232 242.116364 
L 214.472263 242.116364 
L 214.624521 66.681818 
L 214.776779 242.116364 
L 215.081295 71.129455 
L 215.233553 242.116364 
L 215.690327 242.116364 
L 215.842585 77.059636 
L 215.994843 242.116364 
L 216.451617 242.116364 
L 216.603875 47.902909 
L 216.756133 174.413455 
L 216.908391 57.292364 
L 217.060649 242.116364 
L 217.212906 242.116364 
L 217.365164 78.542182 
L 217.517422 242.116364 
L 218.735486 242.116364 
L 218.887744 72.117818 
L 219.040002 242.116364 
L 219.496776 242.116364 
L 219.649034 149.210182 
L 219.801292 128.454545 
L 219.95355 242.116364 
L 220.105807 242.116364 
L 220.258065 49.385455 
L 220.714839 242.116364 
L 221.628387 242.116364 
L 221.780645 124.995273 
L 221.932903 242.116364 
L 222.541935 242.116364 
L 222.694193 132.408 
L 222.84645 137.844 
L 222.998708 242.116364 
L 223.303224 242.116364 
L 223.60774 91.885091 
L 223.759998 242.116364 
L 224.36903 242.116364 
L 224.521288 45.432 
L 224.673546 242.116364 
L 224.825804 44.443636 
L 224.978062 51.856364 
L 225.434836 242.116364 
L 225.587094 123.512727 
L 225.739351 242.116364 
L 226.043867 242.116364 
L 226.196125 46.914545 
L 226.348383 242.116364 
L 229.5458 242.116364 
L 229.698058 45.432 
L 230.002574 242.116364 
L 230.30709 44.443636 
L 230.459348 242.116364 
L 230.611606 242.116364 
L 230.763864 139.820727 
L 230.916122 242.116364 
L 231.372896 242.116364 
L 231.677411 49.879636 
L 231.829669 242.116364 
L 232.134185 242.116364 
L 232.286443 184.297091 
L 232.438701 242.116364 
L 232.590959 242.116364 
L 232.743217 137.844 
L 232.895475 242.116364 
L 233.047733 128.948727 
L 233.199991 242.116364 
L 233.656765 242.116364 
L 233.809023 139.326545 
L 233.961281 242.116364 
L 235.179344 242.116364 
L 235.331602 124.995273 
L 235.48386 242.116364 
L 236.549666 242.116364 
L 236.701924 49.879636 
L 236.854182 107.698909 
L 237.00644 45.432 
L 237.158698 242.116364 
L 237.767729 242.116364 
L 237.919987 76.565455 
L 238.072245 242.116364 
L 238.224503 95.838545 
L 238.376761 242.116364 
L 238.985793 242.116364 
L 239.138051 158.105455 
L 239.290309 242.116364 
L 240.203856 242.116364 
L 240.356114 115.605818 
L 240.508372 132.902182 
L 240.66063 242.116364 
L 240.965146 242.116364 
L 241.117404 97.321091 
L 241.269662 163.541455 
L 241.42192 72.117818 
L 241.574178 142.291636 
L 241.726436 107.698909 
L 241.878694 242.116364 
L 242.639984 242.116364 
L 242.792242 72.117818 
L 242.9445 178.366909 
L 243.096757 119.559273 
L 243.249015 242.116364 
L 244.467079 242.116364 
L 244.619337 82.495636 
L 244.771595 242.116364 
L 246.750948 242.116364 
L 246.903206 180.343636 
L 247.055464 66.681818 
L 247.207722 242.116364 
L 247.35998 63.716727 
L 247.512238 242.116364 
L 249.643849 242.116364 
L 249.948365 45.926182 
L 250.100623 242.116364 
L 250.861913 242.116364 
L 251.014171 82.989818 
L 251.318687 242.116364 
L 251.77546 242.116364 
L 251.927718 92.873455 
L 252.079976 242.116364 
L 252.232234 242.116364 
L 252.384492 81.507273 
L 252.53675 242.116364 
L 252.689008 242.116364 
L 252.841266 131.419636 
L 252.993524 242.116364 
L 254.363846 242.116364 
L 254.516104 141.797455 
L 254.668361 242.116364 
L 256.038683 242.116364 
L 256.190941 74.588727 
L 256.343199 104.733818 
L 256.495457 242.116364 
L 256.647715 242.116364 
L 256.799973 157.117091 
L 256.952231 242.116364 
L 257.561262 242.116364 
L 257.71352 120.547636 
L 257.865778 242.116364 
L 261.063195 242.116364 
L 261.215453 107.698909 
L 261.367711 242.116364 
L 262.129001 242.116364 
L 262.281259 73.600364 
L 262.433517 242.116364 
L 262.585775 242.116364 
L 262.738033 112.146545 
L 262.890291 242.116364 
L 263.042549 159.093818 
L 263.194806 242.116364 
L 263.956096 242.116364 
L 264.260612 80.024727 
L 264.41287 133.396364 
L 264.565128 242.116364 
L 264.717386 64.210909 
L 264.869644 242.116364 
L 265.326418 242.116364 
L 265.478676 61.74 
L 265.630934 242.116364 
L 266.087707 242.116364 
L 266.239965 141.797455 
L 266.392223 242.116364 
L 268.676093 242.116364 
L 268.828351 44.937818 
L 268.980608 242.116364 
L 269.132866 54.327273 
L 269.285124 242.116364 
L 269.437382 152.175273 
L 269.58964 242.116364 
L 269.741898 49.385455 
L 269.894156 242.116364 
L 272.025767 242.116364 
L 272.178025 128.948727 
L 272.330283 102.262909 
L 272.787057 242.116364 
L 273.091573 242.116364 
L 273.243831 136.855636 
L 273.396089 242.116364 
L 273.852863 242.116364 
L 274.005121 55.315636 
L 274.157379 242.116364 
L 274.309637 242.116364 
L 274.461895 54.327273 
L 274.614153 242.116364 
L 274.76641 242.116364 
L 274.918668 139.326545 
L 275.070926 242.116364 
L 275.223184 242.116364 
L 275.375442 119.559273 
L 275.5277 242.116364 
L 275.984474 242.116364 
L 276.136732 96.332727 
L 276.28899 242.116364 
L 276.745764 242.116364 
L 276.898022 143.774182 
L 277.05028 242.116364 
L 277.202538 242.116364 
L 277.354796 45.926182 
L 277.507054 242.116364 
L 277.659311 82.495636 
L 277.811569 242.116364 
L 279.029633 242.116364 
L 279.181891 92.379273 
L 279.334149 242.116364 
L 280.095439 242.116364 
L 280.247697 135.867273 
L 280.399955 242.116364 
L 281.313502 242.116364 
L 281.46576 62.728364 
L 281.618018 96.332727 
L 281.770276 242.116364 
L 281.922534 152.669455 
L 282.074792 242.116364 
L 283.140598 242.116364 
L 283.292856 192.204 
L 283.445113 242.116364 
L 283.901887 242.116364 
L 284.054145 55.809818 
L 284.206403 242.116364 
L 286.490272 242.116364 
L 286.64253 100.780364 
L 286.794788 242.116364 
L 287.099304 242.116364 
L 287.251562 86.943273 
L 287.40382 242.116364 
L 289.230915 242.116364 
L 289.383173 120.053455 
L 289.535431 242.116364 
L 289.839947 242.116364 
L 289.992205 79.036364 
L 290.144463 242.116364 
L 290.601237 242.116364 
L 290.753495 81.013091 
L 290.905753 242.116364 
L 291.210269 242.116364 
L 291.362527 187.756364 
L 291.514785 242.116364 
L 291.819301 242.116364 
L 291.971559 88.92 
L 292.123816 242.116364 
L 292.58059 242.116364 
L 292.732848 114.123273 
L 292.885106 161.564727 
L 293.037364 169.471636 
L 293.189622 242.116364 
L 293.494138 242.116364 
L 293.646396 44.443636 
L 293.950912 242.116364 
L 294.407686 242.116364 
L 294.559944 58.280727 
L 294.712202 242.116364 
L 294.86446 142.291636 
L 295.016717 242.116364 
L 295.321233 242.116364 
L 295.473491 54.327273 
L 295.625749 242.116364 
L 295.778007 242.116364 
L 295.930265 114.617455 
L 296.082523 242.116364 
L 297.909618 242.116364 
L 298.061876 130.925455 
L 298.214134 242.116364 
L 298.366392 242.116364 
L 298.51865 48.891273 
L 298.670908 242.116364 
L 298.823166 111.158182 
L 298.975424 242.116364 
L 300.802519 242.116364 
L 300.954777 97.321091 
L 301.107035 242.116364 
L 301.411551 242.116364 
L 301.563809 60.751636 
L 301.716067 113.134909 
L 301.868325 242.116364 
L 302.020583 154.646182 
L 302.172841 242.116364 
L 302.325099 242.116364 
L 302.477357 93.367636 
L 302.629615 242.116364 
L 303.390905 242.116364 
L 303.543162 143.28 
L 303.69542 242.116364 
L 304.304452 242.116364 
L 304.45671 47.408727 
L 304.608968 242.116364 
L 304.761226 141.303273 
L 304.913484 242.116364 
L 305.065742 75.082909 
L 305.218 242.116364 
L 305.674774 242.116364 
L 305.827032 76.565455 
L 305.97929 242.116364 
L 306.131548 242.116364 
L 306.283806 87.931636 
L 306.436063 242.116364 
L 307.197353 242.116364 
L 307.349611 58.774909 
L 307.501869 242.116364 
L 308.263159 242.116364 
L 308.415417 59.269091 
L 308.567675 242.116364 
L 309.024449 242.116364 
L 309.176707 95.838545 
L 309.328964 242.116364 
L 309.937996 242.116364 
L 310.090254 135.867273 
L 310.242512 242.116364 
L 310.547028 242.116364 
L 310.699286 191.215636 
L 310.851544 242.116364 
L 311.003802 242.116364 
L 311.15606 60.751636 
L 311.308318 242.116364 
L 311.460576 83.978182 
L 311.612834 242.116364 
L 311.91735 242.116364 
L 312.069608 70.635273 
L 312.526381 242.116364 
L 312.830897 242.116364 
L 312.983155 124.006909 
L 313.135413 242.116364 
L 313.439929 242.116364 
L 313.592187 162.553091 
L 313.744445 242.116364 
L 313.896703 87.437455 
L 314.048961 242.116364 
L 314.201219 138.832364 
L 314.353477 242.116364 
L 314.962509 242.116364 
L 315.114766 115.111636 
L 315.267024 242.116364 
L 316.180572 242.116364 
L 316.33283 89.908364 
L 316.485088 242.116364 
L 316.637346 85.460727 
L 316.789604 242.116364 
L 316.941862 242.116364 
L 317.09412 69.646909 
L 317.246378 242.116364 
L 317.398636 242.116364 
L 317.550894 136.855636 
L 317.703152 242.116364 
L 318.312183 242.116364 
L 318.464441 83.978182 
L 318.768957 242.116364 
L 319.834763 242.116364 
L 319.987021 89.414182 
L 320.139279 242.116364 
L 320.291537 56.304 
L 320.443795 242.116364 
L 320.748311 242.116364 
L 320.900568 73.600364 
L 321.052826 46.914545 
L 321.205084 61.74 
L 321.357342 242.116364 
L 322.423148 242.116364 
L 322.575406 44.443636 
L 322.727664 242.116364 
L 322.879922 50.373818 
L 323.03218 56.304 
L 323.184438 242.116364 
L 323.641212 242.116364 
L 323.793469 111.158182 
L 323.945727 242.116364 
L 324.097985 242.116364 
L 324.250243 85.460727 
L 324.402501 242.116364 
L 327.143144 242.116364 
L 327.295402 126.972 
L 327.44766 242.116364 
L 327.599918 242.116364 
L 327.752176 53.833091 
L 327.904434 242.116364 
L 328.817982 242.116364 
L 328.97024 157.117091 
L 329.122498 242.116364 
L 329.274756 242.116364 
L 329.427014 152.669455 
L 329.579271 242.116364 
L 329.731529 242.116364 
L 329.883787 156.622909 
L 330.036045 242.116364 
L 330.949593 242.116364 
L 331.101851 108.193091 
L 331.254109 242.116364 
L 331.406367 242.116364 
L 331.558625 145.750909 
L 331.710883 242.116364 
L 332.167657 242.116364 
L 332.319915 45.926182 
L 332.472172 242.116364 
L 332.62443 66.187636 
L 332.776688 60.751636 
L 333.081204 242.116364 
L 333.38572 96.332727 
L 333.537978 242.116364 
L 333.690236 88.92 
L 333.842494 108.193091 
L 333.994752 242.116364 
L 335.365073 242.116364 
L 335.517331 179.355273 
L 335.669589 242.116364 
L 337.496685 242.116364 
L 337.648943 98.803636 
L 337.801201 242.116364 
L 337.953459 44.937818 
L 338.105716 242.116364 
L 338.257974 242.116364 
L 338.410232 190.227273 
L 338.56249 242.116364 
L 338.714748 126.972 
L 338.867006 242.116364 
L 339.780554 242.116364 
L 339.932812 75.577091 
L 340.08507 242.116364 
L 340.84636 242.116364 
L 340.998617 88.425818 
L 341.150875 96.332727 
L 341.303133 145.256727 
L 341.455391 242.116364 
L 341.607649 242.116364 
L 341.759907 67.176 
L 341.912165 242.116364 
L 342.368939 242.116364 
L 342.521197 79.036364 
L 342.673455 242.116364 
L 344.196034 242.116364 
L 344.348292 162.058909 
L 344.50055 242.116364 
L 344.957324 242.116364 
L 345.109582 56.304 
L 345.26184 45.926182 
L 345.414098 242.116364 
L 345.566356 242.116364 
L 345.718614 147.727636 
L 345.870872 242.116364 
L 346.479904 242.116364 
L 346.784419 74.588727 
L 346.936677 242.116364 
L 347.088935 242.116364 
L 347.241193 182.320364 
L 347.393451 242.116364 
L 347.697967 242.116364 
L 347.850225 123.512727 
L 348.002483 242.116364 
L 348.763773 242.116364 
L 348.916031 188.250545 
L 349.068289 242.116364 
L 349.67732 242.116364 
L 349.829578 111.158182 
L 349.981836 242.116364 
L 350.895384 242.116364 
L 351.1999 55.809818 
L 351.352158 242.116364 
L 351.96119 242.116364 
L 352.113448 134.878909 
L 352.265706 242.116364 
L 352.570221 48.397091 
L 352.722479 242.116364 
L 353.483769 242.116364 
L 353.636027 46.914545 
L 353.788285 242.116364 
L 353.940543 173.425091 
L 354.092801 242.116364 
L 354.854091 242.116364 
L 355.006349 55.315636 
L 355.158607 242.116364 
L 358.508281 242.116364 
L 358.660539 121.041818 
L 358.812797 242.116364 
L 358.965055 98.309455 
L 359.117313 242.116364 
L 359.269571 132.408 
L 359.421829 242.116364 
L 360.183119 242.116364 
L 360.335377 107.698909 
L 360.487635 242.116364 
L 361.096667 242.116364 
L 361.248924 175.896 
L 361.401182 242.116364 
L 361.55344 242.116364 
L 361.705698 129.937091 
L 361.857956 242.116364 
L 362.010214 190.721455 
L 362.162472 242.116364 
L 362.466988 242.116364 
L 362.619246 159.588 
L 362.771504 154.646182 
L 362.923762 242.116364 
L 364.446341 242.116364 
L 364.598599 68.164364 
L 364.750857 242.116364 
L 365.055373 242.116364 
L 365.207631 134.878909 
L 365.359889 137.349818 
L 365.512147 242.116364 
L 365.664405 143.774182 
L 365.816663 242.116364 
L 366.273437 242.116364 
L 366.425695 78.542182 
L 366.577953 122.524364 
L 366.730211 242.116364 
L 367.339242 242.116364 
L 367.4915 71.623636 
L 367.643758 242.116364 
L 367.948274 242.116364 
L 368.100532 99.297818 
L 368.25279 242.116364 
L 368.405048 88.92 
L 368.557306 242.116364 
L 368.861822 242.116364 
L 369.01408 122.030182 
L 369.166338 242.116364 
L 369.318596 157.611273 
L 369.470854 149.704364 
L 369.623112 55.809818 
L 369.77537 242.116364 
L 369.927627 242.116364 
L 370.079885 90.896727 
L 370.232143 242.116364 
L 370.993433 242.116364 
L 371.145691 148.716 
L 371.297949 242.116364 
L 371.450207 169.471636 
L 371.602465 242.116364 
L 371.906981 242.116364 
L 372.059239 80.024727 
L 372.211497 242.116364 
L 372.363755 242.116364 
L 372.516013 70.141091 
L 372.66827 149.210182 
L 372.820528 91.390909 
L 372.972786 242.116364 
L 373.125044 44.937818 
L 373.277302 242.116364 
L 373.42956 57.786545 
L 373.581818 242.116364 
L 373.581818 242.116364 
" style="fill:none;stroke:#0000ff;stroke-linecap:square;stroke-opacity:0.2;stroke-width:1.5;"/>
   </g>
   <g id="line2d_21">
    <path clip-path="url(#p74a11290d5)" d="M 54 54.327273 
L 388.8 54.327273 
" style="fill:none;stroke:#1f77b4;stroke-linecap:square;stroke-width:1.5;"/>
   </g>
   <g id="patch_3">
    <path d="M 54 252 
L 54 34.56 
" style="fill:none;stroke:#000000;stroke-linecap:square;stroke-linejoin:miter;stroke-width:0.8;"/>
   </g>
   <g id="patch_4">
    <path d="M 388.8 252 
L 388.8 34.56 
" style="fill:none;stroke:#000000;stroke-linecap:square;stroke-linejoin:miter;stroke-width:0.8;"/>
   </g>
   <g id="patch_5">
    <path d="M 54 252 
L 388.8 252 
" style="fill:none;stroke:#000000;stroke-linecap:square;stroke-linejoin:miter;stroke-width:0.8;"/>
   </g>
   <g id="patch_6">
    <path d="M 54 34.56 
L 388.8 34.56 
" style="fill:none;stroke:#000000;stroke-linecap:square;stroke-linejoin:miter;stroke-width:0.8;"/>
   </g>
  </g>
 </g>
 <defs>
  <clipPath id="p74a11290d5">
   <rect height="217.44" width="334.8" x="54" y="34.56"/>
  </clipPath>
 </defs>
</svg>
