<?xml version="1.0" encoding="utf-8" standalone="no"?>
<!DOCTYPE svg PUBLIC "-//W3C//DTD SVG 1.1//EN"
  "http://www.w3.org/Graphics/SVG/1.1/DTD/svg11.dtd">
<!-- Created with matplotlib (http://matplotlib.org/) -->
<svg height="288pt" version="1.1" viewBox="0 0 432 288" width="432pt" xmlns="http://www.w3.org/2000/svg" xmlns:xlink="http://www.w3.org/1999/xlink">
 <defs>
  <style type="text/css">
*{stroke-linecap:butt;stroke-linejoin:round;}
  </style>
 </defs>
 <g id="figure_1">
  <g id="patch_1">
   <path d="M 0 288 
L 432 288 
L 432 0 
L 0 0 
z
" style="fill:#ffffff;"/>
  </g>
  <g id="axes_1">
   <g id="patch_2">
    <path d="M 54 252 
L 388.8 252 
L 388.8 34.56 
L 54 34.56 
z
" style="fill:#ffffff;"/>
   </g>
   <g id="matplotlib.axis_1">
    <g id="xtick_1">
     <g id="line2d_1">
      <defs>
       <path d="M 0 0 
L 0 3.5 
" id="m0581887367" style="stroke:#000000;stroke-width:0.8;"/>
      </defs>
      <g>
       <use style="stroke:#000000;stroke-width:0.8;" x="69.218182" xlink:href="#m0581887367" y="252"/>
      </g>
     </g>
     <g id="text_1">
      <!-- 0 -->
      <defs>
       <path d="M 31.78125 66.40625 
Q 24.171875 66.40625 20.328125 58.90625 
Q 16.5 51.421875 16.5 36.375 
Q 16.5 21.390625 20.328125 13.890625 
Q 24.171875 6.390625 31.78125 6.390625 
Q 39.453125 6.390625 43.28125 13.890625 
Q 47.125 21.390625 47.125 36.375 
Q 47.125 51.421875 43.28125 58.90625 
Q 39.453125 66.40625 31.78125 66.40625 
z
M 31.78125 74.21875 
Q 44.046875 74.21875 50.515625 64.515625 
Q 56.984375 54.828125 56.984375 36.375 
Q 56.984375 17.96875 50.515625 8.265625 
Q 44.046875 -1.421875 31.78125 -1.421875 
Q 19.53125 -1.421875 13.0625 8.265625 
Q 6.59375 17.96875 6.59375 36.375 
Q 6.59375 54.828125 13.0625 64.515625 
Q 19.53125 74.21875 31.78125 74.21875 
z
" id="DejaVuSans-30"/>
      </defs>
      <g transform="translate(66.036932 266.598437)scale(0.1 -0.1)">
       <use xlink:href="#DejaVuSans-30"/>
      </g>
     </g>
    </g>
    <g id="xtick_2">
     <g id="line2d_2">
      <g>
       <use style="stroke:#000000;stroke-width:0.8;" x="130.151843" xlink:href="#m0581887367" y="252"/>
      </g>
     </g>
     <g id="text_2">
      <!-- 200 -->
      <defs>
       <path d="M 19.1875 8.296875 
L 53.609375 8.296875 
L 53.609375 0 
L 7.328125 0 
L 7.328125 8.296875 
Q 12.9375 14.109375 22.625 23.890625 
Q 32.328125 33.6875 34.8125 36.53125 
Q 39.546875 41.84375 41.421875 45.53125 
Q 43.3125 49.21875 43.3125 52.78125 
Q 43.3125 58.59375 39.234375 62.25 
Q 35.15625 65.921875 28.609375 65.921875 
Q 23.96875 65.921875 18.8125 64.3125 
Q 13.671875 62.703125 7.8125 59.421875 
L 7.8125 69.390625 
Q 13.765625 71.78125 18.9375 73 
Q 24.125 74.21875 28.421875 74.21875 
Q 39.75 74.21875 46.484375 68.546875 
Q 53.21875 62.890625 53.21875 53.421875 
Q 53.21875 48.921875 51.53125 44.890625 
Q 49.859375 40.875 45.40625 35.40625 
Q 44.1875 33.984375 37.640625 27.21875 
Q 31.109375 20.453125 19.1875 8.296875 
z
" id="DejaVuSans-32"/>
      </defs>
      <g transform="translate(120.608093 266.598437)scale(0.1 -0.1)">
       <use xlink:href="#DejaVuSans-32"/>
       <use x="63.623047" xlink:href="#DejaVuSans-30"/>
       <use x="127.246094" xlink:href="#DejaVuSans-30"/>
      </g>
     </g>
    </g>
    <g id="xtick_3">
     <g id="line2d_3">
      <g>
       <use style="stroke:#000000;stroke-width:0.8;" x="191.085504" xlink:href="#m0581887367" y="252"/>
      </g>
     </g>
     <g id="text_3">
      <!-- 400 -->
      <defs>
       <path d="M 37.796875 64.3125 
L 12.890625 25.390625 
L 37.796875 25.390625 
z
M 35.203125 72.90625 
L 47.609375 72.90625 
L 47.609375 25.390625 
L 58.015625 25.390625 
L 58.015625 17.1875 
L 47.609375 17.1875 
L 47.609375 0 
L 37.796875 0 
L 37.796875 17.1875 
L 4.890625 17.1875 
L 4.890625 26.703125 
z
" id="DejaVuSans-34"/>
      </defs>
      <g transform="translate(181.541754 266.598437)scale(0.1 -0.1)">
       <use xlink:href="#DejaVuSans-34"/>
       <use x="63.623047" xlink:href="#DejaVuSans-30"/>
       <use x="127.246094" xlink:href="#DejaVuSans-30"/>
      </g>
     </g>
    </g>
    <g id="xtick_4">
     <g id="line2d_4">
      <g>
       <use style="stroke:#000000;stroke-width:0.8;" x="252.019165" xlink:href="#m0581887367" y="252"/>
      </g>
     </g>
     <g id="text_4">
      <!-- 600 -->
      <defs>
       <path d="M 33.015625 40.375 
Q 26.375 40.375 22.484375 35.828125 
Q 18.609375 31.296875 18.609375 23.390625 
Q 18.609375 15.53125 22.484375 10.953125 
Q 26.375 6.390625 33.015625 6.390625 
Q 39.65625 6.390625 43.53125 10.953125 
Q 47.40625 15.53125 47.40625 23.390625 
Q 47.40625 31.296875 43.53125 35.828125 
Q 39.65625 40.375 33.015625 40.375 
z
M 52.59375 71.296875 
L 52.59375 62.3125 
Q 48.875 64.0625 45.09375 64.984375 
Q 41.3125 65.921875 37.59375 65.921875 
Q 27.828125 65.921875 22.671875 59.328125 
Q 17.53125 52.734375 16.796875 39.40625 
Q 19.671875 43.65625 24.015625 45.921875 
Q 28.375 48.1875 33.59375 48.1875 
Q 44.578125 48.1875 50.953125 41.515625 
Q 57.328125 34.859375 57.328125 23.390625 
Q 57.328125 12.15625 50.6875 5.359375 
Q 44.046875 -1.421875 33.015625 -1.421875 
Q 20.359375 -1.421875 13.671875 8.265625 
Q 6.984375 17.96875 6.984375 36.375 
Q 6.984375 53.65625 15.1875 63.9375 
Q 23.390625 74.21875 37.203125 74.21875 
Q 40.921875 74.21875 44.703125 73.484375 
Q 48.484375 72.75 52.59375 71.296875 
z
" id="DejaVuSans-36"/>
      </defs>
      <g transform="translate(242.475415 266.598437)scale(0.1 -0.1)">
       <use xlink:href="#DejaVuSans-36"/>
       <use x="63.623047" xlink:href="#DejaVuSans-30"/>
       <use x="127.246094" xlink:href="#DejaVuSans-30"/>
      </g>
     </g>
    </g>
    <g id="xtick_5">
     <g id="line2d_5">
      <g>
       <use style="stroke:#000000;stroke-width:0.8;" x="312.952826" xlink:href="#m0581887367" y="252"/>
      </g>
     </g>
     <g id="text_5">
      <!-- 800 -->
      <defs>
       <path d="M 31.78125 34.625 
Q 24.75 34.625 20.71875 30.859375 
Q 16.703125 27.09375 16.703125 20.515625 
Q 16.703125 13.921875 20.71875 10.15625 
Q 24.75 6.390625 31.78125 6.390625 
Q 38.8125 6.390625 42.859375 10.171875 
Q 46.921875 13.96875 46.921875 20.515625 
Q 46.921875 27.09375 42.890625 30.859375 
Q 38.875 34.625 31.78125 34.625 
z
M 21.921875 38.8125 
Q 15.578125 40.375 12.03125 44.71875 
Q 8.5 49.078125 8.5 55.328125 
Q 8.5 64.0625 14.71875 69.140625 
Q 20.953125 74.21875 31.78125 74.21875 
Q 42.671875 74.21875 48.875 69.140625 
Q 55.078125 64.0625 55.078125 55.328125 
Q 55.078125 49.078125 51.53125 44.71875 
Q 48 40.375 41.703125 38.8125 
Q 48.828125 37.15625 52.796875 32.3125 
Q 56.78125 27.484375 56.78125 20.515625 
Q 56.78125 9.90625 50.3125 4.234375 
Q 43.84375 -1.421875 31.78125 -1.421875 
Q 19.734375 -1.421875 13.25 4.234375 
Q 6.78125 9.90625 6.78125 20.515625 
Q 6.78125 27.484375 10.78125 32.3125 
Q 14.796875 37.15625 21.921875 38.8125 
z
M 18.3125 54.390625 
Q 18.3125 48.734375 21.84375 45.5625 
Q 25.390625 42.390625 31.78125 42.390625 
Q 38.140625 42.390625 41.71875 45.5625 
Q 45.3125 48.734375 45.3125 54.390625 
Q 45.3125 60.0625 41.71875 63.234375 
Q 38.140625 66.40625 31.78125 66.40625 
Q 25.390625 66.40625 21.84375 63.234375 
Q 18.3125 60.0625 18.3125 54.390625 
z
" id="DejaVuSans-38"/>
      </defs>
      <g transform="translate(303.409076 266.598437)scale(0.1 -0.1)">
       <use xlink:href="#DejaVuSans-38"/>
       <use x="63.623047" xlink:href="#DejaVuSans-30"/>
       <use x="127.246094" xlink:href="#DejaVuSans-30"/>
      </g>
     </g>
    </g>
    <g id="xtick_6">
     <g id="line2d_6">
      <g>
       <use style="stroke:#000000;stroke-width:0.8;" x="373.886486" xlink:href="#m0581887367" y="252"/>
      </g>
     </g>
     <g id="text_6">
      <!-- 1000 -->
      <defs>
       <path d="M 12.40625 8.296875 
L 28.515625 8.296875 
L 28.515625 63.921875 
L 10.984375 60.40625 
L 10.984375 69.390625 
L 28.421875 72.90625 
L 38.28125 72.90625 
L 38.28125 8.296875 
L 54.390625 8.296875 
L 54.390625 0 
L 12.40625 0 
z
" id="DejaVuSans-31"/>
      </defs>
      <g transform="translate(361.161486 266.598437)scale(0.1 -0.1)">
       <use xlink:href="#DejaVuSans-31"/>
       <use x="63.623047" xlink:href="#DejaVuSans-30"/>
       <use x="127.246094" xlink:href="#DejaVuSans-30"/>
       <use x="190.869141" xlink:href="#DejaVuSans-30"/>
      </g>
     </g>
    </g>
   </g>
   <g id="matplotlib.axis_2">
    <g id="ytick_1">
     <g id="line2d_7">
      <defs>
       <path d="M 0 0 
L -3.5 0 
" id="m3b156373ae" style="stroke:#000000;stroke-width:0.8;"/>
      </defs>
      <g>
       <use style="stroke:#000000;stroke-width:0.8;" x="54" xlink:href="#m3b156373ae" y="252"/>
      </g>
     </g>
     <g id="text_7">
      <!-- 0 -->
      <g transform="translate(40.6375 255.799219)scale(0.1 -0.1)">
       <use xlink:href="#DejaVuSans-30"/>
      </g>
     </g>
    </g>
    <g id="ytick_2">
     <g id="line2d_8">
      <g>
       <use style="stroke:#000000;stroke-width:0.8;" x="54" xlink:href="#m3b156373ae" y="215.76"/>
      </g>
     </g>
     <g id="text_8">
      <!-- 50 -->
      <defs>
       <path d="M 10.796875 72.90625 
L 49.515625 72.90625 
L 49.515625 64.59375 
L 19.828125 64.59375 
L 19.828125 46.734375 
Q 21.96875 47.46875 24.109375 47.828125 
Q 26.265625 48.1875 28.421875 48.1875 
Q 40.625 48.1875 47.75 41.5 
Q 54.890625 34.8125 54.890625 23.390625 
Q 54.890625 11.625 47.5625 5.09375 
Q 40.234375 -1.421875 26.90625 -1.421875 
Q 22.3125 -1.421875 17.546875 -0.640625 
Q 12.796875 0.140625 7.71875 1.703125 
L 7.71875 11.625 
Q 12.109375 9.234375 16.796875 8.0625 
Q 21.484375 6.890625 26.703125 6.890625 
Q 35.15625 6.890625 40.078125 11.328125 
Q 45.015625 15.765625 45.015625 23.390625 
Q 45.015625 31 40.078125 35.4375 
Q 35.15625 39.890625 26.703125 39.890625 
Q 22.75 39.890625 18.8125 39.015625 
Q 14.890625 38.140625 10.796875 36.28125 
z
" id="DejaVuSans-35"/>
      </defs>
      <g transform="translate(34.275 219.559219)scale(0.1 -0.1)">
       <use xlink:href="#DejaVuSans-35"/>
       <use x="63.623047" xlink:href="#DejaVuSans-30"/>
      </g>
     </g>
    </g>
    <g id="ytick_3">
     <g id="line2d_9">
      <g>
       <use style="stroke:#000000;stroke-width:0.8;" x="54" xlink:href="#m3b156373ae" y="179.52"/>
      </g>
     </g>
     <g id="text_9">
      <!-- 100 -->
      <g transform="translate(27.9125 183.319219)scale(0.1 -0.1)">
       <use xlink:href="#DejaVuSans-31"/>
       <use x="63.623047" xlink:href="#DejaVuSans-30"/>
       <use x="127.246094" xlink:href="#DejaVuSans-30"/>
      </g>
     </g>
    </g>
    <g id="ytick_4">
     <g id="line2d_10">
      <g>
       <use style="stroke:#000000;stroke-width:0.8;" x="54" xlink:href="#m3b156373ae" y="143.28"/>
      </g>
     </g>
     <g id="text_10">
      <!-- 150 -->
      <g transform="translate(27.9125 147.079219)scale(0.1 -0.1)">
       <use xlink:href="#DejaVuSans-31"/>
       <use x="63.623047" xlink:href="#DejaVuSans-35"/>
       <use x="127.246094" xlink:href="#DejaVuSans-30"/>
      </g>
     </g>
    </g>
    <g id="ytick_5">
     <g id="line2d_11">
      <g>
       <use style="stroke:#000000;stroke-width:0.8;" x="54" xlink:href="#m3b156373ae" y="107.04"/>
      </g>
     </g>
     <g id="text_11">
      <!-- 200 -->
      <g transform="translate(27.9125 110.839219)scale(0.1 -0.1)">
       <use xlink:href="#DejaVuSans-32"/>
       <use x="63.623047" xlink:href="#DejaVuSans-30"/>
       <use x="127.246094" xlink:href="#DejaVuSans-30"/>
      </g>
     </g>
    </g>
    <g id="ytick_6">
     <g id="line2d_12">
      <g>
       <use style="stroke:#000000;stroke-width:0.8;" x="54" xlink:href="#m3b156373ae" y="70.8"/>
      </g>
     </g>
     <g id="text_12">
      <!-- 250 -->
      <g transform="translate(27.9125 74.599219)scale(0.1 -0.1)">
       <use xlink:href="#DejaVuSans-32"/>
       <use x="63.623047" xlink:href="#DejaVuSans-35"/>
       <use x="127.246094" xlink:href="#DejaVuSans-30"/>
      </g>
     </g>
    </g>
    <g id="ytick_7">
     <g id="line2d_13">
      <g>
       <use style="stroke:#000000;stroke-width:0.8;" x="54" xlink:href="#m3b156373ae" y="34.56"/>
      </g>
     </g>
     <g id="text_13">
      <!-- 300 -->
      <defs>
       <path d="M 40.578125 39.3125 
Q 47.65625 37.796875 51.625 33 
Q 55.609375 28.21875 55.609375 21.1875 
Q 55.609375 10.40625 48.1875 4.484375 
Q 40.765625 -1.421875 27.09375 -1.421875 
Q 22.515625 -1.421875 17.65625 -0.515625 
Q 12.796875 0.390625 7.625 2.203125 
L 7.625 11.71875 
Q 11.71875 9.328125 16.59375 8.109375 
Q 21.484375 6.890625 26.8125 6.890625 
Q 36.078125 6.890625 40.9375 10.546875 
Q 45.796875 14.203125 45.796875 21.1875 
Q 45.796875 27.640625 41.28125 31.265625 
Q 36.765625 34.90625 28.71875 34.90625 
L 20.21875 34.90625 
L 20.21875 43.015625 
L 29.109375 43.015625 
Q 36.375 43.015625 40.234375 45.921875 
Q 44.09375 48.828125 44.09375 54.296875 
Q 44.09375 59.90625 40.109375 62.90625 
Q 36.140625 65.921875 28.71875 65.921875 
Q 24.65625 65.921875 20.015625 65.03125 
Q 15.375 64.15625 9.8125 62.3125 
L 9.8125 71.09375 
Q 15.4375 72.65625 20.34375 73.4375 
Q 25.25 74.21875 29.59375 74.21875 
Q 40.828125 74.21875 47.359375 69.109375 
Q 53.90625 64.015625 53.90625 55.328125 
Q 53.90625 49.265625 50.4375 45.09375 
Q 46.96875 40.921875 40.578125 39.3125 
z
" id="DejaVuSans-33"/>
      </defs>
      <g transform="translate(27.9125 38.359219)scale(0.1 -0.1)">
       <use xlink:href="#DejaVuSans-33"/>
       <use x="63.623047" xlink:href="#DejaVuSans-30"/>
       <use x="127.246094" xlink:href="#DejaVuSans-30"/>
      </g>
     </g>
    </g>
   </g>
   <g id="line2d_14">
    <path clip-path="url(#pca1c38cf99)" d="M 69.218182 252 
L 70.741523 252 
L 71.046192 247.6512 
L 71.35086 252 
L 71.655528 250.5504 
L 71.960197 252 
L 74.702211 252 
L 75.00688 251.2752 
L 75.311548 252 
L 75.616216 252 
L 75.920885 251.2752 
L 76.225553 252 
L 76.530221 248.376 
L 76.834889 252 
L 77.139558 252 
L 77.444226 250.5504 
L 77.748894 250.5504 
L 78.053563 252 
L 78.662899 252 
L 78.967568 251.2752 
L 79.272236 251.2752 
L 79.576904 252 
L 79.881572 250.5504 
L 80.186241 252 
L 80.490909 250.5504 
L 80.795577 252 
L 81.404914 252 
L 81.709582 251.2752 
L 82.014251 252 
L 84.146929 252 
L 84.451597 251.2752 
L 84.756265 252 
L 87.49828 252 
L 87.802948 251.2752 
L 88.107617 252 
L 88.716953 252 
L 89.021622 251.2752 
L 89.32629 252 
L 89.630958 249.1008 
L 89.935627 252 
L 90.240295 252 
L 90.544963 249.8256 
L 90.849631 252 
L 96.333661 252 
L 96.638329 249.1008 
L 96.942998 252 
L 97.247666 250.5504 
L 97.552334 252 
L 99.075676 252 
L 99.380344 251.2752 
L 99.685012 252 
L 101.513022 252 
L 101.81769 251.2752 
L 102.122359 252 
L 103.6457 252 
L 103.950369 251.2752 
L 104.255037 252 
L 105.169042 252 
L 105.47371 251.2752 
L 105.778378 252 
L 106.083047 251.2752 
L 106.387715 252 
L 108.520393 252 
L 108.825061 251.2752 
L 109.12973 252 
L 109.434398 251.2752 
L 109.739066 252 
L 110.348403 252 
L 110.653071 250.5504 
L 111.262408 252 
L 114.309091 252 
L 114.613759 250.5504 
L 114.918428 252 
L 115.223096 251.2752 
L 115.527764 252 
L 117.355774 252 
L 117.660442 249.8256 
L 117.965111 252 
L 119.183784 252 
L 119.488452 251.2752 
L 119.79312 252 
L 120.097789 250.5504 
L 120.402457 252 
L 121.011794 252 
L 121.316462 251.2752 
L 121.62113 252 
L 121.925799 251.2752 
L 122.230467 252 
L 123.44914 252 
L 123.753808 250.5504 
L 124.058477 252 
L 128.019165 252 
L 128.628501 250.5504 
L 128.93317 252 
L 129.847174 252 
L 130.151843 251.2752 
L 130.456511 252 
L 130.761179 252 
L 131.065848 250.5504 
L 131.370516 249.8256 
L 131.675184 252 
L 132.589189 252 
L 132.893857 251.2752 
L 133.198526 251.2752 
L 133.503194 252 
L 134.417199 252 
L 135.026536 248.376 
L 135.331204 252 
L 135.635872 252 
L 135.940541 249.1008 
L 136.245209 252 
L 137.159214 252 
L 137.463882 247.6512 
L 137.76855 252 
L 138.073219 252 
L 138.377887 249.1008 
L 138.682555 252 
L 140.510565 252 
L 140.815233 250.5504 
L 141.42457 252 
L 141.729238 252 
L 142.033907 251.2752 
L 142.338575 252 
L 142.643243 252 
L 142.947912 251.2752 
L 143.25258 252 
L 143.557248 249.1008 
L 143.861916 252 
L 145.08059 252 
L 145.385258 249.8256 
L 145.689926 252 
L 146.9086 252 
L 147.213268 251.2752 
L 147.517936 247.6512 
L 147.822604 252 
L 148.431941 252 
L 148.736609 251.2752 
L 149.041278 252 
L 149.955283 252 
L 150.259951 246.2016 
L 150.564619 252 
L 151.173956 252 
L 151.478624 249.8256 
L 151.783292 252 
L 153.001966 252 
L 153.306634 250.5504 
L 153.611302 250.5504 
L 153.915971 252 
L 154.525307 252 
L 154.829975 251.2752 
L 155.134644 252 
L 156.048649 252 
L 156.353317 248.376 
L 156.657985 252 
L 157.57199 252 
L 157.876658 248.376 
L 158.181327 251.2752 
L 158.485995 252 
L 158.790663 252 
L 159.095332 251.2752 
L 159.4 252 
L 159.704668 249.8256 
L 160.009337 249.1008 
L 160.314005 252 
L 160.618673 252 
L 160.923342 249.8256 
L 161.22801 252 
L 162.446683 252 
L 162.751351 249.1008 
L 163.05602 252 
L 163.360688 252 
L 163.665356 249.8256 
L 163.970025 250.5504 
L 164.274693 249.1008 
L 164.579361 252 
L 165.493366 252 
L 165.798034 250.5504 
L 166.407371 252 
L 166.712039 252 
L 167.016708 249.8256 
L 167.321376 252 
L 167.626044 249.8256 
L 167.930713 252 
L 168.540049 252 
L 168.844717 251.2752 
L 169.149386 252 
L 169.454054 252 
L 169.758722 246.9264 
L 170.063391 252 
L 170.368059 250.5504 
L 170.672727 252 
L 170.977396 250.5504 
L 171.282064 252 
L 171.586732 251.2752 
L 171.8914 252 
L 172.196069 251.2752 
L 172.500737 251.2752 
L 172.805405 252 
L 173.110074 252 
L 173.414742 248.376 
L 173.71941 251.2752 
L 174.024079 250.5504 
L 174.328747 252 
L 174.633415 248.376 
L 174.938084 251.2752 
L 175.242752 249.8256 
L 175.54742 247.6512 
L 175.852088 251.2752 
L 176.156757 252 
L 176.461425 246.9264 
L 176.766093 246.9264 
L 177.070762 252 
L 177.984767 243.3024 
L 178.289435 249.8256 
L 178.594103 252 
L 178.898771 252 
L 179.20344 249.1008 
L 179.812776 250.5504 
L 180.117445 252 
L 180.422113 251.2752 
L 180.726781 252 
L 181.03145 246.9264 
L 181.336118 252 
L 181.640786 249.8256 
L 181.945455 251.2752 
L 182.250123 252 
L 182.554791 249.8256 
L 182.859459 249.8256 
L 183.164128 250.5504 
L 183.468796 252 
L 183.773464 246.2016 
L 184.078133 252 
L 184.382801 251.2752 
L 184.687469 251.2752 
L 184.992138 252 
L 185.601474 250.5504 
L 185.906143 248.376 
L 186.210811 252 
L 186.515479 252 
L 186.820147 251.2752 
L 187.124816 246.9264 
L 187.429484 252 
L 187.734152 249.8256 
L 188.038821 249.1008 
L 188.343489 251.2752 
L 188.648157 252 
L 188.952826 249.8256 
L 189.257494 252 
L 189.562162 247.6512 
L 189.86683 249.8256 
L 190.171499 248.376 
L 190.476167 244.752 
L 190.780835 245.4768 
L 191.085504 252 
L 191.390172 246.9264 
L 191.69484 252 
L 191.999509 252 
L 192.304177 244.752 
L 192.608845 242.5776 
L 192.913514 246.2016 
L 193.218182 252 
L 193.52285 246.2016 
L 193.827518 249.1008 
L 194.132187 243.3024 
L 194.741523 251.2752 
L 195.046192 252 
L 195.35086 252 
L 195.655528 244.752 
L 195.960197 248.376 
L 196.569533 246.9264 
L 196.874201 252 
L 197.17887 249.1008 
L 197.483538 249.1008 
L 197.788206 247.6512 
L 198.092875 244.0272 
L 198.397543 242.5776 
L 198.702211 252 
L 199.311548 247.6512 
L 199.616216 249.1008 
L 199.920885 249.1008 
L 200.225553 251.2752 
L 200.530221 244.0272 
L 200.834889 246.9264 
L 201.139558 252 
L 201.748894 241.8528 
L 202.053563 249.1008 
L 202.358231 246.2016 
L 202.967568 249.1008 
L 203.272236 249.8256 
L 203.576904 252 
L 203.881572 242.5776 
L 204.186241 247.6512 
L 204.490909 244.0272 
L 204.795577 251.2752 
L 205.100246 246.2016 
L 205.404914 247.6512 
L 205.709582 252 
L 206.014251 243.3024 
L 206.318919 252 
L 206.623587 250.5504 
L 206.928256 251.2752 
L 207.232924 239.6784 
L 207.537592 246.2016 
L 207.84226 249.8256 
L 208.146929 243.3024 
L 208.451597 241.8528 
L 208.756265 241.8528 
L 209.060934 233.88 
L 209.365602 239.6784 
L 209.67027 252 
L 209.974939 246.9264 
L 210.279607 251.2752 
L 210.888943 239.6784 
L 211.193612 240.4032 
L 211.49828 248.376 
L 211.802948 246.2016 
L 212.107617 245.4768 
L 212.412285 246.2016 
L 212.716953 249.8256 
L 213.021622 247.6512 
L 213.32629 237.504 
L 213.630958 244.0272 
L 213.935627 231.7056 
L 214.240295 248.376 
L 214.544963 245.4768 
L 214.849631 237.504 
L 215.1543 251.2752 
L 215.458968 252 
L 215.763636 249.8256 
L 216.068305 242.5776 
L 216.677641 244.0272 
L 216.98231 251.2752 
L 217.286978 233.88 
L 217.591646 242.5776 
L 217.896314 246.2016 
L 218.200983 245.4768 
L 218.505651 240.4032 
L 218.810319 245.4768 
L 219.114988 241.8528 
L 219.419656 241.128 
L 219.724324 244.752 
L 220.028993 241.128 
L 220.333661 244.752 
L 220.638329 249.8256 
L 220.942998 236.0544 
L 221.247666 252 
L 221.552334 237.504 
L 221.857002 240.4032 
L 222.161671 236.7792 
L 222.466339 240.4032 
L 223.075676 238.9536 
L 223.380344 243.3024 
L 223.685012 244.0272 
L 223.989681 241.128 
L 224.599017 248.376 
L 224.903686 249.8256 
L 225.208354 248.376 
L 225.513022 239.6784 
L 225.81769 236.7792 
L 226.122359 247.6512 
L 226.427027 243.3024 
L 226.731695 252 
L 227.036364 231.7056 
L 227.6457 252 
L 227.950369 230.256 
L 228.559705 242.5776 
L 228.864373 244.0272 
L 229.169042 244.752 
L 229.47371 237.504 
L 229.778378 240.4032 
L 230.083047 233.1552 
L 230.387715 248.376 
L 230.692383 252 
L 230.997052 237.504 
L 231.30172 241.128 
L 231.606388 236.0544 
L 231.911057 237.504 
L 232.215725 236.7792 
L 232.520393 252 
L 232.825061 249.1008 
L 233.12973 249.8256 
L 233.434398 233.88 
L 233.739066 233.88 
L 234.043735 239.6784 
L 234.348403 228.8064 
L 234.653071 236.0544 
L 234.95774 238.2288 
L 235.262408 224.4576 
L 235.567076 238.2288 
L 235.871744 229.5312 
L 236.176413 233.1552 
L 236.481081 221.5584 
L 236.785749 214.3104 
L 237.090418 219.384 
L 237.395086 232.4304 
L 237.699754 214.3104 
L 238.004423 235.3296 
L 238.309091 215.76 
L 238.613759 204.888 
L 238.918428 242.5776 
L 239.223096 209.9616 
L 239.527764 233.1552 
L 239.832432 240.4032 
L 240.137101 237.504 
L 240.441769 238.2288 
L 240.746437 186.768 
L 241.051106 194.7408 
L 241.355774 209.2368 
L 241.660442 231.7056 
L 241.965111 176.6208 
L 242.269779 240.4032 
L 242.574447 192.5664 
L 242.879115 225.1824 
L 243.183784 202.7136 
L 243.488452 203.4384 
L 243.79312 204.888 
L 244.097789 224.4576 
L 244.402457 230.9808 
L 244.707125 215.76 
L 245.011794 213.5856 
L 245.316462 226.632 
L 245.62113 197.64 
L 245.925799 235.3296 
L 246.230467 251.2752 
L 246.535135 246.9264 
L 247.144472 212.136 
L 247.753808 201.9888 
L 248.058477 208.512 
L 248.363145 149.8032 
L 248.667813 189.6672 
L 248.972482 206.3376 
L 249.27715 187.4928 
L 249.581818 198.3648 
L 249.886486 213.5856 
L 250.191155 176.6208 
L 250.495823 199.8144 
L 251.10516 169.3728 
L 251.409828 168.648 
L 251.714496 217.2096 
L 252.019165 191.1168 
L 252.323833 232.4304 
L 252.628501 167.9232 
L 252.93317 170.8224 
L 253.237838 209.2368 
L 253.542506 191.1168 
L 253.847174 201.9888 
L 254.151843 183.144 
L 254.456511 209.2368 
L 254.761179 191.8416 
L 255.065848 156.3264 
L 255.370516 189.6672 
L 255.675184 178.7952 
L 255.979853 214.3104 
L 256.284521 195.4656 
L 256.589189 234.6048 
L 256.893857 182.4192 
L 257.198526 159.2256 
L 257.503194 206.3376 
L 257.807862 213.5856 
L 258.112531 180.2448 
L 258.417199 215.76 
L 258.721867 185.3184 
L 259.026536 238.9536 
L 259.331204 172.272 
L 259.635872 142.5552 
L 259.940541 217.2096 
L 260.245209 173.7216 
L 260.549877 151.9776 
L 260.854545 236.0544 
L 261.159214 211.4112 
L 261.463882 122.2608 
L 261.76855 150.528 
L 262.073219 164.2992 
L 262.377887 250.5504 
L 262.682555 189.6672 
L 263.291892 201.9888 
L 263.59656 205.6128 
L 263.901229 236.0544 
L 264.205897 205.6128 
L 264.510565 219.384 
L 264.815233 157.776 
L 265.119902 177.3456 
L 265.42457 236.7792 
L 265.729238 92.544 
L 266.033907 159.2256 
L 266.338575 195.4656 
L 266.643243 173.7216 
L 266.947912 252 
L 267.25258 199.0896 
L 267.557248 207.0624 
L 267.861916 231.7056 
L 268.166585 210.6864 
L 268.471253 220.1088 
L 268.775921 171.5472 
L 269.08059 160.6752 
L 269.385258 245.4768 
L 269.689926 183.144 
L 269.994595 247.6512 
L 270.299263 243.3024 
L 270.603931 163.5744 
L 270.9086 207.0624 
L 271.213268 207.7872 
L 271.822604 198.3648 
L 272.127273 189.6672 
L 272.431941 187.4928 
L 272.736609 143.28 
L 273.041278 149.0784 
L 273.345946 229.5312 
L 273.650614 252 
L 274.259951 181.6944 
L 274.564619 119.3616 
L 274.869287 208.512 
L 275.173956 107.04 
L 275.478624 167.9232 
L 275.783292 147.6288 
L 276.087961 224.4576 
L 276.392629 175.1712 
L 276.697297 201.264 
L 277.001966 199.0896 
L 277.306634 137.4816 
L 277.611302 238.9536 
L 277.915971 146.904 
L 278.220639 168.648 
L 278.525307 216.4848 
L 278.829975 167.1984 
L 279.134644 188.9424 
L 279.439312 160.6752 
L 279.74398 165.024 
L 280.048649 142.5552 
L 280.353317 149.8032 
L 280.657985 201.264 
L 280.962654 165.024 
L 281.267322 201.264 
L 281.57199 165.024 
L 281.876658 180.2448 
L 282.181327 212.8608 
L 282.790663 168.648 
L 283.4 173.7216 
L 283.704668 183.8688 
L 284.009337 175.896 
L 284.314005 207.7872 
L 284.618673 143.28 
L 284.923342 124.4352 
L 285.22801 231.7056 
L 285.532678 217.2096 
L 285.837346 230.256 
L 286.142015 147.6288 
L 286.446683 180.2448 
L 286.751351 120.0864 
L 287.05602 170.0976 
L 287.360688 146.1792 
L 287.665356 170.0976 
L 287.970025 157.776 
L 288.274693 175.1712 
L 288.579361 175.896 
L 288.884029 80.2224 
L 289.188698 202.7136 
L 289.493366 183.144 
L 289.798034 186.768 
L 290.102703 188.2176 
L 290.407371 212.8608 
L 290.712039 119.3616 
L 291.016708 220.8336 
L 291.321376 179.52 
L 291.626044 252 
L 291.930713 220.1088 
L 292.235381 252 
L 292.540049 171.5472 
L 292.844717 204.1632 
L 293.454054 97.6176 
L 294.368059 252 
L 294.672727 141.1056 
L 294.977396 236.0544 
L 295.282064 173.7216 
L 295.586732 149.0784 
L 295.8914 168.648 
L 296.196069 252 
L 296.500737 186.0432 
L 296.805405 190.392 
L 297.110074 209.9616 
L 297.414742 252 
L 297.71941 194.016 
L 298.024079 107.7648 
L 298.328747 162.8496 
L 298.633415 117.1872 
L 298.938084 120.8112 
L 299.242752 167.1984 
L 299.54742 146.1792 
L 299.852088 180.2448 
L 300.156757 157.0512 
L 300.461425 113.5632 
L 300.766093 145.4544 
L 301.070762 138.9312 
L 301.37543 138.9312 
L 301.680098 136.7568 
L 301.984767 162.8496 
L 302.289435 209.2368 
L 302.594103 188.2176 
L 302.898771 145.4544 
L 303.20344 83.1216 
L 303.508108 184.5936 
L 304.117445 252 
L 304.422113 117.912 
L 304.726781 252 
L 305.03145 199.8144 
L 305.336118 246.9264 
L 305.945455 150.528 
L 306.250123 199.0896 
L 306.554791 155.6016 
L 306.859459 128.0592 
L 307.164128 127.3344 
L 307.468796 208.512 
L 307.773464 181.6944 
L 308.078133 182.4192 
L 308.382801 91.0944 
L 308.687469 78.7728 
L 308.992138 128.784 
L 309.296806 113.5632 
L 309.601474 115.7376 
L 309.906143 126.6096 
L 310.210811 215.76 
L 310.515479 196.9152 
L 310.820147 131.6832 
L 311.124816 151.2528 
L 311.429484 157.0512 
L 311.734152 240.4032 
L 312.038821 174.4464 
L 312.343489 183.8688 
L 312.648157 139.656 
L 312.952826 162.1248 
L 313.257494 79.4976 
L 313.86683 144.0048 
L 314.171499 86.7456 
L 314.476167 137.4816 
L 314.780835 137.4816 
L 315.085504 199.0896 
L 315.390172 125.16 
L 315.69484 180.9696 
L 315.999509 162.1248 
L 316.304177 156.3264 
L 316.608845 99.0672 
L 316.913514 119.3616 
L 317.218182 61.3776 
L 317.52285 76.5984 
L 317.827518 180.2448 
L 318.132187 172.9968 
L 318.436855 188.2176 
L 318.741523 186.0432 
L 319.046192 159.2256 
L 319.35086 203.4384 
L 319.960197 136.7568 
L 320.264865 156.3264 
L 320.569533 126.6096 
L 321.17887 175.896 
L 321.483538 157.776 
L 321.788206 195.4656 
L 322.092875 145.4544 
L 322.397543 157.776 
L 322.702211 184.5936 
L 323.00688 178.0704 
L 323.311548 168.648 
L 323.616216 180.2448 
L 323.920885 162.8496 
L 324.225553 194.016 
L 324.530221 170.0976 
L 324.834889 205.6128 
L 325.139558 183.8688 
L 325.444226 177.3456 
L 325.748894 188.2176 
L 326.053563 177.3456 
L 326.358231 191.8416 
L 326.662899 194.016 
L 326.967568 165.7488 
L 327.272236 191.8416 
L 327.576904 182.4192 
L 327.881572 193.2912 
L 328.186241 190.392 
L 328.490909 215.0352 
L 329.100246 139.656 
L 329.404914 148.3536 
L 329.709582 139.656 
L 330.014251 174.4464 
L 330.318919 174.4464 
L 330.623587 126.6096 
L 330.928256 123.7104 
L 331.232924 152.7024 
L 331.537592 200.5392 
L 332.146929 98.3424 
L 332.756265 180.9696 
L 333.060934 193.2912 
L 333.365602 175.1712 
L 333.67027 171.5472 
L 333.974939 181.6944 
L 334.279607 131.6832 
L 334.584275 117.912 
L 334.888943 148.3536 
L 335.193612 143.28 
L 335.49828 106.3152 
L 335.802948 120.0864 
L 336.107617 159.9504 
L 336.412285 87.4704 
L 336.716953 144.0048 
L 337.021622 101.9664 
L 337.32629 149.0784 
L 337.630958 146.904 
L 337.935627 134.5824 
L 338.240295 144.0048 
L 338.544963 109.2144 
L 338.849631 109.9392 
L 339.1543 156.3264 
L 339.458968 93.9936 
L 339.763636 183.8688 
L 340.068305 164.2992 
L 340.372973 134.5824 
L 340.677641 84.5712 
L 340.98231 136.032 
L 341.286978 130.2336 
L 341.591646 138.9312 
L 341.896314 104.8656 
L 342.200983 118.6368 
L 342.505651 92.544 
L 342.810319 125.16 
L 343.114988 191.8416 
L 343.419656 130.2336 
L 343.724324 119.3616 
L 344.028993 143.28 
L 344.333661 110.664 
L 344.638329 128.784 
L 344.942998 138.2064 
L 345.247666 87.4704 
L 345.552334 114.288 
L 345.857002 191.1168 
L 346.161671 117.912 
L 346.466339 151.2528 
L 346.771007 128.784 
L 347.075676 149.0784 
L 347.380344 178.0704 
L 347.685012 115.0128 
L 347.989681 186.768 
L 348.294349 125.16 
L 348.599017 172.9968 
L 348.903686 141.1056 
L 349.208354 134.5824 
L 349.513022 167.1984 
L 349.81769 163.5744 
L 350.122359 164.2992 
L 350.427027 157.0512 
L 351.036364 105.5904 
L 351.341032 145.4544 
L 351.6457 162.1248 
L 351.950369 99.0672 
L 352.255037 208.512 
L 352.559705 159.2256 
L 353.169042 109.2144 
L 353.47371 104.1408 
L 353.778378 172.9968 
L 354.083047 182.4192 
L 354.387715 170.8224 
L 354.692383 93.9936 
L 354.997052 126.6096 
L 355.30172 115.7376 
L 355.606388 134.5824 
L 355.911057 99.0672 
L 356.215725 112.8384 
L 356.520393 154.152 
L 356.825061 133.8576 
L 357.12973 162.1248 
L 357.434398 157.0512 
L 357.739066 116.4624 
L 358.043735 136.032 
L 358.348403 173.7216 
L 358.653071 126.6096 
L 358.95774 164.2992 
L 359.262408 163.5744 
L 359.871744 93.9936 
L 360.481081 141.8304 
L 360.785749 134.5824 
L 361.090418 133.8576 
L 361.395086 157.0512 
L 361.699754 119.3616 
L 362.004423 110.664 
L 362.309091 88.92 
L 362.613759 176.6208 
L 362.918428 178.0704 
L 363.223096 178.0704 
L 363.832432 130.2336 
L 364.137101 162.1248 
L 364.441769 163.5744 
L 364.746437 201.9888 
L 365.051106 139.656 
L 365.355774 101.9664 
L 365.660442 160.6752 
L 365.965111 158.5008 
L 366.269779 160.6752 
L 366.574447 128.784 
L 367.183784 178.0704 
L 367.488452 175.1712 
L 367.79312 199.0896 
L 368.097789 144.0048 
L 368.402457 173.7216 
L 368.707125 138.9312 
L 369.011794 133.8576 
L 369.316462 178.7952 
L 369.62113 133.1328 
L 369.925799 180.2448 
L 370.230467 169.3728 
L 370.535135 176.6208 
L 370.839803 99.0672 
L 371.144472 96.168 
L 371.44914 151.2528 
L 371.753808 148.3536 
L 372.058477 117.1872 
L 372.363145 165.024 
L 372.667813 88.92 
L 372.972482 166.4736 
L 373.27715 141.1056 
L 373.581818 186.0432 
L 373.581818 186.0432 
" style="fill:none;stroke:#0000ff;stroke-linecap:square;stroke-width:1.5;"/>
   </g>
   <g id="patch_3">
    <path d="M 54 252 
L 54 34.56 
" style="fill:none;stroke:#000000;stroke-linecap:square;stroke-linejoin:miter;stroke-width:0.8;"/>
   </g>
   <g id="patch_4">
    <path d="M 388.8 252 
L 388.8 34.56 
" style="fill:none;stroke:#000000;stroke-linecap:square;stroke-linejoin:miter;stroke-width:0.8;"/>
   </g>
   <g id="patch_5">
    <path d="M 54 252 
L 388.8 252 
" style="fill:none;stroke:#000000;stroke-linecap:square;stroke-linejoin:miter;stroke-width:0.8;"/>
   </g>
   <g id="patch_6">
    <path d="M 54 34.56 
L 388.8 34.56 
" style="fill:none;stroke:#000000;stroke-linecap:square;stroke-linejoin:miter;stroke-width:0.8;"/>
   </g>
   <g id="legend_1">
    <g id="patch_7">
     <path d="M 283.735937 57.238125 
L 381.8 57.238125 
Q 383.8 57.238125 383.8 55.238125 
L 383.8 41.56 
Q 383.8 39.56 381.8 39.56 
L 283.735937 39.56 
Q 281.735937 39.56 281.735937 41.56 
L 281.735937 55.238125 
Q 281.735937 57.238125 283.735937 57.238125 
z
" style="fill:#ffffff;opacity:0.8;stroke:#cccccc;stroke-linejoin:miter;"/>
    </g>
    <g id="line2d_15">
     <path d="M 285.735937 47.658437 
L 305.735937 47.658437 
" style="fill:none;stroke:#0000ff;stroke-linecap:square;stroke-width:1.5;"/>
    </g>
    <g id="line2d_16"/>
    <g id="text_14">
     <!-- Total Reward -->
     <defs>
      <path d="M -0.296875 72.90625 
L 61.375 72.90625 
L 61.375 64.59375 
L 35.5 64.59375 
L 35.5 0 
L 25.59375 0 
L 25.59375 64.59375 
L -0.296875 64.59375 
z
" id="DejaVuSans-54"/>
      <path d="M 30.609375 48.390625 
Q 23.390625 48.390625 19.1875 42.75 
Q 14.984375 37.109375 14.984375 27.296875 
Q 14.984375 17.484375 19.15625 11.84375 
Q 23.34375 6.203125 30.609375 6.203125 
Q 37.796875 6.203125 41.984375 11.859375 
Q 46.1875 17.53125 46.1875 27.296875 
Q 46.1875 37.015625 41.984375 42.703125 
Q 37.796875 48.390625 30.609375 48.390625 
z
M 30.609375 56 
Q 42.328125 56 49.015625 48.375 
Q 55.71875 40.765625 55.71875 27.296875 
Q 55.71875 13.875 49.015625 6.21875 
Q 42.328125 -1.421875 30.609375 -1.421875 
Q 18.84375 -1.421875 12.171875 6.21875 
Q 5.515625 13.875 5.515625 27.296875 
Q 5.515625 40.765625 12.171875 48.375 
Q 18.84375 56 30.609375 56 
z
" id="DejaVuSans-6f"/>
      <path d="M 18.3125 70.21875 
L 18.3125 54.6875 
L 36.8125 54.6875 
L 36.8125 47.703125 
L 18.3125 47.703125 
L 18.3125 18.015625 
Q 18.3125 11.328125 20.140625 9.421875 
Q 21.96875 7.515625 27.59375 7.515625 
L 36.8125 7.515625 
L 36.8125 0 
L 27.59375 0 
Q 17.1875 0 13.234375 3.875 
Q 9.28125 7.765625 9.28125 18.015625 
L 9.28125 47.703125 
L 2.6875 47.703125 
L 2.6875 54.6875 
L 9.28125 54.6875 
L 9.28125 70.21875 
z
" id="DejaVuSans-74"/>
      <path d="M 34.28125 27.484375 
Q 23.390625 27.484375 19.1875 25 
Q 14.984375 22.515625 14.984375 16.5 
Q 14.984375 11.71875 18.140625 8.90625 
Q 21.296875 6.109375 26.703125 6.109375 
Q 34.1875 6.109375 38.703125 11.40625 
Q 43.21875 16.703125 43.21875 25.484375 
L 43.21875 27.484375 
z
M 52.203125 31.203125 
L 52.203125 0 
L 43.21875 0 
L 43.21875 8.296875 
Q 40.140625 3.328125 35.546875 0.953125 
Q 30.953125 -1.421875 24.3125 -1.421875 
Q 15.921875 -1.421875 10.953125 3.296875 
Q 6 8.015625 6 15.921875 
Q 6 25.140625 12.171875 29.828125 
Q 18.359375 34.515625 30.609375 34.515625 
L 43.21875 34.515625 
L 43.21875 35.40625 
Q 43.21875 41.609375 39.140625 45 
Q 35.0625 48.390625 27.6875 48.390625 
Q 23 48.390625 18.546875 47.265625 
Q 14.109375 46.140625 10.015625 43.890625 
L 10.015625 52.203125 
Q 14.9375 54.109375 19.578125 55.046875 
Q 24.21875 56 28.609375 56 
Q 40.484375 56 46.34375 49.84375 
Q 52.203125 43.703125 52.203125 31.203125 
z
" id="DejaVuSans-61"/>
      <path d="M 9.421875 75.984375 
L 18.40625 75.984375 
L 18.40625 0 
L 9.421875 0 
z
" id="DejaVuSans-6c"/>
      <path id="DejaVuSans-20"/>
      <path d="M 44.390625 34.1875 
Q 47.5625 33.109375 50.5625 29.59375 
Q 53.5625 26.078125 56.59375 19.921875 
L 66.609375 0 
L 56 0 
L 46.6875 18.703125 
Q 43.0625 26.03125 39.671875 28.421875 
Q 36.28125 30.8125 30.421875 30.8125 
L 19.671875 30.8125 
L 19.671875 0 
L 9.8125 0 
L 9.8125 72.90625 
L 32.078125 72.90625 
Q 44.578125 72.90625 50.734375 67.671875 
Q 56.890625 62.453125 56.890625 51.90625 
Q 56.890625 45.015625 53.6875 40.46875 
Q 50.484375 35.9375 44.390625 34.1875 
z
M 19.671875 64.796875 
L 19.671875 38.921875 
L 32.078125 38.921875 
Q 39.203125 38.921875 42.84375 42.21875 
Q 46.484375 45.515625 46.484375 51.90625 
Q 46.484375 58.296875 42.84375 61.546875 
Q 39.203125 64.796875 32.078125 64.796875 
z
" id="DejaVuSans-52"/>
      <path d="M 56.203125 29.59375 
L 56.203125 25.203125 
L 14.890625 25.203125 
Q 15.484375 15.921875 20.484375 11.0625 
Q 25.484375 6.203125 34.421875 6.203125 
Q 39.59375 6.203125 44.453125 7.46875 
Q 49.3125 8.734375 54.109375 11.28125 
L 54.109375 2.78125 
Q 49.265625 0.734375 44.1875 -0.34375 
Q 39.109375 -1.421875 33.890625 -1.421875 
Q 20.796875 -1.421875 13.15625 6.1875 
Q 5.515625 13.8125 5.515625 26.8125 
Q 5.515625 40.234375 12.765625 48.109375 
Q 20.015625 56 32.328125 56 
Q 43.359375 56 49.78125 48.890625 
Q 56.203125 41.796875 56.203125 29.59375 
z
M 47.21875 32.234375 
Q 47.125 39.59375 43.09375 43.984375 
Q 39.0625 48.390625 32.421875 48.390625 
Q 24.90625 48.390625 20.390625 44.140625 
Q 15.875 39.890625 15.1875 32.171875 
z
" id="DejaVuSans-65"/>
      <path d="M 4.203125 54.6875 
L 13.1875 54.6875 
L 24.421875 12.015625 
L 35.59375 54.6875 
L 46.1875 54.6875 
L 57.421875 12.015625 
L 68.609375 54.6875 
L 77.59375 54.6875 
L 63.28125 0 
L 52.6875 0 
L 40.921875 44.828125 
L 29.109375 0 
L 18.5 0 
z
" id="DejaVuSans-77"/>
      <path d="M 41.109375 46.296875 
Q 39.59375 47.171875 37.8125 47.578125 
Q 36.03125 48 33.890625 48 
Q 26.265625 48 22.1875 43.046875 
Q 18.109375 38.09375 18.109375 28.8125 
L 18.109375 0 
L 9.078125 0 
L 9.078125 54.6875 
L 18.109375 54.6875 
L 18.109375 46.1875 
Q 20.953125 51.171875 25.484375 53.578125 
Q 30.03125 56 36.53125 56 
Q 37.453125 56 38.578125 55.875 
Q 39.703125 55.765625 41.0625 55.515625 
z
" id="DejaVuSans-72"/>
      <path d="M 45.40625 46.390625 
L 45.40625 75.984375 
L 54.390625 75.984375 
L 54.390625 0 
L 45.40625 0 
L 45.40625 8.203125 
Q 42.578125 3.328125 38.25 0.953125 
Q 33.9375 -1.421875 27.875 -1.421875 
Q 17.96875 -1.421875 11.734375 6.484375 
Q 5.515625 14.40625 5.515625 27.296875 
Q 5.515625 40.1875 11.734375 48.09375 
Q 17.96875 56 27.875 56 
Q 33.9375 56 38.25 53.625 
Q 42.578125 51.265625 45.40625 46.390625 
z
M 14.796875 27.296875 
Q 14.796875 17.390625 18.875 11.75 
Q 22.953125 6.109375 30.078125 6.109375 
Q 37.203125 6.109375 41.296875 11.75 
Q 45.40625 17.390625 45.40625 27.296875 
Q 45.40625 37.203125 41.296875 42.84375 
Q 37.203125 48.484375 30.078125 48.484375 
Q 22.953125 48.484375 18.875 42.84375 
Q 14.796875 37.203125 14.796875 27.296875 
z
" id="DejaVuSans-64"/>
     </defs>
     <g transform="translate(313.735937 51.158437)scale(0.1 -0.1)">
      <use xlink:href="#DejaVuSans-54"/>
      <use x="60.818359" xlink:href="#DejaVuSans-6f"/>
      <use x="122" xlink:href="#DejaVuSans-74"/>
      <use x="161.208984" xlink:href="#DejaVuSans-61"/>
      <use x="222.488281" xlink:href="#DejaVuSans-6c"/>
      <use x="250.271484" xlink:href="#DejaVuSans-20"/>
      <use x="282.058594" xlink:href="#DejaVuSans-52"/>
      <use x="351.478516" xlink:href="#DejaVuSans-65"/>
      <use x="413.001953" xlink:href="#DejaVuSans-77"/>
      <use x="494.789062" xlink:href="#DejaVuSans-61"/>
      <use x="556.068359" xlink:href="#DejaVuSans-72"/>
      <use x="597.166016" xlink:href="#DejaVuSans-64"/>
     </g>
    </g>
   </g>
  </g>
 </g>
 <defs>
  <clipPath id="pca1c38cf99">
   <rect height="217.44" width="334.8" x="54" y="34.56"/>
  </clipPath>
 </defs>
</svg>
