<?xml version="1.0" encoding="utf-8" standalone="no"?>
<!DOCTYPE svg PUBLIC "-//W3C//DTD SVG 1.1//EN"
  "http://www.w3.org/Graphics/SVG/1.1/DTD/svg11.dtd">
<!-- Created with matplotlib (http://matplotlib.org/) -->
<svg height="288pt" version="1.1" viewBox="0 0 432 288" width="432pt" xmlns="http://www.w3.org/2000/svg" xmlns:xlink="http://www.w3.org/1999/xlink">
 <defs>
  <style type="text/css">
*{stroke-linecap:butt;stroke-linejoin:round;}
  </style>
 </defs>
 <g id="figure_1">
  <g id="patch_1">
   <path d="M 0 288 
L 432 288 
L 432 0 
L 0 0 
z
" style="fill:#ffffff;"/>
  </g>
  <g id="axes_1">
   <g id="patch_2">
    <path d="M 54 252 
L 388.8 252 
L 388.8 34.56 
L 54 34.56 
z
" style="fill:#ffffff;"/>
   </g>
   <g id="matplotlib.axis_1">
    <g id="xtick_1">
     <g id="line2d_1">
      <defs>
       <path d="M 0 0 
L 0 3.5 
" id="mcc188f918a" style="stroke:#000000;stroke-width:0.8;"/>
      </defs>
      <g>
       <use style="stroke:#000000;stroke-width:0.8;" x="69.218182" xlink:href="#mcc188f918a" y="252"/>
      </g>
     </g>
     <g id="text_1">
      <!-- 0 -->
      <defs>
       <path d="M 31.78125 66.40625 
Q 24.171875 66.40625 20.328125 58.90625 
Q 16.5 51.421875 16.5 36.375 
Q 16.5 21.390625 20.328125 13.890625 
Q 24.171875 6.390625 31.78125 6.390625 
Q 39.453125 6.390625 43.28125 13.890625 
Q 47.125 21.390625 47.125 36.375 
Q 47.125 51.421875 43.28125 58.90625 
Q 39.453125 66.40625 31.78125 66.40625 
z
M 31.78125 74.21875 
Q 44.046875 74.21875 50.515625 64.515625 
Q 56.984375 54.828125 56.984375 36.375 
Q 56.984375 17.96875 50.515625 8.265625 
Q 44.046875 -1.421875 31.78125 -1.421875 
Q 19.53125 -1.421875 13.0625 8.265625 
Q 6.59375 17.96875 6.59375 36.375 
Q 6.59375 54.828125 13.0625 64.515625 
Q 19.53125 74.21875 31.78125 74.21875 
z
" id="DejaVuSans-30"/>
      </defs>
      <g transform="translate(66.036932 266.598437)scale(0.1 -0.1)">
       <use xlink:href="#DejaVuSans-30"/>
      </g>
     </g>
    </g>
    <g id="xtick_2">
     <g id="line2d_2">
      <g>
       <use style="stroke:#000000;stroke-width:0.8;" x="130.151843" xlink:href="#mcc188f918a" y="252"/>
      </g>
     </g>
     <g id="text_2">
      <!-- 200 -->
      <defs>
       <path d="M 19.1875 8.296875 
L 53.609375 8.296875 
L 53.609375 0 
L 7.328125 0 
L 7.328125 8.296875 
Q 12.9375 14.109375 22.625 23.890625 
Q 32.328125 33.6875 34.8125 36.53125 
Q 39.546875 41.84375 41.421875 45.53125 
Q 43.3125 49.21875 43.3125 52.78125 
Q 43.3125 58.59375 39.234375 62.25 
Q 35.15625 65.921875 28.609375 65.921875 
Q 23.96875 65.921875 18.8125 64.3125 
Q 13.671875 62.703125 7.8125 59.421875 
L 7.8125 69.390625 
Q 13.765625 71.78125 18.9375 73 
Q 24.125 74.21875 28.421875 74.21875 
Q 39.75 74.21875 46.484375 68.546875 
Q 53.21875 62.890625 53.21875 53.421875 
Q 53.21875 48.921875 51.53125 44.890625 
Q 49.859375 40.875 45.40625 35.40625 
Q 44.1875 33.984375 37.640625 27.21875 
Q 31.109375 20.453125 19.1875 8.296875 
z
" id="DejaVuSans-32"/>
      </defs>
      <g transform="translate(120.608093 266.598437)scale(0.1 -0.1)">
       <use xlink:href="#DejaVuSans-32"/>
       <use x="63.623047" xlink:href="#DejaVuSans-30"/>
       <use x="127.246094" xlink:href="#DejaVuSans-30"/>
      </g>
     </g>
    </g>
    <g id="xtick_3">
     <g id="line2d_3">
      <g>
       <use style="stroke:#000000;stroke-width:0.8;" x="191.085504" xlink:href="#mcc188f918a" y="252"/>
      </g>
     </g>
     <g id="text_3">
      <!-- 400 -->
      <defs>
       <path d="M 37.796875 64.3125 
L 12.890625 25.390625 
L 37.796875 25.390625 
z
M 35.203125 72.90625 
L 47.609375 72.90625 
L 47.609375 25.390625 
L 58.015625 25.390625 
L 58.015625 17.1875 
L 47.609375 17.1875 
L 47.609375 0 
L 37.796875 0 
L 37.796875 17.1875 
L 4.890625 17.1875 
L 4.890625 26.703125 
z
" id="DejaVuSans-34"/>
      </defs>
      <g transform="translate(181.541754 266.598437)scale(0.1 -0.1)">
       <use xlink:href="#DejaVuSans-34"/>
       <use x="63.623047" xlink:href="#DejaVuSans-30"/>
       <use x="127.246094" xlink:href="#DejaVuSans-30"/>
      </g>
     </g>
    </g>
    <g id="xtick_4">
     <g id="line2d_4">
      <g>
       <use style="stroke:#000000;stroke-width:0.8;" x="252.019165" xlink:href="#mcc188f918a" y="252"/>
      </g>
     </g>
     <g id="text_4">
      <!-- 600 -->
      <defs>
       <path d="M 33.015625 40.375 
Q 26.375 40.375 22.484375 35.828125 
Q 18.609375 31.296875 18.609375 23.390625 
Q 18.609375 15.53125 22.484375 10.953125 
Q 26.375 6.390625 33.015625 6.390625 
Q 39.65625 6.390625 43.53125 10.953125 
Q 47.40625 15.53125 47.40625 23.390625 
Q 47.40625 31.296875 43.53125 35.828125 
Q 39.65625 40.375 33.015625 40.375 
z
M 52.59375 71.296875 
L 52.59375 62.3125 
Q 48.875 64.0625 45.09375 64.984375 
Q 41.3125 65.921875 37.59375 65.921875 
Q 27.828125 65.921875 22.671875 59.328125 
Q 17.53125 52.734375 16.796875 39.40625 
Q 19.671875 43.65625 24.015625 45.921875 
Q 28.375 48.1875 33.59375 48.1875 
Q 44.578125 48.1875 50.953125 41.515625 
Q 57.328125 34.859375 57.328125 23.390625 
Q 57.328125 12.15625 50.6875 5.359375 
Q 44.046875 -1.421875 33.015625 -1.421875 
Q 20.359375 -1.421875 13.671875 8.265625 
Q 6.984375 17.96875 6.984375 36.375 
Q 6.984375 53.65625 15.1875 63.9375 
Q 23.390625 74.21875 37.203125 74.21875 
Q 40.921875 74.21875 44.703125 73.484375 
Q 48.484375 72.75 52.59375 71.296875 
z
" id="DejaVuSans-36"/>
      </defs>
      <g transform="translate(242.475415 266.598437)scale(0.1 -0.1)">
       <use xlink:href="#DejaVuSans-36"/>
       <use x="63.623047" xlink:href="#DejaVuSans-30"/>
       <use x="127.246094" xlink:href="#DejaVuSans-30"/>
      </g>
     </g>
    </g>
    <g id="xtick_5">
     <g id="line2d_5">
      <g>
       <use style="stroke:#000000;stroke-width:0.8;" x="312.952826" xlink:href="#mcc188f918a" y="252"/>
      </g>
     </g>
     <g id="text_5">
      <!-- 800 -->
      <defs>
       <path d="M 31.78125 34.625 
Q 24.75 34.625 20.71875 30.859375 
Q 16.703125 27.09375 16.703125 20.515625 
Q 16.703125 13.921875 20.71875 10.15625 
Q 24.75 6.390625 31.78125 6.390625 
Q 38.8125 6.390625 42.859375 10.171875 
Q 46.921875 13.96875 46.921875 20.515625 
Q 46.921875 27.09375 42.890625 30.859375 
Q 38.875 34.625 31.78125 34.625 
z
M 21.921875 38.8125 
Q 15.578125 40.375 12.03125 44.71875 
Q 8.5 49.078125 8.5 55.328125 
Q 8.5 64.0625 14.71875 69.140625 
Q 20.953125 74.21875 31.78125 74.21875 
Q 42.671875 74.21875 48.875 69.140625 
Q 55.078125 64.0625 55.078125 55.328125 
Q 55.078125 49.078125 51.53125 44.71875 
Q 48 40.375 41.703125 38.8125 
Q 48.828125 37.15625 52.796875 32.3125 
Q 56.78125 27.484375 56.78125 20.515625 
Q 56.78125 9.90625 50.3125 4.234375 
Q 43.84375 -1.421875 31.78125 -1.421875 
Q 19.734375 -1.421875 13.25 4.234375 
Q 6.78125 9.90625 6.78125 20.515625 
Q 6.78125 27.484375 10.78125 32.3125 
Q 14.796875 37.15625 21.921875 38.8125 
z
M 18.3125 54.390625 
Q 18.3125 48.734375 21.84375 45.5625 
Q 25.390625 42.390625 31.78125 42.390625 
Q 38.140625 42.390625 41.71875 45.5625 
Q 45.3125 48.734375 45.3125 54.390625 
Q 45.3125 60.0625 41.71875 63.234375 
Q 38.140625 66.40625 31.78125 66.40625 
Q 25.390625 66.40625 21.84375 63.234375 
Q 18.3125 60.0625 18.3125 54.390625 
z
" id="DejaVuSans-38"/>
      </defs>
      <g transform="translate(303.409076 266.598437)scale(0.1 -0.1)">
       <use xlink:href="#DejaVuSans-38"/>
       <use x="63.623047" xlink:href="#DejaVuSans-30"/>
       <use x="127.246094" xlink:href="#DejaVuSans-30"/>
      </g>
     </g>
    </g>
    <g id="xtick_6">
     <g id="line2d_6">
      <g>
       <use style="stroke:#000000;stroke-width:0.8;" x="373.886486" xlink:href="#mcc188f918a" y="252"/>
      </g>
     </g>
     <g id="text_6">
      <!-- 1000 -->
      <defs>
       <path d="M 12.40625 8.296875 
L 28.515625 8.296875 
L 28.515625 63.921875 
L 10.984375 60.40625 
L 10.984375 69.390625 
L 28.421875 72.90625 
L 38.28125 72.90625 
L 38.28125 8.296875 
L 54.390625 8.296875 
L 54.390625 0 
L 12.40625 0 
z
" id="DejaVuSans-31"/>
      </defs>
      <g transform="translate(361.161486 266.598437)scale(0.1 -0.1)">
       <use xlink:href="#DejaVuSans-31"/>
       <use x="63.623047" xlink:href="#DejaVuSans-30"/>
       <use x="127.246094" xlink:href="#DejaVuSans-30"/>
       <use x="190.869141" xlink:href="#DejaVuSans-30"/>
      </g>
     </g>
    </g>
   </g>
   <g id="matplotlib.axis_2">
    <g id="ytick_1">
     <g id="line2d_7">
      <defs>
       <path d="M 0 0 
L -3.5 0 
" id="m7398267089" style="stroke:#000000;stroke-width:0.8;"/>
      </defs>
      <g>
       <use style="stroke:#000000;stroke-width:0.8;" x="54" xlink:href="#m7398267089" y="241.992056"/>
      </g>
     </g>
     <g id="text_7">
      <!-- 0 -->
      <g transform="translate(40.6375 245.791275)scale(0.1 -0.1)">
       <use xlink:href="#DejaVuSans-30"/>
      </g>
     </g>
    </g>
    <g id="ytick_2">
     <g id="line2d_8">
      <g>
       <use style="stroke:#000000;stroke-width:0.8;" x="54" xlink:href="#m7398267089" y="214.813403"/>
      </g>
     </g>
     <g id="text_8">
      <!-- 100 -->
      <g transform="translate(27.9125 218.612621)scale(0.1 -0.1)">
       <use xlink:href="#DejaVuSans-31"/>
       <use x="63.623047" xlink:href="#DejaVuSans-30"/>
       <use x="127.246094" xlink:href="#DejaVuSans-30"/>
      </g>
     </g>
    </g>
    <g id="ytick_3">
     <g id="line2d_9">
      <g>
       <use style="stroke:#000000;stroke-width:0.8;" x="54" xlink:href="#m7398267089" y="187.634749"/>
      </g>
     </g>
     <g id="text_9">
      <!-- 200 -->
      <g transform="translate(27.9125 191.433968)scale(0.1 -0.1)">
       <use xlink:href="#DejaVuSans-32"/>
       <use x="63.623047" xlink:href="#DejaVuSans-30"/>
       <use x="127.246094" xlink:href="#DejaVuSans-30"/>
      </g>
     </g>
    </g>
    <g id="ytick_4">
     <g id="line2d_10">
      <g>
       <use style="stroke:#000000;stroke-width:0.8;" x="54" xlink:href="#m7398267089" y="160.456095"/>
      </g>
     </g>
     <g id="text_10">
      <!-- 300 -->
      <defs>
       <path d="M 40.578125 39.3125 
Q 47.65625 37.796875 51.625 33 
Q 55.609375 28.21875 55.609375 21.1875 
Q 55.609375 10.40625 48.1875 4.484375 
Q 40.765625 -1.421875 27.09375 -1.421875 
Q 22.515625 -1.421875 17.65625 -0.515625 
Q 12.796875 0.390625 7.625 2.203125 
L 7.625 11.71875 
Q 11.71875 9.328125 16.59375 8.109375 
Q 21.484375 6.890625 26.8125 6.890625 
Q 36.078125 6.890625 40.9375 10.546875 
Q 45.796875 14.203125 45.796875 21.1875 
Q 45.796875 27.640625 41.28125 31.265625 
Q 36.765625 34.90625 28.71875 34.90625 
L 20.21875 34.90625 
L 20.21875 43.015625 
L 29.109375 43.015625 
Q 36.375 43.015625 40.234375 45.921875 
Q 44.09375 48.828125 44.09375 54.296875 
Q 44.09375 59.90625 40.109375 62.90625 
Q 36.140625 65.921875 28.71875 65.921875 
Q 24.65625 65.921875 20.015625 65.03125 
Q 15.375 64.15625 9.8125 62.3125 
L 9.8125 71.09375 
Q 15.4375 72.65625 20.34375 73.4375 
Q 25.25 74.21875 29.59375 74.21875 
Q 40.828125 74.21875 47.359375 69.109375 
Q 53.90625 64.015625 53.90625 55.328125 
Q 53.90625 49.265625 50.4375 45.09375 
Q 46.96875 40.921875 40.578125 39.3125 
z
" id="DejaVuSans-33"/>
      </defs>
      <g transform="translate(27.9125 164.255314)scale(0.1 -0.1)">
       <use xlink:href="#DejaVuSans-33"/>
       <use x="63.623047" xlink:href="#DejaVuSans-30"/>
       <use x="127.246094" xlink:href="#DejaVuSans-30"/>
      </g>
     </g>
    </g>
    <g id="ytick_5">
     <g id="line2d_11">
      <g>
       <use style="stroke:#000000;stroke-width:0.8;" x="54" xlink:href="#m7398267089" y="133.277441"/>
      </g>
     </g>
     <g id="text_11">
      <!-- 400 -->
      <g transform="translate(27.9125 137.07666)scale(0.1 -0.1)">
       <use xlink:href="#DejaVuSans-34"/>
       <use x="63.623047" xlink:href="#DejaVuSans-30"/>
       <use x="127.246094" xlink:href="#DejaVuSans-30"/>
      </g>
     </g>
    </g>
    <g id="ytick_6">
     <g id="line2d_12">
      <g>
       <use style="stroke:#000000;stroke-width:0.8;" x="54" xlink:href="#m7398267089" y="106.098787"/>
      </g>
     </g>
     <g id="text_12">
      <!-- 500 -->
      <defs>
       <path d="M 10.796875 72.90625 
L 49.515625 72.90625 
L 49.515625 64.59375 
L 19.828125 64.59375 
L 19.828125 46.734375 
Q 21.96875 47.46875 24.109375 47.828125 
Q 26.265625 48.1875 28.421875 48.1875 
Q 40.625 48.1875 47.75 41.5 
Q 54.890625 34.8125 54.890625 23.390625 
Q 54.890625 11.625 47.5625 5.09375 
Q 40.234375 -1.421875 26.90625 -1.421875 
Q 22.3125 -1.421875 17.546875 -0.640625 
Q 12.796875 0.140625 7.71875 1.703125 
L 7.71875 11.625 
Q 12.109375 9.234375 16.796875 8.0625 
Q 21.484375 6.890625 26.703125 6.890625 
Q 35.15625 6.890625 40.078125 11.328125 
Q 45.015625 15.765625 45.015625 23.390625 
Q 45.015625 31 40.078125 35.4375 
Q 35.15625 39.890625 26.703125 39.890625 
Q 22.75 39.890625 18.8125 39.015625 
Q 14.890625 38.140625 10.796875 36.28125 
z
" id="DejaVuSans-35"/>
      </defs>
      <g transform="translate(27.9125 109.898006)scale(0.1 -0.1)">
       <use xlink:href="#DejaVuSans-35"/>
       <use x="63.623047" xlink:href="#DejaVuSans-30"/>
       <use x="127.246094" xlink:href="#DejaVuSans-30"/>
      </g>
     </g>
    </g>
    <g id="ytick_7">
     <g id="line2d_13">
      <g>
       <use style="stroke:#000000;stroke-width:0.8;" x="54" xlink:href="#m7398267089" y="78.920134"/>
      </g>
     </g>
     <g id="text_13">
      <!-- 600 -->
      <g transform="translate(27.9125 82.719352)scale(0.1 -0.1)">
       <use xlink:href="#DejaVuSans-36"/>
       <use x="63.623047" xlink:href="#DejaVuSans-30"/>
       <use x="127.246094" xlink:href="#DejaVuSans-30"/>
      </g>
     </g>
    </g>
    <g id="ytick_8">
     <g id="line2d_14">
      <g>
       <use style="stroke:#000000;stroke-width:0.8;" x="54" xlink:href="#m7398267089" y="51.74148"/>
      </g>
     </g>
     <g id="text_14">
      <!-- 700 -->
      <defs>
       <path d="M 8.203125 72.90625 
L 55.078125 72.90625 
L 55.078125 68.703125 
L 28.609375 0 
L 18.3125 0 
L 43.21875 64.59375 
L 8.203125 64.59375 
z
" id="DejaVuSans-37"/>
      </defs>
      <g transform="translate(27.9125 55.540699)scale(0.1 -0.1)">
       <use xlink:href="#DejaVuSans-37"/>
       <use x="63.623047" xlink:href="#DejaVuSans-30"/>
       <use x="127.246094" xlink:href="#DejaVuSans-30"/>
      </g>
     </g>
    </g>
   </g>
   <g id="line2d_15">
    <path clip-path="url(#pae60a5c212)" d="M 69.218182 241.992056 
L 70.741523 241.992056 
L 71.046192 241.506328 
L 71.35086 241.992103 
L 71.655528 241.842905 
L 71.960197 241.992129 
L 76.225553 241.992122 
L 76.530221 241.803807 
L 76.834889 241.992171 
L 77.139558 241.99214 
L 77.444226 241.830899 
L 77.748894 241.830683 
L 78.053563 241.992102 
L 79.576904 241.9922 
L 79.881572 241.880968 
L 80.186241 241.992208 
L 80.490909 241.832101 
L 80.795577 241.992222 
L 89.32629 241.992149 
L 89.630958 241.740474 
L 89.935627 241.992187 
L 90.240295 241.992182 
L 90.544963 241.763667 
L 90.849631 241.992242 
L 96.333661 241.992321 
L 96.638329 241.735945 
L 96.942998 241.992147 
L 97.247666 241.868335 
L 97.552334 241.992229 
L 110.348403 241.99248 
L 110.653071 241.832857 
L 111.567076 241.992429 
L 114.309091 241.992386 
L 114.613759 241.840821 
L 114.918428 241.992427 
L 115.832432 241.992436 
L 117.355774 241.992376 
L 117.660442 241.768655 
L 117.965111 241.992343 
L 119.79312 241.992552 
L 120.097789 241.831669 
L 120.402457 241.992297 
L 123.44914 241.992497 
L 123.753808 241.855689 
L 124.058477 241.992507 
L 128.323833 241.912016 
L 128.628501 241.835113 
L 128.93317 241.992449 
L 130.761179 241.992625 
L 131.370516 241.754528 
L 131.675184 241.992252 
L 134.417199 241.992293 
L 135.026536 241.601307 
L 135.331204 241.992424 
L 135.635872 241.992483 
L 135.940541 241.805981 
L 136.245209 241.992469 
L 137.159214 241.992536 
L 137.463882 241.513697 
L 137.76855 241.992798 
L 138.073219 241.992705 
L 138.377887 241.707198 
L 138.682555 241.992628 
L 140.510565 241.992331 
L 140.815233 241.837561 
L 141.42457 241.992603 
L 143.25258 241.99241 
L 143.557248 241.776381 
L 143.861916 241.992549 
L 145.08059 241.992883 
L 145.385258 241.858009 
L 145.689926 241.992622 
L 147.213268 241.912931 
L 147.517936 241.516524 
L 147.822604 241.992452 
L 149.955283 241.992786 
L 150.259951 241.402377 
L 150.564619 241.993217 
L 151.173956 241.993321 
L 151.478624 241.821422 
L 151.783292 241.992589 
L 153.001966 241.992583 
L 153.306634 241.848468 
L 153.611302 241.83361 
L 153.915971 241.992972 
L 156.048649 241.993284 
L 156.353317 241.628398 
L 156.657985 241.993072 
L 157.57199 241.992714 
L 157.876658 241.614206 
L 158.181327 241.913892 
L 158.790663 241.993305 
L 159.095332 241.920422 
L 159.4 241.992775 
L 159.704668 241.779141 
L 160.009337 241.787308 
L 160.314005 241.99236 
L 160.618673 241.992409 
L 160.923342 241.795429 
L 161.22801 241.993338 
L 162.446683 241.992586 
L 162.751351 241.676184 
L 163.05602 241.9927 
L 163.360688 241.993448 
L 163.665356 241.776864 
L 163.970025 241.839155 
L 164.274693 241.701673 
L 164.579361 241.992645 
L 165.493366 241.9925 
L 165.798034 241.840549 
L 166.712039 241.993229 
L 167.016708 241.764331 
L 167.321376 241.993461 
L 167.626044 241.754861 
L 167.930713 241.993315 
L 169.454054 241.992966 
L 169.758722 241.499771 
L 170.063391 241.992443 
L 170.368059 241.902357 
L 170.672727 241.992894 
L 170.977396 241.878344 
L 171.282064 241.992804 
L 171.586732 241.915972 
L 171.8914 241.992873 
L 172.500737 241.914859 
L 173.110074 241.993713 
L 173.414742 241.597132 
L 173.71941 241.918741 
L 174.024079 241.835462 
L 174.328747 241.994285 
L 174.633415 241.625557 
L 174.938084 241.9149 
L 175.242752 241.782683 
L 175.54742 241.522112 
L 175.852088 241.914355 
L 176.156757 241.993778 
L 176.461425 241.614387 
L 176.766093 241.563033 
L 177.070762 241.993811 
L 177.984767 241.104752 
L 178.289435 241.75698 
L 178.594103 241.993349 
L 178.898771 241.994367 
L 179.20344 241.690569 
L 180.726781 241.993834 
L 181.03145 241.444651 
L 181.336118 241.994363 
L 181.640786 241.762749 
L 182.250123 241.992734 
L 182.554791 241.756412 
L 183.164128 241.836715 
L 183.468796 241.992764 
L 183.773464 241.376613 
L 184.078133 241.995363 
L 184.687469 241.92076 
L 184.992138 241.993456 
L 185.601474 241.836671 
L 185.906143 241.641647 
L 186.210811 241.996089 
L 186.820147 241.916327 
L 187.124816 241.509197 
L 187.429484 241.99312 
L 188.038821 241.683182 
L 188.343489 241.916255 
L 188.648157 241.992835 
L 188.952826 241.755933 
L 189.257494 241.99282 
L 189.562162 241.519448 
L 189.86683 241.793979 
L 190.780835 241.294727 
L 191.085504 241.996331 
L 191.390172 241.447463 
L 191.69484 241.994118 
L 191.999509 241.993538 
L 192.304177 241.234413 
L 192.608845 240.995584 
L 193.218182 241.995046 
L 193.52285 241.508295 
L 193.827518 241.716044 
L 194.132187 241.32769 
L 194.436855 241.543695 
L 194.741523 241.918456 
L 195.35086 241.995748 
L 195.655528 241.243486 
L 195.960197 241.618256 
L 196.569533 241.466468 
L 196.874201 241.995692 
L 197.17887 241.685649 
L 197.483538 241.720745 
L 197.788206 241.553785 
L 198.092875 241.139781 
L 198.397543 241.078256 
L 198.702211 241.993163 
L 199.311548 241.568479 
L 200.225553 241.920722 
L 200.530221 241.278496 
L 200.834889 241.475596 
L 201.139558 241.99698 
L 201.748894 241.096661 
L 202.053563 241.768254 
L 202.358231 241.384818 
L 203.576904 241.994563 
L 203.881572 241.272615 
L 204.186241 241.548791 
L 204.490909 241.156937 
L 204.795577 241.919465 
L 205.100246 241.656189 
L 205.404914 241.5424 
L 205.709582 241.994026 
L 206.014251 241.100282 
L 206.318919 241.993463 
L 206.623587 241.845487 
L 206.928256 241.944193 
L 207.232924 240.796972 
L 207.84226 241.79915 
L 208.146929 241.095321 
L 208.756265 241.036486 
L 209.060934 240.181792 
L 209.67027 241.996276 
L 209.974939 241.491409 
L 210.279607 241.920148 
L 210.888943 240.777453 
L 211.193612 240.784397 
L 211.49828 241.621251 
L 211.802948 241.441881 
L 212.412285 241.388746 
L 212.716953 241.804263 
L 213.021622 241.568487 
L 213.32629 240.594421 
L 213.630958 241.285848 
L 213.935627 240.021589 
L 214.240295 241.616914 
L 214.849631 240.862389 
L 215.1543 241.927492 
L 215.458968 241.993918 
L 215.763636 241.779467 
L 216.068305 241.162699 
L 216.372973 241.101964 
L 216.677641 241.155615 
L 216.98231 241.92247 
L 217.286978 240.272952 
L 217.591646 241.181368 
L 217.896314 241.562518 
L 218.505651 240.946786 
L 218.810319 241.344847 
L 219.114988 241.059739 
L 219.419656 240.931469 
L 219.724324 241.562197 
L 220.028993 241.124711 
L 220.333661 241.307563 
L 220.638329 241.774721 
L 220.942998 240.47453 
L 221.247666 241.994383 
L 221.552334 240.547928 
L 221.857002 240.874547 
L 222.161671 240.576919 
L 222.466339 240.881104 
L 223.075676 240.769107 
L 223.380344 241.121721 
L 223.685012 241.174905 
L 223.989681 240.933828 
L 224.903686 241.784264 
L 225.208354 241.638179 
L 225.513022 240.829602 
L 225.81769 240.598876 
L 226.122359 241.560422 
L 226.427027 241.191489 
L 226.731695 241.995798 
L 227.036364 240.140453 
L 227.6457 241.995411 
L 227.950369 239.881929 
L 228.559705 241.167028 
L 228.864373 241.237367 
L 229.169042 241.444443 
L 229.47371 240.818997 
L 229.778378 240.91995 
L 230.083047 240.186453 
L 230.387715 241.633322 
L 230.692383 242.000417 
L 230.997052 240.701354 
L 231.30172 240.944994 
L 231.606388 240.546035 
L 231.911057 240.716676 
L 232.215725 240.711574 
L 232.520393 241.994903 
L 232.825061 241.720365 
L 233.12973 241.779343 
L 233.434398 240.544822 
L 233.739066 240.514116 
L 234.043735 240.849747 
L 234.348403 239.951443 
L 234.653071 240.558973 
L 234.95774 240.845737 
L 235.262408 239.652292 
L 235.567076 240.839283 
L 235.871744 240.200257 
L 236.176413 240.45251 
L 236.481081 239.494681 
L 236.785749 239.0216 
L 237.090418 239.395881 
L 237.395086 240.466258 
L 237.699754 239.142538 
L 238.004423 240.587552 
L 238.309091 238.964995 
L 238.613759 238.68633 
L 238.918428 241.184119 
L 239.223096 239.661923 
L 239.527764 240.590746 
L 239.832432 241.104807 
L 240.441769 241.043292 
L 240.746437 237.747786 
L 241.051106 238.103561 
L 241.355774 238.995731 
L 241.660442 240.627853 
L 241.965111 237.554711 
L 242.269779 241.083779 
L 242.574447 238.477476 
L 242.879115 240.732175 
L 243.183784 239.133429 
L 243.79312 238.738745 
L 244.097789 239.998937 
L 244.402457 240.419227 
L 244.707125 239.339759 
L 245.011794 239.559695 
L 245.316462 240.256046 
L 245.62113 238.561231 
L 245.925799 240.98623 
L 246.230467 241.953318 
L 246.535135 241.670165 
L 247.144472 239.640902 
L 248.058477 239.11614 
L 248.363145 237.289689 
L 248.667813 238.190233 
L 248.972482 239.782397 
L 249.27715 238.804341 
L 249.581818 239.813407 
L 249.886486 240.083653 
L 250.191155 238.984472 
L 250.495823 239.584661 
L 250.800491 238.466809 
L 251.10516 238.226032 
L 251.409828 238.950103 
L 251.714496 240.48036 
L 252.019165 239.517146 
L 252.323833 241.035865 
L 252.628501 238.579272 
L 252.93317 238.424114 
L 253.237838 240.197073 
L 253.542506 239.167708 
L 253.847174 239.749233 
L 254.151843 238.504376 
L 254.456511 240.287692 
L 254.761179 239.377933 
L 255.065848 238.008316 
L 255.370516 239.298732 
L 255.675184 238.139157 
L 255.979853 240.336306 
L 256.284521 239.543309 
L 256.589189 240.988126 
L 256.893857 239.011078 
L 257.198526 238.102432 
L 257.503194 240.125153 
L 257.807862 240.662146 
L 258.112531 239.344056 
L 258.417199 240.618476 
L 258.721867 239.768091 
L 259.026536 241.063661 
L 259.635872 238.2348 
L 259.940541 241.212399 
L 260.245209 240.047127 
L 260.549877 237.846038 
L 260.854545 241.415772 
L 261.159214 240.671748 
L 261.463882 237.722743 
L 261.76855 239.530678 
L 262.073219 239.181151 
L 262.377887 241.990976 
L 262.682555 240.044196 
L 262.987224 240.352129 
L 263.291892 239.868364 
L 263.59656 240.433043 
L 263.901229 241.603882 
L 264.205897 240.742006 
L 264.510565 240.671329 
L 264.815233 238.480296 
L 265.119902 239.647334 
L 265.42457 241.441294 
L 265.729238 237.789277 
L 266.338575 240.384374 
L 266.643243 239.031865 
L 266.947912 242.051726 
L 267.25258 240.293647 
L 267.557248 240.148177 
L 267.861916 241.353454 
L 268.166585 240.471083 
L 268.471253 241.258351 
L 268.775921 239.440873 
L 269.08059 238.933248 
L 269.385258 241.784334 
L 269.689926 238.713473 
L 269.994595 241.894829 
L 270.299263 241.520606 
L 270.603931 238.724508 
L 270.9086 240.411703 
L 271.213268 240.224884 
L 271.517936 239.502813 
L 271.822604 239.137848 
L 272.127273 238.961831 
L 272.431941 240.024934 
L 272.736609 236.865046 
L 273.041278 238.56902 
L 273.345946 241.1509 
L 273.650614 242.086771 
L 274.564619 237.801669 
L 274.869287 239.615599 
L 275.173956 237.891136 
L 275.478624 239.633157 
L 275.783292 238.959714 
L 276.087961 241.038472 
L 276.392629 239.591581 
L 276.697297 240.500749 
L 277.001966 240.57389 
L 277.306634 238.549599 
L 277.611302 241.474061 
L 277.915971 237.700449 
L 278.220639 238.466575 
L 278.525307 240.732278 
L 278.829975 238.403288 
L 279.134644 239.668407 
L 279.439312 237.852519 
L 279.74398 238.854773 
L 280.048649 236.904344 
L 280.353317 237.374704 
L 280.657985 239.335859 
L 280.962654 237.071261 
L 281.267322 239.232495 
L 281.57199 237.352786 
L 281.876658 237.847566 
L 282.181327 240.084671 
L 282.790663 237.758966 
L 283.095332 238.220295 
L 283.4 237.9519 
L 283.704668 238.784834 
L 284.009337 238.795769 
L 284.314005 239.517866 
L 284.618673 238.208768 
L 284.923342 238.237247 
L 285.22801 241.309408 
L 285.532678 241.239778 
L 285.837346 241.662177 
L 286.142015 239.303845 
L 286.446683 239.869968 
L 286.751351 238.394381 
L 287.05602 240.244496 
L 287.360688 239.975313 
L 287.665356 240.788206 
L 287.970025 239.526362 
L 288.274693 240.598101 
L 288.579361 240.408766 
L 288.884029 238.590897 
L 289.188698 240.867411 
L 289.493366 240.597163 
L 289.798034 241.004827 
L 290.407371 241.334164 
L 290.712039 239.748167 
L 291.016708 241.727748 
L 291.321376 240.424762 
L 291.626044 242.052136 
L 291.930713 241.58259 
L 292.235381 242.116364 
L 292.540049 241.051243 
L 292.844717 241.029414 
L 293.454054 239.013376 
L 293.758722 240.413392 
L 294.063391 240.907411 
L 294.368059 242.057016 
L 294.672727 240.256643 
L 294.977396 241.660853 
L 295.282064 241.063765 
L 295.586732 240.211294 
L 295.8914 240.932263 
L 296.196069 242.101309 
L 296.805405 240.497309 
L 297.414742 242.091546 
L 297.71941 241.288867 
L 298.024079 239.195838 
L 298.328747 240.632342 
L 298.633415 239.578484 
L 298.938084 240.211492 
L 299.242752 239.431713 
L 299.54742 239.324924 
L 299.852088 240.832926 
L 300.156757 240.449149 
L 300.461425 239.283869 
L 300.766093 239.718729 
L 301.37543 239.577986 
L 301.680098 239.800874 
L 301.984767 241.009576 
L 302.289435 241.327649 
L 302.898771 240.799181 
L 303.20344 240.378345 
L 303.508108 240.957233 
L 303.812776 241.778936 
L 304.117445 242.080264 
L 304.422113 239.545801 
L 304.726781 242.047566 
L 305.03145 241.277611 
L 305.336118 242.041623 
L 305.640786 241.132257 
L 305.945455 240.846858 
L 306.250123 241.363933 
L 306.554791 240.964786 
L 306.859459 240.174629 
L 307.164128 240.00245 
L 307.468796 241.157455 
L 307.773464 240.98214 
L 308.078133 240.519265 
L 308.382801 239.051713 
L 308.687469 238.422682 
L 308.992138 238.836163 
L 309.296806 238.483741 
L 309.601474 237.817823 
L 310.210811 241.619975 
L 310.515479 241.026631 
L 310.820147 238.998336 
L 311.124816 240.337127 
L 311.429484 240.350484 
L 311.734152 241.851331 
L 312.038821 240.567978 
L 312.343489 240.792818 
L 312.648157 240.262589 
L 312.952826 240.381484 
L 313.257494 239.802808 
L 313.562162 240.292865 
L 313.86683 241.244066 
L 314.171499 238.687902 
L 314.476167 240.141375 
L 314.780835 239.196008 
L 315.085504 240.905169 
L 315.390172 239.508445 
L 315.69484 240.224445 
L 315.999509 239.926121 
L 316.608845 238.304917 
L 316.913514 238.36082 
L 317.218182 237.826221 
L 317.52285 238.216084 
L 317.827518 240.256921 
L 318.132187 240.270387 
L 318.436855 239.941618 
L 318.741523 239.881606 
L 319.046192 238.444011 
L 319.35086 239.900836 
L 319.655528 237.969333 
L 319.960197 237.121177 
L 320.264865 238.31946 
L 320.569533 237.400025 
L 321.17887 239.215932 
L 321.483538 238.180588 
L 321.788206 239.660044 
L 322.092875 238.181119 
L 322.397543 238.667413 
L 322.702211 238.651021 
L 323.00688 238.904674 
L 323.311548 237.2775 
L 323.616216 237.833655 
L 323.920885 237.220693 
L 324.225553 239.644367 
L 324.530221 238.034613 
L 324.834889 239.555966 
L 325.139558 237.995128 
L 325.444226 238.11826 
L 325.748894 238.675358 
L 326.053563 237.913723 
L 326.358231 238.604722 
L 326.662899 238.678469 
L 326.967568 238.12438 
L 327.272236 238.41113 
L 327.576904 238.416947 
L 327.881572 239.19162 
L 328.186241 238.890658 
L 328.490909 239.837854 
L 329.100246 236.986656 
L 329.404914 238.436734 
L 329.709582 237.467416 
L 330.318919 238.829466 
L 330.623587 236.898833 
L 330.928256 236.986053 
L 331.232924 238.7817 
L 331.537592 239.849657 
L 332.146929 236.648597 
L 332.451597 237.518423 
L 332.756265 238.867768 
L 333.060934 239.433831 
L 333.365602 239.484632 
L 333.67027 239.115961 
L 333.974939 239.909511 
L 334.279607 238.6237 
L 334.584275 238.516236 
L 334.888943 238.882373 
L 335.193612 237.976276 
L 335.49828 237.592068 
L 335.802948 238.158393 
L 336.107617 237.81689 
L 336.412285 237.910393 
L 336.716953 239.064826 
L 337.021622 238.182333 
L 337.32629 239.327276 
L 337.630958 238.875185 
L 337.935627 237.255108 
L 338.240295 238.518142 
L 338.544963 237.348357 
L 339.1543 239.845483 
L 339.458968 238.261118 
L 339.763636 240.519512 
L 340.372973 239.614611 
L 340.677641 238.701342 
L 340.98231 238.267961 
L 341.286978 239.61687 
L 341.591646 239.252266 
L 341.896314 239.418218 
L 342.200983 239.323876 
L 342.505651 239.960958 
L 342.810319 239.598377 
L 343.114988 240.96149 
L 343.419656 240.148946 
L 343.724324 238.923353 
L 344.028993 239.893212 
L 344.333661 239.35147 
L 344.638329 239.48084 
L 344.942998 240.078493 
L 345.247666 238.29915 
L 345.552334 238.07535 
L 345.857002 239.754225 
L 346.161671 237.56373 
L 346.466339 238.749966 
L 346.771007 237.732043 
L 347.075676 238.596741 
L 347.380344 239.909262 
L 347.685012 237.843599 
L 347.989681 240.37163 
L 348.294349 238.664616 
L 348.599017 240.019664 
L 348.903686 238.165485 
L 349.208354 237.165792 
L 349.81769 238.924949 
L 350.122359 238.768801 
L 350.731695 237.263115 
L 351.036364 237.171458 
L 351.341032 238.747201 
L 351.6457 239.380045 
L 351.950369 237.973219 
L 352.255037 240.543489 
L 352.864373 239.020597 
L 353.169042 237.830918 
L 353.47371 237.718579 
L 353.778378 239.863775 
L 354.387715 239.332695 
L 354.692383 238.363058 
L 354.997052 238.970802 
L 355.30172 238.487632 
L 355.911057 239.082469 
L 356.215725 238.102316 
L 356.520393 238.301514 
L 356.825061 237.85868 
L 357.12973 238.540789 
L 357.434398 238.507152 
L 357.739066 236.423965 
L 358.348403 239.576545 
L 358.653071 238.594693 
L 358.95774 240.067805 
L 359.262408 239.647915 
L 359.871744 237.756185 
L 360.176413 237.54927 
L 360.481081 238.353821 
L 360.785749 238.304771 
L 361.090418 237.697198 
L 361.395086 239.103662 
L 362.309091 236.618335 
L 362.613759 238.757212 
L 362.918428 238.719864 
L 363.223096 239.201079 
L 363.832432 238.105078 
L 364.441769 238.912365 
L 364.746437 239.97363 
L 365.051106 237.690002 
L 365.355774 236.932226 
L 365.660442 238.262811 
L 365.965111 238.690144 
L 366.574447 236.967388 
L 367.183784 238.765445 
L 367.488452 238.267792 
L 367.79312 239.164578 
L 368.097789 237.196946 
L 368.402457 238.552141 
L 368.707125 237.316561 
L 369.011794 237.41708 
L 369.316462 238.838416 
L 369.62113 237.242647 
L 369.925799 239.297046 
L 370.230467 239.652982 
L 370.535135 239.669359 
L 370.839803 237.818605 
L 371.144472 237.315802 
L 371.44914 238.977396 
L 372.058477 236.898504 
L 372.363145 238.727781 
L 372.667813 236.807163 
L 372.972482 238.824076 
L 373.27715 237.620927 
L 373.581818 239.598738 
L 373.581818 239.598738 
" style="fill:none;stroke:#0000ff;stroke-linecap:square;stroke-width:1.5;"/>
   </g>
   <g id="line2d_16">
    <path clip-path="url(#pae60a5c212)" d="M 69.218182 241.992056 
L 70.741523 241.992056 
L 71.046192 241.595964 
L 71.35086 241.992056 
L 71.960197 241.992056 
L 96.333661 241.992056 
L 96.638329 241.880124 
L 96.942998 241.992056 
L 97.857002 241.992056 
L 134.721867 241.935419 
L 135.026536 241.815545 
L 135.331204 241.992056 
L 135.635872 241.992056 
L 135.940541 241.86659 
L 136.245209 241.992056 
L 137.159214 241.992056 
L 137.463882 241.686256 
L 137.76855 241.992056 
L 138.073219 241.992056 
L 138.377887 241.869479 
L 138.682555 241.992056 
L 147.213268 241.980719 
L 147.517936 241.748161 
L 147.822604 241.992056 
L 149.955283 241.992056 
L 150.259951 241.666341 
L 150.564619 241.992055 
L 156.048649 241.992055 
L 156.353317 241.843938 
L 156.657985 241.992056 
L 157.57199 241.992056 
L 157.876658 241.79647 
L 158.181327 241.980778 
L 159.704668 241.934286 
L 160.923342 241.939106 
L 161.837346 241.992056 
L 162.446683 241.992056 
L 162.751351 241.815357 
L 163.05602 241.992056 
L 169.454054 241.992055 
L 169.758722 241.616217 
L 170.063391 241.992056 
L 170.977396 241.950793 
L 171.8914 241.992056 
L 173.110074 241.992054 
L 173.414742 241.73443 
L 173.71941 241.98079 
L 174.633415 241.825615 
L 174.938084 241.980748 
L 175.242752 241.942494 
L 175.54742 241.644828 
L 175.852088 241.980801 
L 176.156757 241.992054 
L 176.461425 241.768791 
L 176.766093 241.6958 
L 177.070762 241.992054 
L 177.680098 241.705488 
L 177.984767 241.345082 
L 178.289435 241.892593 
L 178.898771 241.992053 
L 179.20344 241.852139 
L 180.117445 241.992056 
L 180.726781 241.992054 
L 181.03145 241.632918 
L 181.336118 241.992052 
L 181.640786 241.924374 
L 182.250123 241.992056 
L 182.859459 241.892569 
L 183.468796 241.992056 
L 183.773464 241.475105 
L 184.078133 241.992049 
L 185.601474 241.947398 
L 185.906143 241.761836 
L 186.210811 241.992046 
L 186.820147 241.980925 
L 187.124816 241.79279 
L 187.429484 241.992055 
L 188.038821 241.818511 
L 188.343489 241.980876 
L 189.257494 241.992056 
L 189.562162 241.677852 
L 189.86683 241.900362 
L 190.476167 241.463579 
L 190.780835 241.561022 
L 191.085504 241.992044 
L 191.390172 241.620971 
L 191.69484 241.992053 
L 191.999509 241.992054 
L 192.608845 240.773869 
L 192.913514 241.742184 
L 193.218182 241.992048 
L 193.52285 241.721423 
L 193.827518 241.908388 
L 194.132187 241.5601 
L 194.741523 241.981047 
L 195.35086 241.992045 
L 195.655528 241.361653 
L 195.960197 241.729391 
L 196.569533 241.555955 
L 196.874201 241.992046 
L 197.17887 241.870242 
L 197.483538 241.897194 
L 198.397543 241.207489 
L 198.702211 241.992056 
L 199.616216 241.81545 
L 200.225553 241.981071 
L 200.530221 241.44432 
L 201.139558 241.992038 
L 201.748894 241.288859 
L 202.053563 241.896073 
L 202.358231 241.418386 
L 202.662899 241.77459 
L 203.272236 241.945883 
L 203.576904 241.992051 
L 203.881572 241.499676 
L 204.186241 241.791404 
L 204.490909 241.23682 
L 204.795577 241.981115 
L 205.404914 241.790469 
L 205.709582 241.992053 
L 206.014251 241.026909 
L 206.318919 241.992055 
L 206.928256 241.981988 
L 207.232924 240.627949 
L 207.537592 241.544802 
L 207.84226 241.923655 
L 208.146929 241.083493 
L 208.756265 241.014716 
L 209.060934 238.97344 
L 209.365602 241.085128 
L 209.67027 241.992039 
L 209.974939 241.634657 
L 210.279607 241.981315 
L 210.584275 241.589996 
L 210.888943 240.240407 
L 211.193612 239.912656 
L 211.49828 241.824731 
L 211.802948 241.575029 
L 212.107617 241.63539 
L 212.412285 241.578548 
L 212.716953 241.900224 
L 213.021622 241.741012 
L 213.32629 239.987401 
L 213.630958 241.407909 
L 213.935627 237.218812 
L 214.240295 241.752517 
L 214.544963 241.45022 
L 214.849631 240.77536 
L 215.1543 241.981656 
L 215.763636 241.926329 
L 216.372973 240.705458 
L 216.98231 241.981386 
L 217.286978 239.17858 
L 217.591646 241.218369 
L 217.896314 241.508807 
L 218.200983 241.463794 
L 218.505651 240.544757 
L 218.810319 241.452654 
L 219.114988 241.236711 
L 219.419656 240.532341 
L 219.724324 241.60142 
L 220.028993 241.251608 
L 220.333661 241.489881 
L 220.638329 241.900158 
L 220.942998 239.646604 
L 221.247666 241.992053 
L 221.552334 239.093521 
L 221.857002 240.539443 
L 222.161671 239.843024 
L 222.466339 240.414701 
L 222.771007 240.204062 
L 223.685012 241.093901 
L 223.989681 240.610462 
L 224.599017 241.912286 
L 224.903686 241.949543 
L 225.208354 241.759621 
L 225.513022 240.092736 
L 225.81769 240.045244 
L 226.122359 241.715928 
L 226.427027 241.002247 
L 226.731695 241.992046 
L 227.036364 238.810283 
L 227.6457 241.992049 
L 227.950369 237.220609 
L 228.255037 239.876461 
L 228.559705 241.22074 
L 228.864373 241.486893 
L 229.169042 241.546798 
L 229.47371 239.672215 
L 229.778378 240.434272 
L 230.083047 238.488377 
L 230.387715 241.726368 
L 230.692383 241.991955 
L 230.997052 240.21244 
L 231.30172 240.440337 
L 231.606388 239.469865 
L 231.911057 240.271019 
L 232.215725 240.142326 
L 232.520393 241.992051 
L 233.12973 241.897917 
L 233.434398 239.193881 
L 233.739066 238.998681 
L 234.043735 240.281577 
L 234.348403 236.281868 
L 234.653071 239.867102 
L 234.95774 240.19404 
L 235.262408 234.942386 
L 235.567076 240.32549 
L 235.871744 238.125464 
L 236.176413 238.661856 
L 236.481081 235.053936 
L 236.785749 228.971597 
L 237.395086 239.296312 
L 237.699754 230.019541 
L 238.004423 239.409074 
L 238.309091 228.75746 
L 238.613759 226.698918 
L 238.918428 240.769915 
L 239.223096 226.766357 
L 239.527764 238.50877 
L 239.832432 239.754278 
L 240.137101 240.417888 
L 240.441769 238.909504 
L 240.746437 210.637892 
L 241.355774 228.30032 
L 241.660442 237.444052 
L 241.965111 204.246631 
L 242.269779 239.852974 
L 242.574447 217.381909 
L 242.879115 234.83516 
L 243.183784 221.907657 
L 243.488452 223.762888 
L 243.79312 223.04343 
L 244.097789 236.675453 
L 244.402457 237.454714 
L 244.707125 230.268587 
L 245.011794 228.05702 
L 245.316462 235.603915 
L 245.62113 216.099053 
L 245.925799 239.041992 
L 246.230467 241.982662 
L 246.535135 241.513662 
L 246.839803 237.673552 
L 247.144472 228.254078 
L 247.44914 227.912108 
L 247.753808 219.776729 
L 248.058477 227.449984 
L 248.363145 184.373256 
L 248.667813 209.726 
L 248.972482 219.829663 
L 249.27715 206.118245 
L 249.581818 209.709843 
L 249.886486 229.449701 
L 250.191155 202.630841 
L 250.495823 216.754265 
L 250.800491 209.380052 
L 251.10516 185.663318 
L 251.409828 205.56853 
L 251.714496 233.092863 
L 252.019165 215.017157 
L 252.323833 238.748301 
L 252.628501 181.377156 
L 252.93317 187.840098 
L 253.237838 222.269548 
L 253.542506 210.851356 
L 253.847174 223.533126 
L 254.151843 206.300934 
L 254.456511 226.873549 
L 254.761179 206.317626 
L 255.065848 177.196285 
L 255.370516 208.788124 
L 255.675184 189.342265 
L 255.979853 232.51996 
L 256.284521 219.638516 
L 256.589189 236.713407 
L 257.198526 178.274034 
L 257.503194 221.8498 
L 257.807862 229.295216 
L 258.112531 192.237607 
L 258.417199 222.208262 
L 258.721867 198.328095 
L 259.026536 239.266011 
L 259.635872 147.175605 
L 259.940541 226.554559 
L 260.245209 208.095314 
L 260.549877 167.76176 
L 260.854545 237.504815 
L 261.159214 222.002651 
L 261.463882 125.101169 
L 261.76855 153.955248 
L 262.073219 170.581786 
L 262.377887 241.960758 
L 262.682555 201.130977 
L 262.987224 216.735727 
L 263.291892 219.8307 
L 263.59656 224.679853 
L 263.901229 238.106298 
L 264.205897 214.768784 
L 264.510565 228.762474 
L 264.815233 174.914823 
L 265.119902 193.356478 
L 265.42457 237.925111 
L 265.729238 100.772342 
L 266.033907 166.496088 
L 266.338575 204.746095 
L 266.643243 184.241954 
L 266.947912 241.984456 
L 267.25258 204.486232 
L 267.861916 235.017275 
L 268.166585 217.440004 
L 268.471253 234.059014 
L 268.775921 191.392939 
L 269.08059 177.001038 
L 269.385258 241.246422 
L 269.689926 200.848963 
L 269.994595 241.825765 
L 270.299263 241.007433 
L 270.603931 187.144616 
L 270.9086 213.864524 
L 271.213268 222.202375 
L 271.517936 220.395739 
L 271.822604 221.046125 
L 272.127273 202.949661 
L 272.431941 218.174194 
L 272.736609 162.880468 
L 273.041278 177.711193 
L 273.345946 234.294961 
L 273.650614 241.966108 
L 273.955283 230.441424 
L 274.259951 199.527836 
L 274.564619 112.700999 
L 274.869287 215.628333 
L 275.173956 93.81458 
L 275.478624 169.834132 
L 275.783292 145.671622 
L 276.087961 236.543244 
L 276.392629 200.542859 
L 277.001966 219.417898 
L 277.306634 138.952752 
L 277.611302 240.601814 
L 277.915971 165.032001 
L 278.220639 183.4377 
L 278.525307 227.919847 
L 278.829975 193.760363 
L 279.134644 204.339311 
L 279.439312 170.742711 
L 279.74398 194.616183 
L 280.048649 159.867451 
L 280.353317 155.803741 
L 280.657985 223.510136 
L 280.962654 179.688538 
L 281.267322 221.315455 
L 281.57199 191.44144 
L 281.876658 193.807566 
L 282.181327 227.130648 
L 282.485995 216.304647 
L 282.790663 193.033508 
L 283.095332 196.349257 
L 283.4 182.786269 
L 283.704668 204.506938 
L 284.009337 201.704293 
L 284.314005 223.749604 
L 284.618673 153.292967 
L 284.923342 123.583815 
L 285.22801 236.485599 
L 285.532678 231.744542 
L 285.837346 235.275211 
L 286.142015 155.255449 
L 286.446683 200.975546 
L 286.751351 104.319966 
L 287.05602 180.050044 
L 287.360688 136.611745 
L 287.665356 169.157619 
L 287.970025 155.615121 
L 288.274693 186.620924 
L 288.579361 182.737731 
L 288.884029 45.133006 
L 289.188698 216.054675 
L 289.493366 197.010932 
L 289.798034 190.954629 
L 290.102703 192.082027 
L 290.407371 219.912154 
L 290.712039 113.315629 
L 291.016708 227.277156 
L 291.321376 200.94599 
L 291.626044 241.914136 
L 291.930713 227.731227 
L 292.235381 241.92981 
L 292.540049 182.796997 
L 292.844717 211.177445 
L 293.454054 95.990166 
L 293.758722 139.300016 
L 294.063391 203.727198 
L 294.368059 241.904791 
L 294.672727 140.51287 
L 294.977396 237.740887 
L 295.282064 173.755334 
L 295.586732 160.956895 
L 295.8914 181.186122 
L 296.196069 241.922115 
L 296.500737 204.977194 
L 296.805405 194.191707 
L 297.414742 241.921702 
L 297.71941 199.095949 
L 298.024079 94.878054 
L 298.328747 159.172317 
L 298.633415 123.009404 
L 298.938084 123.439785 
L 299.242752 181.786088 
L 299.54742 137.442109 
L 299.852088 189.342887 
L 300.156757 169.838362 
L 300.461425 96.274626 
L 300.766093 158.082865 
L 301.070762 137.673477 
L 301.37543 138.456315 
L 301.680098 129.443798 
L 301.984767 160.425605 
L 302.289435 219.668767 
L 302.594103 193.075921 
L 302.898771 139.961683 
L 303.20344 48.312663 
L 303.508108 203.046562 
L 303.812776 230.730089 
L 304.117445 241.864338 
L 304.422113 97.458185 
L 304.726781 241.852621 
L 305.03145 213.90945 
L 305.336118 241.617805 
L 305.640786 216.183004 
L 305.945455 143.679107 
L 306.250123 205.875658 
L 306.554791 151.38614 
L 307.164128 129.741869 
L 307.468796 216.179219 
L 307.773464 192.356476 
L 308.078133 189.867856 
L 308.382801 64.856756 
L 308.687469 47.865071 
L 308.992138 127.150524 
L 309.296806 102.789723 
L 309.906143 127.434711 
L 310.210811 223.432539 
L 310.515479 212.696471 
L 310.820147 142.292646 
L 311.124816 167.158452 
L 311.429484 182.38189 
L 311.734152 240.654428 
L 312.038821 189.274666 
L 312.343489 200.283257 
L 312.648157 140.668678 
L 312.952826 159.473822 
L 313.257494 49.240675 
L 313.86683 135.579797 
L 314.171499 75.629333 
L 314.476167 152.070749 
L 314.780835 139.792961 
L 315.085504 207.709471 
L 315.390172 113.068443 
L 315.69484 201.02909 
L 315.999509 181.080254 
L 316.304177 176.127055 
L 316.608845 84.81258 
L 316.913514 134.037113 
L 317.218182 44.443636 
L 317.52285 69.690987 
L 317.827518 216.163973 
L 318.132187 199.141236 
L 318.436855 199.706001 
L 318.741523 205.906741 
L 319.046192 187.108088 
L 319.35086 224.5706 
L 319.655528 189.656841 
L 319.960197 167.906196 
L 320.264865 181.381676 
L 320.569533 136.765081 
L 320.874201 185.590776 
L 321.17887 197.907858 
L 321.483538 181.563984 
L 321.788206 213.548299 
L 322.092875 153.817812 
L 322.397543 196.456328 
L 322.702211 200.328365 
L 323.00688 211.167212 
L 323.311548 199.364285 
L 323.616216 211.919046 
L 323.920885 195.737236 
L 324.225553 228.791877 
L 324.530221 206.089866 
L 324.834889 224.664013 
L 325.139558 213.93459 
L 325.444226 212.80744 
L 325.748894 216.086614 
L 326.053563 209.476977 
L 326.358231 223.576524 
L 326.662899 220.76557 
L 326.967568 200.214987 
L 327.272236 213.251405 
L 327.576904 209.369792 
L 327.881572 220.856319 
L 328.186241 222.377956 
L 328.490909 233.74621 
L 328.795577 210.417877 
L 329.100246 166.547421 
L 329.404914 186.740892 
L 329.709582 162.994016 
L 330.014251 202.670957 
L 330.318919 198.388743 
L 330.623587 137.89938 
L 330.928256 136.696056 
L 331.232924 167.180323 
L 331.537592 223.371529 
L 332.146929 112.652386 
L 332.756265 208.737539 
L 333.060934 220.434083 
L 333.365602 205.20269 
L 333.67027 200.822534 
L 333.974939 206.402788 
L 334.584275 119.944739 
L 334.888943 162.941845 
L 335.193612 160.105115 
L 335.49828 117.737651 
L 335.802948 134.234641 
L 336.107617 181.015696 
L 336.412285 91.746172 
L 336.716953 167.691449 
L 337.021622 107.948459 
L 337.32629 180.633508 
L 337.630958 179.232582 
L 337.935627 153.787272 
L 338.240295 176.455951 
L 338.544963 126.998789 
L 338.849631 120.335979 
L 339.1543 183.925076 
L 339.458968 98.457213 
L 339.763636 205.97166 
L 340.068305 190.630684 
L 340.372973 141.770289 
L 340.677641 68.460881 
L 340.98231 154.606489 
L 341.286978 119.681753 
L 341.591646 150.100794 
L 341.896314 109.512791 
L 342.200983 140.448399 
L 342.505651 90.388086 
L 342.810319 138.387945 
L 343.114988 213.305258 
L 343.419656 127.874639 
L 343.724324 131.497118 
L 344.028993 145.276716 
L 344.333661 137.894005 
L 344.638329 139.763069 
L 344.942998 149.274776 
L 345.247666 102.831974 
L 345.552334 139.622929 
L 345.857002 220.212759 
L 346.161671 143.677481 
L 346.466339 184.488625 
L 346.771007 132.622742 
L 347.075676 186.604555 
L 347.380344 200.324981 
L 347.685012 125.505788 
L 347.989681 219.261095 
L 348.294349 152.160045 
L 348.599017 208.998736 
L 348.903686 179.141859 
L 349.208354 169.862606 
L 349.513022 192.621192 
L 349.81769 189.18622 
L 350.122359 187.379621 
L 350.427027 187.799178 
L 351.036364 118.564606 
L 351.341032 174.237189 
L 351.6457 195.648416 
L 351.950369 105.798278 
L 352.255037 224.238097 
L 353.169042 111.998557 
L 353.47371 123.548614 
L 353.778378 185.819225 
L 354.083047 211.106558 
L 354.387715 207.138871 
L 354.692383 101.212071 
L 354.997052 156.323875 
L 355.30172 133.025926 
L 355.606388 163.844693 
L 355.911057 118.143158 
L 356.215725 125.031654 
L 356.520393 186.924793 
L 356.825061 159.653334 
L 357.12973 193.844783 
L 357.434398 182.898996 
L 357.739066 137.031443 
L 358.043735 150.86234 
L 358.348403 206.497587 
L 358.653071 146.979653 
L 358.95774 197.222494 
L 359.262408 201.312007 
L 359.871744 99.303527 
L 360.176413 148.006085 
L 360.481081 168.936402 
L 360.785749 161.714095 
L 361.090418 164.764195 
L 361.395086 170.225846 
L 361.699754 136.215088 
L 362.004423 117.153627 
L 362.309091 106.737736 
L 362.613759 202.022436 
L 363.223096 207.752352 
L 363.832432 166.220013 
L 364.441769 193.690439 
L 364.746437 228.062842 
L 365.051106 162.664244 
L 365.355774 135.376936 
L 365.660442 183.813178 
L 365.965111 192.770874 
L 366.269779 196.82896 
L 366.574447 158.399623 
L 366.879115 198.209105 
L 367.183784 205.375182 
L 367.488452 204.182902 
L 367.79312 217.649314 
L 368.097789 174.31516 
L 368.402457 210.391696 
L 368.707125 171.89126 
L 369.011794 167.180523 
L 369.316462 207.228909 
L 369.62113 167.259094 
L 369.925799 213.144509 
L 370.230467 201.125046 
L 370.535135 207.550965 
L 370.839803 130.622844 
L 371.144472 116.463287 
L 371.44914 188.469289 
L 371.753808 174.951994 
L 372.058477 142.86067 
L 372.363145 198.661081 
L 372.667813 120.057093 
L 372.972482 200.220449 
L 373.27715 179.621098 
L 373.581818 219.585007 
L 373.581818 219.585007 
" style="fill:none;stroke:#ff0000;stroke-linecap:square;stroke-width:1.5;"/>
   </g>
   <g id="patch_3">
    <path d="M 54 252 
L 54 34.56 
" style="fill:none;stroke:#000000;stroke-linecap:square;stroke-linejoin:miter;stroke-width:0.8;"/>
   </g>
   <g id="patch_4">
    <path d="M 388.8 252 
L 388.8 34.56 
" style="fill:none;stroke:#000000;stroke-linecap:square;stroke-linejoin:miter;stroke-width:0.8;"/>
   </g>
   <g id="patch_5">
    <path d="M 54 252 
L 388.8 252 
" style="fill:none;stroke:#000000;stroke-linecap:square;stroke-linejoin:miter;stroke-width:0.8;"/>
   </g>
   <g id="patch_6">
    <path d="M 54 34.56 
L 388.8 34.56 
" style="fill:none;stroke:#000000;stroke-linecap:square;stroke-linejoin:miter;stroke-width:0.8;"/>
   </g>
   <g id="text_15">
    <!-- gamma = 0.98 -->
    <defs>
     <path d="M 45.40625 27.984375 
Q 45.40625 37.75 41.375 43.109375 
Q 37.359375 48.484375 30.078125 48.484375 
Q 22.859375 48.484375 18.828125 43.109375 
Q 14.796875 37.75 14.796875 27.984375 
Q 14.796875 18.265625 18.828125 12.890625 
Q 22.859375 7.515625 30.078125 7.515625 
Q 37.359375 7.515625 41.375 12.890625 
Q 45.40625 18.265625 45.40625 27.984375 
z
M 54.390625 6.78125 
Q 54.390625 -7.171875 48.1875 -13.984375 
Q 42 -20.796875 29.203125 -20.796875 
Q 24.46875 -20.796875 20.265625 -20.09375 
Q 16.0625 -19.390625 12.109375 -17.921875 
L 12.109375 -9.1875 
Q 16.0625 -11.328125 19.921875 -12.34375 
Q 23.78125 -13.375 27.78125 -13.375 
Q 36.625 -13.375 41.015625 -8.765625 
Q 45.40625 -4.15625 45.40625 5.171875 
L 45.40625 9.625 
Q 42.625 4.78125 38.28125 2.390625 
Q 33.9375 0 27.875 0 
Q 17.828125 0 11.671875 7.65625 
Q 5.515625 15.328125 5.515625 27.984375 
Q 5.515625 40.671875 11.671875 48.328125 
Q 17.828125 56 27.875 56 
Q 33.9375 56 38.28125 53.609375 
Q 42.625 51.21875 45.40625 46.390625 
L 45.40625 54.6875 
L 54.390625 54.6875 
z
" id="DejaVuSans-67"/>
     <path d="M 34.28125 27.484375 
Q 23.390625 27.484375 19.1875 25 
Q 14.984375 22.515625 14.984375 16.5 
Q 14.984375 11.71875 18.140625 8.90625 
Q 21.296875 6.109375 26.703125 6.109375 
Q 34.1875 6.109375 38.703125 11.40625 
Q 43.21875 16.703125 43.21875 25.484375 
L 43.21875 27.484375 
z
M 52.203125 31.203125 
L 52.203125 0 
L 43.21875 0 
L 43.21875 8.296875 
Q 40.140625 3.328125 35.546875 0.953125 
Q 30.953125 -1.421875 24.3125 -1.421875 
Q 15.921875 -1.421875 10.953125 3.296875 
Q 6 8.015625 6 15.921875 
Q 6 25.140625 12.171875 29.828125 
Q 18.359375 34.515625 30.609375 34.515625 
L 43.21875 34.515625 
L 43.21875 35.40625 
Q 43.21875 41.609375 39.140625 45 
Q 35.0625 48.390625 27.6875 48.390625 
Q 23 48.390625 18.546875 47.265625 
Q 14.109375 46.140625 10.015625 43.890625 
L 10.015625 52.203125 
Q 14.9375 54.109375 19.578125 55.046875 
Q 24.21875 56 28.609375 56 
Q 40.484375 56 46.34375 49.84375 
Q 52.203125 43.703125 52.203125 31.203125 
z
" id="DejaVuSans-61"/>
     <path d="M 52 44.1875 
Q 55.375 50.25 60.0625 53.125 
Q 64.75 56 71.09375 56 
Q 79.640625 56 84.28125 50.015625 
Q 88.921875 44.046875 88.921875 33.015625 
L 88.921875 0 
L 79.890625 0 
L 79.890625 32.71875 
Q 79.890625 40.578125 77.09375 44.375 
Q 74.3125 48.1875 68.609375 48.1875 
Q 61.625 48.1875 57.5625 43.546875 
Q 53.515625 38.921875 53.515625 30.90625 
L 53.515625 0 
L 44.484375 0 
L 44.484375 32.71875 
Q 44.484375 40.625 41.703125 44.40625 
Q 38.921875 48.1875 33.109375 48.1875 
Q 26.21875 48.1875 22.15625 43.53125 
Q 18.109375 38.875 18.109375 30.90625 
L 18.109375 0 
L 9.078125 0 
L 9.078125 54.6875 
L 18.109375 54.6875 
L 18.109375 46.1875 
Q 21.1875 51.21875 25.484375 53.609375 
Q 29.78125 56 35.6875 56 
Q 41.65625 56 45.828125 52.96875 
Q 50 49.953125 52 44.1875 
z
" id="DejaVuSans-6d"/>
     <path id="DejaVuSans-20"/>
     <path d="M 10.59375 45.40625 
L 73.1875 45.40625 
L 73.1875 37.203125 
L 10.59375 37.203125 
z
M 10.59375 25.484375 
L 73.1875 25.484375 
L 73.1875 17.1875 
L 10.59375 17.1875 
z
" id="DejaVuSans-3d"/>
     <path d="M 10.6875 12.40625 
L 21 12.40625 
L 21 0 
L 10.6875 0 
z
" id="DejaVuSans-2e"/>
     <path d="M 10.984375 1.515625 
L 10.984375 10.5 
Q 14.703125 8.734375 18.5 7.8125 
Q 22.3125 6.890625 25.984375 6.890625 
Q 35.75 6.890625 40.890625 13.453125 
Q 46.046875 20.015625 46.78125 33.40625 
Q 43.953125 29.203125 39.59375 26.953125 
Q 35.25 24.703125 29.984375 24.703125 
Q 19.046875 24.703125 12.671875 31.3125 
Q 6.296875 37.9375 6.296875 49.421875 
Q 6.296875 60.640625 12.9375 67.421875 
Q 19.578125 74.21875 30.609375 74.21875 
Q 43.265625 74.21875 49.921875 64.515625 
Q 56.59375 54.828125 56.59375 36.375 
Q 56.59375 19.140625 48.40625 8.859375 
Q 40.234375 -1.421875 26.421875 -1.421875 
Q 22.703125 -1.421875 18.890625 -0.6875 
Q 15.09375 0.046875 10.984375 1.515625 
z
M 30.609375 32.421875 
Q 37.25 32.421875 41.125 36.953125 
Q 45.015625 41.5 45.015625 49.421875 
Q 45.015625 57.28125 41.125 61.84375 
Q 37.25 66.40625 30.609375 66.40625 
Q 23.96875 66.40625 20.09375 61.84375 
Q 16.21875 57.28125 16.21875 49.421875 
Q 16.21875 41.5 20.09375 36.953125 
Q 23.96875 32.421875 30.609375 32.421875 
z
" id="DejaVuSans-39"/>
    </defs>
    <g transform="translate(176.3475 28.56)scale(0.12 -0.12)">
     <use xlink:href="#DejaVuSans-67"/>
     <use x="63.476562" xlink:href="#DejaVuSans-61"/>
     <use x="124.755859" xlink:href="#DejaVuSans-6d"/>
     <use x="222.167969" xlink:href="#DejaVuSans-6d"/>
     <use x="319.580078" xlink:href="#DejaVuSans-61"/>
     <use x="380.859375" xlink:href="#DejaVuSans-20"/>
     <use x="412.646484" xlink:href="#DejaVuSans-3d"/>
     <use x="496.435547" xlink:href="#DejaVuSans-20"/>
     <use x="528.222656" xlink:href="#DejaVuSans-30"/>
     <use x="591.845703" xlink:href="#DejaVuSans-2e"/>
     <use x="623.632812" xlink:href="#DejaVuSans-39"/>
     <use x="687.255859" xlink:href="#DejaVuSans-38"/>
    </g>
   </g>
   <g id="legend_1">
    <g id="patch_7">
     <path d="M 61 71.91625 
L 144.773438 71.91625 
Q 146.773438 71.91625 146.773438 69.91625 
L 146.773438 41.56 
Q 146.773438 39.56 144.773438 39.56 
L 61 39.56 
Q 59 39.56 59 41.56 
L 59 69.91625 
Q 59 71.91625 61 71.91625 
z
" style="fill:#ffffff;opacity:0.8;stroke:#cccccc;stroke-linejoin:miter;"/>
    </g>
    <g id="line2d_17">
     <path d="M 63 47.658437 
L 83 47.658437 
" style="fill:none;stroke:#0000ff;stroke-linecap:square;stroke-width:1.5;"/>
    </g>
    <g id="line2d_18"/>
    <g id="text_16">
     <!-- Actor Loss -->
     <defs>
      <path d="M 34.1875 63.1875 
L 20.796875 26.90625 
L 47.609375 26.90625 
z
M 28.609375 72.90625 
L 39.796875 72.90625 
L 67.578125 0 
L 57.328125 0 
L 50.6875 18.703125 
L 17.828125 18.703125 
L 11.1875 0 
L 0.78125 0 
z
" id="DejaVuSans-41"/>
      <path d="M 48.78125 52.59375 
L 48.78125 44.1875 
Q 44.96875 46.296875 41.140625 47.34375 
Q 37.3125 48.390625 33.40625 48.390625 
Q 24.65625 48.390625 19.8125 42.84375 
Q 14.984375 37.3125 14.984375 27.296875 
Q 14.984375 17.28125 19.8125 11.734375 
Q 24.65625 6.203125 33.40625 6.203125 
Q 37.3125 6.203125 41.140625 7.25 
Q 44.96875 8.296875 48.78125 10.40625 
L 48.78125 2.09375 
Q 45.015625 0.34375 40.984375 -0.53125 
Q 36.96875 -1.421875 32.421875 -1.421875 
Q 20.0625 -1.421875 12.78125 6.34375 
Q 5.515625 14.109375 5.515625 27.296875 
Q 5.515625 40.671875 12.859375 48.328125 
Q 20.21875 56 33.015625 56 
Q 37.15625 56 41.109375 55.140625 
Q 45.0625 54.296875 48.78125 52.59375 
z
" id="DejaVuSans-63"/>
      <path d="M 18.3125 70.21875 
L 18.3125 54.6875 
L 36.8125 54.6875 
L 36.8125 47.703125 
L 18.3125 47.703125 
L 18.3125 18.015625 
Q 18.3125 11.328125 20.140625 9.421875 
Q 21.96875 7.515625 27.59375 7.515625 
L 36.8125 7.515625 
L 36.8125 0 
L 27.59375 0 
Q 17.1875 0 13.234375 3.875 
Q 9.28125 7.765625 9.28125 18.015625 
L 9.28125 47.703125 
L 2.6875 47.703125 
L 2.6875 54.6875 
L 9.28125 54.6875 
L 9.28125 70.21875 
z
" id="DejaVuSans-74"/>
      <path d="M 30.609375 48.390625 
Q 23.390625 48.390625 19.1875 42.75 
Q 14.984375 37.109375 14.984375 27.296875 
Q 14.984375 17.484375 19.15625 11.84375 
Q 23.34375 6.203125 30.609375 6.203125 
Q 37.796875 6.203125 41.984375 11.859375 
Q 46.1875 17.53125 46.1875 27.296875 
Q 46.1875 37.015625 41.984375 42.703125 
Q 37.796875 48.390625 30.609375 48.390625 
z
M 30.609375 56 
Q 42.328125 56 49.015625 48.375 
Q 55.71875 40.765625 55.71875 27.296875 
Q 55.71875 13.875 49.015625 6.21875 
Q 42.328125 -1.421875 30.609375 -1.421875 
Q 18.84375 -1.421875 12.171875 6.21875 
Q 5.515625 13.875 5.515625 27.296875 
Q 5.515625 40.765625 12.171875 48.375 
Q 18.84375 56 30.609375 56 
z
" id="DejaVuSans-6f"/>
      <path d="M 41.109375 46.296875 
Q 39.59375 47.171875 37.8125 47.578125 
Q 36.03125 48 33.890625 48 
Q 26.265625 48 22.1875 43.046875 
Q 18.109375 38.09375 18.109375 28.8125 
L 18.109375 0 
L 9.078125 0 
L 9.078125 54.6875 
L 18.109375 54.6875 
L 18.109375 46.1875 
Q 20.953125 51.171875 25.484375 53.578125 
Q 30.03125 56 36.53125 56 
Q 37.453125 56 38.578125 55.875 
Q 39.703125 55.765625 41.0625 55.515625 
z
" id="DejaVuSans-72"/>
      <path d="M 9.8125 72.90625 
L 19.671875 72.90625 
L 19.671875 8.296875 
L 55.171875 8.296875 
L 55.171875 0 
L 9.8125 0 
z
" id="DejaVuSans-4c"/>
      <path d="M 44.28125 53.078125 
L 44.28125 44.578125 
Q 40.484375 46.53125 36.375 47.5 
Q 32.28125 48.484375 27.875 48.484375 
Q 21.1875 48.484375 17.84375 46.4375 
Q 14.5 44.390625 14.5 40.28125 
Q 14.5 37.15625 16.890625 35.375 
Q 19.28125 33.59375 26.515625 31.984375 
L 29.59375 31.296875 
Q 39.15625 29.25 43.1875 25.515625 
Q 47.21875 21.78125 47.21875 15.09375 
Q 47.21875 7.46875 41.1875 3.015625 
Q 35.15625 -1.421875 24.609375 -1.421875 
Q 20.21875 -1.421875 15.453125 -0.5625 
Q 10.6875 0.296875 5.421875 2 
L 5.421875 11.28125 
Q 10.40625 8.6875 15.234375 7.390625 
Q 20.0625 6.109375 24.8125 6.109375 
Q 31.15625 6.109375 34.5625 8.28125 
Q 37.984375 10.453125 37.984375 14.40625 
Q 37.984375 18.0625 35.515625 20.015625 
Q 33.0625 21.96875 24.703125 23.78125 
L 21.578125 24.515625 
Q 13.234375 26.265625 9.515625 29.90625 
Q 5.8125 33.546875 5.8125 39.890625 
Q 5.8125 47.609375 11.28125 51.796875 
Q 16.75 56 26.8125 56 
Q 31.78125 56 36.171875 55.265625 
Q 40.578125 54.546875 44.28125 53.078125 
z
" id="DejaVuSans-73"/>
     </defs>
     <g transform="translate(91 51.158437)scale(0.1 -0.1)">
      <use xlink:href="#DejaVuSans-41"/>
      <use x="68.392578" xlink:href="#DejaVuSans-63"/>
      <use x="123.373047" xlink:href="#DejaVuSans-74"/>
      <use x="162.582031" xlink:href="#DejaVuSans-6f"/>
      <use x="223.763672" xlink:href="#DejaVuSans-72"/>
      <use x="264.876953" xlink:href="#DejaVuSans-20"/>
      <use x="296.664062" xlink:href="#DejaVuSans-4c"/>
      <use x="352.361328" xlink:href="#DejaVuSans-6f"/>
      <use x="413.542969" xlink:href="#DejaVuSans-73"/>
      <use x="465.642578" xlink:href="#DejaVuSans-73"/>
     </g>
    </g>
    <g id="line2d_19">
     <path d="M 63 62.336562 
L 83 62.336562 
" style="fill:none;stroke:#ff0000;stroke-linecap:square;stroke-width:1.5;"/>
    </g>
    <g id="line2d_20"/>
    <g id="text_17">
     <!-- Critic Loss -->
     <defs>
      <path d="M 64.40625 67.28125 
L 64.40625 56.890625 
Q 59.421875 61.53125 53.78125 63.8125 
Q 48.140625 66.109375 41.796875 66.109375 
Q 29.296875 66.109375 22.65625 58.46875 
Q 16.015625 50.828125 16.015625 36.375 
Q 16.015625 21.96875 22.65625 14.328125 
Q 29.296875 6.6875 41.796875 6.6875 
Q 48.140625 6.6875 53.78125 8.984375 
Q 59.421875 11.28125 64.40625 15.921875 
L 64.40625 5.609375 
Q 59.234375 2.09375 53.4375 0.328125 
Q 47.65625 -1.421875 41.21875 -1.421875 
Q 24.65625 -1.421875 15.125 8.703125 
Q 5.609375 18.84375 5.609375 36.375 
Q 5.609375 53.953125 15.125 64.078125 
Q 24.65625 74.21875 41.21875 74.21875 
Q 47.75 74.21875 53.53125 72.484375 
Q 59.328125 70.75 64.40625 67.28125 
z
" id="DejaVuSans-43"/>
      <path d="M 9.421875 54.6875 
L 18.40625 54.6875 
L 18.40625 0 
L 9.421875 0 
z
M 9.421875 75.984375 
L 18.40625 75.984375 
L 18.40625 64.59375 
L 9.421875 64.59375 
z
" id="DejaVuSans-69"/>
     </defs>
     <g transform="translate(91 65.836562)scale(0.1 -0.1)">
      <use xlink:href="#DejaVuSans-43"/>
      <use x="69.824219" xlink:href="#DejaVuSans-72"/>
      <use x="110.9375" xlink:href="#DejaVuSans-69"/>
      <use x="138.720703" xlink:href="#DejaVuSans-74"/>
      <use x="177.929688" xlink:href="#DejaVuSans-69"/>
      <use x="205.712891" xlink:href="#DejaVuSans-63"/>
      <use x="260.693359" xlink:href="#DejaVuSans-20"/>
      <use x="292.480469" xlink:href="#DejaVuSans-4c"/>
      <use x="348.177734" xlink:href="#DejaVuSans-6f"/>
      <use x="409.359375" xlink:href="#DejaVuSans-73"/>
      <use x="461.458984" xlink:href="#DejaVuSans-73"/>
     </g>
    </g>
   </g>
  </g>
 </g>
 <defs>
  <clipPath id="pae60a5c212">
   <rect height="217.44" width="334.8" x="54" y="34.56"/>
  </clipPath>
 </defs>
</svg>
