<?xml version="1.0" encoding="utf-8" standalone="no"?>
<!DOCTYPE svg PUBLIC "-//W3C//DTD SVG 1.1//EN"
  "http://www.w3.org/Graphics/SVG/1.1/DTD/svg11.dtd">
<!-- Created with matplotlib (https://matplotlib.org/) -->
<svg height="345.6pt" version="1.1" viewBox="0 0 460.8 345.6" width="460.8pt" xmlns="http://www.w3.org/2000/svg" xmlns:xlink="http://www.w3.org/1999/xlink">
 <defs>
  <style type="text/css">
*{stroke-linecap:butt;stroke-linejoin:round;}
  </style>
 </defs>
 <g id="figure_1">
  <g id="patch_1">
   <path d="M 0 345.6 
L 460.8 345.6 
L 460.8 0 
L 0 0 
z
" style="fill:#ffffff;"/>
  </g>
  <g id="axes_1">
   <g id="patch_2">
    <path d="M 74.88 328.32 
L 385.92 328.32 
L 385.92 17.28 
L 74.88 17.28 
z
" style="fill:#ffffff;"/>
   </g>
   <g id="PolyCollection_1">
    <path clip-path="url(#pb1f814b7e0)" d="M 74.88 17.28 
L 74.88 32.832 
L 90.432 32.832 
L 90.432 17.28 
L 74.88 17.28 
z
"/>
    <path clip-path="url(#pb1f814b7e0)" d="M 90.432 17.28 
L 90.432 32.832 
L 105.984 32.832 
L 105.984 17.28 
L 90.432 17.28 
z
"/>
    <path clip-path="url(#pb1f814b7e0)" d="M 105.984 17.28 
L 105.984 32.832 
L 121.536 32.832 
L 121.536 17.28 
L 105.984 17.28 
z
"/>
    <path clip-path="url(#pb1f814b7e0)" d="M 121.536 17.28 
L 121.536 32.832 
L 137.088 32.832 
L 137.088 17.28 
L 121.536 17.28 
z
"/>
    <path clip-path="url(#pb1f814b7e0)" d="M 137.088 17.28 
L 137.088 32.832 
L 152.64 32.832 
L 152.64 17.28 
L 137.088 17.28 
z
"/>
    <path clip-path="url(#pb1f814b7e0)" d="M 152.64 17.28 
L 152.64 32.832 
L 168.192 32.832 
L 168.192 17.28 
L 152.64 17.28 
z
"/>
    <path clip-path="url(#pb1f814b7e0)" d="M 168.192 17.28 
L 168.192 32.832 
L 183.744 32.832 
L 183.744 17.28 
L 168.192 17.28 
z
"/>
    <path clip-path="url(#pb1f814b7e0)" d="M 183.744 17.28 
L 183.744 32.832 
L 199.296 32.832 
L 199.296 17.28 
L 183.744 17.28 
z
"/>
    <path clip-path="url(#pb1f814b7e0)" d="M 199.296 17.28 
L 199.296 32.832 
L 214.848 32.832 
L 214.848 17.28 
L 199.296 17.28 
z
"/>
    <path clip-path="url(#pb1f814b7e0)" d="M 214.848 17.28 
L 214.848 32.832 
L 230.4 32.832 
L 230.4 17.28 
L 214.848 17.28 
z
"/>
    <path clip-path="url(#pb1f814b7e0)" d="M 230.4 17.28 
L 230.4 32.832 
L 245.952 32.832 
L 245.952 17.28 
L 230.4 17.28 
z
"/>
    <path clip-path="url(#pb1f814b7e0)" d="M 245.952 17.28 
L 245.952 32.832 
L 261.504 32.832 
L 261.504 17.28 
L 245.952 17.28 
z
"/>
    <path clip-path="url(#pb1f814b7e0)" d="M 261.504 17.28 
L 261.504 32.832 
L 277.056 32.832 
L 277.056 17.28 
L 261.504 17.28 
z
"/>
    <path clip-path="url(#pb1f814b7e0)" d="M 277.056 17.28 
L 277.056 32.832 
L 292.608 32.832 
L 292.608 17.28 
L 277.056 17.28 
z
"/>
    <path clip-path="url(#pb1f814b7e0)" d="M 292.608 17.28 
L 292.608 32.832 
L 308.16 32.832 
L 308.16 17.28 
L 292.608 17.28 
z
"/>
    <path clip-path="url(#pb1f814b7e0)" d="M 308.16 17.28 
L 308.16 32.832 
L 323.712 32.832 
L 323.712 17.28 
L 308.16 17.28 
z
"/>
    <path clip-path="url(#pb1f814b7e0)" d="M 323.712 17.28 
L 323.712 32.832 
L 339.264 32.832 
L 339.264 17.28 
L 323.712 17.28 
z
"/>
    <path clip-path="url(#pb1f814b7e0)" d="M 339.264 17.28 
L 339.264 32.832 
L 354.816 32.832 
L 354.816 17.28 
L 339.264 17.28 
z
"/>
    <path clip-path="url(#pb1f814b7e0)" d="M 354.816 17.28 
L 354.816 32.832 
L 370.368 32.832 
L 370.368 17.28 
L 354.816 17.28 
z
"/>
    <path clip-path="url(#pb1f814b7e0)" d="M 370.368 17.28 
L 370.368 32.832 
L 385.92 32.832 
L 385.92 17.28 
L 370.368 17.28 
z
"/>
    <path clip-path="url(#pb1f814b7e0)" d="M 74.88 32.832 
L 74.88 48.384 
L 90.432 48.384 
L 90.432 32.832 
L 74.88 32.832 
z
"/>
    <path clip-path="url(#pb1f814b7e0)" d="M 90.432 32.832 
L 90.432 48.384 
L 105.984 48.384 
L 105.984 32.832 
L 90.432 32.832 
z
"/>
    <path clip-path="url(#pb1f814b7e0)" d="M 105.984 32.832 
L 105.984 48.384 
L 121.536 48.384 
L 121.536 32.832 
L 105.984 32.832 
z
"/>
    <path clip-path="url(#pb1f814b7e0)" d="M 121.536 32.832 
L 121.536 48.384 
L 137.088 48.384 
L 137.088 32.832 
L 121.536 32.832 
z
"/>
    <path clip-path="url(#pb1f814b7e0)" d="M 137.088 32.832 
L 137.088 48.384 
L 152.64 48.384 
L 152.64 32.832 
L 137.088 32.832 
z
"/>
    <path clip-path="url(#pb1f814b7e0)" d="M 152.64 32.832 
L 152.64 48.384 
L 168.192 48.384 
L 168.192 32.832 
L 152.64 32.832 
z
"/>
    <path clip-path="url(#pb1f814b7e0)" d="M 168.192 32.832 
L 168.192 48.384 
L 183.744 48.384 
L 183.744 32.832 
L 168.192 32.832 
z
"/>
    <path clip-path="url(#pb1f814b7e0)" d="M 183.744 32.832 
L 183.744 48.384 
L 199.296 48.384 
L 199.296 32.832 
L 183.744 32.832 
z
"/>
    <path clip-path="url(#pb1f814b7e0)" d="M 199.296 32.832 
L 199.296 48.384 
L 214.848 48.384 
L 214.848 32.832 
L 199.296 32.832 
z
"/>
    <path clip-path="url(#pb1f814b7e0)" d="M 214.848 32.832 
L 214.848 48.384 
L 230.4 48.384 
L 230.4 32.832 
L 214.848 32.832 
z
"/>
    <path clip-path="url(#pb1f814b7e0)" d="M 230.4 32.832 
L 230.4 48.384 
L 245.952 48.384 
L 245.952 32.832 
L 230.4 32.832 
z
"/>
    <path clip-path="url(#pb1f814b7e0)" d="M 245.952 32.832 
L 245.952 48.384 
L 261.504 48.384 
L 261.504 32.832 
L 245.952 32.832 
z
"/>
    <path clip-path="url(#pb1f814b7e0)" d="M 261.504 32.832 
L 261.504 48.384 
L 277.056 48.384 
L 277.056 32.832 
L 261.504 32.832 
z
"/>
    <path clip-path="url(#pb1f814b7e0)" d="M 277.056 32.832 
L 277.056 48.384 
L 292.608 48.384 
L 292.608 32.832 
L 277.056 32.832 
z
"/>
    <path clip-path="url(#pb1f814b7e0)" d="M 292.608 32.832 
L 292.608 48.384 
L 308.16 48.384 
L 308.16 32.832 
L 292.608 32.832 
z
"/>
    <path clip-path="url(#pb1f814b7e0)" d="M 308.16 32.832 
L 308.16 48.384 
L 323.712 48.384 
L 323.712 32.832 
L 308.16 32.832 
z
"/>
    <path clip-path="url(#pb1f814b7e0)" d="M 323.712 32.832 
L 323.712 48.384 
L 339.264 48.384 
L 339.264 32.832 
L 323.712 32.832 
z
"/>
    <path clip-path="url(#pb1f814b7e0)" d="M 339.264 32.832 
L 339.264 48.384 
L 354.816 48.384 
L 354.816 32.832 
L 339.264 32.832 
z
"/>
    <path clip-path="url(#pb1f814b7e0)" d="M 354.816 32.832 
L 354.816 48.384 
L 370.368 48.384 
L 370.368 32.832 
L 354.816 32.832 
z
"/>
    <path clip-path="url(#pb1f814b7e0)" d="M 370.368 32.832 
L 370.368 48.384 
L 385.92 48.384 
L 385.92 32.832 
L 370.368 32.832 
z
"/>
    <path clip-path="url(#pb1f814b7e0)" d="M 74.88 48.384 
L 74.88 63.936 
L 90.432 63.936 
L 90.432 48.384 
L 74.88 48.384 
z
"/>
    <path clip-path="url(#pb1f814b7e0)" d="M 90.432 48.384 
L 90.432 63.936 
L 105.984 63.936 
L 105.984 48.384 
L 90.432 48.384 
z
"/>
    <path clip-path="url(#pb1f814b7e0)" d="M 105.984 48.384 
L 105.984 63.936 
L 121.536 63.936 
L 121.536 48.384 
L 105.984 48.384 
z
"/>
    <path clip-path="url(#pb1f814b7e0)" d="M 121.536 48.384 
L 121.536 63.936 
L 137.088 63.936 
L 137.088 48.384 
L 121.536 48.384 
z
"/>
    <path clip-path="url(#pb1f814b7e0)" d="M 137.088 48.384 
L 137.088 63.936 
L 152.64 63.936 
L 152.64 48.384 
L 137.088 48.384 
z
"/>
    <path clip-path="url(#pb1f814b7e0)" d="M 152.64 48.384 
L 152.64 63.936 
L 168.192 63.936 
L 168.192 48.384 
L 152.64 48.384 
z
"/>
    <path clip-path="url(#pb1f814b7e0)" d="M 168.192 48.384 
L 168.192 63.936 
L 183.744 63.936 
L 183.744 48.384 
L 168.192 48.384 
z
"/>
    <path clip-path="url(#pb1f814b7e0)" d="M 183.744 48.384 
L 183.744 63.936 
L 199.296 63.936 
L 199.296 48.384 
L 183.744 48.384 
z
"/>
    <path clip-path="url(#pb1f814b7e0)" d="M 199.296 48.384 
L 199.296 63.936 
L 214.848 63.936 
L 214.848 48.384 
L 199.296 48.384 
z
"/>
    <path clip-path="url(#pb1f814b7e0)" d="M 214.848 48.384 
L 214.848 63.936 
L 230.4 63.936 
L 230.4 48.384 
L 214.848 48.384 
z
"/>
    <path clip-path="url(#pb1f814b7e0)" d="M 230.4 48.384 
L 230.4 63.936 
L 245.952 63.936 
L 245.952 48.384 
L 230.4 48.384 
z
"/>
    <path clip-path="url(#pb1f814b7e0)" d="M 245.952 48.384 
L 245.952 63.936 
L 261.504 63.936 
L 261.504 48.384 
L 245.952 48.384 
z
"/>
    <path clip-path="url(#pb1f814b7e0)" d="M 261.504 48.384 
L 261.504 63.936 
L 277.056 63.936 
L 277.056 48.384 
L 261.504 48.384 
z
"/>
    <path clip-path="url(#pb1f814b7e0)" d="M 277.056 48.384 
L 277.056 63.936 
L 292.608 63.936 
L 292.608 48.384 
L 277.056 48.384 
z
"/>
    <path clip-path="url(#pb1f814b7e0)" d="M 292.608 48.384 
L 292.608 63.936 
L 308.16 63.936 
L 308.16 48.384 
L 292.608 48.384 
z
"/>
    <path clip-path="url(#pb1f814b7e0)" d="M 308.16 48.384 
L 308.16 63.936 
L 323.712 63.936 
L 323.712 48.384 
L 308.16 48.384 
z
"/>
    <path clip-path="url(#pb1f814b7e0)" d="M 323.712 48.384 
L 323.712 63.936 
L 339.264 63.936 
L 339.264 48.384 
L 323.712 48.384 
z
"/>
    <path clip-path="url(#pb1f814b7e0)" d="M 339.264 48.384 
L 339.264 63.936 
L 354.816 63.936 
L 354.816 48.384 
L 339.264 48.384 
z
"/>
    <path clip-path="url(#pb1f814b7e0)" d="M 354.816 48.384 
L 354.816 63.936 
L 370.368 63.936 
L 370.368 48.384 
L 354.816 48.384 
z
"/>
    <path clip-path="url(#pb1f814b7e0)" d="M 370.368 48.384 
L 370.368 63.936 
L 385.92 63.936 
L 385.92 48.384 
L 370.368 48.384 
z
"/>
    <path clip-path="url(#pb1f814b7e0)" d="M 74.88 63.936 
L 74.88 79.488 
L 90.432 79.488 
L 90.432 63.936 
L 74.88 63.936 
z
"/>
    <path clip-path="url(#pb1f814b7e0)" d="M 90.432 63.936 
L 90.432 79.488 
L 105.984 79.488 
L 105.984 63.936 
L 90.432 63.936 
z
"/>
    <path clip-path="url(#pb1f814b7e0)" d="M 105.984 63.936 
L 105.984 79.488 
L 121.536 79.488 
L 121.536 63.936 
L 105.984 63.936 
z
"/>
    <path clip-path="url(#pb1f814b7e0)" d="M 121.536 63.936 
L 121.536 79.488 
L 137.088 79.488 
L 137.088 63.936 
L 121.536 63.936 
z
"/>
    <path clip-path="url(#pb1f814b7e0)" d="M 137.088 63.936 
L 137.088 79.488 
L 152.64 79.488 
L 152.64 63.936 
L 137.088 63.936 
z
"/>
    <path clip-path="url(#pb1f814b7e0)" d="M 152.64 63.936 
L 152.64 79.488 
L 168.192 79.488 
L 168.192 63.936 
L 152.64 63.936 
z
"/>
    <path clip-path="url(#pb1f814b7e0)" d="M 168.192 63.936 
L 168.192 79.488 
L 183.744 79.488 
L 183.744 63.936 
L 168.192 63.936 
z
"/>
    <path clip-path="url(#pb1f814b7e0)" d="M 183.744 63.936 
L 183.744 79.488 
L 199.296 79.488 
L 199.296 63.936 
L 183.744 63.936 
z
"/>
    <path clip-path="url(#pb1f814b7e0)" d="M 199.296 63.936 
L 199.296 79.488 
L 214.848 79.488 
L 214.848 63.936 
L 199.296 63.936 
z
"/>
    <path clip-path="url(#pb1f814b7e0)" d="M 214.848 63.936 
L 214.848 79.488 
L 230.4 79.488 
L 230.4 63.936 
L 214.848 63.936 
z
"/>
    <path clip-path="url(#pb1f814b7e0)" d="M 230.4 63.936 
L 230.4 79.488 
L 245.952 79.488 
L 245.952 63.936 
L 230.4 63.936 
z
"/>
    <path clip-path="url(#pb1f814b7e0)" d="M 245.952 63.936 
L 245.952 79.488 
L 261.504 79.488 
L 261.504 63.936 
L 245.952 63.936 
z
"/>
    <path clip-path="url(#pb1f814b7e0)" d="M 261.504 63.936 
L 261.504 79.488 
L 277.056 79.488 
L 277.056 63.936 
L 261.504 63.936 
z
"/>
    <path clip-path="url(#pb1f814b7e0)" d="M 277.056 63.936 
L 277.056 79.488 
L 292.608 79.488 
L 292.608 63.936 
L 277.056 63.936 
z
"/>
    <path clip-path="url(#pb1f814b7e0)" d="M 292.608 63.936 
L 292.608 79.488 
L 308.16 79.488 
L 308.16 63.936 
L 292.608 63.936 
z
"/>
    <path clip-path="url(#pb1f814b7e0)" d="M 308.16 63.936 
L 308.16 79.488 
L 323.712 79.488 
L 323.712 63.936 
L 308.16 63.936 
z
"/>
    <path clip-path="url(#pb1f814b7e0)" d="M 323.712 63.936 
L 323.712 79.488 
L 339.264 79.488 
L 339.264 63.936 
L 323.712 63.936 
z
"/>
    <path clip-path="url(#pb1f814b7e0)" d="M 339.264 63.936 
L 339.264 79.488 
L 354.816 79.488 
L 354.816 63.936 
L 339.264 63.936 
z
"/>
    <path clip-path="url(#pb1f814b7e0)" d="M 354.816 63.936 
L 354.816 79.488 
L 370.368 79.488 
L 370.368 63.936 
L 354.816 63.936 
z
"/>
    <path clip-path="url(#pb1f814b7e0)" d="M 370.368 63.936 
L 370.368 79.488 
L 385.92 79.488 
L 385.92 63.936 
L 370.368 63.936 
z
"/>
    <path clip-path="url(#pb1f814b7e0)" d="M 74.88 79.488 
L 74.88 95.04 
L 90.432 95.04 
L 90.432 79.488 
L 74.88 79.488 
z
"/>
    <path clip-path="url(#pb1f814b7e0)" d="M 90.432 79.488 
L 90.432 95.04 
L 105.984 95.04 
L 105.984 79.488 
L 90.432 79.488 
z
"/>
    <path clip-path="url(#pb1f814b7e0)" d="M 105.984 79.488 
L 105.984 95.04 
L 121.536 95.04 
L 121.536 79.488 
L 105.984 79.488 
z
"/>
    <path clip-path="url(#pb1f814b7e0)" d="M 121.536 79.488 
L 121.536 95.04 
L 137.088 95.04 
L 137.088 79.488 
L 121.536 79.488 
z
"/>
    <path clip-path="url(#pb1f814b7e0)" d="M 137.088 79.488 
L 137.088 95.04 
L 152.64 95.04 
L 152.64 79.488 
L 137.088 79.488 
z
"/>
    <path clip-path="url(#pb1f814b7e0)" d="M 152.64 79.488 
L 152.64 95.04 
L 168.192 95.04 
L 168.192 79.488 
L 152.64 79.488 
z
"/>
    <path clip-path="url(#pb1f814b7e0)" d="M 168.192 79.488 
L 168.192 95.04 
L 183.744 95.04 
L 183.744 79.488 
L 168.192 79.488 
z
"/>
    <path clip-path="url(#pb1f814b7e0)" d="M 183.744 79.488 
L 183.744 95.04 
L 199.296 95.04 
L 199.296 79.488 
L 183.744 79.488 
z
"/>
    <path clip-path="url(#pb1f814b7e0)" d="M 199.296 79.488 
L 199.296 95.04 
L 214.848 95.04 
L 214.848 79.488 
L 199.296 79.488 
z
"/>
    <path clip-path="url(#pb1f814b7e0)" d="M 214.848 79.488 
L 214.848 95.04 
L 230.4 95.04 
L 230.4 79.488 
L 214.848 79.488 
z
"/>
    <path clip-path="url(#pb1f814b7e0)" d="M 230.4 79.488 
L 230.4 95.04 
L 245.952 95.04 
L 245.952 79.488 
L 230.4 79.488 
z
"/>
    <path clip-path="url(#pb1f814b7e0)" d="M 245.952 79.488 
L 245.952 95.04 
L 261.504 95.04 
L 261.504 79.488 
L 245.952 79.488 
z
"/>
    <path clip-path="url(#pb1f814b7e0)" d="M 261.504 79.488 
L 261.504 95.04 
L 277.056 95.04 
L 277.056 79.488 
L 261.504 79.488 
z
"/>
    <path clip-path="url(#pb1f814b7e0)" d="M 277.056 79.488 
L 277.056 95.04 
L 292.608 95.04 
L 292.608 79.488 
L 277.056 79.488 
z
"/>
    <path clip-path="url(#pb1f814b7e0)" d="M 292.608 79.488 
L 292.608 95.04 
L 308.16 95.04 
L 308.16 79.488 
L 292.608 79.488 
z
"/>
    <path clip-path="url(#pb1f814b7e0)" d="M 308.16 79.488 
L 308.16 95.04 
L 323.712 95.04 
L 323.712 79.488 
L 308.16 79.488 
z
"/>
    <path clip-path="url(#pb1f814b7e0)" d="M 323.712 79.488 
L 323.712 95.04 
L 339.264 95.04 
L 339.264 79.488 
L 323.712 79.488 
z
"/>
    <path clip-path="url(#pb1f814b7e0)" d="M 339.264 79.488 
L 339.264 95.04 
L 354.816 95.04 
L 354.816 79.488 
L 339.264 79.488 
z
"/>
    <path clip-path="url(#pb1f814b7e0)" d="M 354.816 79.488 
L 354.816 95.04 
L 370.368 95.04 
L 370.368 79.488 
L 354.816 79.488 
z
"/>
    <path clip-path="url(#pb1f814b7e0)" d="M 370.368 79.488 
L 370.368 95.04 
L 385.92 95.04 
L 385.92 79.488 
L 370.368 79.488 
z
"/>
    <path clip-path="url(#pb1f814b7e0)" d="M 74.88 95.04 
L 74.88 110.592 
L 90.432 110.592 
L 90.432 95.04 
L 74.88 95.04 
z
"/>
    <path clip-path="url(#pb1f814b7e0)" d="M 90.432 95.04 
L 90.432 110.592 
L 105.984 110.592 
L 105.984 95.04 
L 90.432 95.04 
z
"/>
    <path clip-path="url(#pb1f814b7e0)" d="M 105.984 95.04 
L 105.984 110.592 
L 121.536 110.592 
L 121.536 95.04 
L 105.984 95.04 
z
"/>
    <path clip-path="url(#pb1f814b7e0)" d="M 121.536 95.04 
L 121.536 110.592 
L 137.088 110.592 
L 137.088 95.04 
L 121.536 95.04 
z
"/>
    <path clip-path="url(#pb1f814b7e0)" d="M 137.088 95.04 
L 137.088 110.592 
L 152.64 110.592 
L 152.64 95.04 
L 137.088 95.04 
z
"/>
    <path clip-path="url(#pb1f814b7e0)" d="M 152.64 95.04 
L 152.64 110.592 
L 168.192 110.592 
L 168.192 95.04 
L 152.64 95.04 
z
"/>
    <path clip-path="url(#pb1f814b7e0)" d="M 168.192 95.04 
L 168.192 110.592 
L 183.744 110.592 
L 183.744 95.04 
L 168.192 95.04 
z
"/>
    <path clip-path="url(#pb1f814b7e0)" d="M 183.744 95.04 
L 183.744 110.592 
L 199.296 110.592 
L 199.296 95.04 
L 183.744 95.04 
z
"/>
    <path clip-path="url(#pb1f814b7e0)" d="M 199.296 95.04 
L 199.296 110.592 
L 214.848 110.592 
L 214.848 95.04 
L 199.296 95.04 
z
"/>
    <path clip-path="url(#pb1f814b7e0)" d="M 214.848 95.04 
L 214.848 110.592 
L 230.4 110.592 
L 230.4 95.04 
L 214.848 95.04 
z
"/>
    <path clip-path="url(#pb1f814b7e0)" d="M 230.4 95.04 
L 230.4 110.592 
L 245.952 110.592 
L 245.952 95.04 
L 230.4 95.04 
z
"/>
    <path clip-path="url(#pb1f814b7e0)" d="M 245.952 95.04 
L 245.952 110.592 
L 261.504 110.592 
L 261.504 95.04 
L 245.952 95.04 
z
"/>
    <path clip-path="url(#pb1f814b7e0)" d="M 261.504 95.04 
L 261.504 110.592 
L 277.056 110.592 
L 277.056 95.04 
L 261.504 95.04 
z
"/>
    <path clip-path="url(#pb1f814b7e0)" d="M 277.056 95.04 
L 277.056 110.592 
L 292.608 110.592 
L 292.608 95.04 
L 277.056 95.04 
z
"/>
    <path clip-path="url(#pb1f814b7e0)" d="M 292.608 95.04 
L 292.608 110.592 
L 308.16 110.592 
L 308.16 95.04 
L 292.608 95.04 
z
"/>
    <path clip-path="url(#pb1f814b7e0)" d="M 308.16 95.04 
L 308.16 110.592 
L 323.712 110.592 
L 323.712 95.04 
L 308.16 95.04 
z
"/>
    <path clip-path="url(#pb1f814b7e0)" d="M 323.712 95.04 
L 323.712 110.592 
L 339.264 110.592 
L 339.264 95.04 
L 323.712 95.04 
z
"/>
    <path clip-path="url(#pb1f814b7e0)" d="M 339.264 95.04 
L 339.264 110.592 
L 354.816 110.592 
L 354.816 95.04 
L 339.264 95.04 
z
"/>
    <path clip-path="url(#pb1f814b7e0)" d="M 354.816 95.04 
L 354.816 110.592 
L 370.368 110.592 
L 370.368 95.04 
L 354.816 95.04 
z
"/>
    <path clip-path="url(#pb1f814b7e0)" d="M 370.368 95.04 
L 370.368 110.592 
L 385.92 110.592 
L 385.92 95.04 
L 370.368 95.04 
z
"/>
    <path clip-path="url(#pb1f814b7e0)" d="M 74.88 110.592 
L 74.88 126.144 
L 90.432 126.144 
L 90.432 110.592 
L 74.88 110.592 
z
"/>
    <path clip-path="url(#pb1f814b7e0)" d="M 90.432 110.592 
L 90.432 126.144 
L 105.984 126.144 
L 105.984 110.592 
L 90.432 110.592 
z
"/>
    <path clip-path="url(#pb1f814b7e0)" d="M 105.984 110.592 
L 105.984 126.144 
L 121.536 126.144 
L 121.536 110.592 
L 105.984 110.592 
z
"/>
    <path clip-path="url(#pb1f814b7e0)" d="M 121.536 110.592 
L 121.536 126.144 
L 137.088 126.144 
L 137.088 110.592 
L 121.536 110.592 
z
"/>
    <path clip-path="url(#pb1f814b7e0)" d="M 137.088 110.592 
L 137.088 126.144 
L 152.64 126.144 
L 152.64 110.592 
L 137.088 110.592 
z
"/>
    <path clip-path="url(#pb1f814b7e0)" d="M 152.64 110.592 
L 152.64 126.144 
L 168.192 126.144 
L 168.192 110.592 
L 152.64 110.592 
z
"/>
    <path clip-path="url(#pb1f814b7e0)" d="M 168.192 110.592 
L 168.192 126.144 
L 183.744 126.144 
L 183.744 110.592 
L 168.192 110.592 
z
"/>
    <path clip-path="url(#pb1f814b7e0)" d="M 183.744 110.592 
L 183.744 126.144 
L 199.296 126.144 
L 199.296 110.592 
L 183.744 110.592 
z
"/>
    <path clip-path="url(#pb1f814b7e0)" d="M 199.296 110.592 
L 199.296 126.144 
L 214.848 126.144 
L 214.848 110.592 
L 199.296 110.592 
z
"/>
    <path clip-path="url(#pb1f814b7e0)" d="M 214.848 110.592 
L 214.848 126.144 
L 230.4 126.144 
L 230.4 110.592 
L 214.848 110.592 
z
"/>
    <path clip-path="url(#pb1f814b7e0)" d="M 230.4 110.592 
L 230.4 126.144 
L 245.952 126.144 
L 245.952 110.592 
L 230.4 110.592 
z
"/>
    <path clip-path="url(#pb1f814b7e0)" d="M 245.952 110.592 
L 245.952 126.144 
L 261.504 126.144 
L 261.504 110.592 
L 245.952 110.592 
z
"/>
    <path clip-path="url(#pb1f814b7e0)" d="M 261.504 110.592 
L 261.504 126.144 
L 277.056 126.144 
L 277.056 110.592 
L 261.504 110.592 
z
"/>
    <path clip-path="url(#pb1f814b7e0)" d="M 277.056 110.592 
L 277.056 126.144 
L 292.608 126.144 
L 292.608 110.592 
L 277.056 110.592 
z
"/>
    <path clip-path="url(#pb1f814b7e0)" d="M 292.608 110.592 
L 292.608 126.144 
L 308.16 126.144 
L 308.16 110.592 
L 292.608 110.592 
z
"/>
    <path clip-path="url(#pb1f814b7e0)" d="M 308.16 110.592 
L 308.16 126.144 
L 323.712 126.144 
L 323.712 110.592 
L 308.16 110.592 
z
"/>
    <path clip-path="url(#pb1f814b7e0)" d="M 323.712 110.592 
L 323.712 126.144 
L 339.264 126.144 
L 339.264 110.592 
L 323.712 110.592 
z
"/>
    <path clip-path="url(#pb1f814b7e0)" d="M 339.264 110.592 
L 339.264 126.144 
L 354.816 126.144 
L 354.816 110.592 
L 339.264 110.592 
z
"/>
    <path clip-path="url(#pb1f814b7e0)" d="M 354.816 110.592 
L 354.816 126.144 
L 370.368 126.144 
L 370.368 110.592 
L 354.816 110.592 
z
"/>
    <path clip-path="url(#pb1f814b7e0)" d="M 370.368 110.592 
L 370.368 126.144 
L 385.92 126.144 
L 385.92 110.592 
L 370.368 110.592 
z
"/>
    <path clip-path="url(#pb1f814b7e0)" d="M 74.88 126.144 
L 74.88 141.696 
L 90.432 141.696 
L 90.432 126.144 
L 74.88 126.144 
z
"/>
    <path clip-path="url(#pb1f814b7e0)" d="M 90.432 126.144 
L 90.432 141.696 
L 105.984 141.696 
L 105.984 126.144 
L 90.432 126.144 
z
"/>
    <path clip-path="url(#pb1f814b7e0)" d="M 105.984 126.144 
L 105.984 141.696 
L 121.536 141.696 
L 121.536 126.144 
L 105.984 126.144 
z
"/>
    <path clip-path="url(#pb1f814b7e0)" d="M 121.536 126.144 
L 121.536 141.696 
L 137.088 141.696 
L 137.088 126.144 
L 121.536 126.144 
z
"/>
    <path clip-path="url(#pb1f814b7e0)" d="M 137.088 126.144 
L 137.088 141.696 
L 152.64 141.696 
L 152.64 126.144 
L 137.088 126.144 
z
"/>
    <path clip-path="url(#pb1f814b7e0)" d="M 152.64 126.144 
L 152.64 141.696 
L 168.192 141.696 
L 168.192 126.144 
L 152.64 126.144 
z
"/>
    <path clip-path="url(#pb1f814b7e0)" d="M 168.192 126.144 
L 168.192 141.696 
L 183.744 141.696 
L 183.744 126.144 
L 168.192 126.144 
z
"/>
    <path clip-path="url(#pb1f814b7e0)" d="M 183.744 126.144 
L 183.744 141.696 
L 199.296 141.696 
L 199.296 126.144 
L 183.744 126.144 
z
"/>
    <path clip-path="url(#pb1f814b7e0)" d="M 199.296 126.144 
L 199.296 141.696 
L 214.848 141.696 
L 214.848 126.144 
L 199.296 126.144 
z
"/>
    <path clip-path="url(#pb1f814b7e0)" d="M 214.848 126.144 
L 214.848 141.696 
L 230.4 141.696 
L 230.4 126.144 
L 214.848 126.144 
z
"/>
    <path clip-path="url(#pb1f814b7e0)" d="M 230.4 126.144 
L 230.4 141.696 
L 245.952 141.696 
L 245.952 126.144 
L 230.4 126.144 
z
"/>
    <path clip-path="url(#pb1f814b7e0)" d="M 245.952 126.144 
L 245.952 141.696 
L 261.504 141.696 
L 261.504 126.144 
L 245.952 126.144 
z
"/>
    <path clip-path="url(#pb1f814b7e0)" d="M 261.504 126.144 
L 261.504 141.696 
L 277.056 141.696 
L 277.056 126.144 
L 261.504 126.144 
z
"/>
    <path clip-path="url(#pb1f814b7e0)" d="M 277.056 126.144 
L 277.056 141.696 
L 292.608 141.696 
L 292.608 126.144 
L 277.056 126.144 
z
"/>
    <path clip-path="url(#pb1f814b7e0)" d="M 292.608 126.144 
L 292.608 141.696 
L 308.16 141.696 
L 308.16 126.144 
L 292.608 126.144 
z
"/>
    <path clip-path="url(#pb1f814b7e0)" d="M 308.16 126.144 
L 308.16 141.696 
L 323.712 141.696 
L 323.712 126.144 
L 308.16 126.144 
z
"/>
    <path clip-path="url(#pb1f814b7e0)" d="M 323.712 126.144 
L 323.712 141.696 
L 339.264 141.696 
L 339.264 126.144 
L 323.712 126.144 
z
"/>
    <path clip-path="url(#pb1f814b7e0)" d="M 339.264 126.144 
L 339.264 141.696 
L 354.816 141.696 
L 354.816 126.144 
L 339.264 126.144 
z
"/>
    <path clip-path="url(#pb1f814b7e0)" d="M 354.816 126.144 
L 354.816 141.696 
L 370.368 141.696 
L 370.368 126.144 
L 354.816 126.144 
z
"/>
    <path clip-path="url(#pb1f814b7e0)" d="M 370.368 126.144 
L 370.368 141.696 
L 385.92 141.696 
L 385.92 126.144 
L 370.368 126.144 
z
"/>
    <path clip-path="url(#pb1f814b7e0)" d="M 74.88 141.696 
L 74.88 157.248 
L 90.432 157.248 
L 90.432 141.696 
L 74.88 141.696 
z
"/>
    <path clip-path="url(#pb1f814b7e0)" d="M 90.432 141.696 
L 90.432 157.248 
L 105.984 157.248 
L 105.984 141.696 
L 90.432 141.696 
z
"/>
    <path clip-path="url(#pb1f814b7e0)" d="M 105.984 141.696 
L 105.984 157.248 
L 121.536 157.248 
L 121.536 141.696 
L 105.984 141.696 
z
"/>
    <path clip-path="url(#pb1f814b7e0)" d="M 121.536 141.696 
L 121.536 157.248 
L 137.088 157.248 
L 137.088 141.696 
L 121.536 141.696 
z
"/>
    <path clip-path="url(#pb1f814b7e0)" d="M 137.088 141.696 
L 137.088 157.248 
L 152.64 157.248 
L 152.64 141.696 
L 137.088 141.696 
z
"/>
    <path clip-path="url(#pb1f814b7e0)" d="M 152.64 141.696 
L 152.64 157.248 
L 168.192 157.248 
L 168.192 141.696 
L 152.64 141.696 
z
"/>
    <path clip-path="url(#pb1f814b7e0)" d="M 168.192 141.696 
L 168.192 157.248 
L 183.744 157.248 
L 183.744 141.696 
L 168.192 141.696 
z
"/>
    <path clip-path="url(#pb1f814b7e0)" d="M 183.744 141.696 
L 183.744 157.248 
L 199.296 157.248 
L 199.296 141.696 
L 183.744 141.696 
z
"/>
    <path clip-path="url(#pb1f814b7e0)" d="M 199.296 141.696 
L 199.296 157.248 
L 214.848 157.248 
L 214.848 141.696 
L 199.296 141.696 
z
"/>
    <path clip-path="url(#pb1f814b7e0)" d="M 214.848 141.696 
L 214.848 157.248 
L 230.4 157.248 
L 230.4 141.696 
L 214.848 141.696 
z
"/>
    <path clip-path="url(#pb1f814b7e0)" d="M 230.4 141.696 
L 230.4 157.248 
L 245.952 157.248 
L 245.952 141.696 
L 230.4 141.696 
z
"/>
    <path clip-path="url(#pb1f814b7e0)" d="M 245.952 141.696 
L 245.952 157.248 
L 261.504 157.248 
L 261.504 141.696 
L 245.952 141.696 
z
"/>
    <path clip-path="url(#pb1f814b7e0)" d="M 261.504 141.696 
L 261.504 157.248 
L 277.056 157.248 
L 277.056 141.696 
L 261.504 141.696 
z
"/>
    <path clip-path="url(#pb1f814b7e0)" d="M 277.056 141.696 
L 277.056 157.248 
L 292.608 157.248 
L 292.608 141.696 
L 277.056 141.696 
z
"/>
    <path clip-path="url(#pb1f814b7e0)" d="M 292.608 141.696 
L 292.608 157.248 
L 308.16 157.248 
L 308.16 141.696 
L 292.608 141.696 
z
"/>
    <path clip-path="url(#pb1f814b7e0)" d="M 308.16 141.696 
L 308.16 157.248 
L 323.712 157.248 
L 323.712 141.696 
L 308.16 141.696 
z
"/>
    <path clip-path="url(#pb1f814b7e0)" d="M 323.712 141.696 
L 323.712 157.248 
L 339.264 157.248 
L 339.264 141.696 
L 323.712 141.696 
z
"/>
    <path clip-path="url(#pb1f814b7e0)" d="M 339.264 141.696 
L 339.264 157.248 
L 354.816 157.248 
L 354.816 141.696 
L 339.264 141.696 
z
"/>
    <path clip-path="url(#pb1f814b7e0)" d="M 354.816 141.696 
L 354.816 157.248 
L 370.368 157.248 
L 370.368 141.696 
L 354.816 141.696 
z
"/>
    <path clip-path="url(#pb1f814b7e0)" d="M 370.368 141.696 
L 370.368 157.248 
L 385.92 157.248 
L 385.92 141.696 
L 370.368 141.696 
z
"/>
    <path clip-path="url(#pb1f814b7e0)" d="M 74.88 157.248 
L 74.88 172.8 
L 90.432 172.8 
L 90.432 157.248 
L 74.88 157.248 
z
"/>
    <path clip-path="url(#pb1f814b7e0)" d="M 90.432 157.248 
L 90.432 172.8 
L 105.984 172.8 
L 105.984 157.248 
L 90.432 157.248 
z
"/>
    <path clip-path="url(#pb1f814b7e0)" d="M 105.984 157.248 
L 105.984 172.8 
L 121.536 172.8 
L 121.536 157.248 
L 105.984 157.248 
z
"/>
    <path clip-path="url(#pb1f814b7e0)" d="M 121.536 157.248 
L 121.536 172.8 
L 137.088 172.8 
L 137.088 157.248 
L 121.536 157.248 
z
"/>
    <path clip-path="url(#pb1f814b7e0)" d="M 137.088 157.248 
L 137.088 172.8 
L 152.64 172.8 
L 152.64 157.248 
L 137.088 157.248 
z
"/>
    <path clip-path="url(#pb1f814b7e0)" d="M 152.64 157.248 
L 152.64 172.8 
L 168.192 172.8 
L 168.192 157.248 
L 152.64 157.248 
z
"/>
    <path clip-path="url(#pb1f814b7e0)" d="M 168.192 157.248 
L 168.192 172.8 
L 183.744 172.8 
L 183.744 157.248 
L 168.192 157.248 
z
"/>
    <path clip-path="url(#pb1f814b7e0)" d="M 183.744 157.248 
L 183.744 172.8 
L 199.296 172.8 
L 199.296 157.248 
L 183.744 157.248 
z
"/>
    <path clip-path="url(#pb1f814b7e0)" d="M 199.296 157.248 
L 199.296 172.8 
L 214.848 172.8 
L 214.848 157.248 
L 199.296 157.248 
z
"/>
    <path clip-path="url(#pb1f814b7e0)" d="M 214.848 157.248 
L 214.848 172.8 
L 230.4 172.8 
L 230.4 157.248 
L 214.848 157.248 
z
"/>
    <path clip-path="url(#pb1f814b7e0)" d="M 230.4 157.248 
L 230.4 172.8 
L 245.952 172.8 
L 245.952 157.248 
L 230.4 157.248 
z
"/>
    <path clip-path="url(#pb1f814b7e0)" d="M 245.952 157.248 
L 245.952 172.8 
L 261.504 172.8 
L 261.504 157.248 
L 245.952 157.248 
z
"/>
    <path clip-path="url(#pb1f814b7e0)" d="M 261.504 157.248 
L 261.504 172.8 
L 277.056 172.8 
L 277.056 157.248 
L 261.504 157.248 
z
"/>
    <path clip-path="url(#pb1f814b7e0)" d="M 277.056 157.248 
L 277.056 172.8 
L 292.608 172.8 
L 292.608 157.248 
L 277.056 157.248 
z
"/>
    <path clip-path="url(#pb1f814b7e0)" d="M 292.608 157.248 
L 292.608 172.8 
L 308.16 172.8 
L 308.16 157.248 
L 292.608 157.248 
z
"/>
    <path clip-path="url(#pb1f814b7e0)" d="M 308.16 157.248 
L 308.16 172.8 
L 323.712 172.8 
L 323.712 157.248 
L 308.16 157.248 
z
"/>
    <path clip-path="url(#pb1f814b7e0)" d="M 323.712 157.248 
L 323.712 172.8 
L 339.264 172.8 
L 339.264 157.248 
L 323.712 157.248 
z
"/>
    <path clip-path="url(#pb1f814b7e0)" d="M 339.264 157.248 
L 339.264 172.8 
L 354.816 172.8 
L 354.816 157.248 
L 339.264 157.248 
z
"/>
    <path clip-path="url(#pb1f814b7e0)" d="M 354.816 157.248 
L 354.816 172.8 
L 370.368 172.8 
L 370.368 157.248 
L 354.816 157.248 
z
"/>
    <path clip-path="url(#pb1f814b7e0)" d="M 370.368 157.248 
L 370.368 172.8 
L 385.92 172.8 
L 385.92 157.248 
L 370.368 157.248 
z
"/>
    <path clip-path="url(#pb1f814b7e0)" d="M 74.88 172.8 
L 74.88 188.352 
L 90.432 188.352 
L 90.432 172.8 
L 74.88 172.8 
z
"/>
    <path clip-path="url(#pb1f814b7e0)" d="M 90.432 172.8 
L 90.432 188.352 
L 105.984 188.352 
L 105.984 172.8 
L 90.432 172.8 
z
"/>
    <path clip-path="url(#pb1f814b7e0)" d="M 105.984 172.8 
L 105.984 188.352 
L 121.536 188.352 
L 121.536 172.8 
L 105.984 172.8 
z
"/>
    <path clip-path="url(#pb1f814b7e0)" d="M 121.536 172.8 
L 121.536 188.352 
L 137.088 188.352 
L 137.088 172.8 
L 121.536 172.8 
z
"/>
    <path clip-path="url(#pb1f814b7e0)" d="M 137.088 172.8 
L 137.088 188.352 
L 152.64 188.352 
L 152.64 172.8 
L 137.088 172.8 
z
"/>
    <path clip-path="url(#pb1f814b7e0)" d="M 152.64 172.8 
L 152.64 188.352 
L 168.192 188.352 
L 168.192 172.8 
L 152.64 172.8 
z
"/>
    <path clip-path="url(#pb1f814b7e0)" d="M 168.192 172.8 
L 168.192 188.352 
L 183.744 188.352 
L 183.744 172.8 
L 168.192 172.8 
z
"/>
    <path clip-path="url(#pb1f814b7e0)" d="M 183.744 172.8 
L 183.744 188.352 
L 199.296 188.352 
L 199.296 172.8 
L 183.744 172.8 
z
"/>
    <path clip-path="url(#pb1f814b7e0)" d="M 199.296 172.8 
L 199.296 188.352 
L 214.848 188.352 
L 214.848 172.8 
L 199.296 172.8 
z
"/>
    <path clip-path="url(#pb1f814b7e0)" d="M 214.848 172.8 
L 214.848 188.352 
L 230.4 188.352 
L 230.4 172.8 
L 214.848 172.8 
z
"/>
    <path clip-path="url(#pb1f814b7e0)" d="M 230.4 172.8 
L 230.4 188.352 
L 245.952 188.352 
L 245.952 172.8 
L 230.4 172.8 
z
"/>
    <path clip-path="url(#pb1f814b7e0)" d="M 245.952 172.8 
L 245.952 188.352 
L 261.504 188.352 
L 261.504 172.8 
L 245.952 172.8 
z
"/>
    <path clip-path="url(#pb1f814b7e0)" d="M 261.504 172.8 
L 261.504 188.352 
L 277.056 188.352 
L 277.056 172.8 
L 261.504 172.8 
z
"/>
    <path clip-path="url(#pb1f814b7e0)" d="M 277.056 172.8 
L 277.056 188.352 
L 292.608 188.352 
L 292.608 172.8 
L 277.056 172.8 
z
"/>
    <path clip-path="url(#pb1f814b7e0)" d="M 292.608 172.8 
L 292.608 188.352 
L 308.16 188.352 
L 308.16 172.8 
L 292.608 172.8 
z
"/>
    <path clip-path="url(#pb1f814b7e0)" d="M 308.16 172.8 
L 308.16 188.352 
L 323.712 188.352 
L 323.712 172.8 
L 308.16 172.8 
z
"/>
    <path clip-path="url(#pb1f814b7e0)" d="M 323.712 172.8 
L 323.712 188.352 
L 339.264 188.352 
L 339.264 172.8 
L 323.712 172.8 
z
"/>
    <path clip-path="url(#pb1f814b7e0)" d="M 339.264 172.8 
L 339.264 188.352 
L 354.816 188.352 
L 354.816 172.8 
L 339.264 172.8 
z
"/>
    <path clip-path="url(#pb1f814b7e0)" d="M 354.816 172.8 
L 354.816 188.352 
L 370.368 188.352 
L 370.368 172.8 
L 354.816 172.8 
z
"/>
    <path clip-path="url(#pb1f814b7e0)" d="M 370.368 172.8 
L 370.368 188.352 
L 385.92 188.352 
L 385.92 172.8 
L 370.368 172.8 
z
"/>
    <path clip-path="url(#pb1f814b7e0)" d="M 74.88 188.352 
L 74.88 203.904 
L 90.432 203.904 
L 90.432 188.352 
L 74.88 188.352 
z
"/>
    <path clip-path="url(#pb1f814b7e0)" d="M 90.432 188.352 
L 90.432 203.904 
L 105.984 203.904 
L 105.984 188.352 
L 90.432 188.352 
z
"/>
    <path clip-path="url(#pb1f814b7e0)" d="M 105.984 188.352 
L 105.984 203.904 
L 121.536 203.904 
L 121.536 188.352 
L 105.984 188.352 
z
"/>
    <path clip-path="url(#pb1f814b7e0)" d="M 121.536 188.352 
L 121.536 203.904 
L 137.088 203.904 
L 137.088 188.352 
L 121.536 188.352 
z
"/>
    <path clip-path="url(#pb1f814b7e0)" d="M 137.088 188.352 
L 137.088 203.904 
L 152.64 203.904 
L 152.64 188.352 
L 137.088 188.352 
z
"/>
    <path clip-path="url(#pb1f814b7e0)" d="M 152.64 188.352 
L 152.64 203.904 
L 168.192 203.904 
L 168.192 188.352 
L 152.64 188.352 
z
"/>
    <path clip-path="url(#pb1f814b7e0)" d="M 168.192 188.352 
L 168.192 203.904 
L 183.744 203.904 
L 183.744 188.352 
L 168.192 188.352 
z
"/>
    <path clip-path="url(#pb1f814b7e0)" d="M 183.744 188.352 
L 183.744 203.904 
L 199.296 203.904 
L 199.296 188.352 
L 183.744 188.352 
z
"/>
    <path clip-path="url(#pb1f814b7e0)" d="M 199.296 188.352 
L 199.296 203.904 
L 214.848 203.904 
L 214.848 188.352 
L 199.296 188.352 
z
"/>
    <path clip-path="url(#pb1f814b7e0)" d="M 214.848 188.352 
L 214.848 203.904 
L 230.4 203.904 
L 230.4 188.352 
L 214.848 188.352 
z
"/>
    <path clip-path="url(#pb1f814b7e0)" d="M 230.4 188.352 
L 230.4 203.904 
L 245.952 203.904 
L 245.952 188.352 
L 230.4 188.352 
z
"/>
    <path clip-path="url(#pb1f814b7e0)" d="M 245.952 188.352 
L 245.952 203.904 
L 261.504 203.904 
L 261.504 188.352 
L 245.952 188.352 
z
"/>
    <path clip-path="url(#pb1f814b7e0)" d="M 261.504 188.352 
L 261.504 203.904 
L 277.056 203.904 
L 277.056 188.352 
L 261.504 188.352 
z
"/>
    <path clip-path="url(#pb1f814b7e0)" d="M 277.056 188.352 
L 277.056 203.904 
L 292.608 203.904 
L 292.608 188.352 
L 277.056 188.352 
z
"/>
    <path clip-path="url(#pb1f814b7e0)" d="M 292.608 188.352 
L 292.608 203.904 
L 308.16 203.904 
L 308.16 188.352 
L 292.608 188.352 
z
"/>
    <path clip-path="url(#pb1f814b7e0)" d="M 308.16 188.352 
L 308.16 203.904 
L 323.712 203.904 
L 323.712 188.352 
L 308.16 188.352 
z
"/>
    <path clip-path="url(#pb1f814b7e0)" d="M 323.712 188.352 
L 323.712 203.904 
L 339.264 203.904 
L 339.264 188.352 
L 323.712 188.352 
z
"/>
    <path clip-path="url(#pb1f814b7e0)" d="M 339.264 188.352 
L 339.264 203.904 
L 354.816 203.904 
L 354.816 188.352 
L 339.264 188.352 
z
"/>
    <path clip-path="url(#pb1f814b7e0)" d="M 354.816 188.352 
L 354.816 203.904 
L 370.368 203.904 
L 370.368 188.352 
L 354.816 188.352 
z
"/>
    <path clip-path="url(#pb1f814b7e0)" d="M 370.368 188.352 
L 370.368 203.904 
L 385.92 203.904 
L 385.92 188.352 
L 370.368 188.352 
z
"/>
    <path clip-path="url(#pb1f814b7e0)" d="M 74.88 203.904 
L 74.88 219.456 
L 90.432 219.456 
L 90.432 203.904 
L 74.88 203.904 
z
"/>
    <path clip-path="url(#pb1f814b7e0)" d="M 90.432 203.904 
L 90.432 219.456 
L 105.984 219.456 
L 105.984 203.904 
L 90.432 203.904 
z
"/>
    <path clip-path="url(#pb1f814b7e0)" d="M 105.984 203.904 
L 105.984 219.456 
L 121.536 219.456 
L 121.536 203.904 
L 105.984 203.904 
z
"/>
    <path clip-path="url(#pb1f814b7e0)" d="M 121.536 203.904 
L 121.536 219.456 
L 137.088 219.456 
L 137.088 203.904 
L 121.536 203.904 
z
"/>
    <path clip-path="url(#pb1f814b7e0)" d="M 137.088 203.904 
L 137.088 219.456 
L 152.64 219.456 
L 152.64 203.904 
L 137.088 203.904 
z
"/>
    <path clip-path="url(#pb1f814b7e0)" d="M 152.64 203.904 
L 152.64 219.456 
L 168.192 219.456 
L 168.192 203.904 
L 152.64 203.904 
z
"/>
    <path clip-path="url(#pb1f814b7e0)" d="M 168.192 203.904 
L 168.192 219.456 
L 183.744 219.456 
L 183.744 203.904 
L 168.192 203.904 
z
"/>
    <path clip-path="url(#pb1f814b7e0)" d="M 183.744 203.904 
L 183.744 219.456 
L 199.296 219.456 
L 199.296 203.904 
L 183.744 203.904 
z
"/>
    <path clip-path="url(#pb1f814b7e0)" d="M 199.296 203.904 
L 199.296 219.456 
L 214.848 219.456 
L 214.848 203.904 
L 199.296 203.904 
z
"/>
    <path clip-path="url(#pb1f814b7e0)" d="M 214.848 203.904 
L 214.848 219.456 
L 230.4 219.456 
L 230.4 203.904 
L 214.848 203.904 
z
"/>
    <path clip-path="url(#pb1f814b7e0)" d="M 230.4 203.904 
L 230.4 219.456 
L 245.952 219.456 
L 245.952 203.904 
L 230.4 203.904 
z
"/>
    <path clip-path="url(#pb1f814b7e0)" d="M 245.952 203.904 
L 245.952 219.456 
L 261.504 219.456 
L 261.504 203.904 
L 245.952 203.904 
z
"/>
    <path clip-path="url(#pb1f814b7e0)" d="M 261.504 203.904 
L 261.504 219.456 
L 277.056 219.456 
L 277.056 203.904 
L 261.504 203.904 
z
"/>
    <path clip-path="url(#pb1f814b7e0)" d="M 277.056 203.904 
L 277.056 219.456 
L 292.608 219.456 
L 292.608 203.904 
L 277.056 203.904 
z
"/>
    <path clip-path="url(#pb1f814b7e0)" d="M 292.608 203.904 
L 292.608 219.456 
L 308.16 219.456 
L 308.16 203.904 
L 292.608 203.904 
z
"/>
    <path clip-path="url(#pb1f814b7e0)" d="M 308.16 203.904 
L 308.16 219.456 
L 323.712 219.456 
L 323.712 203.904 
L 308.16 203.904 
z
"/>
    <path clip-path="url(#pb1f814b7e0)" d="M 323.712 203.904 
L 323.712 219.456 
L 339.264 219.456 
L 339.264 203.904 
L 323.712 203.904 
z
"/>
    <path clip-path="url(#pb1f814b7e0)" d="M 339.264 203.904 
L 339.264 219.456 
L 354.816 219.456 
L 354.816 203.904 
L 339.264 203.904 
z
"/>
    <path clip-path="url(#pb1f814b7e0)" d="M 354.816 203.904 
L 354.816 219.456 
L 370.368 219.456 
L 370.368 203.904 
L 354.816 203.904 
z
"/>
    <path clip-path="url(#pb1f814b7e0)" d="M 370.368 203.904 
L 370.368 219.456 
L 385.92 219.456 
L 385.92 203.904 
L 370.368 203.904 
z
"/>
    <path clip-path="url(#pb1f814b7e0)" d="M 74.88 219.456 
L 74.88 235.008 
L 90.432 235.008 
L 90.432 219.456 
L 74.88 219.456 
z
"/>
    <path clip-path="url(#pb1f814b7e0)" d="M 90.432 219.456 
L 90.432 235.008 
L 105.984 235.008 
L 105.984 219.456 
L 90.432 219.456 
z
"/>
    <path clip-path="url(#pb1f814b7e0)" d="M 105.984 219.456 
L 105.984 235.008 
L 121.536 235.008 
L 121.536 219.456 
L 105.984 219.456 
z
"/>
    <path clip-path="url(#pb1f814b7e0)" d="M 121.536 219.456 
L 121.536 235.008 
L 137.088 235.008 
L 137.088 219.456 
L 121.536 219.456 
z
"/>
    <path clip-path="url(#pb1f814b7e0)" d="M 137.088 219.456 
L 137.088 235.008 
L 152.64 235.008 
L 152.64 219.456 
L 137.088 219.456 
z
"/>
    <path clip-path="url(#pb1f814b7e0)" d="M 152.64 219.456 
L 152.64 235.008 
L 168.192 235.008 
L 168.192 219.456 
L 152.64 219.456 
z
"/>
    <path clip-path="url(#pb1f814b7e0)" d="M 168.192 219.456 
L 168.192 235.008 
L 183.744 235.008 
L 183.744 219.456 
L 168.192 219.456 
z
"/>
    <path clip-path="url(#pb1f814b7e0)" d="M 183.744 219.456 
L 183.744 235.008 
L 199.296 235.008 
L 199.296 219.456 
L 183.744 219.456 
z
"/>
    <path clip-path="url(#pb1f814b7e0)" d="M 199.296 219.456 
L 199.296 235.008 
L 214.848 235.008 
L 214.848 219.456 
L 199.296 219.456 
z
"/>
    <path clip-path="url(#pb1f814b7e0)" d="M 214.848 219.456 
L 214.848 235.008 
L 230.4 235.008 
L 230.4 219.456 
L 214.848 219.456 
z
"/>
    <path clip-path="url(#pb1f814b7e0)" d="M 230.4 219.456 
L 230.4 235.008 
L 245.952 235.008 
L 245.952 219.456 
L 230.4 219.456 
z
"/>
    <path clip-path="url(#pb1f814b7e0)" d="M 245.952 219.456 
L 245.952 235.008 
L 261.504 235.008 
L 261.504 219.456 
L 245.952 219.456 
z
"/>
    <path clip-path="url(#pb1f814b7e0)" d="M 261.504 219.456 
L 261.504 235.008 
L 277.056 235.008 
L 277.056 219.456 
L 261.504 219.456 
z
"/>
    <path clip-path="url(#pb1f814b7e0)" d="M 277.056 219.456 
L 277.056 235.008 
L 292.608 235.008 
L 292.608 219.456 
L 277.056 219.456 
z
"/>
    <path clip-path="url(#pb1f814b7e0)" d="M 292.608 219.456 
L 292.608 235.008 
L 308.16 235.008 
L 308.16 219.456 
L 292.608 219.456 
z
"/>
    <path clip-path="url(#pb1f814b7e0)" d="M 308.16 219.456 
L 308.16 235.008 
L 323.712 235.008 
L 323.712 219.456 
L 308.16 219.456 
z
"/>
    <path clip-path="url(#pb1f814b7e0)" d="M 323.712 219.456 
L 323.712 235.008 
L 339.264 235.008 
L 339.264 219.456 
L 323.712 219.456 
z
"/>
    <path clip-path="url(#pb1f814b7e0)" d="M 339.264 219.456 
L 339.264 235.008 
L 354.816 235.008 
L 354.816 219.456 
L 339.264 219.456 
z
"/>
    <path clip-path="url(#pb1f814b7e0)" d="M 354.816 219.456 
L 354.816 235.008 
L 370.368 235.008 
L 370.368 219.456 
L 354.816 219.456 
z
"/>
    <path clip-path="url(#pb1f814b7e0)" d="M 370.368 219.456 
L 370.368 235.008 
L 385.92 235.008 
L 385.92 219.456 
L 370.368 219.456 
z
"/>
    <path clip-path="url(#pb1f814b7e0)" d="M 74.88 235.008 
L 74.88 250.56 
L 90.432 250.56 
L 90.432 235.008 
L 74.88 235.008 
z
"/>
    <path clip-path="url(#pb1f814b7e0)" d="M 90.432 235.008 
L 90.432 250.56 
L 105.984 250.56 
L 105.984 235.008 
L 90.432 235.008 
z
"/>
    <path clip-path="url(#pb1f814b7e0)" d="M 105.984 235.008 
L 105.984 250.56 
L 121.536 250.56 
L 121.536 235.008 
L 105.984 235.008 
z
"/>
    <path clip-path="url(#pb1f814b7e0)" d="M 121.536 235.008 
L 121.536 250.56 
L 137.088 250.56 
L 137.088 235.008 
L 121.536 235.008 
z
"/>
    <path clip-path="url(#pb1f814b7e0)" d="M 137.088 235.008 
L 137.088 250.56 
L 152.64 250.56 
L 152.64 235.008 
L 137.088 235.008 
z
"/>
    <path clip-path="url(#pb1f814b7e0)" d="M 152.64 235.008 
L 152.64 250.56 
L 168.192 250.56 
L 168.192 235.008 
L 152.64 235.008 
z
"/>
    <path clip-path="url(#pb1f814b7e0)" d="M 168.192 235.008 
L 168.192 250.56 
L 183.744 250.56 
L 183.744 235.008 
L 168.192 235.008 
z
"/>
    <path clip-path="url(#pb1f814b7e0)" d="M 183.744 235.008 
L 183.744 250.56 
L 199.296 250.56 
L 199.296 235.008 
L 183.744 235.008 
z
"/>
    <path clip-path="url(#pb1f814b7e0)" d="M 199.296 235.008 
L 199.296 250.56 
L 214.848 250.56 
L 214.848 235.008 
L 199.296 235.008 
z
"/>
    <path clip-path="url(#pb1f814b7e0)" d="M 214.848 235.008 
L 214.848 250.56 
L 230.4 250.56 
L 230.4 235.008 
L 214.848 235.008 
z
"/>
    <path clip-path="url(#pb1f814b7e0)" d="M 230.4 235.008 
L 230.4 250.56 
L 245.952 250.56 
L 245.952 235.008 
L 230.4 235.008 
z
"/>
    <path clip-path="url(#pb1f814b7e0)" d="M 245.952 235.008 
L 245.952 250.56 
L 261.504 250.56 
L 261.504 235.008 
L 245.952 235.008 
z
"/>
    <path clip-path="url(#pb1f814b7e0)" d="M 261.504 235.008 
L 261.504 250.56 
L 277.056 250.56 
L 277.056 235.008 
L 261.504 235.008 
z
"/>
    <path clip-path="url(#pb1f814b7e0)" d="M 277.056 235.008 
L 277.056 250.56 
L 292.608 250.56 
L 292.608 235.008 
L 277.056 235.008 
z
"/>
    <path clip-path="url(#pb1f814b7e0)" d="M 292.608 235.008 
L 292.608 250.56 
L 308.16 250.56 
L 308.16 235.008 
L 292.608 235.008 
z
"/>
    <path clip-path="url(#pb1f814b7e0)" d="M 308.16 235.008 
L 308.16 250.56 
L 323.712 250.56 
L 323.712 235.008 
L 308.16 235.008 
z
"/>
    <path clip-path="url(#pb1f814b7e0)" d="M 323.712 235.008 
L 323.712 250.56 
L 339.264 250.56 
L 339.264 235.008 
L 323.712 235.008 
z
"/>
    <path clip-path="url(#pb1f814b7e0)" d="M 339.264 235.008 
L 339.264 250.56 
L 354.816 250.56 
L 354.816 235.008 
L 339.264 235.008 
z
"/>
    <path clip-path="url(#pb1f814b7e0)" d="M 354.816 235.008 
L 354.816 250.56 
L 370.368 250.56 
L 370.368 235.008 
L 354.816 235.008 
z
"/>
    <path clip-path="url(#pb1f814b7e0)" d="M 370.368 235.008 
L 370.368 250.56 
L 385.92 250.56 
L 385.92 235.008 
L 370.368 235.008 
z
"/>
    <path clip-path="url(#pb1f814b7e0)" d="M 74.88 250.56 
L 74.88 266.112 
L 90.432 266.112 
L 90.432 250.56 
L 74.88 250.56 
z
"/>
    <path clip-path="url(#pb1f814b7e0)" d="M 90.432 250.56 
L 90.432 266.112 
L 105.984 266.112 
L 105.984 250.56 
L 90.432 250.56 
z
"/>
    <path clip-path="url(#pb1f814b7e0)" d="M 105.984 250.56 
L 105.984 266.112 
L 121.536 266.112 
L 121.536 250.56 
L 105.984 250.56 
z
"/>
    <path clip-path="url(#pb1f814b7e0)" d="M 121.536 250.56 
L 121.536 266.112 
L 137.088 266.112 
L 137.088 250.56 
L 121.536 250.56 
z
"/>
    <path clip-path="url(#pb1f814b7e0)" d="M 137.088 250.56 
L 137.088 266.112 
L 152.64 266.112 
L 152.64 250.56 
L 137.088 250.56 
z
"/>
    <path clip-path="url(#pb1f814b7e0)" d="M 152.64 250.56 
L 152.64 266.112 
L 168.192 266.112 
L 168.192 250.56 
L 152.64 250.56 
z
"/>
    <path clip-path="url(#pb1f814b7e0)" d="M 168.192 250.56 
L 168.192 266.112 
L 183.744 266.112 
L 183.744 250.56 
L 168.192 250.56 
z
"/>
    <path clip-path="url(#pb1f814b7e0)" d="M 183.744 250.56 
L 183.744 266.112 
L 199.296 266.112 
L 199.296 250.56 
L 183.744 250.56 
z
"/>
    <path clip-path="url(#pb1f814b7e0)" d="M 199.296 250.56 
L 199.296 266.112 
L 214.848 266.112 
L 214.848 250.56 
L 199.296 250.56 
z
"/>
    <path clip-path="url(#pb1f814b7e0)" d="M 214.848 250.56 
L 214.848 266.112 
L 230.4 266.112 
L 230.4 250.56 
L 214.848 250.56 
z
"/>
    <path clip-path="url(#pb1f814b7e0)" d="M 230.4 250.56 
L 230.4 266.112 
L 245.952 266.112 
L 245.952 250.56 
L 230.4 250.56 
z
"/>
    <path clip-path="url(#pb1f814b7e0)" d="M 245.952 250.56 
L 245.952 266.112 
L 261.504 266.112 
L 261.504 250.56 
L 245.952 250.56 
z
"/>
    <path clip-path="url(#pb1f814b7e0)" d="M 261.504 250.56 
L 261.504 266.112 
L 277.056 266.112 
L 277.056 250.56 
L 261.504 250.56 
z
"/>
    <path clip-path="url(#pb1f814b7e0)" d="M 277.056 250.56 
L 277.056 266.112 
L 292.608 266.112 
L 292.608 250.56 
L 277.056 250.56 
z
"/>
    <path clip-path="url(#pb1f814b7e0)" d="M 292.608 250.56 
L 292.608 266.112 
L 308.16 266.112 
L 308.16 250.56 
L 292.608 250.56 
z
"/>
    <path clip-path="url(#pb1f814b7e0)" d="M 308.16 250.56 
L 308.16 266.112 
L 323.712 266.112 
L 323.712 250.56 
L 308.16 250.56 
z
"/>
    <path clip-path="url(#pb1f814b7e0)" d="M 323.712 250.56 
L 323.712 266.112 
L 339.264 266.112 
L 339.264 250.56 
L 323.712 250.56 
z
"/>
    <path clip-path="url(#pb1f814b7e0)" d="M 339.264 250.56 
L 339.264 266.112 
L 354.816 266.112 
L 354.816 250.56 
L 339.264 250.56 
z
"/>
    <path clip-path="url(#pb1f814b7e0)" d="M 354.816 250.56 
L 354.816 266.112 
L 370.368 266.112 
L 370.368 250.56 
L 354.816 250.56 
z
"/>
    <path clip-path="url(#pb1f814b7e0)" d="M 370.368 250.56 
L 370.368 266.112 
L 385.92 266.112 
L 385.92 250.56 
L 370.368 250.56 
z
"/>
    <path clip-path="url(#pb1f814b7e0)" d="M 74.88 266.112 
L 74.88 281.664 
L 90.432 281.664 
L 90.432 266.112 
L 74.88 266.112 
z
"/>
    <path clip-path="url(#pb1f814b7e0)" d="M 90.432 266.112 
L 90.432 281.664 
L 105.984 281.664 
L 105.984 266.112 
L 90.432 266.112 
z
"/>
    <path clip-path="url(#pb1f814b7e0)" d="M 105.984 266.112 
L 105.984 281.664 
L 121.536 281.664 
L 121.536 266.112 
L 105.984 266.112 
z
"/>
    <path clip-path="url(#pb1f814b7e0)" d="M 121.536 266.112 
L 121.536 281.664 
L 137.088 281.664 
L 137.088 266.112 
L 121.536 266.112 
z
"/>
    <path clip-path="url(#pb1f814b7e0)" d="M 137.088 266.112 
L 137.088 281.664 
L 152.64 281.664 
L 152.64 266.112 
L 137.088 266.112 
z
"/>
    <path clip-path="url(#pb1f814b7e0)" d="M 152.64 266.112 
L 152.64 281.664 
L 168.192 281.664 
L 168.192 266.112 
L 152.64 266.112 
z
"/>
    <path clip-path="url(#pb1f814b7e0)" d="M 168.192 266.112 
L 168.192 281.664 
L 183.744 281.664 
L 183.744 266.112 
L 168.192 266.112 
z
"/>
    <path clip-path="url(#pb1f814b7e0)" d="M 183.744 266.112 
L 183.744 281.664 
L 199.296 281.664 
L 199.296 266.112 
L 183.744 266.112 
z
"/>
    <path clip-path="url(#pb1f814b7e0)" d="M 199.296 266.112 
L 199.296 281.664 
L 214.848 281.664 
L 214.848 266.112 
L 199.296 266.112 
z
"/>
    <path clip-path="url(#pb1f814b7e0)" d="M 214.848 266.112 
L 214.848 281.664 
L 230.4 281.664 
L 230.4 266.112 
L 214.848 266.112 
z
"/>
    <path clip-path="url(#pb1f814b7e0)" d="M 230.4 266.112 
L 230.4 281.664 
L 245.952 281.664 
L 245.952 266.112 
L 230.4 266.112 
z
"/>
    <path clip-path="url(#pb1f814b7e0)" d="M 245.952 266.112 
L 245.952 281.664 
L 261.504 281.664 
L 261.504 266.112 
L 245.952 266.112 
z
"/>
    <path clip-path="url(#pb1f814b7e0)" d="M 261.504 266.112 
L 261.504 281.664 
L 277.056 281.664 
L 277.056 266.112 
L 261.504 266.112 
z
"/>
    <path clip-path="url(#pb1f814b7e0)" d="M 277.056 266.112 
L 277.056 281.664 
L 292.608 281.664 
L 292.608 266.112 
L 277.056 266.112 
z
"/>
    <path clip-path="url(#pb1f814b7e0)" d="M 292.608 266.112 
L 292.608 281.664 
L 308.16 281.664 
L 308.16 266.112 
L 292.608 266.112 
z
"/>
    <path clip-path="url(#pb1f814b7e0)" d="M 308.16 266.112 
L 308.16 281.664 
L 323.712 281.664 
L 323.712 266.112 
L 308.16 266.112 
z
"/>
    <path clip-path="url(#pb1f814b7e0)" d="M 323.712 266.112 
L 323.712 281.664 
L 339.264 281.664 
L 339.264 266.112 
L 323.712 266.112 
z
"/>
    <path clip-path="url(#pb1f814b7e0)" d="M 339.264 266.112 
L 339.264 281.664 
L 354.816 281.664 
L 354.816 266.112 
L 339.264 266.112 
z
"/>
    <path clip-path="url(#pb1f814b7e0)" d="M 354.816 266.112 
L 354.816 281.664 
L 370.368 281.664 
L 370.368 266.112 
L 354.816 266.112 
z
"/>
    <path clip-path="url(#pb1f814b7e0)" d="M 370.368 266.112 
L 370.368 281.664 
L 385.92 281.664 
L 385.92 266.112 
L 370.368 266.112 
z
"/>
    <path clip-path="url(#pb1f814b7e0)" d="M 74.88 281.664 
L 74.88 297.216 
L 90.432 297.216 
L 90.432 281.664 
L 74.88 281.664 
z
"/>
    <path clip-path="url(#pb1f814b7e0)" d="M 90.432 281.664 
L 90.432 297.216 
L 105.984 297.216 
L 105.984 281.664 
L 90.432 281.664 
z
"/>
    <path clip-path="url(#pb1f814b7e0)" d="M 105.984 281.664 
L 105.984 297.216 
L 121.536 297.216 
L 121.536 281.664 
L 105.984 281.664 
z
"/>
    <path clip-path="url(#pb1f814b7e0)" d="M 121.536 281.664 
L 121.536 297.216 
L 137.088 297.216 
L 137.088 281.664 
L 121.536 281.664 
z
"/>
    <path clip-path="url(#pb1f814b7e0)" d="M 137.088 281.664 
L 137.088 297.216 
L 152.64 297.216 
L 152.64 281.664 
L 137.088 281.664 
z
"/>
    <path clip-path="url(#pb1f814b7e0)" d="M 152.64 281.664 
L 152.64 297.216 
L 168.192 297.216 
L 168.192 281.664 
L 152.64 281.664 
z
"/>
    <path clip-path="url(#pb1f814b7e0)" d="M 168.192 281.664 
L 168.192 297.216 
L 183.744 297.216 
L 183.744 281.664 
L 168.192 281.664 
z
"/>
    <path clip-path="url(#pb1f814b7e0)" d="M 183.744 281.664 
L 183.744 297.216 
L 199.296 297.216 
L 199.296 281.664 
L 183.744 281.664 
z
"/>
    <path clip-path="url(#pb1f814b7e0)" d="M 199.296 281.664 
L 199.296 297.216 
L 214.848 297.216 
L 214.848 281.664 
L 199.296 281.664 
z
"/>
    <path clip-path="url(#pb1f814b7e0)" d="M 214.848 281.664 
L 214.848 297.216 
L 230.4 297.216 
L 230.4 281.664 
L 214.848 281.664 
z
"/>
    <path clip-path="url(#pb1f814b7e0)" d="M 230.4 281.664 
L 230.4 297.216 
L 245.952 297.216 
L 245.952 281.664 
L 230.4 281.664 
z
"/>
    <path clip-path="url(#pb1f814b7e0)" d="M 245.952 281.664 
L 245.952 297.216 
L 261.504 297.216 
L 261.504 281.664 
L 245.952 281.664 
z
"/>
    <path clip-path="url(#pb1f814b7e0)" d="M 261.504 281.664 
L 261.504 297.216 
L 277.056 297.216 
L 277.056 281.664 
L 261.504 281.664 
z
"/>
    <path clip-path="url(#pb1f814b7e0)" d="M 277.056 281.664 
L 277.056 297.216 
L 292.608 297.216 
L 292.608 281.664 
L 277.056 281.664 
z
"/>
    <path clip-path="url(#pb1f814b7e0)" d="M 292.608 281.664 
L 292.608 297.216 
L 308.16 297.216 
L 308.16 281.664 
L 292.608 281.664 
z
"/>
    <path clip-path="url(#pb1f814b7e0)" d="M 308.16 281.664 
L 308.16 297.216 
L 323.712 297.216 
L 323.712 281.664 
L 308.16 281.664 
z
"/>
    <path clip-path="url(#pb1f814b7e0)" d="M 323.712 281.664 
L 323.712 297.216 
L 339.264 297.216 
L 339.264 281.664 
L 323.712 281.664 
z
"/>
    <path clip-path="url(#pb1f814b7e0)" d="M 339.264 281.664 
L 339.264 297.216 
L 354.816 297.216 
L 354.816 281.664 
L 339.264 281.664 
z
"/>
    <path clip-path="url(#pb1f814b7e0)" d="M 354.816 281.664 
L 354.816 297.216 
L 370.368 297.216 
L 370.368 281.664 
L 354.816 281.664 
z
"/>
    <path clip-path="url(#pb1f814b7e0)" d="M 370.368 281.664 
L 370.368 297.216 
L 385.92 297.216 
L 385.92 281.664 
L 370.368 281.664 
z
"/>
    <path clip-path="url(#pb1f814b7e0)" d="M 74.88 297.216 
L 74.88 312.768 
L 90.432 312.768 
L 90.432 297.216 
L 74.88 297.216 
z
"/>
    <path clip-path="url(#pb1f814b7e0)" d="M 90.432 297.216 
L 90.432 312.768 
L 105.984 312.768 
L 105.984 297.216 
L 90.432 297.216 
z
"/>
    <path clip-path="url(#pb1f814b7e0)" d="M 105.984 297.216 
L 105.984 312.768 
L 121.536 312.768 
L 121.536 297.216 
L 105.984 297.216 
z
"/>
    <path clip-path="url(#pb1f814b7e0)" d="M 121.536 297.216 
L 121.536 312.768 
L 137.088 312.768 
L 137.088 297.216 
L 121.536 297.216 
z
"/>
    <path clip-path="url(#pb1f814b7e0)" d="M 137.088 297.216 
L 137.088 312.768 
L 152.64 312.768 
L 152.64 297.216 
L 137.088 297.216 
z
"/>
    <path clip-path="url(#pb1f814b7e0)" d="M 152.64 297.216 
L 152.64 312.768 
L 168.192 312.768 
L 168.192 297.216 
L 152.64 297.216 
z
"/>
    <path clip-path="url(#pb1f814b7e0)" d="M 168.192 297.216 
L 168.192 312.768 
L 183.744 312.768 
L 183.744 297.216 
L 168.192 297.216 
z
"/>
    <path clip-path="url(#pb1f814b7e0)" d="M 183.744 297.216 
L 183.744 312.768 
L 199.296 312.768 
L 199.296 297.216 
L 183.744 297.216 
z
"/>
    <path clip-path="url(#pb1f814b7e0)" d="M 199.296 297.216 
L 199.296 312.768 
L 214.848 312.768 
L 214.848 297.216 
L 199.296 297.216 
z
"/>
    <path clip-path="url(#pb1f814b7e0)" d="M 214.848 297.216 
L 214.848 312.768 
L 230.4 312.768 
L 230.4 297.216 
L 214.848 297.216 
z
"/>
    <path clip-path="url(#pb1f814b7e0)" d="M 230.4 297.216 
L 230.4 312.768 
L 245.952 312.768 
L 245.952 297.216 
L 230.4 297.216 
z
"/>
    <path clip-path="url(#pb1f814b7e0)" d="M 245.952 297.216 
L 245.952 312.768 
L 261.504 312.768 
L 261.504 297.216 
L 245.952 297.216 
z
"/>
    <path clip-path="url(#pb1f814b7e0)" d="M 261.504 297.216 
L 261.504 312.768 
L 277.056 312.768 
L 277.056 297.216 
L 261.504 297.216 
z
"/>
    <path clip-path="url(#pb1f814b7e0)" d="M 277.056 297.216 
L 277.056 312.768 
L 292.608 312.768 
L 292.608 297.216 
L 277.056 297.216 
z
"/>
    <path clip-path="url(#pb1f814b7e0)" d="M 292.608 297.216 
L 292.608 312.768 
L 308.16 312.768 
L 308.16 297.216 
L 292.608 297.216 
z
"/>
    <path clip-path="url(#pb1f814b7e0)" d="M 308.16 297.216 
L 308.16 312.768 
L 323.712 312.768 
L 323.712 297.216 
L 308.16 297.216 
z
"/>
    <path clip-path="url(#pb1f814b7e0)" d="M 323.712 297.216 
L 323.712 312.768 
L 339.264 312.768 
L 339.264 297.216 
L 323.712 297.216 
z
"/>
    <path clip-path="url(#pb1f814b7e0)" d="M 339.264 297.216 
L 339.264 312.768 
L 354.816 312.768 
L 354.816 297.216 
L 339.264 297.216 
z
"/>
    <path clip-path="url(#pb1f814b7e0)" d="M 354.816 297.216 
L 354.816 312.768 
L 370.368 312.768 
L 370.368 297.216 
L 354.816 297.216 
z
"/>
    <path clip-path="url(#pb1f814b7e0)" d="M 370.368 297.216 
L 370.368 312.768 
L 385.92 312.768 
L 385.92 297.216 
L 370.368 297.216 
z
"/>
    <path clip-path="url(#pb1f814b7e0)" d="M 74.88 312.768 
L 74.88 328.32 
L 90.432 328.32 
L 90.432 312.768 
L 74.88 312.768 
z
"/>
    <path clip-path="url(#pb1f814b7e0)" d="M 90.432 312.768 
L 90.432 328.32 
L 105.984 328.32 
L 105.984 312.768 
L 90.432 312.768 
z
"/>
    <path clip-path="url(#pb1f814b7e0)" d="M 105.984 312.768 
L 105.984 328.32 
L 121.536 328.32 
L 121.536 312.768 
L 105.984 312.768 
z
"/>
    <path clip-path="url(#pb1f814b7e0)" d="M 121.536 312.768 
L 121.536 328.32 
L 137.088 328.32 
L 137.088 312.768 
L 121.536 312.768 
z
"/>
    <path clip-path="url(#pb1f814b7e0)" d="M 137.088 312.768 
L 137.088 328.32 
L 152.64 328.32 
L 152.64 312.768 
L 137.088 312.768 
z
"/>
    <path clip-path="url(#pb1f814b7e0)" d="M 152.64 312.768 
L 152.64 328.32 
L 168.192 328.32 
L 168.192 312.768 
L 152.64 312.768 
z
"/>
    <path clip-path="url(#pb1f814b7e0)" d="M 168.192 312.768 
L 168.192 328.32 
L 183.744 328.32 
L 183.744 312.768 
L 168.192 312.768 
z
"/>
    <path clip-path="url(#pb1f814b7e0)" d="M 183.744 312.768 
L 183.744 328.32 
L 199.296 328.32 
L 199.296 312.768 
L 183.744 312.768 
z
"/>
    <path clip-path="url(#pb1f814b7e0)" d="M 199.296 312.768 
L 199.296 328.32 
L 214.848 328.32 
L 214.848 312.768 
L 199.296 312.768 
z
"/>
    <path clip-path="url(#pb1f814b7e0)" d="M 214.848 312.768 
L 214.848 328.32 
L 230.4 328.32 
L 230.4 312.768 
L 214.848 312.768 
z
"/>
    <path clip-path="url(#pb1f814b7e0)" d="M 230.4 312.768 
L 230.4 328.32 
L 245.952 328.32 
L 245.952 312.768 
L 230.4 312.768 
z
"/>
    <path clip-path="url(#pb1f814b7e0)" d="M 245.952 312.768 
L 245.952 328.32 
L 261.504 328.32 
L 261.504 312.768 
L 245.952 312.768 
z
"/>
    <path clip-path="url(#pb1f814b7e0)" d="M 261.504 312.768 
L 261.504 328.32 
L 277.056 328.32 
L 277.056 312.768 
L 261.504 312.768 
z
"/>
    <path clip-path="url(#pb1f814b7e0)" d="M 277.056 312.768 
L 277.056 328.32 
L 292.608 328.32 
L 292.608 312.768 
L 277.056 312.768 
z
"/>
    <path clip-path="url(#pb1f814b7e0)" d="M 292.608 312.768 
L 292.608 328.32 
L 308.16 328.32 
L 308.16 312.768 
L 292.608 312.768 
z
"/>
    <path clip-path="url(#pb1f814b7e0)" d="M 308.16 312.768 
L 308.16 328.32 
L 323.712 328.32 
L 323.712 312.768 
L 308.16 312.768 
z
"/>
    <path clip-path="url(#pb1f814b7e0)" d="M 323.712 312.768 
L 323.712 328.32 
L 339.264 328.32 
L 339.264 312.768 
L 323.712 312.768 
z
"/>
    <path clip-path="url(#pb1f814b7e0)" d="M 339.264 312.768 
L 339.264 328.32 
L 354.816 328.32 
L 354.816 312.768 
L 339.264 312.768 
z
"/>
    <path clip-path="url(#pb1f814b7e0)" d="M 354.816 312.768 
L 354.816 328.32 
L 370.368 328.32 
L 370.368 312.768 
L 354.816 312.768 
z
"/>
    <path clip-path="url(#pb1f814b7e0)" d="M 370.368 312.768 
L 370.368 328.32 
L 385.92 328.32 
L 385.92 312.768 
L 370.368 312.768 
z
"/>
   </g>
   <g id="patch_3">
    <path clip-path="url(#pb1f814b7e0)" d="M 238.176 175.1328 
C 239.619554 175.1328 241.004177 175.70633 242.024924 176.727076 
C 243.04567 177.747823 243.6192 179.132446 243.6192 180.576 
C 243.6192 182.019554 243.04567 183.404177 242.024924 184.424924 
C 241.004177 185.44567 239.619554 186.0192 238.176 186.0192 
C 236.732446 186.0192 235.347823 185.44567 234.327076 184.424924 
C 233.30633 183.404177 232.7328 182.019554 232.7328 180.576 
C 232.7328 179.132446 233.30633 177.747823 234.327076 176.727076 
C 235.347823 175.70633 236.732446 175.1328 238.176 175.1328 
z
" style="fill:#ff0000;"/>
   </g>
   <g id="patch_4">
    <path clip-path="url(#pb1f814b7e0)" d="M 222.624 112.9248 
C 224.067554 112.9248 225.452177 113.49833 226.472924 114.519076 
C 227.49367 115.539823 228.0672 116.924446 228.0672 118.368 
C 228.0672 119.811554 227.49367 121.196177 226.472924 122.216924 
C 225.452177 123.23767 224.067554 123.8112 222.624 123.8112 
C 221.180446 123.8112 219.795823 123.23767 218.775076 122.216924 
C 217.75433 121.196177 217.1808 119.811554 217.1808 118.368 
C 217.1808 116.924446 217.75433 115.539823 218.775076 114.519076 
C 219.795823 113.49833 221.180446 112.9248 222.624 112.9248 
z
" style="fill:#0000ff;"/>
   </g>
   <g id="matplotlib.axis_1">
    <g id="xtick_1">
     <g id="line2d_1">
      <defs>
       <path d="M 0 0 
L 0 3.5 
" id="m46848e634f" style="stroke:#000000;stroke-width:0.8;"/>
      </defs>
      <g>
       <use style="stroke:#000000;stroke-width:0.8;" x="74.88" xlink:href="#m46848e634f" y="328.32"/>
      </g>
     </g>
     <g id="text_1">
      <!-- 0.0 -->
      <defs>
       <path d="M 31.78125 66.40625 
Q 24.171875 66.40625 20.328125 58.90625 
Q 16.5 51.421875 16.5 36.375 
Q 16.5 21.390625 20.328125 13.890625 
Q 24.171875 6.390625 31.78125 6.390625 
Q 39.453125 6.390625 43.28125 13.890625 
Q 47.125 21.390625 47.125 36.375 
Q 47.125 51.421875 43.28125 58.90625 
Q 39.453125 66.40625 31.78125 66.40625 
z
M 31.78125 74.21875 
Q 44.046875 74.21875 50.515625 64.515625 
Q 56.984375 54.828125 56.984375 36.375 
Q 56.984375 17.96875 50.515625 8.265625 
Q 44.046875 -1.421875 31.78125 -1.421875 
Q 19.53125 -1.421875 13.0625 8.265625 
Q 6.59375 17.96875 6.59375 36.375 
Q 6.59375 54.828125 13.0625 64.515625 
Q 19.53125 74.21875 31.78125 74.21875 
z
" id="DejaVuSans-48"/>
       <path d="M 10.6875 12.40625 
L 21 12.40625 
L 21 0 
L 10.6875 0 
z
" id="DejaVuSans-46"/>
      </defs>
      <g transform="translate(66.928438 342.918437)scale(0.1 -0.1)">
       <use xlink:href="#DejaVuSans-48"/>
       <use x="63.623047" xlink:href="#DejaVuSans-46"/>
       <use x="95.410156" xlink:href="#DejaVuSans-48"/>
      </g>
     </g>
    </g>
    <g id="xtick_2">
     <g id="line2d_2">
      <g>
       <use style="stroke:#000000;stroke-width:0.8;" x="113.76" xlink:href="#m46848e634f" y="328.32"/>
      </g>
     </g>
     <g id="text_2">
      <!-- 2.5 -->
      <defs>
       <path d="M 19.1875 8.296875 
L 53.609375 8.296875 
L 53.609375 0 
L 7.328125 0 
L 7.328125 8.296875 
Q 12.9375 14.109375 22.625 23.890625 
Q 32.328125 33.6875 34.8125 36.53125 
Q 39.546875 41.84375 41.421875 45.53125 
Q 43.3125 49.21875 43.3125 52.78125 
Q 43.3125 58.59375 39.234375 62.25 
Q 35.15625 65.921875 28.609375 65.921875 
Q 23.96875 65.921875 18.8125 64.3125 
Q 13.671875 62.703125 7.8125 59.421875 
L 7.8125 69.390625 
Q 13.765625 71.78125 18.9375 73 
Q 24.125 74.21875 28.421875 74.21875 
Q 39.75 74.21875 46.484375 68.546875 
Q 53.21875 62.890625 53.21875 53.421875 
Q 53.21875 48.921875 51.53125 44.890625 
Q 49.859375 40.875 45.40625 35.40625 
Q 44.1875 33.984375 37.640625 27.21875 
Q 31.109375 20.453125 19.1875 8.296875 
z
" id="DejaVuSans-50"/>
       <path d="M 10.796875 72.90625 
L 49.515625 72.90625 
L 49.515625 64.59375 
L 19.828125 64.59375 
L 19.828125 46.734375 
Q 21.96875 47.46875 24.109375 47.828125 
Q 26.265625 48.1875 28.421875 48.1875 
Q 40.625 48.1875 47.75 41.5 
Q 54.890625 34.8125 54.890625 23.390625 
Q 54.890625 11.625 47.5625 5.09375 
Q 40.234375 -1.421875 26.90625 -1.421875 
Q 22.3125 -1.421875 17.546875 -0.640625 
Q 12.796875 0.140625 7.71875 1.703125 
L 7.71875 11.625 
Q 12.109375 9.234375 16.796875 8.0625 
Q 21.484375 6.890625 26.703125 6.890625 
Q 35.15625 6.890625 40.078125 11.328125 
Q 45.015625 15.765625 45.015625 23.390625 
Q 45.015625 31 40.078125 35.4375 
Q 35.15625 39.890625 26.703125 39.890625 
Q 22.75 39.890625 18.8125 39.015625 
Q 14.890625 38.140625 10.796875 36.28125 
z
" id="DejaVuSans-53"/>
      </defs>
      <g transform="translate(105.808438 342.918437)scale(0.1 -0.1)">
       <use xlink:href="#DejaVuSans-50"/>
       <use x="63.623047" xlink:href="#DejaVuSans-46"/>
       <use x="95.410156" xlink:href="#DejaVuSans-53"/>
      </g>
     </g>
    </g>
    <g id="xtick_3">
     <g id="line2d_3">
      <g>
       <use style="stroke:#000000;stroke-width:0.8;" x="152.64" xlink:href="#m46848e634f" y="328.32"/>
      </g>
     </g>
     <g id="text_3">
      <!-- 5.0 -->
      <g transform="translate(144.688438 342.918437)scale(0.1 -0.1)">
       <use xlink:href="#DejaVuSans-53"/>
       <use x="63.623047" xlink:href="#DejaVuSans-46"/>
       <use x="95.410156" xlink:href="#DejaVuSans-48"/>
      </g>
     </g>
    </g>
    <g id="xtick_4">
     <g id="line2d_4">
      <g>
       <use style="stroke:#000000;stroke-width:0.8;" x="191.52" xlink:href="#m46848e634f" y="328.32"/>
      </g>
     </g>
     <g id="text_4">
      <!-- 7.5 -->
      <defs>
       <path d="M 8.203125 72.90625 
L 55.078125 72.90625 
L 55.078125 68.703125 
L 28.609375 0 
L 18.3125 0 
L 43.21875 64.59375 
L 8.203125 64.59375 
z
" id="DejaVuSans-55"/>
      </defs>
      <g transform="translate(183.568438 342.918437)scale(0.1 -0.1)">
       <use xlink:href="#DejaVuSans-55"/>
       <use x="63.623047" xlink:href="#DejaVuSans-46"/>
       <use x="95.410156" xlink:href="#DejaVuSans-53"/>
      </g>
     </g>
    </g>
    <g id="xtick_5">
     <g id="line2d_5">
      <g>
       <use style="stroke:#000000;stroke-width:0.8;" x="230.4" xlink:href="#m46848e634f" y="328.32"/>
      </g>
     </g>
     <g id="text_5">
      <!-- 10.0 -->
      <defs>
       <path d="M 12.40625 8.296875 
L 28.515625 8.296875 
L 28.515625 63.921875 
L 10.984375 60.40625 
L 10.984375 69.390625 
L 28.421875 72.90625 
L 38.28125 72.90625 
L 38.28125 8.296875 
L 54.390625 8.296875 
L 54.390625 0 
L 12.40625 0 
z
" id="DejaVuSans-49"/>
      </defs>
      <g transform="translate(219.267188 342.918437)scale(0.1 -0.1)">
       <use xlink:href="#DejaVuSans-49"/>
       <use x="63.623047" xlink:href="#DejaVuSans-48"/>
       <use x="127.246094" xlink:href="#DejaVuSans-46"/>
       <use x="159.033203" xlink:href="#DejaVuSans-48"/>
      </g>
     </g>
    </g>
    <g id="xtick_6">
     <g id="line2d_6">
      <g>
       <use style="stroke:#000000;stroke-width:0.8;" x="269.28" xlink:href="#m46848e634f" y="328.32"/>
      </g>
     </g>
     <g id="text_6">
      <!-- 12.5 -->
      <g transform="translate(258.147188 342.918437)scale(0.1 -0.1)">
       <use xlink:href="#DejaVuSans-49"/>
       <use x="63.623047" xlink:href="#DejaVuSans-50"/>
       <use x="127.246094" xlink:href="#DejaVuSans-46"/>
       <use x="159.033203" xlink:href="#DejaVuSans-53"/>
      </g>
     </g>
    </g>
    <g id="xtick_7">
     <g id="line2d_7">
      <g>
       <use style="stroke:#000000;stroke-width:0.8;" x="308.16" xlink:href="#m46848e634f" y="328.32"/>
      </g>
     </g>
     <g id="text_7">
      <!-- 15.0 -->
      <g transform="translate(297.027188 342.918437)scale(0.1 -0.1)">
       <use xlink:href="#DejaVuSans-49"/>
       <use x="63.623047" xlink:href="#DejaVuSans-53"/>
       <use x="127.246094" xlink:href="#DejaVuSans-46"/>
       <use x="159.033203" xlink:href="#DejaVuSans-48"/>
      </g>
     </g>
    </g>
    <g id="xtick_8">
     <g id="line2d_8">
      <g>
       <use style="stroke:#000000;stroke-width:0.8;" x="347.04" xlink:href="#m46848e634f" y="328.32"/>
      </g>
     </g>
     <g id="text_8">
      <!-- 17.5 -->
      <g transform="translate(335.907187 342.918437)scale(0.1 -0.1)">
       <use xlink:href="#DejaVuSans-49"/>
       <use x="63.623047" xlink:href="#DejaVuSans-55"/>
       <use x="127.246094" xlink:href="#DejaVuSans-46"/>
       <use x="159.033203" xlink:href="#DejaVuSans-53"/>
      </g>
     </g>
    </g>
    <g id="xtick_9">
     <g id="line2d_9">
      <g>
       <use style="stroke:#000000;stroke-width:0.8;" x="385.92" xlink:href="#m46848e634f" y="328.32"/>
      </g>
     </g>
     <g id="text_9">
      <!-- 20.0 -->
      <g transform="translate(374.787187 342.918437)scale(0.1 -0.1)">
       <use xlink:href="#DejaVuSans-50"/>
       <use x="63.623047" xlink:href="#DejaVuSans-48"/>
       <use x="127.246094" xlink:href="#DejaVuSans-46"/>
       <use x="159.033203" xlink:href="#DejaVuSans-48"/>
      </g>
     </g>
    </g>
   </g>
   <g id="matplotlib.axis_2">
    <g id="ytick_1">
     <g id="line2d_10">
      <defs>
       <path d="M 0 0 
L -3.5 0 
" id="mfdec704ffd" style="stroke:#000000;stroke-width:0.8;"/>
      </defs>
      <g>
       <use style="stroke:#000000;stroke-width:0.8;" x="74.88" xlink:href="#mfdec704ffd" y="17.28"/>
      </g>
     </g>
     <g id="text_10">
      <!-- 0.0 -->
      <g transform="translate(51.976875 21.079219)scale(0.1 -0.1)">
       <use xlink:href="#DejaVuSans-48"/>
       <use x="63.623047" xlink:href="#DejaVuSans-46"/>
       <use x="95.410156" xlink:href="#DejaVuSans-48"/>
      </g>
     </g>
    </g>
    <g id="ytick_2">
     <g id="line2d_11">
      <g>
       <use style="stroke:#000000;stroke-width:0.8;" x="74.88" xlink:href="#mfdec704ffd" y="56.16"/>
      </g>
     </g>
     <g id="text_11">
      <!-- 2.5 -->
      <g transform="translate(51.976875 59.959219)scale(0.1 -0.1)">
       <use xlink:href="#DejaVuSans-50"/>
       <use x="63.623047" xlink:href="#DejaVuSans-46"/>
       <use x="95.410156" xlink:href="#DejaVuSans-53"/>
      </g>
     </g>
    </g>
    <g id="ytick_3">
     <g id="line2d_12">
      <g>
       <use style="stroke:#000000;stroke-width:0.8;" x="74.88" xlink:href="#mfdec704ffd" y="95.04"/>
      </g>
     </g>
     <g id="text_12">
      <!-- 5.0 -->
      <g transform="translate(51.976875 98.839219)scale(0.1 -0.1)">
       <use xlink:href="#DejaVuSans-53"/>
       <use x="63.623047" xlink:href="#DejaVuSans-46"/>
       <use x="95.410156" xlink:href="#DejaVuSans-48"/>
      </g>
     </g>
    </g>
    <g id="ytick_4">
     <g id="line2d_13">
      <g>
       <use style="stroke:#000000;stroke-width:0.8;" x="74.88" xlink:href="#mfdec704ffd" y="133.92"/>
      </g>
     </g>
     <g id="text_13">
      <!-- 7.5 -->
      <g transform="translate(51.976875 137.719219)scale(0.1 -0.1)">
       <use xlink:href="#DejaVuSans-55"/>
       <use x="63.623047" xlink:href="#DejaVuSans-46"/>
       <use x="95.410156" xlink:href="#DejaVuSans-53"/>
      </g>
     </g>
    </g>
    <g id="ytick_5">
     <g id="line2d_14">
      <g>
       <use style="stroke:#000000;stroke-width:0.8;" x="74.88" xlink:href="#mfdec704ffd" y="172.8"/>
      </g>
     </g>
     <g id="text_14">
      <!-- 10.0 -->
      <g transform="translate(45.614375 176.599219)scale(0.1 -0.1)">
       <use xlink:href="#DejaVuSans-49"/>
       <use x="63.623047" xlink:href="#DejaVuSans-48"/>
       <use x="127.246094" xlink:href="#DejaVuSans-46"/>
       <use x="159.033203" xlink:href="#DejaVuSans-48"/>
      </g>
     </g>
    </g>
    <g id="ytick_6">
     <g id="line2d_15">
      <g>
       <use style="stroke:#000000;stroke-width:0.8;" x="74.88" xlink:href="#mfdec704ffd" y="211.68"/>
      </g>
     </g>
     <g id="text_15">
      <!-- 12.5 -->
      <g transform="translate(45.614375 215.479219)scale(0.1 -0.1)">
       <use xlink:href="#DejaVuSans-49"/>
       <use x="63.623047" xlink:href="#DejaVuSans-50"/>
       <use x="127.246094" xlink:href="#DejaVuSans-46"/>
       <use x="159.033203" xlink:href="#DejaVuSans-53"/>
      </g>
     </g>
    </g>
    <g id="ytick_7">
     <g id="line2d_16">
      <g>
       <use style="stroke:#000000;stroke-width:0.8;" x="74.88" xlink:href="#mfdec704ffd" y="250.56"/>
      </g>
     </g>
     <g id="text_16">
      <!-- 15.0 -->
      <g transform="translate(45.614375 254.359219)scale(0.1 -0.1)">
       <use xlink:href="#DejaVuSans-49"/>
       <use x="63.623047" xlink:href="#DejaVuSans-53"/>
       <use x="127.246094" xlink:href="#DejaVuSans-46"/>
       <use x="159.033203" xlink:href="#DejaVuSans-48"/>
      </g>
     </g>
    </g>
    <g id="ytick_8">
     <g id="line2d_17">
      <g>
       <use style="stroke:#000000;stroke-width:0.8;" x="74.88" xlink:href="#mfdec704ffd" y="289.44"/>
      </g>
     </g>
     <g id="text_17">
      <!-- 17.5 -->
      <g transform="translate(45.614375 293.239219)scale(0.1 -0.1)">
       <use xlink:href="#DejaVuSans-49"/>
       <use x="63.623047" xlink:href="#DejaVuSans-55"/>
       <use x="127.246094" xlink:href="#DejaVuSans-46"/>
       <use x="159.033203" xlink:href="#DejaVuSans-53"/>
      </g>
     </g>
    </g>
    <g id="ytick_9">
     <g id="line2d_18">
      <g>
       <use style="stroke:#000000;stroke-width:0.8;" x="74.88" xlink:href="#mfdec704ffd" y="328.32"/>
      </g>
     </g>
     <g id="text_18">
      <!-- 20.0 -->
      <g transform="translate(45.614375 332.119219)scale(0.1 -0.1)">
       <use xlink:href="#DejaVuSans-50"/>
       <use x="63.623047" xlink:href="#DejaVuSans-48"/>
       <use x="127.246094" xlink:href="#DejaVuSans-46"/>
       <use x="159.033203" xlink:href="#DejaVuSans-48"/>
      </g>
     </g>
    </g>
   </g>
   <g id="patch_5">
    <path d="M 74.88 328.32 
L 74.88 17.28 
" style="fill:none;stroke:#000000;stroke-linecap:square;stroke-linejoin:miter;stroke-width:0.8;"/>
   </g>
   <g id="patch_6">
    <path d="M 385.92 328.32 
L 385.92 17.28 
" style="fill:none;stroke:#000000;stroke-linecap:square;stroke-linejoin:miter;stroke-width:0.8;"/>
   </g>
   <g id="patch_7">
    <path d="M 74.88 328.32 
L 385.92 328.32 
" style="fill:none;stroke:#000000;stroke-linecap:square;stroke-linejoin:miter;stroke-width:0.8;"/>
   </g>
   <g id="patch_8">
    <path d="M 74.88 17.28 
L 385.92 17.28 
" style="fill:none;stroke:#000000;stroke-linecap:square;stroke-linejoin:miter;stroke-width:0.8;"/>
   </g>
  </g>
 </g>
 <defs>
  <clipPath id="pb1f814b7e0">
   <rect height="311.04" width="311.04" x="74.88" y="17.28"/>
  </clipPath>
 </defs>
</svg>
