<?xml version="1.0" encoding="utf-8" standalone="no"?>
<!DOCTYPE svg PUBLIC "-//W3C//DTD SVG 1.1//EN"
  "http://www.w3.org/Graphics/SVG/1.1/DTD/svg11.dtd">
<!-- Created with matplotlib (http://matplotlib.org/) -->
<svg height="288pt" version="1.1" viewBox="0 0 432 288" width="432pt" xmlns="http://www.w3.org/2000/svg" xmlns:xlink="http://www.w3.org/1999/xlink">
 <defs>
  <style type="text/css">
*{stroke-linecap:butt;stroke-linejoin:round;}
  </style>
 </defs>
 <g id="figure_1">
  <g id="patch_1">
   <path d="M 0 288 
L 432 288 
L 432 0 
L 0 0 
z
" style="fill:#ffffff;"/>
  </g>
  <g id="axes_1">
   <g id="patch_2">
    <path d="M 54 252 
L 388.8 252 
L 388.8 34.56 
L 54 34.56 
z
" style="fill:#ffffff;"/>
   </g>
   <g id="matplotlib.axis_1">
    <g id="xtick_1">
     <g id="line2d_1">
      <defs>
       <path d="M 0 0 
L 0 3.5 
" id="ma9815fd853" style="stroke:#000000;stroke-width:0.8;"/>
      </defs>
      <g>
       <use style="stroke:#000000;stroke-width:0.8;" x="69.218182" xlink:href="#ma9815fd853" y="252"/>
      </g>
     </g>
     <g id="text_1">
      <!-- 0 -->
      <defs>
       <path d="M 31.78125 66.40625 
Q 24.171875 66.40625 20.328125 58.90625 
Q 16.5 51.421875 16.5 36.375 
Q 16.5 21.390625 20.328125 13.890625 
Q 24.171875 6.390625 31.78125 6.390625 
Q 39.453125 6.390625 43.28125 13.890625 
Q 47.125 21.390625 47.125 36.375 
Q 47.125 51.421875 43.28125 58.90625 
Q 39.453125 66.40625 31.78125 66.40625 
z
M 31.78125 74.21875 
Q 44.046875 74.21875 50.515625 64.515625 
Q 56.984375 54.828125 56.984375 36.375 
Q 56.984375 17.96875 50.515625 8.265625 
Q 44.046875 -1.421875 31.78125 -1.421875 
Q 19.53125 -1.421875 13.0625 8.265625 
Q 6.59375 17.96875 6.59375 36.375 
Q 6.59375 54.828125 13.0625 64.515625 
Q 19.53125 74.21875 31.78125 74.21875 
z
" id="DejaVuSans-30"/>
      </defs>
      <g transform="translate(66.036932 266.598437)scale(0.1 -0.1)">
       <use xlink:href="#DejaVuSans-30"/>
      </g>
     </g>
    </g>
    <g id="xtick_2">
     <g id="line2d_2">
      <g>
       <use style="stroke:#000000;stroke-width:0.8;" x="130.103086" xlink:href="#ma9815fd853" y="252"/>
      </g>
     </g>
     <g id="text_2">
      <!-- 1000 -->
      <defs>
       <path d="M 12.40625 8.296875 
L 28.515625 8.296875 
L 28.515625 63.921875 
L 10.984375 60.40625 
L 10.984375 69.390625 
L 28.421875 72.90625 
L 38.28125 72.90625 
L 38.28125 8.296875 
L 54.390625 8.296875 
L 54.390625 0 
L 12.40625 0 
z
" id="DejaVuSans-31"/>
      </defs>
      <g transform="translate(117.378086 266.598437)scale(0.1 -0.1)">
       <use xlink:href="#DejaVuSans-31"/>
       <use x="63.623047" xlink:href="#DejaVuSans-30"/>
       <use x="127.246094" xlink:href="#DejaVuSans-30"/>
       <use x="190.869141" xlink:href="#DejaVuSans-30"/>
      </g>
     </g>
    </g>
    <g id="xtick_3">
     <g id="line2d_3">
      <g>
       <use style="stroke:#000000;stroke-width:0.8;" x="190.98799" xlink:href="#ma9815fd853" y="252"/>
      </g>
     </g>
     <g id="text_3">
      <!-- 2000 -->
      <defs>
       <path d="M 19.1875 8.296875 
L 53.609375 8.296875 
L 53.609375 0 
L 7.328125 0 
L 7.328125 8.296875 
Q 12.9375 14.109375 22.625 23.890625 
Q 32.328125 33.6875 34.8125 36.53125 
Q 39.546875 41.84375 41.421875 45.53125 
Q 43.3125 49.21875 43.3125 52.78125 
Q 43.3125 58.59375 39.234375 62.25 
Q 35.15625 65.921875 28.609375 65.921875 
Q 23.96875 65.921875 18.8125 64.3125 
Q 13.671875 62.703125 7.8125 59.421875 
L 7.8125 69.390625 
Q 13.765625 71.78125 18.9375 73 
Q 24.125 74.21875 28.421875 74.21875 
Q 39.75 74.21875 46.484375 68.546875 
Q 53.21875 62.890625 53.21875 53.421875 
Q 53.21875 48.921875 51.53125 44.890625 
Q 49.859375 40.875 45.40625 35.40625 
Q 44.1875 33.984375 37.640625 27.21875 
Q 31.109375 20.453125 19.1875 8.296875 
z
" id="DejaVuSans-32"/>
      </defs>
      <g transform="translate(178.26299 266.598437)scale(0.1 -0.1)">
       <use xlink:href="#DejaVuSans-32"/>
       <use x="63.623047" xlink:href="#DejaVuSans-30"/>
       <use x="127.246094" xlink:href="#DejaVuSans-30"/>
       <use x="190.869141" xlink:href="#DejaVuSans-30"/>
      </g>
     </g>
    </g>
    <g id="xtick_4">
     <g id="line2d_4">
      <g>
       <use style="stroke:#000000;stroke-width:0.8;" x="251.872895" xlink:href="#ma9815fd853" y="252"/>
      </g>
     </g>
     <g id="text_4">
      <!-- 3000 -->
      <defs>
       <path d="M 40.578125 39.3125 
Q 47.65625 37.796875 51.625 33 
Q 55.609375 28.21875 55.609375 21.1875 
Q 55.609375 10.40625 48.1875 4.484375 
Q 40.765625 -1.421875 27.09375 -1.421875 
Q 22.515625 -1.421875 17.65625 -0.515625 
Q 12.796875 0.390625 7.625 2.203125 
L 7.625 11.71875 
Q 11.71875 9.328125 16.59375 8.109375 
Q 21.484375 6.890625 26.8125 6.890625 
Q 36.078125 6.890625 40.9375 10.546875 
Q 45.796875 14.203125 45.796875 21.1875 
Q 45.796875 27.640625 41.28125 31.265625 
Q 36.765625 34.90625 28.71875 34.90625 
L 20.21875 34.90625 
L 20.21875 43.015625 
L 29.109375 43.015625 
Q 36.375 43.015625 40.234375 45.921875 
Q 44.09375 48.828125 44.09375 54.296875 
Q 44.09375 59.90625 40.109375 62.90625 
Q 36.140625 65.921875 28.71875 65.921875 
Q 24.65625 65.921875 20.015625 65.03125 
Q 15.375 64.15625 9.8125 62.3125 
L 9.8125 71.09375 
Q 15.4375 72.65625 20.34375 73.4375 
Q 25.25 74.21875 29.59375 74.21875 
Q 40.828125 74.21875 47.359375 69.109375 
Q 53.90625 64.015625 53.90625 55.328125 
Q 53.90625 49.265625 50.4375 45.09375 
Q 46.96875 40.921875 40.578125 39.3125 
z
" id="DejaVuSans-33"/>
      </defs>
      <g transform="translate(239.147895 266.598437)scale(0.1 -0.1)">
       <use xlink:href="#DejaVuSans-33"/>
       <use x="63.623047" xlink:href="#DejaVuSans-30"/>
       <use x="127.246094" xlink:href="#DejaVuSans-30"/>
       <use x="190.869141" xlink:href="#DejaVuSans-30"/>
      </g>
     </g>
    </g>
    <g id="xtick_5">
     <g id="line2d_5">
      <g>
       <use style="stroke:#000000;stroke-width:0.8;" x="312.757799" xlink:href="#ma9815fd853" y="252"/>
      </g>
     </g>
     <g id="text_5">
      <!-- 4000 -->
      <defs>
       <path d="M 37.796875 64.3125 
L 12.890625 25.390625 
L 37.796875 25.390625 
z
M 35.203125 72.90625 
L 47.609375 72.90625 
L 47.609375 25.390625 
L 58.015625 25.390625 
L 58.015625 17.1875 
L 47.609375 17.1875 
L 47.609375 0 
L 37.796875 0 
L 37.796875 17.1875 
L 4.890625 17.1875 
L 4.890625 26.703125 
z
" id="DejaVuSans-34"/>
      </defs>
      <g transform="translate(300.032799 266.598437)scale(0.1 -0.1)">
       <use xlink:href="#DejaVuSans-34"/>
       <use x="63.623047" xlink:href="#DejaVuSans-30"/>
       <use x="127.246094" xlink:href="#DejaVuSans-30"/>
       <use x="190.869141" xlink:href="#DejaVuSans-30"/>
      </g>
     </g>
    </g>
    <g id="xtick_6">
     <g id="line2d_6">
      <g>
       <use style="stroke:#000000;stroke-width:0.8;" x="373.642703" xlink:href="#ma9815fd853" y="252"/>
      </g>
     </g>
     <g id="text_6">
      <!-- 5000 -->
      <defs>
       <path d="M 10.796875 72.90625 
L 49.515625 72.90625 
L 49.515625 64.59375 
L 19.828125 64.59375 
L 19.828125 46.734375 
Q 21.96875 47.46875 24.109375 47.828125 
Q 26.265625 48.1875 28.421875 48.1875 
Q 40.625 48.1875 47.75 41.5 
Q 54.890625 34.8125 54.890625 23.390625 
Q 54.890625 11.625 47.5625 5.09375 
Q 40.234375 -1.421875 26.90625 -1.421875 
Q 22.3125 -1.421875 17.546875 -0.640625 
Q 12.796875 0.140625 7.71875 1.703125 
L 7.71875 11.625 
Q 12.109375 9.234375 16.796875 8.0625 
Q 21.484375 6.890625 26.703125 6.890625 
Q 35.15625 6.890625 40.078125 11.328125 
Q 45.015625 15.765625 45.015625 23.390625 
Q 45.015625 31 40.078125 35.4375 
Q 35.15625 39.890625 26.703125 39.890625 
Q 22.75 39.890625 18.8125 39.015625 
Q 14.890625 38.140625 10.796875 36.28125 
z
" id="DejaVuSans-35"/>
      </defs>
      <g transform="translate(360.917703 266.598437)scale(0.1 -0.1)">
       <use xlink:href="#DejaVuSans-35"/>
       <use x="63.623047" xlink:href="#DejaVuSans-30"/>
       <use x="127.246094" xlink:href="#DejaVuSans-30"/>
       <use x="190.869141" xlink:href="#DejaVuSans-30"/>
      </g>
     </g>
    </g>
   </g>
   <g id="matplotlib.axis_2">
    <g id="ytick_1">
     <g id="line2d_7">
      <defs>
       <path d="M 0 0 
L -3.5 0 
" id="m2cacdd0cf4" style="stroke:#000000;stroke-width:0.8;"/>
      </defs>
      <g>
       <use style="stroke:#000000;stroke-width:0.8;" x="54" xlink:href="#m2cacdd0cf4" y="252"/>
      </g>
     </g>
     <g id="text_7">
      <!-- 0 -->
      <g transform="translate(40.6375 255.799219)scale(0.1 -0.1)">
       <use xlink:href="#DejaVuSans-30"/>
      </g>
     </g>
    </g>
    <g id="ytick_2">
     <g id="line2d_8">
      <g>
       <use style="stroke:#000000;stroke-width:0.8;" x="54" xlink:href="#m2cacdd0cf4" y="215.76"/>
      </g>
     </g>
     <g id="text_8">
      <!-- 50 -->
      <g transform="translate(34.275 219.559219)scale(0.1 -0.1)">
       <use xlink:href="#DejaVuSans-35"/>
       <use x="63.623047" xlink:href="#DejaVuSans-30"/>
      </g>
     </g>
    </g>
    <g id="ytick_3">
     <g id="line2d_9">
      <g>
       <use style="stroke:#000000;stroke-width:0.8;" x="54" xlink:href="#m2cacdd0cf4" y="179.52"/>
      </g>
     </g>
     <g id="text_9">
      <!-- 100 -->
      <g transform="translate(27.9125 183.319219)scale(0.1 -0.1)">
       <use xlink:href="#DejaVuSans-31"/>
       <use x="63.623047" xlink:href="#DejaVuSans-30"/>
       <use x="127.246094" xlink:href="#DejaVuSans-30"/>
      </g>
     </g>
    </g>
    <g id="ytick_4">
     <g id="line2d_10">
      <g>
       <use style="stroke:#000000;stroke-width:0.8;" x="54" xlink:href="#m2cacdd0cf4" y="143.28"/>
      </g>
     </g>
     <g id="text_10">
      <!-- 150 -->
      <g transform="translate(27.9125 147.079219)scale(0.1 -0.1)">
       <use xlink:href="#DejaVuSans-31"/>
       <use x="63.623047" xlink:href="#DejaVuSans-35"/>
       <use x="127.246094" xlink:href="#DejaVuSans-30"/>
      </g>
     </g>
    </g>
    <g id="ytick_5">
     <g id="line2d_11">
      <g>
       <use style="stroke:#000000;stroke-width:0.8;" x="54" xlink:href="#m2cacdd0cf4" y="107.04"/>
      </g>
     </g>
     <g id="text_11">
      <!-- 200 -->
      <g transform="translate(27.9125 110.839219)scale(0.1 -0.1)">
       <use xlink:href="#DejaVuSans-32"/>
       <use x="63.623047" xlink:href="#DejaVuSans-30"/>
       <use x="127.246094" xlink:href="#DejaVuSans-30"/>
      </g>
     </g>
    </g>
    <g id="ytick_6">
     <g id="line2d_12">
      <g>
       <use style="stroke:#000000;stroke-width:0.8;" x="54" xlink:href="#m2cacdd0cf4" y="70.8"/>
      </g>
     </g>
     <g id="text_12">
      <!-- 250 -->
      <g transform="translate(27.9125 74.599219)scale(0.1 -0.1)">
       <use xlink:href="#DejaVuSans-32"/>
       <use x="63.623047" xlink:href="#DejaVuSans-35"/>
       <use x="127.246094" xlink:href="#DejaVuSans-30"/>
      </g>
     </g>
    </g>
    <g id="ytick_7">
     <g id="line2d_13">
      <g>
       <use style="stroke:#000000;stroke-width:0.8;" x="54" xlink:href="#m2cacdd0cf4" y="34.56"/>
      </g>
     </g>
     <g id="text_13">
      <!-- 300 -->
      <g transform="translate(27.9125 38.359219)scale(0.1 -0.1)">
       <use xlink:href="#DejaVuSans-33"/>
       <use x="63.623047" xlink:href="#DejaVuSans-30"/>
       <use x="127.246094" xlink:href="#DejaVuSans-30"/>
      </g>
     </g>
    </g>
   </g>
   <g id="line2d_14">
    <path clip-path="url(#p392e815b37)" d="M 69.218182 252 
L 69.400837 252 
L 69.522606 249.8256 
L 69.644376 252 
L 69.827031 249.8256 
L 69.887916 252 
L 69.948801 251.2752 
L 70.07057 252 
L 70.618535 252 
L 70.67942 249.1008 
L 70.801189 252 
L 70.862074 250.5504 
L 70.922959 252 
L 70.983844 251.2752 
L 71.105614 252 
L 71.166499 251.2752 
L 71.288269 252 
L 71.836233 252 
L 71.897118 251.2752 
L 72.018887 252 
L 72.688621 252 
L 72.749506 250.5504 
L 72.871276 252 
L 72.932161 252 
L 73.053931 250.5504 
L 73.175701 252 
L 73.236585 252 
L 73.29747 251.2752 
L 73.358355 252 
L 73.41924 251.2752 
L 73.54101 252 
L 73.601895 252 
L 73.66278 251.2752 
L 73.78455 252 
L 73.906319 252 
L 73.967204 251.2752 
L 74.088974 252 
L 74.332514 252 
L 74.393399 251.2752 
L 74.515168 252 
L 74.576053 249.1008 
L 74.636938 252 
L 74.697823 251.2752 
L 74.758708 252 
L 74.880478 251.2752 
L 75.002248 252 
L 75.124018 252 
L 75.184902 250.5504 
L 75.245787 252 
L 75.306672 251.2752 
L 75.367557 250.5504 
L 75.550212 252 
L 75.611097 252 
L 75.732867 250.5504 
L 75.854636 252 
L 75.915521 251.2752 
L 75.976406 252 
L 76.037291 250.5504 
L 76.159061 252 
L 76.219946 252 
L 76.280831 251.2752 
L 76.402601 252 
L 76.463485 252 
L 76.585255 250.5504 
L 76.707025 252 
L 76.76791 252 
L 76.88968 250.5504 
L 77.01145 252 
L 77.437644 252 
L 77.498529 250.5504 
L 77.620299 252 
L 77.681184 252 
L 77.742068 251.2752 
L 77.863838 252 
L 78.411802 252 
L 78.472687 250.5504 
L 78.594457 252 
L 78.898882 252 
L 78.959766 249.8256 
L 79.081536 252 
L 79.325076 252 
L 79.385961 250.5504 
L 79.507731 252 
L 79.568616 251.2752 
L 79.690385 252 
L 79.812155 252 
L 79.87304 249.1008 
L 79.99481 252 
L 80.360119 252 
L 80.421004 250.5504 
L 80.542774 252 
L 80.664544 252 
L 80.725429 251.2752 
L 80.847199 252 
L 80.968968 252 
L 81.029853 250.5504 
L 81.151623 252 
L 81.212508 252 
L 81.273393 249.1008 
L 81.395163 252 
L 81.456048 251.2752 
L 81.516932 252 
L 81.577817 251.2752 
L 81.638702 252 
L 81.699587 250.5504 
L 81.821357 252 
L 81.882242 252 
L 82.004012 251.2752 
L 82.064897 251.2752 
L 82.186666 252 
L 82.247551 252 
L 82.308436 251.2752 
L 82.430206 252 
L 82.491091 252 
L 82.612861 251.2752 
L 82.734631 252 
L 83.34348 252 
L 83.404365 251.2752 
L 83.526134 252 
L 83.587019 250.5504 
L 83.708789 252 
L 83.769674 244.0272 
L 83.891444 252 
L 83.952329 251.2752 
L 84.074098 252 
L 84.195868 252 
L 84.378523 250.5504 
L 84.500293 252 
L 84.561178 252 
L 84.622063 250.5504 
L 84.743832 252 
L 84.926487 252 
L 84.987372 251.2752 
L 85.109142 252 
L 85.170027 252 
L 85.230912 250.5504 
L 85.291797 251.2752 
L 85.352681 252 
L 85.413566 249.8256 
L 85.474451 252 
L 85.535336 251.2752 
L 85.596221 251.2752 
L 85.657106 252 
L 85.717991 250.5504 
L 85.839761 252 
L 86.022415 252 
L 86.0833 250.5504 
L 86.20507 252 
L 86.265955 250.5504 
L 86.387725 252 
L 86.57038 252 
L 86.631264 247.6512 
L 86.753034 252 
L 86.996574 252 
L 87.057459 249.8256 
L 87.179229 252 
L 87.240113 252 
L 87.300998 250.5504 
L 87.422768 252 
L 87.483653 252 
L 87.544538 251.2752 
L 87.666308 252 
L 87.727193 252 
L 87.788078 251.2752 
L 87.909847 252 
L 88.031617 252 
L 88.092502 249.1008 
L 88.214272 252 
L 88.336042 252 
L 88.396927 250.5504 
L 88.457812 252 
L 88.518696 250.5504 
L 88.579581 252 
L 88.640466 249.8256 
L 88.701351 251.2752 
L 88.823121 252 
L 88.944891 252 
L 89.005776 251.2752 
L 89.127546 252 
L 89.18843 252 
L 89.249315 251.2752 
L 89.371085 252 
L 89.43197 252 
L 89.492855 250.5504 
L 89.55374 252 
L 89.614625 251.2752 
L 89.736395 251.2752 
L 89.858164 252 
L 90.101704 252 
L 90.162589 251.2752 
L 90.284359 252 
L 90.467013 252 
L 90.588783 251.2752 
L 90.710553 252 
L 91.075862 252 
L 91.136747 251.2752 
L 91.258517 252 
L 91.502057 252 
L 91.562942 251.2752 
L 91.684711 252 
L 92.050021 252 
L 92.110906 251.2752 
L 92.232676 252 
L 92.476215 252 
L 92.5371 249.1008 
L 92.65887 252 
L 92.719755 249.8256 
L 92.78064 252 
L 92.841525 249.1008 
L 92.90241 250.5504 
L 92.963294 252 
L 93.024179 251.2752 
L 93.145949 252 
L 93.206834 252 
L 93.267719 250.5504 
L 93.328604 252 
L 93.389489 251.2752 
L 93.450374 251.2752 
L 93.511259 252 
L 93.572144 251.2752 
L 93.633028 252 
L 93.693913 251.2752 
L 93.754798 252 
L 93.815683 251.2752 
L 93.937453 252 
L 93.998338 251.2752 
L 94.120108 252 
L 94.180993 251.2752 
L 94.241877 246.2016 
L 94.363647 252 
L 94.424532 252 
L 94.485417 250.5504 
L 94.546302 252 
L 94.607187 251.2752 
L 94.668072 251.2752 
L 94.789842 252 
L 95.398691 252 
L 95.459576 251.2752 
L 95.52046 252 
L 95.581345 251.2752 
L 95.703115 252 
L 95.764 252 
L 95.824885 250.5504 
L 95.946655 252 
L 96.00754 249.8256 
L 96.129309 252 
L 96.190194 252 
L 96.251079 251.2752 
L 96.372849 252 
L 96.677274 252 
L 96.799043 249.8256 
L 96.920813 252 
L 97.103468 252 
L 97.164353 251.2752 
L 97.286123 252 
L 97.347008 252 
L 97.407892 251.2752 
L 97.529662 252 
L 97.590547 250.5504 
L 97.712317 252 
L 97.834087 252 
L 97.894972 250.5504 
L 97.955857 251.2752 
L 98.016742 250.5504 
L 98.077626 252 
L 98.138511 251.2752 
L 98.199396 251.2752 
L 98.260281 246.9264 
L 98.382051 252 
L 98.442936 251.2752 
L 98.503821 252 
L 98.564706 251.2752 
L 98.686475 252 
L 98.808245 252 
L 98.86913 250.5504 
L 98.9909 252 
L 99.051785 251.2752 
L 99.173555 252 
L 99.417094 252 
L 99.599749 249.1008 
L 99.721519 252 
L 99.782404 250.5504 
L 99.904174 252 
L 100.269483 252 
L 100.330368 250.5504 
L 100.452138 252 
L 100.513023 252 
L 100.573908 251.2752 
L 100.634792 252 
L 100.695677 251.2752 
L 100.756562 252 
L 100.817447 251.2752 
L 100.939217 252 
L 101.060987 250.5504 
L 101.182757 252 
L 101.243641 250.5504 
L 101.365411 252 
L 101.426296 250.5504 
L 101.487181 252 
L 101.548066 249.1008 
L 101.608951 252 
L 101.669836 251.2752 
L 101.730721 250.5504 
L 101.913375 252 
L 101.97426 251.2752 
L 102.09603 252 
L 102.278685 252 
L 102.33957 249.8256 
L 102.46134 252 
L 102.704879 252 
L 102.765764 250.5504 
L 102.887534 252 
L 103.070189 252 
L 103.131073 250.5504 
L 103.252843 252 
L 103.313728 252 
L 103.374613 251.2752 
L 103.496383 252 
L 104.044347 252 
L 104.105232 251.2752 
L 104.227002 252 
L 104.287887 252 
L 104.348772 249.8256 
L 104.409656 251.2752 
L 104.531426 252 
L 104.592311 252 
L 104.653196 251.2752 
L 104.774966 252 
L 105.018506 252 
L 105.07939 250.5504 
L 105.20116 252 
L 105.32293 250.5504 
L 105.4447 252 
L 105.505585 250.5504 
L 105.627355 252 
L 105.931779 252 
L 105.992664 251.2752 
L 106.114434 252 
L 106.175319 252 
L 106.236204 251.2752 
L 106.357973 252 
L 106.418858 250.5504 
L 106.540628 252 
L 106.601513 252 
L 106.662398 250.5504 
L 106.723283 251.2752 
L 106.845053 250.5504 
L 106.905938 252 
L 106.966822 250.5504 
L 107.027707 251.2752 
L 107.088592 251.2752 
L 107.210362 252 
L 107.453902 252 
L 107.575671 249.8256 
L 107.636556 250.5504 
L 107.819211 252 
L 108.001866 252 
L 108.062751 251.2752 
L 108.184521 252 
L 108.245405 252 
L 108.367175 251.2752 
L 108.488945 252 
L 108.610715 252 
L 108.732485 249.8256 
L 108.915139 252 
L 109.158679 252 
L 109.219564 249.8256 
L 109.341334 252 
L 109.402219 251.2752 
L 109.523988 252 
L 109.828413 252 
L 109.889298 251.2752 
L 110.011068 252 
L 110.071953 252 
L 110.193722 251.2752 
L 110.315492 252 
L 110.619917 252 
L 110.680802 251.2752 
L 110.741687 249.1008 
L 110.802571 252 
L 110.863456 251.2752 
L 110.985226 252 
L 111.167881 252 
L 111.289651 249.8256 
L 111.350536 250.5504 
L 111.472305 252 
L 111.715845 252 
L 111.837615 250.5504 
L 112.02027 252 
L 112.081154 252 
L 112.142039 250.5504 
L 112.263809 252 
L 112.324694 251.2752 
L 112.446464 252 
L 112.507349 252 
L 112.568234 251.2752 
L 112.629119 252 
L 112.690003 249.8256 
L 112.811773 252 
L 112.933543 251.2752 
L 112.994428 251.2752 
L 113.116198 252 
L 113.177083 252 
L 113.237968 251.2752 
L 113.298852 252 
L 113.359737 251.2752 
L 113.481507 252 
L 113.542392 251.2752 
L 113.664162 252 
L 113.846817 252 
L 113.907702 249.8256 
L 114.029471 252 
L 114.577435 252 
L 114.63832 251.2752 
L 114.699205 252 
L 114.76009 250.5504 
L 114.88186 252 
L 115.186285 252 
L 115.247169 251.2752 
L 115.368939 252 
L 115.429824 248.376 
L 115.551594 252 
L 115.673364 252 
L 115.734249 250.5504 
L 115.795134 251.2752 
L 115.856018 252 
L 115.916903 249.1008 
L 116.038673 252 
L 116.160443 252 
L 116.221328 251.2752 
L 116.282213 252 
L 116.343098 248.376 
L 116.464868 252 
L 116.830177 252 
L 116.891062 251.2752 
L 116.951947 252 
L 117.012832 251.2752 
L 117.073717 252 
L 117.134601 251.2752 
L 117.256371 252 
L 117.378141 251.2752 
L 117.499911 252 
L 117.560796 252 
L 117.621681 251.2752 
L 117.743451 252 
L 117.804335 251.2752 
L 117.926105 252 
L 117.98699 249.8256 
L 118.10876 252 
L 118.291415 252 
L 118.3523 249.8256 
L 118.474069 252 
L 118.534954 252 
L 118.595839 249.8256 
L 118.717609 252 
L 118.839379 252 
L 118.900264 251.2752 
L 119.022033 252 
L 119.082918 246.9264 
L 119.204688 252 
L 119.265573 250.5504 
L 119.387343 252 
L 119.509113 250.5504 
L 119.630883 252 
L 119.691767 252 
L 119.752652 250.5504 
L 119.813537 252 
L 119.874422 248.376 
L 119.935307 250.5504 
L 119.996192 252 
L 120.057077 251.2752 
L 120.178847 252 
L 120.544156 252 
L 120.605041 251.2752 
L 120.665926 252 
L 120.726811 250.5504 
L 120.848581 252 
L 121.153005 252 
L 121.21389 251.2752 
L 121.274775 252 
L 121.33566 248.376 
L 121.396545 251.2752 
L 121.518315 252 
L 121.579199 250.5504 
L 121.640084 251.2752 
L 121.761854 252 
L 121.822739 252 
L 121.883624 251.2752 
L 122.005394 252 
L 122.127164 252 
L 122.188049 251.2752 
L 122.248933 252 
L 122.309818 251.2752 
L 122.431588 252 
L 122.492473 251.2752 
L 122.553358 252 
L 122.614243 250.5504 
L 122.736013 252 
L 122.857782 251.2752 
L 122.979552 252 
L 123.101322 251.2752 
L 123.162207 251.2752 
L 123.223092 252 
L 123.283977 250.5504 
L 123.405747 252 
L 123.831941 252 
L 123.892826 250.5504 
L 124.014596 252 
L 125.110524 252 
L 125.232294 249.8256 
L 125.354064 252 
L 125.536718 252 
L 125.658488 249.1008 
L 125.719373 252 
L 125.780258 251.2752 
L 125.841143 249.8256 
L 126.023797 252 
L 126.084682 248.376 
L 126.145567 250.5504 
L 126.267337 252 
L 126.328222 252 
L 126.389107 249.8256 
L 126.510877 252 
L 126.754416 252 
L 126.815301 251.2752 
L 126.937071 252 
L 127.180611 252 
L 127.241496 250.5504 
L 127.363265 252 
L 127.42415 251.2752 
L 127.485035 252 
L 127.54592 249.8256 
L 127.66769 252 
L 127.728575 252 
L 127.78946 250.5504 
L 127.91123 252 
L 128.154769 252 
L 128.215654 251.2752 
L 128.276539 252 
L 128.337424 249.8256 
L 128.459194 252 
L 128.824503 252 
L 128.885388 251.2752 
L 128.946273 252 
L 129.007158 249.1008 
L 129.128928 252 
L 129.920431 252 
L 130.042201 251.2752 
L 130.103086 248.376 
L 130.224856 252 
L 130.52928 252 
L 130.590165 249.8256 
L 130.711935 252 
L 130.77282 251.2752 
L 130.89459 252 
L 131.01636 252 
L 131.077245 251.2752 
L 131.199014 252 
L 131.259899 249.8256 
L 131.381669 252 
L 131.442554 252 
L 131.564324 250.5504 
L 131.686094 252 
L 131.746978 252 
L 131.807863 250.5504 
L 131.868748 252 
L 131.929633 251.2752 
L 132.051403 252 
L 132.112288 251.2752 
L 132.234058 252 
L 132.477597 252 
L 132.538482 251.2752 
L 132.660252 252 
L 132.903792 252 
L 132.964677 250.5504 
L 133.086446 252 
L 133.147331 252 
L 133.208216 250.5504 
L 133.269101 251.2752 
L 133.329986 250.5504 
L 133.390871 252 
L 133.451756 251.2752 
L 133.512641 252 
L 133.573526 250.5504 
L 133.695295 252 
L 133.75618 252 
L 133.87795 250.5504 
L 133.99972 252 
L 134.060605 250.5504 
L 134.12149 252 
L 134.182375 251.2752 
L 134.304144 252 
L 134.365029 252 
L 134.425914 251.2752 
L 134.547684 252 
L 134.608569 249.8256 
L 134.669454 251.2752 
L 134.791224 252 
L 134.852109 252 
L 134.912994 250.5504 
L 134.973878 251.2752 
L 135.034763 250.5504 
L 135.095648 252 
L 135.156533 251.2752 
L 135.278303 252 
L 135.460958 252 
L 135.582727 251.2752 
L 135.643612 251.2752 
L 135.704497 249.8256 
L 135.765382 252 
L 135.826267 250.5504 
L 135.948037 252 
L 136.008922 252 
L 136.069807 249.1008 
L 136.191576 252 
L 136.313346 252 
L 136.374231 251.2752 
L 136.496001 252 
L 136.678656 249.1008 
L 136.800426 251.2752 
L 136.86131 251.2752 
L 136.922195 252 
L 136.98308 251.2752 
L 137.10485 252 
L 137.165735 249.1008 
L 137.22662 250.5504 
L 137.287505 252 
L 137.409275 250.5504 
L 137.470159 252 
L 137.531044 251.2752 
L 137.591929 251.2752 
L 137.652814 252 
L 137.774584 249.1008 
L 137.896354 252 
L 138.139893 252 
L 138.200778 250.5504 
L 138.261663 251.2752 
L 138.383433 252 
L 138.444318 247.6512 
L 138.566088 252 
L 138.748742 252 
L 138.870512 249.8256 
L 139.114052 252 
L 139.235822 251.2752 
L 139.296707 252 
L 139.418476 250.5504 
L 139.479361 252 
L 139.540246 249.8256 
L 139.662016 252 
L 139.844671 252 
L 140.027325 249.8256 
L 140.20998 252 
L 140.33175 252 
L 140.45352 250.5504 
L 140.514405 251.2752 
L 140.57529 250.5504 
L 140.697059 252 
L 140.818829 252 
L 140.879714 251.2752 
L 141.001484 252 
L 141.123254 252 
L 141.184139 250.5504 
L 141.305908 252 
L 141.366793 251.2752 
L 141.427678 252 
L 141.488563 250.5504 
L 141.549448 251.2752 
L 141.671218 251.2752 
L 141.792988 252 
L 141.914757 252 
L 141.975642 250.5504 
L 142.036527 251.2752 
L 142.097412 251.2752 
L 142.158297 252 
L 142.219182 246.9264 
L 142.280067 252 
L 142.340952 249.1008 
L 142.462722 252 
L 142.584491 252 
L 142.645376 251.2752 
L 142.767146 252 
L 142.828031 250.5504 
L 142.888916 251.2752 
L 142.949801 252 
L 143.010686 249.8256 
L 143.071571 251.2752 
L 143.132456 252 
L 143.19334 250.5504 
L 143.31511 252 
L 143.375995 250.5504 
L 143.497765 252 
L 143.55865 252 
L 143.619535 251.2752 
L 143.68042 252 
L 143.741305 249.8256 
L 143.80219 250.5504 
L 143.863074 252 
L 143.923959 251.2752 
L 143.984844 251.2752 
L 144.045729 252 
L 144.106614 250.5504 
L 144.167499 252 
L 144.228384 249.8256 
L 144.350154 252 
L 144.471923 252 
L 144.532808 249.8256 
L 144.593693 250.5504 
L 144.654578 252 
L 144.715463 248.376 
L 144.837233 252 
L 144.898118 251.2752 
L 145.019888 252 
L 145.080773 252 
L 145.141657 251.2752 
L 145.263427 252 
L 145.324312 252 
L 145.385197 249.8256 
L 145.506967 252 
L 146.42024 252 
L 146.481125 249.1008 
L 146.54201 251.2752 
L 146.602895 251.2752 
L 146.66378 252 
L 146.724665 251.2752 
L 146.846435 252 
L 146.90732 252 
L 146.968205 251.2752 
L 147.029089 252 
L 147.089974 250.5504 
L 147.150859 252 
L 147.211744 251.2752 
L 147.333514 252 
L 147.394399 251.2752 
L 147.455284 252 
L 147.516169 251.2752 
L 147.637938 252 
L 147.759708 251.2752 
L 147.881478 251.2752 
L 147.942363 252 
L 148.003248 250.5504 
L 148.125018 252 
L 148.307672 252 
L 148.368557 249.8256 
L 148.490327 252 
L 148.551212 251.2752 
L 148.672982 252 
L 148.733867 249.8256 
L 148.794752 252 
L 148.855637 251.2752 
L 148.916521 251.2752 
L 148.977406 249.8256 
L 149.099176 252 
L 149.342716 252 
L 149.403601 251.2752 
L 149.525371 252 
L 149.76891 252 
L 149.829795 249.8256 
L 149.951565 252 
L 150.073335 252 
L 150.13422 250.5504 
L 150.255989 252 
L 150.560414 252 
L 150.621299 251.2752 
L 150.743069 252 
L 151.108378 252 
L 151.230148 251.2752 
L 151.351918 252 
L 151.412803 252 
L 151.473687 249.1008 
L 151.595457 252 
L 151.656342 251.2752 
L 151.778112 252 
L 151.838997 251.2752 
L 151.960767 252 
L 152.143421 252 
L 152.204306 251.2752 
L 152.326076 252 
L 152.386961 252 
L 152.447846 249.1008 
L 152.569616 252 
L 152.934925 252 
L 152.99581 250.5504 
L 153.11758 252 
L 153.178465 250.5504 
L 153.23935 252 
L 153.300235 250.5504 
L 153.361119 251.2752 
L 153.482889 252 
L 153.543774 251.2752 
L 153.665544 252 
L 153.726429 251.2752 
L 153.787314 249.1008 
L 153.848199 252 
L 153.909084 251.2752 
L 153.969969 252 
L 154.030853 250.5504 
L 154.091738 251.2752 
L 154.152623 250.5504 
L 154.274393 252 
L 154.396163 252 
L 154.457048 251.2752 
L 154.578818 252 
L 154.639702 250.5504 
L 154.761472 252 
L 154.822357 251.2752 
L 154.944127 252 
L 155.065897 252 
L 155.126782 251.2752 
L 155.248552 252 
L 155.552976 252 
L 155.613861 251.2752 
L 155.674746 252 
L 155.735631 251.2752 
L 155.796516 252 
L 155.857401 251.2752 
L 155.918285 252 
L 155.97917 250.5504 
L 156.040055 252 
L 156.10094 249.8256 
L 156.161825 251.2752 
L 156.22271 251.2752 
L 156.283595 250.5504 
L 156.34448 252 
L 156.405365 251.2752 
L 156.527135 252 
L 156.588019 252 
L 156.648904 250.5504 
L 156.770674 252 
L 157.014214 252 
L 157.075099 251.2752 
L 157.196868 252 
L 157.501293 252 
L 157.562178 250.5504 
L 157.683948 252 
L 157.744833 252 
L 157.805718 250.5504 
L 157.927487 252 
L 158.049257 252 
L 158.110142 251.2752 
L 158.231912 252 
L 158.292797 249.8256 
L 158.353682 252 
L 158.414567 251.2752 
L 158.536336 252 
L 158.901646 252 
L 158.962531 250.5504 
L 159.023416 252 
L 159.0843 251.2752 
L 159.266955 249.1008 
L 159.388725 252 
L 159.510495 252 
L 159.69315 249.8256 
L 159.814919 252 
L 159.875804 250.5504 
L 159.997574 252 
L 160.789078 252 
L 160.849963 251.2752 
L 160.910848 252 
L 160.971733 249.1008 
L 161.093502 252 
L 161.337042 252 
L 161.397927 249.1008 
L 161.519697 252 
L 161.580582 251.2752 
L 161.702351 252 
L 161.763236 251.2752 
L 161.824121 252 
L 161.885006 249.8256 
L 162.006776 252 
L 162.372085 252 
L 162.43297 251.2752 
L 162.55474 252 
L 162.615625 250.5504 
L 162.67651 252 
L 162.737395 250.5504 
L 162.859165 252 
L 162.920049 252 
L 162.980934 251.2752 
L 163.102704 252 
L 163.224474 252 
L 163.285359 249.8256 
L 163.346244 252 
L 163.407129 251.2752 
L 163.528899 252 
L 163.711553 252 
L 163.772438 251.2752 
L 163.894208 252 
L 163.955093 252 
L 164.015978 249.1008 
L 164.137748 252 
L 164.320402 252 
L 164.381287 249.1008 
L 164.442172 251.2752 
L 164.563942 252 
L 164.624827 252 
L 164.685712 251.2752 
L 164.746597 252 
L 164.807481 251.2752 
L 164.868366 252 
L 164.929251 251.2752 
L 165.051021 252 
L 165.111906 249.1008 
L 165.172791 251.2752 
L 165.233676 252 
L 165.294561 249.1008 
L 165.355446 252 
L 165.416331 250.5504 
L 165.5381 252 
L 165.598985 251.2752 
L 165.720755 252 
L 165.964295 252 
L 166.02518 250.5504 
L 166.086064 251.2752 
L 166.207834 252 
L 166.268719 252 
L 166.329604 250.5504 
L 166.451374 252 
L 166.634029 249.8256 
L 166.877568 252 
L 167.303763 252 
L 167.364647 251.2752 
L 167.425532 249.1008 
L 167.486417 252 
L 167.547302 251.2752 
L 167.608187 252 
L 167.669072 251.2752 
L 167.790842 252 
L 167.973497 252 
L 168.034381 251.2752 
L 168.095266 252 
L 168.156151 248.376 
L 168.217036 252 
L 168.277921 251.2752 
L 168.399691 252 
L 168.704115 252 
L 168.765 251.2752 
L 168.88677 252 
L 169.13031 252 
L 169.191195 249.1008 
L 169.25208 252 
L 169.312964 251.2752 
L 169.373849 252 
L 169.434734 251.2752 
L 169.556504 252 
L 169.617389 251.2752 
L 169.678274 252 
L 169.739159 251.2752 
L 169.860929 252 
L 169.921813 251.2752 
L 170.043583 252 
L 170.104468 252 
L 170.165353 251.2752 
L 170.287123 252 
L 170.348008 250.5504 
L 170.408893 252 
L 170.469778 251.2752 
L 170.591547 252 
L 170.652432 252 
L 170.713317 249.8256 
L 170.774202 251.2752 
L 170.895972 252 
L 170.956857 252 
L 171.017742 250.5504 
L 171.078627 252 
L 171.139512 250.5504 
L 171.261281 252 
L 171.322166 249.1008 
L 171.383051 251.2752 
L 171.504821 252 
L 171.565706 251.2752 
L 171.687476 252 
L 171.748361 252 
L 171.809245 251.2752 
L 171.931015 252 
L 171.9919 249.8256 
L 172.11367 252 
L 172.418095 252 
L 172.478979 250.5504 
L 172.539864 252 
L 172.600749 251.2752 
L 172.722519 252 
L 172.783404 250.5504 
L 172.844289 251.2752 
L 172.966059 252 
L 173.148713 252 
L 173.270483 251.2752 
L 173.392253 252 
L 173.635793 252 
L 173.696678 251.2752 
L 173.818447 252 
L 173.879332 249.8256 
L 174.001102 252 
L 174.427296 252 
L 174.549066 250.5504 
L 174.670836 252 
L 174.792606 252 
L 174.853491 251.2752 
L 174.975261 252 
L 175.09703 250.5504 
L 175.2188 252 
L 175.279685 249.8256 
L 175.34057 251.2752 
L 175.401455 252 
L 175.523225 249.8256 
L 175.58411 252 
L 175.644994 251.2752 
L 175.705879 252 
L 175.766764 250.5504 
L 175.827649 252 
L 175.888534 250.5504 
L 176.010304 252 
L 176.132074 252 
L 176.192959 251.2752 
L 176.253843 252 
L 176.314728 251.2752 
L 176.436498 252 
L 176.497383 251.2752 
L 176.619153 252 
L 176.680038 251.2752 
L 176.801808 252 
L 176.923577 250.5504 
L 177.045347 252 
L 177.167117 252 
L 177.228002 251.2752 
L 177.349772 252 
L 177.471542 252 
L 177.593311 251.2752 
L 177.715081 252 
L 177.897736 249.8256 
L 177.958621 252 
L 178.019506 251.2752 
L 178.080391 251.2752 
L 178.141276 252 
L 178.20216 251.2752 
L 178.32393 252 
L 178.56747 252 
L 178.628355 249.1008 
L 178.750125 252 
L 178.932779 250.5504 
L 178.993664 252 
L 179.115434 250.5504 
L 179.176319 252 
L 179.237204 249.8256 
L 179.298089 250.5504 
L 179.419859 252 
L 179.906938 252 
L 179.967823 249.1008 
L 180.089592 252 
L 180.272247 252 
L 180.333132 251.2752 
L 180.454902 252 
L 180.637557 252 
L 180.698442 251.2752 
L 180.820211 252 
L 181.002866 250.5504 
L 181.063751 250.5504 
L 181.185521 252 
L 181.246406 251.2752 
L 181.368175 252 
L 181.55083 252 
L 181.611715 251.2752 
L 181.6726 252 
L 181.733485 251.2752 
L 181.79437 248.376 
L 181.91614 252 
L 181.977024 249.8256 
L 182.098794 252 
L 182.159679 252 
L 182.220564 249.8256 
L 182.281449 250.5504 
L 182.342334 252 
L 182.403219 249.8256 
L 182.464104 250.5504 
L 182.524989 252 
L 182.585874 251.2752 
L 182.646758 251.2752 
L 182.707643 252 
L 182.768528 249.1008 
L 182.829413 252 
L 182.890298 250.5504 
L 183.012068 252 
L 183.072953 251.2752 
L 183.194723 252 
L 183.316492 252 
L 183.377377 249.8256 
L 183.499147 252 
L 183.560032 249.1008 
L 183.681802 252 
L 183.803572 252 
L 183.864457 249.8256 
L 183.925341 252 
L 183.986226 246.9264 
L 184.047111 252 
L 184.107996 250.5504 
L 184.168881 252 
L 184.229766 249.8256 
L 184.290651 250.5504 
L 184.412421 252 
L 184.65596 252 
L 184.716845 250.5504 
L 184.77773 252 
L 184.8995 250.5504 
L 185.02127 252 
L 185.14304 252 
L 185.203924 251.2752 
L 185.325694 252 
L 185.569234 252 
L 185.630119 251.2752 
L 185.751889 252 
L 186.056313 252 
L 186.117198 251.2752 
L 186.238968 252 
L 186.299853 250.5504 
L 186.421623 252 
L 186.665162 252 
L 186.786932 251.2752 
L 186.847817 251.2752 
L 186.969587 252 
L 187.091356 251.2752 
L 187.152241 251.2752 
L 187.213126 250.5504 
L 187.334896 252 
L 187.395781 252 
L 187.456666 251.2752 
L 187.517551 252 
L 187.578436 251.2752 
L 187.639321 252 
L 187.700205 251.2752 
L 187.76109 252 
L 187.821975 251.2752 
L 187.88286 252 
L 188.00463 249.1008 
L 188.1264 252 
L 188.187285 252 
L 188.24817 251.2752 
L 188.309055 252 
L 188.369939 249.8256 
L 188.491709 252 
L 188.613479 252 
L 188.674364 251.2752 
L 188.796134 252 
L 189.039673 252 
L 189.161443 250.5504 
L 189.283213 252 
L 189.831177 252 
L 189.952947 251.2752 
L 190.074717 252 
L 190.135602 251.2752 
L 190.257371 252 
L 190.622681 252 
L 190.683566 248.376 
L 190.744451 249.1008 
L 190.927105 252 
L 191.048875 252 
L 191.10976 249.8256 
L 191.170645 252 
L 191.23153 251.2752 
L 191.292415 250.5504 
L 191.3533 252 
L 191.47507 250.5504 
L 191.535954 252 
L 191.596839 249.8256 
L 191.718609 252 
L 191.779494 251.2752 
L 191.901264 252 
L 191.962149 252 
L 192.023034 248.376 
L 192.083919 250.5504 
L 192.144804 252 
L 192.205688 251.2752 
L 192.266573 252 
L 192.449228 250.5504 
L 192.510113 252 
L 192.631883 249.1008 
L 192.692768 252 
L 192.753653 250.5504 
L 192.814537 252 
L 192.875422 250.5504 
L 192.997192 252 
L 193.058077 251.2752 
L 193.179847 252 
L 193.240732 250.5504 
L 193.301617 252 
L 193.362502 251.2752 
L 193.423386 250.5504 
L 193.484271 252 
L 193.545156 251.2752 
L 193.606041 250.5504 
L 193.666926 252 
L 193.727811 249.8256 
L 193.788696 252 
L 193.849581 250.5504 
L 193.910466 249.8256 
L 194.032236 252 
L 194.154005 252 
L 194.21489 250.5504 
L 194.275775 252 
L 194.33666 251.2752 
L 194.397545 251.2752 
L 194.519315 252 
L 194.762854 252 
L 194.884624 249.8256 
L 195.006394 252 
L 195.189049 252 
L 195.249934 250.5504 
L 195.310819 251.2752 
L 195.432588 252 
L 195.493473 246.9264 
L 195.615243 252 
L 195.676128 252 
L 195.858783 249.8256 
L 195.919668 252 
L 195.980552 250.5504 
L 196.102322 252 
L 196.163207 252 
L 196.224092 251.2752 
L 196.345862 252 
L 196.406747 250.5504 
L 196.528517 252 
L 196.589402 250.5504 
L 196.650286 252 
L 196.711171 248.376 
L 196.832941 252 
L 196.954711 252 
L 197.015596 250.5504 
L 197.076481 252 
L 197.137366 249.8256 
L 197.198251 251.2752 
L 197.259135 251.2752 
L 197.380905 252 
L 197.502675 250.5504 
L 197.68533 252 
L 197.746215 252 
L 197.867985 246.9264 
L 197.928869 252 
L 197.989754 249.8256 
L 198.111524 252 
L 198.233294 252 
L 198.294179 250.5504 
L 198.415949 252 
L 198.476834 251.2752 
L 198.598603 252 
L 198.781258 252 
L 198.903028 250.5504 
L 198.963913 252 
L 199.024798 251.2752 
L 199.085683 251.2752 
L 199.207452 252 
L 199.268337 252 
L 199.329222 251.2752 
L 199.450992 252 
L 199.511877 248.376 
L 199.572762 252 
L 199.633647 251.2752 
L 199.755417 252 
L 199.816301 252 
L 199.877186 250.5504 
L 199.938071 251.2752 
L 200.059841 249.8256 
L 200.181611 252 
L 200.242496 251.2752 
L 200.303381 252 
L 200.364266 251.2752 
L 200.42515 252 
L 200.486035 251.2752 
L 200.607805 252 
L 201.034 252 
L 201.094884 251.2752 
L 201.155769 252 
L 201.216654 249.8256 
L 201.338424 252 
L 201.399309 249.1008 
L 201.521079 252 
L 201.642849 252 
L 201.703733 249.1008 
L 201.825503 252 
L 202.069043 249.1008 
L 202.251698 252 
L 202.434352 252 
L 202.556122 251.2752 
L 202.677892 252 
L 202.799662 250.5504 
L 202.921432 252 
L 202.982316 250.5504 
L 203.104086 252 
L 203.286741 248.376 
L 203.469396 252 
L 203.530281 250.5504 
L 203.65205 252 
L 203.712935 249.8256 
L 203.834705 252 
L 204.078245 252 
L 204.13913 251.2752 
L 204.260899 252 
L 204.321784 252 
L 204.382669 251.2752 
L 204.504439 252 
L 204.565324 251.2752 
L 204.687094 252 
L 204.808864 252 
L 204.869748 251.2752 
L 204.991518 252 
L 205.174173 252 
L 205.235058 251.2752 
L 205.356828 252 
L 205.417713 249.8256 
L 205.478598 252 
L 205.539482 250.5504 
L 205.661252 252 
L 205.722137 249.8256 
L 205.843907 252 
L 205.904792 249.8256 
L 205.965677 252 
L 206.026562 251.2752 
L 206.087447 252 
L 206.148331 251.2752 
L 206.209216 252 
L 206.330986 251.2752 
L 206.452756 252 
L 206.818065 252 
L 206.87895 250.5504 
L 206.939835 251.2752 
L 207.00072 250.5504 
L 207.12249 252 
L 207.487799 252 
L 207.548684 249.1008 
L 207.609569 252 
L 207.670454 251.2752 
L 207.792224 252 
L 208.401073 252 
L 208.461958 250.5504 
L 208.522843 251.2752 
L 208.583728 252 
L 208.644613 248.376 
L 208.766382 252 
L 208.827267 252 
L 208.888152 250.5504 
L 209.009922 252 
L 209.131692 251.2752 
L 209.192577 251.2752 
L 209.314347 252 
L 209.436116 252 
L 209.557886 251.2752 
L 209.679656 251.2752 
L 209.740541 252 
L 209.801426 251.2752 
L 209.862311 252 
L 209.923196 250.5504 
L 210.044965 252 
L 210.47116 252 
L 210.532045 251.2752 
L 210.592929 252 
L 210.653814 249.1008 
L 210.714699 252 
L 210.775584 251.2752 
L 210.958239 248.376 
L 211.080009 252 
L 211.201779 252 
L 211.262663 249.8256 
L 211.384433 252 
L 211.445318 250.5504 
L 211.567088 252 
L 211.627973 251.2752 
L 211.749743 252 
L 211.810628 252 
L 211.871512 250.5504 
L 211.932397 252 
L 211.993282 250.5504 
L 212.054167 252 
L 212.115052 249.1008 
L 212.175937 251.2752 
L 212.297707 252 
L 212.358592 250.5504 
L 212.480362 252 
L 212.541246 252 
L 212.602131 251.2752 
L 212.663016 252 
L 212.784786 251.2752 
L 212.845671 251.2752 
L 212.906556 252 
L 212.967441 250.5504 
L 213.089211 252 
L 213.21098 252 
L 213.271865 250.5504 
L 213.33275 252 
L 213.393635 251.2752 
L 213.45452 252 
L 213.515405 251.2752 
L 213.57629 252 
L 213.637175 249.8256 
L 213.69806 251.2752 
L 213.758945 249.8256 
L 213.819829 252 
L 213.880714 250.5504 
L 214.063369 252 
L 214.124254 252 
L 214.246024 250.5504 
L 214.306909 252 
L 214.367794 250.5504 
L 214.489563 252 
L 214.611333 252 
L 214.672218 251.2752 
L 214.733103 252 
L 214.793988 251.2752 
L 214.854873 252 
L 214.976643 251.2752 
L 215.098412 252 
L 215.159297 252 
L 215.220182 249.8256 
L 215.281067 251.2752 
L 215.341952 251.2752 
L 215.463722 252 
L 215.524607 252 
L 215.585492 249.8256 
L 215.707261 252 
L 215.950801 252 
L 216.011686 249.1008 
L 216.072571 250.5504 
L 216.194341 251.2752 
L 216.31611 250.5504 
L 216.43788 252 
L 216.498765 251.2752 
L 216.620535 252 
L 216.68142 251.2752 
L 216.80319 252 
L 217.107614 252 
L 217.229384 250.5504 
L 217.351154 252 
L 217.472924 252 
L 217.533809 250.5504 
L 217.655578 252 
L 218.020888 252 
L 218.081773 251.2752 
L 218.203543 252 
L 218.386197 252 
L 218.447082 247.6512 
L 218.629737 252 
L 218.690622 250.5504 
L 218.751507 252 
L 218.812392 251.2752 
L 218.934161 252 
L 218.995046 251.2752 
L 219.116816 252 
L 219.177701 252 
L 219.238586 251.2752 
L 219.299471 252 
L 219.360356 249.1008 
L 219.421241 250.5504 
L 219.603895 252 
L 219.725665 252 
L 219.78655 246.2016 
L 219.90832 251.2752 
L 220.03009 252 
L 220.456284 252 
L 220.578054 249.8256 
L 220.638939 250.5504 
L 220.821593 252 
L 220.882478 246.9264 
L 220.943363 250.5504 
L 221.065133 252 
L 221.126018 250.5504 
L 221.186903 252 
L 221.247788 251.2752 
L 221.369558 252 
L 221.430442 249.8256 
L 221.491327 250.5504 
L 221.613097 252 
L 221.734867 252 
L 221.856637 249.8256 
L 221.917522 252 
L 221.978407 248.376 
L 222.039291 252 
L 222.100176 251.2752 
L 222.161061 252 
L 222.221946 251.2752 
L 222.343716 252 
L 222.404601 252 
L 222.465486 249.8256 
L 222.587256 252 
L 222.648141 251.2752 
L 222.76991 252 
L 222.89168 251.2752 
L 223.01345 252 
L 223.25699 252 
L 223.317874 249.1008 
L 223.378759 252 
L 223.439644 251.2752 
L 223.500529 249.1008 
L 223.561414 250.5504 
L 223.683184 252 
L 223.926724 252 
L 224.048493 251.2752 
L 224.109378 252 
L 224.170263 250.5504 
L 224.292033 252 
L 224.413803 250.5504 
L 224.474688 251.2752 
L 224.596457 250.5504 
L 224.657342 252 
L 224.718227 249.8256 
L 224.779112 250.5504 
L 224.900882 252 
L 224.961767 250.5504 
L 225.022652 251.2752 
L 225.083537 252 
L 225.144422 250.5504 
L 225.205307 252 
L 225.266191 249.8256 
L 225.387961 252 
L 225.448846 250.5504 
L 225.509731 252 
L 225.570616 249.1008 
L 225.631501 252 
L 225.692386 250.5504 
L 225.87504 252 
L 226.057695 252 
L 226.11858 251.2752 
L 226.24035 252 
L 226.301235 250.5504 
L 226.423005 252 
L 226.48389 251.2752 
L 226.605659 252 
L 226.727429 252 
L 226.788314 251.2752 
L 226.910084 252 
L 226.970969 250.5504 
L 227.031854 252 
L 227.092739 249.8256 
L 227.214508 252 
L 227.458048 252 
L 227.518933 250.5504 
L 227.640703 252 
L 227.762472 252 
L 227.823357 251.2752 
L 227.945127 252 
L 228.066897 252 
L 228.127782 249.1008 
L 228.249552 252 
L 228.310437 251.2752 
L 228.371322 249.1008 
L 228.493091 252 
L 228.675746 252 
L 228.736631 251.2752 
L 228.858401 252 
L 229.34548 252 
L 229.406365 247.6512 
L 229.58902 252 
L 229.710789 252 
L 229.771674 249.8256 
L 229.832559 252 
L 229.893444 249.1008 
L 229.954329 249.8256 
L 230.015214 252 
L 230.076099 249.8256 
L 230.136984 251.2752 
L 230.258754 252 
L 230.380523 252 
L 230.441408 250.5504 
L 230.502293 251.2752 
L 230.624063 252 
L 230.684948 252 
L 230.745833 251.2752 
L 230.806718 252 
L 230.867603 248.376 
L 230.928488 252 
L 230.989372 251.2752 
L 231.050257 249.8256 
L 231.111142 252 
L 231.172027 251.2752 
L 231.293797 251.2752 
L 231.415567 252 
L 231.476452 252 
L 231.659106 249.8256 
L 231.719991 252 
L 231.780876 251.2752 
L 231.841761 252 
L 231.963531 249.8256 
L 232.085301 252 
L 232.146186 250.5504 
L 232.267955 252 
L 232.57238 252 
L 232.633265 251.2752 
L 232.755035 252 
L 232.876804 250.5504 
L 232.937689 251.2752 
L 233.059459 249.8256 
L 233.120344 252 
L 233.181229 250.5504 
L 233.363884 252 
L 233.424769 249.8256 
L 233.485653 252 
L 233.546538 249.8256 
L 233.607423 252 
L 233.668308 249.8256 
L 233.729193 251.2752 
L 233.790078 251.2752 
L 233.911848 252 
L 234.033618 252 
L 234.216272 248.376 
L 234.338042 252 
L 234.398927 252 
L 234.581582 249.8256 
L 234.703352 252 
L 234.764236 251.2752 
L 234.886006 252 
L 234.946891 252 
L 235.129546 249.8256 
L 235.312201 252 
L 235.373086 252 
L 235.43397 251.2752 
L 235.494855 252 
L 235.55574 250.5504 
L 235.616625 252 
L 235.67751 251.2752 
L 235.79928 252 
L 235.860165 249.8256 
L 235.92105 251.2752 
L 236.042819 252 
L 236.103704 250.5504 
L 236.164589 251.2752 
L 236.225474 252 
L 236.286359 249.8256 
L 236.408129 252 
L 236.651669 252 
L 236.712553 251.2752 
L 236.773438 252 
L 236.834323 250.5504 
L 236.895208 252 
L 236.956093 251.2752 
L 237.077863 252 
L 237.199633 252 
L 237.260518 248.376 
L 237.321402 251.2752 
L 237.382287 250.5504 
L 237.564942 252 
L 237.747597 252 
L 237.808482 249.8256 
L 237.869367 251.2752 
L 237.930252 250.5504 
L 238.052021 252 
L 238.173791 250.5504 
L 238.234676 252 
L 238.295561 251.2752 
L 238.417331 252 
L 238.599985 252 
L 238.66087 250.5504 
L 238.78264 252 
L 238.965295 252 
L 239.087065 249.8256 
L 239.208834 252 
L 239.330604 252 
L 239.391489 250.5504 
L 239.513259 252 
L 239.635029 249.8256 
L 239.695914 252 
L 239.756799 250.5504 
L 239.878568 252 
L 240.000338 251.2752 
L 240.061223 252 
L 240.122108 249.1008 
L 240.182993 251.2752 
L 240.304763 251.2752 
L 240.365648 252 
L 240.426533 251.2752 
L 240.487417 252 
L 240.548302 250.5504 
L 240.609187 251.2752 
L 240.670072 252 
L 240.730957 249.1008 
L 240.852727 252 
L 241.035382 252 
L 241.096267 251.2752 
L 241.218036 252 
L 241.339806 252 
L 241.400691 248.376 
L 241.522461 252 
L 241.583346 251.2752 
L 241.644231 252 
L 241.705116 251.2752 
L 241.826885 252 
L 242.25308 252 
L 242.313965 249.1008 
L 242.37485 251.2752 
L 242.435734 251.2752 
L 242.496619 252 
L 242.557504 250.5504 
L 242.679274 252 
L 242.740159 252 
L 242.801044 249.1008 
L 242.861929 251.2752 
L 242.922814 251.2752 
L 243.044583 252 
L 243.105468 249.8256 
L 243.227238 252 
L 243.288123 252 
L 243.409893 250.5504 
L 243.470778 252 
L 243.592548 249.8256 
L 243.714317 252 
L 243.775202 252 
L 243.836087 251.2752 
L 243.896972 252 
L 243.957857 249.1008 
L 244.079627 252 
L 244.201397 250.5504 
L 244.323166 252 
L 245.23644 252 
L 245.35821 249.1008 
L 245.540865 252 
L 245.784404 252 
L 245.845289 251.2752 
L 245.967059 252 
L 246.149714 252 
L 246.210598 246.9264 
L 246.271483 249.8256 
L 246.332368 252 
L 246.393253 251.2752 
L 246.454138 251.2752 
L 246.515023 252 
L 246.575908 251.2752 
L 246.697678 252 
L 246.758563 252 
L 246.819448 246.2016 
L 246.880332 251.2752 
L 246.941217 250.5504 
L 247.002102 249.1008 
L 247.184757 252 
L 247.245642 252 
L 247.306527 249.1008 
L 247.367412 251.2752 
L 247.489181 252 
L 247.671836 252 
L 247.732721 251.2752 
L 247.793606 252 
L 247.915376 249.8256 
L 248.098031 252 
L 248.158915 252 
L 248.2198 250.5504 
L 248.34157 252 
L 248.46334 247.6512 
L 248.58511 252 
L 248.645995 249.1008 
L 248.767764 252 
L 248.889534 252 
L 248.950419 249.8256 
L 249.072189 252 
L 249.133074 250.5504 
L 249.254844 252 
L 249.315729 252 
L 249.376614 250.5504 
L 249.498383 252 
L 249.681038 252 
L 249.802808 250.5504 
L 249.924578 252 
L 249.985463 251.2752 
L 250.107232 252 
L 250.229002 252 
L 250.289887 249.8256 
L 250.350772 251.2752 
L 250.472542 250.5504 
L 250.533427 251.2752 
L 250.594312 249.8256 
L 250.776966 252 
L 250.837851 252 
L 250.959621 251.2752 
L 251.020506 247.6512 
L 251.081391 252 
L 251.142276 250.5504 
L 251.264046 252 
L 251.32493 251.2752 
L 251.385815 252 
L 251.4467 247.6512 
L 251.507585 252 
L 251.56847 250.5504 
L 251.629355 250.5504 
L 251.81201 252 
L 251.933779 252 
L 251.994664 249.8256 
L 252.055549 252 
L 252.116434 250.5504 
L 252.238204 252 
L 252.359974 250.5504 
L 252.542629 252 
L 252.725283 250.5504 
L 252.847053 252 
L 252.907938 252 
L 252.968823 249.8256 
L 253.029708 251.2752 
L 253.151478 252 
L 253.212362 251.2752 
L 253.273247 252 
L 253.334132 251.2752 
L 253.395017 252 
L 253.516787 246.9264 
L 253.638557 252 
L 253.699442 249.8256 
L 253.821212 252 
L 254.003866 252 
L 254.064751 251.2752 
L 254.186521 252 
L 254.247406 251.2752 
L 254.369176 252 
L 254.430061 252 
L 254.55183 250.5504 
L 254.6736 252 
L 254.734485 250.5504 
L 254.856255 252 
L 254.91714 252 
L 255.03891 250.5504 
L 255.160679 252 
L 255.343334 252 
L 255.404219 251.2752 
L 255.465104 252 
L 255.708644 249.8256 
L 255.769528 249.8256 
L 255.830413 252 
L 255.891298 250.5504 
L 256.013068 252 
L 256.073953 249.8256 
L 256.195723 252 
L 256.561032 252 
L 256.621917 249.8256 
L 256.743687 252 
L 256.804572 250.5504 
L 256.865457 252 
L 256.926342 251.2752 
L 257.048111 252 
L 257.108996 252 
L 257.230766 250.5504 
L 257.352536 252 
L 257.413421 251.2752 
L 257.535191 252 
L 257.596076 250.5504 
L 257.717845 252 
L 257.77873 249.8256 
L 257.839615 252 
L 257.9005 251.2752 
L 257.961385 252 
L 258.02227 251.2752 
L 258.083155 252 
L 258.14404 251.2752 
L 258.26581 252 
L 258.326694 252 
L 258.387579 250.5504 
L 258.448464 252 
L 258.509349 249.8256 
L 258.631119 252 
L 258.692004 251.2752 
L 258.813774 252 
L 258.935543 252 
L 259.118198 249.8256 
L 259.239968 252 
L 259.422623 252 
L 259.483508 251.2752 
L 259.544393 252 
L 259.727047 250.5504 
L 259.787932 250.5504 
L 259.909702 252 
L 259.970587 251.2752 
L 260.092357 252 
L 260.153242 250.5504 
L 260.214126 252 
L 260.275011 249.8256 
L 260.396781 252 
L 260.457666 249.1008 
L 260.518551 251.2752 
L 260.579436 250.5504 
L 260.701206 252 
L 260.762091 246.9264 
L 260.822976 251.2752 
L 260.88386 245.4768 
L 260.944745 252 
L 261.00563 250.5504 
L 261.066515 252 
L 261.1274 251.2752 
L 261.188285 249.8256 
L 261.24917 252 
L 261.310055 249.8256 
L 261.37094 252 
L 261.431825 249.8256 
L 261.492709 251.2752 
L 261.553594 252 
L 261.614479 251.2752 
L 261.675364 252 
L 261.858019 248.376 
L 262.040674 252 
L 262.223328 252 
L 262.284213 251.2752 
L 262.345098 249.1008 
L 262.405983 252 
L 262.466868 250.5504 
L 262.588638 252 
L 262.649523 249.8256 
L 262.710408 251.2752 
L 262.771292 251.2752 
L 262.893062 252 
L 262.953947 248.376 
L 263.075717 252 
L 263.197487 252 
L 263.258372 251.2752 
L 263.380141 252 
L 263.441026 250.5504 
L 263.501911 251.2752 
L 263.623681 252 
L 263.806336 252 
L 263.867221 251.2752 
L 263.928106 252 
L 263.988991 250.5504 
L 264.049875 252 
L 264.11076 251.2752 
L 264.23253 252 
L 264.293415 250.5504 
L 264.3543 252 
L 264.415185 251.2752 
L 264.536955 249.1008 
L 264.59784 252 
L 264.658724 251.2752 
L 264.780494 252 
L 264.841379 250.5504 
L 264.902264 252 
L 264.963149 251.2752 
L 265.024034 249.1008 
L 265.084919 250.5504 
L 265.145804 252 
L 265.206689 251.2752 
L 265.267574 250.5504 
L 265.328458 252 
L 265.389343 250.5504 
L 265.511113 252 
L 265.632883 252 
L 265.754653 251.2752 
L 265.876423 252 
L 266.119962 252 
L 266.241732 249.8256 
L 266.424387 252 
L 266.485272 251.2752 
L 266.607041 252 
L 266.789696 252 
L 266.850581 251.2752 
L 266.911466 252 
L 266.972351 250.5504 
L 267.033236 252 
L 267.094121 250.5504 
L 267.155006 252 
L 267.21589 250.5504 
L 267.276775 252 
L 267.33766 250.5504 
L 267.45943 252 
L 267.763855 252 
L 267.824739 250.5504 
L 267.885624 251.2752 
L 267.946509 250.5504 
L 268.068279 252 
L 268.129164 251.2752 
L 268.250934 252 
L 268.311819 249.8256 
L 268.433589 252 
L 268.494473 250.5504 
L 268.555358 252 
L 268.616243 250.5504 
L 268.677128 252 
L 268.738013 248.376 
L 268.798898 252 
L 268.859783 251.2752 
L 268.920668 251.2752 
L 268.981553 252 
L 269.042438 250.5504 
L 269.103322 251.2752 
L 269.225092 252 
L 269.285977 252 
L 269.346862 251.2752 
L 269.468632 252 
L 270.077481 252 
L 270.138366 250.5504 
L 270.260136 252 
L 270.381905 252 
L 270.44279 249.8256 
L 270.56456 252 
L 270.747215 252 
L 270.8081 251.2752 
L 270.868985 252 
L 270.990755 251.2752 
L 271.112524 252 
L 271.173409 252 
L 271.234294 251.2752 
L 271.295179 252 
L 271.356064 250.5504 
L 271.416949 252 
L 271.477834 248.376 
L 271.599604 252 
L 271.660488 252 
L 271.721373 251.2752 
L 271.782258 247.6512 
L 271.904028 251.2752 
L 271.964913 251.2752 
L 272.025798 252 
L 272.086683 251.2752 
L 272.208453 246.2016 
L 272.330222 252 
L 272.391107 250.5504 
L 272.512877 252 
L 272.573762 252 
L 272.695532 251.2752 
L 272.817302 252 
L 272.878187 251.2752 
L 272.939071 252 
L 272.999956 251.2752 
L 273.121726 252 
L 273.304381 252 
L 273.426151 250.5504 
L 273.487036 252 
L 273.54792 250.5504 
L 273.66969 252 
L 273.79146 251.2752 
L 273.852345 252 
L 273.91323 250.5504 
L 273.974115 252 
L 274.035 251.2752 
L 274.15677 252 
L 274.278539 252 
L 274.339424 248.376 
L 274.400309 251.2752 
L 274.826503 251.2752 
L 274.887388 252 
L 274.948273 249.8256 
L 275.009158 251.2752 
L 275.070043 252 
L 275.191813 249.8256 
L 275.252698 252 
L 275.313583 250.5504 
L 275.435353 252 
L 275.618007 249.1008 
L 275.800662 252 
L 275.983317 252 
L 276.105086 250.5504 
L 276.287741 252 
L 276.348626 248.376 
L 276.409511 252 
L 276.470396 249.1008 
L 276.653051 252 
L 276.835705 252 
L 276.89659 250.5504 
L 277.01836 252 
L 277.079245 250.5504 
L 277.14013 252 
L 277.201015 250.5504 
L 277.322785 252 
L 277.444554 252 
L 277.505439 251.2752 
L 277.627209 252 
L 277.688094 252 
L 277.748979 249.8256 
L 277.870749 252 
L 277.992519 249.1008 
L 278.175173 252 
L 278.357828 252 
L 278.418713 247.6512 
L 278.479598 249.8256 
L 278.540483 251.2752 
L 278.662252 249.1008 
L 278.844907 251.2752 
L 278.905792 250.5504 
L 279.027562 252 
L 279.088447 250.5504 
L 279.149332 252 
L 279.210217 251.2752 
L 279.271101 252 
L 279.331986 250.5504 
L 279.453756 252 
L 279.575526 251.2752 
L 279.697296 252 
L 279.758181 251.2752 
L 279.879951 252 
L 280.00172 252 
L 280.062605 249.1008 
L 280.12349 252 
L 280.184375 250.5504 
L 280.24526 248.376 
L 280.36703 252 
L 280.671454 252 
L 280.732339 250.5504 
L 280.793224 252 
L 280.854109 251.2752 
L 280.914994 249.1008 
L 280.975879 252 
L 281.036764 249.1008 
L 281.097649 251.2752 
L 281.158534 252 
L 281.280303 250.5504 
L 281.341188 252 
L 281.402073 251.2752 
L 281.462958 252 
L 281.523843 251.2752 
L 281.645613 252 
L 281.706498 252 
L 281.828267 250.5504 
L 281.950037 251.2752 
L 282.010922 249.8256 
L 282.071807 250.5504 
L 282.254462 252 
L 282.315347 252 
L 282.376232 249.8256 
L 282.437117 252 
L 282.498001 249.8256 
L 282.619771 252 
L 282.680656 250.5504 
L 282.741541 251.2752 
L 282.802426 252 
L 282.985081 249.1008 
L 283.045966 252 
L 283.10685 247.6512 
L 283.289505 252 
L 283.35039 249.8256 
L 283.411275 250.5504 
L 283.47216 250.5504 
L 283.533045 252 
L 283.59393 250.5504 
L 283.654815 252 
L 283.7157 251.2752 
L 283.837469 252 
L 283.898354 252 
L 283.959239 249.1008 
L 284.081009 252 
L 284.141894 250.5504 
L 284.202779 252 
L 284.263664 250.5504 
L 284.385433 252 
L 284.507203 249.8256 
L 284.568088 252 
L 284.628973 251.2752 
L 284.689858 250.5504 
L 284.811628 252 
L 284.872513 252 
L 284.933398 251.2752 
L 284.994282 252 
L 285.055167 251.2752 
L 285.176937 252 
L 285.237822 250.5504 
L 285.359592 252 
L 285.420477 249.8256 
L 285.481362 252 
L 285.542247 251.2752 
L 285.664016 252 
L 285.724901 250.5504 
L 285.846671 252 
L 285.907556 252 
L 285.968441 251.2752 
L 286.090211 252 
L 286.211981 252 
L 286.272865 250.5504 
L 286.33375 252 
L 286.394635 251.2752 
L 286.45552 252 
L 286.516405 250.5504 
L 286.57729 251.2752 
L 286.638175 252 
L 286.69906 249.8256 
L 286.759945 252 
L 286.82083 250.5504 
L 286.881715 251.2752 
L 286.942599 250.5504 
L 287.003484 252 
L 287.064369 251.2752 
L 287.125254 252 
L 287.186139 251.2752 
L 287.247024 248.376 
L 287.368794 252 
L 287.551448 252 
L 287.673218 250.5504 
L 287.794988 252 
L 287.855873 252 
L 287.916758 251.2752 
L 288.038528 252 
L 288.099413 252 
L 288.160298 250.5504 
L 288.282067 252 
L 288.342952 249.1008 
L 288.464722 252 
L 288.586492 252 
L 288.647377 249.8256 
L 288.708262 252 
L 288.769147 251.2752 
L 288.830031 249.1008 
L 288.890916 252 
L 288.951801 251.2752 
L 289.073571 252 
L 289.134456 250.5504 
L 289.195341 252 
L 289.256226 249.8256 
L 289.317111 250.5504 
L 289.438881 252 
L 289.499765 251.2752 
L 289.56065 249.1008 
L 289.621535 252 
L 289.68242 247.6512 
L 289.743305 250.5504 
L 289.865075 252 
L 289.92596 249.8256 
L 290.04773 252 
L 290.108614 252 
L 290.169499 251.2752 
L 290.291269 252 
L 290.352154 252 
L 290.413039 250.5504 
L 290.534809 252 
L 290.595694 250.5504 
L 290.656579 251.2752 
L 290.778348 252 
L 290.900118 252 
L 290.961003 249.8256 
L 291.082773 252 
L 291.143658 252 
L 291.265428 247.6512 
L 291.387197 251.2752 
L 291.448082 250.5504 
L 291.569852 252 
L 291.630737 252 
L 291.691622 251.2752 
L 291.752507 252 
L 291.874277 250.5504 
L 291.996046 252 
L 292.66578 252 
L 292.78755 251.2752 
L 292.90932 252 
L 292.970205 250.5504 
L 293.091975 252 
L 293.396399 252 
L 293.457284 248.376 
L 293.518169 250.5504 
L 293.579054 252 
L 293.639939 250.5504 
L 293.761709 252 
L 293.822594 251.2752 
L 293.944363 252 
L 294.066133 249.8256 
L 294.248788 252 
L 294.309673 251.2752 
L 294.431443 252 
L 294.492328 249.8256 
L 294.553212 252 
L 294.614097 250.5504 
L 294.796752 252 
L 294.918522 251.2752 
L 295.040292 252 
L 295.162062 251.2752 
L 295.222946 252 
L 295.283831 249.8256 
L 295.344716 251.2752 
L 295.588256 249.1008 
L 295.649141 252 
L 295.710026 250.5504 
L 295.770911 250.5504 
L 295.831795 252 
L 295.89268 249.8256 
L 295.953565 250.5504 
L 296.075335 252 
L 296.13622 252 
L 296.197105 251.2752 
L 296.25799 252 
L 296.318875 249.8256 
L 296.37976 252 
L 296.440644 251.2752 
L 296.501529 249.8256 
L 296.562414 252 
L 296.623299 251.2752 
L 296.684184 252 
L 296.745069 250.5504 
L 296.866839 252 
L 296.988609 252 
L 297.049494 247.6512 
L 297.110378 250.5504 
L 297.171263 252 
L 297.293033 249.8256 
L 297.353918 252 
L 297.414803 250.5504 
L 297.536573 252 
L 297.597458 251.2752 
L 297.719227 252 
L 298.084537 252 
L 298.206307 251.2752 
L 298.328077 251.2752 
L 298.449846 252 
L 298.510731 252 
L 298.571616 248.376 
L 298.693386 252 
L 298.754271 252 
L 298.815156 250.5504 
L 298.936926 252 
L 299.11958 246.9264 
L 299.302235 252 
L 299.424005 252 
L 299.545775 251.2752 
L 299.60666 252 
L 299.667544 250.5504 
L 299.728429 252 
L 299.789314 249.8256 
L 299.850199 251.2752 
L 299.911084 252 
L 299.971969 249.1008 
L 300.032854 251.2752 
L 300.154624 252 
L 300.215509 250.5504 
L 300.337278 252 
L 300.398163 252 
L 300.459048 248.376 
L 300.580818 252 
L 300.641703 252 
L 300.702588 248.376 
L 300.763473 250.5504 
L 300.885243 252 
L 300.946127 250.5504 
L 301.007012 252 
L 301.128782 249.8256 
L 301.250552 252 
L 301.554976 252 
L 301.737631 250.5504 
L 301.859401 252 
L 301.981171 250.5504 
L 302.102941 252 
L 302.163825 251.2752 
L 302.22471 252 
L 302.285595 251.2752 
L 302.407365 252 
L 302.529135 252 
L 302.650905 250.5504 
L 302.772675 252 
L 302.833559 250.5504 
L 302.955329 252 
L 303.137984 250.5504 
L 303.259754 252 
L 303.320639 250.5504 
L 303.381524 252 
L 303.442408 251.2752 
L 303.564178 252 
L 303.868603 252 
L 303.929488 251.2752 
L 304.051258 252 
L 304.538337 252 
L 304.599222 249.8256 
L 304.660107 252 
L 304.720991 250.5504 
L 304.781876 252 
L 304.842761 250.5504 
L 304.964531 252 
L 305.390725 252 
L 305.45161 248.376 
L 305.57338 252 
L 305.634265 249.8256 
L 305.69515 252 
L 305.756035 249.1008 
L 305.877805 252 
L 305.999574 252 
L 306.121344 250.5504 
L 306.182229 250.5504 
L 306.364884 252 
L 306.547539 252 
L 306.608424 248.376 
L 306.669308 252 
L 306.730193 251.2752 
L 306.851963 252 
L 307.095503 252 
L 307.278157 250.5504 
L 307.399927 252 
L 307.460812 252 
L 307.582582 250.5504 
L 307.643467 251.2752 
L 307.704352 250.5504 
L 307.765237 251.2752 
L 307.826122 246.9264 
L 307.887006 249.8256 
L 307.947891 249.1008 
L 308.069661 252 
L 308.130546 250.5504 
L 308.191431 251.2752 
L 308.313201 252 
L 308.374086 252 
L 308.434971 249.8256 
L 308.495856 250.5504 
L 308.55674 250.5504 
L 308.67851 252 
L 308.739395 249.1008 
L 308.80028 251.2752 
L 308.861165 252 
L 308.92205 247.6512 
L 309.04382 251.2752 
L 309.104705 249.8256 
L 309.165589 250.5504 
L 309.287359 252 
L 309.409129 249.8256 
L 309.530899 252 
L 309.652669 251.2752 
L 309.713554 252 
L 309.774439 251.2752 
L 309.835323 252 
L 309.896208 251.2752 
L 310.017978 252 
L 310.078863 249.1008 
L 310.139748 252 
L 310.200633 249.1008 
L 310.261518 250.5504 
L 310.322403 252 
L 310.383288 250.5504 
L 310.444172 252 
L 310.505057 251.2752 
L 310.565942 251.2752 
L 310.687712 252 
L 310.870367 252 
L 310.931252 250.5504 
L 310.992137 251.2752 
L 311.113906 250.5504 
L 311.174791 252 
L 311.235676 251.2752 
L 311.357446 252 
L 311.418331 251.2752 
L 311.479216 248.376 
L 311.540101 252 
L 311.600986 250.5504 
L 311.78364 252 
L 311.844525 251.2752 
L 311.966295 252 
L 312.14895 252 
L 312.209835 249.8256 
L 312.331605 252 
L 312.453374 251.2752 
L 312.514259 252 
L 312.575144 251.2752 
L 312.636029 252 
L 312.696914 250.5504 
L 312.757799 251.2752 
L 312.879569 252 
L 313.062223 252 
L 313.183993 249.1008 
L 313.366648 252 
L 313.427533 250.5504 
L 313.488418 252 
L 313.549303 249.8256 
L 313.610187 252 
L 313.671072 248.376 
L 313.731957 252 
L 313.792842 248.376 
L 313.853727 251.2752 
L 313.914612 252 
L 314.036382 249.1008 
L 314.097267 252 
L 314.158152 250.5504 
L 314.279921 251.2752 
L 314.340806 248.376 
L 314.462576 252 
L 314.523461 251.2752 
L 314.584346 252 
L 314.645231 251.2752 
L 314.706116 252 
L 314.827886 251.2752 
L 314.88877 251.2752 
L 315.01054 252 
L 315.13231 252 
L 315.193195 251.2752 
L 315.314965 252 
L 315.37585 250.5504 
L 315.436735 251.2752 
L 315.49762 252 
L 315.558504 249.8256 
L 315.619389 252 
L 315.680274 251.2752 
L 315.741159 251.2752 
L 315.862929 252 
L 315.923814 252 
L 315.984699 249.1008 
L 316.045584 252 
L 316.106469 251.2752 
L 316.167353 250.5504 
L 316.289123 251.2752 
L 316.350008 250.5504 
L 316.471778 252 
L 316.532663 251.2752 
L 316.593548 252 
L 316.715318 248.376 
L 316.776203 252 
L 316.837087 247.6512 
L 316.897972 252 
L 316.958857 251.2752 
L 317.019742 251.2752 
L 317.080627 252 
L 317.141512 251.2752 
L 317.263282 247.6512 
L 317.385052 252 
L 317.506821 252 
L 317.628591 250.5504 
L 317.750361 252 
L 317.872131 250.5504 
L 317.993901 252 
L 318.11567 249.8256 
L 318.298325 252 
L 318.420095 251.2752 
L 318.48098 252 
L 318.541865 251.2752 
L 318.60275 252 
L 318.724519 250.5504 
L 318.907174 252 
L 319.028944 249.8256 
L 319.089829 252 
L 319.150714 251.2752 
L 319.272484 252 
L 319.333368 251.2752 
L 319.394253 252 
L 319.455138 250.5504 
L 319.576908 252 
L 319.637793 250.5504 
L 319.759563 252 
L 319.942218 252 
L 320.003102 247.6512 
L 320.063987 250.5504 
L 320.124872 250.5504 
L 320.246642 252 
L 320.307527 252 
L 320.368412 249.1008 
L 320.429297 252 
L 320.490182 251.2752 
L 320.551067 250.5504 
L 320.672836 252 
L 320.733721 249.1008 
L 320.794606 251.2752 
L 320.916376 252 
L 320.977261 251.2752 
L 321.099031 252 
L 321.159916 249.1008 
L 321.220801 252 
L 321.281685 249.1008 
L 321.34257 252 
L 321.403455 251.2752 
L 321.46434 252 
L 321.525225 250.5504 
L 321.646995 252 
L 321.890534 252 
L 322.073189 249.1008 
L 322.194959 252 
L 322.255844 251.2752 
L 322.316729 252 
L 322.377614 251.2752 
L 322.499384 252 
L 322.560268 251.2752 
L 322.682038 252 
L 322.803808 252 
L 322.864693 250.5504 
L 322.986463 252 
L 323.047348 251.2752 
L 323.108233 252 
L 323.230002 247.6512 
L 323.412657 252 
L 323.473542 252 
L 323.534427 251.2752 
L 323.595312 252 
L 323.717082 250.5504 
L 323.838851 252 
L 323.899736 252 
L 324.021506 249.8256 
L 324.143276 252 
L 324.204161 252 
L 324.265046 250.5504 
L 324.386816 252 
L 324.4477 251.2752 
L 324.508585 252 
L 324.630355 251.2752 
L 324.752125 252 
L 325.117434 252 
L 325.178319 249.8256 
L 325.239204 250.5504 
L 325.421859 252 
L 325.482744 251.2752 
L 325.604514 252 
L 325.665399 250.5504 
L 325.787168 252 
L 325.908938 251.2752 
L 326.030708 252 
L 326.152478 251.2752 
L 326.274248 252 
L 326.335132 250.5504 
L 326.396017 251.2752 
L 326.456902 252 
L 326.517787 251.2752 
L 326.578672 249.1008 
L 326.639557 249.8256 
L 326.700442 252 
L 326.761327 251.2752 
L 326.883097 252 
L 326.943982 252 
L 327.065751 249.8256 
L 327.126636 252 
L 327.187521 251.2752 
L 327.248406 249.1008 
L 327.431061 252 
L 327.491946 252 
L 327.613715 250.5504 
L 327.6746 252 
L 327.735485 251.2752 
L 327.79637 250.5504 
L 327.857255 252 
L 327.91814 250.5504 
L 327.979025 252 
L 328.03991 251.2752 
L 328.100795 252 
L 328.222565 251.2752 
L 328.283449 252 
L 328.405219 249.8256 
L 328.466104 252 
L 328.526989 251.2752 
L 328.587874 251.2752 
L 328.709644 249.8256 
L 328.892298 252 
L 328.953183 249.1008 
L 329.014068 252 
L 329.074953 251.2752 
L 329.196723 252 
L 329.257608 249.1008 
L 329.379378 252 
L 329.562032 252 
L 329.622917 251.2752 
L 329.744687 252 
L 329.805572 251.2752 
L 329.927342 252 
L 329.988227 252 
L 330.049112 248.376 
L 330.109997 252 
L 330.170881 251.2752 
L 330.231766 249.8256 
L 330.414421 252 
L 330.475306 252 
L 330.597076 249.8256 
L 330.718846 252 
L 331.14504 252 
L 331.26681 250.5504 
L 331.327695 251.2752 
L 331.38858 250.5504 
L 331.510349 252 
L 331.571234 249.8256 
L 331.693004 252 
L 331.753889 251.2752 
L 331.814774 252 
L 331.936544 250.5504 
L 331.997429 251.2752 
L 332.058313 250.5504 
L 332.119198 252 
L 332.180083 246.2016 
L 332.240968 247.6512 
L 332.301853 251.2752 
L 332.362738 250.5504 
L 332.423623 245.4768 
L 332.545393 252 
L 332.667163 252 
L 332.788932 250.5504 
L 332.910702 252 
L 332.971587 252 
L 333.093357 251.2752 
L 333.154242 252 
L 333.215127 250.5504 
L 333.336896 252 
L 333.458666 249.8256 
L 333.641321 252 
L 333.702206 251.2752 
L 333.823976 252 
L 333.945746 251.2752 
L 334.067515 252 
L 334.189285 251.2752 
L 334.25017 248.376 
L 334.311055 252 
L 334.37194 249.1008 
L 334.49371 252 
L 334.615479 251.2752 
L 334.737249 251.2752 
L 334.859019 252 
L 334.980789 252 
L 335.102559 249.1008 
L 335.285213 252 
L 335.406983 251.2752 
L 335.467868 248.376 
L 335.589638 252 
L 335.650523 252 
L 335.711408 249.1008 
L 335.772293 250.5504 
L 335.833178 251.2752 
L 335.894062 250.5504 
L 336.015832 252 
L 336.076717 250.5504 
L 336.137602 251.2752 
L 336.198487 252 
L 336.320257 249.8256 
L 336.442027 252 
L 336.502911 249.8256 
L 336.563796 251.2752 
L 336.685566 250.5504 
L 336.746451 252 
L 336.807336 251.2752 
L 336.929106 249.8256 
L 336.989991 252 
L 337.050876 249.8256 
L 337.111761 252 
L 337.172645 248.376 
L 337.23353 249.8256 
L 337.47707 252 
L 337.59884 251.2752 
L 337.72061 252 
L 337.781494 250.5504 
L 337.842379 251.2752 
L 337.903264 251.2752 
L 338.025034 252 
L 338.085919 247.6512 
L 338.146804 252 
L 338.207689 251.2752 
L 338.268574 249.1008 
L 338.329459 252 
L 338.390344 251.2752 
L 338.451228 250.5504 
L 338.572998 252 
L 338.633883 248.376 
L 338.694768 252 
L 338.755653 249.8256 
L 338.999193 252 
L 339.060077 252 
L 339.181847 250.5504 
L 339.364502 252 
L 339.486272 249.8256 
L 339.547157 252 
L 339.608042 250.5504 
L 339.668927 249.1008 
L 339.790696 252 
L 339.851581 252 
L 340.095121 249.8256 
L 340.156006 249.8256 
L 340.216891 252 
L 340.277776 251.2752 
L 340.33866 252 
L 340.399545 249.1008 
L 340.521315 252 
L 340.5822 250.5504 
L 340.70397 252 
L 340.94751 252 
L 341.008394 249.8256 
L 341.130164 252 
L 341.191049 252 
L 341.251934 250.5504 
L 341.312819 251.2752 
L 341.373704 251.2752 
L 341.495474 252 
L 341.556359 252 
L 341.678128 250.5504 
L 341.799898 252 
L 341.860783 250.5504 
L 341.982553 252 
L 342.043438 251.2752 
L 342.165208 252 
L 342.226092 251.2752 
L 342.347862 252 
L 342.469632 252 
L 342.591402 249.8256 
L 342.713172 252 
L 342.774057 250.5504 
L 342.895826 252 
L 342.956711 252 
L 343.017596 251.2752 
L 343.078481 252 
L 343.200251 249.8256 
L 343.322021 252 
L 343.382906 252 
L 343.504675 251.2752 
L 343.626445 252 
L 343.68733 251.2752 
L 343.8091 252 
L 343.869985 252 
L 343.93087 249.1008 
L 344.05264 252 
L 344.113525 249.8256 
L 344.174409 251.2752 
L 344.235294 250.5504 
L 344.357064 252 
L 344.417949 252 
L 344.478834 251.2752 
L 344.539719 252 
L 344.661489 249.8256 
L 344.722374 249.8256 
L 344.783258 250.5504 
L 344.844143 248.376 
L 344.965913 252 
L 345.026798 249.1008 
L 345.087683 250.5504 
L 345.209453 252 
L 345.270338 251.2752 
L 345.392108 252 
L 345.452992 249.8256 
L 345.513877 252 
L 345.574762 251.2752 
L 345.635647 252 
L 345.757417 251.2752 
L 345.818302 251.2752 
L 345.879187 252 
L 345.940072 251.2752 
L 346.061841 252 
L 346.122726 249.8256 
L 346.183611 252 
L 346.244496 251.2752 
L 346.305381 251.2752 
L 346.366266 249.8256 
L 346.427151 250.5504 
L 346.488036 249.8256 
L 346.548921 252 
L 346.609806 250.5504 
L 346.670691 248.376 
L 346.853345 252 
L 346.91423 252 
L 346.975115 249.8256 
L 347.036 252 
L 347.096885 251.2752 
L 347.218655 252 
L 347.340424 251.2752 
L 347.462194 252 
L 347.523079 252 
L 347.583964 248.376 
L 347.644849 249.8256 
L 347.766619 252 
L 347.827504 249.1008 
L 347.888389 251.2752 
L 348.010158 252 
L 348.131928 251.2752 
L 348.253698 251.2752 
L 348.314583 252 
L 348.436353 249.8256 
L 348.558123 252 
L 348.679892 251.2752 
L 348.740777 252 
L 348.801662 249.8256 
L 348.862547 251.2752 
L 348.923432 249.8256 
L 348.984317 250.5504 
L 349.045202 249.8256 
L 349.106087 252 
L 349.166972 251.2752 
L 349.227856 252 
L 349.288741 249.8256 
L 349.349626 251.2752 
L 349.410511 251.2752 
L 349.532281 252 
L 349.593166 250.5504 
L 349.654051 252 
L 349.714936 251.2752 
L 349.836706 252 
L 350.080245 252 
L 350.202015 251.2752 
L 350.2629 252 
L 350.323785 251.2752 
L 350.445555 252 
L 350.506439 249.8256 
L 350.567324 250.5504 
L 350.628209 252 
L 350.689094 247.6512 
L 350.749979 252 
L 350.810864 250.5504 
L 350.932634 252 
L 350.993519 248.376 
L 351.054404 251.2752 
L 351.176173 252 
L 351.237058 252 
L 351.297943 249.8256 
L 351.358828 252 
L 351.419713 250.5504 
L 351.480598 250.5504 
L 351.663253 252 
L 351.724138 251.2752 
L 351.785022 252 
L 351.845907 250.5504 
L 351.906792 252 
L 351.967677 246.2016 
L 352.089447 252 
L 352.150332 251.2752 
L 352.272102 252 
L 352.332987 252 
L 352.393872 249.1008 
L 352.454756 251.2752 
L 352.576526 252 
L 352.637411 249.8256 
L 352.698296 252 
L 352.759181 250.5504 
L 352.820066 249.8256 
L 352.880951 252 
L 352.941836 250.5504 
L 353.002721 252 
L 353.12449 249.1008 
L 353.24626 252 
L 353.307145 252 
L 353.36803 247.6512 
L 353.428915 252 
L 353.4898 251.2752 
L 353.550685 251.2752 
L 353.672454 252 
L 353.733339 251.2752 
L 353.855109 252 
L 354.220419 252 
L 354.281304 251.2752 
L 354.342188 252 
L 354.403073 250.5504 
L 354.463958 251.2752 
L 354.585728 252 
L 354.768383 252 
L 354.951037 249.1008 
L 355.011922 252 
L 355.072807 249.1008 
L 355.133692 249.8256 
L 355.194577 249.8256 
L 355.255462 252 
L 355.316347 249.8256 
L 355.377232 252 
L 355.438117 250.5504 
L 355.559887 252 
L 355.620771 252 
L 355.803426 250.5504 
L 355.925196 251.2752 
L 355.986081 249.1008 
L 356.107851 252 
L 356.22962 252 
L 356.290505 251.2752 
L 356.412275 252 
L 356.47316 251.2752 
L 356.534045 252 
L 356.59493 251.2752 
L 356.655815 252 
L 356.7167 251.2752 
L 356.777585 252 
L 356.83847 251.2752 
L 356.960239 252 
L 357.082009 251.2752 
L 357.203779 252 
L 357.447319 252 
L 357.508203 250.5504 
L 357.629973 252 
L 357.690858 252 
L 357.751743 249.8256 
L 357.812628 251.2752 
L 357.873513 251.2752 
L 357.934398 249.1008 
L 358.056168 252 
L 358.117053 251.2752 
L 358.177937 252 
L 358.238822 251.2752 
L 358.299707 252 
L 358.360592 250.5504 
L 358.482362 252 
L 358.543247 252 
L 358.604132 251.2752 
L 358.665017 248.376 
L 358.725902 250.5504 
L 358.786786 251.2752 
L 358.847671 250.5504 
L 358.969441 252 
L 359.091211 247.6512 
L 359.152096 251.2752 
L 359.212981 249.8256 
L 359.273866 249.8256 
L 359.334751 252 
L 359.395635 251.2752 
L 359.45652 252 
L 359.517405 250.5504 
L 359.57829 251.2752 
L 359.70006 252 
L 359.760945 252 
L 359.82183 251.2752 
L 359.9436 252 
L 360.004485 247.6512 
L 360.065369 252 
L 360.126254 250.5504 
L 360.187139 252 
L 360.248024 251.2752 
L 360.369794 252 
L 360.430679 252 
L 360.491564 248.376 
L 360.552449 249.8256 
L 360.674218 252 
L 360.735103 251.2752 
L 360.795988 249.1008 
L 360.856873 252 
L 360.917758 251.2752 
L 361.039528 252 
L 361.100413 252 
L 361.222183 249.8256 
L 361.343952 252 
L 361.465722 251.2752 
L 361.587492 251.2752 
L 361.709262 250.5504 
L 361.831032 252 
L 361.891917 249.8256 
L 361.952801 251.2752 
L 362.013686 252 
L 362.074571 249.8256 
L 362.135456 250.5504 
L 362.196341 252 
L 362.257226 251.2752 
L 362.318111 249.8256 
L 362.500766 252 
L 362.561651 252 
L 362.622535 251.2752 
L 362.68342 252 
L 362.80519 251.2752 
L 362.92696 252 
L 362.987845 252 
L 363.04873 250.5504 
L 363.1705 252 
L 363.353154 252 
L 363.474924 251.2752 
L 363.535809 252 
L 363.657579 250.5504 
L 363.779349 252 
L 363.840234 249.1008 
L 363.901118 252 
L 363.962003 250.5504 
L 364.083773 252 
L 364.327313 249.1008 
L 364.509967 252 
L 364.692622 249.8256 
L 364.814392 252 
L 364.875277 250.5504 
L 364.997047 252 
L 365.057932 251.2752 
L 365.118816 252 
L 365.179701 251.2752 
L 365.301471 252 
L 365.362356 250.5504 
L 365.423241 252 
L 365.484126 250.5504 
L 365.605896 252 
L 365.78855 252 
L 365.91032 249.8256 
L 366.03209 252 
L 366.092975 251.2752 
L 366.15386 252 
L 366.214745 245.4768 
L 366.336515 252 
L 366.519169 252 
L 366.580054 251.2752 
L 366.701824 252 
L 366.762709 252 
L 366.823594 250.5504 
L 366.945364 252 
L 367.067133 252 
L 367.188903 250.5504 
L 367.249788 252 
L 367.310673 250.5504 
L 367.371558 251.2752 
L 367.432443 252 
L 367.493328 251.2752 
L 367.615098 252 
L 367.797752 252 
L 367.858637 249.8256 
L 367.919522 251.2752 
L 367.980407 252 
L 368.102177 249.8256 
L 368.284832 252 
L 368.345716 251.2752 
L 368.467486 252 
L 368.589256 252 
L 368.650141 250.5504 
L 368.771911 252 
L 368.893681 248.376 
L 368.954565 252 
L 369.01545 248.376 
L 369.076335 252 
L 369.13722 249.8256 
L 369.198105 247.6512 
L 369.25899 252 
L 369.319875 250.5504 
L 369.38076 252 
L 369.441645 247.6512 
L 369.563415 252 
L 369.746069 252 
L 369.806954 251.2752 
L 369.928724 252 
L 370.050494 252 
L 370.172264 251.2752 
L 370.294033 252 
L 370.354918 250.5504 
L 370.415803 252 
L 370.476688 251.2752 
L 370.598458 252 
L 370.659343 248.376 
L 370.720228 252 
L 370.781113 251.2752 
L 370.841997 252 
L 370.902882 251.2752 
L 370.963767 249.1008 
L 371.146422 252 
L 371.268192 250.5504 
L 371.450847 252 
L 371.511731 251.2752 
L 371.572616 252 
L 371.633501 251.2752 
L 371.755271 252 
L 371.816156 252 
L 371.877041 251.2752 
L 371.998811 252 
L 372.059696 250.5504 
L 372.12058 252 
L 372.181465 251.2752 
L 372.24235 249.8256 
L 372.303235 252 
L 372.36412 250.5504 
L 372.48589 252 
L 372.546775 252 
L 372.72943 250.5504 
L 372.912084 252 
L 373.033854 252 
L 373.155624 249.1008 
L 373.216509 249.8256 
L 373.338279 252 
L 373.399163 251.2752 
L 373.460048 249.1008 
L 373.520933 252 
L 373.581818 250.5504 
" style="fill:none;stroke:#0000ff;stroke-linecap:square;stroke-width:1.5;"/>
   </g>
   <g id="patch_3">
    <path d="M 54 252 
L 54 34.56 
" style="fill:none;stroke:#000000;stroke-linecap:square;stroke-linejoin:miter;stroke-width:0.8;"/>
   </g>
   <g id="patch_4">
    <path d="M 388.8 252 
L 388.8 34.56 
" style="fill:none;stroke:#000000;stroke-linecap:square;stroke-linejoin:miter;stroke-width:0.8;"/>
   </g>
   <g id="patch_5">
    <path d="M 54 252 
L 388.8 252 
" style="fill:none;stroke:#000000;stroke-linecap:square;stroke-linejoin:miter;stroke-width:0.8;"/>
   </g>
   <g id="patch_6">
    <path d="M 54 34.56 
L 388.8 34.56 
" style="fill:none;stroke:#000000;stroke-linecap:square;stroke-linejoin:miter;stroke-width:0.8;"/>
   </g>
   <g id="legend_1">
    <g id="patch_7">
     <path d="M 283.735937 57.238125 
L 381.8 57.238125 
Q 383.8 57.238125 383.8 55.238125 
L 383.8 41.56 
Q 383.8 39.56 381.8 39.56 
L 283.735937 39.56 
Q 281.735937 39.56 281.735937 41.56 
L 281.735937 55.238125 
Q 281.735937 57.238125 283.735937 57.238125 
z
" style="fill:#ffffff;opacity:0.8;stroke:#cccccc;stroke-linejoin:miter;"/>
    </g>
    <g id="line2d_15">
     <path d="M 285.735937 47.658437 
L 305.735937 47.658437 
" style="fill:none;stroke:#0000ff;stroke-linecap:square;stroke-width:1.5;"/>
    </g>
    <g id="line2d_16"/>
    <g id="text_14">
     <!-- Total Reward -->
     <defs>
      <path d="M -0.296875 72.90625 
L 61.375 72.90625 
L 61.375 64.59375 
L 35.5 64.59375 
L 35.5 0 
L 25.59375 0 
L 25.59375 64.59375 
L -0.296875 64.59375 
z
" id="DejaVuSans-54"/>
      <path d="M 30.609375 48.390625 
Q 23.390625 48.390625 19.1875 42.75 
Q 14.984375 37.109375 14.984375 27.296875 
Q 14.984375 17.484375 19.15625 11.84375 
Q 23.34375 6.203125 30.609375 6.203125 
Q 37.796875 6.203125 41.984375 11.859375 
Q 46.1875 17.53125 46.1875 27.296875 
Q 46.1875 37.015625 41.984375 42.703125 
Q 37.796875 48.390625 30.609375 48.390625 
z
M 30.609375 56 
Q 42.328125 56 49.015625 48.375 
Q 55.71875 40.765625 55.71875 27.296875 
Q 55.71875 13.875 49.015625 6.21875 
Q 42.328125 -1.421875 30.609375 -1.421875 
Q 18.84375 -1.421875 12.171875 6.21875 
Q 5.515625 13.875 5.515625 27.296875 
Q 5.515625 40.765625 12.171875 48.375 
Q 18.84375 56 30.609375 56 
z
" id="DejaVuSans-6f"/>
      <path d="M 18.3125 70.21875 
L 18.3125 54.6875 
L 36.8125 54.6875 
L 36.8125 47.703125 
L 18.3125 47.703125 
L 18.3125 18.015625 
Q 18.3125 11.328125 20.140625 9.421875 
Q 21.96875 7.515625 27.59375 7.515625 
L 36.8125 7.515625 
L 36.8125 0 
L 27.59375 0 
Q 17.1875 0 13.234375 3.875 
Q 9.28125 7.765625 9.28125 18.015625 
L 9.28125 47.703125 
L 2.6875 47.703125 
L 2.6875 54.6875 
L 9.28125 54.6875 
L 9.28125 70.21875 
z
" id="DejaVuSans-74"/>
      <path d="M 34.28125 27.484375 
Q 23.390625 27.484375 19.1875 25 
Q 14.984375 22.515625 14.984375 16.5 
Q 14.984375 11.71875 18.140625 8.90625 
Q 21.296875 6.109375 26.703125 6.109375 
Q 34.1875 6.109375 38.703125 11.40625 
Q 43.21875 16.703125 43.21875 25.484375 
L 43.21875 27.484375 
z
M 52.203125 31.203125 
L 52.203125 0 
L 43.21875 0 
L 43.21875 8.296875 
Q 40.140625 3.328125 35.546875 0.953125 
Q 30.953125 -1.421875 24.3125 -1.421875 
Q 15.921875 -1.421875 10.953125 3.296875 
Q 6 8.015625 6 15.921875 
Q 6 25.140625 12.171875 29.828125 
Q 18.359375 34.515625 30.609375 34.515625 
L 43.21875 34.515625 
L 43.21875 35.40625 
Q 43.21875 41.609375 39.140625 45 
Q 35.0625 48.390625 27.6875 48.390625 
Q 23 48.390625 18.546875 47.265625 
Q 14.109375 46.140625 10.015625 43.890625 
L 10.015625 52.203125 
Q 14.9375 54.109375 19.578125 55.046875 
Q 24.21875 56 28.609375 56 
Q 40.484375 56 46.34375 49.84375 
Q 52.203125 43.703125 52.203125 31.203125 
z
" id="DejaVuSans-61"/>
      <path d="M 9.421875 75.984375 
L 18.40625 75.984375 
L 18.40625 0 
L 9.421875 0 
z
" id="DejaVuSans-6c"/>
      <path id="DejaVuSans-20"/>
      <path d="M 44.390625 34.1875 
Q 47.5625 33.109375 50.5625 29.59375 
Q 53.5625 26.078125 56.59375 19.921875 
L 66.609375 0 
L 56 0 
L 46.6875 18.703125 
Q 43.0625 26.03125 39.671875 28.421875 
Q 36.28125 30.8125 30.421875 30.8125 
L 19.671875 30.8125 
L 19.671875 0 
L 9.8125 0 
L 9.8125 72.90625 
L 32.078125 72.90625 
Q 44.578125 72.90625 50.734375 67.671875 
Q 56.890625 62.453125 56.890625 51.90625 
Q 56.890625 45.015625 53.6875 40.46875 
Q 50.484375 35.9375 44.390625 34.1875 
z
M 19.671875 64.796875 
L 19.671875 38.921875 
L 32.078125 38.921875 
Q 39.203125 38.921875 42.84375 42.21875 
Q 46.484375 45.515625 46.484375 51.90625 
Q 46.484375 58.296875 42.84375 61.546875 
Q 39.203125 64.796875 32.078125 64.796875 
z
" id="DejaVuSans-52"/>
      <path d="M 56.203125 29.59375 
L 56.203125 25.203125 
L 14.890625 25.203125 
Q 15.484375 15.921875 20.484375 11.0625 
Q 25.484375 6.203125 34.421875 6.203125 
Q 39.59375 6.203125 44.453125 7.46875 
Q 49.3125 8.734375 54.109375 11.28125 
L 54.109375 2.78125 
Q 49.265625 0.734375 44.1875 -0.34375 
Q 39.109375 -1.421875 33.890625 -1.421875 
Q 20.796875 -1.421875 13.15625 6.1875 
Q 5.515625 13.8125 5.515625 26.8125 
Q 5.515625 40.234375 12.765625 48.109375 
Q 20.015625 56 32.328125 56 
Q 43.359375 56 49.78125 48.890625 
Q 56.203125 41.796875 56.203125 29.59375 
z
M 47.21875 32.234375 
Q 47.125 39.59375 43.09375 43.984375 
Q 39.0625 48.390625 32.421875 48.390625 
Q 24.90625 48.390625 20.390625 44.140625 
Q 15.875 39.890625 15.1875 32.171875 
z
" id="DejaVuSans-65"/>
      <path d="M 4.203125 54.6875 
L 13.1875 54.6875 
L 24.421875 12.015625 
L 35.59375 54.6875 
L 46.1875 54.6875 
L 57.421875 12.015625 
L 68.609375 54.6875 
L 77.59375 54.6875 
L 63.28125 0 
L 52.6875 0 
L 40.921875 44.828125 
L 29.109375 0 
L 18.5 0 
z
" id="DejaVuSans-77"/>
      <path d="M 41.109375 46.296875 
Q 39.59375 47.171875 37.8125 47.578125 
Q 36.03125 48 33.890625 48 
Q 26.265625 48 22.1875 43.046875 
Q 18.109375 38.09375 18.109375 28.8125 
L 18.109375 0 
L 9.078125 0 
L 9.078125 54.6875 
L 18.109375 54.6875 
L 18.109375 46.1875 
Q 20.953125 51.171875 25.484375 53.578125 
Q 30.03125 56 36.53125 56 
Q 37.453125 56 38.578125 55.875 
Q 39.703125 55.765625 41.0625 55.515625 
z
" id="DejaVuSans-72"/>
      <path d="M 45.40625 46.390625 
L 45.40625 75.984375 
L 54.390625 75.984375 
L 54.390625 0 
L 45.40625 0 
L 45.40625 8.203125 
Q 42.578125 3.328125 38.25 0.953125 
Q 33.9375 -1.421875 27.875 -1.421875 
Q 17.96875 -1.421875 11.734375 6.484375 
Q 5.515625 14.40625 5.515625 27.296875 
Q 5.515625 40.1875 11.734375 48.09375 
Q 17.96875 56 27.875 56 
Q 33.9375 56 38.25 53.625 
Q 42.578125 51.265625 45.40625 46.390625 
z
M 14.796875 27.296875 
Q 14.796875 17.390625 18.875 11.75 
Q 22.953125 6.109375 30.078125 6.109375 
Q 37.203125 6.109375 41.296875 11.75 
Q 45.40625 17.390625 45.40625 27.296875 
Q 45.40625 37.203125 41.296875 42.84375 
Q 37.203125 48.484375 30.078125 48.484375 
Q 22.953125 48.484375 18.875 42.84375 
Q 14.796875 37.203125 14.796875 27.296875 
z
" id="DejaVuSans-64"/>
     </defs>
     <g transform="translate(313.735937 51.158437)scale(0.1 -0.1)">
      <use xlink:href="#DejaVuSans-54"/>
      <use x="60.818359" xlink:href="#DejaVuSans-6f"/>
      <use x="122" xlink:href="#DejaVuSans-74"/>
      <use x="161.208984" xlink:href="#DejaVuSans-61"/>
      <use x="222.488281" xlink:href="#DejaVuSans-6c"/>
      <use x="250.271484" xlink:href="#DejaVuSans-20"/>
      <use x="282.058594" xlink:href="#DejaVuSans-52"/>
      <use x="351.478516" xlink:href="#DejaVuSans-65"/>
      <use x="413.001953" xlink:href="#DejaVuSans-77"/>
      <use x="494.789062" xlink:href="#DejaVuSans-61"/>
      <use x="556.068359" xlink:href="#DejaVuSans-72"/>
      <use x="597.166016" xlink:href="#DejaVuSans-64"/>
     </g>
    </g>
   </g>
  </g>
 </g>
 <defs>
  <clipPath id="p392e815b37">
   <rect height="217.44" width="334.8" x="54" y="34.56"/>
  </clipPath>
 </defs>
</svg>
