<?xml version="1.0" encoding="utf-8" standalone="no"?>
<!DOCTYPE svg PUBLIC "-//W3C//DTD SVG 1.1//EN"
  "http://www.w3.org/Graphics/SVG/1.1/DTD/svg11.dtd">
<!-- Created with matplotlib (http://matplotlib.org/) -->
<svg height="288pt" version="1.1" viewBox="0 0 432 288" width="432pt" xmlns="http://www.w3.org/2000/svg" xmlns:xlink="http://www.w3.org/1999/xlink">
 <defs>
  <style type="text/css">
*{stroke-linecap:butt;stroke-linejoin:round;}
  </style>
 </defs>
 <g id="figure_1">
  <g id="patch_1">
   <path d="M 0 288 
L 432 288 
L 432 0 
L 0 0 
z
" style="fill:#ffffff;"/>
  </g>
  <g id="axes_1">
   <g id="patch_2">
    <path d="M 54 252 
L 388.8 252 
L 388.8 34.56 
L 54 34.56 
z
" style="fill:#ffffff;"/>
   </g>
   <g id="matplotlib.axis_1">
    <g id="xtick_1">
     <g id="line2d_1">
      <defs>
       <path d="M 0 0 
L 0 3.5 
" id="m0091e5addd" style="stroke:#000000;stroke-width:0.8;"/>
      </defs>
      <g>
       <use style="stroke:#000000;stroke-width:0.8;" x="69.218182" xlink:href="#m0091e5addd" y="252"/>
      </g>
     </g>
     <g id="text_1">
      <!-- 0 -->
      <defs>
       <path d="M 31.78125 66.40625 
Q 24.171875 66.40625 20.328125 58.90625 
Q 16.5 51.421875 16.5 36.375 
Q 16.5 21.390625 20.328125 13.890625 
Q 24.171875 6.390625 31.78125 6.390625 
Q 39.453125 6.390625 43.28125 13.890625 
Q 47.125 21.390625 47.125 36.375 
Q 47.125 51.421875 43.28125 58.90625 
Q 39.453125 66.40625 31.78125 66.40625 
z
M 31.78125 74.21875 
Q 44.046875 74.21875 50.515625 64.515625 
Q 56.984375 54.828125 56.984375 36.375 
Q 56.984375 17.96875 50.515625 8.265625 
Q 44.046875 -1.421875 31.78125 -1.421875 
Q 19.53125 -1.421875 13.0625 8.265625 
Q 6.59375 17.96875 6.59375 36.375 
Q 6.59375 54.828125 13.0625 64.515625 
Q 19.53125 74.21875 31.78125 74.21875 
z
" id="DejaVuSans-30"/>
      </defs>
      <g transform="translate(66.036932 266.598437)scale(0.1 -0.1)">
       <use xlink:href="#DejaVuSans-30"/>
      </g>
     </g>
    </g>
    <g id="xtick_2">
     <g id="line2d_2">
      <g>
       <use style="stroke:#000000;stroke-width:0.8;" x="130.151843" xlink:href="#m0091e5addd" y="252"/>
      </g>
     </g>
     <g id="text_2">
      <!-- 200 -->
      <defs>
       <path d="M 19.1875 8.296875 
L 53.609375 8.296875 
L 53.609375 0 
L 7.328125 0 
L 7.328125 8.296875 
Q 12.9375 14.109375 22.625 23.890625 
Q 32.328125 33.6875 34.8125 36.53125 
Q 39.546875 41.84375 41.421875 45.53125 
Q 43.3125 49.21875 43.3125 52.78125 
Q 43.3125 58.59375 39.234375 62.25 
Q 35.15625 65.921875 28.609375 65.921875 
Q 23.96875 65.921875 18.8125 64.3125 
Q 13.671875 62.703125 7.8125 59.421875 
L 7.8125 69.390625 
Q 13.765625 71.78125 18.9375 73 
Q 24.125 74.21875 28.421875 74.21875 
Q 39.75 74.21875 46.484375 68.546875 
Q 53.21875 62.890625 53.21875 53.421875 
Q 53.21875 48.921875 51.53125 44.890625 
Q 49.859375 40.875 45.40625 35.40625 
Q 44.1875 33.984375 37.640625 27.21875 
Q 31.109375 20.453125 19.1875 8.296875 
z
" id="DejaVuSans-32"/>
      </defs>
      <g transform="translate(120.608093 266.598437)scale(0.1 -0.1)">
       <use xlink:href="#DejaVuSans-32"/>
       <use x="63.623047" xlink:href="#DejaVuSans-30"/>
       <use x="127.246094" xlink:href="#DejaVuSans-30"/>
      </g>
     </g>
    </g>
    <g id="xtick_3">
     <g id="line2d_3">
      <g>
       <use style="stroke:#000000;stroke-width:0.8;" x="191.085504" xlink:href="#m0091e5addd" y="252"/>
      </g>
     </g>
     <g id="text_3">
      <!-- 400 -->
      <defs>
       <path d="M 37.796875 64.3125 
L 12.890625 25.390625 
L 37.796875 25.390625 
z
M 35.203125 72.90625 
L 47.609375 72.90625 
L 47.609375 25.390625 
L 58.015625 25.390625 
L 58.015625 17.1875 
L 47.609375 17.1875 
L 47.609375 0 
L 37.796875 0 
L 37.796875 17.1875 
L 4.890625 17.1875 
L 4.890625 26.703125 
z
" id="DejaVuSans-34"/>
      </defs>
      <g transform="translate(181.541754 266.598437)scale(0.1 -0.1)">
       <use xlink:href="#DejaVuSans-34"/>
       <use x="63.623047" xlink:href="#DejaVuSans-30"/>
       <use x="127.246094" xlink:href="#DejaVuSans-30"/>
      </g>
     </g>
    </g>
    <g id="xtick_4">
     <g id="line2d_4">
      <g>
       <use style="stroke:#000000;stroke-width:0.8;" x="252.019165" xlink:href="#m0091e5addd" y="252"/>
      </g>
     </g>
     <g id="text_4">
      <!-- 600 -->
      <defs>
       <path d="M 33.015625 40.375 
Q 26.375 40.375 22.484375 35.828125 
Q 18.609375 31.296875 18.609375 23.390625 
Q 18.609375 15.53125 22.484375 10.953125 
Q 26.375 6.390625 33.015625 6.390625 
Q 39.65625 6.390625 43.53125 10.953125 
Q 47.40625 15.53125 47.40625 23.390625 
Q 47.40625 31.296875 43.53125 35.828125 
Q 39.65625 40.375 33.015625 40.375 
z
M 52.59375 71.296875 
L 52.59375 62.3125 
Q 48.875 64.0625 45.09375 64.984375 
Q 41.3125 65.921875 37.59375 65.921875 
Q 27.828125 65.921875 22.671875 59.328125 
Q 17.53125 52.734375 16.796875 39.40625 
Q 19.671875 43.65625 24.015625 45.921875 
Q 28.375 48.1875 33.59375 48.1875 
Q 44.578125 48.1875 50.953125 41.515625 
Q 57.328125 34.859375 57.328125 23.390625 
Q 57.328125 12.15625 50.6875 5.359375 
Q 44.046875 -1.421875 33.015625 -1.421875 
Q 20.359375 -1.421875 13.671875 8.265625 
Q 6.984375 17.96875 6.984375 36.375 
Q 6.984375 53.65625 15.1875 63.9375 
Q 23.390625 74.21875 37.203125 74.21875 
Q 40.921875 74.21875 44.703125 73.484375 
Q 48.484375 72.75 52.59375 71.296875 
z
" id="DejaVuSans-36"/>
      </defs>
      <g transform="translate(242.475415 266.598437)scale(0.1 -0.1)">
       <use xlink:href="#DejaVuSans-36"/>
       <use x="63.623047" xlink:href="#DejaVuSans-30"/>
       <use x="127.246094" xlink:href="#DejaVuSans-30"/>
      </g>
     </g>
    </g>
    <g id="xtick_5">
     <g id="line2d_5">
      <g>
       <use style="stroke:#000000;stroke-width:0.8;" x="312.952826" xlink:href="#m0091e5addd" y="252"/>
      </g>
     </g>
     <g id="text_5">
      <!-- 800 -->
      <defs>
       <path d="M 31.78125 34.625 
Q 24.75 34.625 20.71875 30.859375 
Q 16.703125 27.09375 16.703125 20.515625 
Q 16.703125 13.921875 20.71875 10.15625 
Q 24.75 6.390625 31.78125 6.390625 
Q 38.8125 6.390625 42.859375 10.171875 
Q 46.921875 13.96875 46.921875 20.515625 
Q 46.921875 27.09375 42.890625 30.859375 
Q 38.875 34.625 31.78125 34.625 
z
M 21.921875 38.8125 
Q 15.578125 40.375 12.03125 44.71875 
Q 8.5 49.078125 8.5 55.328125 
Q 8.5 64.0625 14.71875 69.140625 
Q 20.953125 74.21875 31.78125 74.21875 
Q 42.671875 74.21875 48.875 69.140625 
Q 55.078125 64.0625 55.078125 55.328125 
Q 55.078125 49.078125 51.53125 44.71875 
Q 48 40.375 41.703125 38.8125 
Q 48.828125 37.15625 52.796875 32.3125 
Q 56.78125 27.484375 56.78125 20.515625 
Q 56.78125 9.90625 50.3125 4.234375 
Q 43.84375 -1.421875 31.78125 -1.421875 
Q 19.734375 -1.421875 13.25 4.234375 
Q 6.78125 9.90625 6.78125 20.515625 
Q 6.78125 27.484375 10.78125 32.3125 
Q 14.796875 37.15625 21.921875 38.8125 
z
M 18.3125 54.390625 
Q 18.3125 48.734375 21.84375 45.5625 
Q 25.390625 42.390625 31.78125 42.390625 
Q 38.140625 42.390625 41.71875 45.5625 
Q 45.3125 48.734375 45.3125 54.390625 
Q 45.3125 60.0625 41.71875 63.234375 
Q 38.140625 66.40625 31.78125 66.40625 
Q 25.390625 66.40625 21.84375 63.234375 
Q 18.3125 60.0625 18.3125 54.390625 
z
" id="DejaVuSans-38"/>
      </defs>
      <g transform="translate(303.409076 266.598437)scale(0.1 -0.1)">
       <use xlink:href="#DejaVuSans-38"/>
       <use x="63.623047" xlink:href="#DejaVuSans-30"/>
       <use x="127.246094" xlink:href="#DejaVuSans-30"/>
      </g>
     </g>
    </g>
    <g id="xtick_6">
     <g id="line2d_6">
      <g>
       <use style="stroke:#000000;stroke-width:0.8;" x="373.886486" xlink:href="#m0091e5addd" y="252"/>
      </g>
     </g>
     <g id="text_6">
      <!-- 1000 -->
      <defs>
       <path d="M 12.40625 8.296875 
L 28.515625 8.296875 
L 28.515625 63.921875 
L 10.984375 60.40625 
L 10.984375 69.390625 
L 28.421875 72.90625 
L 38.28125 72.90625 
L 38.28125 8.296875 
L 54.390625 8.296875 
L 54.390625 0 
L 12.40625 0 
z
" id="DejaVuSans-31"/>
      </defs>
      <g transform="translate(361.161486 266.598437)scale(0.1 -0.1)">
       <use xlink:href="#DejaVuSans-31"/>
       <use x="63.623047" xlink:href="#DejaVuSans-30"/>
       <use x="127.246094" xlink:href="#DejaVuSans-30"/>
       <use x="190.869141" xlink:href="#DejaVuSans-30"/>
      </g>
     </g>
    </g>
   </g>
   <g id="matplotlib.axis_2">
    <g id="ytick_1">
     <g id="line2d_7">
      <defs>
       <path d="M 0 0 
L -3.5 0 
" id="m1755ace179" style="stroke:#000000;stroke-width:0.8;"/>
      </defs>
      <g>
       <use style="stroke:#000000;stroke-width:0.8;" x="54" xlink:href="#m1755ace179" y="252"/>
      </g>
     </g>
     <g id="text_7">
      <!-- 0 -->
      <g transform="translate(40.6375 255.799219)scale(0.1 -0.1)">
       <use xlink:href="#DejaVuSans-30"/>
      </g>
     </g>
    </g>
    <g id="ytick_2">
     <g id="line2d_8">
      <g>
       <use style="stroke:#000000;stroke-width:0.8;" x="54" xlink:href="#m1755ace179" y="215.76"/>
      </g>
     </g>
     <g id="text_8">
      <!-- 50 -->
      <defs>
       <path d="M 10.796875 72.90625 
L 49.515625 72.90625 
L 49.515625 64.59375 
L 19.828125 64.59375 
L 19.828125 46.734375 
Q 21.96875 47.46875 24.109375 47.828125 
Q 26.265625 48.1875 28.421875 48.1875 
Q 40.625 48.1875 47.75 41.5 
Q 54.890625 34.8125 54.890625 23.390625 
Q 54.890625 11.625 47.5625 5.09375 
Q 40.234375 -1.421875 26.90625 -1.421875 
Q 22.3125 -1.421875 17.546875 -0.640625 
Q 12.796875 0.140625 7.71875 1.703125 
L 7.71875 11.625 
Q 12.109375 9.234375 16.796875 8.0625 
Q 21.484375 6.890625 26.703125 6.890625 
Q 35.15625 6.890625 40.078125 11.328125 
Q 45.015625 15.765625 45.015625 23.390625 
Q 45.015625 31 40.078125 35.4375 
Q 35.15625 39.890625 26.703125 39.890625 
Q 22.75 39.890625 18.8125 39.015625 
Q 14.890625 38.140625 10.796875 36.28125 
z
" id="DejaVuSans-35"/>
      </defs>
      <g transform="translate(34.275 219.559219)scale(0.1 -0.1)">
       <use xlink:href="#DejaVuSans-35"/>
       <use x="63.623047" xlink:href="#DejaVuSans-30"/>
      </g>
     </g>
    </g>
    <g id="ytick_3">
     <g id="line2d_9">
      <g>
       <use style="stroke:#000000;stroke-width:0.8;" x="54" xlink:href="#m1755ace179" y="179.52"/>
      </g>
     </g>
     <g id="text_9">
      <!-- 100 -->
      <g transform="translate(27.9125 183.319219)scale(0.1 -0.1)">
       <use xlink:href="#DejaVuSans-31"/>
       <use x="63.623047" xlink:href="#DejaVuSans-30"/>
       <use x="127.246094" xlink:href="#DejaVuSans-30"/>
      </g>
     </g>
    </g>
    <g id="ytick_4">
     <g id="line2d_10">
      <g>
       <use style="stroke:#000000;stroke-width:0.8;" x="54" xlink:href="#m1755ace179" y="143.28"/>
      </g>
     </g>
     <g id="text_10">
      <!-- 150 -->
      <g transform="translate(27.9125 147.079219)scale(0.1 -0.1)">
       <use xlink:href="#DejaVuSans-31"/>
       <use x="63.623047" xlink:href="#DejaVuSans-35"/>
       <use x="127.246094" xlink:href="#DejaVuSans-30"/>
      </g>
     </g>
    </g>
    <g id="ytick_5">
     <g id="line2d_11">
      <g>
       <use style="stroke:#000000;stroke-width:0.8;" x="54" xlink:href="#m1755ace179" y="107.04"/>
      </g>
     </g>
     <g id="text_11">
      <!-- 200 -->
      <g transform="translate(27.9125 110.839219)scale(0.1 -0.1)">
       <use xlink:href="#DejaVuSans-32"/>
       <use x="63.623047" xlink:href="#DejaVuSans-30"/>
       <use x="127.246094" xlink:href="#DejaVuSans-30"/>
      </g>
     </g>
    </g>
    <g id="ytick_6">
     <g id="line2d_12">
      <g>
       <use style="stroke:#000000;stroke-width:0.8;" x="54" xlink:href="#m1755ace179" y="70.8"/>
      </g>
     </g>
     <g id="text_12">
      <!-- 250 -->
      <g transform="translate(27.9125 74.599219)scale(0.1 -0.1)">
       <use xlink:href="#DejaVuSans-32"/>
       <use x="63.623047" xlink:href="#DejaVuSans-35"/>
       <use x="127.246094" xlink:href="#DejaVuSans-30"/>
      </g>
     </g>
    </g>
    <g id="ytick_7">
     <g id="line2d_13">
      <g>
       <use style="stroke:#000000;stroke-width:0.8;" x="54" xlink:href="#m1755ace179" y="34.56"/>
      </g>
     </g>
     <g id="text_13">
      <!-- 300 -->
      <defs>
       <path d="M 40.578125 39.3125 
Q 47.65625 37.796875 51.625 33 
Q 55.609375 28.21875 55.609375 21.1875 
Q 55.609375 10.40625 48.1875 4.484375 
Q 40.765625 -1.421875 27.09375 -1.421875 
Q 22.515625 -1.421875 17.65625 -0.515625 
Q 12.796875 0.390625 7.625 2.203125 
L 7.625 11.71875 
Q 11.71875 9.328125 16.59375 8.109375 
Q 21.484375 6.890625 26.8125 6.890625 
Q 36.078125 6.890625 40.9375 10.546875 
Q 45.796875 14.203125 45.796875 21.1875 
Q 45.796875 27.640625 41.28125 31.265625 
Q 36.765625 34.90625 28.71875 34.90625 
L 20.21875 34.90625 
L 20.21875 43.015625 
L 29.109375 43.015625 
Q 36.375 43.015625 40.234375 45.921875 
Q 44.09375 48.828125 44.09375 54.296875 
Q 44.09375 59.90625 40.109375 62.90625 
Q 36.140625 65.921875 28.71875 65.921875 
Q 24.65625 65.921875 20.015625 65.03125 
Q 15.375 64.15625 9.8125 62.3125 
L 9.8125 71.09375 
Q 15.4375 72.65625 20.34375 73.4375 
Q 25.25 74.21875 29.59375 74.21875 
Q 40.828125 74.21875 47.359375 69.109375 
Q 53.90625 64.015625 53.90625 55.328125 
Q 53.90625 49.265625 50.4375 45.09375 
Q 46.96875 40.921875 40.578125 39.3125 
z
" id="DejaVuSans-33"/>
      </defs>
      <g transform="translate(27.9125 38.359219)scale(0.1 -0.1)">
       <use xlink:href="#DejaVuSans-33"/>
       <use x="63.623047" xlink:href="#DejaVuSans-30"/>
       <use x="127.246094" xlink:href="#DejaVuSans-30"/>
      </g>
     </g>
    </g>
   </g>
   <g id="line2d_14">
    <path clip-path="url(#p29ac24e9f3)" d="M 69.218182 252 
L 69.52285 251.2752 
L 69.827518 249.1008 
L 70.132187 250.5504 
L 70.436855 250.5504 
L 70.741523 252 
L 71.046192 252 
L 71.35086 251.2752 
L 71.655528 252 
L 72.264865 252 
L 72.569533 251.2752 
L 72.874201 252 
L 73.483538 252 
L 73.788206 249.8256 
L 74.092875 252 
L 74.397543 250.5504 
L 74.702211 252 
L 75.00688 252 
L 75.311548 250.5504 
L 75.616216 252 
L 75.920885 248.376 
L 76.225553 249.1008 
L 76.530221 252 
L 79.576904 252 
L 79.881572 250.5504 
L 80.186241 252 
L 81.404914 252 
L 81.709582 248.376 
L 82.014251 246.9264 
L 82.318919 250.5504 
L 82.623587 252 
L 82.928256 250.5504 
L 83.232924 252 
L 83.84226 252 
L 84.146929 249.8256 
L 84.451597 252 
L 84.756265 249.1008 
L 85.060934 252 
L 85.365602 245.4768 
L 85.67027 252 
L 85.974939 245.4768 
L 86.279607 252 
L 86.888943 252 
L 87.193612 248.376 
L 87.49828 249.1008 
L 88.107617 252 
L 88.412285 246.2016 
L 88.716953 252 
L 89.021622 244.0272 
L 89.32629 246.2016 
L 89.630958 245.4768 
L 89.935627 242.5776 
L 90.240295 252 
L 90.544963 244.0272 
L 90.849631 239.6784 
L 91.1543 239.6784 
L 91.458968 252 
L 91.763636 248.376 
L 92.068305 240.4032 
L 92.372973 249.1008 
L 92.677641 241.8528 
L 92.98231 238.2288 
L 93.286978 249.8256 
L 93.591646 236.7792 
L 93.896314 240.4032 
L 94.200983 234.6048 
L 94.505651 242.5776 
L 94.810319 238.9536 
L 95.114988 236.7792 
L 95.724324 228.0816 
L 96.333661 252 
L 96.638329 230.256 
L 96.942998 237.504 
L 97.247666 220.1088 
L 98.161671 237.504 
L 98.466339 241.128 
L 98.771007 235.3296 
L 99.075676 240.4032 
L 99.380344 236.0544 
L 99.685012 241.8528 
L 99.989681 212.136 
L 100.294349 216.4848 
L 100.599017 190.392 
L 100.903686 231.7056 
L 101.208354 226.632 
L 101.513022 187.4928 
L 101.81769 207.7872 
L 102.731695 239.6784 
L 103.036364 225.1824 
L 103.6457 236.0544 
L 103.950369 224.4576 
L 104.255037 221.5584 
L 104.559705 223.008 
L 104.864373 225.9072 
L 105.778378 158.5008 
L 106.083047 194.016 
L 106.387715 205.6128 
L 106.692383 168.648 
L 106.997052 100.5168 
L 107.30172 115.7376 
L 107.606388 112.1136 
L 107.911057 252 
L 108.215725 190.392 
L 108.520393 196.1904 
L 108.825061 102.6912 
L 109.12973 128.0592 
L 109.434398 130.9584 
L 109.739066 149.0784 
L 110.043735 110.664 
L 110.348403 190.392 
L 110.653071 203.4384 
L 110.95774 166.4736 
L 111.262408 233.1552 
L 111.567076 199.0896 
L 111.871744 236.7792 
L 112.481081 159.9504 
L 112.785749 180.2448 
L 113.090418 252 
L 113.395086 104.8656 
L 113.699754 159.9504 
L 114.004423 146.904 
L 114.309091 170.8224 
L 114.613759 167.9232 
L 114.918428 180.2448 
L 115.223096 181.6944 
L 115.527764 169.3728 
L 115.832432 183.8688 
L 116.137101 159.9504 
L 116.441769 174.4464 
L 116.746437 212.8608 
L 117.051106 106.3152 
L 117.355774 172.272 
L 117.660442 166.4736 
L 117.965111 202.7136 
L 118.269779 196.9152 
L 118.574447 176.6208 
L 118.879115 201.264 
L 119.183784 212.136 
L 119.488452 199.8144 
L 120.097789 186.0432 
L 120.402457 165.7488 
L 120.707125 185.3184 
L 121.316462 169.3728 
L 121.62113 171.5472 
L 121.925799 178.0704 
L 122.230467 155.6016 
L 122.535135 154.8768 
L 122.839803 125.16 
L 123.144472 140.3808 
L 123.44914 78.048 
L 123.753808 88.92 
L 124.058477 60.6528 
L 124.363145 73.6992 
L 124.667813 80.2224 
L 124.972482 139.656 
L 125.27715 91.0944 
L 125.581818 70.8 
L 125.886486 144.7296 
L 126.191155 145.4544 
L 126.495823 81.672 
L 126.800491 193.2912 
L 127.10516 154.8768 
L 127.409828 91.0944 
L 127.714496 121.536 
L 128.019165 135.3072 
L 128.323833 65.0016 
L 128.628501 79.4976 
L 128.93317 36.0096 
L 129.237838 188.9424 
L 130.151843 88.1952 
L 130.456511 61.3776 
L 130.761179 99.792 
L 131.065848 87.4704 
L 131.370516 129.5088 
L 131.675184 111.3888 
L 131.979853 85.296 
L 132.589189 151.2528 
L 132.893857 100.5168 
L 133.503194 58.4784 
L 133.807862 219.384 
L 134.112531 109.2144 
L 134.417199 105.5904 
L 134.721867 45.432 
L 135.026536 132.408 
L 135.331204 106.3152 
L 135.635872 92.544 
L 135.940541 122.2608 
L 136.245209 86.7456 
L 136.549877 107.7648 
L 136.854545 62.1024 
L 137.159214 99.792 
L 137.463882 102.6912 
L 137.76855 59.2032 
L 138.073219 89.6448 
L 138.377887 59.928 
L 138.682555 50.5056 
L 138.987224 70.8 
L 139.59656 193.2912 
L 139.901229 190.392 
L 140.205897 170.0976 
L 140.510565 191.1168 
L 140.815233 57.0288 
L 141.119902 111.3888 
L 141.42457 105.5904 
L 141.729238 171.5472 
L 142.033907 124.4352 
L 142.338575 106.3152 
L 142.643243 53.4048 
L 142.947912 49.056 
L 143.25258 147.6288 
L 143.557248 85.296 
L 143.861916 96.8928 
L 144.166585 49.7808 
L 144.471253 54.8544 
L 144.775921 101.9664 
L 145.08059 38.184 
L 145.385258 206.3376 
L 145.689926 86.7456 
L 145.994595 103.416 
L 146.299263 54.8544 
L 146.9086 47.6064 
L 147.213268 54.1296 
L 147.517936 57.7536 
L 147.822604 110.664 
L 148.127273 51.2304 
L 148.736609 89.6448 
L 149.041278 62.1024 
L 149.650614 73.6992 
L 149.955283 55.5792 
L 150.259951 63.552 
L 150.564619 83.1216 
L 150.869287 71.5248 
L 151.173956 100.5168 
L 151.478624 65.7264 
L 151.783292 109.2144 
L 152.087961 111.3888 
L 152.392629 72.9744 
L 152.697297 84.5712 
L 153.001966 197.64 
L 153.306634 73.6992 
L 153.611302 74.424 
L 153.915971 66.4512 
L 154.220639 38.184 
L 154.525307 75.8736 
L 154.829975 183.144 
L 155.134644 75.1488 
L 155.439312 53.4048 
L 155.74398 68.6256 
L 156.048649 98.3424 
L 156.353317 69.3504 
L 156.657985 56.304 
L 156.962654 74.424 
L 157.267322 73.6992 
L 157.57199 82.3968 
L 157.876658 100.5168 
L 158.181327 83.8464 
L 158.485995 109.2144 
L 158.790663 155.6016 
L 159.095332 121.536 
L 159.4 67.9008 
L 159.704668 87.4704 
L 160.314005 159.9504 
L 160.618673 121.536 
L 160.923342 134.5824 
L 161.22801 67.176 
L 161.532678 97.6176 
L 161.837346 67.9008 
L 162.142015 82.3968 
L 162.446683 111.3888 
L 162.751351 91.0944 
L 163.05602 101.9664 
L 163.360688 64.2768 
L 163.665356 49.056 
L 163.970025 84.5712 
L 164.274693 67.9008 
L 164.579361 83.1216 
L 164.884029 70.8 
L 165.188698 48.3312 
L 165.493366 69.3504 
L 165.798034 67.9008 
L 166.102703 68.6256 
L 166.407371 54.1296 
L 166.712039 94.7184 
L 167.321376 53.4048 
L 168.235381 72.2496 
L 168.540049 64.2768 
L 168.844717 75.1488 
L 169.149386 122.2608 
L 169.454054 65.7264 
L 169.758722 79.4976 
L 170.063391 55.5792 
L 170.368059 49.056 
L 170.672727 52.68 
L 171.282064 71.5248 
L 171.586732 72.2496 
L 171.8914 102.6912 
L 172.196069 62.1024 
L 172.500737 52.68 
L 172.805405 82.3968 
L 173.110074 49.056 
L 173.414742 49.056 
L 173.71941 86.7456 
L 174.024079 48.3312 
L 174.328747 78.7728 
L 174.633415 90.3696 
L 174.938084 54.8544 
L 175.242752 57.7536 
L 175.54742 48.3312 
L 175.852088 76.5984 
L 176.156757 78.048 
L 176.766093 89.6448 
L 177.070762 54.8544 
L 177.37543 51.9552 
L 177.680098 46.8816 
L 177.984767 62.8272 
L 178.289435 47.6064 
L 178.594103 91.8192 
L 178.898771 107.7648 
L 179.20344 39.6336 
L 179.508108 137.4816 
L 179.812776 65.7264 
L 180.117445 76.5984 
L 180.422113 72.9744 
L 180.726781 64.2768 
L 181.03145 43.9824 
L 181.336118 57.7536 
L 181.640786 51.2304 
L 181.945455 41.808 
L 182.250123 59.2032 
L 182.554791 84.5712 
L 182.859459 90.3696 
L 183.468796 36.7344 
L 183.773464 67.9008 
L 184.078133 54.8544 
L 184.382801 51.2304 
L 184.687469 57.7536 
L 184.992138 72.9744 
L 185.296806 61.3776 
L 185.601474 57.0288 
L 185.906143 99.792 
L 186.210811 107.04 
L 186.820147 45.432 
L 187.124816 97.6176 
L 187.429484 62.8272 
L 187.734152 59.928 
L 188.038821 51.9552 
L 188.343489 99.0672 
L 188.648157 107.04 
L 188.952826 134.5824 
L 189.257494 72.2496 
L 189.562162 55.5792 
L 189.86683 175.896 
L 190.171499 38.184 
L 190.476167 127.3344 
L 190.780835 65.0016 
L 191.085504 163.5744 
L 191.390172 88.92 
L 191.69484 59.2032 
L 192.608845 80.2224 
L 192.913514 57.0288 
L 193.218182 51.2304 
L 193.52285 57.0288 
L 193.827518 45.432 
L 194.132187 58.4784 
L 194.436855 52.68 
L 194.741523 57.0288 
L 195.046192 50.5056 
L 195.35086 104.1408 
L 195.655528 52.68 
L 195.960197 101.2416 
L 196.264865 46.8816 
L 196.569533 44.7072 
L 196.874201 46.8816 
L 197.17887 43.2576 
L 197.483538 46.8816 
L 197.788206 120.8112 
L 198.092875 34.56 
L 198.397543 63.552 
L 198.702211 47.6064 
L 199.00688 68.6256 
L 199.311548 70.0752 
L 199.920885 45.432 
L 200.225553 53.4048 
L 200.530221 40.3584 
L 200.834889 53.4048 
L 201.139558 43.2576 
L 201.444226 56.304 
L 202.053563 39.6336 
L 202.358231 46.1568 
L 202.662899 57.7536 
L 203.272236 42.5328 
L 203.576904 73.6992 
L 203.881572 41.808 
L 204.186241 46.8816 
L 204.490909 58.4784 
L 204.795577 45.432 
L 205.100246 72.2496 
L 205.404914 51.2304 
L 205.709582 72.9744 
L 206.014251 104.1408 
L 206.623587 54.1296 
L 206.928256 78.7728 
L 207.232924 36.7344 
L 207.537592 81.672 
L 207.84226 84.5712 
L 208.146929 49.7808 
L 208.451597 67.9008 
L 208.756265 72.9744 
L 209.060934 37.4592 
L 209.365602 62.8272 
L 209.67027 54.1296 
L 209.974939 59.928 
L 210.279607 69.3504 
L 210.584275 61.3776 
L 210.888943 62.8272 
L 211.49828 43.2576 
L 211.802948 35.2848 
L 212.107617 60.6528 
L 212.412285 60.6528 
L 212.716953 49.7808 
L 213.021622 54.8544 
L 213.32629 54.1296 
L 213.630958 70.8 
L 213.935627 51.2304 
L 214.240295 70.0752 
L 214.544963 47.6064 
L 214.849631 70.8 
L 215.1543 47.6064 
L 215.458968 46.8816 
L 215.763636 59.2032 
L 216.068305 36.7344 
L 216.372973 48.3312 
L 216.98231 45.432 
L 217.286978 62.1024 
L 217.591646 65.7264 
L 217.896314 47.6064 
L 218.200983 47.6064 
L 218.505651 54.1296 
L 218.810319 51.9552 
L 219.114988 59.2032 
L 219.419656 73.6992 
L 219.724324 56.304 
L 220.028993 65.7264 
L 220.333661 54.8544 
L 220.638329 54.8544 
L 220.942998 41.808 
L 221.247666 57.0288 
L 221.552334 54.1296 
L 221.857002 49.056 
L 222.161671 55.5792 
L 222.466339 94.7184 
L 222.771007 54.8544 
L 223.075676 54.1296 
L 223.380344 62.8272 
L 223.685012 40.3584 
L 223.989681 51.2304 
L 224.294349 54.8544 
L 224.599017 44.7072 
L 225.208354 62.1024 
L 225.513022 46.1568 
L 225.81769 53.4048 
L 226.122359 45.432 
L 226.427027 53.4048 
L 226.731695 43.9824 
L 227.036364 60.6528 
L 227.341032 48.3312 
L 227.6457 78.048 
L 227.950369 56.304 
L 228.255037 68.6256 
L 228.559705 42.5328 
L 228.864373 47.6064 
L 229.169042 49.7808 
L 229.47371 85.296 
L 229.778378 40.3584 
L 230.083047 56.304 
L 230.387715 49.056 
L 230.692383 57.0288 
L 230.997052 57.0288 
L 231.30172 58.4784 
L 231.606388 54.1296 
L 232.215725 39.6336 
L 232.520393 42.5328 
L 232.825061 43.9824 
L 233.12973 53.4048 
L 233.434398 51.9552 
L 233.739066 91.8192 
L 234.043735 46.1568 
L 234.348403 70.0752 
L 234.95774 48.3312 
L 235.262408 57.0288 
L 235.567076 39.6336 
L 235.871744 54.1296 
L 236.176413 49.7808 
L 236.481081 43.2576 
L 236.785749 66.4512 
L 237.090418 71.5248 
L 237.395086 49.056 
L 237.699754 63.552 
L 238.004423 62.1024 
L 238.309091 46.8816 
L 238.613759 51.9552 
L 239.223096 46.8816 
L 239.527764 49.056 
L 239.832432 59.928 
L 240.137101 52.68 
L 240.441769 68.6256 
L 241.355774 38.9088 
L 241.660442 64.2768 
L 241.965111 46.1568 
L 242.269779 43.2576 
L 242.574447 56.304 
L 242.879115 41.808 
L 243.183784 49.056 
L 243.488452 38.184 
L 243.79312 51.2304 
L 244.097789 46.1568 
L 244.402457 70.0752 
L 244.707125 43.2576 
L 245.011794 53.4048 
L 245.316462 46.1568 
L 245.62113 67.9008 
L 245.925799 49.056 
L 246.230467 59.928 
L 246.535135 45.432 
L 246.839803 51.2304 
L 247.144472 40.3584 
L 247.44914 40.3584 
L 247.753808 44.7072 
L 248.058477 57.0288 
L 248.363145 63.552 
L 248.667813 49.7808 
L 248.972482 56.304 
L 249.27715 41.0832 
L 249.581818 38.9088 
L 249.886486 43.2576 
L 250.191155 76.5984 
L 250.495823 73.6992 
L 250.800491 51.2304 
L 251.409828 75.8736 
L 252.019165 43.9824 
L 252.323833 43.2576 
L 252.628501 43.9824 
L 252.93317 59.2032 
L 253.237838 46.1568 
L 253.542506 52.68 
L 253.847174 41.808 
L 254.151843 45.432 
L 254.456511 52.68 
L 255.065848 49.7808 
L 255.370516 54.8544 
L 255.675184 45.432 
L 256.284521 49.056 
L 256.589189 58.4784 
L 256.893857 48.3312 
L 257.198526 52.68 
L 257.503194 51.2304 
L 257.807862 38.9088 
L 258.112531 52.68 
L 258.417199 42.5328 
L 258.721867 60.6528 
L 259.026536 47.6064 
L 259.331204 45.432 
L 259.635872 72.9744 
L 259.940541 41.808 
L 260.245209 40.3584 
L 260.549877 62.1024 
L 260.854545 59.928 
L 261.159214 46.8816 
L 261.463882 54.8544 
L 261.76855 55.5792 
L 262.073219 57.7536 
L 262.377887 56.304 
L 262.682555 45.432 
L 263.291892 59.2032 
L 263.59656 53.4048 
L 263.901229 45.432 
L 264.205897 49.056 
L 264.510565 46.8816 
L 264.815233 54.1296 
L 265.119902 41.0832 
L 265.42457 52.68 
L 265.729238 39.6336 
L 266.033907 46.8816 
L 266.338575 116.4624 
L 266.643243 51.9552 
L 266.947912 67.176 
L 267.25258 49.056 
L 267.557248 52.68 
L 267.861916 53.4048 
L 268.166585 43.9824 
L 268.471253 58.4784 
L 268.775921 53.4048 
L 269.08059 41.808 
L 269.385258 43.2576 
L 269.689926 54.8544 
L 270.299263 39.6336 
L 270.603931 45.432 
L 271.213268 79.4976 
L 271.517936 46.1568 
L 271.822604 48.3312 
L 272.127273 39.6336 
L 272.431941 53.4048 
L 272.736609 52.68 
L 273.041278 54.1296 
L 273.345946 46.1568 
L 273.650614 49.056 
L 273.955283 47.6064 
L 274.259951 50.5056 
L 274.564619 64.2768 
L 274.869287 50.5056 
L 275.173956 49.7808 
L 275.478624 47.6064 
L 275.783292 62.1024 
L 276.087961 46.1568 
L 276.392629 44.7072 
L 276.697297 39.6336 
L 277.001966 70.0752 
L 277.306634 46.1568 
L 277.915971 59.928 
L 278.220639 54.8544 
L 278.525307 53.4048 
L 278.829975 58.4784 
L 279.134644 97.6176 
L 279.439312 51.2304 
L 279.74398 51.9552 
L 280.048649 54.8544 
L 280.353317 49.7808 
L 280.657985 60.6528 
L 280.962654 46.8816 
L 281.267322 41.808 
L 281.57199 59.2032 
L 281.876658 42.5328 
L 282.181327 46.1568 
L 282.485995 45.432 
L 282.790663 46.8816 
L 283.095332 59.928 
L 283.4 40.3584 
L 284.009337 50.5056 
L 284.314005 37.4592 
L 284.618673 50.5056 
L 284.923342 47.6064 
L 285.22801 59.928 
L 285.532678 46.1568 
L 285.837346 51.9552 
L 286.142015 44.7072 
L 286.446683 54.8544 
L 286.751351 51.9552 
L 287.05602 72.9744 
L 287.360688 43.2576 
L 287.665356 56.304 
L 287.970025 49.7808 
L 288.579361 43.2576 
L 288.884029 56.304 
L 289.188698 57.0288 
L 289.493366 54.1296 
L 289.798034 54.8544 
L 290.712039 41.0832 
L 291.016708 46.1568 
L 291.321376 43.2576 
L 291.626044 50.5056 
L 291.930713 39.6336 
L 292.235381 47.6064 
L 292.540049 49.7808 
L 293.149386 58.4784 
L 293.454054 44.7072 
L 293.758722 53.4048 
L 294.063391 54.8544 
L 294.368059 46.8816 
L 294.672727 46.1568 
L 294.977396 42.5328 
L 295.282064 56.304 
L 295.586732 39.6336 
L 295.8914 46.8816 
L 296.196069 41.808 
L 296.500737 42.5328 
L 296.805405 43.9824 
L 297.110074 44.7072 
L 297.414742 38.9088 
L 297.71941 41.0832 
L 298.024079 49.7808 
L 298.328747 50.5056 
L 298.633415 37.4592 
L 298.938084 38.9088 
L 299.242752 61.3776 
L 299.54742 51.9552 
L 299.852088 52.68 
L 300.156757 47.6064 
L 300.461425 67.9008 
L 300.766093 42.5328 
L 301.070762 46.8816 
L 301.37543 47.6064 
L 301.680098 50.5056 
L 301.984767 76.5984 
L 302.289435 43.2576 
L 302.594103 46.8816 
L 302.898771 38.9088 
L 303.20344 44.7072 
L 303.508108 36.7344 
L 303.812776 51.9552 
L 304.117445 55.5792 
L 304.422113 42.5328 
L 304.726781 49.7808 
L 305.03145 53.4048 
L 305.336118 53.4048 
L 305.640786 42.5328 
L 306.250123 51.2304 
L 306.554791 37.4592 
L 306.859459 49.7808 
L 307.468796 41.0832 
L 307.773464 55.5792 
L 308.078133 38.9088 
L 308.382801 38.184 
L 308.687469 38.9088 
L 308.992138 44.7072 
L 309.296806 36.0096 
L 309.601474 47.6064 
L 309.906143 44.7072 
L 310.210811 36.7344 
L 310.515479 51.2304 
L 310.820147 46.8816 
L 311.124816 54.8544 
L 311.429484 46.1568 
L 311.734152 42.5328 
L 312.038821 44.7072 
L 312.343489 41.0832 
L 312.648157 45.432 
L 312.952826 38.9088 
L 313.257494 43.2576 
L 313.562162 54.1296 
L 313.86683 38.184 
L 314.171499 48.3312 
L 314.476167 38.184 
L 314.780835 54.8544 
L 315.085504 37.4592 
L 315.390172 38.184 
L 315.69484 51.2304 
L 315.999509 54.1296 
L 316.304177 53.4048 
L 316.608845 46.1568 
L 316.913514 46.8816 
L 317.218182 58.4784 
L 317.52285 41.0832 
L 317.827518 46.1568 
L 318.132187 41.808 
L 318.436855 45.432 
L 319.046192 65.7264 
L 319.35086 43.2576 
L 319.655528 42.5328 
L 319.960197 54.1296 
L 320.264865 46.1568 
L 320.569533 57.7536 
L 320.874201 38.9088 
L 321.17887 42.5328 
L 321.788206 54.1296 
L 322.092875 51.9552 
L 322.397543 41.808 
L 322.702211 46.1568 
L 323.00688 53.4048 
L 323.311548 41.0832 
L 323.616216 41.0832 
L 323.920885 48.3312 
L 324.225553 46.8816 
L 324.530221 37.4592 
L 324.834889 41.808 
L 325.139558 43.9824 
L 325.444226 51.9552 
L 325.748894 44.7072 
L 326.053563 51.9552 
L 326.358231 55.5792 
L 326.662899 57.0288 
L 326.967568 44.7072 
L 327.272236 57.7536 
L 327.881572 43.9824 
L 328.186241 37.4592 
L 328.490909 52.68 
L 328.795577 54.1296 
L 329.100246 44.7072 
L 329.404914 46.8816 
L 329.709582 58.4784 
L 330.014251 50.5056 
L 330.318919 37.4592 
L 330.623587 41.0832 
L 330.928256 41.0832 
L 331.232924 45.432 
L 331.537592 43.2576 
L 331.84226 45.432 
L 332.146929 57.0288 
L 332.451597 47.6064 
L 332.756265 44.7072 
L 333.060934 46.1568 
L 333.365602 38.184 
L 333.67027 57.0288 
L 333.974939 51.9552 
L 334.279607 43.9824 
L 334.888943 53.4048 
L 335.193612 42.5328 
L 335.49828 51.2304 
L 335.802948 45.432 
L 336.107617 41.808 
L 336.412285 54.8544 
L 336.716953 42.5328 
L 337.021622 41.808 
L 337.32629 43.9824 
L 337.630958 43.9824 
L 337.935627 56.304 
L 338.544963 34.56 
L 338.849631 34.56 
L 339.458968 44.7072 
L 339.763636 44.7072 
L 340.068305 70.8 
L 340.372973 50.5056 
L 340.677641 46.8816 
L 340.98231 51.9552 
L 341.286978 39.6336 
L 341.591646 47.6064 
L 341.896314 51.9552 
L 342.200983 38.9088 
L 342.505651 45.432 
L 342.810319 46.1568 
L 343.114988 53.4048 
L 343.419656 50.5056 
L 343.724324 51.2304 
L 344.028993 53.4048 
L 344.333661 66.4512 
L 344.638329 57.0288 
L 344.942998 40.3584 
L 345.247666 56.304 
L 345.552334 41.0832 
L 345.857002 51.2304 
L 346.161671 43.9824 
L 346.466339 41.808 
L 346.771007 47.6064 
L 347.075676 41.0832 
L 347.380344 49.056 
L 347.685012 42.5328 
L 347.989681 45.432 
L 348.294349 43.2576 
L 348.599017 51.2304 
L 348.903686 43.9824 
L 349.208354 48.3312 
L 349.81769 36.7344 
L 350.122359 39.6336 
L 350.427027 51.2304 
L 350.731695 42.5328 
L 351.036364 50.5056 
L 351.341032 48.3312 
L 351.6457 41.808 
L 351.950369 47.6064 
L 352.559705 41.0832 
L 352.864373 46.1568 
L 353.169042 37.4592 
L 353.47371 41.0832 
L 354.083047 54.1296 
L 354.387715 55.5792 
L 354.692383 42.5328 
L 354.997052 51.9552 
L 355.30172 48.3312 
L 355.606388 38.9088 
L 355.911057 37.4592 
L 356.215725 53.4048 
L 356.520393 44.7072 
L 356.825061 47.6064 
L 357.12973 36.0096 
L 357.434398 57.0288 
L 357.739066 52.68 
L 358.043735 41.0832 
L 358.348403 46.8816 
L 358.653071 42.5328 
L 358.95774 46.1568 
L 359.262408 45.432 
L 359.567076 43.9824 
L 359.871744 49.7808 
L 360.176413 46.1568 
L 360.785749 56.304 
L 361.090418 43.9824 
L 361.395086 46.1568 
L 361.699754 46.8816 
L 362.004423 40.3584 
L 362.309091 48.3312 
L 362.613759 43.2576 
L 362.918428 57.0288 
L 363.223096 41.0832 
L 363.832432 47.6064 
L 364.137101 43.9824 
L 364.441769 38.9088 
L 365.051106 46.1568 
L 365.355774 49.7808 
L 365.660442 36.7344 
L 365.965111 56.304 
L 366.269779 41.0832 
L 366.574447 38.184 
L 366.879115 46.8816 
L 367.183784 59.2032 
L 367.488452 41.0832 
L 367.79312 46.1568 
L 368.097789 49.056 
L 368.402457 42.5328 
L 368.707125 51.9552 
L 369.011794 49.056 
L 369.316462 59.928 
L 369.62113 56.304 
L 369.925799 57.0288 
L 370.230467 58.4784 
L 370.535135 53.4048 
L 370.839803 55.5792 
L 371.144472 55.5792 
L 371.44914 46.8816 
L 371.753808 51.9552 
L 372.058477 46.1568 
L 372.363145 45.432 
L 372.667813 56.304 
L 372.972482 43.2576 
L 373.27715 39.6336 
L 373.581818 40.3584 
L 373.581818 40.3584 
" style="fill:none;stroke:#0000ff;stroke-linecap:square;stroke-width:1.5;"/>
   </g>
   <g id="patch_3">
    <path d="M 54 252 
L 54 34.56 
" style="fill:none;stroke:#000000;stroke-linecap:square;stroke-linejoin:miter;stroke-width:0.8;"/>
   </g>
   <g id="patch_4">
    <path d="M 388.8 252 
L 388.8 34.56 
" style="fill:none;stroke:#000000;stroke-linecap:square;stroke-linejoin:miter;stroke-width:0.8;"/>
   </g>
   <g id="patch_5">
    <path d="M 54 252 
L 388.8 252 
" style="fill:none;stroke:#000000;stroke-linecap:square;stroke-linejoin:miter;stroke-width:0.8;"/>
   </g>
   <g id="patch_6">
    <path d="M 54 34.56 
L 388.8 34.56 
" style="fill:none;stroke:#000000;stroke-linecap:square;stroke-linejoin:miter;stroke-width:0.8;"/>
   </g>
   <g id="legend_1">
    <g id="patch_7">
     <path d="M 283.735937 247 
L 381.8 247 
Q 383.8 247 383.8 245 
L 383.8 231.321875 
Q 383.8 229.321875 381.8 229.321875 
L 283.735937 229.321875 
Q 281.735937 229.321875 281.735937 231.321875 
L 281.735937 245 
Q 281.735937 247 283.735937 247 
z
" style="fill:#ffffff;opacity:0.8;stroke:#cccccc;stroke-linejoin:miter;"/>
    </g>
    <g id="line2d_15">
     <path d="M 285.735937 237.420312 
L 305.735937 237.420312 
" style="fill:none;stroke:#0000ff;stroke-linecap:square;stroke-width:1.5;"/>
    </g>
    <g id="line2d_16"/>
    <g id="text_14">
     <!-- Total Reward -->
     <defs>
      <path d="M -0.296875 72.90625 
L 61.375 72.90625 
L 61.375 64.59375 
L 35.5 64.59375 
L 35.5 0 
L 25.59375 0 
L 25.59375 64.59375 
L -0.296875 64.59375 
z
" id="DejaVuSans-54"/>
      <path d="M 30.609375 48.390625 
Q 23.390625 48.390625 19.1875 42.75 
Q 14.984375 37.109375 14.984375 27.296875 
Q 14.984375 17.484375 19.15625 11.84375 
Q 23.34375 6.203125 30.609375 6.203125 
Q 37.796875 6.203125 41.984375 11.859375 
Q 46.1875 17.53125 46.1875 27.296875 
Q 46.1875 37.015625 41.984375 42.703125 
Q 37.796875 48.390625 30.609375 48.390625 
z
M 30.609375 56 
Q 42.328125 56 49.015625 48.375 
Q 55.71875 40.765625 55.71875 27.296875 
Q 55.71875 13.875 49.015625 6.21875 
Q 42.328125 -1.421875 30.609375 -1.421875 
Q 18.84375 -1.421875 12.171875 6.21875 
Q 5.515625 13.875 5.515625 27.296875 
Q 5.515625 40.765625 12.171875 48.375 
Q 18.84375 56 30.609375 56 
z
" id="DejaVuSans-6f"/>
      <path d="M 18.3125 70.21875 
L 18.3125 54.6875 
L 36.8125 54.6875 
L 36.8125 47.703125 
L 18.3125 47.703125 
L 18.3125 18.015625 
Q 18.3125 11.328125 20.140625 9.421875 
Q 21.96875 7.515625 27.59375 7.515625 
L 36.8125 7.515625 
L 36.8125 0 
L 27.59375 0 
Q 17.1875 0 13.234375 3.875 
Q 9.28125 7.765625 9.28125 18.015625 
L 9.28125 47.703125 
L 2.6875 47.703125 
L 2.6875 54.6875 
L 9.28125 54.6875 
L 9.28125 70.21875 
z
" id="DejaVuSans-74"/>
      <path d="M 34.28125 27.484375 
Q 23.390625 27.484375 19.1875 25 
Q 14.984375 22.515625 14.984375 16.5 
Q 14.984375 11.71875 18.140625 8.90625 
Q 21.296875 6.109375 26.703125 6.109375 
Q 34.1875 6.109375 38.703125 11.40625 
Q 43.21875 16.703125 43.21875 25.484375 
L 43.21875 27.484375 
z
M 52.203125 31.203125 
L 52.203125 0 
L 43.21875 0 
L 43.21875 8.296875 
Q 40.140625 3.328125 35.546875 0.953125 
Q 30.953125 -1.421875 24.3125 -1.421875 
Q 15.921875 -1.421875 10.953125 3.296875 
Q 6 8.015625 6 15.921875 
Q 6 25.140625 12.171875 29.828125 
Q 18.359375 34.515625 30.609375 34.515625 
L 43.21875 34.515625 
L 43.21875 35.40625 
Q 43.21875 41.609375 39.140625 45 
Q 35.0625 48.390625 27.6875 48.390625 
Q 23 48.390625 18.546875 47.265625 
Q 14.109375 46.140625 10.015625 43.890625 
L 10.015625 52.203125 
Q 14.9375 54.109375 19.578125 55.046875 
Q 24.21875 56 28.609375 56 
Q 40.484375 56 46.34375 49.84375 
Q 52.203125 43.703125 52.203125 31.203125 
z
" id="DejaVuSans-61"/>
      <path d="M 9.421875 75.984375 
L 18.40625 75.984375 
L 18.40625 0 
L 9.421875 0 
z
" id="DejaVuSans-6c"/>
      <path id="DejaVuSans-20"/>
      <path d="M 44.390625 34.1875 
Q 47.5625 33.109375 50.5625 29.59375 
Q 53.5625 26.078125 56.59375 19.921875 
L 66.609375 0 
L 56 0 
L 46.6875 18.703125 
Q 43.0625 26.03125 39.671875 28.421875 
Q 36.28125 30.8125 30.421875 30.8125 
L 19.671875 30.8125 
L 19.671875 0 
L 9.8125 0 
L 9.8125 72.90625 
L 32.078125 72.90625 
Q 44.578125 72.90625 50.734375 67.671875 
Q 56.890625 62.453125 56.890625 51.90625 
Q 56.890625 45.015625 53.6875 40.46875 
Q 50.484375 35.9375 44.390625 34.1875 
z
M 19.671875 64.796875 
L 19.671875 38.921875 
L 32.078125 38.921875 
Q 39.203125 38.921875 42.84375 42.21875 
Q 46.484375 45.515625 46.484375 51.90625 
Q 46.484375 58.296875 42.84375 61.546875 
Q 39.203125 64.796875 32.078125 64.796875 
z
" id="DejaVuSans-52"/>
      <path d="M 56.203125 29.59375 
L 56.203125 25.203125 
L 14.890625 25.203125 
Q 15.484375 15.921875 20.484375 11.0625 
Q 25.484375 6.203125 34.421875 6.203125 
Q 39.59375 6.203125 44.453125 7.46875 
Q 49.3125 8.734375 54.109375 11.28125 
L 54.109375 2.78125 
Q 49.265625 0.734375 44.1875 -0.34375 
Q 39.109375 -1.421875 33.890625 -1.421875 
Q 20.796875 -1.421875 13.15625 6.1875 
Q 5.515625 13.8125 5.515625 26.8125 
Q 5.515625 40.234375 12.765625 48.109375 
Q 20.015625 56 32.328125 56 
Q 43.359375 56 49.78125 48.890625 
Q 56.203125 41.796875 56.203125 29.59375 
z
M 47.21875 32.234375 
Q 47.125 39.59375 43.09375 43.984375 
Q 39.0625 48.390625 32.421875 48.390625 
Q 24.90625 48.390625 20.390625 44.140625 
Q 15.875 39.890625 15.1875 32.171875 
z
" id="DejaVuSans-65"/>
      <path d="M 4.203125 54.6875 
L 13.1875 54.6875 
L 24.421875 12.015625 
L 35.59375 54.6875 
L 46.1875 54.6875 
L 57.421875 12.015625 
L 68.609375 54.6875 
L 77.59375 54.6875 
L 63.28125 0 
L 52.6875 0 
L 40.921875 44.828125 
L 29.109375 0 
L 18.5 0 
z
" id="DejaVuSans-77"/>
      <path d="M 41.109375 46.296875 
Q 39.59375 47.171875 37.8125 47.578125 
Q 36.03125 48 33.890625 48 
Q 26.265625 48 22.1875 43.046875 
Q 18.109375 38.09375 18.109375 28.8125 
L 18.109375 0 
L 9.078125 0 
L 9.078125 54.6875 
L 18.109375 54.6875 
L 18.109375 46.1875 
Q 20.953125 51.171875 25.484375 53.578125 
Q 30.03125 56 36.53125 56 
Q 37.453125 56 38.578125 55.875 
Q 39.703125 55.765625 41.0625 55.515625 
z
" id="DejaVuSans-72"/>
      <path d="M 45.40625 46.390625 
L 45.40625 75.984375 
L 54.390625 75.984375 
L 54.390625 0 
L 45.40625 0 
L 45.40625 8.203125 
Q 42.578125 3.328125 38.25 0.953125 
Q 33.9375 -1.421875 27.875 -1.421875 
Q 17.96875 -1.421875 11.734375 6.484375 
Q 5.515625 14.40625 5.515625 27.296875 
Q 5.515625 40.1875 11.734375 48.09375 
Q 17.96875 56 27.875 56 
Q 33.9375 56 38.25 53.625 
Q 42.578125 51.265625 45.40625 46.390625 
z
M 14.796875 27.296875 
Q 14.796875 17.390625 18.875 11.75 
Q 22.953125 6.109375 30.078125 6.109375 
Q 37.203125 6.109375 41.296875 11.75 
Q 45.40625 17.390625 45.40625 27.296875 
Q 45.40625 37.203125 41.296875 42.84375 
Q 37.203125 48.484375 30.078125 48.484375 
Q 22.953125 48.484375 18.875 42.84375 
Q 14.796875 37.203125 14.796875 27.296875 
z
" id="DejaVuSans-64"/>
     </defs>
     <g transform="translate(313.735937 240.920312)scale(0.1 -0.1)">
      <use xlink:href="#DejaVuSans-54"/>
      <use x="60.818359" xlink:href="#DejaVuSans-6f"/>
      <use x="122" xlink:href="#DejaVuSans-74"/>
      <use x="161.208984" xlink:href="#DejaVuSans-61"/>
      <use x="222.488281" xlink:href="#DejaVuSans-6c"/>
      <use x="250.271484" xlink:href="#DejaVuSans-20"/>
      <use x="282.058594" xlink:href="#DejaVuSans-52"/>
      <use x="351.478516" xlink:href="#DejaVuSans-65"/>
      <use x="413.001953" xlink:href="#DejaVuSans-77"/>
      <use x="494.789062" xlink:href="#DejaVuSans-61"/>
      <use x="556.068359" xlink:href="#DejaVuSans-72"/>
      <use x="597.166016" xlink:href="#DejaVuSans-64"/>
     </g>
    </g>
   </g>
  </g>
 </g>
 <defs>
  <clipPath id="p29ac24e9f3">
   <rect height="217.44" width="334.8" x="54" y="34.56"/>
  </clipPath>
 </defs>
</svg>
