<?xml version="1.0" encoding="utf-8" standalone="no"?>
<!DOCTYPE svg PUBLIC "-//W3C//DTD SVG 1.1//EN"
  "http://www.w3.org/Graphics/SVG/1.1/DTD/svg11.dtd">
<!-- Created with matplotlib (http://matplotlib.org/) -->
<svg height="288pt" version="1.1" viewBox="0 0 432 288" width="432pt" xmlns="http://www.w3.org/2000/svg" xmlns:xlink="http://www.w3.org/1999/xlink">
 <defs>
  <style type="text/css">
*{stroke-linecap:butt;stroke-linejoin:round;}
  </style>
 </defs>
 <g id="figure_1">
  <g id="patch_1">
   <path d="M 0 288 
L 432 288 
L 432 0 
L 0 0 
z
" style="fill:#ffffff;"/>
  </g>
  <g id="axes_1">
   <g id="patch_2">
    <path d="M 54 252 
L 388.8 252 
L 388.8 34.56 
L 54 34.56 
z
" style="fill:#ffffff;"/>
   </g>
   <g id="matplotlib.axis_1">
    <g id="xtick_1">
     <g id="line2d_1">
      <defs>
       <path d="M 0 0 
L 0 3.5 
" id="m9076db5328" style="stroke:#000000;stroke-width:0.8;"/>
      </defs>
      <g>
       <use style="stroke:#000000;stroke-width:0.8;" x="69.218182" xlink:href="#m9076db5328" y="252"/>
      </g>
     </g>
     <g id="text_1">
      <!-- 0 -->
      <defs>
       <path d="M 31.78125 66.40625 
Q 24.171875 66.40625 20.328125 58.90625 
Q 16.5 51.421875 16.5 36.375 
Q 16.5 21.390625 20.328125 13.890625 
Q 24.171875 6.390625 31.78125 6.390625 
Q 39.453125 6.390625 43.28125 13.890625 
Q 47.125 21.390625 47.125 36.375 
Q 47.125 51.421875 43.28125 58.90625 
Q 39.453125 66.40625 31.78125 66.40625 
z
M 31.78125 74.21875 
Q 44.046875 74.21875 50.515625 64.515625 
Q 56.984375 54.828125 56.984375 36.375 
Q 56.984375 17.96875 50.515625 8.265625 
Q 44.046875 -1.421875 31.78125 -1.421875 
Q 19.53125 -1.421875 13.0625 8.265625 
Q 6.59375 17.96875 6.59375 36.375 
Q 6.59375 54.828125 13.0625 64.515625 
Q 19.53125 74.21875 31.78125 74.21875 
z
" id="DejaVuSans-30"/>
      </defs>
      <g transform="translate(66.036932 266.598437)scale(0.1 -0.1)">
       <use xlink:href="#DejaVuSans-30"/>
      </g>
     </g>
    </g>
    <g id="xtick_2">
     <g id="line2d_2">
      <g>
       <use style="stroke:#000000;stroke-width:0.8;" x="130.151843" xlink:href="#m9076db5328" y="252"/>
      </g>
     </g>
     <g id="text_2">
      <!-- 200 -->
      <defs>
       <path d="M 19.1875 8.296875 
L 53.609375 8.296875 
L 53.609375 0 
L 7.328125 0 
L 7.328125 8.296875 
Q 12.9375 14.109375 22.625 23.890625 
Q 32.328125 33.6875 34.8125 36.53125 
Q 39.546875 41.84375 41.421875 45.53125 
Q 43.3125 49.21875 43.3125 52.78125 
Q 43.3125 58.59375 39.234375 62.25 
Q 35.15625 65.921875 28.609375 65.921875 
Q 23.96875 65.921875 18.8125 64.3125 
Q 13.671875 62.703125 7.8125 59.421875 
L 7.8125 69.390625 
Q 13.765625 71.78125 18.9375 73 
Q 24.125 74.21875 28.421875 74.21875 
Q 39.75 74.21875 46.484375 68.546875 
Q 53.21875 62.890625 53.21875 53.421875 
Q 53.21875 48.921875 51.53125 44.890625 
Q 49.859375 40.875 45.40625 35.40625 
Q 44.1875 33.984375 37.640625 27.21875 
Q 31.109375 20.453125 19.1875 8.296875 
z
" id="DejaVuSans-32"/>
      </defs>
      <g transform="translate(120.608093 266.598437)scale(0.1 -0.1)">
       <use xlink:href="#DejaVuSans-32"/>
       <use x="63.623047" xlink:href="#DejaVuSans-30"/>
       <use x="127.246094" xlink:href="#DejaVuSans-30"/>
      </g>
     </g>
    </g>
    <g id="xtick_3">
     <g id="line2d_3">
      <g>
       <use style="stroke:#000000;stroke-width:0.8;" x="191.085504" xlink:href="#m9076db5328" y="252"/>
      </g>
     </g>
     <g id="text_3">
      <!-- 400 -->
      <defs>
       <path d="M 37.796875 64.3125 
L 12.890625 25.390625 
L 37.796875 25.390625 
z
M 35.203125 72.90625 
L 47.609375 72.90625 
L 47.609375 25.390625 
L 58.015625 25.390625 
L 58.015625 17.1875 
L 47.609375 17.1875 
L 47.609375 0 
L 37.796875 0 
L 37.796875 17.1875 
L 4.890625 17.1875 
L 4.890625 26.703125 
z
" id="DejaVuSans-34"/>
      </defs>
      <g transform="translate(181.541754 266.598437)scale(0.1 -0.1)">
       <use xlink:href="#DejaVuSans-34"/>
       <use x="63.623047" xlink:href="#DejaVuSans-30"/>
       <use x="127.246094" xlink:href="#DejaVuSans-30"/>
      </g>
     </g>
    </g>
    <g id="xtick_4">
     <g id="line2d_4">
      <g>
       <use style="stroke:#000000;stroke-width:0.8;" x="252.019165" xlink:href="#m9076db5328" y="252"/>
      </g>
     </g>
     <g id="text_4">
      <!-- 600 -->
      <defs>
       <path d="M 33.015625 40.375 
Q 26.375 40.375 22.484375 35.828125 
Q 18.609375 31.296875 18.609375 23.390625 
Q 18.609375 15.53125 22.484375 10.953125 
Q 26.375 6.390625 33.015625 6.390625 
Q 39.65625 6.390625 43.53125 10.953125 
Q 47.40625 15.53125 47.40625 23.390625 
Q 47.40625 31.296875 43.53125 35.828125 
Q 39.65625 40.375 33.015625 40.375 
z
M 52.59375 71.296875 
L 52.59375 62.3125 
Q 48.875 64.0625 45.09375 64.984375 
Q 41.3125 65.921875 37.59375 65.921875 
Q 27.828125 65.921875 22.671875 59.328125 
Q 17.53125 52.734375 16.796875 39.40625 
Q 19.671875 43.65625 24.015625 45.921875 
Q 28.375 48.1875 33.59375 48.1875 
Q 44.578125 48.1875 50.953125 41.515625 
Q 57.328125 34.859375 57.328125 23.390625 
Q 57.328125 12.15625 50.6875 5.359375 
Q 44.046875 -1.421875 33.015625 -1.421875 
Q 20.359375 -1.421875 13.671875 8.265625 
Q 6.984375 17.96875 6.984375 36.375 
Q 6.984375 53.65625 15.1875 63.9375 
Q 23.390625 74.21875 37.203125 74.21875 
Q 40.921875 74.21875 44.703125 73.484375 
Q 48.484375 72.75 52.59375 71.296875 
z
" id="DejaVuSans-36"/>
      </defs>
      <g transform="translate(242.475415 266.598437)scale(0.1 -0.1)">
       <use xlink:href="#DejaVuSans-36"/>
       <use x="63.623047" xlink:href="#DejaVuSans-30"/>
       <use x="127.246094" xlink:href="#DejaVuSans-30"/>
      </g>
     </g>
    </g>
    <g id="xtick_5">
     <g id="line2d_5">
      <g>
       <use style="stroke:#000000;stroke-width:0.8;" x="312.952826" xlink:href="#m9076db5328" y="252"/>
      </g>
     </g>
     <g id="text_5">
      <!-- 800 -->
      <defs>
       <path d="M 31.78125 34.625 
Q 24.75 34.625 20.71875 30.859375 
Q 16.703125 27.09375 16.703125 20.515625 
Q 16.703125 13.921875 20.71875 10.15625 
Q 24.75 6.390625 31.78125 6.390625 
Q 38.8125 6.390625 42.859375 10.171875 
Q 46.921875 13.96875 46.921875 20.515625 
Q 46.921875 27.09375 42.890625 30.859375 
Q 38.875 34.625 31.78125 34.625 
z
M 21.921875 38.8125 
Q 15.578125 40.375 12.03125 44.71875 
Q 8.5 49.078125 8.5 55.328125 
Q 8.5 64.0625 14.71875 69.140625 
Q 20.953125 74.21875 31.78125 74.21875 
Q 42.671875 74.21875 48.875 69.140625 
Q 55.078125 64.0625 55.078125 55.328125 
Q 55.078125 49.078125 51.53125 44.71875 
Q 48 40.375 41.703125 38.8125 
Q 48.828125 37.15625 52.796875 32.3125 
Q 56.78125 27.484375 56.78125 20.515625 
Q 56.78125 9.90625 50.3125 4.234375 
Q 43.84375 -1.421875 31.78125 -1.421875 
Q 19.734375 -1.421875 13.25 4.234375 
Q 6.78125 9.90625 6.78125 20.515625 
Q 6.78125 27.484375 10.78125 32.3125 
Q 14.796875 37.15625 21.921875 38.8125 
z
M 18.3125 54.390625 
Q 18.3125 48.734375 21.84375 45.5625 
Q 25.390625 42.390625 31.78125 42.390625 
Q 38.140625 42.390625 41.71875 45.5625 
Q 45.3125 48.734375 45.3125 54.390625 
Q 45.3125 60.0625 41.71875 63.234375 
Q 38.140625 66.40625 31.78125 66.40625 
Q 25.390625 66.40625 21.84375 63.234375 
Q 18.3125 60.0625 18.3125 54.390625 
z
" id="DejaVuSans-38"/>
      </defs>
      <g transform="translate(303.409076 266.598437)scale(0.1 -0.1)">
       <use xlink:href="#DejaVuSans-38"/>
       <use x="63.623047" xlink:href="#DejaVuSans-30"/>
       <use x="127.246094" xlink:href="#DejaVuSans-30"/>
      </g>
     </g>
    </g>
    <g id="xtick_6">
     <g id="line2d_6">
      <g>
       <use style="stroke:#000000;stroke-width:0.8;" x="373.886486" xlink:href="#m9076db5328" y="252"/>
      </g>
     </g>
     <g id="text_6">
      <!-- 1000 -->
      <defs>
       <path d="M 12.40625 8.296875 
L 28.515625 8.296875 
L 28.515625 63.921875 
L 10.984375 60.40625 
L 10.984375 69.390625 
L 28.421875 72.90625 
L 38.28125 72.90625 
L 38.28125 8.296875 
L 54.390625 8.296875 
L 54.390625 0 
L 12.40625 0 
z
" id="DejaVuSans-31"/>
      </defs>
      <g transform="translate(361.161486 266.598437)scale(0.1 -0.1)">
       <use xlink:href="#DejaVuSans-31"/>
       <use x="63.623047" xlink:href="#DejaVuSans-30"/>
       <use x="127.246094" xlink:href="#DejaVuSans-30"/>
       <use x="190.869141" xlink:href="#DejaVuSans-30"/>
      </g>
     </g>
    </g>
   </g>
   <g id="matplotlib.axis_2">
    <g id="ytick_1">
     <g id="line2d_7">
      <defs>
       <path d="M 0 0 
L -3.5 0 
" id="mfa11f890d5" style="stroke:#000000;stroke-width:0.8;"/>
      </defs>
      <g>
       <use style="stroke:#000000;stroke-width:0.8;" x="54" xlink:href="#mfa11f890d5" y="242.037656"/>
      </g>
     </g>
     <g id="text_7">
      <!-- 0 -->
      <g transform="translate(40.6375 245.836875)scale(0.1 -0.1)">
       <use xlink:href="#DejaVuSans-30"/>
      </g>
     </g>
    </g>
    <g id="ytick_2">
     <g id="line2d_8">
      <g>
       <use style="stroke:#000000;stroke-width:0.8;" x="54" xlink:href="#mfa11f890d5" y="194.704783"/>
      </g>
     </g>
     <g id="text_8">
      <!-- 200 -->
      <g transform="translate(27.9125 198.504001)scale(0.1 -0.1)">
       <use xlink:href="#DejaVuSans-32"/>
       <use x="63.623047" xlink:href="#DejaVuSans-30"/>
       <use x="127.246094" xlink:href="#DejaVuSans-30"/>
      </g>
     </g>
    </g>
    <g id="ytick_3">
     <g id="line2d_9">
      <g>
       <use style="stroke:#000000;stroke-width:0.8;" x="54" xlink:href="#mfa11f890d5" y="147.371909"/>
      </g>
     </g>
     <g id="text_9">
      <!-- 400 -->
      <g transform="translate(27.9125 151.171127)scale(0.1 -0.1)">
       <use xlink:href="#DejaVuSans-34"/>
       <use x="63.623047" xlink:href="#DejaVuSans-30"/>
       <use x="127.246094" xlink:href="#DejaVuSans-30"/>
      </g>
     </g>
    </g>
    <g id="ytick_4">
     <g id="line2d_10">
      <g>
       <use style="stroke:#000000;stroke-width:0.8;" x="54" xlink:href="#mfa11f890d5" y="100.039035"/>
      </g>
     </g>
     <g id="text_10">
      <!-- 600 -->
      <g transform="translate(27.9125 103.838254)scale(0.1 -0.1)">
       <use xlink:href="#DejaVuSans-36"/>
       <use x="63.623047" xlink:href="#DejaVuSans-30"/>
       <use x="127.246094" xlink:href="#DejaVuSans-30"/>
      </g>
     </g>
    </g>
    <g id="ytick_5">
     <g id="line2d_11">
      <g>
       <use style="stroke:#000000;stroke-width:0.8;" x="54" xlink:href="#mfa11f890d5" y="52.706161"/>
      </g>
     </g>
     <g id="text_11">
      <!-- 800 -->
      <g transform="translate(27.9125 56.50538)scale(0.1 -0.1)">
       <use xlink:href="#DejaVuSans-38"/>
       <use x="63.623047" xlink:href="#DejaVuSans-30"/>
       <use x="127.246094" xlink:href="#DejaVuSans-30"/>
      </g>
     </g>
    </g>
   </g>
   <g id="line2d_12">
    <path clip-path="url(#p063bbc4f38)" d="M 69.218182 242.037656 
L 69.52285 242.008779 
L 69.827518 241.776745 
L 70.132187 241.905975 
L 70.436855 241.899212 
L 70.741523 242.037708 
L 73.483538 242.037762 
L 73.788206 241.830899 
L 74.092875 242.037863 
L 74.397543 241.898093 
L 74.702211 242.037786 
L 75.616216 242.038019 
L 75.920885 241.69158 
L 76.530221 242.038223 
L 79.576904 242.037993 
L 79.881572 241.901892 
L 80.186241 242.03806 
L 81.404914 242.038317 
L 81.709582 241.708714 
L 82.014251 241.604677 
L 82.318919 241.923882 
L 82.623587 242.03824 
L 82.928256 241.89877 
L 83.232924 242.038279 
L 83.84226 242.038651 
L 84.146929 241.905562 
L 84.451597 242.038246 
L 84.756265 241.878691 
L 85.060934 242.038528 
L 85.365602 241.54385 
L 85.67027 242.038362 
L 85.974939 241.574354 
L 86.279607 242.039174 
L 86.888943 242.038707 
L 87.49828 241.762398 
L 88.107617 242.038512 
L 88.412285 241.499059 
L 88.716953 242.03873 
L 89.021622 241.556691 
L 89.32629 241.732316 
L 89.935627 241.169342 
L 90.240295 242.039035 
L 90.544963 241.317974 
L 90.849631 240.980688 
L 91.1543 241.149937 
L 91.458968 242.039302 
L 91.763636 241.730333 
L 92.068305 241.081988 
L 92.372973 242.023808 
L 92.677641 241.290616 
L 92.98231 240.863695 
L 93.286978 241.844066 
L 93.591646 240.855895 
L 93.896314 241.219206 
L 94.200983 240.607505 
L 94.505651 241.379292 
L 94.810319 240.914212 
L 95.114988 240.767046 
L 95.724324 240.086673 
L 96.333661 242.04101 
L 96.638329 240.313072 
L 96.942998 240.959154 
L 97.247666 239.709368 
L 98.161671 240.851203 
L 98.466339 241.04798 
L 98.771007 240.775883 
L 99.075676 241.121645 
L 99.380344 240.709146 
L 99.685012 241.245873 
L 99.989681 239.399183 
L 100.294349 239.633376 
L 100.599017 238.276155 
L 100.903686 240.839273 
L 101.208354 240.336744 
L 101.513022 238.906538 
L 102.122359 240.567795 
L 102.427027 240.6573 
L 102.731695 241.36325 
L 103.036364 240.77952 
L 103.6457 241.240252 
L 103.950369 240.436029 
L 104.255037 240.348513 
L 104.559705 240.08009 
L 104.864373 240.33931 
L 105.47371 238.606811 
L 105.778378 238.53734 
L 106.083047 240.544295 
L 106.387715 240.298622 
L 106.692383 239.498459 
L 107.30172 241.366625 
L 107.606388 241.027012 
L 107.911057 242.061096 
L 108.215725 241.813659 
L 108.520393 241.415242 
L 108.825061 239.356879 
L 109.12973 239.762565 
L 109.434398 238.715176 
L 109.739066 238.334297 
L 110.043735 237.694033 
L 110.348403 239.574857 
L 110.653071 239.659033 
L 110.95774 238.400702 
L 111.262408 240.775191 
L 111.567076 239.75671 
L 111.871744 241.17014 
L 112.481081 237.838272 
L 112.785749 238.78342 
L 113.090418 242.070706 
L 113.395086 238.109294 
L 113.699754 240.187282 
L 114.004423 238.762415 
L 114.309091 238.513251 
L 114.613759 237.801469 
L 114.918428 239.822779 
L 115.223096 238.661953 
L 115.527764 238.724781 
L 115.832432 239.091953 
L 116.137101 238.507091 
L 116.441769 238.462347 
L 116.746437 240.218608 
L 117.051106 239.303694 
L 117.355774 239.052298 
L 117.660442 237.653752 
L 117.965111 239.216667 
L 118.269779 238.95118 
L 118.574447 238.169191 
L 119.183784 239.787468 
L 119.488452 239.066853 
L 120.097789 238.380229 
L 120.402457 237.153615 
L 120.707125 238.13381 
L 121.011794 237.306439 
L 121.316462 237.583003 
L 121.62113 237.325138 
L 121.925799 238.013048 
L 122.230467 237.341149 
L 122.535135 239.658794 
L 122.839803 240.563098 
L 123.144472 239.401483 
L 123.44914 239.787637 
L 123.753808 240.843908 
L 124.058477 240.621642 
L 124.363145 240.97179 
L 124.667813 240.929931 
L 124.972482 241.133575 
L 125.27715 241.079252 
L 125.886486 241.462252 
L 126.495823 240.828779 
L 126.800491 241.728185 
L 127.409828 241.258699 
L 128.019165 241.239104 
L 128.323833 240.663801 
L 128.628501 240.573832 
L 128.93317 241.624571 
L 129.237838 241.830861 
L 129.542506 241.280039 
L 129.847174 241.206516 
L 130.151843 241.518043 
L 130.456511 241.429933 
L 130.761179 240.634135 
L 131.065848 240.29846 
L 131.370516 241.582398 
L 131.675184 241.584506 
L 131.979853 241.421549 
L 132.284521 241.099872 
L 132.589189 241.32899 
L 132.893857 240.253357 
L 133.198526 241.133203 
L 133.503194 240.571891 
L 133.807862 240.948648 
L 134.112531 240.698239 
L 134.417199 241.345974 
L 134.721867 241.124363 
L 135.026536 241.043482 
L 135.635872 238.93813 
L 135.940541 237.975417 
L 136.245209 240.524506 
L 136.549877 239.866554 
L 137.159214 239.91332 
L 137.463882 239.427344 
L 137.76855 240.889547 
L 138.377887 241.541731 
L 138.682555 240.895516 
L 139.291892 238.668754 
L 139.59656 240.142034 
L 139.901229 240.407746 
L 140.205897 239.623427 
L 140.510565 240.066885 
L 140.815233 239.359371 
L 141.119902 240.31405 
L 141.42457 238.435907 
L 141.729238 239.192206 
L 142.033907 238.955711 
L 142.338575 239.820499 
L 142.947912 240.419732 
L 143.25258 240.333345 
L 143.861916 240.472807 
L 144.166585 240.864149 
L 144.471253 240.612216 
L 144.775921 241.003835 
L 145.08059 241.643314 
L 145.385258 241.984903 
L 145.689926 240.30875 
L 145.994595 240.996223 
L 146.299263 241.331634 
L 146.603931 241.067154 
L 146.9086 241.491935 
L 147.213268 241.046261 
L 147.822604 241.255673 
L 148.127273 241.013474 
L 148.736609 240.130597 
L 149.041278 240.872278 
L 149.345946 240.832701 
L 149.650614 241.205314 
L 150.259951 240.117091 
L 150.564619 239.380609 
L 150.869287 240.209581 
L 151.478624 241.027208 
L 151.783292 241.115691 
L 152.087961 241.703054 
L 152.392629 240.853965 
L 152.697297 240.680396 
L 153.001966 241.969879 
L 153.306634 241.627674 
L 153.611302 240.95467 
L 153.915971 240.902707 
L 154.220639 241.595296 
L 154.525307 240.798973 
L 154.829975 241.01435 
L 155.134644 240.428039 
L 155.439312 240.855539 
L 155.74398 240.904668 
L 156.048649 241.332197 
L 156.353317 240.688331 
L 156.657985 240.863621 
L 157.267322 239.966374 
L 157.57199 239.282877 
L 157.876658 239.574111 
L 158.181327 238.993751 
L 158.485995 238.690151 
L 158.790663 239.332852 
L 159.095332 239.172155 
L 159.4 239.876366 
L 160.009337 238.133098 
L 160.314005 239.382806 
L 160.618673 238.449719 
L 160.923342 240.073491 
L 161.22801 240.094549 
L 161.532678 240.002716 
L 161.837346 240.353371 
L 162.446683 238.945513 
L 162.751351 239.755468 
L 163.05602 239.97553 
L 163.360688 239.828116 
L 163.665356 240.623619 
L 163.970025 239.968134 
L 164.274693 239.609565 
L 164.579361 239.522409 
L 165.188698 241.308042 
L 165.493366 240.86946 
L 165.798034 240.673837 
L 166.102703 240.792694 
L 166.407371 241.12653 
L 166.712039 240.425675 
L 167.321376 240.626721 
L 167.626044 240.690767 
L 167.930713 240.876542 
L 168.235381 240.927487 
L 168.844717 241.571333 
L 169.149386 241.26653 
L 169.454054 241.203647 
L 170.672727 240.440595 
L 170.977396 240.322407 
L 171.282064 240.500571 
L 171.586732 240.224665 
L 171.8914 239.270805 
L 172.500737 241.50169 
L 172.805405 240.956711 
L 173.414742 240.822646 
L 173.71941 240.503032 
L 174.024079 240.78325 
L 174.328747 240.752737 
L 174.633415 240.514102 
L 174.938084 241.356568 
L 175.242752 241.382004 
L 175.54742 241.06606 
L 176.461425 241.457234 
L 176.766093 241.163037 
L 177.070762 241.745513 
L 177.680098 241.682306 
L 177.984767 241.832834 
L 178.289435 241.747003 
L 178.594103 241.518355 
L 178.898771 241.551972 
L 179.20344 241.72623 
L 179.812776 241.250101 
L 180.117445 241.322718 
L 180.422113 241.258936 
L 180.726781 240.722628 
L 181.03145 241.235078 
L 181.336118 241.026983 
L 181.945455 241.084267 
L 182.250123 240.443423 
L 182.554791 240.693207 
L 183.164128 241.571927 
L 183.468796 241.810947 
L 183.773464 241.607927 
L 184.382801 241.651937 
L 184.687469 241.053159 
L 184.992138 241.366492 
L 185.296806 241.168944 
L 186.210811 241.236457 
L 186.515479 240.864393 
L 186.820147 241.569407 
L 187.124816 240.78409 
L 187.429484 240.95929 
L 188.038821 240.537208 
L 188.343489 240.832159 
L 188.648157 240.867393 
L 188.952826 241.313447 
L 189.257494 240.854872 
L 189.562162 241.049099 
L 189.86683 241.723535 
L 190.476167 241.412658 
L 190.780835 240.615871 
L 191.085504 241.238987 
L 191.390172 240.90246 
L 191.69484 241.584979 
L 191.999509 241.296271 
L 192.304177 241.659454 
L 192.608845 241.547906 
L 192.913514 241.192886 
L 193.218182 241.288368 
L 193.52285 241.228435 
L 193.827518 241.360555 
L 194.132187 241.216144 
L 194.436855 241.397564 
L 194.741523 241.078188 
L 195.046192 241.360095 
L 196.264865 241.388728 
L 196.569533 241.603365 
L 196.874201 241.341691 
L 197.17887 241.873328 
L 197.788206 241.645281 
L 198.092875 242.014931 
L 198.397543 241.43025 
L 198.702211 241.255994 
L 199.00688 241.700302 
L 199.920885 241.83798 
L 200.225553 241.34104 
L 200.530221 241.8676 
L 201.139558 241.74491 
L 201.444226 241.847106 
L 201.748894 241.662487 
L 202.053563 241.850093 
L 202.358231 241.546048 
L 202.662899 241.462543 
L 202.967568 241.674299 
L 203.576904 241.815123 
L 203.881572 241.929116 
L 204.186241 241.228019 
L 204.490909 241.782909 
L 205.100246 241.881022 
L 205.404914 241.857374 
L 205.709582 241.133719 
L 206.014251 241.891137 
L 206.318919 241.695507 
L 206.623587 241.861629 
L 206.928256 241.752431 
L 207.232924 241.873897 
L 207.84226 241.820535 
L 208.146929 241.722505 
L 208.451597 241.85742 
L 208.756265 241.600824 
L 209.060934 241.689377 
L 209.365602 241.524552 
L 209.67027 241.537697 
L 209.974939 241.311229 
L 210.279607 241.665762 
L 210.888943 241.808112 
L 211.193612 241.652835 
L 211.49828 241.655808 
L 211.802948 241.86676 
L 212.107617 241.754654 
L 212.412285 241.869066 
L 212.716953 241.836573 
L 213.021622 241.630888 
L 213.630958 241.824494 
L 213.935627 241.692753 
L 214.240295 241.22227 
L 214.544963 241.813079 
L 215.458968 241.629734 
L 215.763636 241.312374 
L 216.068305 241.950547 
L 216.677641 241.145947 
L 216.98231 241.304548 
L 217.286978 240.802435 
L 217.591646 241.103266 
L 217.896314 240.973977 
L 218.200983 241.433123 
L 219.419656 239.950109 
L 219.724324 240.96137 
L 220.028993 241.314847 
L 220.333661 241.128995 
L 220.638329 241.142089 
L 220.942998 241.527039 
L 221.247666 240.724656 
L 221.552334 241.022149 
L 222.161671 240.399262 
L 222.466339 240.937195 
L 223.380344 241.370705 
L 223.685012 241.815726 
L 224.294349 241.167588 
L 224.599017 241.34244 
L 225.208354 240.930554 
L 225.513022 241.373397 
L 225.81769 241.387014 
L 226.122359 241.719372 
L 226.427027 241.522773 
L 226.731695 241.787855 
L 227.036364 241.43501 
L 227.6457 241.69578 
L 228.255037 241.522019 
L 228.864373 241.612324 
L 229.47371 241.376903 
L 229.778378 241.782958 
L 230.083047 241.527596 
L 230.387715 241.865118 
L 230.692383 241.532379 
L 231.30172 241.328731 
L 231.606388 241.738039 
L 232.520393 241.860824 
L 232.825061 241.570473 
L 233.434398 241.686531 
L 234.043735 241.740288 
L 234.348403 241.629817 
L 234.653071 241.643381 
L 234.95774 241.813751 
L 235.262408 241.652689 
L 236.481081 241.635008 
L 236.785749 241.294425 
L 237.395086 241.557696 
L 237.699754 241.890983 
L 238.004423 241.52443 
L 238.309091 241.686139 
L 238.918428 241.558437 
L 239.527764 241.662548 
L 239.832432 241.507943 
L 240.137101 241.79019 
L 240.441769 241.527394 
L 241.051106 241.555148 
L 241.355774 241.74642 
L 241.660442 241.228695 
L 241.965111 241.800989 
L 243.183784 241.618589 
L 243.488452 241.876195 
L 243.79312 241.665992 
L 244.097789 241.745645 
L 244.402457 241.554784 
L 244.707125 241.790948 
L 245.316462 241.784467 
L 245.62113 241.52783 
L 246.230467 241.449335 
L 246.535135 241.72386 
L 247.753808 241.911851 
L 248.058477 241.613161 
L 248.363145 241.554248 
L 248.667813 241.307808 
L 249.886486 241.555097 
L 250.191155 241.196762 
L 251.10516 240.875634 
L 251.409828 240.4439 
L 251.714496 240.70032 
L 252.019165 241.633328 
L 252.628501 241.797562 
L 252.93317 241.412388 
L 253.237838 241.69749 
L 253.542506 241.634422 
L 253.847174 241.934584 
L 255.370516 241.169389 
L 255.675184 241.679338 
L 255.979853 241.56769 
L 256.284521 241.325702 
L 256.893857 241.470925 
L 257.198526 241.443405 
L 257.807862 241.91087 
L 258.112531 241.538324 
L 259.026536 241.86299 
L 259.331204 241.538375 
L 259.635872 241.376379 
L 259.940541 241.576823 
L 260.245209 242.092766 
L 260.549877 241.495538 
L 260.854545 241.19671 
L 261.159214 241.64203 
L 261.463882 241.584115 
L 261.76855 241.644504 
L 262.073219 241.851264 
L 262.377887 241.652581 
L 262.682555 241.931472 
L 262.987224 241.46313 
L 263.59656 241.609363 
L 263.901229 241.490328 
L 264.205897 241.838832 
L 264.510565 241.455357 
L 264.815233 241.403169 
L 265.119902 241.910886 
L 265.42457 241.632594 
L 265.729238 241.823137 
L 266.033907 241.424803 
L 266.338575 241.604069 
L 266.643243 241.648388 
L 266.947912 241.52336 
L 267.25258 241.722595 
L 267.557248 241.430039 
L 267.861916 241.748046 
L 268.471253 241.498103 
L 268.775921 241.524899 
L 269.385258 241.7516 
L 269.689926 241.453703 
L 269.994595 241.464817 
L 270.299263 241.69785 
L 270.603931 241.691932 
L 270.9086 241.315523 
L 271.213268 241.63811 
L 271.517936 241.577266 
L 272.127273 241.954611 
L 272.431941 241.674042 
L 272.736609 241.618722 
L 273.041278 241.41239 
L 273.650614 241.700963 
L 273.955283 241.455057 
L 274.259951 241.353774 
L 275.173956 241.76848 
L 275.783292 241.355479 
L 276.087961 241.741547 
L 276.392629 241.568522 
L 277.001966 241.524486 
L 277.306634 241.322755 
L 277.611302 241.327066 
L 277.915971 240.754451 
L 278.220639 240.860871 
L 278.525307 240.842632 
L 278.829975 240.638714 
L 279.134644 240.761468 
L 279.439312 241.388323 
L 279.74398 241.213872 
L 280.353317 241.590486 
L 280.657985 241.431706 
L 280.962654 241.745904 
L 281.57199 241.555038 
L 281.876658 241.890628 
L 282.181327 241.645795 
L 282.485995 241.679436 
L 282.790663 241.536533 
L 283.4 241.588563 
L 283.704668 241.766277 
L 284.009337 241.564813 
L 284.314005 241.789846 
L 284.618673 241.823059 
L 285.532678 241.409668 
L 285.837346 241.280725 
L 286.142015 241.631839 
L 286.446683 241.575063 
L 286.751351 241.262438 
L 287.05602 241.26315 
L 287.360688 241.519637 
L 287.665356 241.155001 
L 288.579361 241.578139 
L 288.884029 241.109647 
L 289.188698 241.28271 
L 289.493366 241.325471 
L 290.102703 241.805508 
L 290.407371 241.413084 
L 290.712039 241.501675 
L 291.016708 241.385849 
L 291.321376 241.650858 
L 291.626044 241.637622 
L 291.930713 241.935357 
L 292.235381 241.779519 
L 292.540049 241.938994 
L 293.149386 241.75736 
L 293.454054 241.748905 
L 293.758722 241.599173 
L 294.977396 241.731 
L 295.282064 241.639694 
L 295.586732 241.781597 
L 295.8914 241.590708 
L 296.196069 241.87066 
L 296.500737 241.77197 
L 297.71941 241.769833 
L 298.328747 241.701164 
L 298.633415 241.98547 
L 298.938084 241.960896 
L 299.242752 241.610791 
L 299.54742 241.629577 
L 299.852088 241.801319 
L 300.156757 241.699845 
L 300.461425 241.882097 
L 301.37543 241.913498 
L 301.680098 241.809056 
L 302.289435 242.077196 
L 302.594103 241.817531 
L 302.898771 242.056331 
L 303.20344 241.825011 
L 303.508108 241.989788 
L 304.117445 241.769927 
L 304.422113 241.939475 
L 304.726781 241.800757 
L 305.03145 241.816704 
L 305.640786 241.671083 
L 305.945455 241.857825 
L 306.250123 241.747744 
L 306.554791 241.842877 
L 306.859459 241.740592 
L 307.468796 241.93169 
L 308.078133 241.826172 
L 308.382801 241.967336 
L 308.687469 241.980217 
L 308.992138 241.814132 
L 309.296806 241.910713 
L 309.601474 241.606972 
L 309.906143 241.918343 
L 310.210811 241.976684 
L 310.515479 241.75601 
L 311.429484 241.937237 
L 311.734152 241.800552 
L 312.038821 241.934671 
L 312.648157 241.776988 
L 312.952826 241.952789 
L 313.257494 241.592612 
L 313.562162 241.595631 
L 313.86683 241.916786 
L 314.171499 241.671972 
L 314.476167 241.980136 
L 315.085504 241.861973 
L 315.390172 241.974873 
L 315.69484 241.511334 
L 315.999509 241.95452 
L 316.304177 241.800149 
L 316.913514 241.786547 
L 317.218182 241.678353 
L 317.52285 241.961541 
L 317.827518 241.778315 
L 318.132187 241.78832 
L 318.436855 241.951056 
L 318.741523 241.65956 
L 319.35086 241.755909 
L 319.655528 241.895475 
L 320.264865 241.791612 
L 321.483538 241.831183 
L 322.092875 241.607628 
L 322.702211 241.852974 
L 323.00688 241.557022 
L 323.311548 241.89093 
L 323.616216 241.873588 
L 323.920885 241.656959 
L 324.225553 241.689956 
L 324.530221 242.043834 
L 324.834889 241.825609 
L 325.139558 241.799072 
L 325.444226 241.563537 
L 325.748894 241.815617 
L 326.967568 241.857767 
L 327.272236 241.607248 
L 327.576904 241.877791 
L 328.186241 241.985666 
L 328.795577 241.71703 
L 329.100246 241.754052 
L 329.404914 241.927797 
L 330.014251 241.612532 
L 330.318919 241.982042 
L 330.623587 241.994061 
L 330.928256 241.783071 
L 331.232924 241.870568 
L 331.537592 241.80435 
L 331.84226 241.915832 
L 332.756265 241.728338 
L 333.365602 241.99154 
L 333.67027 241.961955 
L 333.974939 241.605165 
L 334.279607 241.93476 
L 335.49828 241.57407 
L 335.802948 241.720669 
L 336.107617 241.9987 
L 336.412285 241.846896 
L 336.716953 241.824553 
L 337.021622 241.967584 
L 337.32629 241.88647 
L 337.935627 241.876399 
L 338.240295 241.82367 
L 338.544963 242.027128 
L 338.849631 242.028158 
L 339.458968 241.810338 
L 340.068305 241.79422 
L 340.372973 241.698306 
L 341.286978 241.971346 
L 341.591646 241.838188 
L 342.200983 242.003943 
L 342.810319 241.801292 
L 343.114988 241.929496 
L 343.419656 241.766226 
L 343.724324 241.917665 
L 344.028993 241.782033 
L 344.333661 242.055695 
L 344.638329 241.842808 
L 346.466339 241.914998 
L 346.771007 241.754976 
L 347.075676 241.956786 
L 347.380344 241.734978 
L 347.989681 241.963595 
L 348.294349 241.827431 
L 349.81769 241.912031 
L 350.122359 241.586466 
L 350.731695 241.928733 
L 351.036364 241.749696 
L 351.6457 242.116364 
L 351.950369 241.901934 
L 353.169042 241.986867 
L 353.47371 241.760164 
L 354.083047 241.749289 
L 354.387715 241.64526 
L 354.692383 241.969763 
L 354.997052 241.448569 
L 355.30172 241.780758 
L 355.911057 241.994091 
L 356.215725 241.704007 
L 356.520393 241.857995 
L 356.825061 241.863326 
L 357.12973 242.100642 
L 357.434398 241.704195 
L 357.739066 241.705006 
L 358.043735 241.880202 
L 359.567076 241.774605 
L 359.871744 241.549401 
L 360.176413 241.813341 
L 361.090418 241.945725 
L 361.699754 241.80303 
L 362.004423 241.935448 
L 362.309091 241.762387 
L 362.613759 241.863183 
L 362.918428 241.787655 
L 363.223096 241.921835 
L 363.832432 241.601614 
L 364.441769 241.987593 
L 364.746437 241.695442 
L 365.355774 241.577815 
L 365.660442 241.806385 
L 365.965111 241.442806 
L 366.269779 241.886913 
L 366.574447 241.866661 
L 367.183784 241.593885 
L 367.488452 241.72847 
L 367.79312 241.685022 
L 368.097789 241.480922 
L 368.402457 241.679546 
L 368.707125 241.605708 
L 369.011794 241.714828 
L 369.316462 241.339013 
L 370.230467 241.481924 
L 370.839803 241.577469 
L 371.144472 241.531346 
L 371.753808 241.681523 
L 372.058477 241.664003 
L 372.363145 241.814039 
L 372.972482 241.859309 
L 373.27715 241.976749 
L 373.581818 241.681653 
L 373.581818 241.681653 
" style="fill:none;stroke:#0000ff;stroke-linecap:square;stroke-width:1.5;"/>
   </g>
   <g id="line2d_13">
    <path clip-path="url(#p063bbc4f38)" d="M 69.218182 242.037656 
L 74.397543 242.012352 
L 75.616216 242.037656 
L 75.920885 241.807664 
L 76.530221 242.037656 
L 81.404914 242.037656 
L 81.709582 241.797861 
L 82.014251 241.820657 
L 82.318919 242.008757 
L 83.537592 242.037656 
L 85.060934 242.037656 
L 85.365602 241.667011 
L 85.67027 242.037656 
L 85.974939 241.556845 
L 86.279607 242.037654 
L 87.193612 241.980512 
L 87.49828 241.9238 
L 88.107617 242.037656 
L 88.412285 241.639026 
L 88.716953 242.037656 
L 89.021622 241.728997 
L 89.32629 241.783743 
L 89.935627 241.235251 
L 90.240295 242.037655 
L 90.544963 241.337484 
L 90.849631 240.952841 
L 91.1543 240.947268 
L 91.458968 242.037654 
L 91.763636 241.923186 
L 92.068305 240.866521 
L 92.372973 242.012572 
L 92.98231 240.127929 
L 93.286978 241.971373 
L 93.591646 240.701031 
L 93.896314 240.462125 
L 94.200983 239.718291 
L 94.505651 241.500842 
L 94.810319 240.651805 
L 95.114988 240.377692 
L 95.419656 239.240935 
L 95.724324 237.143018 
L 96.028993 240.904625 
L 96.333661 242.037648 
L 96.638329 238.978145 
L 96.942998 240.223148 
L 97.247666 235.432735 
L 97.552334 238.346592 
L 97.857002 238.8972 
L 98.161671 240.2471 
L 98.466339 240.38012 
L 98.771007 240.11104 
L 99.075676 241.052408 
L 99.380344 239.69121 
L 99.685012 241.028277 
L 99.989681 232.724849 
L 100.294349 234.333637 
L 100.599017 221.659797 
L 100.903686 239.426871 
L 101.208354 236.564397 
L 101.513022 220.799945 
L 101.81769 232.790348 
L 102.122359 236.318842 
L 102.427027 238.070619 
L 102.731695 240.821982 
L 103.036364 237.341996 
L 103.341032 239.52114 
L 103.6457 240.075517 
L 103.950369 236.057781 
L 104.255037 235.296913 
L 104.559705 234.120962 
L 104.864373 234.677672 
L 105.169042 228.97769 
L 105.778378 194.492725 
L 106.083047 216.395982 
L 106.387715 226.974571 
L 106.692383 196.021542 
L 106.997052 128.646823 
L 107.30172 107.51017 
L 107.606388 103.663796 
L 107.911057 242.011257 
L 108.215725 199.837723 
L 108.520393 208.595478 
L 108.825061 123.241987 
L 109.12973 154.471392 
L 109.434398 151.652632 
L 109.739066 175.070935 
L 110.043735 110.288809 
L 110.348403 220.601612 
L 110.653071 216.86787 
L 110.95774 201.68662 
L 111.262408 237.279857 
L 111.567076 229.254154 
L 111.871744 238.704361 
L 112.176413 222.013412 
L 112.481081 178.90381 
L 113.090418 242.036795 
L 113.395086 130.223629 
L 113.699754 187.828779 
L 114.004423 170.086134 
L 114.309091 191.620551 
L 114.613759 194.511207 
L 114.918428 216.877588 
L 115.223096 206.676408 
L 115.527764 210.213593 
L 115.832432 205.87699 
L 116.137101 184.18494 
L 116.441769 194.459621 
L 116.746437 221.839109 
L 117.051106 107.034385 
L 117.355774 211.679756 
L 117.660442 205.878785 
L 117.965111 232.190129 
L 118.269779 229.576186 
L 118.574447 219.301915 
L 118.879115 230.975493 
L 119.183784 234.196319 
L 119.79312 226.434198 
L 120.097789 223.187753 
L 120.402457 198.694612 
L 120.707125 223.110576 
L 121.011794 213.050875 
L 121.316462 208.72719 
L 121.62113 211.725954 
L 121.925799 218.480959 
L 122.230467 192.787128 
L 122.535135 186.297203 
L 122.839803 143.51161 
L 123.144472 165.076278 
L 123.44914 80.638074 
L 123.753808 85.892749 
L 124.058477 54.516461 
L 124.667813 77.15496 
L 124.972482 146.457268 
L 125.27715 92.229703 
L 125.581818 101.713626 
L 125.886486 159.264481 
L 126.191155 154.199157 
L 126.495823 99.20041 
L 126.800491 212.246958 
L 127.10516 165.802211 
L 127.409828 89.385671 
L 127.714496 136.872708 
L 128.019165 142.542549 
L 128.323833 63.309141 
L 128.628501 80.532757 
L 128.93317 44.443636 
L 129.237838 203.60656 
L 130.151843 87.79304 
L 130.456511 61.601254 
L 130.761179 103.293545 
L 131.065848 86.457239 
L 131.370516 138.003841 
L 131.675184 117.070289 
L 131.979853 87.454121 
L 132.589189 167.67105 
L 132.893857 111.723197 
L 133.503194 60.13789 
L 133.807862 228.064977 
L 134.112531 116.312671 
L 134.417199 114.016764 
L 134.721867 56.195964 
L 135.026536 150.929732 
L 135.331204 123.573338 
L 135.635872 112.052438 
L 135.940541 155.409101 
L 136.245209 94.754604 
L 136.549877 136.808818 
L 136.854545 75.068272 
L 137.159214 106.643941 
L 137.463882 119.969485 
L 137.76855 69.392285 
L 138.073219 102.640725 
L 138.377887 91.401926 
L 138.682555 70.49252 
L 138.987224 87.759731 
L 139.291892 190.100715 
L 139.59656 229.832823 
L 139.901229 229.261066 
L 140.205897 216.364661 
L 140.510565 226.909836 
L 140.815233 88.178443 
L 141.119902 154.455777 
L 141.42457 137.259801 
L 141.729238 204.914671 
L 142.033907 178.885725 
L 142.338575 117.023011 
L 142.643243 80.927203 
L 142.947912 71.574439 
L 143.25258 165.716915 
L 143.557248 109.374421 
L 143.861916 113.812557 
L 144.166585 71.217853 
L 144.471253 74.990139 
L 144.775921 112.572727 
L 145.08059 62.124923 
L 145.385258 220.351046 
L 145.689926 117.975475 
L 145.994595 120.841882 
L 146.603931 72.18911 
L 146.9086 68.276117 
L 147.517936 77.95753 
L 147.822604 135.270709 
L 148.127273 81.977415 
L 148.431941 89.647325 
L 148.736609 131.632522 
L 149.041278 87.357499 
L 149.650614 97.252219 
L 149.955283 99.254449 
L 150.259951 109.018414 
L 150.564619 128.033776 
L 150.869287 123.447718 
L 151.173956 129.568339 
L 151.478624 115.175631 
L 152.087961 142.034509 
L 152.392629 95.174834 
L 152.697297 102.975802 
L 153.001966 219.292752 
L 153.306634 95.925359 
L 153.611302 96.371199 
L 153.915971 88.514936 
L 154.220639 74.981906 
L 154.525307 115.262921 
L 154.829975 197.740902 
L 155.134644 117.826838 
L 155.439312 98.82028 
L 155.74398 120.074528 
L 156.048649 131.261658 
L 156.353317 99.309007 
L 156.657985 85.87189 
L 156.962654 113.682583 
L 157.267322 109.284603 
L 157.57199 133.679053 
L 157.876658 146.701025 
L 158.181327 142.591054 
L 158.790663 191.320745 
L 159.4 124.507912 
L 160.314005 222.487372 
L 161.22801 120.465334 
L 161.532678 136.183104 
L 161.837346 125.692902 
L 162.142015 138.732554 
L 162.446683 165.573044 
L 162.751351 145.060257 
L 163.05602 147.203352 
L 163.360688 115.911639 
L 163.665356 96.298441 
L 163.970025 124.927188 
L 164.274693 122.859813 
L 164.579361 132.595719 
L 164.884029 125.980593 
L 165.188698 91.774011 
L 165.493366 120.547987 
L 165.798034 117.142008 
L 166.102703 108.299479 
L 166.712039 124.152338 
L 167.016708 108.467458 
L 167.321376 106.780661 
L 167.626044 110.447486 
L 167.930713 127.485811 
L 168.235381 104.321802 
L 168.540049 101.884147 
L 168.844717 133.42793 
L 169.149386 193.574062 
L 169.454054 131.305556 
L 169.758722 146.377099 
L 170.063391 118.035263 
L 170.368059 105.669145 
L 170.672727 119.311783 
L 170.977396 117.214362 
L 171.282064 128.44284 
L 171.586732 118.106028 
L 171.8914 156.741696 
L 172.500737 106.634725 
L 172.805405 118.4043 
L 173.414742 101.395449 
L 173.71941 135.210893 
L 174.024079 113.209861 
L 174.633415 137.580628 
L 174.938084 104.499835 
L 175.242752 103.486052 
L 175.54742 113.103893 
L 175.852088 115.366707 
L 176.156757 118.563222 
L 176.461425 120.181247 
L 176.766093 127.085436 
L 177.070762 103.201633 
L 177.37543 104.53027 
L 177.680098 102.5944 
L 177.984767 111.394577 
L 178.289435 102.615967 
L 178.594103 135.830628 
L 178.898771 151.726185 
L 179.20344 102.611792 
L 179.508108 164.758261 
L 179.812776 119.098765 
L 180.117445 120.605709 
L 180.422113 118.593903 
L 180.726781 127.844281 
L 181.03145 110.890018 
L 181.640786 113.760137 
L 181.945455 111.397769 
L 182.250123 126.202061 
L 182.554791 126.980335 
L 182.859459 137.896732 
L 183.164128 135.495478 
L 183.468796 108.270734 
L 183.773464 117.471726 
L 184.078133 122.03928 
L 184.382801 122.605237 
L 184.687469 113.356909 
L 184.992138 117.921582 
L 185.296806 127.708803 
L 185.601474 130.046817 
L 185.906143 142.716876 
L 186.210811 145.137125 
L 186.515479 125.297706 
L 186.820147 117.184115 
L 187.124816 144.753477 
L 187.429484 125.571537 
L 187.734152 127.440476 
L 188.038821 125.017057 
L 188.343489 149.522927 
L 188.648157 149.31872 
L 188.952826 164.924088 
L 189.257494 127.130793 
L 189.562162 127.869524 
L 189.86683 195.288744 
L 190.171499 114.205414 
L 190.476167 157.418552 
L 190.780835 134.625061 
L 191.085504 186.937362 
L 191.390172 140.416794 
L 191.69484 122.427168 
L 191.999509 131.719372 
L 192.304177 130.950386 
L 192.608845 128.08304 
L 192.913514 116.983057 
L 193.218182 118.759874 
L 193.52285 119.204197 
L 193.827518 116.432275 
L 194.132187 137.15348 
L 194.436855 128.538414 
L 194.741523 129.101135 
L 195.046192 121.0847 
L 195.35086 141.905329 
L 195.655528 134.081025 
L 195.960197 143.631473 
L 196.264865 123.679327 
L 196.569533 122.2362 
L 196.874201 118.718085 
L 197.17887 119.178919 
L 197.483538 117.295383 
L 197.788206 161.493415 
L 198.092875 118.071519 
L 198.397543 130.616053 
L 198.702211 124.48766 
L 199.00688 127.590363 
L 199.311548 134.05134 
L 199.616216 122.359349 
L 199.920885 119.892754 
L 200.225553 127.076762 
L 200.530221 119.723533 
L 200.834889 123.1816 
L 201.139558 120.781011 
L 201.444226 129.870475 
L 201.748894 122.736591 
L 202.053563 121.592039 
L 202.358231 121.143909 
L 202.662899 145.02348 
L 202.967568 122.518055 
L 203.272236 123.367455 
L 203.576904 146.981963 
L 203.881572 124.773618 
L 204.186241 131.693725 
L 204.490909 131.254919 
L 204.795577 123.832261 
L 205.100246 146.060187 
L 205.404914 127.185069 
L 205.709582 131.996539 
L 206.014251 168.197413 
L 206.623587 133.334103 
L 206.928256 152.324967 
L 207.232924 127.074349 
L 207.537592 151.545819 
L 207.84226 148.259234 
L 208.146929 132.080132 
L 208.451597 140.876242 
L 209.060934 129.73249 
L 209.365602 132.66808 
L 209.67027 133.355243 
L 210.584275 139.432905 
L 210.888943 139.739642 
L 211.193612 132.481648 
L 211.49828 136.920513 
L 211.802948 132.416762 
L 212.412285 141.806721 
L 212.716953 134.33131 
L 213.021622 134.241579 
L 213.630958 145.910249 
L 213.935627 139.561522 
L 214.240295 137.869612 
L 214.544963 134.288575 
L 214.849631 140.119859 
L 215.1543 133.852254 
L 215.458968 136.60212 
L 215.763636 144.620266 
L 216.068305 134.657555 
L 216.372973 136.213091 
L 216.677641 147.00696 
L 216.98231 141.015223 
L 217.286978 155.764227 
L 217.591646 144.230754 
L 217.896314 150.278125 
L 218.200983 141.985577 
L 218.505651 146.509147 
L 218.810319 158.37171 
L 219.419656 175.663419 
L 219.724324 154.735083 
L 220.028993 144.940747 
L 220.333661 144.811632 
L 220.638329 149.368555 
L 220.942998 143.413746 
L 221.247666 147.106275 
L 221.552334 148.660656 
L 221.857002 154.24294 
L 222.161671 162.753403 
L 222.466339 158.500038 
L 222.771007 162.602642 
L 223.075676 150.454208 
L 223.380344 161.902767 
L 223.685012 143.60293 
L 223.989681 153.668403 
L 224.294349 149.553889 
L 224.599017 151.017694 
L 224.903686 155.685741 
L 225.208354 145.097878 
L 225.513022 150.167716 
L 225.81769 152.639655 
L 226.122359 143.754832 
L 226.427027 148.463101 
L 226.731695 145.680229 
L 227.036364 164.902832 
L 227.341032 141.808382 
L 227.6457 148.363836 
L 227.950369 144.471506 
L 228.255037 152.160036 
L 228.559705 146.854299 
L 228.864373 162.729164 
L 229.169042 143.187265 
L 229.47371 186.208237 
L 229.778378 147.668873 
L 230.083047 150.411791 
L 230.387715 144.895592 
L 230.692383 147.263233 
L 230.997052 156.918436 
L 231.30172 158.304137 
L 231.606388 146.868694 
L 231.911057 145.253478 
L 232.215725 146.388648 
L 232.520393 146.960512 
L 232.825061 154.289185 
L 233.12973 166.705961 
L 233.434398 145.672639 
L 233.739066 164.824454 
L 234.043735 149.685359 
L 234.348403 163.268138 
L 234.653071 147.48187 
L 234.95774 150.302277 
L 235.262408 148.031013 
L 235.567076 151.849118 
L 235.871744 150.33095 
L 236.176413 159.877101 
L 236.785749 150.03595 
L 237.090418 167.891218 
L 237.395086 157.201656 
L 237.699754 163.842631 
L 238.004423 164.624675 
L 238.309091 149.903159 
L 238.613759 151.078175 
L 238.918428 153.085828 
L 239.223096 153.488218 
L 239.527764 150.617839 
L 239.832432 156.827787 
L 240.137101 153.789617 
L 240.441769 164.123937 
L 241.051106 154.400381 
L 241.355774 155.191229 
L 241.660442 163.198788 
L 241.965111 152.482142 
L 242.574447 156.292064 
L 242.879115 161.185075 
L 243.488452 155.654483 
L 243.79312 164.103692 
L 244.097789 161.520506 
L 244.402457 177.603897 
L 244.707125 158.840915 
L 245.011794 153.12233 
L 245.316462 170.748849 
L 245.62113 167.194767 
L 245.925799 167.89423 
L 246.230467 157.982595 
L 246.535135 157.271511 
L 246.839803 155.993662 
L 247.144472 157.559072 
L 247.44914 159.935502 
L 247.753808 160.511129 
L 248.058477 155.433946 
L 248.363145 170.652618 
L 248.667813 164.22318 
L 248.972482 164.44254 
L 249.27715 162.891871 
L 249.581818 165.321798 
L 249.886486 165.200078 
L 250.191155 180.233249 
L 250.495823 161.581319 
L 250.800491 177.439522 
L 251.10516 176.880275 
L 251.409828 178.135713 
L 251.714496 176.272544 
L 252.019165 162.251762 
L 252.323833 161.098334 
L 252.628501 160.718557 
L 252.93317 167.714875 
L 253.237838 164.816531 
L 253.542506 164.378845 
L 253.847174 163.266447 
L 254.456511 169.606645 
L 254.761179 165.695536 
L 255.065848 170.376418 
L 255.370516 171.538477 
L 255.675184 165.774542 
L 255.979853 165.892239 
L 256.284521 174.611531 
L 256.589189 171.478581 
L 256.893857 170.128876 
L 257.198526 171.645123 
L 257.807862 163.155576 
L 258.112531 173.007561 
L 258.417199 165.370961 
L 258.721867 166.348711 
L 259.026536 164.234621 
L 259.331204 170.283039 
L 259.635872 181.520985 
L 260.245209 167.225534 
L 260.549877 166.921723 
L 260.854545 181.536965 
L 261.159214 171.811506 
L 261.463882 174.431787 
L 261.76855 162.06208 
L 262.073219 169.402048 
L 262.377887 167.371492 
L 262.987224 169.702443 
L 263.291892 163.490119 
L 263.59656 174.084814 
L 263.901229 166.9222 
L 264.205897 165.04507 
L 264.510565 169.579654 
L 264.815233 171.557826 
L 265.119902 172.564408 
L 265.42457 166.841952 
L 265.729238 169.136154 
L 266.033907 177.933853 
L 266.338575 178.226715 
L 266.643243 165.711693 
L 266.947912 170.202184 
L 267.25258 180.821378 
L 267.557248 167.021357 
L 267.861916 166.482427 
L 268.166585 172.72793 
L 268.471253 170.130487 
L 268.775921 176.599453 
L 269.08059 173.331646 
L 269.385258 171.71344 
L 269.689926 176.036602 
L 269.994595 175.198664 
L 270.299263 175.020335 
L 270.603931 177.007433 
L 271.213268 172.219392 
L 271.517936 176.960191 
L 271.822604 168.909356 
L 272.127273 170.347167 
L 272.431941 176.367295 
L 272.736609 175.678218 
L 273.041278 176.589869 
L 273.650614 172.140126 
L 273.955283 186.949092 
L 274.259951 181.344888 
L 274.564619 179.653158 
L 274.869287 182.358971 
L 275.173956 180.374137 
L 275.478624 171.595223 
L 275.783292 183.275009 
L 276.087961 176.428505 
L 276.392629 176.210662 
L 276.697297 178.520061 
L 277.001966 182.750455 
L 277.306634 183.435639 
L 277.611302 181.528089 
L 277.915971 193.897558 
L 278.220639 193.374939 
L 278.525307 193.190479 
L 278.829975 192.409749 
L 279.134644 197.366816 
L 279.439312 183.527494 
L 279.74398 184.599677 
L 280.048649 178.043764 
L 280.353317 180.967712 
L 280.657985 179.398127 
L 280.962654 173.665733 
L 281.267322 182.390619 
L 281.57199 177.39675 
L 281.876658 178.909242 
L 282.181327 183.206945 
L 282.485995 175.265421 
L 282.790663 174.55212 
L 283.095332 172.737948 
L 283.4 180.322598 
L 283.704668 176.430491 
L 284.009337 183.222516 
L 284.314005 178.720057 
L 284.618673 176.394805 
L 284.923342 177.211091 
L 285.22801 186.639401 
L 285.532678 183.054194 
L 285.837346 181.713506 
L 286.142015 181.236747 
L 286.446683 178.794687 
L 286.751351 183.848805 
L 287.05602 177.920333 
L 287.360688 186.40923 
L 287.665356 185.044918 
L 287.970025 187.037866 
L 288.274693 187.744378 
L 288.579361 184.222685 
L 288.884029 182.470781 
L 289.493366 185.405522 
L 289.798034 176.618635 
L 290.102703 175.44263 
L 290.407371 183.910091 
L 290.712039 183.969817 
L 291.016708 184.444453 
L 291.321376 187.426284 
L 291.626044 181.795947 
L 291.930713 181.586561 
L 292.235381 183.613397 
L 292.540049 177.400419 
L 292.844717 185.003891 
L 293.149386 186.644215 
L 293.454054 180.568124 
L 293.758722 180.830803 
L 294.063391 177.004732 
L 294.368059 180.29334 
L 294.672727 181.680778 
L 294.977396 184.600446 
L 295.282064 178.302587 
L 295.586732 184.338131 
L 295.8914 182.437211 
L 296.196069 190.146765 
L 296.500737 181.914077 
L 296.805405 189.755169 
L 297.110074 180.80689 
L 297.414742 185.614514 
L 297.71941 188.249998 
L 298.024079 186.101739 
L 298.328747 179.902866 
L 298.633415 183.59177 
L 298.938084 184.574532 
L 299.242752 191.877547 
L 299.54742 188.820393 
L 299.852088 188.884123 
L 300.156757 183.456147 
L 300.766093 182.467888 
L 301.070762 186.815112 
L 301.37543 184.590454 
L 301.680098 180.476681 
L 301.984767 185.775856 
L 302.289435 186.885603 
L 302.594103 184.762156 
L 302.898771 185.3613 
L 303.20344 187.476917 
L 303.508108 185.726314 
L 303.812776 186.203232 
L 304.117445 184.659107 
L 304.422113 187.323296 
L 304.726781 194.524265 
L 305.03145 185.108273 
L 305.336118 187.92842 
L 305.640786 187.462873 
L 305.945455 182.879462 
L 306.250123 181.340345 
L 306.554791 187.897984 
L 306.859459 191.854681 
L 307.164128 184.339067 
L 307.468796 185.426814 
L 307.773464 180.93282 
L 308.078133 188.495499 
L 308.382801 188.08953 
L 308.687469 187.209312 
L 308.992138 185.253451 
L 309.296806 188.920759 
L 309.601474 186.24388 
L 309.906143 186.746134 
L 310.210811 188.582598 
L 310.515479 183.216547 
L 310.820147 188.743127 
L 311.124816 188.955773 
L 311.429484 186.816065 
L 311.734152 190.72284 
L 312.038821 187.089275 
L 312.343489 192.068074 
L 312.648157 186.933408 
L 313.257494 193.898645 
L 313.562162 185.456917 
L 313.86683 191.573501 
L 314.171499 185.959078 
L 314.476167 189.260599 
L 314.780835 183.934506 
L 315.085504 191.012965 
L 315.69484 189.696397 
L 315.999509 184.434453 
L 316.304177 193.422723 
L 316.608845 187.865888 
L 316.913514 190.938632 
L 317.218182 197.29574 
L 317.52285 189.246646 
L 317.827518 192.988771 
L 318.132187 192.955017 
L 318.436855 192.174468 
L 318.741523 186.191246 
L 319.046192 193.129651 
L 319.35086 193.368483 
L 319.655528 188.90566 
L 319.960197 186.971275 
L 320.264865 190.623005 
L 320.569533 189.057183 
L 320.874201 192.926719 
L 321.17887 191.382388 
L 321.483538 188.369063 
L 321.788206 187.155577 
L 322.092875 188.248788 
L 322.397543 191.871058 
L 322.702211 191.322912 
L 323.00688 197.632916 
L 323.311548 192.421197 
L 323.616216 191.984767 
L 323.920885 201.392364 
L 324.225553 190.028047 
L 324.530221 193.134657 
L 324.834889 194.648534 
L 325.139558 191.940667 
L 325.444226 187.079005 
L 325.748894 192.469554 
L 326.053563 191.082625 
L 326.358231 192.701665 
L 326.662899 192.353302 
L 326.967568 197.619886 
L 327.576904 188.412084 
L 327.881572 192.752186 
L 328.186241 194.502031 
L 328.490909 195.601757 
L 328.795577 198.345086 
L 329.100246 193.594534 
L 329.404914 192.31758 
L 329.709582 188.082987 
L 330.014251 193.310487 
L 330.318919 194.937088 
L 330.623587 195.012414 
L 330.928256 197.207749 
L 331.232924 191.706581 
L 331.537592 193.41922 
L 331.84226 193.596437 
L 332.146929 193.011507 
L 332.451597 193.077311 
L 332.756265 198.831289 
L 333.060934 191.3536 
L 333.365602 195.252813 
L 333.67027 191.423289 
L 333.974939 193.238472 
L 334.279607 193.291376 
L 334.584275 196.610415 
L 334.888943 192.796737 
L 335.193612 198.078727 
L 335.49828 196.21783 
L 335.802948 197.473018 
L 336.107617 197.793719 
L 336.412285 191.091271 
L 336.716953 198.803898 
L 337.021622 197.117336 
L 337.32629 193.842393 
L 337.630958 193.635878 
L 337.935627 191.39653 
L 338.240295 200.118455 
L 338.544963 197.514114 
L 338.849631 197.604177 
L 339.1543 198.666405 
L 339.458968 195.820734 
L 339.763636 195.352916 
L 340.372973 199.254465 
L 340.677641 198.673103 
L 340.98231 192.087495 
L 341.286978 198.852252 
L 341.591646 193.036656 
L 341.896314 193.117142 
L 342.200983 198.71516 
L 342.505651 194.788772 
L 342.810319 197.715013 
L 343.114988 209.728279 
L 343.419656 199.169327 
L 344.028993 195.024656 
L 344.333661 197.845215 
L 344.638329 193.136372 
L 344.942998 200.126266 
L 345.247666 195.128858 
L 345.552334 199.741722 
L 345.857002 199.03521 
L 346.161671 196.40025 
L 346.466339 196.868126 
L 346.771007 202.432223 
L 347.075676 197.505414 
L 347.380344 200.105722 
L 347.685012 196.42325 
L 347.989681 199.220585 
L 348.294349 204.351506 
L 348.599017 195.841119 
L 350.122359 202.406674 
L 350.427027 197.945339 
L 350.731695 198.342587 
L 351.341032 198.255727 
L 351.6457 200.515926 
L 351.950369 197.631605 
L 352.255037 196.796111 
L 352.559705 198.585138 
L 352.864373 197.859129 
L 353.169042 201.345945 
L 353.47371 202.916638 
L 354.083047 200.928634 
L 354.387715 203.939254 
L 354.692383 200.34859 
L 354.997052 200.401946 
L 355.30172 199.583378 
L 355.606388 201.938776 
L 355.911057 201.511433 
L 356.215725 197.411072 
L 356.520393 206.519613 
L 356.825061 196.519008 
L 357.12973 202.296777 
L 357.434398 197.780383 
L 357.739066 202.533564 
L 358.043735 202.531939 
L 358.348403 199.950328 
L 358.653071 200.868651 
L 358.95774 208.857345 
L 359.262408 199.579611 
L 359.567076 201.600976 
L 359.871744 208.189524 
L 360.176413 199.027222 
L 360.785749 195.081049 
L 361.090418 198.832824 
L 361.395086 200.360171 
L 361.699754 198.443853 
L 362.004423 203.323217 
L 362.309091 198.958346 
L 362.613759 204.34302 
L 362.918428 198.504128 
L 363.223096 204.698092 
L 363.527764 201.574073 
L 363.832432 209.264827 
L 364.137101 202.131221 
L 364.441769 204.505398 
L 364.746437 204.256019 
L 365.051106 202.070047 
L 365.355774 209.105099 
L 365.965111 203.547066 
L 366.269779 204.650525 
L 366.574447 206.535383 
L 366.879115 202.755589 
L 367.183784 196.410481 
L 367.488452 207.771432 
L 367.79312 207.214374 
L 368.097789 212.71513 
L 368.402457 208.774775 
L 368.707125 201.41895 
L 369.011794 202.698005 
L 369.316462 202.855518 
L 369.62113 218.231292 
L 369.925799 206.803223 
L 370.535135 216.403035 
L 370.839803 209.033695 
L 371.144472 205.817543 
L 371.44914 209.949845 
L 371.753808 208.454229 
L 372.058477 213.116834 
L 372.363145 205.016746 
L 372.667813 205.661491 
L 372.972482 203.878087 
L 373.27715 204.817183 
L 373.581818 207.45184 
L 373.581818 207.45184 
" style="fill:none;stroke:#ff0000;stroke-linecap:square;stroke-width:1.5;"/>
   </g>
   <g id="patch_3">
    <path d="M 54 252 
L 54 34.56 
" style="fill:none;stroke:#000000;stroke-linecap:square;stroke-linejoin:miter;stroke-width:0.8;"/>
   </g>
   <g id="patch_4">
    <path d="M 388.8 252 
L 388.8 34.56 
" style="fill:none;stroke:#000000;stroke-linecap:square;stroke-linejoin:miter;stroke-width:0.8;"/>
   </g>
   <g id="patch_5">
    <path d="M 54 252 
L 388.8 252 
" style="fill:none;stroke:#000000;stroke-linecap:square;stroke-linejoin:miter;stroke-width:0.8;"/>
   </g>
   <g id="patch_6">
    <path d="M 54 34.56 
L 388.8 34.56 
" style="fill:none;stroke:#000000;stroke-linecap:square;stroke-linejoin:miter;stroke-width:0.8;"/>
   </g>
   <g id="text_12">
    <!-- gamma = 0.98 -->
    <defs>
     <path d="M 45.40625 27.984375 
Q 45.40625 37.75 41.375 43.109375 
Q 37.359375 48.484375 30.078125 48.484375 
Q 22.859375 48.484375 18.828125 43.109375 
Q 14.796875 37.75 14.796875 27.984375 
Q 14.796875 18.265625 18.828125 12.890625 
Q 22.859375 7.515625 30.078125 7.515625 
Q 37.359375 7.515625 41.375 12.890625 
Q 45.40625 18.265625 45.40625 27.984375 
z
M 54.390625 6.78125 
Q 54.390625 -7.171875 48.1875 -13.984375 
Q 42 -20.796875 29.203125 -20.796875 
Q 24.46875 -20.796875 20.265625 -20.09375 
Q 16.0625 -19.390625 12.109375 -17.921875 
L 12.109375 -9.1875 
Q 16.0625 -11.328125 19.921875 -12.34375 
Q 23.78125 -13.375 27.78125 -13.375 
Q 36.625 -13.375 41.015625 -8.765625 
Q 45.40625 -4.15625 45.40625 5.171875 
L 45.40625 9.625 
Q 42.625 4.78125 38.28125 2.390625 
Q 33.9375 0 27.875 0 
Q 17.828125 0 11.671875 7.65625 
Q 5.515625 15.328125 5.515625 27.984375 
Q 5.515625 40.671875 11.671875 48.328125 
Q 17.828125 56 27.875 56 
Q 33.9375 56 38.28125 53.609375 
Q 42.625 51.21875 45.40625 46.390625 
L 45.40625 54.6875 
L 54.390625 54.6875 
z
" id="DejaVuSans-67"/>
     <path d="M 34.28125 27.484375 
Q 23.390625 27.484375 19.1875 25 
Q 14.984375 22.515625 14.984375 16.5 
Q 14.984375 11.71875 18.140625 8.90625 
Q 21.296875 6.109375 26.703125 6.109375 
Q 34.1875 6.109375 38.703125 11.40625 
Q 43.21875 16.703125 43.21875 25.484375 
L 43.21875 27.484375 
z
M 52.203125 31.203125 
L 52.203125 0 
L 43.21875 0 
L 43.21875 8.296875 
Q 40.140625 3.328125 35.546875 0.953125 
Q 30.953125 -1.421875 24.3125 -1.421875 
Q 15.921875 -1.421875 10.953125 3.296875 
Q 6 8.015625 6 15.921875 
Q 6 25.140625 12.171875 29.828125 
Q 18.359375 34.515625 30.609375 34.515625 
L 43.21875 34.515625 
L 43.21875 35.40625 
Q 43.21875 41.609375 39.140625 45 
Q 35.0625 48.390625 27.6875 48.390625 
Q 23 48.390625 18.546875 47.265625 
Q 14.109375 46.140625 10.015625 43.890625 
L 10.015625 52.203125 
Q 14.9375 54.109375 19.578125 55.046875 
Q 24.21875 56 28.609375 56 
Q 40.484375 56 46.34375 49.84375 
Q 52.203125 43.703125 52.203125 31.203125 
z
" id="DejaVuSans-61"/>
     <path d="M 52 44.1875 
Q 55.375 50.25 60.0625 53.125 
Q 64.75 56 71.09375 56 
Q 79.640625 56 84.28125 50.015625 
Q 88.921875 44.046875 88.921875 33.015625 
L 88.921875 0 
L 79.890625 0 
L 79.890625 32.71875 
Q 79.890625 40.578125 77.09375 44.375 
Q 74.3125 48.1875 68.609375 48.1875 
Q 61.625 48.1875 57.5625 43.546875 
Q 53.515625 38.921875 53.515625 30.90625 
L 53.515625 0 
L 44.484375 0 
L 44.484375 32.71875 
Q 44.484375 40.625 41.703125 44.40625 
Q 38.921875 48.1875 33.109375 48.1875 
Q 26.21875 48.1875 22.15625 43.53125 
Q 18.109375 38.875 18.109375 30.90625 
L 18.109375 0 
L 9.078125 0 
L 9.078125 54.6875 
L 18.109375 54.6875 
L 18.109375 46.1875 
Q 21.1875 51.21875 25.484375 53.609375 
Q 29.78125 56 35.6875 56 
Q 41.65625 56 45.828125 52.96875 
Q 50 49.953125 52 44.1875 
z
" id="DejaVuSans-6d"/>
     <path id="DejaVuSans-20"/>
     <path d="M 10.59375 45.40625 
L 73.1875 45.40625 
L 73.1875 37.203125 
L 10.59375 37.203125 
z
M 10.59375 25.484375 
L 73.1875 25.484375 
L 73.1875 17.1875 
L 10.59375 17.1875 
z
" id="DejaVuSans-3d"/>
     <path d="M 10.6875 12.40625 
L 21 12.40625 
L 21 0 
L 10.6875 0 
z
" id="DejaVuSans-2e"/>
     <path d="M 10.984375 1.515625 
L 10.984375 10.5 
Q 14.703125 8.734375 18.5 7.8125 
Q 22.3125 6.890625 25.984375 6.890625 
Q 35.75 6.890625 40.890625 13.453125 
Q 46.046875 20.015625 46.78125 33.40625 
Q 43.953125 29.203125 39.59375 26.953125 
Q 35.25 24.703125 29.984375 24.703125 
Q 19.046875 24.703125 12.671875 31.3125 
Q 6.296875 37.9375 6.296875 49.421875 
Q 6.296875 60.640625 12.9375 67.421875 
Q 19.578125 74.21875 30.609375 74.21875 
Q 43.265625 74.21875 49.921875 64.515625 
Q 56.59375 54.828125 56.59375 36.375 
Q 56.59375 19.140625 48.40625 8.859375 
Q 40.234375 -1.421875 26.421875 -1.421875 
Q 22.703125 -1.421875 18.890625 -0.6875 
Q 15.09375 0.046875 10.984375 1.515625 
z
M 30.609375 32.421875 
Q 37.25 32.421875 41.125 36.953125 
Q 45.015625 41.5 45.015625 49.421875 
Q 45.015625 57.28125 41.125 61.84375 
Q 37.25 66.40625 30.609375 66.40625 
Q 23.96875 66.40625 20.09375 61.84375 
Q 16.21875 57.28125 16.21875 49.421875 
Q 16.21875 41.5 20.09375 36.953125 
Q 23.96875 32.421875 30.609375 32.421875 
z
" id="DejaVuSans-39"/>
    </defs>
    <g transform="translate(176.3475 28.56)scale(0.12 -0.12)">
     <use xlink:href="#DejaVuSans-67"/>
     <use x="63.476562" xlink:href="#DejaVuSans-61"/>
     <use x="124.755859" xlink:href="#DejaVuSans-6d"/>
     <use x="222.167969" xlink:href="#DejaVuSans-6d"/>
     <use x="319.580078" xlink:href="#DejaVuSans-61"/>
     <use x="380.859375" xlink:href="#DejaVuSans-20"/>
     <use x="412.646484" xlink:href="#DejaVuSans-3d"/>
     <use x="496.435547" xlink:href="#DejaVuSans-20"/>
     <use x="528.222656" xlink:href="#DejaVuSans-30"/>
     <use x="591.845703" xlink:href="#DejaVuSans-2e"/>
     <use x="623.632812" xlink:href="#DejaVuSans-39"/>
     <use x="687.255859" xlink:href="#DejaVuSans-38"/>
    </g>
   </g>
   <g id="legend_1">
    <g id="patch_7">
     <path d="M 298.026563 71.91625 
L 381.8 71.91625 
Q 383.8 71.91625 383.8 69.91625 
L 383.8 41.56 
Q 383.8 39.56 381.8 39.56 
L 298.026563 39.56 
Q 296.026563 39.56 296.026563 41.56 
L 296.026563 69.91625 
Q 296.026563 71.91625 298.026563 71.91625 
z
" style="fill:#ffffff;opacity:0.8;stroke:#cccccc;stroke-linejoin:miter;"/>
    </g>
    <g id="line2d_14">
     <path d="M 300.026563 47.658437 
L 320.026563 47.658437 
" style="fill:none;stroke:#0000ff;stroke-linecap:square;stroke-width:1.5;"/>
    </g>
    <g id="line2d_15"/>
    <g id="text_13">
     <!-- Actor Loss -->
     <defs>
      <path d="M 34.1875 63.1875 
L 20.796875 26.90625 
L 47.609375 26.90625 
z
M 28.609375 72.90625 
L 39.796875 72.90625 
L 67.578125 0 
L 57.328125 0 
L 50.6875 18.703125 
L 17.828125 18.703125 
L 11.1875 0 
L 0.78125 0 
z
" id="DejaVuSans-41"/>
      <path d="M 48.78125 52.59375 
L 48.78125 44.1875 
Q 44.96875 46.296875 41.140625 47.34375 
Q 37.3125 48.390625 33.40625 48.390625 
Q 24.65625 48.390625 19.8125 42.84375 
Q 14.984375 37.3125 14.984375 27.296875 
Q 14.984375 17.28125 19.8125 11.734375 
Q 24.65625 6.203125 33.40625 6.203125 
Q 37.3125 6.203125 41.140625 7.25 
Q 44.96875 8.296875 48.78125 10.40625 
L 48.78125 2.09375 
Q 45.015625 0.34375 40.984375 -0.53125 
Q 36.96875 -1.421875 32.421875 -1.421875 
Q 20.0625 -1.421875 12.78125 6.34375 
Q 5.515625 14.109375 5.515625 27.296875 
Q 5.515625 40.671875 12.859375 48.328125 
Q 20.21875 56 33.015625 56 
Q 37.15625 56 41.109375 55.140625 
Q 45.0625 54.296875 48.78125 52.59375 
z
" id="DejaVuSans-63"/>
      <path d="M 18.3125 70.21875 
L 18.3125 54.6875 
L 36.8125 54.6875 
L 36.8125 47.703125 
L 18.3125 47.703125 
L 18.3125 18.015625 
Q 18.3125 11.328125 20.140625 9.421875 
Q 21.96875 7.515625 27.59375 7.515625 
L 36.8125 7.515625 
L 36.8125 0 
L 27.59375 0 
Q 17.1875 0 13.234375 3.875 
Q 9.28125 7.765625 9.28125 18.015625 
L 9.28125 47.703125 
L 2.6875 47.703125 
L 2.6875 54.6875 
L 9.28125 54.6875 
L 9.28125 70.21875 
z
" id="DejaVuSans-74"/>
      <path d="M 30.609375 48.390625 
Q 23.390625 48.390625 19.1875 42.75 
Q 14.984375 37.109375 14.984375 27.296875 
Q 14.984375 17.484375 19.15625 11.84375 
Q 23.34375 6.203125 30.609375 6.203125 
Q 37.796875 6.203125 41.984375 11.859375 
Q 46.1875 17.53125 46.1875 27.296875 
Q 46.1875 37.015625 41.984375 42.703125 
Q 37.796875 48.390625 30.609375 48.390625 
z
M 30.609375 56 
Q 42.328125 56 49.015625 48.375 
Q 55.71875 40.765625 55.71875 27.296875 
Q 55.71875 13.875 49.015625 6.21875 
Q 42.328125 -1.421875 30.609375 -1.421875 
Q 18.84375 -1.421875 12.171875 6.21875 
Q 5.515625 13.875 5.515625 27.296875 
Q 5.515625 40.765625 12.171875 48.375 
Q 18.84375 56 30.609375 56 
z
" id="DejaVuSans-6f"/>
      <path d="M 41.109375 46.296875 
Q 39.59375 47.171875 37.8125 47.578125 
Q 36.03125 48 33.890625 48 
Q 26.265625 48 22.1875 43.046875 
Q 18.109375 38.09375 18.109375 28.8125 
L 18.109375 0 
L 9.078125 0 
L 9.078125 54.6875 
L 18.109375 54.6875 
L 18.109375 46.1875 
Q 20.953125 51.171875 25.484375 53.578125 
Q 30.03125 56 36.53125 56 
Q 37.453125 56 38.578125 55.875 
Q 39.703125 55.765625 41.0625 55.515625 
z
" id="DejaVuSans-72"/>
      <path d="M 9.8125 72.90625 
L 19.671875 72.90625 
L 19.671875 8.296875 
L 55.171875 8.296875 
L 55.171875 0 
L 9.8125 0 
z
" id="DejaVuSans-4c"/>
      <path d="M 44.28125 53.078125 
L 44.28125 44.578125 
Q 40.484375 46.53125 36.375 47.5 
Q 32.28125 48.484375 27.875 48.484375 
Q 21.1875 48.484375 17.84375 46.4375 
Q 14.5 44.390625 14.5 40.28125 
Q 14.5 37.15625 16.890625 35.375 
Q 19.28125 33.59375 26.515625 31.984375 
L 29.59375 31.296875 
Q 39.15625 29.25 43.1875 25.515625 
Q 47.21875 21.78125 47.21875 15.09375 
Q 47.21875 7.46875 41.1875 3.015625 
Q 35.15625 -1.421875 24.609375 -1.421875 
Q 20.21875 -1.421875 15.453125 -0.5625 
Q 10.6875 0.296875 5.421875 2 
L 5.421875 11.28125 
Q 10.40625 8.6875 15.234375 7.390625 
Q 20.0625 6.109375 24.8125 6.109375 
Q 31.15625 6.109375 34.5625 8.28125 
Q 37.984375 10.453125 37.984375 14.40625 
Q 37.984375 18.0625 35.515625 20.015625 
Q 33.0625 21.96875 24.703125 23.78125 
L 21.578125 24.515625 
Q 13.234375 26.265625 9.515625 29.90625 
Q 5.8125 33.546875 5.8125 39.890625 
Q 5.8125 47.609375 11.28125 51.796875 
Q 16.75 56 26.8125 56 
Q 31.78125 56 36.171875 55.265625 
Q 40.578125 54.546875 44.28125 53.078125 
z
" id="DejaVuSans-73"/>
     </defs>
     <g transform="translate(328.026563 51.158437)scale(0.1 -0.1)">
      <use xlink:href="#DejaVuSans-41"/>
      <use x="68.392578" xlink:href="#DejaVuSans-63"/>
      <use x="123.373047" xlink:href="#DejaVuSans-74"/>
      <use x="162.582031" xlink:href="#DejaVuSans-6f"/>
      <use x="223.763672" xlink:href="#DejaVuSans-72"/>
      <use x="264.876953" xlink:href="#DejaVuSans-20"/>
      <use x="296.664062" xlink:href="#DejaVuSans-4c"/>
      <use x="352.361328" xlink:href="#DejaVuSans-6f"/>
      <use x="413.542969" xlink:href="#DejaVuSans-73"/>
      <use x="465.642578" xlink:href="#DejaVuSans-73"/>
     </g>
    </g>
    <g id="line2d_16">
     <path d="M 300.026563 62.336562 
L 320.026563 62.336562 
" style="fill:none;stroke:#ff0000;stroke-linecap:square;stroke-width:1.5;"/>
    </g>
    <g id="line2d_17"/>
    <g id="text_14">
     <!-- Critic Loss -->
     <defs>
      <path d="M 64.40625 67.28125 
L 64.40625 56.890625 
Q 59.421875 61.53125 53.78125 63.8125 
Q 48.140625 66.109375 41.796875 66.109375 
Q 29.296875 66.109375 22.65625 58.46875 
Q 16.015625 50.828125 16.015625 36.375 
Q 16.015625 21.96875 22.65625 14.328125 
Q 29.296875 6.6875 41.796875 6.6875 
Q 48.140625 6.6875 53.78125 8.984375 
Q 59.421875 11.28125 64.40625 15.921875 
L 64.40625 5.609375 
Q 59.234375 2.09375 53.4375 0.328125 
Q 47.65625 -1.421875 41.21875 -1.421875 
Q 24.65625 -1.421875 15.125 8.703125 
Q 5.609375 18.84375 5.609375 36.375 
Q 5.609375 53.953125 15.125 64.078125 
Q 24.65625 74.21875 41.21875 74.21875 
Q 47.75 74.21875 53.53125 72.484375 
Q 59.328125 70.75 64.40625 67.28125 
z
" id="DejaVuSans-43"/>
      <path d="M 9.421875 54.6875 
L 18.40625 54.6875 
L 18.40625 0 
L 9.421875 0 
z
M 9.421875 75.984375 
L 18.40625 75.984375 
L 18.40625 64.59375 
L 9.421875 64.59375 
z
" id="DejaVuSans-69"/>
     </defs>
     <g transform="translate(328.026563 65.836562)scale(0.1 -0.1)">
      <use xlink:href="#DejaVuSans-43"/>
      <use x="69.824219" xlink:href="#DejaVuSans-72"/>
      <use x="110.9375" xlink:href="#DejaVuSans-69"/>
      <use x="138.720703" xlink:href="#DejaVuSans-74"/>
      <use x="177.929688" xlink:href="#DejaVuSans-69"/>
      <use x="205.712891" xlink:href="#DejaVuSans-63"/>
      <use x="260.693359" xlink:href="#DejaVuSans-20"/>
      <use x="292.480469" xlink:href="#DejaVuSans-4c"/>
      <use x="348.177734" xlink:href="#DejaVuSans-6f"/>
      <use x="409.359375" xlink:href="#DejaVuSans-73"/>
      <use x="461.458984" xlink:href="#DejaVuSans-73"/>
     </g>
    </g>
   </g>
  </g>
 </g>
 <defs>
  <clipPath id="p063bbc4f38">
   <rect height="217.44" width="334.8" x="54" y="34.56"/>
  </clipPath>
 </defs>
</svg>
